<?xml version="1.0" standalone="no"?>
<!DOCTYPE svg PUBLIC "-//W3C//DTD SVG 1.1//EN" "http://www.w3.org/Graphics/SVG/1.1/DTD/svg11.dtd" >
<svg xmlns="http://www.w3.org/2000/svg">
<metadata>
<json>
<![CDATA[
{
	"fontFamily": "Simple-Icons",
	"fontURL": "https://github.com/simple-icons/simple-icons",
	"designer": "",
	"designerURL": "",
	"license": "SIL OFL 1.1",
	"licenseURL": "http://scripts.sil.org/OFL",
	"description": "Font generated by IcoMoon.",
	"majorVersion": 3,
	"minorVersion": 12,
	"version": "Version 3.12",
	"fontId": "Simple-Icons",
	"psName": "Simple-Icons",
	"subFamily": "Regular",
	"fullName": "Simple-Icons"
}
]]>
</json>
</metadata>
<defs>
<font id="Simple-Icons" horiz-adv-x="1024">
<font-face units-per-em="1024" ascent="960" descent="-64" />
<missing-glyph horiz-adv-x="1024" />
<glyph unicode="&#x20;" horiz-adv-x="512" d="" />
<glyph unicode="&#xe900;" glyph-name="1-password" data-tags="password" d="M448.427 532.779v115.797c0 13.056 10.581 23.637 23.637 23.637h81.536c13.056 0 23.637-10.581 23.637-23.637v-211.968c0-3.243-1.621-5.717-3.243-8.149l-20.395-20.395c-4.907-4.907-4.907-12.245 0-16.299l20.395-20.395c2.432-2.432 3.243-4.907 3.243-8.149v-115.755c0-13.056-10.581-23.637-23.637-23.637h-81.536c-13.056 0-23.637 10.581-23.637 23.637v211.968c0 3.243 1.621 5.717 3.243 8.149l20.395 20.395c4.907 4.907 4.907 12.245 0 16.299l-20.395 20.395c-2.432 2.432-3.243 4.864-3.243 8.107zM816.085 448c0 167.936-136.149 304.085-304.085 304.085s-304.085-136.149-304.085-304.085 136.149-304.085 304.085-304.085 304.085 136.149 304.085 304.085zM912.299 448c0-220.928-179.371-399.488-399.488-399.488-220.928 0-399.488 179.371-399.488 399.488 0 220.928 179.371 399.488 399.488 399.488s399.488-178.56 399.488-399.488zM32.597 448c0-264.96 214.4-479.403 479.403-479.403s479.403 214.443 479.403 479.403-214.443 479.403-479.403 479.403-479.403-214.443-479.403-479.403zM0 448c0 282.923 229.077 512 512 512s512-229.077 512-512-229.077-512-512-512-512 229.077-512 512z" />
<glyph unicode="&#xe901;" glyph-name="4d" data-tags="d" d="M880.64 960v-1024h-737.28v1024h737.28zM447.573 455.381c-4.907-5.888-250.965-289.664-255.275-294.4-2.475-2.987-7.979-8.277-7.979-15.36 0-6.528 7.979-8.875 15.36-8.875h187.733v45.525h-138.667c20.907 26.027 144.213 163.157 157.696 180.309v-227.84c0-8.277-0.213-41.173-1.835-68.352-1.237-18.347-5.547-27.179-28.203-29.568-9.813-1.152-22.741-1.749-28.245-1.749-3.072 0-4.907-3.541-4.907-7.68s3.072-7.125 9.813-7.125c33.152 0 65.664 1.792 82.859 1.792 52.736 0 112.896-4.139 135.595-4.139 111.701 0 174.891 41.387 202.496 68.565 33.749 33.109 65.664 89.301 65.664 162.56 0 69.205-28.245 117.675-58.88 147.84-65.707 66.773-166.955 66.773-242.432 66.773-23.893 0-44.16-1.152-45.397-1.152-16.555-1.792-14.72 5.291-25.173 5.888-6.741 0.597-11.008-2.347-20.224-13.013zM528.555 436.48c47.275 0 116.011-7.083 171.819-58.539 25.771-23.637 58.325-71.509 58.325-145.408 0-60.331-12.288-113.493-50.944-145.451-36.224-30.123-77.312-41.984-139.307-41.984-47.872 0-71.808 12.416-79.787 23.040-4.907 6.528-7.339 29.611-7.936 44.373 0 4.139-0.64 12.373-0.64 24.235h43.563c10.453 0 13.525 2.347 16.597 7.68 4.267 7.68 10.411 31.36 10.411 36.693 0 4.693-2.432 7.083-5.547 7.083-3.669 0-11.648-5.931-27.605-5.931h-37.419v238.251c0 6.485 2.475 9.472 7.381 11.819 4.907 2.389 28.843 4.139 41.088 4.139z" />
<glyph unicode="&#xe902;" glyph-name="42" data-tags="42" d="M1024 430.080l-188.928-188.373h188.928zM835.072 618.539l-188.331-188.501v-188.331h188.331v188.373l188.928 188.459v188.928h-188.928zM646.741 618.539l188.331 188.928h-188.331zM0 277.504h377.259v-189.013h188.245v341.589h-376.576l376.576 377.429h-188.245l-377.259-377.472z" />
<glyph unicode="&#xe903;" glyph-name="500px" data-tags="px" d="M317.141 575.573c-70.418-0.097-127.476-57.156-127.573-127.564v-0.009c0.073-70.427 57.146-127.501 127.566-127.573h0.007c70.418 0.097 127.476 57.156 127.573 127.564v0.009c-0.073 70.427-57.146 127.501-127.566 127.573h-0.007zM317.141 347.605c-55.426 0.073-100.34 44.972-100.437 100.385v0.009c0.097 55.422 45.012 100.322 100.43 100.395h0.007c55.417-0.073 100.322-44.978 100.395-100.388v-0.007c-0.073-55.417-44.978-100.322-100.388-100.395h-0.007zM593.237 575.573c-70.418-0.097-127.476-57.156-127.573-127.564v-0.009c0.073-70.427 57.146-127.501 127.566-127.573h0.007c70.418 0.097 127.476 57.156 127.573 127.564v0.009c-0.097 70.418-57.156 127.476-127.564 127.573h-0.009zM593.237 347.605c-55.409 0.073-100.303 44.983-100.352 100.39v0.005c0.049 55.412 44.943 100.322 100.345 100.395h0.007c55.417-0.073 100.322-44.978 100.395-100.388v-0.007c-0.073-55.417-44.978-100.322-100.388-100.395h-0.007zM97.877 499.072c-3.9 0.601-8.398 0.945-12.977 0.945-20.893 0-40.115-7.151-55.354-19.138l0.192 0.146v67.627h114.645c3.968 0 6.827 0.725 6.827 12.459 0 11.477-4.608 11.947-7.68 11.947h-126.891c-7.424 0-11.307-5.973-11.307-12.544v-111.019c0-5.803 3.712-7.808 10.539-9.131 6.016-1.195 9.515-0.512 12.16 2.432l0.256 0.427c12.075 17.408 38.4 34.304 63.403 31.232 29.824-3.669 53.845-27.477 57.173-56.619 0.27-2.215 0.424-4.78 0.424-7.381 0-35.598-28.833-64.462-64.419-64.512h-0.005c-27.136 0-50.773 17.408-60.672 42.709-1.493 3.755-3.925 6.485-14.635 2.645-9.771-3.541-10.368-7.68-9.045-11.435 12.947-34.722 45.776-59.025 84.296-59.136h0.014c49.32 0.279 89.194 40.325 89.194 89.684 0 44.765-32.797 81.871-75.674 88.597l-0.506 0.065zM808.021 574.293c-34.347-2.645-61.184-32.853-61.184-68.693v-113.493c0-6.613 4.992-7.979 12.501-7.979s12.501 1.323 12.501 7.936v113.835c0 22.357 16.299 41.557 37.035 43.691 1.336 0.153 2.884 0.24 4.452 0.24 10.755 0 20.553-4.094 27.923-10.808l-0.033 0.030c8.454-7.708 13.739-18.768 13.739-31.062 0-0.030 0-0.059 0-0.089v0.005c0-3.413-1.664-14.507-9.259-24.747-5.76-7.765-16.64-17.024-36.011-17.024h-0.384c-4.907 0-9.173-0.213-9.984-11.947-0.555-7.936-0.512-11.477 6.315-12.373 12.203-1.707 24.576 0.683 36.907 7.083 20.992 10.923 35.072 31.616 36.736 54.059 0.122 1.514 0.192 3.277 0.192 5.056 0 18.382-7.442 35.027-19.478 47.084l0.001-0.001c-12.034 11.982-28.631 19.389-46.959 19.389-1.763 0-3.51-0.069-5.238-0.203l0.229 0.014zM975.232 507.733l46.293 46.336c1.707 1.664 5.632 5.632-2.347 13.824-3.413 3.541-6.528 5.333-9.259 5.333h-0.043c-2.071-0.049-3.912-0.995-5.154-2.464l-0.008-0.010-46.421-46.379-46.336 46.635c-3.755 3.755-8.107 2.859-13.739-2.773-5.76-5.803-6.699-10.24-2.944-13.995l46.336-46.592-45.696-45.696c-1.109-1.067-2.773-2.688-2.773-5.333-0.043-2.688 1.792-5.931 5.376-9.515 2.987-3.029 5.888-4.565 8.533-4.565 2.944 0 4.864 1.92 5.931 2.987l45.568 45.525 46.507-46.592c1.239-1.189 2.925-1.921 4.782-1.921 0.044 0 0.088 0 0.131 0.001h0.078c2.944 0 6.059 1.707 9.259 5.035 5.205 5.504 6.101 10.069 2.56 13.611z" />
<glyph unicode="&#xe904;" glyph-name="1001tracklists" data-tags="tracklists" d="M402.005 502.485h-57.6v-162.432h104.875v172.715h125.44v-185.045h-57.6v-57.6h-57.557v-104.875h104.875v115.2h115.157v222.037h-57.6v57.6h-219.989zM459.605-7.467h104.832v104.875h-104.917v-104.875zM345.429 845.867h-57.557v-57.6h-57.6v-57.515h-57.515v-57.6h-57.6v-285.824h-57.557v-57.6h-57.6v-104.832h57.6v-57.6h57.557v-57.557h104.875v335.189h-57.6v180.907h57.6v57.6h57.557v57.6h57.6v57.515h353.664v-57.6h57.557v-57.557h57.6v-57.6h57.557v-180.907h-57.6v-335.189h104.875v57.6h57.6v57.6h57.557v104.832h-57.6v57.6h-57.557v285.781h-57.6v57.6h-57.557v57.6h-57.557v57.6h-57.6v57.515h-333.056v-57.6z" />
<glyph unicode="&#xe905;" glyph-name="a-frame" data-tags="a-frame" d="M741.12 231.68h-460.8l-99.413-295.68h-52.48l351.147 1024h64.853l351.147-1024h-55.467zM724.48 279.893l-213.333 638.293-214.613-639.147h427.947z" />
<glyph unicode="&#xe906;" glyph-name="abbrobotstudio" data-tags="abbrobotstudio" d="M1024 428.373c0-226.216-183.384-409.6-409.6-409.6s-409.6 183.384-409.6 409.6v0h45.653c0-201.002 162.944-363.947 363.947-363.947s363.947 162.944 363.947 363.947c0 201.002-162.944 363.947-363.947 363.947v0 45.653c226.216 0 409.6-183.384 409.6-409.6v0zM614.4 564.907c-75.405 0-136.533-61.128-136.533-136.533s61.128-136.533 136.533-136.533c75.405 0 136.533 61.128 136.533 136.533v0c0 75.405-61.128 136.533-136.533 136.533v0zM529.067 564.907l-25.6 284.587-104.96-81.92-62.293 61.44c-34.725 30.159-80.384 48.54-130.335 48.54-40.74 0-78.625-12.227-110.184-33.212l0.733 0.458-86.187-55.467c-6.127-4.203-10.095-11.168-10.095-19.059 0-4.651 1.378-8.981 3.749-12.602l-0.054 0.088c4.203-6.127 11.168-10.095 19.059-10.095 4.651 0 8.981 1.378 12.602 3.749l-0.088-0.054 85.333 55.893c23.981 15.913 53.433 25.39 85.098 25.39 37.261 0 71.457-13.122 98.219-34.996l-0.278 0.22 58.453-58.88-97.707-77.653z" />
<glyph unicode="&#xe907;" glyph-name="abletonlive" data-tags="abletonlive" d="M0 686.933v-477.867h68.267v477.867zM136.533 686.933v-477.867h68.267v477.867zM273.067 686.933v-477.867h68.267v477.867zM409.6 686.933v-477.867h68.267v477.867zM546.133 686.933v-68.267h477.867v68.267zM546.133 550.4v-68.267h477.867v68.267zM546.133 413.867v-68.267h477.867v68.267zM546.133 277.333v-68.267h477.867v68.267z" />
<glyph unicode="&#xe908;" glyph-name="about-dot-me" data-tags="about-dot-me" d="M833.536 569.6c-58.581 0-91.008-43.264-97.877-90.283h196.608c-5.333 44.8-36.992 90.24-98.731 90.24zM737.109 415.232c10.027-49.323 50.901-84.053 108.032-84.053 30.933 0 75.52 11.52 101.717 38.997l50.133-57.6c-45.397-47.36-113.195-60.843-159.573-60.843-112.64 0-200.405 81.323-200.405 196.523 0 108.16 80.811 197.12 194.987 197.12 110.293 0 192-84.48 192-196.437v-32.683h-286.848v-0.981zM460.331 251.819v242.773c0 41.643-18.56 65.536-57.088 65.536-34.731 0-57.813-24.96-73.259-42.965v-266.24h-100.267v243.2c0 41.643-17.707 65.365-56.235 65.365-34.688 0-58.667-25.003-73.259-42.923v-266.24h-100.224v389.333h100.267v-49.067c17.067 19.797 55.552 53.76 115.627 53.76 53.205 0 89.429-22.4 105.685-67.84 22.357 32.512 64 67.84 124.16 67.84 72.533 0 114.773-43.093 114.773-126.379v-266.24h-100.395l0.213 0.256z" />
<glyph unicode="&#xe909;" glyph-name="abstract" data-tags="abstract" d="M512 960c409.643 0 512-102.357 512-512s-102.357-512-512-512c-409.643 0-512 102.357-512 512s102.357 512 512 512zM427.989 167.936c107.691-0.128 196.437 88.32 196.651 196.053 0 107.563-88.491 196.053-196.053 196.053s-196.053-88.533-196.053-196.053c0-107.349 88.107-195.755 195.456-196.053zM784 176v544h-544v-95.872h447.915v-448.128h96.085zM427.989 463.915c55.193-0.024 99.925-44.772 99.925-99.968 0-55.211-44.757-99.968-99.968-99.968-0.015 0-0.030 0-0.045 0h0.002c-55.193 0.024-99.925 44.772-99.925 99.968 0 55.211 44.757 99.968 99.968 99.968 0.015 0 0.030 0 0.045 0h-0.002z" />
<glyph unicode="&#xe90a;" glyph-name="academia" data-tags="academia" d="M940.075 56.32l-352.555 884.096h-251.776l44.757-111.915-302.165-772.181c-11.179-39.168-44.757-44.8-78.336-50.389v-50.347h290.987v50.347c-78.336 5.589-123.136 16.811-89.557 100.736 5.589 5.589 27.989 67.157 55.936 145.493h358.101l50.347-128.683c5.589-22.4 11.179-39.168 11.179-55.936 0-44.757-39.168-61.568-111.915-61.568v-50.347h458.923v50.347c-39.168 5.547-72.747 16.768-83.925 50.347zM290.987 347.264c55.936 139.904 117.504 302.165 139.904 363.733l145.493-363.733h-285.397z" />
<glyph unicode="&#xe90b;" glyph-name="accusoft" data-tags="accusoft" d="M771.328 262.613c-8.917 11.136-371.584 474.88-384.213 490.496-11.904 15.616-8.917 20.053-6.699 22.315 4.48 5.205 11.136 4.48 37.163 4.48 15.616 0 170.197 0.725 186.539 0.725 33.451 0 38.656-2.987 42.368-3.712 3.712-1.493 12.629-8.917 19.328-16.341 3.712-4.48 328.491-393.131 331.435-396.843 3.712-4.48 8.917-11.904 13.397-18.56 3.712-6.699 4.48-15.616-1.493-19.328-3.712-2.219-183.552-76.544-188.757-78.037-5.205-2.219-14.848-5.931-22.315-4.48-3.712-0.043-14.848 5.163-26.752 19.285zM954.88 271.531l13.397-2.219c0 0 43.093-8.192 47.573-9.643 4.437-0.768 8.149-4.48 8.149-5.973 0-3.712-2.219-5.205-5.931-7.424-2.987-2.219-197.675-121.856-201.387-124.117-3.712-2.219-8.192-4.48-18.56-5.931-19.328-3.712-55.723 6.699-67.627 8.917-11.136 2.219-489.003 108.501-492.715 109.995-4.48 1.493-7.424 1.493-7.424 5.931-0.725 6.699 9.643 8.917 17.835 11.904s232.619 83.968 240.768 87.68c8.192 3.712 17.835 4.48 23.040 4.48s36.395-4.48 50.517-6.699 54.229-8.192 54.229-8.192l91.392-118.144c15.616-18.56 26.027-26.027 39.381-26.752 6.699-0.725 14.123 1.493 19.328 3.712 3.755 1.451 188.032 82.475 188.032 82.475zM433.195 561.365c0 0 78.763-101.077 79.531-101.803 0.725-1.493 1.493-2.987 2.987-3.712v-1.493c-2.987-2.219-143.445-132.267-144.171-133.035l-147.883-54.229c0 0-4.48-1.493-6.699-2.987s-5.205-4.48-4.48-11.136c0-2.219 0.725-36.395 1.493-44.587-0.725-0.725 0 0-0.725-0.725 0 0-182.059-57.984-183.552-57.984-8.917-2.987-26.027-8.917-28.245-7.424-3.712 2.987 0.725 7.424 2.987 10.411 2.219 2.987 375.296 370.091 389.419 384.939 20.011 21.547 39.339 23.765 39.339 23.765z" />
<glyph unicode="&#xe90c;" glyph-name="acm" data-tags="acm" d="M317.227 437.333c-3.413-1.067-6.4-3.072-8.619-5.76-2.048-3.072-3.115-6.741-2.987-10.453 0-6.4 1.621-10.752 5.12-13.141 3.285-2.389 8.277-3.499 15.019-3.499 3.712 0 7.424 0.853 11.264 2.56 3.84 1.621 7.424 4.053 10.453 7.040v28.16c-7.168-0.64-12.928-1.28-17.28-1.92-4.48-0.427-8.832-1.451-13.013-2.987zM512 960l-512-512 512-512 512 512-512 512zM512 134.101c-173.312 0.085-313.813 140.544-313.899 313.899 0.085 173.312 140.587 313.856 313.899 313.941 173.355-0.085 313.813-140.587 313.899-313.941-0.085-173.355-140.544-313.813-313.899-313.899zM512 730.581v-0.085c-155.904 0-282.453-126.549-282.453-282.453s126.549-282.453 282.453-282.453 282.453 126.549 282.453 282.453c0 155.989-126.464 282.453-282.453 282.581zM389.888 378.752h-42.453v14.336l-7.765-6.571c-6.059-4.608-12.971-8.021-20.352-9.941-3.499-0.853-8.619-1.493-15.019-1.493-11.179-0.299-21.973 4.139-29.781 12.16-7.979 8.107-11.819 18.176-11.819 30.549 0 10.155 1.963 18.219 5.973 24.491 4.267 6.4 10.24 11.52 17.28 14.848 8.747 3.84 18.048 6.485 27.563 7.68 10.667 1.408 22.016 2.56 34.261 3.328v0.725c0 7.509-2.816 12.672-8.363 15.488-5.547 2.987-13.739 4.352-24.747 4.352-4.992 0-10.837-0.853-17.493-2.688-6.741-1.877-13.141-4.267-19.541-6.997h-3.712v32.853c4.139 1.28 10.923 2.645 20.48 4.267 9.259 1.707 18.688 2.56 28.288 2.56 23.467 0 40.533-3.925 51.2-11.776 10.667-7.808 16-19.712 16-35.712v-92.501zM527.275 385.877c-2.987-1.195-5.717-2.389-8.533-3.669-3.157-1.28-6.4-2.475-9.813-3.413-4.011-1.024-7.936-1.877-11.52-2.56-3.584-0.597-8.363-0.939-14.336-0.939-11.221 0-21.589 1.408-30.848 4.267-8.96 2.645-17.323 7.040-24.32 13.099-6.955 6.059-12.459 13.653-15.915 22.187-3.84 8.96-5.76 19.499-5.76 31.488-0.341 11.52 1.792 22.827 6.229 33.28 3.84 8.704 9.557 16.384 16.725 22.613 7.040 5.717 15.147 9.941 23.893 12.373 9.387 2.816 19.072 4.096 28.8 4.096 15.787 0 31.232-3.712 45.227-10.88v-36.437h-5.419c-2.048 1.835-4.096 3.627-6.272 5.291-2.56 2.048-5.205 3.84-8.021 5.376-7.125 4.053-15.232 6.144-23.467 5.973-10.837 0-19.2-3.669-25.173-11.221-5.888-7.552-8.96-17.664-8.96-30.464 0-13.653 3.2-23.893 9.6-30.507 6.4-6.699 14.805-10.027 25.259-10.027 4.693 0 9.472 0.555 14.080 1.792 6.528 1.835 12.587 5.12 17.707 9.6 2.048 1.707 3.755 3.499 5.248 4.693h5.547v-35.968zM712.149 378.496v68.139c0 6.699 0 12.373-0.299 16.939-0.085 3.84-0.853 7.68-2.219 11.221-0.981 2.816-2.987 5.12-5.547 6.4-6.528 2.731-13.867 2.688-20.395-0.085-3.669-1.707-7.168-3.712-10.411-5.973v-96.555h-42.368v68.053c0 6.656-0.128 12.203-0.427 16.896-0.128 3.84-0.853 7.68-2.133 11.264-1.152 2.816-3.243 5.12-5.803 6.4-2.56 1.408-6.187 2.048-10.667 2.048-3.541 0-7.040-0.853-10.24-2.389-3.328-1.707-6.485-3.669-9.728-5.803v-96.512h-42.453v136.021h42.368v-15.189c6.144 5.333 12.629 9.941 19.627 13.781 6.315 3.413 13.397 5.12 20.651 5.12 7.765 0.171 15.36-1.92 21.931-5.973 6.528-4.267 11.52-10.411 14.507-17.664 8.107 7.552 15.787 13.397 23.040 17.493s14.507 6.187 21.973 6.187c5.803 0.085 11.52-0.981 16.896-3.2 4.907-1.877 9.387-4.949 12.8-8.96 3.84-4.523 6.827-9.813 8.533-15.531 1.92-6.059 2.816-13.995 2.816-23.595v-88.576h-42.453z" />
<glyph unicode="&#xe90d;" glyph-name="actigraph" data-tags="actigraph" d="M513.835 960c17.621 0 35.413-11.349 44.971-23.296s8.149-14.592 8.96-22.571c0.768-7.979 6.827-11.307 6.827-26.453s-6.827-21.077-11.605-27.477c-4.779-6.4-2.005-8.533-5.973-17.323-4.011-8.789-5.035-7.168-8.235-14.336s5.248-19.712 13.611-26.027c8.363-6.272 16.128-11.179 40.021-13.568s29.141-1.28 41.088-2.133c11.947-0.768 19.328-7.424 37.632-9.813 18.347-2.389 19.157 0 34.261 0 15.147 0 19.712-2.261 33.28-2.261 13.525 0 32 5.973 48.683 5.205 16.768-0.768 61.013-4.907 79.36-4.907s39.723 18.859 58.88 18.048c19.115-0.768 35.499-5.077 36.267-19.413 0.811-14.336-7.040-32.512-15.787-35.712-8.789-3.157-25.984 2.859-36.352 2.859-10.325 0-21.163-1.28-25.856-1.067-5.675 0.299-9.899 3.84-16.256 2.261-6.4-1.621-32.427-12.672-41.984-13.44-9.557-0.853-29.397 1.451-37.333-0.128-7.979-1.621-35.072-6.4-46.208-7.168-11.179-0.853-33.536 0.853-43.904-0.768-10.368-1.579-26.24-4.821-35.797-4.821s-29.952 7.339-36.949 2.304c-16.939-12.288-14.336-29.141-22.699-53.205-7.979-22.955-20.821-37.547-22.4-55.040-1.621-17.579 9.557-74.155 15.147-94.080 5.547-19.925 21.504-46.208 31.872-78.848 10.325-32.683 24.747-98.56 30.336-125.653s0.171-26.453 4.693-41.685c4.608-15.445 26.283-39.851 37.461-78.080 11.136-38.229 23.339-117.077 27.307-137.813 4.011-20.693 5.76-23.808 7.339-30.165 1.579-6.4-1.92-9.131 1.664-14.933 16.128-26.155 36.181-36.224 33.792-52.139-2.389-15.957-27.819-21.888-46.208-19.115-13.909 2.048-22.315 28.672-25.472 36.651-3.2 7.936 0.128 10.197-3.072 15.787-3.2 5.547-3.797 8.491-5.376 22.827s0.683 15.36-1.664 24.832c-12.544 51.072-48.811 100.992-57.6 130.987-4.992 16.768-2.091 18.944-5.291 34.091-3.157 15.147-102.485 231.253-123.008 231.253-21.163 0-118.741-213.589-122.752-227.115-3.968-13.568-1.707-27.221-5.675-38.357s-51.541-101.888-58.027-129.792c-4.267-18.261-0.512-23.723-2.901-34.133-2.389-10.325-11.349-55.595-28.117-64.384-16.725-8.747-46.336-1.963-50.261 12.459-6.059 22.187 28.928 38.656 32.64 58.965 3.243 17.493 34.304 177.707 47.019 208.768 12.757 31.061 20.736 27.904 26.283 45.397 1.792 5.547 1.835 21.931 4.821 40.32 6.528 39.851 18.475 97.877 32.64 136.576 20.736 56.576 49.365 111.403 44.032 166.101-2.261 22.997-9.813 25.856-17.792 52.139s-18.261 57.472-28.587 59.051c-10.411 1.579-19.157-3.968-31.915-3.968s-38.229 5.547-47.787 5.547c-9.557 0-42.325 2.133-55.893 2.133s-23.040 3.456-30.976 2.688c-7.979-0.853-15.36-0.299-24.917-0.299-11.947 0-43.392 14.507-51.371 14.507s-10.453-1.536-17.621-1.536c-7.168 0-13.867 2.688-21.845 2.688-7.936 0-22.699-4.608-30.293-4.608-7.936 0-23.040 17.877-20.651 37.803 2.389 19.883 34.347 17.92 42.283 17.92 11.221 0 37.931-15.147 48.256-16.725 10.368-1.621 65.621 4.309 77.568 4.309s46.080-5.376 64.384-5.376c18.347 0 43.264-0.427 58.411 1.963s29.013 10.411 38.528 11.179c9.557 0.811 52.821-3.883 77.099 13.056 16 11.136 17.536 20.736 16.725 27.904-0.768 7.168-5.973 8.192-9.984 15.36s-2.261 13.013-4.651 17.792c-2.389 4.779-11.477 9.045-11.648 26.581-0.171 13.739 1.493 11.861 6.272 25.429 4.779 13.525 4.949 19.243 16.128 30.165 8.107 7.851 24.533 15.829 42.155 15.829z" />
<glyph unicode="&#xe90e;" glyph-name="activision" data-tags="activision" d="M80.213 579.84l-80.213-229.291h42.027l11.52 30.635h53.419l11.477-30.635h42.027zM217.771 564.523l-22.912-41.984h91.733v-171.947h41.941v171.947h64.939l80.299-206.379 76.416 206.379h194.859l-22.912 41.984h-202.453l-45.824-122.24-49.749 122.24zM909.397 514.901v-160.512h42.069v64.981l72.533-72.619v160.427h-38.229v-57.259zM229.291 511.061c-45.867 0-80.256-34.432-80.256-80.256 0-45.867 34.389-80.213 80.213-80.213 19.115 0 38.187 7.637 49.664 19.072l-22.912 38.229c-7.68-7.68-15.275-11.52-26.752-11.52-21.085 0.049-38.162 17.141-38.187 38.227v0.002c0 19.115 15.275 38.229 38.187 38.229 7.68 0 19.115-3.797 22.912-11.435l26.752 30.507c-11.52 11.477-30.549 19.115-49.664 19.115zM550.229 511.061v-156.672h42.027v156.629zM641.877 511.061c-15.275 0-34.304-7.68-34.304-38.229 0-38.229 45.824-61.141 42.027-76.459-3.84-7.637-11.52-7.595-15.317-7.595h-26.709v-34.389h45.824c19.115 0 38.187 11.477 38.187 34.389 0 42.027-53.461 68.736-41.984 84.053 0 3.84 7.595 3.84 7.595 3.84h26.795v34.347zM695.424 511.061v-156.672h41.984v156.629zM825.344 511.061c-45.867 0-80.213-34.432-80.213-80.256 0-42.027 34.347-80.213 80.213-80.213 45.824 0 80.213 34.347 80.213 80.213 0 45.824-34.389 80.213-80.213 80.213zM355.328 507.221v-156.672h42.069v156.672zM825.344 468.992c19.115 0 38.187-15.275 38.187-38.187-0.024-21.089-17.101-38.181-38.182-38.229h-0.005c-22.955 0-42.027 15.275-38.229 38.229 0 19.115 15.275 38.187 38.229 38.187zM80.213 461.397l11.52-38.229h-23.040z" />
<glyph unicode="&#xe90f;" glyph-name="adblock" data-tags="adblock" d="M331.733 960c-0.005 0-0.012 0-0.018 0-21.203 0-40.4-8.593-54.297-22.486l-254.89-254.976c-13.903-13.886-22.509-33.072-22.528-54.268v-360.537c0-20.395 8.107-39.936 22.528-54.357l254.891-254.891c13.897-13.893 33.094-22.485 54.297-22.485 0.006 0 0.013 0 0.019 0h360.532c0.005 0 0.012 0 0.018 0 21.203 0 40.4 8.593 54.297 22.486l254.933 254.89c13.893 13.897 22.485 33.094 22.485 54.297 0 0.021 0 0.042 0 0.064v-0.003 360.533c-0.007 21.194-8.598 40.381-22.485 54.272l-254.933 254.976c-13.897 13.893-33.094 22.485-54.297 22.485-0.006 0-0.013 0-0.019 0h0.001zM520.619 832c43.52 0 40.875-47.275 40.875-47.275v-289.451s-0.384-9.301 6.827-9.301c8.021 0 7.467 9.643 7.467 9.643l-0.085 240.213s-2.133 42.069 40.917 42.069c43.093 0 41.387-41.941 41.387-41.941v-325.163s0.597-6.741 6.016-6.741c5.419 0 40.277 90.539 40.277 90.539s19.243 63.872 109.909 46.933c1.621-0.341-7.125-29.355-7.125-29.355l-97.408-279.723s-40.235-155.648-209.877-155.648c-215.211 0-205.141 230.699-205.397 230.613v329.941s-0.683 42.24 38.272 42.24c36.608 0 36.224-42.24 36.224-42.24l0.299-152.875s-0.171-7.339 7.125-7.339c6.827 0 6.016 7.339 6.016 7.339l0.427 252.843s-2.347 49.579 41.216 49.579c44.373 0 41.941-48.725 41.941-48.725v-239.403s-0.213-8.704 6.485-8.704c7.168 0 6.571 8.789 6.571 8.789l0.427 285.568s-2.389 47.573 41.216 47.573z" />
<glyph unicode="&#xe910;" glyph-name="adblockplus" data-tags="adblockplus" d="M299.819 960l-299.819-299.819v-424.149l299.819-300.032h424.149l300.032 300.032v424.107l-299.819 299.861zM308.437 939.52h407.125l287.957-287.957v-407.125l-287.957-287.957h-407.083l-288 287.957v407.083zM332.203 882.176l-254.379-254.379v-359.595l254.379-254.379h359.595l254.379 254.379v359.595l-254.379 254.379zM187.563 632.32h84.651l97.493-358.827h-74.581l-19.072 85.419h-95.232l-19.029-85.205h-71.68zM413.696 632.32h106.283c15.147 0.213 30.293-1.237 45.269-4.096 12.885-2.475 25.387-7.381 36.267-14.507 10.24-6.997 18.603-16.427 24.32-27.477 5.973-11.477 8.832-25.813 8.832-43.008 0-8.192-1.024-16.384-3.072-24.149-2.048-8.021-5.12-15.573-9.216-22.528-4.267-7.168-9.813-13.525-16.171-18.645-6.955-5.547-14.933-9.643-23.339-12.075v-2.261c22.315-4.693 39.125-13.952 50.347-27.435 11.307-13.525 17.024-32.384 17.024-56.747 0-18.432-3.072-34.219-9.216-47.317-5.973-12.885-14.763-23.936-25.813-32.768-11.477-8.789-24.576-15.36-38.485-19.243-15.36-4.267-31.36-6.571-47.317-6.357h-115.712zM698.155 632.32h113.877c15.957 0.213 31.957-1.835 47.531-5.717 14.080-3.499 27.435-10.069 38.699-19.285 11.477-9.6 20.48-21.888 26.027-35.84 6.315-14.72 9.6-32.939 9.6-54.656 0-20.907-3.285-39.125-9.813-54.485-5.973-14.507-14.933-27.435-26.624-37.888-10.835-9.627-23.755-17.179-37.972-21.881l-0.769-0.22c-13.762-4.547-29.604-7.17-46.058-7.17-0.293 0-0.586 0.001-0.878 0.002h-43.347v-121.685h-70.272zM227.328 570.667c-3.883-19.029-7.765-38.699-11.691-58.581-3.84-19.84-8.192-38.912-12.672-56.917l-7.595-32.981h66.347l-7.168 32.981c-2.858 9.786-7.321 29.040-11.365 48.448l-1.521 8.726c-6.75 35.129-11.086 54.8-15.665 74.377l3.163-16.052zM483.541 569.429v-81.92h32.981c17.195 0 29.696 3.925 37.461 11.904s11.691 18.645 11.691 32.128c0 13.525-3.925 23.381-11.904 29.099s-20.267 8.789-36.864 8.789zM768.597 567.808v-108.373h39.125c38.315 0 57.344 19.072 57.344 57.173 0 18.645-4.907 31.957-14.507 39.723-9.643 7.808-23.979 11.477-42.837 11.477zM483.541 430.421v-94.037h39.723c38.485 0 57.771 16.384 57.771 48.939 0 15.787-4.693 27.264-14.336 34.432s-23.979 10.667-43.435 10.667z" />
<glyph unicode="&#xe911;" glyph-name="addthis" data-tags="addthis" d="M768 384.171h-192.043v-191.317h-128v191.317h-191.957v127.573h192v191.36h128.043v-191.36h191.957v-127.573zM896 958.251h-768c-70.485-0.085-127.659-57.088-128-127.573v-765.44c0.341-70.4 57.515-127.403 128-127.488h768c70.443 0.085 127.616 57.088 128 127.488v765.44c-0.384 70.485-57.515 127.445-128 127.573z" />
<glyph unicode="&#xe912;" glyph-name="adguard" data-tags="adguard" d="M512 960c-148.523 0-323.157-35.328-472.277-112.128l-23.253-11.904v-26.283c0-158.336 3.029-580.821 473.643-860.544l21.888-13.141 21.888 13.141c470.613 279.723 473.6 702.208 473.6 860.587v25.941l-22.955 12.032c-147.328 77.099-324.011 112.299-472.533 112.299zM512 874.155c127.061 0 280.917-32.555 408.576-93.739-0.341-165.888-17.835-492.501-408.576-739.413-390.741 246.912-408.277 573.525-408.576 739.413 129.536 61.397 281.515 93.739 408.576 93.739zM726.827 636.715c-11.093-0.341-20.651-7.381-26.027-12.757l-229.547-238.080-85.845 102.955c-40.747 47.189-96.512 10.709-109.397 2.133l199.552-231.68 272.427 368.981c-5.373 5.227-12.719 8.45-20.817 8.45-0.122 0-0.243-0.001-0.364-0.002h0.018z" />
<glyph unicode="&#xe913;" glyph-name="adobe" data-tags="adobe" d="M595.883-5.291l-72.107 182.656h-177.237l166.059 390.144 241.579-572.8zM379.051 901.291h-379.051v-906.581zM1024 901.291h-379.051l379.051-906.581z" />
<glyph unicode="&#xe914;" glyph-name="adobeacrobatreader" data-tags="adobeacrobatreader" d="M1008.213 307.2c-30.293 31.787-92.416 49.92-180.224 49.92-46.933 0-101.419-4.523-160.469-15.104-35.586 34.258-67.903 71.366-96.773 111.137l-1.659 2.399c-22.699 30.293-42.411 63.573-60.587 95.403 34.859 105.984 51.499 192.299 51.499 254.379 0 69.632-25.728 142.336-99.925 142.336-22.699 0-45.44-13.653-57.557-33.323-33.28-59.051-18.133-187.733 39.381-314.923-27.458-82.922-52.069-146.574-79.080-208.946l6.418 16.647c-24.235-57.557-51.499-116.608-81.792-171.093-166.528-66.645-274.048-143.872-286.165-204.373-4.523-22.741 3.029-43.947 19.712-60.587 6.059-4.565 27.264-22.741 63.573-22.741 110.507 0 227.115 178.688 286.165 286.165 45.44 15.147 90.88 30.293 136.277 42.411 37.575 10.902 86.619 21.954 136.511 30.528l8.854 1.259c116.565-104.448 219.52-121.131 271.019-121.131 63.573 0 86.315 25.771 93.867 46.933 13.653 27.307 4.523 57.557-9.088 72.704zM947.627 263.253c-4.565-22.699-27.307-37.845-59.051-37.845-9.088 0-16.64 1.536-25.771 3.029-57.515 13.653-112.043 42.411-166.528 87.851 37.893 6.733 81.518 10.582 126.042 10.582 0.388 0 0.776 0 1.165-0.001h-0.060c31.829 0 59.093-1.493 77.227-6.059 21.205-4.523 54.528-18.176 46.933-57.515zM626.603 334.421c-53.102-9.911-95.416-19.878-137.056-31.466l11.402 2.708c-48.197-12.394-84.084-23.283-119.444-35.309l11.924 3.522c13.948 25.728 31.196 61.55 47.205 98.038l4.293 10.975c18.176 42.411 33.28 86.315 48.469 127.189 15.104-25.728 31.787-51.499 48.427-74.197 30.177-38.37 57.919-71.402 86.62-103.561l-1.841 2.099zM428.288 897.707c5.411 10.674 16.214 17.911 28.728 18.133h0.030c31.787 0 37.845-36.309 37.845-65.109 0-48.427-15.147-122.624-40.875-207.403-43.947 118.101-46.933 216.491-25.728 254.379zM261.717 192.128c-77.227-127.189-151.424-205.909-196.821-205.909-0.068 0-0.147-0.001-0.227-0.001-8.483 0-16.303 2.839-22.561 7.619l0.090-0.066c-9.088 9.088-13.653 19.669-10.624 31.787 9.088 45.44 96.896 109.013 230.144 166.571z" />
<glyph unicode="&#xe915;" glyph-name="adobeaftereffects" data-tags="adobeaftereffects" d="M364.373 502.187c-4.267 13.227-8.107 26.027-12.373 39.253s-8.107 25.6-11.52 37.973c-3.413 11.947-6.4 23.040-9.387 33.28h-0.853c-3.84-18.347-8.533-36.693-14.507-55.040-6.4-20.48-12.8-41.813-19.627-63.147-5.547-21.76-12.373-41.813-18.773-59.733h108.373c-2.56 8.96-5.973 19.627-9.813 30.72-3.84 11.52-7.68 23.893-11.52 36.693zM730.453 514.56c-23.467 1.28-45.653-11.093-56.747-32.427-5.12-9.813-8.107-20.053-9.387-30.72h89.984c11.093 0 19.2 0 24.32 0.427 3.413 0.427 6.827 1.28 9.813 3.413v4.267c0 5.547-0.896 10.667-2.603 15.787-7.595 23.893-30.208 40.107-55.381 39.253zM842.667 947.2h-661.333c-100.267 0-181.333-81.067-181.333-181.333v-635.733c0-100.267 81.067-181.333 181.333-181.333h661.333c100.267 0 181.333 81.067 181.333 181.333v635.733c0 100.267-81.067 181.333-181.333 181.333zM542.293 242.731h-89.173c-2.987-0.427-5.973 1.749-6.827 4.693l-34.987 102.4h-158.72l-32.427-100.693c-0.853-3.84-4.267-6.4-8.107-5.973h-80.213c-4.693 0-5.973 2.56-4.693 7.68l137.387 393.856c1.28 4.267 2.56 8.107 4.267 13.227 1.707 8.96 2.56 18.347 2.56 27.733-0.427 2.133 1.28 4.267 3.413 4.693h110.507c2.987 0 5.12-1.28 5.547-3.413l155.733-437.333c1.28-4.693 0.043-6.869-4.267-6.869zM877.269 413.013c-0.896-8.064-1.323-14.080-1.749-17.92-0.427-2.987-2.944-5.547-5.973-5.547-2.56 0-7.253-0.427-14.080-0.896-6.784-0.853-14.933-1.237-24.704-1.237-9.813 0-20.096 1.707-31.147 1.707h-135.253c1.664-13.227 5.973-26.453 13.227-37.973 7.723-11.563 18.389-20.48 31.104-25.643 17.067-7.253 35.883-11.093 54.656-10.667 14.933 0.469 29.824 1.707 44.331 4.693 13.269 1.664 26.027 5.077 38.016 9.813 2.133 1.664 3.413 0.853 3.413-3.413v-65.323c0-1.664-0.427-3.413-0.896-5.077-0.896-1.28-1.707-2.176-2.944-2.987-13.653-5.973-27.733-10.24-42.667-12.8-20.096-3.84-40.107-5.547-60.587-5.12-32.469 0-59.733 5.12-81.92 14.933-20.907 9.003-39.296 23.083-53.803 40.533-13.611 16.64-23.467 35.413-29.44 55.893-5.973 20.096-8.917 41.003-8.917 62.336 0 22.997 3.413 45.653 10.667 67.84 6.827 21.333 17.493 40.96 32 58.453 14.080 17.067 31.531 30.72 51.584 40.533 20.096 9.813 43.947 13.227 71.253 13.227 22.656 0.427 45.227-3.84 66.133-13.227 17.493-7.68 32.853-19.2 44.8-34.133 11.093-14.507 20.053-30.72 25.643-48.64 5.504-17.067 8.064-34.56 8.064-52.053 0-10.24-0.427-19.2-0.811-27.307z" />
<glyph unicode="&#xe916;" glyph-name="adobeaudition" data-tags="adobeaudition" d="M842.667 947.2h-661.333c-100.267 0-181.333-81.067-181.333-181.333v-635.733c0-100.267 81.067-181.333 181.333-181.333h661.333c100.267 0 181.333 81.067 181.333 181.333v635.733c0 100.267-81.067 181.333-181.333 181.333zM533.333 243.2h-89.173c-2.987-0.469-5.973 1.707-6.827 4.693l-34.987 101.973h-158.72l-32.427-100.693c-0.853-3.84-4.267-6.4-8.107-5.973h-80.213c-4.693 0-5.973 2.56-4.693 7.68l137.387 394.24c1.28 4.267 2.56 8.96 4.267 14.080 2.133 8.96 3.413 17.92 3.413 27.307-0.427 2.133 1.28 4.267 3.413 4.693h110.507c2.987 0 5.12-1.28 5.547-3.413l154.88-437.803c1.28-4.651 0-6.784-4.267-6.784zM864 242.731h-73.429c-3.371-0.427-6.784 1.749-8.064 4.693-0.853 3.413-1.707 7.296-2.603 10.667-0.853 2.987-0.853 5.973-0.853 8.96-13.653-12.331-30.293-21.333-48.213-26.411-15.36-4.309-31.531-6.4-47.36-6.4-15.744 0-31.573 2.133-46.507 7.253-13.653 4.651-26.411 12.8-36.267 23.467-11.093 11.947-19.2 26.027-23.936 41.387-5.973 19.669-8.917 40.107-8.491 60.587v211.627c-0.427 2.56 1.237 5.12 4.267 5.547h82.731c2.603 0.427 5.163-1.28 5.589-4.267v-201.856c0-18.731 4.267-33.664 12.331-44.331 8.149-10.667 24.747-16.256 43.989-16.256 9.771 0 19.584 1.749 29.013 5.163 9.813 3.413 18.731 8.064 26.88 14.080v242.773c0 2.987 2.133 4.693 5.973 4.693h81.493c2.176 0.427 4.651-1.28 4.651-3.413v-262.827c0-11.563 0-21.803 0.469-30.72 0.427-9.003 0.896-16.683 1.28-23.509 0.853-6.827 1.237-10.667 1.664-15.317 0.512-3.84-1.195-5.589-4.608-5.589zM355.413 502.187c-4.267 13.227-8.107 26.027-12.373 39.253s-8.107 25.6-11.52 37.973c-3.413 11.947-6.4 23.040-9.387 33.28h-0.853c-3.84-18.347-8.533-36.693-14.507-55.040-6.4-20.48-12.8-41.813-19.627-63.147-5.547-21.76-12.373-41.813-18.773-59.733h108.373c-2.56 8.96-5.973 19.627-9.813 30.72-3.84 11.52-7.68 23.893-11.52 36.693z" />
<glyph unicode="&#xe917;" glyph-name="adobecreativecloud" data-tags="adobecreativecloud" d="M630.699 825.472c-9.856-0.853-20.139-1.707-29.995-2.987-44.854-5.112-85.722-17.697-122.889-36.529l2.057 0.945c-40.553-20.107-75.226-45.471-104.897-75.754l-0.063-0.065c-1.28-1.707-3.84-2.56-6.016-2.133-14.027 2.196-30.206 3.45-46.677 3.45-6.034 0-12.028-0.168-17.979-0.501l0.826 0.037c-45.959-2.322-88.66-14.089-126.914-33.385l1.815 0.83c-75.435-37.717-128.555-96.427-159.403-175.275-10.675-26.864-17.735-57.958-19.672-90.431l-0.040-0.833c0-2.133-0.427-3.84-0.853-5.547v-32.981c0.853-8.576 2.133-16.725 2.987-25.301 4.267-34.688 14.165-68.096 29.995-99.413 35.157-70.229 89.131-121.643 161.536-153.344 30.637-13.87 66.238-22.951 103.671-25.259l0.862-0.043c1.365 0 2.56-0.171 3.669-0.427h365.909c7.808 0.725 15.445 1.493 23.339 2.56 44.538 5.119 85.1 17.703 121.951 36.518l-2.015-0.934c64.922 32.16 117.736 80.292 154.638 139.383l0.924 1.588c24.485 37.716 42.202 82.174 50.232 129.918l0.285 2.050c2.133 14.507 3.413 29.525 5.163 44.117 0 2.133 0.427 3.84 0.853 5.547v33.877c-0.853 9.813-2.133 19.285-2.133 28.245-5.114 44.553-17.699 85.13-36.518 121.994l0.934-2.015c-32.617 64.844-80.983 117.604-140.215 154.584l-1.609 0.936c-37.491 24.177-81.625 41.743-128.99 49.839l-2.082 0.294c-15.445 2.56-30.421 3.84-45.867 5.547-2.133 0-3.84 0.427-5.973 0.853zM646.443 753.237c90.709-0.213 167.68-35.243 230.187-104.747 34.196-38.648 58.544-86.77 68.657-139.936l0.292-1.846c6.4-32.597 7.723-66.005 2.987-98.987-8.107-57.429-29.952-108.8-67.243-153.813-42.564-51.969-101.338-89.249-168.53-104.159l-2.009-0.374c-20.009-4.578-42.987-7.202-66.577-7.202-15.043 0-29.836 1.067-44.309 3.129l1.66-0.194c-46.72 5.973-89.557 21.376-128.128 49.237-10.642 7.662-20.008 15.688-28.652 24.428l-0.020 0.020c-52.309 51.413-104.107 103.253-156.416 154.667-12.843 12.8-13.696 26.965-7.68 39.851 5.672 12.188 17.814 20.486 31.895 20.486 1.738 0 3.446-0.126 5.116-0.37l-0.19 0.023c8.96-0.853 15.872-6.016 22.272-12.459 47.147-47.531 93.867-94.251 140.971-141.824 34.294-34.954 79.874-58.727 130.832-65.414l1.136-0.122c83.115-11.136 153.813 14.549 209.92 76.715 30.421 33.835 48.853 74.539 56.576 119.936 11.093 67.712-4.693 128.555-46.72 182.101-37.248 47.573-86.101 77.141-145.237 87.851-60.416 10.667-117.376-0.853-169.216-33.877-1.28-0.853-4.267-1.28-5.589-0.427-17.375 12.996-37.033 25.116-57.749 35.428l-2.24 1.009s-0.427 0.427-0.853 1.28c15.605 13.070 33.17 24.747 51.959 34.375l1.588 0.739c32.582 18.037 70.9 30.021 111.661 33.383l1.021 0.068c8.139 0.654 17.621 1.027 27.19 1.027 0.491 0 0.982-0.001 1.473-0.003h-0.076zM321.963 639.616c62.080 1.024 119.083-22.4 169.899-69.547 36.437-34.219 69.845-69.803 104.96-105.387 9.856-9.813 11.989-22.272 7.296-35.541s-15.445-19.712-29.141-21.845c-1.25-0.18-2.693-0.282-4.16-0.282-9.028 0-17.149 3.883-22.783 10.071l-0.022 0.025c-33.451 33.451-66.859 66.432-99.84 100.267-27.008 27.861-59.136 43.733-96.853 50.603-83.541 14.976-167.936-33.451-197.931-112.683-38.571-100.693 22.272-214.656 127.232-238.677 20.565-4.693 42.453-4.693 63.872-4.267 5.973 0.427 9.387-1.707 13.653-5.547 20.608-20.181 42.453-40.32 63.872-60.416 1.28-1.28 2.987-2.56 4.267-3.84-2.56 0-4.267-0.427-5.973-0.427h-98.133c-118.3 0.025-217.31 82.586-242.58 193.231l-0.321 1.671c-27.861 125.525 44.117 252.8 167.509 290.048 22.35 7.343 48.116 11.882 74.846 12.538l0.332 0.006z" />
<glyph unicode="&#xe918;" glyph-name="adobedreamweaver" data-tags="adobedreamweaver" d="M285.44 601.6c-18.347 5.547-37.12 8.533-56.32 8.107-8.533 0-15.787 0-21.76-0.427-5.973 0-12.8-0.427-20.053-0.853v-284.587c4.693 0 8.96 0 13.227-0.427 3.84-0.427 8.107-0.427 11.947-0.853 4.267-0.469 8.96-0.469 14.080-0.469 19.627-0.427 39.253 2.987 58.027 9.771 17.067 6.016 32 15.829 44.8 29.056 12.8 13.611 22.613 29.867 28.587 47.36 6.827 20.437 10.24 42.24 10.24 64 0.427 20.48-2.987 40.96-9.813 60.16-11.947 33.323-38.827 58.923-72.96 69.163zM842.667 947.2h-661.333c-100.267 0-181.333-81.067-181.333-181.333v-635.733c0-100.267 81.067-181.333 181.333-181.333h661.333c100.267 0 181.333 81.067 181.333 181.333v635.733c0 100.267-81.067 181.333-181.333 181.333zM448.427 386.987c-8.107-23.936-20.48-46.080-36.693-65.749-14.933-17.92-32.853-33.237-52.48-45.611-19.2-11.947-40.533-20.864-62.72-26.88-21.333-5.547-43.52-8.533-65.707-8.533h-48.213c-17.067 0-33.28 0-47.787 0.469-14.933 0.427-26.027 0.427-33.28 0.853-2.987 0-4.267 2.603-4.267 6.827v436.864c-0.427 2.56 1.707 5.12 4.267 5.547h0.427c6.4 0.427 16.213 0.853 28.587 0.853 12.8 0.427 27.307 0.427 44.373 0.853s34.987 0.427 54.187 0.427c52.053 0 95.573-9.387 129.707-28.16 32.853-17.493 59.733-44.373 77.227-77.227 17.067-32.853 25.6-70.4 25.6-113.067 0.427-29.867-3.84-59.307-13.227-87.467zM850.347 248.747c-0.427-1.707-1.237-3.413-2.56-4.651 0-2.176-1.707-2.987-3.883-2.603h-79.744c-1.707-0.427-3.84 0.427-5.12 1.707-1.28 1.707-2.133 3.371-2.56 5.12-8.107 34.133-14.976 64.853-20.48 90.88-5.547 26.453-10.24 48.64-13.653 66.944-3.413 18.389-6.4 33.749-8.917 46.507-2.176 12.8-4.309 23.467-5.589 32.427h-0.427c-4.267-18.773-8.064-37.12-11.947-54.613-3.371-17.493-7.68-35.413-11.947-53.333s-8.917-37.547-14.507-58.88c-5.077-21.333-11.093-44.8-17.493-69.973-0.853-4.693-2.944-6.827-6.827-6.827h-79.787c-2.176-0.427-4.267 0.427-6.016 1.237-1.237 1.323-2.133 2.987-2.987 4.693l-83.157 329.899c-1.28 3.84 0.427 5.547 5.12 5.547h80.64c3.84 0 6.016-1.28 6.4-4.267 8.491-37.547 15.744-69.973 21.333-97.28 5.547-27.307 10.24-50.347 13.227-69.504 2.987-19.2 5.973-34.987 8.107-46.976 2.133-11.947 3.84-22.229 5.077-29.867h1.323c0.853 6.827 1.664 13.269 2.944 20.096 1.707 8.064 3.84 18.731 6.357 32 2.603 13.227 5.589 28.587 9.429 46.507s8.064 38.4 13.269 62.293c4.651 23.467 11.52 50.347 19.584 80.64 0 1.707 0.896 3.84 1.749 5.547 0.427 0.853 2.091 1.28 4.651 1.28h83.627c2.56 0 3.84-1.707 4.309-4.693 7.253-31.147 13.227-58.453 18.347-81.92 4.651-23.467 8.96-44.373 12.8-62.72 3.413-17.92 6.357-33.707 8.107-46.507 1.664-13.269 3.84-23.936 5.504-32.853 1.323-7.253 2.603-14.507 2.987-21.803h1.28c2.133 8.533 3.84 18.773 5.547 30.293 1.707 11.563 3.84 24.32 6.827 38.827 2.603 14.507 5.547 30.293 8.96 47.787 2.944 17.493 7.253 36.693 11.947 58.453 4.651 21.333 9.813 44.8 15.744 69.973 0.896 3.84 2.603 5.547 5.589 5.547h74.667c3.84 0 5.077-2.133 4.267-5.973l-92.117-328.96z" />
<glyph unicode="&#xe919;" glyph-name="adobefonts" data-tags="adobefonts" d="M566.272 529.792c-22.656-77.995-41.685-153.088-64.341-226.56-10.857-40.307-26.209-75.608-45.911-107.969l1.026 1.814c-22.242-32.483-58.643-53.866-100.109-55.206l-0.201-0.005c-31.147 0-61.867 14.933-61.867 48.555 1.17 20.715 16.85 37.435 36.981 40.209l0.224 0.025c0.123 0.003 0.268 0.005 0.413 0.005 7.137 0 13.344-3.983 16.519-9.847l0.049-0.099c15.36-28.245 29.909-44.8 36.821-44.8 6.827 0 12.16 9.557 23.467 50.219l80.512 303.659h-57.472c-1.027 2.891-1.621 6.225-1.621 9.699 0 9.274 4.233 17.558 10.871 23.029l0.051 0.041h57.429c11.422 40.621 25.907 75.887 43.863 108.996l-1.367-2.756c27.477 50.987 71.552 91.264 132.267 91.264 46.080 0 65.109-22.827 65.109-51.456-0.082-23.217-16.871-42.488-38.967-46.422l-0.286-0.042c-9.685 0-14.507 7.467-17.792 18.304-10.496 40.235-23.893 52.267-31.957 52.267-8.107 0-20.309-14.933-33.579-46.507-15.066-34.334-28.933-75.417-39.337-117.86l-1.111-5.361h69.973c1.171-2.979 1.85-6.43 1.85-10.039 0-9.3-4.508-17.547-11.458-22.675l-0.077-0.054h-69.973zM0 936.405v-976.768h1024v976.725h-1024zM47.787 895.744h935.595v-895.488h-935.595z" />
<glyph unicode="&#xe91a;" glyph-name="adobeillustrator" data-tags="adobeillustrator" d="M449.28 502.187c-4.267 13.227-8.107 26.027-12.373 39.253s-8.107 25.6-11.52 37.973c-3.413 11.947-6.4 23.040-9.387 33.28h-0.853c-3.84-18.347-8.533-36.693-14.507-55.040-6.4-20.48-12.8-41.813-19.627-63.147-5.973-21.76-12.373-41.813-18.773-59.733h108.373c-2.56 9.003-5.973 19.627-9.813 30.763-3.84 11.477-7.68 23.851-11.52 36.651zM842.667 947.2h-661.333c-100.267 0-181.333-81.067-181.333-181.333v-635.733c0-100.267 81.067-181.333 181.333-181.333h661.333c100.267 0 181.333 81.067 181.333 181.333v635.733c0 100.267-81.067 181.333-181.333 181.333zM627.2 241.92h-89.216c-2.944-0.427-5.931 1.707-6.784 4.693l-34.987 101.547h-158.72l-32.427-100.267c-0.853-3.84-4.267-6.4-8.107-6.016h-80.213c-4.693 0-5.973 2.603-4.693 7.68l137.387 395.563c1.28 4.267 2.56 8.96 4.267 14.080 1.707 8.96 2.56 18.347 2.56 27.733-0.427 2.133 1.28 4.267 3.413 4.693h110.507c3.413 0 5.12-1.28 5.547-3.413l155.733-439.467c1.28-4.651 0-6.827-4.267-6.827zM772.267 248.32c0-4.693-1.664-6.827-5.504-6.827h-83.669c-4.267 0-6.4 2.603-6.4 6.827v328.533c0 4.267 1.749 5.973 5.589 5.973h84.48c3.84 0 5.504-2.133 5.504-5.973v-328.533zM763.349 633.6c-9.856-10.24-24.363-15.787-38.869-14.933-14.080-0.427-27.733 5.12-38.016 14.933-9.813 10.667-14.933 24.747-14.507 39.253-0.427 14.507 5.12 28.16 15.317 37.973 10.325 9.813 23.979 14.933 38.059 14.933 16.683 0 29.397-5.12 38.827-14.933 9.387-10.24 14.507-23.893 14.080-37.973 0.427-14.507-4.693-28.587-14.891-39.253z" />
<glyph unicode="&#xe91b;" glyph-name="adobeindesign" data-tags="adobeindesign" d="M0 947.2v-998.4h1024v998.4h-1024zM42.667 904.533h938.667v-913.067h-938.667v913.067zM374.4 255.232c0-4.267-0.725-5.632-5.632-5.632h-65.536c-4.267 0-5.632 2.133-5.632 5.632v458.069c0 4.267 2.133 5.632 5.632 5.632h66.261c3.499 0 4.907-1.408 4.907-4.949v-458.752zM449.92 420.437c0 102.101 67.328 181.632 175.019 181.632 9.131 0 14.080 0 22.528-0.64v113.237c0 2.816 2.133 4.267 4.267 4.267h69.333c3.584 0 4.267-1.451 4.267-3.584v-399.147c0-11.947 0-26.667 2.133-42.837 0-2.816-0.853-3.541-3.712-4.949-36.608-17.621-75.349-25.387-111.957-25.387-94.421 0-162.005 58.453-162.005 177.408zM647.467 532.395c-6.315 2.816-14.805 4.267-25.344 4.267-54.827 0-93.312-42.24-93.312-112.64 0-80.299 39.168-112.64 88.448-112.64 10.539 0 21.845 1.365 30.293 4.907v216.107z" />
<glyph unicode="&#xe91c;" glyph-name="adobelightroomcc" data-tags="adobelightroomcc" d="M842.667 947.2h-661.333c-100.267 0-181.333-81.067-181.333-181.333v-635.733c0-100.267 81.067-181.333 181.333-181.333h661.333c100.267 0 181.333 81.067 181.333 181.333v635.733c0 100.267-81.067 181.333-181.333 181.333zM544.427 247.936c0-2.176-1.237-3.84-2.56-5.163-1.28-0.853-2.56-1.237-4.309-1.237h-270.464c-4.693 0-6.827 2.603-6.827 7.68v436.011c-0.427 2.987 1.707 5.547 4.693 5.973h85.333c2.133 0.427 4.693-1.28 4.693-3.413v-359.68h197.12c4.309 0 5.589-2.091 4.693-5.973l-12.373-74.197zM811.093 583.253v-83.2c0-3.413-2.133-4.693-6.827-4.693-27.691 1.707-55.467-3.413-80.64-14.507-8.533-3.84-16.64-8.96-23.040-15.787v-217.6c0-4.267-1.707-5.973-5.547-5.973h-83.2c-3.413-0.427-6.4 1.707-6.827 5.077v238.123c0 10.24 0 20.907-0.427 32s-0.427 22.187-0.853 33.28c-0.427 9.387-1.28 18.773-2.603 28.16-0.427 2.133 0.853 4.267 2.987 4.693 0.427 0.427 0.853 0.427 1.707 0h74.667c4.267 0 7.68-2.987 8.96-6.827 1.707-2.987 2.987-6.4 3.413-9.813 0.853-4.267 1.664-8.96 2.133-13.227 0.427-4.693 0.896-9.813 0.896-15.36 12.757 14.933 28.16 27.307 45.611 36.693 19.627 10.667 41.387 15.787 63.573 15.36 2.944 0.427 5.547-1.707 5.973-4.693 0.043-0.427 0.043-0.853 0.043-1.707z" />
<glyph unicode="&#xe91d;" glyph-name="adobelightroomclassic" data-tags="adobelightroomclassic" d="M842.667 947.2h-661.333c-100.267 0-181.333-81.067-181.333-181.333v-635.733c0-100.267 81.067-181.333 181.333-181.333h661.333c100.267 0 181.333 81.067 181.333 181.333v635.733c0 100.267-81.067 181.333-181.333 181.333zM365.653 247.936c-0.427-2.603-1.28-4.309-2.56-5.163s-2.56-1.237-3.84-1.237h-243.627c-4.267 0-5.973 2.603-5.973 7.68v436.011c0 4.267 1.707 5.973 5.547 5.973h75.52c2.987 0 4.267-1.707 4.267-4.693v-358.4h177.493c3.84 0 5.12-2.091 4.267-5.973l-11.093-74.197zM604.587 500.48c0-3.413-2.133-4.693-6.016-4.693-13.611 0.853-27.264 0-40.491-2.987-11.093-2.56-21.76-6.4-32-11.52-7.68-3.84-14.933-9.387-20.907-15.787v-217.6c0-4.309-1.707-6.016-5.12-6.016h-74.24c-4.267 0-5.973 2.176-5.973 6.827v236.373c0 10.24 0 20.907-0.427 32 0 11.093-0.427 22.187-0.853 33.28-0.427 9.429-1.28 18.816-2.56 28.203 0 1.28 0 2.56 0.853 3.84 1.28 0.427 2.133 0.853 3.413 0.427h67.413c3.84 0 6.4-2.133 8.107-6.827 1.28-2.987 2.56-6.4 2.987-9.813 0.853-4.267 1.28-8.96 1.707-13.227 0.427-4.693 0.427-9.813 0.427-15.36 11.093 14.507 25.173 27.307 40.96 36.693 17.024 10.24 37.12 15.787 57.173 15.36 3.84 0 5.547-2.133 5.547-5.973v-83.2zM911.787 569.173c0.427-2.56-0.896-4.693-2.56-6.4-1.749-0.853-3.84-0.853-5.589 0-9.771 5.12-20.053 8.533-30.72 10.24-13.227 2.56-26.88 3.413-40.107 3.413-21.76 0.427-43.52-5.12-62.251-16.213-17.493-10.667-31.147-26.453-40.107-44.8-9.771-21.333-14.549-44.8-14.080-68.267-0.469-17.067 2.133-33.749 6.827-49.877 4.267-13.269 10.667-25.643 18.773-36.693 7.253-9.771 16.171-18.389 26.837-24.747 10.24-5.973 20.907-10.667 32.427-13.653 10.667-2.944 22.229-4.693 33.323-4.693 12.331 0 24.747 0.469 37.077 1.749 10.24 1.237 20.48 3.84 29.867 7.253 3.413 2.56 5.547 1.237 6.827 0.427 1.707-1.707 2.56-4.267 2.133-6.4v-63.573c0.427-5.077-2.133-9.387-6.4-11.52-11.093-4.267-22.571-7.253-34.56-8.533-14.464-2.219-28.971-3.072-43.904-3.072-20.907 0-42.24 2.944-62.251 8.491-19.669 5.12-38.016 14.080-54.229 25.6-16.213 11.563-30.293 25.643-41.771 42.24-12.416 17.92-21.333 37.589-27.349 58.496-6.4 24.747-9.813 49.92-9.429 75.051 0 41.813 8.149 79.36 24.747 110.933 16.256 31.147 40.576 57.173 70.827 74.667 30.336 17.493 66.987 26.453 108.843 26.453 14.507 0 29.013-0.853 43.52-2.56 9.813-1.28 19.627-3.413 28.587-7.253 3.413-2.133 5.12-5.973 4.693-10.24v-66.517z" />
<glyph unicode="&#xe91e;" glyph-name="adobephonegap" data-tags="adobephonegap" d="M318.421 296.576l-36.523-2.603c0-7.253 0.341-13.184 0.341-17.493 0.981-45.355 26.624-54.912 48.043-54.912 2.944 0 4.907 0.341 4.907 0.341h0.683l60.843 5.931c2.304 7.253 2.645 12.501 2.645 12.501s-8.235 383.275-10.24 431.616c-0.218 9.782-3.113 18.844-7.976 26.538l0.126-0.213c-33.034 2.281-52.928 3.923-72.78 5.712l15.18-1.104-6.912 0.341c-14.805 0-25.984-3.968-33.195-11.52-10.88-11.52-9.899-29.312-9.899-29.312v-0.64c0-0.64 0.341-10.837 0.683-27.307 29.611-1.664 51.328-2.987 51.328-2.987s33.877-7.211 35.499-42.069c1.664-37.845 1.323-250.709 1.323-250.709s3.968-34.56-44.075-42.112zM201.643 288.341l-61.184-4.565s-50.347-6.912-51.669 48.341c-0.64 40.789-5.931 271.403-5.931 271.403s-3.627 42.795 48.384 39.168c15.445-0.981 38.827-2.304 63.787-3.968-0.64 38.187-1.28 71.381-1.621 97.067-37.808 2.541-67.327 5.124-96.699 8.2l11.153-0.947c-68.437 7.509-64.128-50.091-64.128-50.091s8.192-423.381 9.856-475.051c1.963-61.867 68.437-51.627 68.437-51.627l82.219 8.875c-0.981 30.592-1.621 69.419-2.603 113.152zM933.931 813.099c-2.944 79.275-72.704 96.043-72.704 96.043s-241.493 36.523-347.051 49.707c-105.941 13.141-99.371-89.173-99.371-89.173s24.021-747.435 26.667-839.893c2.987-110.208 105.6-92.757 105.6-92.757l363.861 62.805c66.133 13.184 69.419 95.744 69.419 95.744s-42.795 631.339-46.421 717.525zM852.693 178.475l-270.421-27.947s-78.635-11.861-80.64 83.541c-1.28 70.4-16.768 474.411-16.768 474.411s-5.248 74.027 75.691 68.053c82.56-6.272 280.96-21.077 280.96-21.077s52.949-12.501 55.253-73.003c2.645-65.792 25.344-430.976 25.344-430.976s5.931-60.203-69.419-73.045zM580.608 164.651l104.32 10.88c-4.949 106.24-23.381 518.827-26.027 578.688v0.981c-38.144 2.987-74.325 5.547-99.669 7.552-2.645 0.341-5.589 0.341-8.235 0.341-17.408 0-30.592-4.608-39.125-13.824-14.507-15.147-12.8-38.827-12.8-39.168v-0.299c0-0.341 0-2.645 0.299-6.272 42.411-3.627 74.325-6.571 74.325-6.571s45.739-10.197 47.701-59.861c2.005-53.973 15.147-346.112 15.147-346.112s5.248-49.323-59.861-59.861l-60.544-5.931c4.267-49.664 33.237-60.544 57.6-60.544 3.584 0 5.888 0.341 5.888 0.341 0.683-0.341 0.981-0.341 0.981-0.341zM421.376 215.637l-84.224-7.893s-68.096-9.813-69.376 68.437c-1.024 57.899-7.936 385.28-7.936 385.28s-4.565 60.459 65.152 55.509c20.395-1.28 49.664-3.925 80.64-6.229-2.005 62.165-3.669 111.829-4.309 137.813-40.789 3.968-79.957 7.936-108.245 11.221-92.117 10.496-86.528-71.083-86.528-71.083s10.88-600.747 13.184-674.389c2.603-87.893 92.117-73.728 92.117-73.728l114.475 14.507c-2.603 98.599-4.387 154.637-6.326 210.635l1.377-50.123z" />
<glyph unicode="&#xe91f;" glyph-name="adobephotoshop" data-tags="adobephotoshop" d="M420.267 600.747c-15.787 6.4-32.853 8.96-50.347 8.533-11.093 0-20.907 0-29.013-0.427-8.533 0.427-14.507 0-17.493-0.427v-143.36c5.973-0.427 11.52-0.853 16.64-0.853h22.613c16.64 0 33.28 2.56 49.067 7.68 13.653 3.84 25.6 11.947 34.987 22.613 8.96 10.667 13.227 25.173 13.227 43.947 0.427 13.227-2.987 26.453-9.813 37.973-7.253 11.093-17.493 19.627-29.867 24.32zM842.667 947.2h-661.333c-100.267 0-181.333-81.067-181.333-181.333v-635.691c0-100.267 81.067-181.333 181.333-181.333h661.333c100.267 0 181.333 81.067 181.333 181.333v635.691c0 100.267-81.067 181.333-181.333 181.333zM527.317 450.133c-17.024-23.893-40.917-41.813-68.651-52.053-29.013-10.667-61.013-14.507-96-14.507-10.24 0-17.067 0-21.333 0.427s-10.24 0.427-18.347 0.427v-136.917c0.427-2.987-1.707-5.589-4.693-6.016h-82.773c-3.413 0-5.12 1.749-5.12 5.589v438.997c0 2.987 1.28 4.693 4.267 4.693 7.253 0 14.080 0 23.893 0.427 10.24 0.427 20.907 0.427 32.427 0.853s23.893 0.427 37.12 0.853c13.227 0.427 26.027 0.427 38.827 0.427 34.987 0 64-4.267 87.893-13.227 21.333-7.253 40.96-19.2 57.173-34.987 13.653-13.653 24.32-30.293 31.147-48.64 6.357-17.92 9.771-36.267 9.771-55.467 0.043-36.693-8.491-66.987-25.6-90.88zM829.867 284.16c-11.947-17.067-28.629-30.251-47.787-38.016-20.907-8.917-46.507-13.568-77.269-13.568-19.584 0-38.827 1.664-57.984 5.504-14.933 2.603-29.867 7.253-43.52 13.653-2.987 1.664-5.163 4.651-4.736 8.064v74.24c0 1.237 0.469 2.987 1.749 3.84 1.237 0.853 2.56 0.427 3.84-0.427 16.64-9.813 34.133-16.683 52.907-20.907 16.171-4.267 33.237-6.4 50.347-6.4 16.213 0 27.733 2.176 35.413 6.016 6.827 2.987 11.52 10.24 11.52 17.92 0 6.016-3.413 11.52-10.24 17.067-6.827 5.504-20.864 11.904-41.771 20.096-21.76 7.68-41.771 17.92-60.587 30.677-13.227 9.429-24.277 21.76-32.469 36.267-6.784 13.653-10.197 28.587-9.771 43.563 0 18.347 5.12 35.84 14.549 51.627 10.667 17.067 26.411 30.72 44.757 39.253 20.011 10.197 45.184 14.891 75.477 14.891 17.493 0 35.413-1.28 52.907-3.84 12.8-1.707 25.173-5.12 36.693-9.813 1.664-0.427 3.413-2.133 4.267-3.84 0.427-1.707 0.853-3.413 0.853-5.12v-69.547c0-1.707-0.853-3.413-2.133-4.267-3.84-0.853-5.973-0.853-7.68 0-12.8 6.827-26.453 11.52-40.96 14.507-15.787 3.413-31.573 5.547-47.787 5.547-8.533 0.427-17.493-0.853-25.643-2.987-5.504-1.28-10.24-4.267-13.227-8.533-2.133-3.413-3.413-7.68-3.413-11.52s1.707-7.68 4.309-11.093c3.84-4.693 8.917-8.533 14.507-11.52 9.771-5.12 20.053-9.813 30.251-14.080 23.083-7.68 45.269-18.347 65.749-31.147 14.080-8.917 25.6-20.907 33.664-35.413 6.827-13.568 10.24-28.587 9.813-43.904 0.469-20.096-5.504-40.107-16.597-56.789z" />
<glyph unicode="&#xe920;" glyph-name="adobepremierepro" data-tags="adobepremierepro" d="M268.672 713.472c0 2.816 0.683 4.949 4.224 4.949 27.435 1.408 67.584 2.133 109.824 2.133 118.272 0 169.643-64.811 169.643-147.883 0-108.373-78.421-154.88-174.891-154.88-16.171 0-21.803 0.725-33.067 0.725v-163.968c0-3.541-1.408-4.949-4.949-4.949h-65.877c-3.499 0-4.907 1.408-4.907 4.949zM344.405 486.784c9.856-0.683 17.579-0.683 34.475-0.683 50.005 0 96.768 17.579 96.768 85.163 0 54.187-33.408 81.664-90.411 81.664-16.896 0-33.109-0.683-40.832-1.408zM617.472 525.525c0 4.907 0 17.579-2.133 41.515 0 3.541 0.512 4.267 3.328 5.632 46.239 18.304 99.786 29.115 155.803 29.567l0.187 0.001c3.541 0 4.949-0.683 4.949-4.224v-61.952c0-3.499-1.152-4.224-4.693-4.224-26.709 1.408-65.877-2.133-80.64-8.448v-268.843c0-3.541-1.408-4.949-4.949-4.949h-66.944c-3.499 0-4.907 1.408-4.907 4.949zM0 947.2v-998.4h1024v998.4zM42.667 904.533h938.667v-913.067h-938.667z" />
<glyph unicode="&#xe921;" glyph-name="adobexd" data-tags="adobexd" d="M842.667 947.2h-661.333c-100.267 0-181.333-81.067-181.333-181.333v-635.733c0-100.267 81.067-181.333 181.333-181.333h661.333c100.267 0 181.333 81.067 181.333 181.333v635.733c0 100.267-81.067 181.333-181.333 181.333zM980.907 146.773c0.001-0.215 0.002-0.47 0.002-0.725 0-85.329-69.136-154.509-154.448-154.581h-628.914c-85.333 0-154.88 69.547-154.88 154.88v603.307c0 85.333 69.547 154.88 154.88 154.88h628.48c85.538 0 154.88-69.342 154.88-154.88v0-602.88zM404.907 480l119.467-229.547c2.133-3.413 0.853-6.827-2.56-6.827h-74.24c-4.693 0-6.827 1.28-8.96 5.547-27.307 56.32-55.040 112.64-83.627 173.227h-0.853c-25.6-57.173-53.76-117.333-81.067-173.653-2.133-3.413-4.267-4.693-7.68-4.693h-70.4c-4.267 0-4.693 3.413-2.56 5.973l116.907 222.72-113.067 225.28c-2.56 3.413 0 5.973 2.56 5.973h73.387c4.267 0 5.973-0.853 7.68-4.693 26.88-56.32 54.187-114.347 79.787-171.093h0.853c24.747 56.32 52.053 114.773 78.507 170.667 2.133 3.413 3.413 5.547 7.68 5.547h68.693c3.413 0 4.693-2.56 2.56-5.973l-113.067-218.453zM545.28 410.453c0 99.413 66.133 177.067 171.093 177.067 8.96 0 13.653 0 22.187-0.853v113.067c0 2.56 2.133 4.267 4.267 4.267h67.413c3.413 0 4.267-1.28 4.267-3.413v-391.68c0-11.52 0-26.027 2.133-41.813 0-2.56-0.853-3.413-3.413-4.693-35.84-17.067-73.387-24.747-109.227-24.747-92.587-0.427-158.72 56.747-158.72 172.8zM738.56 519.68c-5.973 2.56-14.507 4.267-24.747 4.267-53.76 0-91.307-41.387-91.307-110.080 0-78.507 38.4-110.080 86.613-110.080 10.24 0 21.333 1.28 29.44 4.693v211.2z" />
<glyph unicode="&#xe922;" glyph-name="adonisjs" data-tags="adonisjs" d="M568.875 903.125l-25.429-50.901-102.571-205.099-99.541 199.083-341.333-682.667h199.125l-85.333-170.667h910.208zM568.875 775.893l363.093-726.101h-726.187l56.917 113.749h419.968l-210.005 419.968z" />
<glyph unicode="&#xe923;" glyph-name="aerlingus" data-tags="aerlingus" d="M1017.899 383.531c-20.48-65.92-88.789-127.787-170.752-140.629 13.227-20.48 19.285-45.824 16.085-73.941-8.875-76.331-81.963-137.813-160.341-138.624-53.035-0.384-124.928 22.528-175.573 102.485-45.397 71.083-51.84 184.021-48.64 218.155-55.424-56.661-89.984-111.701-106.453-149.845-36.949-86.4-51.029-191.659-50.219-241.067 0 0-6.827-6.443-13.227-7.68-20.48 3.627-38.187 11.264-51.456 22.912-16.043 14.507-19.669 28.16-19.669 28.16 24.491 122.539 63.488 198.827 121.728 286.037 78.336 117.76 199.253 190.464 342.699 234.24 103.68 31.744 211.371 38.571 285.269-24.107 39.808-32.939 42.197-80.341 30.549-116.096zM407.211 448.597c-24.533-40.96-91.605-106.88-144.64-141.013-110.507-70.699-190.037-75.52-229.845-50.219-4.732 2.916-8.822 6.232-12.438 10.005l-0.021 0.022c-30.933 32.555-25.685 90.411 10.453 137.813 17.707 23.296 40.576 39.765 62.72 47.403-17.323 8.064-28.971 24.917-31.36 48.64-4.821 47.36 30.933 109.653 80.341 134.997 43.392 22.101 137.003 44.203 205.696-58.283 26.923-39.765 51.029-96.427 59.093-129.365zM861.184 879.36c-5.973 59.051-69.12 80.768-138.581 51.029-32.939-14.080-61.867-37.76-82.347-64.683 3.2 26.88-4.437 50.603-23.723 64.683-38.187 27.733-107.691 7.253-155.093-44.203-16.469-18.091-70.315-83.2-73.131-178.773-1.195-46.208 19.285-148.693 86.784-219.392 180.011 67.883 276.821 171.947 313.771 214.955 42.624 49.835 60.672 93.611 68.309 125.739 5.632 25.344 4.821 43.392 4.011 50.645z" />
<glyph unicode="&#xe924;" glyph-name="affinity" data-tags="affinity" d="M399.701 913.92h161.195l13.568-23.467h46.165l403.371-698.667-86.869-148.053h-353.024l35.84-61.653h-15.573l-35.84 61.696h-438.101l-22.443 39.381h-27.819l-80.171 138.795 0.085 0.043 102.827 178.176 95.147 54.955 157.44 272.64-31.659 54.827 75.861 131.328zM494.592 672.768l-278.443-481.109h266.667l-30.848 53.163 290.475-0.256-247.851 428.203z" />
<glyph unicode="&#xe925;" glyph-name="affinitydesigner" data-tags="affinitydesigner" d="M445.44 960l-445.44-771.541v-221.739c0 0 0-0.001 0-0.001 0-16.861 13.584-30.55 30.405-30.718h427.664l-214.869 372.181 376.32 651.819zM665.6 960l-207.36-359.168 158.635-274.731h407.125v603.264c-0.049 16.929-13.784 30.635-30.72 30.635 0 0 0 0 0 0v0zM435.2 560.939l-88.064-152.533c-4.625-7.883-7.356-17.361-7.356-27.477s2.731-19.594 7.497-27.737l-0.141 0.26c9.813-17.067 27.989-27.307 47.659-27.307h176zM301.995 286.165l202.155-350.165h489.429c16.808 0.169 30.374 13.809 30.421 30.63v319.578z" />
<glyph unicode="&#xe926;" glyph-name="affinityphoto" data-tags="affinityphoto" d="M445.44 960l-20.48-35.456 250.88-434.56 271.36 470.016zM993.28 960l-365.952-633.856h396.672v603.52c-0.217 16.8-13.886 30.336-30.718 30.336-0.001 0-0.002 0-0.003 0v0zM401.92 884.608l-156.16-270.464h312.32zM468.608 574.976h-0.768c-15.36-0.213-29.867-9.216-37.504-22.315l-46.549-80.811c-3.541-6.273-5.627-13.773-5.627-21.76s2.086-15.487 5.744-21.985l-0.116 0.225c1837.6-3394.568 1853.063-3420.978 1868.528-3447.387l-1821.894 3366.576c7.851-13.227 22.613-21.333 37.76-21.376 0.085 0 58.88-0.085 88.192 0.043 15.36 0.213 29.824 8.747 37.461 21.845 15.531 26.923 31.189 53.803 46.635 80.811 7.509 13.397 7.253 29.995-0.299 43.136l-0.427 0.64-45.995 79.787-0.256 0.384c-7.736 13.025-21.555 21.728-37.44 22.185l-0.064 0.001h-0.512zM222.72 574.293l-222.72-385.792v-16.64l0.128-207.829c1.351-14.962 13.25-26.758 28.138-27.94l0.107-0.007 368.427 638.208zM348.16 410.24l-274.091-474.24h547.84zM465.792 286.251l202.24-350.251h325.248c16.966 0 30.72 13.754 30.72 30.72v0 319.488z" />
<glyph unicode="&#xe927;" glyph-name="affinitypublisher" data-tags="affinitypublisher" d="M445.44 960l-46.080-79.787 545.109-944.213h48.811c16.966 0 30.72 13.754 30.72 30.72v0 133.077l-496.64 860.203zM573.44 960l450.56-780.373v749.653c0 16.966-13.754 30.72-30.72 30.72v0zM376.32 840.277l-84.48-146.347 432.469-757.931h174.080zM266.24 649.643l-63.147-109.355c-6.983-11.883-11.108-26.175-11.108-41.429s4.124-29.546 11.319-41.82l-0.212 0.39c75.563-130.688 301.056-521.429 301.056-521.429h174.080zM156.16 458.923l-156.16-270.421v-221.739c0-16.939 13.781-30.72 30.72-30.72h427.349z" />
<glyph unicode="&#xe928;" glyph-name="aiqfome" data-tags="aiqfome" d="M245.248 567.68c25.899-11.819 42.325-48.597 44.373-99.925 1.408-34.005-2.56-59.691-12.928-82.133-24.064-51.584-67.328-53.419-92.288-3.925-10.667 20.821-15.275 43.733-15.275 75.861 0.256 34.261 3.925 54.357 14.805 76.587 15.488 31.659 38.187 44.16 61.312 33.536zM662.016 564.437c25.216-16.64 42.581-69.419 39.083-118.443-3.925-58.496-29.824-100.608-61.269-100.608-17.365 0-35.157 15.275-46.72 40.235-19.2 41.643-18.048 111.488 2.773 152.192 15.488 30.549 43.691 41.856 66.133 26.624zM528.555 958.763c9.515-1.365 10.88-2.56 16.213-12.459 7.851-14.336 12.715-19.456 27.307-28.928 13.397-8.533 13.397-9.003 8.789-30.976-3.968-18.517-1.664-36.779 6.912-53.205 12.501-24.747 47.403-50.645 79.36-58.752 11.989-3.243 16.853-3.456 31.445-0.939 9.472 1.408 18.731 2.091 20.565 1.408 2.091-0.939 6.955-8.533 11.093-17.109 9.259-19.925 32.427-43.733 50.901-52.309 30.080-14.080 62.72-13.397 94.123 2.133 8.789 4.352 17.579 7.125 19.669 6.443 1.835-0.683 7.168-5.973 11.776-11.563 4.651-5.803 13.909-13.184 20.395-16.427 10.624-5.547 14.549-6.229 32.128-5.973 13.867 0.213 20.821-0.512 22.443-2.56 6.699-8.107 25.173-93.909 33.067-152.917 6.955-52.949 7.637-171.392 1.152-223.147-8.533-70.144-21.248-130.261-38.827-184.363-12.501-38.4-23.595-63.616-46.507-104.789-34.688-62.464-48.128-76.331-73.557-76.331-0.070 0-0.153 0-0.236 0-7.386 0-14.555 0.934-21.393 2.69l0.594-0.129c-15.061 5.077-38.187 22.869-73.813 56.661-42.069 39.765-59.904 53.632-82.091 64.512-27.051 13.44-53.675 14.592-76.8 3.243-5.547-2.773-21.248-15.275-34.432-27.989-27.733-26.368-38.4-32.128-62.72-33.749-30.037-1.877-46.933 5.76-94.123 42.325-20.096 15.488-34.901 22.443-51.328 23.808-19.883 1.621-34.475-3.456-66.603-22.912-31.701-19.2-48.597-25.173-70.571-25.173-45.781 0-85.589 28.16-126.507 89.472-45.568 68.736-78.891 164.736-89.728 259.755-4.181 35.84-4.864 108.245-1.408 143.659 18.261 182.016 106.411 321.28 248.661 392.235 44.373 22.187 93.184 37.717 148.907 47.189 41.643 6.955 102.955 10.411 125.141 7.168zM433.024 895.616c-107.051-10.624-211.157-68.437-273.835-151.723-65.237-86.741-101.547-230.357-88.32-349.44 8.533-78.933 41.131-168.405 84.864-234.112 22.187-33.28 30.72-42.539 46.251-50.176 23.595-11.563 47.872-7.424 77.952 13.184 26.837 18.517 54.613 26.581 84.395 24.96 30.293-1.835 41.899-7.851 87.68-46.933 27.051-23.125 50.432-25.685 76.544-8.32 5.803 3.925 18.773 13.867 28.928 22.187 32.597 27.051 57.6 36.565 97.152 36.779 49.493 0.256 81.621-18.261 127.189-73.813 37.035-44.8 51.371-54.101 71.68-46.464 33.323 12.715 66.859 88.832 88.832 201.216 29.141 148.48 23.595 278.272-15.019 357.12-12.501 25.941-27.52 42.581-41.643 46.72-8.789 2.56-11.52 2.347-30.037-3.669-17.835-5.803-24.064-6.741-47.189-6.741-21.76 0-29.397 1.195-42.325 5.547-24.747 8.363-35.84 18.517-63.403 57.856-12.715 18.261-23.808 24.277-53.888 30.293-55.467 10.667-78.165 20.352-97.835 41.643-18.517 19.883-30.293 46.507-38.827 87.637-2.347 12.032-6.485 25.216-9.045 29.397-9.472 15.232-32.384 20.821-70.101 16.853z" />
<glyph unicode="&#xe929;" glyph-name="airbnb" data-tags="airbnb" d="M511.915 180.608c-57.685 72.363-91.605 135.765-102.912 190.080-11.221 43.776-6.784 78.805 12.416 105.131 20.352 30.293 50.645 45.013 90.453 45.013s70.059-14.72 90.411-45.312c19.029-26.027 23.808-61.099 12.203-105.131-12.416-55.381-46.293-118.784-102.869-190.123zM921.387 131.968c-7.893-53.12-44.117-97.195-93.867-118.699-96.043-41.813-191.147 24.875-272.555 115.328 134.613 168.533 159.488 299.733 101.717 384.597-33.92 48.64-82.475 72.32-144.768 72.32-125.568 0-194.603-106.24-167.467-229.547 15.787-66.731 57.643-142.592 124.373-227.413-41.813-46.251-81.451-79.147-116.48-99.499-27.136-14.677-53.12-23.765-77.995-25.941-114.219-17.024-203.776 93.781-163.115 208.085 5.632 14.72 16.853 41.813 36.053 83.669l1.067 2.261c62.421 135.509 138.24 289.536 225.365 460.373l2.261 5.632 24.747 47.573c19.2 35.072 27.093 50.773 57.643 70.101 14.72 8.917 32.811 13.397 53.12 13.397 40.704 0 72.405-23.765 85.973-42.923 6.741-10.197 14.72-23.765 24.832-40.661l23.808-46.421 3.413-6.784c87.040-170.752 162.944-324.48 225.109-460.331l1.109-1.067 22.741-52.053 13.568-32.597c10.368-26.112 12.544-52.096 9.088-79.232zM973.397 233.899c-7.936 24.875-21.504 54.229-38.4 89.301v1.28c-80.512 170.88-155.307 324.48-226.304 462.507l-4.736 6.912c-50.603 103.765-86.827 166.101-192.043 166.101-104.021 0-148.224-72.277-193.408-166.272l-3.456-6.827c-71.168-137.984-145.92-291.797-226.176-462.592v-2.261l-23.808-52.011c-8.96-21.504-13.525-32.768-14.72-36.139-57.6-158.379 61.099-297.472 204.8-297.472 1.152 0 5.632 0 11.264 1.152h15.872c74.667 9.088 151.595 56.533 229.632 141.483 77.995-84.821 155.008-132.395 229.547-141.483h15.872c5.632-1.152 10.155-1.152 11.264-1.152 143.701-0.128 262.4 139.093 204.8 297.472z" />
<glyph unicode="&#xe92a;" glyph-name="airbus" data-tags="airbus" d="M471.979 478.037c0-31.573-16.597-49.536-42.368-55.637-0.299 0 41.259-65.323 41.259-65.323h-50.347l-60.885 97.152h42.923c18.56 0 25.472 10.24 25.472 22.699 0 12.16-6.656 22.699-25.173 22.699h-50.176v-142.549h-44.288v181.845h94.123c46.763 0 69.461-26.283 69.461-60.885zM234.197 357.077h44.288v181.845h-44.288v-181.845zM92.757 538.923l-92.757-181.845h49.835l15.019 30.464h74.667l-18.56 38.187h-37.248l27.563 55.936h0.555l61.995-124.587h50.944l-92.715 181.845h-39.296zM633.685 451.456c17.451-6.101 29.355-22.144 29.355-43.477 0-30.72-24.619-50.944-62.293-50.944h-107.691v181.888h103.552c36.821 0 58.709-19.669 58.709-48.981-0.043-18.261-7.509-30.72-21.632-38.485zM537.344 468.352h58.965c0.103-0.002 0.224-0.004 0.345-0.004 8.672 0 15.701 7.030 15.701 15.701 0 0.121-0.001 0.242-0.004 0.363v-0.018c0.003 0.115 0.005 0.249 0.005 0.385 0 8.648-7.011 15.659-15.659 15.659-0.047 0-0.093 0-0.14-0.001h-59.214v-32.085zM597.675 395.264c0.166-0.005 0.361-0.008 0.557-0.008 10.25 0 18.56 8.31 18.56 18.56 0 0.093-0.001 0.186-0.002 0.278v-0.014c0 10.539-8.32 18.261-19.115 18.261h-60.331v-37.077h60.331zM802.816 437.333c0-27.605-12.715-42.923-37.931-42.923-24.917 0-37.632 15.317-37.632 42.923v101.589h-45.397v-98.261c0-56.192 29.611-87.467 83.029-87.467s83.328 31.275 83.328 87.467v98.261h-45.397v-101.589zM966.4 466.688c-42.027 10.24-51.2 11.221-51.2 23.253 0 9.301 10.496 13.824 28.245 13.824 23.509 0 48.597-5.888 62.848-14.677l14.123 37.077c-18.261 9.685-45.141 16.597-76.416 16.597-46.805 0-73.088-23.253-73.088-54.528 0-33.664 19.627-47.317 64.768-57.045 35.157-7.765 42.624-12.587 42.624-22.443 0-10.709-9.685-15.488-28.8-15.488-0.46-0.005-1.004-0.008-1.549-0.008-26.068 0-50.604 6.557-72.049 18.113l0.809-0.398-13.568-38.741c21.888-11.648 54.528-19.115 87.467-19.115 45.952 0 73.344 21.333 73.344 57.045 0.043 28.715-18.475 47.104-57.557 56.533z" />
<glyph unicode="&#xe92b;" glyph-name="aircall" data-tags="aircall" d="M1000.576 708.011c-24.869 115.405-114.035 204.785-227.363 229.611l-1.97 0.362c-57.557 13.312-152.235 22.016-259.243 22.016s-201.685-8.704-259.243-22.016c-115.299-25.188-204.464-114.568-228.978-228.013l-0.355-1.96c-13.312-57.771-21.973-152.704-21.973-260.011s8.661-202.24 21.973-260.011c24.869-115.405 114.035-204.785 227.363-229.611l1.97-0.362c57.557-13.312 152.235-22.016 259.243-22.016s201.685 8.704 259.243 22.016c115.299 25.188 204.464 114.568 228.978 228.013l0.355 1.96c13.269 57.771 21.973 152.661 21.973 260.011 0 107.307-8.661 202.24-21.973 260.011zM749.995 179.115l-0.128-0.043c-18.261-6.485-49.707-12.075-89.685-16.085l-6.272-0.597c-0.516-0.050-1.115-0.078-1.72-0.078-7.826 0-14.544 4.746-17.433 11.517l-0.047 0.124c-9.907 23.205-30.151 40.327-54.783 45.73l-0.513 0.094c-14.976 3.456-39.595 5.717-67.413 5.717s-52.437-2.261-67.413-5.717c-24.96-5.463-45.084-22.368-54.888-44.813l-0.194-0.499c-3.115-7.158-10.126-12.072-18.284-12.072-0.638 0-1.269 0.030-1.891 0.089l0.080-0.006c-0.419 0.073-2.315 0.255-4.216 0.421l-1.288 0.091c-40.021 4.011-71.509 9.557-89.813 16.085l-0.128 0.043c-12.372 4.757-20.992 16.544-20.992 30.344 0 0.027 0 0.055 0 0.082v-0.004c0 1.365 0.128 2.816 0.213 4.181 3.115 41.771 28.416 139.605 66.219 251.307 43.264 127.659 88.448 230.997 108.843 251.179 4.679 4.884 10.453 8.68 16.931 10.998l0.307 0.096 0.171 0.085c13.397 4.523 38.059 7.595 66.304 7.595 28.288 0 52.949-3.029 66.304-7.595l0.213-0.085c6.803-2.401 12.593-6.199 17.265-11.077l0.015-0.016c20.395-20.139 65.579-123.52 108.757-251.179 37.803-111.659 63.104-209.493 66.219-251.307 0.085-1.365 0.213-2.816 0.213-4.181 0-0.028 0-0.061 0-0.094 0-13.784-8.601-25.559-20.728-30.252l-0.221-0.075z" />
<glyph unicode="&#xe92c;" glyph-name="aircanada" data-tags="aircanada" d="M528.811 236.459c0 33.664 14.421 38.485 48.085 19.243 26.232-15.892 63.995-36.684 102.382-56.434l12.988-6.072c0 19.2 19.243 33.664 52.907 24.064 33.664-9.643 67.285-14.421 67.285-14.421s-19.2 43.264-28.843 62.464c-14.421 33.664 0 52.907 14.421 57.685 0 0-19.2 14.421-33.664 24.064-28.843 19.2-24.021 43.264 4.821 52.907 38.485 19.2 91.349 38.4 91.349 38.4-14.421 9.643-33.664 33.707-14.421 67.328 19.2 28.843 52.907 72.107 52.907 72.107h-91.349c-33.707 0-43.307 28.843-43.307 48.085 0 0-52.864-38.443-91.307-62.507-33.707-24.021-62.507 0-57.685 38.485 5.605 33.308 10.722 76.21 14.084 119.605l0.337 5.408c-19.243-19.243-52.907-14.464-72.107 14.379-24.064 48.085-48.085 105.813-48.085 105.813s-24.064-57.728-48.085-105.856c-14.421-28.843-48.085-33.621-67.328-19.2 3.699-48.803 8.817-91.706 15.618-134.045l-1.196 9.032c4.821-33.664-24.021-57.685-57.685-33.664-38.443 24.064-96.128 62.507-96.128 62.507 0-19.2-9.643-43.264-43.264-48.085h-91.349s33.664-43.264 52.907-72.107c19.2-28.843 0-57.685-14.464-67.285 0 0 48.085-24.064 91.349-38.485 28.843-14.421 38.485-33.621 4.821-52.907-9.643-9.6-33.664-24.021-33.664-24.021 19.2-4.779 33.664-24.021 19.2-57.685-9.6-19.2-28.8-62.464-28.8-62.464s33.621 9.6 67.285 14.421c33.664 9.6 48.085-9.643 52.907-24.064 0 0 57.685 33.664 115.371 62.507 28.843 19.2 48.085 9.6 48.085-19.2v-81.749c0-48.085-9.643-96.171-24.064-125.013-216.32 24.064-399.019 197.12-399.019 427.861 0 235.563 197.12 427.904 442.283 427.904 245.205 0 442.325-192.341 442.325-427.904 0-221.141-173.099-403.797-394.24-427.861v-57.685c259.627 24.064 461.525 230.827 461.525 485.589 0 274.048-230.741 490.368-514.389 490.368-278.869 0-509.611-216.32-509.611-485.547 0-235.563 177.877-432.64 413.44-475.947 38.485-9.6 62.507-14.421 86.528-38.443 24.064 48.043 28.843 144.213 28.843 197.12z" />
<glyph unicode="&#xe92d;" glyph-name="airfrance" data-tags="airfrance" d="M587.776 793.6l-366.592-530.432c-48.341-69.845-126.976-137.216-221.184-144.597v-16.171h407.552c108.544 0 187.605 70.656 239.616 148.48l376.832 542.72z" />
<glyph unicode="&#xe92e;" glyph-name="airplayaudio" data-tags="airplayaudio" d="M508.083 952.166c-122.769-0.969-245.615-45.837-343.253-135.334-208.282-190.925-220.425-515.465-29.495-723.75 8.678-10.411 19.085-19.085 29.5-29.5 5.205-3.469 12.207-3.541 17.417 1.668l22.583 26.082c5.205 5.205 5.205 13.875 0 19.085-182.251 168.363-194.432 454.746-24.333 637.001 170.099 182.246 454.75 194.347 637.001 24.247 182.246-170.099 194.347-454.665 24.247-636.915-8.678-8.678-15.573-17.391-24.247-24.333-5.205-5.205-5.205-13.875 0-19.085l22.583-26.082c5.205-5.205 13.875-5.137 19.081-1.664 208.286 192.661 220.429 515.46 29.5 723.746-102.353 110.652-241.442 165.931-380.582 164.834zM524.582 802.082c-93.726 3.038-188.732-29.525-262.498-98.082-147.537-137.122-156.203-367.966-19.085-515.499 5.205-5.205 10.389-12.126 17.335-17.335 5.205-5.205 13.875-5.205 19.081 0l22.583 26.001c5.205 5.205 5.205 13.875 0 19.085-60.749 57.276-97.165 138.867-97.165 223.915 0 168.363 137.054 305.502 305.417 305.502s305.498-138.803 305.498-307.17c0-83.311-34.748-164.971-95.497-222.251-5.205-5.205-5.205-13.875 0-19.081l22.583-26.001c5.205-5.205 13.875-6.955 19.081-1.749 147.537 138.859 154.539 369.715 17.417 517.248-68.561 73.771-161.024 112.384-254.75 115.418zM513.25 660.582c-56.41 0.87-113.237-19.891-157.5-62.417-88.521-85.047-90.219-223.893-5.167-312.414l5.163-5.248c5.21-5.21 13.879-5.21 19.089 0l22.583 26.078c5.205 5.205 5.205 13.879 0 19.085-29.508 29.508-46.835 71.108-46.835 114.5 0 0.129-0.001 0.283-0.001 0.436 0 87.941 71.291 159.232 159.232 159.232 0.153 0 0.306 0 0.459-0.001h-0.024c0.129 0 0.283 0.001 0.436 0.001 87.941 0 159.232-71.291 159.232-159.232 0-0.153 0-0.306-0.001-0.459v0.024c0-43.392-17.34-83.255-48.585-114.5-5.205-5.205-5.205-13.875 0-19.085l22.583-26.082c5.205-5.205 13.875-5.205 19.085 0 86.784 85.052 90.3 223.898 5.248 312.418-42.526 44.258-98.59 66.799-154.999 67.669zM513.502 330.167c-5.858 0.213-11.959-1.911-17.169-6.251l-1.664-1.749-305.502-343.667c-6.942-8.678-6.929-20.821 1.749-29.5 3.473-3.473 8.614-5.248 12.083-5.248h612.749c10.415 0 20.834 8.683 20.834 20.83 0 5.205-1.694 10.445-5.163 13.918l-302.084 343.667c-4.343 5.205-9.975 7.782-15.834 8z" />
<glyph unicode="&#xe92f;" glyph-name="airplayvideo" data-tags="airplayvideo" d="M145.579 903.68c-50.261 0-67.584-5.205-86.656-15.616-18.54-9.954-33.362-24.748-43.076-42.711l-0.273-0.553c-10.368-19.115-15.573-36.395-15.573-88.363v-389.845c0-50.261 5.205-67.627 15.573-86.656 10.411-19.072 24.32-32.939 43.349-43.349 17.323-10.411 34.688-15.573 86.656-15.573h116.053l48.555 57.173h-181.931c-13.867-1.749-29.44 0.043-43.349 6.997-8.661 3.413-15.616 12.075-20.821 20.736-5.205 13.867-8.661 27.733-6.912 43.349v422.741c-1.707 13.867 0 29.44 6.912 43.307 3.456 8.661 12.16 15.573 20.821 20.779 13.867 5.205 27.733 8.704 43.349 6.997h762.325c13.867 1.707 29.44-0.085 43.349-6.997 8.661-3.499 15.531-12.117 20.736-20.779 5.205-13.824 8.661-27.733 6.912-43.307v-424.533c1.707-13.824 0-29.44-6.912-43.307-3.456-8.661-12.075-15.573-20.736-20.736-13.867-5.205-27.733-8.661-43.349-6.955h-181.931l48.512-57.216 119.595 1.707c51.968 0 69.248 5.205 88.32 15.616 18.55 9.975 33.374 24.8 43.076 42.794l0.274 0.555c10.368 17.323 15.573 34.688 15.573 86.613v389.931c0 51.968-5.205 69.248-15.573 88.32-9.981 18.533-24.805 33.342-42.794 43.033l-0.556 0.274c-19.072 10.411-36.352 15.616-88.32 15.616h-731.179zM506.155 383.232c-6.389-0.273-12.018-3.31-15.755-7.938l-0.032-0.041-303.189-348.245c-3.256-3.524-5.253-8.253-5.253-13.448 0-0.162 0.002-0.324 0.006-0.485v0.024c-0.009-0.221-0.014-0.48-0.014-0.741 0-11.075 8.978-20.053 20.053-20.053 0.275 0 0.549 0.006 0.821 0.016l-0.039-0.001h609.835c5.205 0 10.453 1.707 13.909 5.163 8.661 6.955 8.704 20.864 1.749 29.525l-304.981 349.952c-4.434 3.897-10.286 6.275-16.694 6.275-0.131 0-0.262-0.001-0.393-0.003h0.020z" />
<glyph unicode="&#xe930;" glyph-name="airtable" data-tags="airtable" d="M511.659 876.117c-18.517 0-37.12-3.669-54.613-10.965l-381.141-157.611c-21.461-8.875-20.907-38.741 0.512-47.616l383.232-151.808c15.488-6.457 33.482-10.208 52.352-10.208s36.864 3.751 53.276 10.547l-0.924-0.339 383.232 151.808c21.461 8.363 21.461 38.741 0.512 47.616l-382.165 157.611c-15.962 6.933-34.554 10.965-54.088 10.965-0.065 0-0.129 0-0.194 0h0.010zM998.4 616.277c-3.423-0.023-6.675-0.727-9.637-1.982l0.165 0.062-427.179-165.419c-9.564-3.993-16.171-13.252-16.213-24.059v-379.568c0.14-14.032 11.547-25.352 25.599-25.352 3.396 0 6.637 0.661 9.602 1.862l-0.172-0.061 427.221 165.973c9.549 3.62 16.214 12.691 16.214 23.318 0 0.067 0 0.134-0.001 0.201v-0.010 379.563c-0.097 14.065-11.521 25.429-25.599 25.429 0 0 0 0-0.001 0v0zM28.843 614.613c-0.291 0.011-0.632 0.017-0.975 0.017-7.625 0-14.525-3.106-19.503-8.122l-0.002-0.002c-4.693-4.736-8.363-10.453-8.363-17.28v-356.48c0-18.859 21.973-31.445 38.741-23.040l280.619 134.528 126.677 61.269c19.883 9.387 18.347 38.741-2.603 46.592l-405.76 160.683c-2.603 1.119-5.628 1.802-8.803 1.877l-0.029 0.001z" />
<glyph unicode="&#xe931;" glyph-name="alfaromeo" data-tags="alfaromeo" d="M577.664 729.378c5.087 0 9.212 4.124 9.212 9.212s-4.124 9.212-9.212 9.212v0c-5.087 0-9.212-4.124-9.212-9.212s4.124-9.212 9.212-9.212v0zM180.629 662.135l-27.874-55.411-57.024 29.867-11.776-23.526c1.167 0.263 2.507 0.414 3.883 0.414 0.010 0 0.021 0 0.031 0h-0.002c2.372 0 4.723-0.448 6.554-1.284l63.671-33.34 37.841 75.264zM851.439 643.686l13.265 7.206 21.717-41.779 14.925 8.081-21.739 41.775 12.668 6.861 31.3-60.13 14.908 8.090-43.255 83.14c-1.583-3.682-4.625-6.793-7.044-8.055l-61.909-33.579 42.97-82.594 14.921 8.094zM540.553 729.378c5.087 0 9.212 4.124 9.212 9.212s-4.124 9.212-9.212 9.212v0c-5.087 0-9.212-4.124-9.212-9.212s4.124-9.212 9.212-9.212v0zM756.335 664.58l0.115-0.132c51.123-57.591 82.185-133.397 82.185-216.457 0-132.416-78.916-246.387-192.277-297.506-0.384-0.188-0.759-0.397-1.156-0.572l0.090 0.077 1.067 0.495c18.539 8.811 31.369 27.682 31.369 49.574 0 30.323-24.576 54.891-54.899 54.891l-57.792 0.051c-3.902 0-7.066 3.163-7.066 7.066s3.163 7.066 7.066 7.066h97.6c45.939 0 83.183 37.244 83.183 83.187 0 45.939-37.244 83.187-83.183 83.187l-94.251-0.013c-0.052-0.001-0.113-0.002-0.174-0.002-3.902 0-7.066 3.163-7.066 7.066s3.163 7.066 7.066 7.066c0.061 0 0.122-0.001 0.183-0.002h-0.009l71.97 0.081c75.938 0 137.502 61.559 137.502 137.498 0 0.063 0 0.138 0 0.213 0 28.074-8.455 54.173-22.957 75.89l0.313-0.498-0.363 0.512c-0.12 0.159-0.193 0.358-0.196 0.575v0.001c0 0.555 0.452 1.003 1.007 1.003 0.341 0 0.486-0.051 0.674-0.316zM617.327 139.021c-31.186-10.929-67.14-17.242-104.568-17.242-0.123 0-0.246 0-0.369 0h0.019c-48.981 0-95.437 10.812-137.131 30.165v257.084h92.382c-3.319 9.709-5.235 20.895-5.235 32.529 0 0.039 0 0.078 0 0.117v-0.006c0 17.19 4.207 33.408 11.601 47.706h-98.743v254.677c41.69 19.349 88.141 30.165 137.131 30.165 56.947 0 110.498-14.601 157.090-40.256h0.030c6.665-4.215 11.093-11.648 11.093-20.126 0-13.13-10.644-23.774-23.774-23.774-0.002 0-0.003 0-0.005 0v0l-0.521 0.017-40.073-0.038c-11.422 0-17.685-3.371-21.615-6.784-11.328-9.822-7.445-21.457-30.686-21.457h-64.094c8.67-19.989 28.57-34.419 33.519-37.781h78.72c3.182-0.002 5.907-1.955 7.043-4.728l0.018-0.051c0.37-0.803 0.586-1.742 0.586-2.732 0-0.5-0.055-0.987-0.159-1.455l0.008 0.044c-0.639-3.612-3.75-6.321-7.496-6.327h-80.133c-6.157-3.217-24.862-14.886-33.493-41.22h144.64c9.44 0 17.092-7.652 17.092-17.092s-7.652-17.092-17.092-17.092l-73.263 0.009c-50.5 0-91.439-40.939-91.439-91.435 0-50.505 40.939-91.443 91.435-91.443h91.366c3.904 0 7.066-3.264 7.066-7.168-0.009-3.853-3.135-6.972-6.989-6.972-0.027 0-0.054 0-0.081 0h-93.564c-36.996 0-66.991-29.986-66.991-66.974 0-36.996 29.995-66.987 66.987-66.987l35.345-0.119c17.856 0 32.563-14.985 32.563-32.713 0-14.49-8.742-24.708-18.219-30.541zM294.942 489.374h-106.142c10.103 79.851 49.092 150.699 106.146 201.758zM294.942 204.86c-57.621 51.584-96.802 123.337-106.423 204.169h106.423zM512.414 791.863c-189.909 0-343.868-153.954-343.868-343.872 0-189.901 153.958-343.868 343.863-343.868 189.918 0 343.872 153.967 343.872 343.868 0 189.918-153.954 343.872-343.872 343.872zM499.571 706.146h81.165c3.39 0.007 6.137 2.754 6.144 6.143v0.001c-0.007 3.392-2.753 6.14-6.143 6.153h-81.166c-3.391-0.012-6.137-2.76-6.144-6.152v-0.001c0-3.383 2.769-6.144 6.144-6.144zM502.643 729.378c5.087 0 9.212 4.124 9.212 9.212s-4.124 9.212-9.212 9.212v0c-5.087 0-9.212-4.124-9.212-9.212s4.124-9.212 9.212-9.212v0zM515.392 616.218l1.152 1.097v0.009l-1.152 1.105c-17.963 13.043-25.92 29.201-30.724 41.707-3.315 8.619-7.049 15.697-12.48 20.877-5.641 5.367-9.749 8.222-17.886 8.222-3.498-0.023-6.88-0.476-10.109-1.309l0.288 0.063-1.946-0.469 1.207-2.24c1.801-3.341 5.141-9.549 10.991-11.332 0.421-0.125 0.904-0.198 1.404-0.198 0.040 0 0.080 0 0.121 0.001h-0.006c0.51 0.007 1.002 0.037 1.487 0.087l-0.071-0.006c0.384 0.034 0.759 0.073 1.114 0.073 0.397 0 0.525-0.055 0.529-0.055 6.315-3.652 9.621-30.575 9.621-43.989 0-2.291-0.947-3.328-3.063-3.328-2.103 0-4.847 1.152-6.528 2.735-3.699 3.989-8.99 6.229-14.805 6.229-9.485 0-19.541-6.396-19.938-17.088v-2.172c0.401-10.692 10.453-17.088 19.942-17.088 5.811 0 11.102 2.24 14.801 6.229 1.681 1.579 4.425 2.726 6.528 2.726 2.116 0 3.063-1.024 3.063-3.319 0-13.414-3.311-40.337-9.621-43.989 0 0-0.128-0.051-0.529-0.051-0.399 0.006-0.784 0.031-1.164 0.073l0.055-0.005c-0.416 0.045-0.91 0.074-1.409 0.081h-0.012c-0.034 0.001-0.074 0.001-0.114 0.001-0.5 0-0.984-0.072-1.441-0.207l0.036 0.009c-5.85-1.783-9.19-7.991-10.991-11.332l-1.207-2.24 1.946-0.478c2.941-0.762 6.323-1.212 9.806-1.237h0.016c8.137 0 12.245 2.846 17.886 8.222 5.431 5.18 9.165 12.258 12.48 20.877 4.804 12.506 12.757 28.663 30.724 41.711zM112.567 525.666l-5.214-34.283-29.862 22.545zM58.219 498.479c1.204 0.521 2.606 0.824 4.079 0.824 0.021 0 0.042 0 0.063 0h-0.003c0.009 0 0.020 0 0.030 0 1.92 0 3.723-0.503 5.284-1.385l-0.054 0.028 0.119-0.068 65.135-50.069 3.307 21.751-13.239 9.967 7.94 52.233 15.522 5.188 3.298 21.713-86.652-29.141zM512-43.52c-271.454 0-491.52 220.066-491.52 491.52s220.070 491.507 491.52 491.507c271.454 0 491.511-220.053 491.511-491.507s-220.053-491.52-491.511-491.52zM512 959.987c-282.765 0-512-229.227-512-511.987s229.235-511.987 512-511.987c282.769 0 512 229.227 512 511.987s-229.231 511.987-512 511.987zM625.813 847.219c3.383 9.813 11.721 15.223 23.488 15.223 4.919 0 10.146-0.981 15.531-2.918 18.765-6.746 27.725-20.275 22.822-34.466-3.396-9.869-11.755-15.313-23.522-15.313-4.949 0-10.21 0.99-15.637 2.94-18.705 6.72-27.61 20.275-22.682 34.539zM642.556 795.311c8.32-2.991 16.597-4.51 24.593-4.51h0.004c20.279 0 35.819 9.95 41.57 26.624 4.058 11.776 2.219 24.32-5.18 35.328-7.061 10.513-18.701 19.093-32.777 24.149-8.115 2.914-16.282 4.395-24.243 4.395-20.45 0-36.066-9.882-41.792-26.449-8.179-23.689 7.723-48.734 37.824-59.537zM774.583 788.51l-7.838-62.097 0.981-0.917 59.469 13.935-32.683-44.245 16.030-14.95 49.583 65.395-18.419 17.165-51.874-11.618 6.336 54.063-21.666 20.169c-0.192-3.904-1.822-7.851-4.032-9.984l-51.388-49.916 16.115-15.027zM929.22 469.299c-1.178-0.215-2.534-0.34-3.92-0.341h-0.002c-12.847 0-22.686 11.209-25.685 29.235-3.311 19.934 3.998 34.449 18.645 36.996 1.157 0.201 2.491 0.319 3.852 0.324h0.005c12.625 0 22.686-11.426 25.626-29.129 3.328-19.994-3.938-34.556-18.522-37.086zM965.457 509.483c-4.796 28.749-23.142 48.823-44.625 48.823-2.238-0.008-4.424-0.206-6.549-0.58l0.23 0.034c-24.235-4.22-37.948-30.571-32.61-62.665 4.877-29.261 22.81-48.922 44.617-48.922 2.281 0.002 4.513 0.207 6.68 0.597l-0.229-0.034c24.162 4.194 37.833 30.579 32.486 62.746zM530.445 886.31h0.004c6.882 0 11.55-4.932 11.614-12.288 0.060-7.424-4.437-12.083-11.738-12.143l-42.206-0.371-0.213 24.431zM466.658 821.321l21.798 0.192-0.192 22.699 36.574 0.329 15.983-22.579 24.303 0.213-18.359 24.307 2.261 1.084c9.331 4.471 14.622 13.777 14.515 25.532-0.158 18.539-12.373 30.524-31.095 30.524l-70.345-0.619c2.274-2.752 3.721-6.391 3.938-9.442zM322.257 807.505l-30.063-17.267-0.969 37.402zM272.563 825.489l0.026-0.145 1.425-82.219 19.081 10.97-0.461 16.563 45.803 26.338 13.726-8.917 19.042 10.944-76.779 49.638-27.307-15.59c2.82-1.574 4.839-4.295 5.434-7.515l0.010-0.067zM159.915 722.15l51.593-49.51 14.963 16.235-19.008 18.249 31.744 34.449-12.318 11.827-31.757-34.449-14.677 14.084 45.709 49.609-12.318 11.819-63.398-68.826c3.337-0.222 7.010-1.536 9.387-3.422l0.077-0.060z" />
<glyph unicode="&#xe932;" glyph-name="algolia" data-tags="algolia" d="M134.827 960c-0.051 0-0.111 0-0.171 0-74.308 0-134.559-60.19-134.656-134.476v-754.782c0.073-74.416 60.404-134.717 134.824-134.741h754.349c74.539 0 134.827 60.587 134.827 134.827v754.347c0 74.539-60.587 134.827-134.827 134.827h-754.347zM470.613 810.923h103.637c0.013 0 0.028 0 0.043 0 24.507 0 44.373-19.867 44.373-44.373 0-0.015 0-0.030 0-0.045v0.002-35.072c0.002-0.053 0.003-0.116 0.003-0.18 0-3.299-2.674-5.973-5.973-5.973-0.516 0-1.017 0.065-1.495 0.189l0.041-0.009c-26.13 7.471-56.144 11.77-87.165 11.776h-0.003c-0.127 0-0.276 0-0.426 0-31.97 0-62.853-4.629-92.013-13.252l2.284 0.58c-4.053-0.896-7.765 1.92-7.765 5.973v35.968c0 0 0 0 0 0 0 24.462 19.87 44.301 44.409 44.373h0.007zM285.013 716.203c0.148 0.002 0.323 0.003 0.499 0.003 12.315 0 23.459-4.993 31.499-13.056l17.667-17.752c2.475-2.773 2.176-7.125-0.939-8.96-14.882-10.761-27.993-21.976-40.129-34.156l-0.020-0.020c-11.973-12.057-23.073-25.036-33.16-38.799l-0.675-0.966c-2.475-2.773-6.528-3.413-9.344-0.683l-17.408 17.451c-8.069 8.033-13.060 19.136-13.060 31.403s4.991 23.37 13.060 31.402l21.163 21.078c7.898 7.9 18.777 12.842 30.815 13.013h0.033zM523.819 701.269c0.165 0 0.36 0.001 0.555 0.001 159.624 0 289.024-129.4 289.024-289.024 0-0.060 0-0.12 0-0.18v0.009c-0.024-159.841-129.606-289.408-289.451-289.408-0.045 0-0.090 0-0.135 0h0.007c-159.915 0-289.664 129.195-289.664 289.152 0.049 159.87 129.66 289.451 289.536 289.451 0.060 0 0.12 0 0.18 0h-0.009zM523.819 615.595c0 0 0 0 0 0-112.602 0-203.904-91.197-204.074-203.76v-0.016c0.194-112.56 91.487-203.733 204.074-203.733v0c0.089 0 0.194 0 0.299 0 112.536 0 203.77 91.204 203.819 203.729v0.005c-0.146 112.574-91.438 203.776-204.032 203.776-0.030 0-0.060 0-0.090 0h0.005zM530.005 579.84c59.942-2.264 111.609-35.493 139.557-84.006l0.433-0.815c1.536-3.115 0.64-6.827-2.432-8.363l-135.083-69.888c-3.968-2.219-8.747 0.981-8.747 5.333v151.765h0.085c0 3.413 3.072 5.931 6.187 5.931z" />
<glyph unicode="&#xe933;" glyph-name="alipay" data-tags="alipay" d="M685.909 374.101c36.779 63.744 66.133 136.363 85.461 215.253h-201.856v72.491h247.253v40.448h-247.253v120.875h-100.907c-17.707 0-17.707-17.408-17.707-17.408v-103.467h-250.069v-40.448h250.069v-72.491h-206.464v-40.448h400.469c-14.635-50.347-34.347-97.621-57.685-140.544-129.92 42.752-268.587 77.397-355.712 56.064-55.68-13.696-91.563-38.101-112.683-63.701-96.725-117.376-27.349-295.637 176.939-295.637 120.789 0 237.184 67.157 327.381 177.835 134.528-64.512 400.853-175.232 400.853-175.232v-6.699c0-90.325-73.344-163.541-163.968-163.541h-695.979c-90.667 0-164.053 73.259-164.053 163.584v693.931c0 90.368 73.387 163.584 164.053 163.584h695.979c90.624 0 163.968-73.216 163.968-163.584v-529.451c0 0-33.451 2.645-180.907 51.883-40.96 13.696-95.957 34.603-157.184 56.704zM248.917 403.883c-25.6-2.517-73.6-13.824-99.883-36.949-78.72-68.437-31.616-193.579 127.701-193.579 92.587 0 185.131 59.051 257.792 153.557-103.424 50.304-190.976 86.272-285.611 76.971z" />
<glyph unicode="&#xe934;" glyph-name="alliedmodders" data-tags="alliedmodders" d="M25.685 914.048c-14.251-0.311-25.685-11.937-25.685-26.234 0-0.002 0-0.004 0-0.006v0-879.573c0-14.492 11.748-26.24 26.24-26.24v0h354.517c14.492 0 26.24 11.748 26.24 26.24v0 74.411l27.605-82.773c3.588-10.502 13.371-17.92 24.886-17.92 0.011 0 0.022 0 0.033 0h288.852c11.616 0.011 21.464 7.568 24.907 18.033l0.053 0.185 1.493 4.565c1.786-12.908 12.748-22.741 26.006-22.741 0.007 0 0.015 0 0.022 0h196.906c14.492 0 26.24 11.748 26.24 26.24v0 603.819c0 0.005 0 0.011 0 0.017 0 11.939-7.974 22.016-18.887 25.196l-0.185 0.046-183.765 52.608c-2.165 0.644-4.653 1.015-7.227 1.015-11.13 0-20.641-6.929-24.455-16.708l-0.061-0.179-80.512-209.323v236.757c0 0.020 0 0.043 0 0.066 0 11.877-7.891 21.911-18.716 25.145l-0.186 0.048-144.427 41.813c-2.198 0.665-4.724 1.047-7.339 1.047-14.485 0-26.229-11.737-26.24-26.219v-262.401l-119.851 319.147c-2.963 7.808-9.322 13.731-17.223 16.039l-0.185 0.046-341.333 96.853c-2.137 0.627-4.593 0.988-7.133 0.988-0.208 0-0.414-0.002-0.621-0.007l0.031 0.001zM52.48 853.035l295.168-83.712 166.016-442.155c3.834-10.042 13.387-17.044 24.576-17.044 14.492 0 26.24 11.748 26.24 26.24 0 0.007 0 0.014 0 0.022v-0.001 372.053l91.947-26.624v-358.485c-0.001-0.062-0.001-0.135-0.001-0.208 0-14.492 11.748-26.24 26.24-26.24 11.147 0 20.671 6.951 24.473 16.754l0.061 0.179 122.624 318.933 141.653-40.448v-557.824h-144.384v52.48h52.48c0 0 0 0 0 0 14.492 0 26.24 11.748 26.24 26.24 0 0.015 0 0.030 0 0.045v-0.002 301.909c0 0.003 0 0.007 0 0.011 0 14.492-11.748 26.24-26.24 26.24-11.598 0-21.439-7.525-24.907-17.959l-0.053-0.185-125.44-388.779h-250.752l-190.933 572.843c-3.56 10.552-13.367 18.015-24.918 18.015-14.492 0-26.24-11.748-26.24-26.24 0-0.033 0-0.067 0-0.1v0.005-472.576c0-0.038 0-0.083 0-0.128 0-14.492 11.748-26.24 26.24-26.24 0 0 0 0 0 0h91.989v-65.579h-302.080zM288.853 437.163l94.891-284.757c-0.87 0.132-1.901 0.224-2.949 0.255l-0.038 0.001h-91.904zM853.333 248.235v-108.757h-35.072z" />
<glyph unicode="&#xe935;" glyph-name="allocine" data-tags="allocine" d="M872.405 57.088l-138.24 873.259c-2.585 16.874-16.997 29.648-34.393 29.648-1.805 0-3.578-0.138-5.309-0.403l0.023 0.024-145.92-23.509c0.811-5.071 1.275-10.919 1.275-16.874 0-62.021-50.278-112.299-112.299-112.299-55.564 0-101.702 40.354-110.707 93.353l-0.093 0.663-145.92-23.125c-16.894-2.567-29.689-16.989-29.689-34.4 0-1.803 0.137-3.574 0.402-5.303l-0.024 0.193v-0.128l138.411-872.875c2.944-18.901 20.651-31.829 39.595-28.885h0.043l145.963 23.125c-1.038 5.738-1.631 12.342-1.631 19.085 0 62.115 50.354 112.469 112.469 112.469 56.581 0 103.404-41.782 111.298-96.175l0.072-0.606 145.92 23.083c16.649 2.68 29.212 16.945 29.212 34.144 0 1.879-0.15 3.723-0.439 5.521l0.026 0.016zM630.187 609.707l-52.48-77.013c-4.606-6-10.922-10.48-18.217-12.731l-0.258-0.069c-21.717-5.12-53.291 41.045-75.605-64.213-22.357-105.259 25.259-76.117 42.837-89.856 5.694-4.756 9.919-11.095 12.010-18.339l0.065-0.264 16.811-91.392h-0.512c0.213-1.243 0.335-2.674 0.335-4.134 0-10.299-6.062-19.182-14.812-23.277l-0.158-0.066c-19.371-7.808-49.792-18.219-67.755-14.379-38.528 8.235-99.755 103.595-66.645 259.072 33.152 155.435 127.744 216.661 166.229 208.427 17.621-3.84 41.472-25.643 56.107-40.661 3.936-4.49 6.337-10.411 6.337-16.893 0-5.295-1.602-10.215-4.348-14.303l0.058 0.092z" />
<glyph unicode="&#xe936;" glyph-name="alpinelinux" data-tags="alpinelinux" d="M255.915 891.435l-255.915-443.435 255.915-443.435h512.171l255.915 443.435-255.915 443.435h-512.171zM425.173 656.213l114.987-118.613 68.181-68.053 0.085 0.085 102.827-100.821c-8.533-5.973-16.469-10.752-24.021-14.677-5.839-3.165-12.822-6.287-20.047-8.905l-1.116-0.353c-5.068-1.853-11.161-3.495-17.431-4.63l-0.703-0.106c-5.589-0.981-10.667-1.451-15.275-1.451-5.547 0-10.325 0.597-14.421 1.451-3.912 0.788-7.34 1.848-10.612 3.209l0.372-0.137c-3.259 1.367-6.067 2.984-8.641 4.898l0.108-0.077-45.312 46.592-129.664 129.749-46.933-44.928-130.987-131.072c-2.464-1.796-5.273-3.384-8.259-4.634l-0.274-0.102c-2.868-1.242-6.251-2.316-9.758-3.052l-0.354-0.062c-4.096-0.853-8.917-1.408-14.421-1.408-4.608 0-9.685 0.384-15.275 1.323-6.981 1.288-13.069 2.973-18.933 5.12l0.8-0.256c-8.339 2.969-15.322 6.092-22.020 9.678l0.857-0.419c-9.355 4.946-17.21 9.799-24.722 15.104l0.701-0.47 290.261 287.019zM626.56 622.72l195.371-196.181 58.965-57.728c-6.825-4.85-14.693-9.717-22.865-14.091l-1.199-0.586c-5.82-3.167-12.774-6.289-19.97-8.907l-1.107-0.352c-5.083-1.857-11.191-3.5-17.476-4.631l-0.7-0.105c-5.547-0.981-10.709-1.451-15.36-1.451-5.504 0-10.283 0.597-14.379 1.451-6.196 1.29-11.693 3.446-16.686 6.369l0.259-0.14c-1.408 0.853-2.133 1.536-2.261 1.707l-52.565 51.968-90.069 90.069-14.251-14.251-66.56 66.005 80.896 80.939zM372.011 446.933v-107.904c-5.421 0.077-10.663 0.617-15.755 1.583l0.566-0.089c-6.961 1.346-13 3.057-18.822 5.214l0.816-0.265c-8.208 2.934-15.078 6.013-21.668 9.545l0.847-0.415c-9.223 4.912-16.965 9.722-24.372 14.972l0.692-0.466 77.653 77.867z" />
<glyph unicode="&#xe937;" glyph-name="altiumdesigner" data-tags="altiumdesigner" d="M816.64 709.291c-4.219 8.156-10.702 14.64-18.618 18.745l-0.24 0.113-382.037 224.555c-14.037 9.643-35.968 9.643-51.328 0.427l-144.768-84.651c-2.176-1.749-4.352-3.499-6.144-5.248-7.461-8.062-12.099-18.832-12.288-30.682v-0.038l0.427-280.277-0.853-9.173 2.645-5.248c1.863-3.736 4.717-6.74 8.22-8.737l0.1-0.053c3.424-2.301 7.639-3.672 12.174-3.672 4.257 0 8.231 1.208 11.599 3.3l-0.094-0.054 142.549 81.536c3.022 1.947 5.519 4.444 7.409 7.37l0.058 0.096 3.499 7.040v137.259l96.043-56.576 150.869-88.619c3.074-1.871 5.483-4.568 6.952-7.783l0.045-0.11c1.662-2.753 2.645-6.078 2.645-9.632 0-0.004 0-0.007 0-0.011v0.001-300.885c-0.057-4.052-1.191-7.827-3.128-11.067l0.056 0.101c-1.749-3.072-3.499-5.248-6.571-6.571l-247.381-145.621v137.728l128.085 76.757 7.893 7.467 0.896 2.176c1.636 3.056 2.61 6.68 2.645 10.528v163.595c-0.039 4.605-1.503 8.861-3.971 12.356l0.046-0.068-2.645 5.248-6.144 3.072c-3.968 1.749-7.467 1.749-10.539 1.749l-7.467-0.427-271.488-164.907c-8.076-4.695-14.514-11.42-18.732-19.489l-0.126-0.266c-3.874-7.311-6.149-15.983-6.149-25.186 0-0.251 0.002-0.501 0.005-0.751v0.038-279.851c0-10.965 4.395-21.931 14.037-32 3.499-2.645 6.571-4.821 10.069-6.997l142.549-82.901c7.936-4.821 16.256-6.997 25.472-6.997s18.005 2.176 25.429 6.997l378.965 222.379c8.32 4.395 15.36 11.392 18.859 18.432 4.821 7.893 6.997 17.109 6.997 26.325v473.259c0.001 0.143 0.002 0.311 0.002 0.48 0 9.325-2.42 18.085-6.667 25.686l0.137-0.267zM357.845 634.709l-125.44-72.363v270.165c0 3.072 1.323 6.571 3.925 9.216l9.216 5.248 112.299-66.688v-145.579zM231.936 344.789c0 3.968 0.896 7.893 2.645 11.861 1.69 3.215 4.251 5.777 7.371 7.421l0.095 0.046 254.848 154.837v-144.725l-40.789-24.576-98.688-59.221-125.44-75.861v130.219zM231.936 64.939v113.621l125.44 75.435v-137.301l-112.299-66.219-4.395 2.645c-2.176 1.323-3.968 2.176-4.395 2.645-2.603 3.029-4.352 6.101-4.352 9.173zM792.064 210.133c-0.053-4.052-1.187-7.828-3.128-11.066l0.056 0.1c-1.557-2.923-3.992-5.206-6.948-6.534l-0.092-0.037-379.392-222.805c-2.706-1.842-6.046-2.941-9.643-2.941s-6.937 1.099-9.703 2.979l0.060-0.039-107.008 62.72 195.2 114.901v0.427l179.84 105.728c8.010 4.25 14.354 10.731 18.32 18.614l0.112 0.245c4.684 7.302 7.467 16.212 7.467 25.773 0 0.029 0 0.058 0 0.088v-0.005 300.885c0 9.216-2.645 17.963-7.040 25.429-4.462 7.857-10.703 14.235-18.202 18.731l-0.23 0.128-293.888 172.843-82.048 48.683 104.405 61.397c2.76 1.649 6.087 2.624 9.643 2.624s6.883-0.975 9.73-2.672l-0.087 0.048 383.36-225.877c2.905-1.379 5.192-3.666 6.535-6.488l0.035-0.082c1.666-3.028 2.645-6.637 2.645-10.474 0-0.023 0-0.045 0-0.068v0.004-473.259z" />
<glyph unicode="&#xe938;" glyph-name="amazon" data-tags="amazon" d="M1.92 191.147c3.072 4.949 7.979 5.291 14.848 0.939 155.136-90.027 324.011-135.083 506.453-135.083 121.685 0 241.835 22.741 360.405 68.053l13.44 5.973c5.888 2.56 9.984 4.267 12.501 5.547 9.643 3.755 16.64 1.963 22.4-5.547 5.12-7.424 3.84-14.336-5.12-20.48-10.923-8.107-25.6-17.493-42.923-27.904-53.077-31.701-112.64-56.149-178.56-73.643-58.791-16.518-126.305-26.014-196.036-26.014-97.555 0-190.77 18.585-276.297 52.407l5.090-1.775c-89.327 35.526-166.107 83.806-232.36 143.537l0.68-0.603c-4.267 3.157-6.443 6.4-6.443 9.387 0 2.005 0.896 3.84 2.176 5.547zM282.027 456.448c0 42.88 10.539 79.488 31.701 109.952 21.12 30.293 49.92 53.333 87.040 68.907 33.963 14.293 74.923 24.533 124.245 30.72 16.64 1.963 44.075 4.395 81.92 7.424v15.787c0 39.68-4.48 66.475-12.8 80-12.885 18.347-33.28 27.733-61.44 27.733h-7.765c-20.48-1.963-38.229-8.363-53.163-19.627-14.933-11.52-24.533-26.88-28.8-46.763-2.56-12.8-8.789-19.84-18.56-21.76l-107.52 13.44c-10.581 2.56-15.872 7.68-15.872 16.64 0 1.963 0.299 3.84 0.939 6.4 10.539 55.040 36.48 96 77.653 122.88 41.643 26.283 89.6 41.6 144.64 44.8h23.040c70.4 0 126.165-18.517 165.888-55.040 5.76-6.4 11.52-12.8 17.28-20.48 5.12-7.040 9.557-13.397 12.075-19.2 3.2-5.717 6.4-14.080 8.32-24.32 2.56-10.837 4.48-17.92 5.76-21.76 1.28-4.437 2.645-12.8 3.243-26.24 0.427-13.355 0.853-21.035 0.853-23.595v-225.28c0-16.043 2.56-30.72 7.040-44.203 4.48-13.355 8.96-23.040 13.44-28.757l21.76-28.757c3.84-5.803 5.803-10.923 5.803-15.36 0-5.12-2.56-9.643-7.68-13.397-51.2-44.8-79.36-69.12-83.755-72.96-7.040-5.76-16-6.4-26.88-1.92-8.101 6.799-15.423 13.715-22.322 21.034l-0.12 0.129-13.227 14.805c-3.989 4.932-8.428 10.767-12.708 16.724l-0.817 1.196-12.8 18.56c-34.56-37.803-68.395-61.44-102.4-71.040-21.077-6.4-46.635-9.685-78.080-9.685-47.36 0-87.040 14.635-117.76 44.117-30.72 29.44-46.080 71.040-46.080 125.44l-2.133 3.243zM442.155 475.136c0-24.149 5.973-43.52 18.133-58.197 12.16-14.507 28.8-21.845 49.28-21.845 1.92 0 4.523 0.299 8.32 0.853 3.84 0.683 5.717 0.981 7.083 0.981 26.197 6.827 46.080 23.595 60.757 50.261 7.040 11.947 12.16 24.747 15.36 38.827 3.84 13.653 5.12 25.173 5.76 34.133 0.64 8.32 0.64 23.040 0.64 42.88v23.040c-35.84 0-63.317-2.56-81.92-7.68-54.4-15.36-81.92-49.92-81.92-103.68l-1.493 0.853zM833.067 175.317c1.28 2.56 3.2 4.693 5.632 7.253 15.445 10.368 30.464 17.493 44.8 21.333 20.239 5.372 43.785 9.036 67.984 10.209l0.794 0.031c5.973 0.512 11.947 0 17.493-1.28 27.733-2.56 44.8-7.168 50.005-14.080 2.688-3.84 4.224-9.728 4.224-16.64v-6.4c0-21.76-6.357-47.36-18.091-76.8-11.861-29.44-28.331-53.248-49.323-71.68-3.115-2.56-5.973-3.84-8.405-3.84-1.28 0-2.56 0-3.84 0.512-3.84 1.877-4.565 5.12-2.731 10.24 23.040 53.76 34.389 91.435 34.389 112.64 0 6.4-1.28 11.52-3.712 14.677-6.187 7.083-23.467 10.965-52.224 10.965-10.368 0-22.741-0.683-37.12-1.963-15.488-1.92-29.867-3.84-42.667-5.76-3.84 0-6.315 0.597-7.68 1.877-1.28 1.28-1.536 2.005-0.853 3.285 0 0.725 0.256 1.28 0.853 2.688v2.56z" />
<glyph unicode="&#xe939;" glyph-name="amazonalexa" data-tags="amazonalexa" d="M512 960c-282.88 0-512-229.12-512-512 0-259.84 193.28-474.027 443.733-507.733v102.4c0.005 0.304 0.008 0.663 0.008 1.022 0 29.681-19.062 54.911-45.611 64.114l-0.476 0.144c-143.15 49.328-244.156 182.874-244.156 340.011 0 3.016 0.037 6.022 0.111 9.020l-0.009-0.444c4.047 194.103 162.352 349.904 357.047 349.904 1.826 0 3.648-0.014 5.467-0.041l-0.275 0.003c196.387-2.033 354.805-161.707 354.805-358.382 0-4.658-0.089-9.295-0.265-13.91l0.020 0.665-0.427-2.987c-0.378-6.642-0.835-12.244-1.415-17.809l0.135 1.595c0-2.987-0.427-5.973-0.853-8.533 0-3.413-0.427-6.827-0.853-9.813l-0.853-4.267c-43.947-289.28-420.267-451.413-422.4-452.693 22.187-2.987 45.227-4.267 68.267-4.267 282.88 0 512 229.12 512 512s-229.12 512-512 512z" />
<glyph unicode="&#xe93a;" glyph-name="amazonaws" data-tags="amazonaws" d="M288.555 531.797c0-12.629 1.365-22.827 3.755-30.293 2.731-7.509 6.144-15.701 10.923-24.576 1.707-2.688 2.389-5.419 2.389-7.808 0-3.413-2.048-6.827-6.485-10.24l-21.461-14.293c-2.469-1.798-5.527-2.928-8.841-3.071l-0.034-0.001c-3.413 0-6.827 1.707-10.197 4.779-4.424 4.748-8.462 9.98-11.989 15.566l-0.256 0.434c-3.12 5.186-6.647 11.771-9.896 18.517l-0.686 1.579c-26.539-31.317-59.947-46.976-100.139-46.976-28.587 0-51.413 8.149-68.096 24.491-16.683 16.384-25.173 38.144-25.173 65.408 0 28.928 10.197 52.48 30.976 70.144 20.779 17.707 48.341 26.581 83.413 26.581 11.605 0 23.509-1.024 36.096-2.731 12.629-1.707 25.6-4.437 39.168-7.509v24.875c0 25.899-5.419 43.947-16 54.485-10.88 10.581-29.269 15.659-55.467 15.659-11.947 0-24.235-1.323-36.821-4.395s-24.875-6.827-36.779-11.605c-3.219-1.499-7.18-3.007-11.256-4.255l-0.691-0.182c-1.601-0.535-3.452-0.887-5.371-0.98l-0.048-0.002c-4.779 0-7.168 3.413-7.168 10.539v16.683c0 5.461 0.683 9.557 2.389 11.947 2.55 3.050 5.749 5.47 9.393 7.061l0.164 0.064c11.904 6.144 26.197 11.264 42.88 15.36 15.371 4.098 33.019 6.452 51.216 6.452 0.685 0 1.368-0.003 2.051-0.010l-0.105 0.001c40.533 0 70.144-9.216 89.216-27.605 18.731-18.347 28.245-46.293 28.245-83.755v-110.336zM150.315 480c11.221 0 22.784 2.048 35.072 6.144 12.245 4.096 23.168 11.563 32.341 21.76 5.461 6.485 9.557 13.653 11.605 21.845 2.005 8.149 3.413 18.048 3.413 29.611v14.293c-8.452 2.192-19.091 4.225-29.921 5.648l-1.439 0.154c-9.595 1.287-20.702 2.031-31.979 2.048h-0.021c-22.827 0-39.509-4.437-50.773-13.653-11.221-9.173-16.64-22.101-16.64-39.125 0-16 4.053-27.947 12.587-36.096 8.149-8.533 20.053-12.629 35.755-12.629zM423.808 443.221c-6.144 0-10.24 1.024-12.971 3.413-2.731 2.048-5.12 6.827-7.168 13.269l-80 263.296c-1.452 3.971-2.534 8.596-3.049 13.391l-0.023 0.263c0 5.461 2.731 8.533 8.149 8.533h33.408c6.443 0 10.88-1.067 13.227-3.413 2.773-2.048 4.821-6.827 6.827-13.312l57.259-225.451 53.12 225.451c1.707 6.827 3.755 11.264 6.443 13.312 3.485 2.169 7.715 3.456 12.245 3.456 0.495 0 0.987-0.015 1.475-0.046l-0.067 0.003h27.221c6.485 0 10.923-1.067 13.653-3.413 2.688-2.048 5.12-6.827 6.443-13.312l53.803-228.181 58.923 228.181c2.048 6.827 4.437 11.264 6.827 13.312 3.367 2.168 7.479 3.456 11.892 3.456 0.485 0 0.966-0.016 1.443-0.046l-0.065 0.003h31.701c5.419 0 8.533-2.773 8.533-8.533 0-1.707-0.384-3.413-0.725-5.461-0.606-3.259-1.433-6.122-2.503-8.864l0.113 0.33-82.048-263.253c-2.048-6.827-4.437-11.221-7.168-13.269-3.322-2.16-7.386-3.445-11.75-3.445-0.414 0-0.826 0.012-1.235 0.034l0.057-0.003h-29.312c-6.443 0-10.88 1.024-13.653 3.413-2.688 2.389-5.077 6.827-6.4 13.653l-52.821 219.648-52.48-219.307c-1.707-6.827-3.712-11.264-6.4-13.653-2.773-2.389-7.552-3.413-13.653-3.413zM861.397 434.048c-17.707 0-35.413 2.048-52.437 6.101-17.024 4.096-30.293 8.533-39.168 13.653-5.461 3.029-9.173 6.443-10.539 9.515-1.274 2.811-2.026 6.094-2.048 9.549v17.373c0 7.125 2.731 10.539 7.808 10.539 2.048 0 4.096-0.341 6.144-1.024s5.12-2.048 8.533-3.413c11.563-5.12 24.149-9.173 37.461-11.904 13.611-2.731 26.88-4.096 40.533-4.096 21.419 0 38.144 3.755 49.707 11.264 10.692 6.54 17.719 18.153 17.719 31.406 0 0.329-0.004 0.657-0.013 0.983l0.001-0.048c0.009 0.281 0.013 0.612 0.013 0.944 0 8.892-3.5 16.965-9.198 22.919l0.012-0.012c-6.144 6.443-17.749 12.245-34.432 17.707l-49.365 15.36c-24.875 7.808-43.264 19.371-54.485 34.688-10.567 13.499-16.976 30.696-17.067 49.387v0.021c0 14.293 3.115 26.88 9.216 37.803 6.144 10.88 14.293 20.437 24.533 27.904 10.24 7.851 21.76 13.653 35.413 17.707 13.653 4.096 27.947 5.803 42.923 5.803 7.467 0 15.317-0.341 22.827-1.365 7.808-1.024 14.933-2.389 22.101-3.755 6.827-1.707 13.312-3.413 19.413-5.419 6.144-2.048 10.923-4.096 14.336-6.144 4.103-2.094 7.526-4.972 10.188-8.462l0.052-0.072c1.918-2.853 3.061-6.366 3.061-10.146 0-0.378-0.011-0.754-0.034-1.126l0.002 0.051v-16c0-7.168-2.731-10.923-7.851-10.923-4.817 0.566-9.191 2.016-13.109 4.188l0.181-0.092c-18.528 8.395-40.174 13.288-62.964 13.288-0.844 0-1.687-0.007-2.528-0.020l0.127 0.002c-19.413 0-34.773-3.029-45.312-9.515-10.581-6.485-16-16.341-16-30.293 0-9.557 3.413-17.749 10.24-24.192 6.784-6.485 19.371-12.971 37.419-18.773l48.384-15.275c24.491-7.851 42.24-18.773 52.779-32.725s15.659-29.952 15.659-47.659c0-14.635-3.072-27.947-8.832-39.509-6.144-11.605-14.336-21.803-24.875-29.995-10.581-8.533-23.168-14.635-37.803-19.072-15.36-4.736-31.317-7.125-48.725-7.125zM925.781 268.501c-112.043-82.773-274.859-126.677-414.805-126.677-196.181 0-372.907 72.533-506.453 193.109-10.539 9.515-1.024 22.485 11.605 14.976 144.384-83.755 322.517-134.528 506.752-134.528 124.331 0 260.864 25.899 386.56 79.019 18.731 8.533 34.731-12.245 16.341-25.899zM972.459 321.664c-14.336 18.347-94.72 8.832-131.157 4.395-10.88-1.365-12.587 8.192-2.688 15.36 64 44.928 169.259 32 181.504 17.024 12.245-15.36-3.413-120.576-63.36-170.965-9.173-7.851-18.048-3.755-13.952 6.443 13.653 33.707 43.947 109.653 29.653 127.744z" />
</font>
</defs>
</svg>
