<?xml version="1.0" standalone="no"?>
<!DOCTYPE svg PUBLIC "-//W3C//DTD SVG 1.1//EN" "http://www.w3.org/Graphics/SVG/1.1/DTD/svg11.dtd" >
<svg xmlns="http://www.w3.org/2000/svg">
<metadata>Generated by IcoMoon</metadata>
<defs>
<font id="Bytedance-IconPack-ExtraBold" horiz-adv-x="1024">
<font-face units-per-em="1024" ascent="960" descent="-64" />
<missing-glyph horiz-adv-x="1024" />
<glyph unicode="&#x20;" horiz-adv-x="512" d="" />
<glyph unicode="&#xe900;" glyph-name="abdominal" d="M42.667 42.197c-0.896 82.176 6.528 154.112 22.059 213.888 9.685 37.163 33.408 74.411 60.928 117.547 42.667 66.944 91.051 142.805 91.051 228.736 0 92.501-25.899 165.035-79.232 221.739l62.165 58.453c67.925-72.277 102.4-166.571 102.4-280.192 0-110.805-57.899-201.6-104.405-274.603-22.613-35.499-44.032-68.992-50.304-93.184-13.653-52.395-20.181-116.821-19.328-191.445l-85.333-0.939zM963.328 42.197l-85.333 0.896c0.853 74.581-5.675 139.008-19.328 191.445-6.272 24.149-27.648 57.728-50.304 93.227-46.507 72.96-104.363 163.755-104.363 274.56 0 113.664 34.475 207.915 102.357 280.192l62.165-58.453c-53.291-56.661-79.189-129.195-79.189-221.696 0-85.931 48.341-161.792 91.008-228.693 27.52-43.179 51.243-80.427 60.928-117.589 15.573-59.776 22.997-131.755 22.059-213.888zM512.469 127.317c-121.344 0-256.597 46.72-402.048 138.795l45.611 72.064c131.584-83.285 251.52-125.525 356.437-125.525 104.235 0 217.344 41.899 336.128 124.544l48.768-70.101c-133.461-92.715-262.912-139.776-384.896-139.776zM512 298.667c29.44 0 53.333 23.893 53.333 53.333s-23.893 53.333-53.333 53.333-53.333-23.893-53.333-53.333 23.893-53.333 53.333-53.333z" />
<glyph unicode="&#xe901;" glyph-name="abnormal" d="M426.667-21.333h-213.333c-47.061 0-85.333 38.272-85.333 85.333v768c0 47.061 38.272 85.333 85.333 85.333h597.333c47.061 0 85.333-38.272 85.333-85.333v-221.824h-85.333v221.824h-597.333v-768h213.333v-85.333zM341.333 704h277.333v-85.333h-277.333v85.333zM341.333 554.667h106.667v-85.333h-106.667v85.333zM725.333-21.333c-141.184 0-256 114.816-256 256s114.816 256 256 256 256-114.816 256-256-114.816-256-256-256zM725.333 405.333c-94.123 0-170.667-76.544-170.667-170.667s76.544-170.667 170.667-170.667 170.667 76.544 170.667 170.667-76.544 170.667-170.667 170.667zM682.667 192h85.333v-64h-85.333v64zM768 320c0-23.564-19.103-42.667-42.667-42.667s-42.667 19.103-42.667 42.667c0 23.564 19.103 42.667 42.667 42.667s42.667-19.103 42.667-42.667z" />
<glyph unicode="&#xe902;" glyph-name="a-cane" d="M454.912-15.104l-75.349 40.064 300.459 565.12c18.731 35.328 70.485 155.776-51.755 220.8-114.688 61.013-182.059-24.32-211.968-80.555l-75.307 40.021c58.112 109.312 174.592 197.12 327.381 115.84 163.413-86.912 131.584-252.203 87.040-336.171l-300.501-565.12z" />
<glyph unicode="&#xe903;" glyph-name="acceleration" d="M725.333 256h170.667v-85.333h-170.667v85.333zM576 106.667h85.333v-85.333h-85.333v85.333zM938.667 341.333h-682.667c-52.352 0-122.368 79.189-208.085 235.477l-34.645 63.189h172.843l128-106.667h512l139.861-116.523-27.307-75.477zM261.461 425.856v0 0zM259.755 426.667h561.067l-25.6 21.333h-512l-118.443 98.688c38.827-61.269 77.227-110.592 94.976-120.021zM615.424 455.808l-205.909 145.237 35.797-95.403-79.957-29.952-85.589 228.309h131.84l252.971-178.475zM383.829 85.333h-145.621l111.275 312.96 80.427-28.587-66.261-186.283 247.168 231.68 58.368-62.208zM832 640h-213.333l-13.525 83.115c12.16 4.096 26.453 10.581 34.731 15.531 0.043 25.515 3.413 68.096 45.099 88.875 16.427 8.235 34.645 10.368 51.285 9.813 14.507 31.104 44.544 58.667 96.213 58.667 41.003 0 78.251-19.797 102.187-54.357 25.728-37.12 32.299-85.12 17.152-125.227-22.699-60.331-85.973-76.416-119.808-76.416zM725.333 725.333h106.667c-0.128 0 32.341 0.939 39.936 21.12 5.163 13.653 2.091 32.811-7.467 46.592-8.107 11.691-18.859 17.621-32 17.621-7.339 0-20.949 0-21.803-22.059l-2.091-55.509-53.12 15.488c-9.643 2.816-22.656 4.139-29.568 3.285-0.811-5.205-0.683-14.165-0.64-19.456l0.085-7.083z" />
<glyph unicode="&#xe904;" glyph-name="accept-email" d="M512 85.333h-469.333v725.333h938.667v-362.667h-85.333v277.333h-768v-554.667h384zM640 277.333h298.667v-85.333h-298.667v85.333zM716.501 97.835l-136.832 136.832 136.832 136.832 60.331-60.331-76.501-76.501 76.501-76.501zM512 394.667l-452.267 339.2 51.2 68.267 401.067-300.8 401.067 300.8 51.2-68.267z" />
<glyph unicode="&#xe905;" glyph-name="acoustic" d="M469.333 874.667h85.333v-853.333h-85.333v853.333zM682.667 704h85.333v-512h-85.333v512zM42.667 576h85.333v-256h-85.333v256zM896 576h85.333v-256h-85.333v256zM256 704h85.333v-512h-85.333v512z" />
<glyph unicode="&#xe906;" glyph-name="activity-source" d="M938.667 640h-853.333v256h853.333v-256zM170.667 725.333h682.667v85.333h-682.667v-85.333zM938.667 320h-853.333v256h853.333v-256zM170.667 405.333h682.667v85.333h-682.667v-85.333zM938.667 0h-853.333v256h853.333v-256zM170.667 85.333h682.667v85.333h-682.667v-85.333z" />
<glyph unicode="&#xe907;" glyph-name="ad" d="M512-21.333c-258.773 0-469.333 210.56-469.333 469.333s210.56 469.333 469.333 469.333 469.333-210.56 469.333-469.333-210.56-469.333-469.333-469.333zM512 832c-211.712 0-384-172.288-384-384 0-211.755 172.288-384 384-384 211.755 0 384 172.245 384 384 0 211.712-172.245 384-384 384zM716.476 183.174l60.339 60.339 63.99-63.99-60.339-60.339-63.99 63.99zM183.152 716.507l60.339 60.339 63.99-63.99-60.339-60.339-63.99 63.99zM428.331 286.976l-9.472 33.024h-69.717l-9.472-33.024-82.048 23.424 85.333 298.667h82.048l85.333-298.667-82.005-23.424zM373.504 405.333h20.949l-10.453 36.651-10.496-36.651zM576 256h-42.667v384h42.667c131.584 0 213.333-73.557 213.333-192 0-118.4-81.749-192-213.333-192zM618.667 551.040v-206.037c56.661 10.752 85.333 45.269 85.333 102.997s-28.672 92.288-85.333 103.040z" />
<glyph unicode="&#xe908;" glyph-name="add" d="M832 21.333h-640c-58.795 0-106.667 47.829-106.667 106.667v640c0 58.795 47.872 106.667 106.667 106.667h640c58.837 0 106.667-47.872 106.667-106.667v-640c0-58.837-47.829-106.667-106.667-106.667zM192 789.333c-11.776 0-21.333-9.557-21.333-21.333v-640c0-11.733 9.557-21.333 21.333-21.333h640c11.733 0 21.333 9.6 21.333 21.333v640c0 11.776-9.6 21.333-21.333 21.333h-640zM469.333 618.667h85.333v-341.333h-85.333v341.333zM341.333 490.667h341.333v-85.333h-341.333v85.333z" />
<glyph unicode="&#xe909;" glyph-name="add-computer" d="M832 192h-640c-58.795 0-106.667 47.829-106.667 106.667v469.333c0 58.795 47.872 106.667 106.667 106.667h341.333v-85.333h-341.333c-11.776 0-21.333-9.557-21.333-21.333v-469.333c0-11.733 9.557-21.333 21.333-21.333h640c11.733 0 21.333 9.6 21.333 21.333v170.667h85.333v-170.667c0-58.837-47.829-106.667-106.667-106.667zM469.333 234.667h85.333v-170.667h-85.333v170.667zM640 746.667h256v-85.333h-256v85.333zM725.333 832h85.333v-256h-85.333v256zM298.667 106.667h426.667v-85.333h-426.667v85.333z" />
<glyph unicode="&#xe90a;" glyph-name="add-four" d="M170.667 618.667h-85.333v170.667c0 47.061 38.272 85.333 85.333 85.333h170.667v-85.333h-170.667v-170.667zM341.333 21.333h-170.667c-47.061 0-85.333 38.272-85.333 85.333v170.667h85.333v-170.667h170.667v-85.333zM853.333 21.333h-170.667v85.333h170.667v170.667h85.333v-170.667c0-47.061-38.272-85.333-85.333-85.333zM938.667 618.667h-85.333v170.667h-170.667v85.333h170.667c47.061 0 85.333-38.272 85.333-85.333v-170.667zM341.333 490.667h341.333v-85.333h-341.333v85.333zM469.333 618.667h85.333v-341.333h-85.333v341.333z" />
<glyph unicode="&#xe90b;" glyph-name="add-item" d="M469.333 448h85.333v-128h-85.333v128zM938.667 21.333h-853.333v341.333h853.333v-341.333zM170.667 106.667h682.667v170.667h-682.667v-170.667zM85.333 714.667h85.333v-21.333h-85.333v21.333zM85.333 597.333h85.333v-21.333h-85.333v21.333zM85.333 832h85.333v-21.333h-85.333v21.333zM853.333 714.667h85.333v-21.333h-85.333v21.333zM853.333 597.333h85.333v-21.333h-85.333v21.333zM853.333 832h85.333v-21.333h-85.333v21.333zM874.667 618.667h21.333v-85.333h-21.333v85.333zM128 618.667h21.333v-85.333h-21.333v85.333zM128 874.667h21.333v-85.333h-21.333v85.333zM277.333 874.667h21.333v-85.333h-21.333v85.333zM426.667 874.667h21.333v-85.333h-21.333v85.333zM426.667 618.667h21.333v-85.333h-21.333v85.333zM576 874.667h21.333v-85.333h-21.333v85.333zM277.333 618.667h21.333v-85.333h-21.333v85.333zM576 618.667h21.333v-85.333h-21.333v85.333zM725.333 874.667h21.333v-85.333h-21.333v85.333zM725.333 618.667h21.333v-85.333h-21.333v85.333zM874.667 874.667h21.333v-85.333h-21.333v85.333z" />
<glyph unicode="&#xe90c;" glyph-name="add-mode" d="M512.128-38.997l-130.261 130.091h-226.773v226.731l-130.091 130.261 130.091 130.091v226.731h226.731l130.304 130.091 130.048-130.091h226.731v-226.731l130.091-130.091-130.091-130.261v-226.731h-226.731l-130.048-130.091zM240.427 176.427h176.725l94.891-94.763 94.805 94.763h176.768v176.768l94.763 94.891-94.763 94.805v176.683h-176.768l-94.805 94.763-94.891-94.763h-176.725v-176.725l-94.763-94.805 94.763-94.891v-176.725zM362.667 490.709h298.667v-85.333h-298.667v85.333zM469.419 597.333h85.333v-298.667h-85.333v298.667z" />
<glyph unicode="&#xe90d;" glyph-name="add-music" d="M512-21.333c-258.773 0-469.333 210.56-469.333 469.333s210.56 469.333 469.333 469.333 469.333-210.56 469.333-469.333h-85.333c0 211.712-172.245 384-384 384-211.712 0-384-172.288-384-384 0-211.755 172.288-384 384-384v-85.333zM384 226.347v443.349l384-221.696-384-221.653zM469.333 521.899v-147.797l128 73.899-128 73.899zM747.733 277.333h85.333v-213.333h-85.333v213.333zM682.667 214.4h213.333v-85.333h-213.333v85.333z" />
<glyph unicode="&#xe90e;" glyph-name="add-one" d="M512-21.333c-258.773 0-469.333 210.56-469.333 469.333s210.56 469.333 469.333 469.333 469.333-210.56 469.333-469.333-210.56-469.333-469.333-469.333zM512 832c-211.712 0-384-172.288-384-384 0-211.755 172.288-384 384-384 211.755 0 384 172.245 384 384 0 211.712-172.245 384-384 384zM469.333 618.667h85.333v-341.333h-85.333v341.333zM341.333 490.667h341.333v-85.333h-341.333v85.333z" />
<glyph unicode="&#xe90f;" glyph-name="add-pic" d="M768 21.333h-597.333c-47.061 0-85.333 38.272-85.333 85.333v597.333c0 47.061 38.272 85.333 85.333 85.333h391.765v-85.333h-391.765v-597.333h597.333v405.333h85.333v-405.333c0-47.061-38.272-85.333-85.333-85.333zM765.397 255.317h-594.517l208.427 279.040 61.269-61.227 80.085 125.909 244.736-343.723zM457.472 340.651h142.464l-75.264 105.685-67.2-105.685zM341.163 340.651h111.189l-63.659 63.659-47.531-63.659zM725.333 789.333h170.667v-85.333h-170.667v85.333zM767.872 836.395h85.333v-170.667h-85.333v170.667z" />
<glyph unicode="&#xe910;" glyph-name="add-picture" d="M938.667 448c0 23.552-19.115 42.667-42.667 42.667s-42.667-19.115-42.667-42.667h85.333zM512 789.333c23.552 0 42.667 19.115 42.667 42.667s-19.115 42.667-42.667 42.667v-85.333zM832 106.667h-640v-85.333h640v85.333zM170.667 128v640h-85.333v-640h85.333zM853.333 448v-320h85.333v320h-85.333zM192 789.333h320v85.333h-320v-85.333zM192 106.667c-11.776 0-21.333 9.557-21.333 21.333h-85.333c0-58.923 47.744-106.667 106.667-106.667v85.333zM832 21.333c58.923 0 106.667 47.744 106.667 106.667h-85.333c0-11.776-9.557-21.333-21.333-21.333v-85.333zM170.667 768c0 11.776 9.557 21.333 21.333 21.333v85.333c-58.923 0-106.667-47.744-106.667-106.667h85.333zM654.933 159.573l-269.995 231.381-228.096-209.067-57.685 62.933 228.139 209.109c31.787 29.099 80.469 29.867 113.195 1.835l269.952-231.381-55.509-64.811zM870.4 264.533l-141.056 105.771-101.888-101.845-60.331 60.331 101.845 101.845c29.867 29.867 77.824 33.237 111.531 7.936l141.099-105.771-51.2-68.267zM640 746.667h256v-85.333h-256v85.333zM725.333 832h85.333v-256h-85.333v256z" />
<glyph unicode="&#xe911;" glyph-name="add-print" d="M938.667 512h-170.667v85.333h85.333v192h-682.667v-192h85.333v-85.333h-170.667v362.667h853.333zM512-31.744l-128 94.848-102.613-76.032-68.053 34.261v725.333h597.333v-725.333l-68.096-34.304-102.571 76.075-128-94.848zM384 169.259l128-94.848 128 94.848 85.333-63.189v555.264h-426.667v-555.307l85.333 63.232zM426.667 448h170.667v-85.333h-170.667v85.333zM469.333 490.667h85.333v-170.667h-85.333v170.667z" />
<glyph unicode="&#xe912;" glyph-name="address-book" d="M896-21.333h-768v213.333h85.333v-128h597.333v768h-597.333v-128h-85.333v213.333h768zM128 362.667h85.333v-85.333h-85.333v85.333zM128 490.667h85.333v-85.333h-85.333v85.333zM128 618.667h85.333v-85.333h-85.333v85.333zM512 469.333c-70.571 0-128 57.429-128 128s57.429 128 128 128 128-57.429 128-128-57.429-128-128-128zM512 640c-23.509 0-42.667-19.157-42.667-42.667s19.157-42.667 42.667-42.667c23.552 0 42.667 19.157 42.667 42.667s-19.115 42.667-42.667 42.667zM725.333 213.333h-85.333c0 70.571-57.429 128-128 128s-128-57.429-128-128h-85.333c0 117.632 95.701 213.333 213.333 213.333s213.333-95.701 213.333-213.333z" />
<glyph unicode="&#xe913;" glyph-name="add-subset" d="M384 170.667h-213.333v192h85.333v-106.667h128zM938.667 21.333h-597.333v384h597.333v-384zM426.667 106.667h426.667v213.333h-426.667v-213.333zM85.333 693.333h85.333v-21.333h-85.333v21.333zM85.333 554.667h85.333v-21.333h-85.333v21.333zM85.333 832h85.333v-21.333h-85.333v21.333zM640 693.333h85.333v-21.333h-85.333v21.333zM640 554.667h85.333v-21.333h-85.333v21.333zM640 832h85.333v-21.333h-85.333v21.333zM661.333 576h21.333v-85.333h-21.333v85.333zM128 576h21.333v-85.333h-21.333v85.333zM128 874.667h21.333v-85.333h-21.333v85.333zM256 874.667h21.333v-85.333h-21.333v85.333zM394.667 874.667h21.333v-85.333h-21.333v85.333zM394.667 576h21.333v-85.333h-21.333v85.333zM533.333 874.667h21.333v-85.333h-21.333v85.333zM256 576h21.333v-85.333h-21.333v85.333zM533.333 576h21.333v-85.333h-21.333v85.333zM661.333 874.667h21.333v-85.333h-21.333v85.333z" />
<glyph unicode="&#xe914;" glyph-name="add-subtract" d="M832 21.333h-640c-58.795 0-106.667 47.829-106.667 106.667v640c0 58.795 47.872 106.667 106.667 106.667h640c58.837 0 106.667-47.872 106.667-106.667v-640c0-58.837-47.829-106.667-106.667-106.667zM192 789.333c-11.776 0-21.333-9.557-21.333-21.333v-640c0-11.733 9.557-21.333 21.333-21.333h640c11.733 0 21.333 9.6 21.333 21.333v640c0 11.776-9.6 21.333-21.333 21.333h-640zM576 341.333h170.667v-85.333h-170.667v85.333zM320 682.667h85.333v-170.667h-85.333v170.667zM277.333 640h170.667v-85.333h-170.667v85.333zM268.493 264.84l426.658 426.658 60.339-60.339-426.658-426.658-60.339 60.339z" />
<glyph unicode="&#xe915;" glyph-name="add-text" d="M85.333 832h597.333v-85.333h-597.333v85.333zM597.333 554.667h341.333v-85.333h-341.333v85.333zM341.333 789.333h85.333v-725.333h-85.333v725.333zM725.333 512h85.333v-448h-85.333v448z" />
<glyph unicode="&#xe916;" glyph-name="add-text-two" d="M512-21.333c-258.773 0-469.333 210.56-469.333 469.333s210.56 469.333 469.333 469.333 469.333-210.56 469.333-469.333-210.56-469.333-469.333-469.333zM512 832c-211.712 0-384-172.288-384-384 0-211.755 172.288-384 384-384 211.755 0 384 172.245 384 384 0 211.712-172.245 384-384 384zM341.333 661.333h341.333v-85.333h-341.333v85.333zM469.333 618.667h85.333v-384h-85.333v384z" />
<glyph unicode="&#xe917;" glyph-name="add-three" d="M469.333 618.667h85.333v-341.333h-85.333v341.333zM853.333 512h85.333v-128h-85.333v128zM85.333 512h85.333v-128h-85.333v128zM170.667 661.333h-85.333v128c0 47.061 38.272 85.333 85.333 85.333h128v-85.333h-128v-128zM938.667 661.333h-85.333v128h-128v85.333h128c47.061 0 85.333-38.272 85.333-85.333v-128zM853.333 21.333h-128v85.333h128v128h85.333v-128c0-47.061-38.272-85.333-85.333-85.333zM298.667 21.333h-128c-47.061 0-85.333 38.272-85.333 85.333v128h85.333v-128h128v-85.333zM448 874.667h128v-85.333h-128v85.333zM341.333 490.667h341.333v-85.333h-341.333v85.333zM448 106.667h128v-85.333h-128v85.333z" />
<glyph unicode="&#xe918;" glyph-name="add-two" d="M512 0c-247.040 0-448 200.96-448 448s200.96 448 448 448c73.984 0 147.413-18.475 212.267-53.376l-40.491-75.136c-52.437 28.245-111.829 43.179-171.776 43.179-199.979 0-362.667-162.688-362.667-362.667s162.688-362.667 362.667-362.667c53.376 0 104.704 11.307 152.661 33.621l36.011-77.397c-59.307-27.563-122.795-41.557-188.672-41.557zM661.333 362.667h256v-85.333h-256v85.333zM468.523 281.771l-178.688 178.731 60.331 60.331 119.979-119.936 375.168 355.413 58.709-61.952zM746.667 448h85.333v-256h-85.333v256z" />
<glyph unicode="&#xe919;" glyph-name="add-user" d="M512 490.667c-117.632 0-213.333 95.701-213.333 213.333s95.701 213.333 213.333 213.333 213.333-95.701 213.333-213.333-95.701-213.333-213.333-213.333zM512 832c-70.571 0-128-57.429-128-128s57.429-128 128-128 128 57.429 128 128-57.429 128-128 128zM938.667 21.333h-85.333c0 188.203-153.131 341.333-341.333 341.333s-341.333-153.131-341.333-341.333h-85.333c0 235.264 191.403 426.667 426.667 426.667s426.667-191.403 426.667-426.667zM405.333 170.667h213.333v-85.333h-213.333v85.333zM469.333 234.667h85.333v-213.333h-85.333v213.333z" />
<glyph unicode="&#xe91a;" glyph-name="add-web" d="M533.333 64h-384c-58.795 0-106.667 47.829-106.667 106.667v554.667c0 58.795 47.872 106.667 106.667 106.667h725.333c58.837 0 106.667-47.872 106.667-106.667v-297.429h-85.333v297.429c0 11.776-9.6 21.333-21.333 21.333h-725.333c-11.776 0-21.333-9.557-21.333-21.333v-554.667c0-11.733 9.557-21.333 21.333-21.333h384v-85.333zM981.333 490.667h-938.667v234.667c0 58.795 47.872 106.667 106.667 106.667h725.333c58.837 0 106.667-47.872 106.667-106.667v-234.667zM128 576h768v149.333c0 11.776-9.6 21.333-21.333 21.333h-725.333c-11.776 0-21.333-9.557-21.333-21.333v-149.333zM682.667 256h256v-85.333h-256v85.333zM768 341.333h85.333v-256h-85.333v256zM256 661.333c0-23.564-19.103-42.667-42.667-42.667s-42.667 19.103-42.667 42.667c0 23.564 19.103 42.667 42.667 42.667s42.667-19.103 42.667-42.667zM384 661.333c0-23.564-19.103-42.667-42.667-42.667s-42.667 19.103-42.667 42.667c0 23.564 19.103 42.667 42.667 42.667s42.667-19.103 42.667-42.667z" />
<glyph unicode="&#xe91b;" glyph-name="adjacent-item" d="M938.667 42.667h-682.667v128h-170.667v554.667h170.667v128h682.667v-341.333h-682.667v128h-85.333v-384h85.333v128h682.667v-341.333zM341.333 128h512v170.667h-512v-170.667zM341.333 597.333h512v170.667h-512v-170.667zM298.667 170.667h-213.333v554.667h213.333v-85.333h-128v-384h128zM938.667 42.667h-682.667v341.333h682.667v-341.333zM341.333 128h512v170.667h-512v-170.667zM938.667 512h-682.667v341.333h682.667v-341.333zM341.333 597.333h512v170.667h-512v-170.667z" />
<glyph unicode="&#xe91c;" glyph-name="adjustment" d="M853.333 0h-682.667c-58.795 0-106.667 47.829-106.667 106.667v682.667c0 58.795 47.872 106.667 106.667 106.667h682.667c58.837 0 106.667-47.872 106.667-106.667v-682.667c0-58.837-47.829-106.667-106.667-106.667zM170.667 810.667c-11.776 0-21.333-9.557-21.333-21.333v-682.667c0-11.733 9.557-21.333 21.333-21.333h682.667c11.733 0 21.333 9.6 21.333 21.333v682.667c0 11.776-9.6 21.333-21.333 21.333h-682.667zM225.833 222.181l512.008 512.008 60.339-60.339-512.008-512.008-60.339 60.339zM256 661.333h170.667v-85.333h-170.667v85.333zM576 298.667h170.667v-85.333h-170.667v85.333zM298.667 704h85.333v-170.667h-85.333v170.667z" />
<glyph unicode="&#xe91d;" glyph-name="adobe-illustrate" d="M832 21.333h-640c-58.795 0-106.667 47.829-106.667 106.667v640c0 58.795 47.872 106.667 106.667 106.667h640c58.837 0 106.667-47.872 106.667-106.667v-640c0-58.837-47.829-106.667-106.667-106.667zM192 789.333c-11.776 0-21.333-9.557-21.333-21.333v-640c0-11.733 9.557-21.333 21.333-21.333h640c11.733 0 21.333 9.6 21.333 21.333v640c0 11.776-9.6 21.333-21.333 21.333h-640zM258.155 269.508l128.072 383.973 80.947-26.999-128.072-383.973-80.947 26.999zM640 426.667h85.333v-170.667h-85.333v170.667zM640 554.667h85.333v-21.333h-85.333v21.333zM386.208 626.489l80.956 26.991 128.031-384.014-80.956-26.991-128.031 384.014zM341.333 426.667h170.667v-85.333h-170.667v85.333z" />
<glyph unicode="&#xe91e;" glyph-name="adobe-indesign" d="M832 21.333h-640c-58.795 0-106.667 47.829-106.667 106.667v640c0 58.795 47.872 106.667 106.667 106.667h640c58.837 0 106.667-47.872 106.667-106.667v-640c0-58.837-47.829-106.667-106.667-106.667zM192 789.333c-11.776 0-21.333-9.557-21.333-21.333v-640c0-11.733 9.557-21.333 21.333-21.333h640c11.733 0 21.333 9.6 21.333 21.333v640c0 11.776-9.6 21.333-21.333 21.333h-640zM298.667 640h85.333v-384h-85.333v384zM640 597.333h85.333v-341.333h-85.333v341.333zM725.333 213.333h-128c-75.392 0-128 52.608-128 128s52.608 128 128 128h128v-256zM597.333 384c-28.715 0-42.667-13.952-42.667-42.667s13.952-42.667 42.667-42.667h42.667v85.333h-42.667z" />
<glyph unicode="&#xe91f;" glyph-name="adobe-lightroom" d="M832 21.333h-640c-58.795 0-106.667 47.829-106.667 106.667v640c0 58.795 47.872 106.667 106.667 106.667h640c58.837 0 106.667-47.872 106.667-106.667v-640c0-58.837-47.829-106.667-106.667-106.667zM192 789.333c-11.776 0-21.333-9.557-21.333-21.333v-640c0-11.733 9.557-21.333 21.333-21.333h640c11.733 0 21.333 9.6 21.333 21.333v640c0 11.776-9.6 21.333-21.333 21.333h-640zM469.333 213.333h-213.333v426.667h85.333v-341.333h128zM554.667 512h85.333v-256h-85.333v256zM634.496 384.427l-74.325 41.813c60.203 107.093 131.072 107.093 165.163 107.093v-85.333c-24.533 0-55.040 0-90.837-63.573z" />
<glyph unicode="&#xe920;" glyph-name="adobe-photoshop" d="M832 21.333h-640c-58.795 0-106.667 47.829-106.667 106.667v640c0 58.795 47.872 106.667 106.667 106.667h640c58.837 0 106.667-47.872 106.667-106.667v-640c0-58.837-47.829-106.667-106.667-106.667zM192 789.333c-11.776 0-21.333-9.557-21.333-21.333v-640c0-11.733 9.557-21.333 21.333-21.333h640c11.733 0 21.333 9.6 21.333 21.333v640c0 11.776-9.6 21.333-21.333 21.333h-640zM256 640h85.333v-384h-85.333v384zM341.333 384h-85.333v298.667h85.333c120.235 0 192-55.851 192-149.333s-71.765-149.333-192-149.333zM341.333 597.333v-128c106.667 0 106.667 46.507 106.667 64s0 64-106.667 64zM614.997 213.205c-9.856 0-17.408 0.512-21.205 0.853l7.083 84.992c24.363-1.92 65.792 2.005 79.104 14.336 1.707 1.536 2.688 2.731 2.688 6.869 0 6.4-5.717 11.093-37.717 24.32-33.749 14.037-90.283 37.504-90.283 103.168 0 28.117 9.984 52.651 28.885 70.955 39.979 38.699 106.923 36.608 135.723 35.627l6.059-0.171v-85.333l-8.875 0.213c-49.237 1.451-67.157-5.461-73.6-11.648-0.981-0.981-2.859-2.816-2.859-9.643 0-6.4 5.717-11.093 37.717-24.32 33.749-14.037 90.283-37.504 90.283-103.168 0-27.392-10.453-51.499-30.208-69.675-35.072-32.299-91.093-37.376-122.795-37.376z" />
<glyph unicode="&#xe921;" glyph-name="ad-product" d="M512-26.368l-469.333 234.667v479.403l469.333 234.667 469.333-234.667v-479.403l-469.333-234.667zM128 261.035l384-192 384 192v373.931l-384 192-384-192v-373.931zM66.249 623.162l38.161 76.322 426.641-213.32-38.161-76.322-426.641 213.32zM469.333 448h85.333v-426.667h-85.333v426.667zM492.907 486.168l426.641 213.32 38.161-76.322-426.641-213.32-38.161 76.322zM279.582 592.834l426.641 213.32 38.161-76.322-426.641-213.32-38.161 76.322z" />
<glyph unicode="&#xe922;" glyph-name="afferent" d="M832 21.333h-640c-58.795 0-106.667 47.829-106.667 106.667v640c0 58.795 47.872 106.667 106.667 106.667h640c58.837 0 106.667-47.872 106.667-106.667v-104.021h-85.333v104.021c0 11.776-9.6 21.333-21.333 21.333h-640c-11.776 0-21.333-9.557-21.333-21.333v-640c0-11.733 9.557-21.333 21.333-21.333h640c11.733 0 21.333 9.6 21.333 21.333v91.989h85.333v-91.989c0-58.837-47.829-106.667-106.667-106.667zM512 490.667h384v-85.333h-384v85.333zM609.835 289.835l-158.165 158.165 158.165 158.165 60.331-60.331-97.835-97.835 97.835-97.835z" />
<glyph unicode="&#xe923;" glyph-name="afferent-four" d="M810.667 0h-597.333c-47.061 0-85.333 38.272-85.333 85.333v725.333c0 47.061 38.272 85.333 85.333 85.333h234.667v-85.333h-234.667v-725.333h597.333v346.667h85.333v-346.667c0-47.061-38.272-85.333-85.333-85.333zM704 405.333h-298.667v298.667h85.333v-213.333h213.333zM417.825 478.168l383.999 383.999 60.339-60.339-383.999-383.999-60.339 60.339z" />
<glyph unicode="&#xe924;" glyph-name="afferent-three" d="M832 21.333h-640c-58.795 0-106.667 47.829-106.667 106.667v640c0 58.795 47.872 106.667 106.667 106.667h213.333v-85.333h-213.333c-11.776 0-21.333-9.557-21.333-21.333v-640c0-11.733 9.557-21.333 21.333-21.333h640c11.733 0 21.333 9.6 21.333 21.333v213.333h85.333v-213.333c0-58.837-47.829-106.667-106.667-106.667zM442.368 287.36l-98.859 296.491 80.981 26.965 71.808-215.509 215.552 71.851 26.965-80.939zM509.824 327.851l-80.939 27.008c106.24 318.635 174.933 401.963 408.661 495.445l31.659-79.232c-197.973-79.189-254.848-129.536-359.381-443.221z" />
<glyph unicode="&#xe925;" glyph-name="afferent-two" d="M464 21.333h-272c-58.795 0-106.667 47.829-106.667 106.667v640c0 58.795 47.872 106.667 106.667 106.667h640c58.837 0 106.667-47.872 106.667-106.667v-368h-85.333v368c0 11.776-9.6 21.333-21.333 21.333h-640c-11.776 0-21.333-9.557-21.333-21.333v-640c0-11.733 9.557-21.333 21.333-21.333h272v-85.333zM512 277.333h384v-85.333h-384v85.333zM609.835 76.501l-158.165 158.165 158.165 158.165 60.331-60.331-97.835-97.835 97.835-97.835z" />
<glyph unicode="&#xe926;" glyph-name="afro-pick" d="M568.661-38.357l-543.019 543.061 392.192 392.192 60.331-60.331-331.861-331.861 422.357-422.4 331.861 331.861 60.373-60.331zM176.471 414.195l362.035 362.035 60.339-60.339-362.035-362.035-60.339 60.339zM297.156 293.482l362.035 362.035 60.339-60.339-362.035-362.035-60.339 60.339zM417.842 172.834l362.035 362.035 60.339-60.339-362.035-362.035-60.339 60.339zM342.4 6.869l-68.352 68.352-101.163 33.707-33.749 101.205-68.309 68.309 150.827 150.827 271.531-271.488-150.784-150.912zM240.384 176.427l79.829-26.624 22.229-22.229 30.165 30.208-150.869 150.827-30.165-30.208 22.229-22.229 26.581-79.744z" />
<glyph unicode="&#xe927;" glyph-name="agreement" d="M810.667-21.333h-597.333c-47.061 0-85.333 38.272-85.333 85.333v768c0 47.061 38.272 85.333 85.333 85.333h597.333c47.061 0 85.333-38.272 85.333-85.333v-768c0-47.061-38.272-85.333-85.333-85.333zM213.333 832h-0.043l0.043-768h597.333v768h-597.333zM504.96 501.419l-67.627 60.16-67.627-60.16-71.040 31.915v384h277.333v-384l-71.040-31.915zM437.333 675.755l53.333-47.403v203.648h-106.667v-203.648l53.333 47.403zM341.333 405.333h213.333v-85.333h-213.333v85.333zM341.333 277.333h341.333v-85.333h-341.333v85.333z" />
<glyph unicode="&#xe928;" glyph-name="aiming" d="M512-21.333c-258.773 0-469.333 210.56-469.333 469.333s210.56 469.333 469.333 469.333 469.333-210.56 469.333-469.333-210.56-469.333-469.333-469.333zM512 832c-211.712 0-384-172.288-384-384 0-211.755 172.288-384 384-384 211.755 0 384 172.245 384 384 0 211.712-172.245 384-384 384zM469.333 170.667h85.333v-149.333h-85.333v149.333zM768 490.667h170.667v-85.333h-170.667v85.333zM85.333 490.667h149.333v-85.333h-149.333v85.333zM469.333 874.667h85.333v-149.333h-85.333v149.333z" />
<glyph unicode="&#xe929;" glyph-name="air-bike" d="M85.333 64h853.333v-85.333h-853.333v85.333zM917.333 21.333h-85.333v155.307c0 97.877-92.075 100.693-102.571 100.693h-132.096v85.333h132.096c75.563 0 187.904-49.536 187.904-186.027v-155.307zM785.493 302.336l-77.653 35.328 98.56 216.875-119.808 259.584 77.483 35.755 136.192-295.083zM602.798 829.015l213.355 85.264 31.667-79.241-213.355-85.264-31.667 79.241zM426.667 106.667c-117.632 0-213.333 95.701-213.333 213.333s95.701 213.333 213.333 213.333 213.333-95.701 213.333-213.333-95.701-213.333-213.333-213.333zM426.667 448c-70.571 0-128-57.429-128-128s57.429-128 128-128 128 57.429 128 128-57.429 128-128 128zM426.667 362.667h170.667v-85.333h-170.667v85.333zM265.005 656.434l67.362 52.386 149.327-192.016-67.362-52.386-149.327 192.016zM213.333 725.333h170.667v-85.333h-170.667v85.333zM426.667 106.667v85.333c70.571 0 128 57.429 128 128s-57.429 128-128 128v85.333c117.632 0 213.333-95.701 213.333-213.333s-95.701-213.333-213.333-213.333z" />
<glyph unicode="&#xe92a;" glyph-name="air-conditioning" d="M896 320h-768c-47.061 0-85.333 38.272-85.333 85.333v341.333c0 47.061 38.272 85.333 85.333 85.333h768c47.061 0 85.333-38.272 85.333-85.333v-341.333c0-47.061-38.272-85.333-85.333-85.333zM128 746.667h-0.043l0.043-341.333h768v341.333h-768zM810.667 320h-597.333v256h597.333v-256zM298.667 405.333h426.667v85.333h-426.667v-85.333zM682.667 704h85.333v-85.333h-85.333v85.333zM469.333 234.667h85.333v-128h-85.333v128zM298.667 192h85.333v-42.667h-85.333v42.667zM640 192h85.333v-42.667h-85.333v42.667z" />
<glyph unicode="&#xe92b;" glyph-name="airplane" d="M667.648-18.645l-155.648 58.411-155.691-58.368-51.157 62.549 100.181 160.299v110.72l-341.333-170.667v174.379l330.667 275.584v140.928c0 106.837 63.147 162.56 100.437 178.645l16.896 7.296 16.896-7.253c37.291-16.085 100.437-71.851 100.437-178.645v-140.928l330.667-275.584v-174.379l-341.333 170.667v-110.72l100.181-160.299-51.2-62.635zM512 130.901l67.755-25.429-46.421 74.24v273.28l330.283-165.163-319.616 266.496v180.907c0 46.805-17.877 73.685-32 87.595-14.165-13.909-32-40.789-32-87.595v-180.907l-319.616-266.453 330.283 165.163v-273.28l-46.421-74.24 67.755 25.387z" />
<glyph unicode="&#xe92c;" glyph-name="airplane-window" d="M512-21.333c-188.203 0-341.333 153.131-341.333 341.333v256c0 188.203 153.131 341.333 341.333 341.333s341.333-153.131 341.333-341.333v-256c0-188.203-153.131-341.333-341.333-341.333zM512 832c-141.184 0-256-114.816-256-256v-256c0-141.184 114.816-256 256-256s256 114.816 256 256v256c0 141.184-114.816 256-256 256zM213.333 640h597.333v-85.333h-597.333v85.333zM469.333 768h85.333v-85.333h-85.333v85.333zM298.667 64v85.333c31.232 0 32 2.475 32 34.773l65.963 35.755c17.579-11.52 42.88-8.661 58.837-0.085 8.32 4.523 13.867 10.453 13.867 14.891 0 21.717 0 34.773-85.333 34.773h-59.52l19.072 56.363c0.213 1.109 2.688 14.251-11.093 27.989-11.307 9.813-67.072 14.379-114.517 9.088l-9.387 84.821c31.829 3.499 139.093 11.563 184.192-33.579 19.541-19.541 29.44-41.003 33.621-60.715 56.235-4.608 128.299-25.472 128.299-118.741 0-36.437-21.888-70.059-58.539-89.899-27.179-14.763-58.709-20.267-88.789-16.64-15.488-42.624-51.84-64.128-108.672-64.128zM769.621 221.909c-11.648 0-23.211 1.835-34.176 5.632-16.811 5.76-37.76 17.792-54.485 42.709-30.379-3.712-59.691 2.304-82.688 17.877-27.733 18.731-43.605 49.835-43.605 85.205 0 39.979 19.925 74.496 53.333 92.373 11.264 6.059 23.296 9.771 35.371 11.221 5.76 18.091 16.981 35.968 36.949 49.28 50.133 33.28 128.64-6.741 151.509-19.797l-42.283-74.112c-22.997 13.056-55.125 23.808-64.683 21.547-2.987-2.517-0.853-16.64-0.853-16.811l-65.024-45.824c-2.048 1.323-6.485 1.493-10.752-0.725-5.461-2.987-8.235-8.747-8.235-17.152 0-10.411 4.267-13.312 6.101-14.549 7.424-4.992 23.211-6.699 42.069 0.853l41.984 16.811 14.293-42.923c3.243-9.728 9.131-21.973 18.688-25.259 6.741-2.304 16.128-0.555 23.851 4.565l47.317-70.997c-19.627-13.141-42.325-19.925-64.683-19.925zM533.333-21.333v85.333c129.365 0 234.667 105.301 234.667 234.667v277.333c0 141.184-114.816 256-256 256v85.333c188.203 0 341.333-153.131 341.333-341.333v-277.333c0-176.469-143.531-320-320-320zM490.667-21.333c-176.469 0-320 143.531-320 320v277.333c0 188.203 153.131 341.333 341.333 341.333v-85.333c-141.184 0-256-114.816-256-256v-277.333c0-129.365 105.259-234.667 234.667-234.667v-85.333z" />
<glyph unicode="&#xe92d;" glyph-name="airplane-window-one" d="M821.163 266.283l-82.432 22.101 129.92 484.907c2.005 7.424-0.469 13.312-2.133 16.171-1.621 2.859-5.504 7.936-12.971 9.941-7.424 1.92-13.312-0.469-16.171-2.133s-7.979-5.547-9.941-12.971l-138.795-518.016-82.432 22.101 138.837 518.016c7.381 27.563 25.045 50.56 49.707 64.768 24.704 14.293 53.504 18.005 80.939 10.667 27.52-7.339 50.517-25.003 64.768-49.707s18.005-53.419 10.624-80.939l-129.92-484.907zM810.667 106.667h-533.333c-58.795 0-106.667 47.829-106.667 106.667s47.872 106.667 106.667 106.667h533.333v-213.333zM277.333 234.667c-11.776 0-21.333-9.6-21.333-21.333s9.557-21.333 21.333-21.333h448v42.667h-448zM448 64h170.667v-85.333h-170.667v85.333zM234.667 405.333c-82.347 0-149.333 66.987-149.333 149.333v213.333c0 82.347 66.987 149.333 149.333 149.333s149.333-66.987 149.333-149.333v-213.333c0-82.347-66.987-149.333-149.333-149.333zM234.667 832c-35.285 0-64-28.715-64-64v-213.333c0-35.285 28.715-64 64-64s64 28.715 64 64v213.333c0 35.285-28.715 64-64 64zM128 704h213.333v-85.333h-213.333v85.333zM85.333 768h85.333v-213.333h-85.333v213.333zM298.667 768h85.333v-213.333h-85.333v213.333z" />
<glyph unicode="&#xe92e;" glyph-name="airplay" d="M981.333 170.368h-213.333v85.333h128v533.333h-768v-533.333h128v-85.333h-213.333v618.667c0 47.061 38.272 85.333 85.333 85.333h768c47.061 0 85.333-38.272 85.333-85.333v-618.667zM725.333 21.333h-426.667l-30.165 72.832 243.499 243.499 243.499-243.499-30.165-72.832zM401.664 106.667h220.672l-110.336 110.336-110.336-110.336z" />
<glyph unicode="&#xe92f;" glyph-name="airpods" d="M746.667-21.333h-213.333v704c0 129.408 105.301 234.667 234.667 234.667 88.149 0 168.064-48.683 208.597-127.061l4.736-9.173v-196.821l-4.736-9.216c-43.776-84.736-135.68-134.741-229.931-126.080v-470.315zM618.667 64h42.667v497.877l56.875-20.096c15.915-5.589 32.725-8.448 49.792-8.448 52.821 0 101.035 27.477 128 72.363v153.941c-26.965 44.885-75.179 72.363-128 72.363-82.347 0-149.333-66.987-149.333-149.333v-618.667zM490.667-21.333h-213.333v470.272c-94.208-8.789-186.112 41.344-229.888 126.080l-4.779 9.216v196.864l4.779 9.216c40.491 78.336 120.405 127.019 208.555 127.019 129.408 0 234.667-105.259 234.667-234.667v-704zM362.667 64h42.667v618.667c0 82.347-66.987 149.333-149.333 149.333-52.821 0-101.035-27.477-128-72.363v-153.941c26.965-44.885 75.179-72.363 128-72.363 17.067 0 33.835 2.859 49.792 8.491l56.875 20.053v-497.877zM298.667 725.333h21.333v-85.333h-21.333v85.333zM704 725.333h21.333v-85.333h-21.333v85.333z" />
<glyph unicode="&#xe930;" glyph-name="alarm" d="M768 42.667h-512v384c0 141.184 114.816 256 256 256s256-114.816 256-256v-384zM341.333 128h341.333v298.667c0 94.123-76.544 170.667-170.667 170.667s-170.667-76.544-170.667-170.667v-298.667zM469.333 853.333h85.333v-64h-85.333v64zM691.915 739.387l41.165 49.005 65.34-54.886-41.165-49.005-65.34 54.886zM830.204 558.072l63.027 11.123 14.831-84.036-63.027-11.123-14.831 84.036zM115.923 485.204l14.831 84.036 63.027-11.123-14.831-84.036-63.027 11.123zM225.621 733.554l65.357 54.861 41.146-49.018-65.357-54.861-41.146 49.018zM128 128h789.333v-85.333h-789.333v85.333z" />
<glyph unicode="&#xe931;" glyph-name="alarm-clock" d="M512-28.459c-239.189 0-433.792 194.603-433.792 433.792s194.603 433.792 433.792 433.792c239.189 0 433.792-194.603 433.792-433.792s-194.603-433.792-433.792-433.792zM512 753.792c-192.128 0-348.459-156.331-348.459-348.459s156.331-348.459 348.459-348.459c192.128 0 348.459 156.331 348.459 348.459s-156.331 348.459-348.459 348.459zM642.517 201.643l-178.347 178.261 0.043 252.544h85.333l-0.043-217.216 153.344-153.259zM60.513 802.737l149.358 106.619 49.579-69.453-149.358-106.619-49.579 69.453zM764.487 839.931l49.596 69.436 149.322-106.656-49.596-69.436-149.322 106.656z" />
<glyph unicode="&#xe932;" glyph-name="align-bottom" d="M704 192h-384v682.667h384v-682.667zM405.333 277.333h213.333v512h-213.333v-512zM128 106.667h768v-85.333h-768v85.333z" />
<glyph unicode="&#xe933;" glyph-name="align-bottom-two" d="M320 64h-213.333v597.333h213.333v-597.333zM192 149.333h42.667v426.667h-42.667v-426.667zM618.667 64h-213.333v768h213.333v-768zM490.667 149.333h42.667v597.333h-42.667v-597.333zM917.333 64h-213.333v469.333h213.333v-469.333zM789.333 149.333h42.667v298.667h-42.667v-298.667z" />
<glyph unicode="&#xe934;" glyph-name="align-horizontal-center-two" d="M320 149.333h-213.333v597.333h213.333v-597.333zM192 234.667h42.667v426.667h-42.667v-426.667zM618.667 64h-213.333v768h213.333v-768zM490.667 149.333h42.667v597.333h-42.667v-597.333zM917.333 213.333h-213.333v469.333h213.333v-469.333zM789.333 298.667h42.667v298.667h-42.667v-298.667z" />
<glyph unicode="&#xe935;" glyph-name="align-horizontally" d="M917.333 256h-810.667v384h810.667v-384zM192 341.333h640v213.333h-640v-213.333zM469.333 832h85.333v-768h-85.333v768z" />
<glyph unicode="&#xe936;" glyph-name="align-left" d="M949.333 256h-682.667v384h682.667v-384zM352 341.333h512v213.333h-512v-213.333zM96 832h85.333v-768h-85.333v768z" />
<glyph unicode="&#xe937;" glyph-name="align-left-one" d="M725.333 661.333h-426.667v213.333h426.667v-213.333zM384 746.667h256v42.667h-256v-42.667zM85.333 832h85.333v-768h-85.333v768zM810.667 341.333h-512v213.333h512v-213.333zM384 426.667h341.333v42.667h-341.333v-42.667zM938.667 21.333h-640v213.333h640v-213.333zM384 106.667h469.333v42.667h-469.333v-42.667z" />
<glyph unicode="&#xe938;" glyph-name="align-left-two" d="M725.333 640h-597.333v213.333h597.333v-213.333zM213.333 725.333h426.667v42.667h-426.667v-42.667zM896 341.333h-768v213.333h768v-213.333zM213.333 426.667h597.333v42.667h-597.333v-42.667zM597.333 42.667h-469.333v213.333h469.333v-213.333zM213.333 128h298.667v42.667h-298.667v-42.667z" />
<glyph unicode="&#xe939;" glyph-name="alignment-bottom-center" d="M832 21.333h-640c-58.795 0-106.667 47.829-106.667 106.667v640c0 58.795 47.872 106.667 106.667 106.667h640c58.837 0 106.667-47.872 106.667-106.667v-640c0-58.837-47.829-106.667-106.667-106.667zM192 789.333c-11.776 0-21.333-9.557-21.333-21.333v-640c0-11.733 9.557-21.333 21.333-21.333h640c11.733 0 21.333 9.6 21.333 21.333v640c0 11.776-9.6 21.333-21.333 21.333h-640zM341.333 277.333h85.333v-85.333h-85.333v85.333zM469.333 448h85.333v-256h-85.333v256zM597.333 362.667h85.333v-170.667h-85.333v170.667z" />
<glyph unicode="&#xe93a;" glyph-name="alignment-bottom-left" d="M832 21.333h-640c-58.795 0-106.667 47.829-106.667 106.667v640c0 58.795 47.872 106.667 106.667 106.667h640c58.837 0 106.667-47.872 106.667-106.667v-640c0-58.837-47.829-106.667-106.667-106.667zM192 789.333c-11.776 0-21.333-9.557-21.333-21.333v-640c0-11.733 9.557-21.333 21.333-21.333h640c11.733 0 21.333 9.6 21.333 21.333v640c0 11.776-9.6 21.333-21.333 21.333h-640zM213.333 277.333h85.333v-85.333h-85.333v85.333zM341.333 448h85.333v-256h-85.333v256zM469.333 362.667h85.333v-170.667h-85.333v170.667z" />
<glyph unicode="&#xe93b;" glyph-name="alignment-bottom-right" d="M832 21.333h-640c-58.795 0-106.667 47.829-106.667 106.667v640c0 58.795 47.872 106.667 106.667 106.667h640c58.837 0 106.667-47.872 106.667-106.667v-640c0-58.837-47.829-106.667-106.667-106.667zM192 789.333c-11.776 0-21.333-9.557-21.333-21.333v-640c0-11.733 9.557-21.333 21.333-21.333h640c11.733 0 21.333 9.6 21.333 21.333v640c0 11.776-9.6 21.333-21.333 21.333h-640zM469.333 277.333h85.333v-85.333h-85.333v85.333zM597.333 448h85.333v-256h-85.333v256zM725.333 362.667h85.333v-170.667h-85.333v170.667z" />
<glyph unicode="&#xe93c;" glyph-name="alignment-horizontal-bottom" d="M832 21.333h-640c-58.795 0-106.667 47.829-106.667 106.667v640c0 58.795 47.872 106.667 106.667 106.667h640c58.837 0 106.667-47.872 106.667-106.667v-640c0-58.837-47.829-106.667-106.667-106.667zM192 789.333c-11.776 0-21.333-9.557-21.333-21.333v-640c0-11.733 9.557-21.333 21.333-21.333h640c11.733 0 21.333 9.6 21.333 21.333v640c0 11.776-9.6 21.333-21.333 21.333h-640zM469.333 234.667h85.333v-85.333h-85.333v85.333zM384 362.667h256v-85.333h-256v85.333zM426.667 490.667h170.667v-85.333h-170.667v85.333z" />
<glyph unicode="&#xe93d;" glyph-name="alignment-horizontal-center" d="M832 21.333h-640c-58.795 0-106.667 47.829-106.667 106.667v640c0 58.795 47.872 106.667 106.667 106.667h640c58.837 0 106.667-47.872 106.667-106.667v-640c0-58.837-47.829-106.667-106.667-106.667zM192 789.333c-11.776 0-21.333-9.557-21.333-21.333v-640c0-11.733 9.557-21.333 21.333-21.333h640c11.733 0 21.333 9.6 21.333 21.333v640c0 11.776-9.6 21.333-21.333 21.333h-640zM469.333 362.667h85.333v-85.333h-85.333v85.333zM384 490.667h256v-85.333h-256v85.333zM426.667 618.667h170.667v-85.333h-170.667v85.333z" />
<glyph unicode="&#xe93e;" glyph-name="alignment-horizontal-top" d="M832 21.333h-640c-58.795 0-106.667 47.829-106.667 106.667v640c0 58.795 47.872 106.667 106.667 106.667h640c58.837 0 106.667-47.872 106.667-106.667v-640c0-58.837-47.829-106.667-106.667-106.667zM192 789.333c-11.776 0-21.333-9.557-21.333-21.333v-640c0-11.733 9.557-21.333 21.333-21.333h640c11.733 0 21.333 9.6 21.333 21.333v640c0 11.776-9.6 21.333-21.333 21.333h-640zM469.333 490.667h85.333v-85.333h-85.333v85.333zM384 618.667h256v-85.333h-256v85.333zM426.667 746.667h170.667v-85.333h-170.667v85.333z" />
<glyph unicode="&#xe93f;" glyph-name="alignment-left-bottom" d="M832 21.333h-640c-58.795 0-106.667 47.829-106.667 106.667v640c0 58.795 47.872 106.667 106.667 106.667h640c58.837 0 106.667-47.872 106.667-106.667v-640c0-58.837-47.829-106.667-106.667-106.667zM192 789.333c-11.776 0-21.333-9.557-21.333-21.333v-640c0-11.733 9.557-21.333 21.333-21.333h640c11.733 0 21.333 9.6 21.333 21.333v640c0 11.776-9.6 21.333-21.333 21.333h-640zM256 234.667h85.333v-85.333h-85.333v85.333zM256 362.667h256v-85.333h-256v85.333zM256 490.667h170.667v-85.333h-170.667v85.333z" />
<glyph unicode="&#xe940;" glyph-name="alignment-left-center" d="M832 21.333h-640c-58.795 0-106.667 47.829-106.667 106.667v640c0 58.795 47.872 106.667 106.667 106.667h640c58.837 0 106.667-47.872 106.667-106.667v-640c0-58.837-47.829-106.667-106.667-106.667zM192 789.333c-11.776 0-21.333-9.557-21.333-21.333v-640c0-11.733 9.557-21.333 21.333-21.333h640c11.733 0 21.333 9.6 21.333 21.333v640c0 11.776-9.6 21.333-21.333 21.333h-640zM256 362.667h85.333v-85.333h-85.333v85.333zM256 490.667h256v-85.333h-256v85.333zM256 618.667h170.667v-85.333h-170.667v85.333z" />
<glyph unicode="&#xe941;" glyph-name="alignment-left-top" d="M832 21.333h-640c-58.795 0-106.667 47.829-106.667 106.667v640c0 58.795 47.872 106.667 106.667 106.667h640c58.837 0 106.667-47.872 106.667-106.667v-640c0-58.837-47.829-106.667-106.667-106.667zM192 789.333c-11.776 0-21.333-9.557-21.333-21.333v-640c0-11.733 9.557-21.333 21.333-21.333h640c11.733 0 21.333 9.6 21.333 21.333v640c0 11.776-9.6 21.333-21.333 21.333h-640zM256 490.667h85.333v-85.333h-85.333v85.333zM256 618.667h256v-85.333h-256v85.333zM256 746.667h170.667v-85.333h-170.667v85.333z" />
<glyph unicode="&#xe942;" glyph-name="alignment-right-bottom" d="M832 21.333h-640c-58.795 0-106.667 47.829-106.667 106.667v640c0 58.795 47.872 106.667 106.667 106.667h640c58.837 0 106.667-47.872 106.667-106.667v-640c0-58.837-47.829-106.667-106.667-106.667zM192 789.333c-11.776 0-21.333-9.557-21.333-21.333v-640c0-11.733 9.557-21.333 21.333-21.333h640c11.733 0 21.333 9.6 21.333 21.333v640c0 11.776-9.6 21.333-21.333 21.333h-640zM682.667 234.667h85.333v-85.333h-85.333v85.333zM512 362.667h256v-85.333h-256v85.333zM597.333 490.667h170.667v-85.333h-170.667v85.333z" />
<glyph unicode="&#xe943;" glyph-name="alignment-right-center" d="M832 21.333h-640c-58.795 0-106.667 47.829-106.667 106.667v640c0 58.795 47.872 106.667 106.667 106.667h640c58.837 0 106.667-47.872 106.667-106.667v-640c0-58.837-47.829-106.667-106.667-106.667zM192 789.333c-11.776 0-21.333-9.557-21.333-21.333v-640c0-11.733 9.557-21.333 21.333-21.333h640c11.733 0 21.333 9.6 21.333 21.333v640c0 11.776-9.6 21.333-21.333 21.333h-640zM682.667 362.667h85.333v-85.333h-85.333v85.333zM512 490.667h256v-85.333h-256v85.333zM597.333 618.667h170.667v-85.333h-170.667v85.333z" />
<glyph unicode="&#xe944;" glyph-name="alignment-right-top" d="M832 21.333h-640c-58.795 0-106.667 47.829-106.667 106.667v640c0 58.795 47.872 106.667 106.667 106.667h640c58.837 0 106.667-47.872 106.667-106.667v-640c0-58.837-47.829-106.667-106.667-106.667zM192 789.333c-11.776 0-21.333-9.557-21.333-21.333v-640c0-11.733 9.557-21.333 21.333-21.333h640c11.733 0 21.333 9.6 21.333 21.333v640c0 11.776-9.6 21.333-21.333 21.333h-640zM682.667 490.667h85.333v-85.333h-85.333v85.333zM512 618.667h256v-85.333h-256v85.333zM597.333 746.667h170.667v-85.333h-170.667v85.333z" />
<glyph unicode="&#xe945;" glyph-name="alignment-top-center" d="M832 21.333h-640c-58.795 0-106.667 47.829-106.667 106.667v640c0 58.795 47.872 106.667 106.667 106.667h640c58.837 0 106.667-47.872 106.667-106.667v-640c0-58.837-47.829-106.667-106.667-106.667zM192 789.333c-11.776 0-21.333-9.557-21.333-21.333v-640c0-11.733 9.557-21.333 21.333-21.333h640c11.733 0 21.333 9.6 21.333 21.333v640c0 11.776-9.6 21.333-21.333 21.333h-640zM341.333 704h85.333v-85.333h-85.333v85.333zM469.333 704h85.333v-256h-85.333v256zM597.333 704h85.333v-170.667h-85.333v170.667z" />
<glyph unicode="&#xe946;" glyph-name="alignment-top-left" d="M832 21.333h-640c-58.795 0-106.667 47.829-106.667 106.667v640c0 58.795 47.872 106.667 106.667 106.667h640c58.837 0 106.667-47.872 106.667-106.667v-640c0-58.837-47.829-106.667-106.667-106.667zM192 789.333c-11.776 0-21.333-9.557-21.333-21.333v-640c0-11.733 9.557-21.333 21.333-21.333h640c11.733 0 21.333 9.6 21.333 21.333v640c0 11.776-9.6 21.333-21.333 21.333h-640zM213.333 704h85.333v-85.333h-85.333v85.333zM341.333 704h85.333v-256h-85.333v256zM469.333 704h85.333v-170.667h-85.333v170.667z" />
<glyph unicode="&#xe947;" glyph-name="alignment-top-right" d="M832 21.333h-640c-58.795 0-106.667 47.829-106.667 106.667v640c0 58.795 47.872 106.667 106.667 106.667h640c58.837 0 106.667-47.872 106.667-106.667v-640c0-58.837-47.829-106.667-106.667-106.667zM192 789.333c-11.776 0-21.333-9.557-21.333-21.333v-640c0-11.733 9.557-21.333 21.333-21.333h640c11.733 0 21.333 9.6 21.333 21.333v640c0 11.776-9.6 21.333-21.333 21.333h-640zM469.333 704h85.333v-85.333h-85.333v85.333zM597.333 704h85.333v-256h-85.333v256zM725.333 704h85.333v-170.667h-85.333v170.667z" />
<glyph unicode="&#xe948;" glyph-name="alignment-vertical-center" d="M832 21.333h-640c-58.795 0-106.667 47.829-106.667 106.667v640c0 58.795 47.872 106.667 106.667 106.667h640c58.837 0 106.667-47.872 106.667-106.667v-640c0-58.837-47.829-106.667-106.667-106.667zM192 789.333c-11.776 0-21.333-9.557-21.333-21.333v-640c0-11.733 9.557-21.333 21.333-21.333h640c11.733 0 21.333 9.6 21.333 21.333v640c0 11.776-9.6 21.333-21.333 21.333h-640zM341.333 490.667h85.333v-85.333h-85.333v85.333zM469.333 576h85.333v-256h-85.333v256zM597.333 533.333h85.333v-170.667h-85.333v170.667z" />
<glyph unicode="&#xe949;" glyph-name="alignment-vertical-left" d="M832 21.333h-640c-58.795 0-106.667 47.829-106.667 106.667v640c0 58.795 47.872 106.667 106.667 106.667h640c58.837 0 106.667-47.872 106.667-106.667v-640c0-58.837-47.829-106.667-106.667-106.667zM192 789.333c-11.776 0-21.333-9.557-21.333-21.333v-640c0-11.733 9.557-21.333 21.333-21.333h640c11.733 0 21.333 9.6 21.333 21.333v640c0 11.776-9.6 21.333-21.333 21.333h-640zM213.333 490.667h85.333v-85.333h-85.333v85.333zM341.333 576h85.333v-256h-85.333v256zM469.333 533.333h85.333v-170.667h-85.333v170.667z" />
<glyph unicode="&#xe94a;" glyph-name="alignment-vertical-right" d="M832 21.333h-640c-58.795 0-106.667 47.829-106.667 106.667v640c0 58.795 47.872 106.667 106.667 106.667h640c58.837 0 106.667-47.872 106.667-106.667v-640c0-58.837-47.829-106.667-106.667-106.667zM192 789.333c-11.776 0-21.333-9.557-21.333-21.333v-640c0-11.733 9.557-21.333 21.333-21.333h640c11.733 0 21.333 9.6 21.333 21.333v640c0 11.776-9.6 21.333-21.333 21.333h-640zM469.333 490.667h85.333v-85.333h-85.333v85.333zM597.333 576h85.333v-256h-85.333v256zM725.333 533.333h85.333v-170.667h-85.333v170.667z" />
<glyph unicode="&#xe94b;" glyph-name="align-right" d="M768 256h-682.667v384h682.667v-384zM170.667 341.333h512v213.333h-512v-213.333zM853.333 832h85.333v-768h-85.333v768z" />
<glyph unicode="&#xe94c;" glyph-name="align-right-one" d="M853.333 832h85.333v-768h-85.333v768zM725.333 661.333h-426.667v213.333h426.667v-213.333zM384 746.667h256v42.667h-256v-42.667zM725.333 341.333h-512v213.333h512v-213.333zM298.667 426.667h341.333v42.667h-341.333v-42.667zM725.333 21.333h-640v213.333h640v-213.333zM170.667 106.667h469.333v42.667h-469.333v-42.667z" />
<glyph unicode="&#xe94d;" glyph-name="align-right-two" d="M896 640h-597.333v213.333h597.333v-213.333zM384 725.333h426.667v42.667h-426.667v-42.667zM896 341.333h-768v213.333h768v-213.333zM213.333 426.667h597.333v42.667h-597.333v-42.667zM896 42.667h-469.333v213.333h469.333v-213.333zM512 128h298.667v42.667h-298.667v-42.667z" />
<glyph unicode="&#xe94e;" glyph-name="align-text-both" d="M128 597.333h768v-85.333h-768v85.333zM128 810.667h768v-85.333h-768v85.333zM128 384h768v-85.333h-768v85.333zM128 170.667h768v-85.333h-768v85.333z" />
<glyph unicode="&#xe94f;" glyph-name="align-text-both-one" d="M832 21.333h-640c-58.795 0-106.667 47.829-106.667 106.667v640c0 58.795 47.872 106.667 106.667 106.667h640c58.837 0 106.667-47.872 106.667-106.667v-640c0-58.837-47.829-106.667-106.667-106.667zM192 789.333c-11.776 0-21.333-9.557-21.333-21.333v-640c0-11.733 9.557-21.333 21.333-21.333h640c11.733 0 21.333 9.6 21.333 21.333v640c0 11.776-9.6 21.333-21.333 21.333h-640zM298.667 490.667h426.667v-85.333h-426.667v85.333zM298.667 682.667h426.667v-85.333h-426.667v85.333zM298.667 298.667h426.667v-85.333h-426.667v85.333z" />
<glyph unicode="&#xe950;" glyph-name="align-text-bottom" d="M128 228.181h768v-85.333h-768v85.333zM128 106.667h768v-85.333h-768v85.333zM512 281.003l-158.165 158.165 60.331 60.331 97.835-97.835 97.835 97.835 60.331-60.331zM469.333 832h85.333v-490.667h-85.333v490.667z" />
<glyph unicode="&#xe951;" glyph-name="align-text-bottom-one" d="M832 21.333h-640c-58.795 0-106.667 47.829-106.667 106.667v640c0 58.795 47.872 106.667 106.667 106.667h640c58.837 0 106.667-47.872 106.667-106.667v-640c0-58.837-47.829-106.667-106.667-106.667zM192 789.333c-11.776 0-21.333-9.557-21.333-21.333v-640c0-11.733 9.557-21.333 21.333-21.333h640c11.733 0 21.333 9.6 21.333 21.333v640c0 11.776-9.6 21.333-21.333 21.333h-640zM298.667 426.667h426.667v-85.333h-426.667v85.333zM298.667 277.333h277.333v-85.333h-277.333v85.333z" />
<glyph unicode="&#xe952;" glyph-name="align-text-center" d="M256 597.333h512v-85.333h-512v85.333zM128 810.667h768v-85.333h-768v85.333zM128 384h768v-85.333h-768v85.333zM256 170.667h512v-85.333h-512v85.333z" />
<glyph unicode="&#xe953;" glyph-name="align-text-center-one" d="M832 21.333h-640c-58.795 0-106.667 47.829-106.667 106.667v640c0 58.795 47.872 106.667 106.667 106.667h640c58.837 0 106.667-47.872 106.667-106.667v-640c0-58.837-47.829-106.667-106.667-106.667zM192 789.333c-11.776 0-21.333-9.557-21.333-21.333v-640c0-11.733 9.557-21.333 21.333-21.333h640c11.733 0 21.333 9.6 21.333 21.333v640c0 11.776-9.6 21.333-21.333 21.333h-640zM384 490.667h256v-85.333h-256v85.333zM298.667 682.667h426.667v-85.333h-426.667v85.333zM298.667 298.667h426.667v-85.333h-426.667v85.333z" />
<glyph unicode="&#xe954;" glyph-name="align-text-left" d="M128 810.667h768v-85.333h-768v85.333zM128 597.333h597.333v-85.333h-597.333v85.333zM128 384h768v-85.333h-768v85.333zM128 170.667h597.333v-85.333h-597.333v85.333z" />
<glyph unicode="&#xe955;" glyph-name="align-text-left-one" d="M832 21.333h-640c-58.795 0-106.667 47.829-106.667 106.667v640c0 58.795 47.872 106.667 106.667 106.667h640c58.837 0 106.667-47.872 106.667-106.667v-640c0-58.837-47.829-106.667-106.667-106.667zM192 789.333c-11.776 0-21.333-9.557-21.333-21.333v-640c0-11.733 9.557-21.333 21.333-21.333h640c11.733 0 21.333 9.6 21.333 21.333v640c0 11.776-9.6 21.333-21.333 21.333h-640zM298.667 490.667h256v-85.333h-256v85.333zM298.667 682.667h426.667v-85.333h-426.667v85.333zM298.667 298.667h384v-85.333h-384v85.333z" />
<glyph unicode="&#xe956;" glyph-name="align-text-middle" d="M609.835 161.835l-97.835 97.835-97.835-97.835-60.331 60.331 158.165 158.165 158.165-158.165zM469.333 298.667h85.333v-277.333h-85.333v277.333zM512 515.669l-158.165 158.165 60.331 60.331 97.835-97.835 97.835 97.835 60.331-60.331zM469.333 874.667h85.333v-277.333h-85.333v277.333zM128 490.667h768v-85.333h-768v85.333z" />
<glyph unicode="&#xe957;" glyph-name="align-text-middle-one" d="M832 21.333h-640c-58.795 0-106.667 47.829-106.667 106.667v640c0 58.795 47.872 106.667 106.667 106.667h640c58.837 0 106.667-47.872 106.667-106.667v-640c0-58.837-47.829-106.667-106.667-106.667zM192 789.333c-11.776 0-21.333-9.557-21.333-21.333v-640c0-11.733 9.557-21.333 21.333-21.333h640c11.733 0 21.333 9.6 21.333 21.333v640c0 11.776-9.6 21.333-21.333 21.333h-640zM298.667 576h426.667v-85.333h-426.667v85.333zM298.667 426.667h256v-85.333h-256v85.333z" />
<glyph unicode="&#xe958;" glyph-name="align-text-right" d="M128 810.667h768v-85.333h-768v85.333zM298.667 597.333h597.333v-85.333h-597.333v85.333zM128 384h768v-85.333h-768v85.333zM298.667 170.667h597.333v-85.333h-597.333v85.333z" />
<glyph unicode="&#xe959;" glyph-name="align-text-right-one" d="M832 21.333h-640c-58.795 0-106.667 47.829-106.667 106.667v640c0 58.795 47.872 106.667 106.667 106.667h640c58.837 0 106.667-47.872 106.667-106.667v-640c0-58.837-47.829-106.667-106.667-106.667zM192 789.333c-11.776 0-21.333-9.557-21.333-21.333v-640c0-11.733 9.557-21.333 21.333-21.333h640c11.733 0 21.333 9.6 21.333 21.333v640c0 11.776-9.6 21.333-21.333 21.333h-640zM469.333 490.667h256v-85.333h-256v85.333zM298.667 682.667h426.667v-85.333h-426.667v85.333zM341.333 298.667h384v-85.333h-384v85.333z" />
<glyph unicode="&#xe95a;" glyph-name="align-text-top" d="M128 228.181h768v-85.333h-768v85.333zM128 106.667h768v-85.333h-768v85.333zM609.835 673.835l-97.835 97.835-97.835-97.835-60.331 60.331 158.165 158.165 158.165-158.165zM469.333 832h85.333v-490.667h-85.333v490.667z" />
<glyph unicode="&#xe95b;" glyph-name="align-text-top-one" d="M832 21.333h-640c-58.795 0-106.667 47.829-106.667 106.667v640c0 58.795 47.872 106.667 106.667 106.667h640c58.837 0 106.667-47.872 106.667-106.667v-640c0-58.837-47.829-106.667-106.667-106.667zM192 789.333c-11.776 0-21.333-9.557-21.333-21.333v-640c0-11.733 9.557-21.333 21.333-21.333h640c11.733 0 21.333 9.6 21.333 21.333v640c0 11.776-9.6 21.333-21.333 21.333h-640zM298.667 576h256v-85.333h-256v85.333zM298.667 725.333h426.667v-85.333h-426.667v85.333z" />
<glyph unicode="&#xe95c;" glyph-name="align-top" d="M704 10.667h-384v682.667h384v-682.667zM405.333 96h213.333v512h-213.333v-512zM128 864h768v-85.333h-768v85.333z" />
<glyph unicode="&#xe95d;" glyph-name="align-top-two" d="M320 234.667h-213.333v597.333h213.333v-597.333zM192 320h42.667v426.667h-42.667v-426.667zM618.667 64h-213.333v768h213.333v-768zM490.667 149.333h42.667v597.333h-42.667v-597.333zM917.333 362.667h-213.333v469.333h213.333v-469.333zM789.333 448h42.667v298.667h-42.667v-298.667z" />
<glyph unicode="&#xe95e;" glyph-name="align-vertical-center-two" d="M810.667 640h-597.333v213.333h597.333v-213.333zM298.667 725.333h426.667v42.667h-426.667v-42.667zM896 341.333h-768v213.333h768v-213.333zM213.333 426.667h597.333v42.667h-597.333v-42.667zM746.667 42.667h-469.333v213.333h469.333v-213.333zM362.667 128h298.667v42.667h-298.667v-42.667z" />
<glyph unicode="&#xe95f;" glyph-name="align-vertically" d="M704 42.667h-384v810.667h384v-810.667zM405.333 128h213.333v640h-213.333v-640zM128 490.667h768v-85.333h-768v85.333z" />
<glyph unicode="&#xe960;" glyph-name="alipay" d="M512 960c282.752 0 512-229.248 512-512s-229.248-512-512-512-512 229.248-512 512 229.248 512 512 512zM512 866.901c-231.339 0-418.901-187.563-418.901-418.901s187.563-418.901 418.901-418.901c143.744 0 270.592 72.405 346.027 182.699-30.592 9.045-79.445 24.747-142.549 51.243-26.368 11.093-65.792 28.544-118.229 52.437-62.72-63.189-154.197-123.477-252.203-123.477-68.011 0.341-182.144 34.731-182.144 141.952s105.728 132.779 174.336 132.779c41.515 0 114.987-22.912 220.416-68.736l1.621-0.64c28.288 34.603 47.701 74.837 58.283 120.619l2.133 9.899h-184.576c-27.947 0-57.984 0-90.027 0v49.493h124.971v61.867h-174.976v37.12h174.976l0.043 74.197h99.968v-74.197h199.979v-37.12h-199.979v-61.867h159.701c-2.347-15.445-4.992-29.483-7.936-42.069l-1.792-7.381c-7.339-26.581-23.893-65.28-49.579-116.096-6.827-13.483-16.683-29.099-29.141-45.653 39.339-14.592 79.189-28.715 119.467-42.453 52.181-17.749 97.323-32.128 135.339-43.136 22.4 51.285 34.816 107.904 34.816 167.424-0.043 231.339-187.605 418.901-418.944 418.901zM220.075 351.061c0-68.224 142.72-95.403 258.347-23.595 13.013 8.064 25.173 16.725 36.48 25.856l-0.384 0.171-9.088 5.589c-72.149 43.904-128.213 67.712-168.149 71.424-36.693 3.413-117.205-11.221-117.205-79.445zM619.648 527.872v0 0z" />
<glyph unicode="&#xe961;" glyph-name="all-application" d="M384 490.667h-213.333c-47.061 0-85.333 38.272-85.333 85.333v213.333c0 47.061 38.272 85.333 85.333 85.333h213.333c47.061 0 85.333-38.272 85.333-85.333v-213.333c0-47.061-38.272-85.333-85.333-85.333zM170.667 789.333v-213.333h213.333v213.333h-213.333zM384 21.333h-213.333c-47.061 0-85.333 38.272-85.333 85.333v213.333c0 47.061 38.272 85.333 85.333 85.333h213.333c47.061 0 85.333-38.272 85.333-85.333v-213.333c0-47.061-38.272-85.333-85.333-85.333zM170.667 320v-213.333h213.333v213.333h-213.333zM853.333 490.667h-213.333c-47.061 0-85.333 38.272-85.333 85.333v213.333c0 47.061 38.272 85.333 85.333 85.333h213.333c47.061 0 85.333-38.272 85.333-85.333v-213.333c0-47.061-38.272-85.333-85.333-85.333zM640 789.333v-213.333h213.333v213.333h-213.333zM853.333 21.333h-213.333c-47.061 0-85.333 38.272-85.333 85.333v213.333c0 47.061 38.272 85.333 85.333 85.333h213.333c47.061 0 85.333-38.272 85.333-85.333v-213.333c0-47.061-38.272-85.333-85.333-85.333zM640 320v-213.333h213.333v213.333h-213.333z" />
<glyph unicode="&#xe962;" glyph-name="alphabetical-sorting" d="M725.333 874.667h85.333v-842.667h-85.333v842.667zM490.667-21.333h-341.333l-30.165 72.832 268.501 268.501h-238.336v85.333h341.333l30.165-72.832-268.501-268.501h238.336zM187.221 513.749l-75.776 39.168 176.555 341.333 76.331-1.024 164.736-341.333-76.8-37.12-127.701 264.491zM768-38.997l-200.832 200.832 60.331 60.331 140.501-140.501 140.501 140.501 60.331-60.331z" />
<glyph unicode="&#xe963;" glyph-name="alphabetical-sorting-two" d="M725.333 874.667h85.333v-842.667h-85.333v842.667zM490.667 490.667h-341.333l-30.165 72.832 268.501 268.501h-238.336v85.333h341.333l30.165-72.832-268.501-268.501h238.336zM187.221 1.749l-75.776 39.168 176.555 341.333 76.331-1.024 164.736-341.333-76.8-37.12-127.701 264.491zM768-38.997l-200.832 200.832 60.331 60.331 140.501-140.501 140.501 140.501 60.331-60.331z" />
<glyph unicode="&#xe964;" glyph-name="ambulance" d="M896 170.667h-85.333v85.333h85.333v147.157c0 8.96-5.632 16.981-14.037 20.053l-150.4 54.699c-41.984 15.232-70.229 55.552-70.229 100.267v147.157h-533.333v-469.333h85.333v-85.333h-85.333c-47.061 0-85.333 38.272-85.333 85.333v469.333c0 47.061 38.272 85.333 85.333 85.333h533.333c47.061 0 85.333-38.272 85.333-85.333v-147.157c0-8.917 5.632-16.981 14.037-20.053l150.4-54.699c42.027-15.275 70.229-55.552 70.229-100.267v-147.157c0-47.061-38.272-85.333-85.333-85.333zM384 256h256v-85.333h-256v85.333zM256 597.333h170.667v-85.333h-170.667v85.333zM298.667 640h85.333v-170.667h-85.333v170.667zM298.667 85.333c-70.571 0-128 57.429-128 128s57.429 128 128 128 128-57.429 128-128-57.429-128-128-128zM298.667 256c-23.509 0-42.667-19.115-42.667-42.667s19.157-42.667 42.667-42.667 42.667 19.115 42.667 42.667-19.157 42.667-42.667 42.667zM725.333 85.333c-70.571 0-128 57.429-128 128s57.429 128 128 128 128-57.429 128-128-57.429-128-128-128zM725.333 256c-23.552 0-42.667-19.115-42.667-42.667s19.115-42.667 42.667-42.667 42.667 19.115 42.667 42.667-19.115 42.667-42.667 42.667z" />
<glyph unicode="&#xe965;" glyph-name="analysis" d="M981.333 554.667h-938.667v341.333h938.667v-341.333zM128 640h768v170.667h-768v-170.667zM115.669 54.699l-60.672 59.989 289.28 292.267 140.544-134.571 171.861 171.52 125.739-122.539-59.605-61.056-65.408 63.787-171.349-171.051-140.203 134.229zM896 614.997h85.333v-554.667h-85.333v554.667zM42.667 614.997h85.333v-298.667h-85.333v298.667zM277.675 85.333h660.992v-85.333h-660.992v85.333zM362.667 768h448v-85.333h-448v85.333zM213.333 768.043h21.333v-85.333h-21.333v85.333z" />
<glyph unicode="&#xe966;" glyph-name="anchor" d="M298.667 832h426.667v-85.333h-426.667v85.333zM298.667 149.333h426.667v-85.333h-426.667v85.333zM896 661.333h-85.333c-47.061 0-85.333 38.272-85.333 85.333v85.333c0 47.061 38.272 85.333 85.333 85.333h85.333c47.061 0 85.333-38.272 85.333-85.333v-85.333c0-47.061-38.272-85.333-85.333-85.333zM810.667 832v0-85.333h85.333v85.333h-85.333zM213.333 661.333h-85.333c-47.061 0-85.333 38.272-85.333 85.333v85.333c0 47.061 38.272 85.333 85.333 85.333h85.333c47.061 0 85.333-38.272 85.333-85.333v-85.333c0-47.061-38.272-85.333-85.333-85.333zM128 832h-0.043l0.043-85.333h85.333v85.333h-85.333zM896-21.333h-85.333c-47.061 0-85.333 38.272-85.333 85.333v85.333c0 47.061 38.272 85.333 85.333 85.333h85.333c47.061 0 85.333-38.272 85.333-85.333v-85.333c0-47.061-38.272-85.333-85.333-85.333zM810.667 149.333h-0.085l0.085-85.333h85.333v85.333h-85.333zM213.333-21.333h-85.333c-47.061 0-85.333 38.272-85.333 85.333v85.333c0 47.061 38.272 85.333 85.333 85.333h85.333c47.061 0 85.333-38.272 85.333-85.333v-85.333c0-47.061-38.272-85.333-85.333-85.333zM128 149.333h-0.043l0.043-85.333h85.333v85.333h-85.333zM810.667 661.333h85.333v-426.667h-85.333v426.667zM128 661.333h85.333v-426.667h-85.333v426.667z" />
<glyph unicode="&#xe967;" glyph-name="anchor-one" d="M896 213.333h-85.333c0 184.576-144.683 490.667-298.667 490.667s-298.667-306.091-298.667-490.667h-85.333c0 202.325 158.336 576 384 576 225.621 0 384-373.675 384-576zM298.667 0h-256v256h256v-256zM128 85.333h85.333v85.333h-85.333v-85.333zM298.667 618.667h-256v256h256v-256zM128 704h85.333v85.333h-85.333v-85.333zM981.333 0h-256v256h256v-256zM810.667 85.333h85.333v85.333h-85.333v-85.333zM981.333 618.667h-256v256h256v-256zM810.667 704h85.333v85.333h-85.333v-85.333zM256 789.333h512v-85.333h-512v85.333z" />
<glyph unicode="&#xe968;" glyph-name="anchor-round" d="M938.667 149.333h-85.333c0 181.248-145.963 384-341.333 384s-341.333-202.752-341.333-384h-85.333c0 221.525 182.443 469.333 426.667 469.333s426.667-247.808 426.667-469.333zM213.333 704h213.333v-85.333h-213.333v85.333zM597.333 704h213.333v-85.333h-213.333v85.333zM149.333 554.667c-58.795 0-106.667 47.872-106.667 106.667s47.872 106.667 106.667 106.667 106.667-47.872 106.667-106.667-47.872-106.667-106.667-106.667zM149.333 682.667c-11.776 0-21.333-9.557-21.333-21.333s9.557-21.333 21.333-21.333 21.333 9.557 21.333 21.333-9.557 21.333-21.333 21.333zM874.667 554.667c-58.837 0-106.667 47.872-106.667 106.667s47.829 106.667 106.667 106.667 106.667-47.872 106.667-106.667-47.829-106.667-106.667-106.667zM874.667 682.667c-11.733 0-21.333-9.557-21.333-21.333s9.6-21.333 21.333-21.333 21.333 9.557 21.333 21.333-9.6 21.333-21.333 21.333zM512 533.333c-70.571 0-128 57.429-128 128s57.429 128 128 128 128-57.429 128-128-57.429-128-128-128zM512 704c-23.509 0-42.667-19.157-42.667-42.667s19.157-42.667 42.667-42.667c23.552 0 42.667 19.157 42.667 42.667s-19.115 42.667-42.667 42.667z" />
<glyph unicode="&#xe969;" glyph-name="anchor-squre" d="M938.667 149.333h-85.333c0 181.248-145.963 384-341.333 384s-341.333-202.752-341.333-384h-85.333c0 221.525 182.443 469.333 426.667 469.333s426.667-247.808 426.667-469.333zM213.333 704h213.333v-85.333h-213.333v85.333zM597.333 704h213.333v-85.333h-213.333v85.333zM512 533.333c-70.571 0-128 57.429-128 128s57.429 128 128 128 128-57.429 128-128-57.429-128-128-128zM512 704c-23.509 0-42.667-19.157-42.667-42.667s19.157-42.667 42.667-42.667c23.552 0 42.667 19.157 42.667 42.667s-19.115 42.667-42.667 42.667zM640 533.333h-256v256h256v-256zM469.333 618.667h85.333v85.333h-85.333v-85.333zM981.333 554.667h-213.333v213.333h213.333v-213.333zM853.333 640h42.667v42.667h-42.667v-42.667zM256 554.667h-213.333v213.333h213.333v-213.333zM128 640h42.667v42.667h-42.667v-42.667z" />
<glyph unicode="&#xe96a;" glyph-name="anchor-two" d="M512-21.333c-258.773 0-469.333 210.56-469.333 469.333v42.667h170.667v-85.333h-82.987c21.291-191.744 184.32-341.333 381.653-341.333s360.32 149.589 381.611 341.333h-82.944v85.333h170.667v-42.667c0-258.773-210.56-469.333-469.333-469.333zM469.333 661.333h85.333v-640h-85.333v640zM512 618.667c-82.347 0-149.333 66.987-149.333 149.333s66.987 149.333 149.333 149.333 149.333-66.987 149.333-149.333-66.987-149.333-149.333-149.333zM512 832c-35.285 0-64-28.715-64-64s28.715-64 64-64 64 28.715 64 64-28.715 64-64 64z" />
<glyph unicode="&#xe96b;" glyph-name="android" d="M983.68 149.333h-943.36l4.651 46.891c23.936 240.811 224.683 422.443 467.029 422.443 242.389 0 443.136-181.632 466.987-422.443l4.693-46.891zM137.429 234.667h749.099c-38.827 173.227-192.299 298.667-374.528 298.667s-335.701-125.44-374.571-298.667zM176.26 661.519l74.086 42.334 85.324-149.321-74.086-42.334-85.324 149.321zM666.908 554.47l85.324 149.321 74.086-42.334-85.324-149.321-74.086 42.334zM362.667 341.333c0-23.564-19.103-42.667-42.667-42.667s-42.667 19.103-42.667 42.667c0 23.564 19.103 42.667 42.667 42.667s42.667-19.103 42.667-42.667zM746.667 341.333c0-23.564-19.103-42.667-42.667-42.667s-42.667 19.103-42.667 42.667c0 23.564 19.103 42.667 42.667 42.667s42.667-19.103 42.667-42.667z" />
<glyph unicode="&#xe96c;" glyph-name="angry-face" d="M512-21.333c-258.773 0-469.333 210.56-469.333 469.333s210.56 469.333 469.333 469.333 469.333-210.56 469.333-469.333-210.56-469.333-469.333-469.333zM512 832c-211.712 0-384-172.288-384-384 0-211.755 172.288-384 384-384 211.755 0 384 172.245 384 384 0 211.712-172.245 384-384 384zM623.36 193.877c-1.323 2.56-33.621 62.123-111.36 62.123s-110.037-59.563-111.36-62.123l-76.117 38.528c2.219 4.48 55.936 108.928 187.477 108.928s185.301-104.448 187.52-108.928l-76.16-38.528zM599.563 550.167l85.328 42.664 38.161-76.322-85.328-42.664-38.161 76.322zM300.905 516.5l38.161 76.322 85.328-42.664-38.161-76.322-85.328 42.664z" />
<glyph unicode="&#xe96d;" glyph-name="anguished-face" d="M512-21.333c-258.773 0-469.333 210.56-469.333 469.333s210.56 469.333 469.333 469.333 469.333-210.56 469.333-469.333-210.56-469.333-469.333-469.333zM512 832c-211.712 0-384-172.288-384-384 0-211.755 172.288-384 384-384 211.755 0 384 172.245 384 384 0 211.712-172.245 384-384 384zM618.667 576h85.333v-21.333h-85.333v21.333zM320 576h85.333v-21.333h-85.333v21.333zM554.667 149.333h-85.333c-70.571 0-128 57.429-128 128s57.429 128 128 128h85.333c70.571 0 128-57.429 128-128s-57.429-128-128-128zM469.333 320c-23.509 0-42.667-19.115-42.667-42.667s19.157-42.667 42.667-42.667h85.333c23.552 0 42.667 19.115 42.667 42.667s-19.115 42.667-42.667 42.667h-85.333z" />
<glyph unicode="&#xe96e;" glyph-name="announcement" d="M896 42.667h-768c-47.061 0-85.333 38.272-85.333 85.333v469.333c0 47.061 38.272 85.333 85.333 85.333h768c47.061 0 85.333-38.272 85.333-85.333v-469.333c0-47.061-38.272-85.333-85.333-85.333zM128 597.333h-0.043l0.043-469.333h768v469.333h-768zM682.667 597.333h-341.333l-30.165 72.832 200.832 200.832 200.832-200.832-30.165-72.832zM444.331 682.667h135.339l-67.669 67.669-67.669-67.669zM256 490.667h384v-85.333h-384v85.333zM256 320h170.667v-85.333h-170.667v85.333z" />
<glyph unicode="&#xe96f;" glyph-name="anti-corrosion" d="M548.608 21.291c-11.947 0-24.235 0.043-36.949 0.128h-0.085c-392.192 4.053-468.907 44.288-468.907 112.555 0 91.605 356.992 484.651 469.333 484.651 117.376 0 469.333-389.205 469.333-484.651 0-13.013-3.797-32.256-21.76-50.091-31.36-31.147-105.472-62.592-410.965-62.592zM512.427 106.752c288.043-2.304 362.752 22.869 381.739 33.877-27.435 77.909-310.101 387.456-382.421 392.661-66.603-5.461-340.907-304.384-379.904-390.784 24.149-11.008 106.496-32.981 380.587-35.755zM339.315 261.963l77.238 92.533 65.51-54.682-77.238-92.533-65.51 54.682zM522.667 725.333c29.44 0 53.333 23.893 53.333 53.333s-23.893 53.333-53.333 53.333-53.333-23.893-53.333-53.333c0-29.44 23.893-53.333 53.333-53.333zM725.333 618.667c23.552 0 42.667 19.115 42.667 42.667s-19.115 42.667-42.667 42.667-42.667-19.115-42.667-42.667c0-23.552 19.115-42.667 42.667-42.667zM256 512c23.552 0 42.667 19.115 42.667 42.667s-19.115 42.667-42.667 42.667-42.667-19.115-42.667-42.667c0-23.552 19.115-42.667 42.667-42.667zM373.333 640c17.664 0 32 14.336 32 32s-14.336 32-32 32-32-14.336-32-32c0-17.664 14.336-32 32-32z" />
<glyph unicode="&#xe970;" glyph-name="aperture-priority" d="M773.035 661.333h-522.069l106.667 213.333h308.736l106.667-213.333zM389.035 746.667h245.931l-21.333 42.667h-203.264l-21.333-42.667zM874.667 21.333h-725.333c-58.795 0-106.667 45.952-106.667 102.4v520.533c0 56.448 47.872 102.4 106.667 102.4h725.333c58.837 0 106.667-45.952 106.667-102.4v-520.533c0-56.448-47.829-102.4-106.667-102.4zM149.333 661.333c-11.563 0-21.333-7.808-21.333-17.067v-520.533c0-9.216 9.771-17.067 21.333-17.067h725.333c11.563 0 21.333 7.851 21.333 17.067v520.533c0 9.259-9.771 17.067-21.333 17.067h-725.333zM623.147 215.595l-111.147 222.336-111.147-222.336-76.373 38.144 187.52 374.997 187.52-374.997zM405.333 361.813h213.333v-85.333h-213.333v85.333z" />
<glyph unicode="&#xe971;" glyph-name="api" d="M725.333 366.336l-294.997 294.997 94.165 94.165c49.877 49.792 192.085 102.955 294.997 0 102.955-102.955 49.835-245.163 0-294.997l-94.165-94.165zM550.997 661.333l174.336-174.336 33.835 33.835c18.475 18.475 65.365 108.971 0 174.336-65.408 65.408-155.861 18.389-174.336 0l-33.835-33.835zM759.149 755.49l106.68 106.68 60.339-60.339-106.68-106.68-60.339 60.339zM345.173 81.536c-47.317 0-97.451 15.744-140.672 58.965-102.955 102.955-49.835 245.163 0 294.997l94.165 94.165 294.997-294.997-94.165-94.165c-28.885-28.928-88.917-58.965-154.325-58.965zM298.667 409.003l-33.835-33.835c-18.475-18.475-65.365-108.971 0-174.336s155.861-18.432 174.336 0l33.835 33.835-174.336 174.336zM460.498 307.512l85.32 85.32 60.339-60.339-85.32-85.32-60.339 60.339zM97.815 94.169l106.68 106.68 60.339-60.339-106.68-106.68-60.339 60.339zM311.164 456.845l85.32 85.32 60.339-60.339-85.32-85.32-60.339 60.339z" />
<glyph unicode="&#xe972;" glyph-name="api-app" d="M426.667 449.323h-85.333v297.344c0 94.123 76.544 170.667 170.667 170.667s170.667-76.544 170.667-170.667v-42.795h-85.333v42.795c0 47.061-38.272 85.333-85.333 85.333s-85.333-38.272-85.333-85.333v-297.344zM512-21.333c-94.123 0-170.667 76.544-170.667 170.667v43.307h85.333v-43.307c0-47.061 38.272-85.333 85.333-85.333s85.333 38.272 85.333 85.333v298.581h85.333v-298.581c0-94.123-76.544-170.667-170.667-170.667zM512 277.333h-299.008c-93.909 0-170.325 76.544-170.325 170.667s76.416 170.667 170.325 170.667h42.752v-85.333h-42.752c-46.848 0-84.992-38.272-84.992-85.333s38.144-85.333 84.992-85.333h299.008v-85.333zM810.411 277.333h-41.003v85.333h41.003c47.232 0 85.589 38.272 85.589 85.333s-38.357 85.333-85.589 85.333h-298.411v85.333h298.411c94.251 0 170.923-76.544 170.923-170.667s-76.672-170.667-170.923-170.667z" />
<glyph unicode="&#xe973;" glyph-name="apple" d="M510.123 718.549c1.749 47.616 15.104 89.429 39.808 124.373 24.832 35.115 65.835 60.075 121.984 74.24 0.384-1.749 0.768-3.456 1.152-5.163v-9.045c0-20.523-4.992-44.032-14.805-69.888-10.283-25.045-26.368-48.64-47.744-69.888-19.968-18.731-38.443-31.147-54.784-36.779-5.376-1.621-12.8-3.2-21.717-4.608-7.936-1.28-15.915-2.347-23.893-3.243zM673.024 10.667c-26.496 0-54.016 9.301-83.115 19.115-25.216 8.533-51.285 17.323-70.443 17.323-17.792 0-38.827-7.851-61.141-16.128-26.88-9.984-54.656-20.352-84.779-20.352-62.933 0-101.803 45.952-118.4 65.579l29.184 31.531-32.256-27.861c-41.131 47.531-136.704 178.56-136.704 368.128 0 217.6 143.573 298.667 234.069 298.667 41.685 0 74.923-17.408 104.235-32.768 23.851-12.501 44.459-23.296 65.792-23.296 21.163 0 43.179 10.539 68.608 22.699 32.725 15.616 69.845 33.365 115.925 33.365 61.013 0 114.304-29.141 158.421-86.528l23.979-31.232-29.227-26.411c-45.611-41.301-67.84-91.819-67.84-154.496 0-78.848 48.555-117.845 90.837-143.019l29.995-17.877-11.563-32.939c-19.712-56.107-74.837-149.461-109.227-184.96-29.056-30.080-56.533-58.539-116.352-58.539zM519.467 132.437c33.152 0 67.499-11.563 97.792-21.845 21.291-7.168 43.349-14.635 55.808-14.635 22.016 0 27.904 4.48 55.040 32.555 19.115 19.755 55.424 77.397 77.355 123.819-67.328 50.261-101.419 115.925-101.419 195.669 0 72.021 22.187 134.699 66.005 186.837-20.48 17.749-42.283 26.496-66.048 26.496-26.752 0-52.181-12.16-79.104-25.045-30.421-14.549-64.896-31.061-105.429-31.061-42.325 0-75.819 17.579-105.387 33.067-23.595 12.373-43.947 23.040-64.64 23.040-38.571 0-148.736-39.168-148.736-213.333 0-160.896 81.024-272 115.883-312.277l3.712-4.395c14.464-17.067 31.701-35.328 53.248-35.328 14.763 0 34.347 7.296 55.040 15.019 27.051 10.027 57.728 21.419 90.88 21.419z" />
<glyph unicode="&#xe974;" glyph-name="apple-one" d="M373.632 3.072c-17.323 0-35.925 2.859-54.869 11.221-53.803 23.765-85.248 54.485-123.776 95.317-73.813 78.165-109.653 181.675-109.653 316.416 0 124.245 29.995 208.939 94.421 266.667 57.088 51.157 99.669 64.512 168.704 53.12 34.133-5.675 65.792-25.173 96.341-44.032 24.277-14.976 51.797-31.957 67.371-31.957 11.179 0 27.221 12.544 44.16 25.856 25.472 19.925 57.131 44.715 100.693 50.347 75.989 9.856 118.059-2.304 179.115-52.011 69.931-56.875 102.528-141.995 102.528-267.989 0-137.429-35.456-241.835-108.416-319.189-38.315-40.576-71.083-68.736-125.013-92.544-36.949-16.299-72.064-11.733-101.547-5.163-16 3.541-29.099 10.795-40.619 17.152-16.171 8.917-28.885 15.957-51.072 15.957-22.784 0-36.224-7.509-51.755-16.213-11.179-6.229-23.851-13.312-39.211-16.896-13.909-3.157-29.995-6.059-47.403-6.059zM512 127.573c44.16 0 72.021-15.36 92.331-26.581 7.125-3.968 13.909-7.723 17.963-8.619 23.808-5.248 36.523-5.376 48.555 0 40.917 18.048 65.792 39.595 97.323 73.045 57.301 60.757 85.163 146.005 85.163 260.608 0 127.659-37.973 174.891-70.997 201.771-43.179 35.115-61.355 40.405-114.389 33.621-20.352-2.645-39.125-17.323-59.008-32.896-26.325-20.608-56.149-43.989-96.811-43.989-39.808 0-76.587 22.699-112.171 44.629-23.552 14.507-47.915 29.525-65.493 32.469-40.235 6.656-57.941 3.243-97.792-32.512-30.72-27.52-66.005-75.477-66.005-203.093 0-111.915 28.245-196.309 86.357-257.835 33.621-35.627 56.832-58.496 96.171-75.819 11.947-5.205 25.984-5.333 48.597-0.043 3.584 0.853 10.325 4.565 16.853 8.192 19.243 10.795 48.341 27.051 93.355 27.051zM554.667 622.848l-84.907 8.576c23.936 236.288 152.32 285.909 255.829 285.909h30.848l9.685-29.269c13.653-41.259 17.152-82.091 10.453-121.429-3.371-19.669-12.587-44.971-28.16-77.355l-76.928 36.949c15.659 32.555 19.883 48.341 20.992 54.827 2.688 15.872 2.816 31.957 0.299 48.555-58.155-9.045-122.24-49.792-138.112-206.763zM313.429 213.931c-26.581 22.869-43.989 54.699-51.755 94.592-6.955 35.883-6.912 71.339 0.085 105.429l83.584-17.152c-4.736-23.040-4.693-47.232 0.085-71.979 4.053-20.864 11.776-36.011 23.637-46.208l-55.637-64.683z" />
<glyph unicode="&#xe975;" glyph-name="applet-closed" d="M865.835 33.835l-192 192 60.331 60.331 192-192-60.331-60.331zM289.835 609.835l-192 192 60.331 60.331 192-192-60.331-60.331zM158.165 33.835l-60.331 60.331 192 192 60.331-60.331-192-192zM734.165 609.835l-60.331 60.331 192 192 60.331-60.331-192-192zM512 298.667c-82.347 0-149.333 66.987-149.333 149.333s66.987 149.333 149.333 149.333 149.333-66.987 149.333-149.333-66.987-149.333-149.333-149.333zM512 512c-35.285 0-64-28.715-64-64s28.715-64 64-64 64 28.715 64 64-28.715 64-64 64z" />
<glyph unicode="&#xe976;" glyph-name="application" d="M896.853 21.333h-768v469.333h85.333v-384h597.333v384h85.333zM780.075 448c-51.072 0-96.981 22.443-128.384 57.941-31.275-35.499-77.056-57.941-128.043-57.941h-21.76c-50.944 0-96.768 22.443-128.043 57.941-31.36-35.499-77.269-57.941-128.341-57.941-56.789 0-109.909 27.989-142.080 74.88-32 46.635-38.955 105.941-18.645 158.592l74.667 193.195h706.816l74.581-193.109c20.352-52.651 13.355-111.957-18.645-158.635-32.171-46.891-85.291-74.923-142.123-74.923zM608.981 618.667h85.333c0-47.061 38.443-85.333 85.76-85.333 29.141 0 55.253 13.781 71.765 37.845 16.341 23.808 19.755 52.821 9.429 79.616l-53.504 138.539h-589.781l-53.547-138.624c-10.325-26.752-6.912-55.808 9.387-79.573 16.469-24.021 42.624-37.803 71.68-37.803 47.275 0 85.717 38.272 85.717 85.333h85.333c0-47.061 38.272-85.333 85.333-85.333h21.76c47.061 0 85.333 38.272 85.333 85.333z" />
<glyph unicode="&#xe977;" glyph-name="application-effect" d="M682.667-18.944c-73.6 0-144.299 27.008-199.125 76.032l56.875 63.573c39.125-34.987 89.685-54.272 142.208-54.272 117.632 0 213.333 95.701 213.333 213.333 0 92.032-58.624 173.355-145.877 202.453l27.008 80.939c122.155-40.704 204.245-154.581 204.245-283.392 0-164.693-134.016-298.667-298.667-298.667zM341.333-18.944c-164.693 0-298.667 134.016-298.667 298.667 0 129.237 82.475 243.285 205.184 283.691l26.709-81.024c-87.68-28.885-146.56-110.336-146.56-202.667 0-117.632 95.701-213.333 213.333-213.333s213.333 95.701 213.333 213.333c0 26.88-4.949 53.12-14.72 78.037l79.403 31.147c13.739-34.859 20.651-71.595 20.651-109.184 0-164.693-134.016-298.667-298.667-298.667zM512 322.389c-164.693 0-298.667 133.973-298.667 298.667s133.973 298.667 298.667 298.667c164.651 0 298.667-134.016 298.667-298.667 0-164.693-134.016-298.667-298.667-298.667zM512 834.389c-117.632 0-213.333-95.701-213.333-213.333s95.701-213.333 213.333-213.333 213.333 95.701 213.333 213.333c0 117.589-95.701 213.333-213.333 213.333z" />
<glyph unicode="&#xe978;" glyph-name="application-menu" d="M213.333 661.333c47.147 0 85.333 38.187 85.333 85.333s-38.187 85.333-85.333 85.333c-47.147 0-85.333-38.187-85.333-85.333s38.187-85.333 85.333-85.333zM512 661.333c47.147 0 85.333 38.187 85.333 85.333s-38.187 85.333-85.333 85.333-85.333-38.187-85.333-85.333c0-47.147 38.187-85.333 85.333-85.333zM810.667 661.333c47.147 0 85.333 38.187 85.333 85.333s-38.187 85.333-85.333 85.333-85.333-38.187-85.333-85.333c0-47.147 38.187-85.333 85.333-85.333zM213.333 362.667c47.147 0 85.333 38.187 85.333 85.333s-38.187 85.333-85.333 85.333c-47.147 0-85.333-38.187-85.333-85.333s38.187-85.333 85.333-85.333zM512 362.667c47.147 0 85.333 38.187 85.333 85.333s-38.187 85.333-85.333 85.333-85.333-38.187-85.333-85.333 38.187-85.333 85.333-85.333zM810.667 362.667c47.147 0 85.333 38.187 85.333 85.333s-38.187 85.333-85.333 85.333-85.333-38.187-85.333-85.333 38.187-85.333 85.333-85.333zM213.333 64c47.147 0 85.333 38.187 85.333 85.333s-38.187 85.333-85.333 85.333c-47.147 0-85.333-38.187-85.333-85.333s38.187-85.333 85.333-85.333zM512 64c47.147 0 85.333 38.187 85.333 85.333s-38.187 85.333-85.333 85.333-85.333-38.187-85.333-85.333 38.187-85.333 85.333-85.333zM810.667 64c47.147 0 85.333 38.187 85.333 85.333s-38.187 85.333-85.333 85.333-85.333-38.187-85.333-85.333 38.187-85.333 85.333-85.333z" />
<glyph unicode="&#xe979;" glyph-name="application-one" d="M512-28.16l-405.333 238.421v475.477l405.333 238.421 405.333-238.421v-475.477l-405.333-238.421zM192 259.072l320-188.245 320 188.245v377.856l-320 188.245-320-188.245v-377.856zM511.829 397.653l-193.109 120.875 45.227 72.363 147.925-92.544 148.053 92.544 45.227-72.363zM469.333 448h85.333v-192h-85.333v192z" />
<glyph unicode="&#xe97a;" glyph-name="application-two" d="M736 490.667c-100.011 0-181.333 81.365-181.333 181.333s81.323 181.333 181.333 181.333 181.333-81.365 181.333-181.333-81.323-181.333-181.333-181.333zM736 768c-52.907 0-96-43.051-96-96s43.093-96 96-96 96 43.051 96 96-43.093 96-96 96zM736 42.667c-100.011 0-181.333 81.323-181.333 181.333s81.323 181.333 181.333 181.333 181.333-81.323 181.333-181.333-81.323-181.333-181.333-181.333zM736 320c-52.907 0-96-43.093-96-96s43.093-96 96-96 96 43.093 96 96-43.093 96-96 96zM288 490.667c-99.968 0-181.333 81.365-181.333 181.333s81.365 181.333 181.333 181.333 181.333-81.365 181.333-181.333-81.365-181.333-181.333-181.333zM288 768c-52.949 0-96-43.051-96-96s43.051-96 96-96 96 43.051 96 96-43.051 96-96 96zM288 42.667c-99.968 0-181.333 81.323-181.333 181.333s81.365 181.333 181.333 181.333 181.333-81.323 181.333-181.333-81.365-181.333-181.333-181.333zM288 320c-52.949 0-96-43.093-96-96s43.051-96 96-96 96 43.093 96 96-43.051 96-96 96z" />
<glyph unicode="&#xe97b;" glyph-name="appointment" d="M512 533.333c-105.856 0-192 86.144-192 192s86.144 192 192 192 192-86.144 192-192-86.144-192-192-192zM512 832c-58.795 0-106.667-47.872-106.667-106.667s47.872-106.667 106.667-106.667c58.837 0 106.667 47.872 106.667 106.667s-47.829 106.667-106.667 106.667zM128 85.333h-85.333c0 211.755 191.403 384 426.667 384v-85.333c-188.203 0-341.333-134.016-341.333-298.667zM725.333 0c-129.365 0-234.667 105.301-234.667 234.667s105.301 234.667 234.667 234.667 234.667-105.301 234.667-234.667-105.301-234.667-234.667-234.667zM725.333 384c-82.347 0-149.333-66.987-149.333-149.333s66.987-149.333 149.333-149.333 149.333 66.987 149.333 149.333-66.987 149.333-149.333 149.333zM789.333 170.667h-128v128h85.333v-42.667h42.667z" />
<glyph unicode="&#xe97c;" glyph-name="app-store" d="M832 21.333h-640c-58.795 0-106.667 47.829-106.667 106.667v640c0 58.795 47.872 106.667 106.667 106.667h640c58.837 0 106.667-47.872 106.667-106.667v-640c0-58.837-47.829-106.667-106.667-106.667zM192 789.333c-11.776 0-21.333-9.557-21.333-21.333v-640c0-11.733 9.557-21.333 21.333-21.333h640c11.733 0 21.333 9.6 21.333 21.333v640c0 11.776-9.6 21.333-21.333 21.333h-640zM369.924 381.752l190.69 322.652 73.463-43.418-190.69-322.652-73.463 43.418zM283.271 235.069l17.345 29.349 73.463-43.418-17.345-29.349-73.463 43.418zM256 384h234.667v-85.333h-234.667v85.333zM640 384h128v-85.333h-128v85.333zM369.358 659.785l71.996 45.815 93.349-146.691-71.996-45.815-93.349 146.691zM537.39 395.745l71.996 45.815 130.666-205.332-71.996-45.815-130.666 205.332z" />
<glyph unicode="&#xe97d;" glyph-name="app-switch" d="M768-21.333h-512v938.667h512v-938.667zM341.333 64h341.333v768h-341.333v-768zM981.333 64h-298.667v768h298.667v-768zM768 149.333h128v597.333h-128v-597.333zM341.333 64h-298.667v768h298.667v-768zM128 149.333h128v597.333h-128v-597.333z" />
<glyph unicode="&#xe97e;" glyph-name="aquarius" d="M740.736 484.48l-149.077 234.283-169.813-191.104-126.976 190.464-176.768-212.096-65.536 54.613 249.899 299.904 129.024-193.536 171.52 192.896 149.589-235.051 154.411 170.795 63.317-57.173zM740.736 57.813l-149.077 234.283-169.813-191.104-126.976 190.464-176.768-212.139-65.536 54.699 249.899 299.861 129.024-193.536 171.52 192.896 149.589-235.051 154.411 170.837 63.317-57.216z" />
<glyph unicode="&#xe97f;" glyph-name="arc-de-triomphe" d="M896-21.333h-298.667v362.667c0 47.061-38.272 85.333-85.333 85.333s-85.333-38.272-85.333-85.333v-362.667h-298.667v682.667h768v-682.667zM682.667 64h128v512h-597.333v-512h128v277.333c0 94.123 76.544 170.667 170.667 170.667s170.667-76.544 170.667-170.667v-277.333zM853.333 576h-682.667c-58.795 0-106.667 47.872-106.667 106.667v106.667h896v-106.667c0-58.795-47.829-106.667-106.667-106.667zM149.333 704v-21.333c0-11.776 9.557-21.333 21.333-21.333h682.667c11.733 0 21.333 9.557 21.333 21.333v21.333h-725.333zM106.667 917.333h810.667v-85.333h-810.667v85.333zM128 874.667h85.333v-106.667h-85.333v106.667zM810.667 874.667h85.333v-106.667h-85.333v106.667zM170.667 405.333h213.333v-85.333h-213.333v85.333zM640 405.333h213.333v-85.333h-213.333v85.333z" />
<glyph unicode="&#xe980;" glyph-name="archers-bow" d="M863.104-18.773l-33.579 6.699c-31.275 6.229-58.155 26.283-75.691 56.405-21.419 36.693-26.581 84.352-13.44 124.245 38.699 118.101 8.149 275.371-6.741 337.536-1.408 5.973-6.357 10.581-13.227 12.288l-48.256 12.075c-38.272 9.557-68.053 39.296-77.611 77.568l-12.16 48.299c-1.707 6.827-6.272 11.776-12.288 13.227-62.165 14.891-219.477 45.397-337.536 6.699-39.893-13.099-87.509-7.893-124.245 13.525-30.123 17.536-50.133 44.416-56.405 75.691l-6.699 33.621 83.669 16.683 6.699-33.579c1.792-8.917 9.515-15.104 15.701-18.688 15.531-9.088 38.101-11.605 54.656-6.144 133.803 43.861 298.027 15.829 384.043-4.821 36.907-8.875 65.749-37.803 75.179-75.52l12.075-48.299c1.877-7.637 7.851-13.568 15.488-15.488l48.256-12.075c37.76-9.429 66.645-38.229 75.563-75.179 20.608-85.973 48.725-250.197 4.821-384.043-5.461-16.683-2.944-39.125 6.101-54.656 3.627-6.187 9.771-13.909 18.731-15.701l33.579-6.699-16.683-83.669zM97.818 695.171l60.339 60.339 682.648-682.648-60.339-60.339-682.648 682.648zM225.83 222.175l661.318 661.318 60.339-60.339-661.318-661.318-60.339 60.339z" />
<glyph unicode="&#xe981;" glyph-name="archery" d="M277.333 21.333v85.333c188.203 0 341.333 153.131 341.333 341.333s-153.131 341.333-341.333 341.333v85.333c235.264 0 426.667-191.403 426.667-426.667s-191.403-426.667-426.667-426.667zM192 341.333c-58.795 0-106.667 47.829-106.667 106.667 0 58.795 47.872 106.667 106.667 106.667s106.667-47.872 106.667-106.667c0-58.837-47.872-106.667-106.667-106.667zM192 469.333c-11.776 0-21.333-9.557-21.333-21.333 0-11.733 9.557-21.333 21.333-21.333s21.333 9.6 21.333 21.333c0 11.776-9.557 21.333-21.333 21.333zM256 490.667h640v-85.333h-640v85.333zM840.832 332.501l-60.331 60.331 55.168 55.168-55.168 55.168 60.331 60.331 115.499-115.499z" />
<glyph unicode="&#xe982;" glyph-name="area-map" d="M981.333 21.333h-938.667v403.627l199.765-112.384 124.16 186.197 132.011-43.989 158.080 180.651 128-106.667 121.856 139.349 74.795-28.117v-618.667zM128 106.667h768v419.755l-102.016-116.565-128 106.667-140.587-160.683-123.989 41.387-131.84-197.803-141.568 79.616v-172.373zM128 352h-85.333v245.333l70.443 32.384 113.28-97.109 111.488 162.176 132.864-66.432 186.837 197.845 118.229-96.725 132.693 132.693 72.832-30.165v-202.667h-85.333v99.669l-114.475-114.475-116.437 95.275-175.829-186.155-123.136 61.568-123.179-179.157-114.944 98.517z" />
<glyph unicode="&#xe983;" glyph-name="arena" d="M531.072 153.813h-38.187l-426.667 213.333v76.331l426.667 213.333h38.187l426.667-213.333v-76.331l-426.667-213.333zM180.736 405.333l331.264-165.632 331.264 165.632-331.264 165.632-331.264-165.632zM531.072 345.813h-38.187l-426.667 213.333v76.373l426.667 213.333h38.187l426.667-213.333v-76.331l-426.667-213.376zM180.736 597.333l331.264-165.632 331.264 165.632-331.264 165.632-331.264-165.632zM531.072-16.853h-38.187l-426.667 213.333-23.552 38.187v170.667l61.739 38.187 407.595-203.819 407.595 203.776 61.739-38.144v-170.667l-23.595-38.187-426.667-213.333zM128 261.035l384-192 384 192v75.264l-364.928-182.443h-38.187l-364.885 182.443v-75.264zM896 661.333h85.333v-256h-85.333v256zM42.667 661.333h85.333v-256h-85.333v256zM469.333 448h85.333v-256h-85.333v256zM469.333 874.667h85.333v-256h-85.333v256z" />
<glyph unicode="&#xe984;" glyph-name="aries" d="M554.624 62.592h-85.291c-17.323 519.723-143.701 668.885-182.059 702.208-14.208 12.373-35.541 26.837-57.685 24.277-43.648-5.888-74.24-25.856-89.771-59.349-22.101-47.701-10.411-115.072 13.653-152.661l-71.893-45.995c-35.712 55.808-56.96 153.003-19.2 234.581 19.627 42.368 62.848 95.531 157.013 108.203 30.080 3.115 75.008-2.133 123.904-44.629 49.024-42.667 122.069-141.611 168.704-367.189 46.635 225.621 119.68 324.565 168.704 367.189 48.896 42.539 93.781 47.701 122.667 44.715 95.36-12.8 138.539-65.963 158.165-108.331 37.803-81.536 16.597-178.731-19.115-234.581l-71.936 45.995c24.064 37.589 35.755 104.96 13.611 152.704-15.488 33.451-46.080 53.461-90.923 59.477-20.821 1.963-42.283-12.032-56.491-24.405-38.315-33.323-164.736-182.443-182.059-702.208z" />
<glyph unicode="&#xe985;" glyph-name="arithmetic" d="M597.333 309.333h298.667v-85.333h-298.667v85.333zM597.333 117.333h298.667v-85.333h-298.667v85.333zM128 725.333h341.333v-85.333h-341.333v85.333zM256 853.333h85.333v-341.333h-85.333v341.333zM97.825 115.502l767.997 767.997 60.339-60.339-767.997-767.997-60.339 60.339z" />
<glyph unicode="&#xe986;" glyph-name="arithmetic-buttons" d="M874.667-21.333h-725.333c-58.795 0-106.667 47.829-106.667 106.667v725.333c0 58.795 47.872 106.667 106.667 106.667h725.333c58.837 0 106.667-47.872 106.667-106.667v-725.333c0-58.837-47.829-106.667-106.667-106.667zM149.333 832c-11.776 0-21.333-9.557-21.333-21.333v-725.333c0-11.733 9.557-21.333 21.333-21.333h725.333c11.733 0 21.333 9.6 21.333 21.333v725.333c0 11.776-9.6 21.333-21.333 21.333h-725.333zM213.333 704h170.667v-85.333h-170.667v85.333zM204.499 200.851l128.010 128.010 60.339-60.339-128.010-128.010-60.339 60.339zM256 746.667h85.333v-170.667h-85.333v170.667zM204.499 268.491l60.339 60.339 128.010-128.010-60.339-60.339-128.010 128.010zM640 704h170.667v-85.333h-170.667v85.333zM640 341.333h170.667v-85.333h-170.667v85.333zM640 213.333h170.667v-85.333h-170.667v85.333zM469.333 874.667h85.333v-853.333h-85.333v853.333zM85.333 490.667h853.333v-85.333h-853.333v85.333zM384 917.333h256v-85.333h-256v85.333zM384 64h256v-85.333h-256v85.333zM42.667 533.333h85.333v-170.667h-85.333v170.667zM896 533.333h85.333v-170.667h-85.333v170.667z" />
<glyph unicode="&#xe987;" glyph-name="arithmetic-one" d="M597.333 330.667h298.667v-85.333h-298.667v85.333zM597.333 160h298.667v-85.333h-298.667v85.333zM126.477 122.833l241.327 241.327 60.339-60.339-241.327-241.327-60.339 60.339zM126.46 303.821l60.339 60.339 241.327-241.327-60.339-60.339-241.327 241.327zM597.333 736h298.667v-85.333h-298.667v85.333zM128 736h298.667v-85.333h-298.667v85.333zM234.667 842.667h85.333v-298.667h-85.333v298.667z" />
<glyph unicode="&#xe988;" glyph-name="arrow-circle-down" d="M512-21.333c-258.773 0-469.333 210.56-469.333 469.333s210.56 469.333 469.333 469.333 469.333-210.56 469.333-469.333-210.56-469.333-469.333-469.333zM512 832c-211.712 0-384-172.288-384-384 0-211.755 172.288-384 384-384 211.755 0 384 172.245 384 384 0 211.712-172.245 384-384 384zM469.333 640h85.333v-384h-85.333v384zM512 195.669l-222.165 222.165 60.331 60.331 161.835-161.835 161.835 161.835 60.331-60.331z" />
<glyph unicode="&#xe989;" glyph-name="arrow-circle-left" d="M512-21.333c-258.773 0-469.333 210.56-469.333 469.333s210.56 469.333 469.333 469.333 469.333-210.56 469.333-469.333-210.56-469.333-469.333-469.333zM512 832c-211.712 0-384-172.288-384-384 0-211.755 172.288-384 384-384 211.755 0 384 172.245 384 384 0 211.712-172.245 384-384 384zM309.163 480h384v-85.333h-384v85.333zM470.997 215.168l-222.165 222.165 222.165 222.165 60.331-60.331-161.835-161.835 161.835-161.835z" />
<glyph unicode="&#xe98a;" glyph-name="arrow-circle-right" d="M512-21.333c-258.773 0-469.333 210.56-469.333 469.333s210.56 469.333 469.333 469.333 469.333-210.56 469.333-469.333-210.56-469.333-469.333-469.333zM512 832c-211.712 0-384-172.288-384-384 0-211.755 172.288-384 384-384 211.755 0 384 172.245 384 384 0 211.712-172.245 384-384 384zM309.163 480h384v-85.333h-384v85.333zM531.328 215.168l-60.331 60.331 161.835 161.835-161.835 161.835 60.331 60.331 222.165-222.165z" />
<glyph unicode="&#xe98b;" glyph-name="arrow-circle-up" d="M512-21.333c-258.773 0-469.333 210.56-469.333 469.333s210.56 469.333 469.333 469.333 469.333-210.56 469.333-469.333-210.56-469.333-469.333-469.333zM512 832c-211.712 0-384-172.288-384-384 0-211.755 172.288-384 384-384 211.755 0 384 172.245 384 384 0 211.712-172.245 384-384 384zM469.333 629.333h85.333v-384h-85.333v384zM673.835 407.168l-161.835 161.835-161.835-161.835-60.331 60.331 222.165 222.165 222.165-222.165z" />
<glyph unicode="&#xe98c;" glyph-name="arrow-down" d="M469.333 832h85.333v-768h-85.333v768zM512 3.669l-286.165 286.165 60.331 60.331 225.835-225.835 225.835 225.835 60.331-60.331z" />
<glyph unicode="&#xe98d;" glyph-name="arrow-keys" d="M981.333-21.333h-938.667v512h213.333v426.667h512v-426.667h213.333v-512zM554.667 64h341.333v341.333h-341.333v-341.333zM128 64h341.333v341.333h-341.333v-341.333zM341.333 490.667h341.333v341.333h-341.333v-341.333zM469.333 746.667h85.333v-170.667h-85.333v170.667zM567.168 631.168l-55.168 55.168-55.168-55.168-60.331 60.331 115.499 115.499 115.499-115.499zM213.333 277.333h170.667v-85.333h-170.667v85.333zM268.501 119.168l-115.499 115.499 115.499 115.499 60.331-60.331-55.168-55.168 55.168-55.168zM640 277.333h170.667v-85.333h-170.667v85.333zM755.499 119.168l-60.331 60.331 55.168 55.168-55.168 55.168 60.331 60.331 115.499-115.499z" />
<glyph unicode="&#xe98e;" glyph-name="arrow-left" d="M123.691 490.667h768v-85.333h-768v85.333zM349.525 161.835l-286.165 286.165 286.165 286.165 60.331-60.331-225.835-225.835 225.835-225.835z" />
<glyph unicode="&#xe98f;" glyph-name="arrow-left-down" d="M618.667 128h-426.667v426.667h85.333v-341.333h341.333zM204.493 200.848l543.053 543.053 60.339-60.339-543.053-543.053-60.339 60.339z" />
<glyph unicode="&#xe990;" glyph-name="arrow-left-up" d="M204.5 695.168l60.339 60.339 543.023-543.023-60.339-60.339-543.023 543.023zM277.333 341.333h-85.333v426.667h426.667v-85.333h-341.333z" />
<glyph unicode="&#xe991;" glyph-name="arrow-right" d="M128 490.667h768v-85.333h-768v85.333zM670.165 161.835l-60.331 60.331 225.835 225.835-225.835 225.835 60.331 60.331 286.165-286.165z" />
<glyph unicode="&#xe992;" glyph-name="arrow-right-down" d="M832 128h-426.667v85.333h341.333v341.333h85.333zM216.099 683.554l60.339 60.339 543.053-543.053-60.339-60.339-543.053 543.053z" />
<glyph unicode="&#xe993;" glyph-name="arrow-right-up" d="M832 341.333h-85.333v341.333h-341.333v85.333h426.667zM216.107 212.447l543.053 543.053 60.339-60.339-543.053-543.053-60.339 60.339z" />
<glyph unicode="&#xe994;" glyph-name="arrow-up" d="M469.333 832h85.333v-768h-85.333v768zM737.835 545.835l-225.835 225.835-225.835-225.835-60.331 60.331 286.165 286.165 286.165-286.165z" />
<glyph unicode="&#xe995;" glyph-name="assembly-line" d="M341.333 618.667c-70.571 0-128 57.429-128 128s57.429 128 128 128 128-57.429 128-128-57.429-128-128-128zM341.333 789.333c-23.509 0-42.667-19.157-42.667-42.667s19.157-42.667 42.667-42.667 42.667 19.157 42.667 42.667-19.157 42.667-42.667 42.667zM597.333 106.667h-320c-109.44 0-192 82.56-192 192s82.56 192 192 192h149.333v-85.333h-149.333c-62.805 0-106.667-43.861-106.667-106.667s43.861-106.667 106.667-106.667h320v-85.333zM746.667 405.333h-320v85.333h320c62.805 0 106.667 43.861 106.667 106.667s-43.861 106.667-106.667 106.667h-320v85.333h320c109.44 0 192-82.56 192-192s-82.56-192-192-192zM128 789.333h128v-85.333h-128v85.333zM768 192h128v-85.333h-128v85.333zM682.667 21.333c-70.571 0-128 57.429-128 128s57.429 128 128 128 128-57.429 128-128-57.429-128-128-128zM682.667 192c-23.552 0-42.667-19.115-42.667-42.667s19.115-42.667 42.667-42.667 42.667 19.115 42.667 42.667-19.115 42.667-42.667 42.667z" />
<glyph unicode="&#xe996;" glyph-name="association" d="M85.333 277.333h853.333v-85.333h-853.333v85.333zM411.692 830.932l72.602 44.843 448.001-725.326-72.602-44.843-448.001 725.326zM91.691 150.42l448.001 725.326 72.602-44.843-448.001-725.326-72.602 44.843z" />
<glyph unicode="&#xe997;" glyph-name="asterisk" d="M512-21.333c-258.773 0-469.333 210.56-469.333 469.333s210.56 469.333 469.333 469.333 469.333-210.56 469.333-469.333-210.56-469.333-469.333-469.333zM512 832c-211.712 0-384-172.288-384-384 0-211.755 172.288-384 384-384 211.755 0 384 172.245 384 384 0 211.712-172.245 384-384 384zM320 490.667h384v-85.333h-384v85.333zM379.034 592.96l73.899 42.667 192-332.544-73.899-42.667-192 332.544zM379.061 303.059l191.962 332.582 73.907-42.658-191.962-332.582-73.907 42.658z" />
<glyph unicode="&#xe998;" glyph-name="asterisk-key" d="M832 21.333h-640c-58.795 0-106.667 47.829-106.667 106.667v640c0 58.795 47.872 106.667 106.667 106.667h640c58.837 0 106.667-47.872 106.667-106.667v-640c0-58.837-47.829-106.667-106.667-106.667zM192 789.333c-11.776 0-21.333-9.557-21.333-21.333v-640c0-11.733 9.557-21.333 21.333-21.333h640c11.733 0 21.333 9.6 21.333 21.333v640c0 11.776-9.6 21.333-21.333 21.333h-640zM469.333 618.667h85.333v-341.333h-85.333v341.333zM347.763 510.942l48.947 69.905 279.585-195.764-48.947-69.905-279.585 195.764zM347.721 385.079l279.551 195.764 48.947-69.897-279.551-195.764-48.947 69.897z" />
<glyph unicode="&#xe999;" glyph-name="astonished-face" d="M512-21.333c-258.773 0-469.333 210.56-469.333 469.333s210.56 469.333 469.333 469.333 469.333-210.56 469.333-469.333-210.56-469.333-469.333-469.333zM512 832c-211.712 0-384-172.288-384-384 0-211.755 172.288-384 384-384 211.755 0 384 172.245 384 384 0 211.712-172.245 384-384 384zM618.667 576h85.333v-21.333h-85.333v21.333zM320 576h85.333v-21.333h-85.333v21.333zM512 149.333c-70.571 0-128 57.429-128 128v85.333c0 70.571 57.429 128 128 128s128-57.429 128-128v-85.333c0-70.571-57.429-128-128-128zM512 405.333c-23.509 0-42.667-19.115-42.667-42.667v-85.333c0-23.552 19.157-42.667 42.667-42.667 23.552 0 42.667 19.115 42.667 42.667v85.333c0 23.552-19.115 42.667-42.667 42.667z" />
<glyph unicode="&#xe99a;" glyph-name="at-sign" d="M512-21.333c-258.773 0-469.333 210.56-469.333 469.333s210.56 469.333 469.333 469.333 469.333-210.56 469.333-469.333h-85.333c0 211.712-172.245 384-384 384-211.712 0-384-172.288-384-384 0-211.755 172.288-384 384-384 92.032 0 181.035 33.024 250.624 93.056l55.765-64.597c-85.077-73.387-193.877-113.792-306.389-113.792zM512 234.667c-117.632 0-213.333 95.701-213.333 213.333s95.701 213.333 213.333 213.333 213.333-95.701 213.333-213.333-95.701-213.333-213.333-213.333zM512 576c-70.571 0-128-57.429-128-128s57.429-128 128-128 128 57.429 128 128-57.429 128-128 128zM810.667 277.333c-94.123 0-170.667 76.544-170.667 170.667h85.333c0-47.061 38.272-85.333 85.333-85.333s85.333 38.272 85.333 85.333h85.333c0-94.123-76.544-170.667-170.667-170.667zM640 618.667h85.333v-192h-85.333v192z" />
<glyph unicode="&#xe99b;" glyph-name="attention" d="M512-21.333c-125.355 0-243.2 48.853-331.861 137.472s-137.472 206.507-137.472 331.861c0 125.355 48.811 243.2 137.472 331.861s206.507 137.472 331.861 137.472c125.355 0 243.243-48.811 331.861-137.472s137.472-206.507 137.472-331.861c0-125.355-48.853-243.243-137.472-331.861s-206.507-137.472-331.861-137.472zM512 832c-102.571 0-198.997-39.936-271.531-112.469s-112.469-168.96-112.469-271.531c0-102.571 39.936-198.997 112.469-271.531 72.533-72.491 168.96-112.469 271.531-112.469s198.997 39.979 271.531 112.469c72.491 72.533 112.469 168.96 112.469 271.531s-39.979 198.997-112.469 271.531c-72.533 72.533-168.96 112.469-271.531 112.469zM512 170.667c29.44 0 53.333 23.893 53.333 53.333s-23.893 53.333-53.333 53.333-53.333-23.893-53.333-53.333 23.893-53.333 53.333-53.333zM469.333 704h85.333v-341.333h-85.333v341.333z" />
<glyph unicode="&#xe99c;" glyph-name="audio-file" d="M896-21.333h-768v938.667h552.96l215.040-250.88v-687.787zM213.333 64h597.333v570.88l-168.96 197.12h-428.373v-768zM597.333 288h-85.333v336.512l151.765 75.051 37.803-76.459-104.235-51.584zM437.333 128c-88.235 0-160 71.808-160 160s71.765 160 160 160c88.192 0 160-71.808 160-160s-71.808-160-160-160zM437.333 362.667c-41.173 0-74.667-33.493-74.667-74.667s33.493-74.667 74.667-74.667 74.667 33.493 74.667 74.667-33.493 74.667-74.667 74.667z" />
<glyph unicode="&#xe99d;" glyph-name="audit" d="M896 149.333h-768l0.128 212.437c0.043 35.285 28.757 63.957 64 63.957h190.165c0.043 4.053 0.043 8.32 0.043 12.587-3.115 4.736-11.477 13.781-17.792 20.608-32.469 34.987-86.784 93.611-86.784 205.525 0 170.88 129.835 231.509 241.024 231.509 111.531 0 230.741-60.8 230.741-231.509 0-107.819-49.579-160.896-82.389-196.011-8.149-8.789-20.523-21.973-21.717-26.837 0-5.461 0.043-10.88 0.043-15.872h186.453c35.285 0 64-28.715 64-64v-212.395zM213.333 234.667h597.333v105.771h-191.104c-59.349 0-59.349 49.365-59.349 101.632 0 36.907 23.723 62.251 44.629 84.693 29.227 31.232 59.435 63.573 59.435 137.771 0 120.832-79.104 146.176-145.408 146.176-58.155 0-155.691-18.987-155.691-146.176 0-78.464 35.499-116.779 64.043-147.541 19.925-21.504 40.533-43.733 40.533-74.88 0-24.149 0-41.173-3.797-55.893-7.424-28.672-29.269-45.739-58.411-45.739h-192.128l-0.085-105.813zM170.667 106.667h682.667v-85.333h-682.667v85.333z" />
<glyph unicode="&#xe99e;" glyph-name="auto-focus" d="M512 213.333c-129.408 0-234.667 105.301-234.667 234.667 0 129.408 105.259 234.667 234.667 234.667 129.365 0 234.667-105.259 234.667-234.667 0-129.365-105.301-234.667-234.667-234.667zM512 597.333c-82.347 0-149.333-66.987-149.333-149.333s66.987-149.333 149.333-149.333 149.333 66.987 149.333 149.333-66.987 149.333-149.333 149.333zM576 448c0-35.346-28.654-64-64-64s-64 28.654-64 64c0 35.346 28.654 64 64 64s64-28.654 64-64zM938.624 435.712l-85.248 3.243c0.299 9.941 4.949 247.296-237.995 331.392-241.621 83.499-381.867-123.563-387.712-132.437l-71.381 46.72c1.749 2.731 181.675 272.128 486.997 166.357 303.701-105.131 295.467-412.203 295.339-415.275zM525.141 17.365c-36.821 0-76.757 4.821-119.851 16-316.288 82.005-319.957 411.307-319.957 414.635h85.333c0.043-10.752 4.437-266.795 256.043-332.032 250.965-64.811 363.264 130.901 367.915 139.307l74.837-41.003c-1.237-2.304-110.507-196.907-344.32-196.907zM853.333 789.333h85.333v-341.333h-85.333v341.333zM85.333 448h85.333v-341.333h-85.333v341.333z" />
<glyph unicode="&#xe99f;" glyph-name="auto-height-one" d="M106.667 832h85.333v-768h-85.333v768zM609.835 631.125l-97.92 97.877-97.749-97.664-60.331 60.373 158.080 157.952 158.251-158.123zM512.085 46.336l-158.251 158.165 60.331 60.331 97.92-97.835 97.749 97.621 60.331-60.331zM469.333 789.333h85.333v-682.667h-85.333v682.667zM832 832h85.333v-768h-85.333v768z" />
<glyph unicode="&#xe9a0;" glyph-name="auto-line-height" d="M128 853.333h768v-85.333h-768v85.333zM128 128h768v-85.333h-768v85.333zM259.732 231.013l213.486 469.246 77.67-35.337-213.486-469.246-77.67 35.337zM384 405.333h256v-85.333h-256v85.333zM473.17 665.034l77.687 35.311 213.331-469.349-77.687-35.311-213.331 469.349z" />
<glyph unicode="&#xe9a1;" glyph-name="auto-line-width" d="M64 789.333h85.333v-682.667h-85.333v682.667zM259.732 231.013l213.486 469.246 77.67-35.337-213.486-469.246-77.67 35.337zM384 405.333h256v-85.333h-256v85.333zM473.17 665.034l77.687 35.311 213.331-469.349-77.687-35.311-213.331 469.349zM874.667 789.333h85.333v-682.667h-85.333v682.667z" />
<glyph unicode="&#xe9a2;" glyph-name="auto-width" d="M225.536 247.168l-200.533 200.704 200.789 200.96 60.416-60.331-140.544-140.629 140.245-140.373zM798.165 247.168l-60.331 60.331 140.501 140.629-140.245 140.373 60.331 60.331 200.576-200.704zM85.333 490.667h853.333v-85.333h-853.333v85.333z" />
</font>
</defs>
</svg>
