<?xml version="1.0" standalone="no"?>
<!DOCTYPE svg PUBLIC "-//W3C//DTD SVG 1.1//EN" "http://www.w3.org/Graphics/SVG/1.1/DTD/svg11.dtd" >
<svg xmlns="http://www.w3.org/2000/svg">
<metadata>Generated by IcoMoon</metadata>
<defs>
<font id="Bytedance-IconPack-Bold" horiz-adv-x="1024">
<font-face units-per-em="1024" ascent="960" descent="-64" />
<missing-glyph horiz-adv-x="1024" />
<glyph unicode="&#x20;" horiz-adv-x="512" d="" />
<glyph unicode="&#xe900;" glyph-name="abdominal" d="M53.333 42.325c-0.896 81.195 6.4 152.235 21.717 211.029 9.259 35.541 32.597 72.149 59.605 114.56 43.477 68.181 92.715 145.408 92.715 234.453 0 95.317-26.88 170.283-82.133 229.077l46.635 43.819c66.005-70.229 99.499-162.048 99.499-272.896 0-107.691-56.96-197.077-102.741-268.843-23.083-36.267-44.928-70.443-51.584-96.213-13.867-53.333-20.48-118.699-19.669-194.304l-64.043-0.683zM952.661 42.283l-64 0.768c0.853 75.52-5.803 140.885-19.669 194.219-6.699 25.771-28.544 60.032-51.627 96.299-45.739 71.808-102.699 161.109-102.699 268.8 0 110.848 33.451 202.667 99.456 272.896l46.677-43.819c-55.253-58.837-82.133-133.717-82.133-229.077 0-89.003 49.237-166.272 92.672-234.453 27.051-42.368 50.389-79.019 59.563-114.56 15.36-58.795 22.699-129.835 21.76-211.072zM512.469 137.984c-119.253 0-252.629 46.123-396.373 137.131l34.261 54.101c133.333-84.437 255.147-127.189 362.112-127.189 106.453 0 221.568 42.539 342.229 126.421l36.565-52.523c-131.584-91.563-259.029-137.941-378.795-137.941zM512 298.667c29.44 0 53.333 23.893 53.333 53.333s-23.893 53.333-53.333 53.333-53.333-23.893-53.333-53.333 23.893-53.333 53.333-53.333z" />
<glyph unicode="&#xe901;" glyph-name="abnormal" d="M426.667-10.667h-213.333c-41.173 0-74.667 33.493-74.667 74.667v768c0 41.173 33.493 74.667 74.667 74.667h597.333c41.173 0 74.667-33.493 74.667-74.667v-221.824h-64v221.824c0 5.888-4.779 10.667-10.667 10.667h-597.333c-5.888 0-10.667-4.779-10.667-10.667v-768c0-5.888 4.779-10.667 10.667-10.667h213.333v-64zM341.333 693.333h277.333v-64h-277.333v64zM341.333 544h106.667v-64h-106.667v64zM725.333-10.667c-135.296 0-245.333 110.037-245.333 245.333s110.037 245.333 245.333 245.333 245.333-110.037 245.333-245.333-110.037-245.333-245.333-245.333zM725.333 416c-100.011 0-181.333-81.323-181.333-181.333s81.323-181.333 181.333-181.333 181.333 81.323 181.333 181.333-81.323 181.333-181.333 181.333zM693.333 192h64v-64h-64v64zM768 320c0-23.564-19.103-42.667-42.667-42.667s-42.667 19.103-42.667 42.667c0 23.564 19.103 42.667 42.667 42.667s42.667-19.103 42.667-42.667z" />
<glyph unicode="&#xe902;" glyph-name="a-cane" d="M445.483-10.069l-56.491 30.080 300.459 565.035c14.165 26.709 78.208 163.797-56.149 235.221-122.965 65.408-194.603-25.173-226.389-84.992l-56.533 30.080c55.68 104.747 167.040 189.013 312.96 111.445 155.947-82.944 125.312-241.28 82.603-321.749l-300.459-565.12z" />
<glyph unicode="&#xe903;" glyph-name="acceleration" d="M725.333 245.333h170.667v-64h-170.667v64zM576 96h85.333v-64h-85.333v64zM938.667 352h-682.667c-59.989 0-141.184 125.056-198.741 229.931l-25.984 47.403h150.997l128-106.667h512l136.917-114.091-20.523-56.576zM140.715 565.333c47.573-78.763 97.963-144.043 117.205-149.547l592.384 0.171-51.2 42.709h-512l-128 106.667h-18.389zM621.525 464.512l-234.027 164.821 47.787-127.445-59.904-22.443-80.213 213.888h113.067l250.24-176.512zM379.563 96h-126.208l106.197 298.709 60.288-21.419-75.861-213.291h10.325l263.808 247.339 43.776-46.677zM832 650.667h-213.333l-10.155 62.336c15.915 5.333 34.261 14.123 42.069 19.883-0.299 23.595-0.043 65.493 39.125 85.035 17.024 8.576 36.864 9.771 53.461 8.363 11.819 30.464 39.339 59.051 89.301 59.051 37.461 0 71.509-18.133 93.397-49.792 23.723-34.261 29.824-78.507 15.957-115.371-20.608-54.869-78.72-69.504-109.824-69.504zM713.344 714.667h118.656c0.171 0 39.765 0.939 49.92 28.032 6.4 17.024 2.901 39.68-8.661 56.448-6.997 10.112-19.797 22.229-40.789 22.229-26.112 0-32.085-17.621-32.469-32.384l-1.067-42.197-40.32 11.989c-13.013 3.883-32.811 5.632-40.277 1.963-4.053-2.005-3.797-19.84-3.712-28.459l0.043-6.955c0-3.627-0.469-7.168-1.323-10.667z" />
<glyph unicode="&#xe904;" glyph-name="accept-email" d="M512 96h-458.667v704h917.333v-352h-64v288h-789.333v-576h394.667zM640 266.667h298.667v-64h-298.667v64zM724.053 105.387l-129.323 129.28 129.323 129.28 45.227-45.227-84.011-84.053 84.011-84.053zM512 407.979l-445.867 334.421 38.4 51.2 407.467-305.579 407.467 305.579 38.4-51.2z" />
<glyph unicode="&#xe905;" glyph-name="acoustic" d="M480 874.667h64v-853.333h-64v853.333zM693.333 704h64v-512h-64v512zM53.333 576h64v-256h-64v256zM906.667 576h64v-256h-64v256zM266.667 704h64v-512h-64v512z" />
<glyph unicode="&#xe906;" glyph-name="activity-source" d="M928 650.667h-832v234.667h832v-234.667zM160 714.667h704v106.667h-704v-106.667zM928 330.667h-832v234.667h832v-234.667zM160 394.667h704v106.667h-704v-106.667zM928 10.667h-832v234.667h832v-234.667zM160 74.667h704v106.667h-704v-106.667z" />
<glyph unicode="&#xe907;" glyph-name="ad" d="M512-10.667c-252.928 0-458.667 205.739-458.667 458.667s205.739 458.667 458.667 458.667 458.667-205.739 458.667-458.667-205.739-458.667-458.667-458.667zM512 842.667c-217.643 0-394.667-177.024-394.667-394.667s177.024-394.667 394.667-394.667 394.667 177.024 394.667 394.667-177.024 394.667-394.667 394.667zM724.019 190.716l45.254 45.254 63.99-63.99-45.254-45.254-63.99 63.99zM190.694 724.049l45.254 45.254 63.99-63.99-45.254-45.254-63.99 63.99zM438.571 289.877l-11.648 40.789h-85.803l-11.648-40.789-61.525 17.579 85.333 298.667h61.525l85.333-298.667-61.568-17.579zM359.381 394.667h49.237l-24.619 86.187-24.619-86.187zM576 266.667h-32v362.667h32c126.933 0 202.667-67.797 202.667-181.333s-75.733-181.333-202.667-181.333zM608 563.413v-230.827c54.187 6.912 106.667 34.517 106.667 115.413 0 80.939-52.48 108.501-106.667 115.413z" />
<glyph unicode="&#xe908;" glyph-name="add" d="M832 32h-640c-52.949 0-96 43.093-96 96v640c0 52.949 43.051 96 96 96h640c52.907 0 96-43.051 96-96v-640c0-52.907-43.093-96-96-96zM192 800c-17.664 0-32-14.336-32-32v-640c0-17.621 14.336-32 32-32h640c17.621 0 32 14.379 32 32v640c0 17.664-14.379 32-32 32h-640zM480 618.667h64v-341.333h-64v341.333zM341.333 480h341.333v-64h-341.333v64z" />
<glyph unicode="&#xe909;" glyph-name="add-computer" d="M832 202.667h-640c-52.949 0-96 43.093-96 96v469.333c0 52.949 43.051 96 96 96h341.333v-64h-341.333c-17.664 0-32-14.336-32-32v-469.333c0-17.621 14.336-32 32-32h640c17.621 0 32 14.379 32 32v170.667h64v-170.667c0-52.907-43.093-96-96-96zM480 234.667h64v-170.667h-64v170.667zM640 736h256v-64h-256v64zM736 832h64v-256h-64v256zM298.667 96h426.667v-64h-426.667v64z" />
<glyph unicode="&#xe90a;" glyph-name="add-four" d="M160 618.667h-64v170.667c0 41.173 33.493 74.667 74.667 74.667h170.667v-64h-170.667c-5.888 0-10.667-4.779-10.667-10.667v-170.667zM341.333 32h-170.667c-41.173 0-74.667 33.493-74.667 74.667v170.667h64v-170.667c0-5.888 4.779-10.667 10.667-10.667h170.667v-64zM853.333 32h-170.667v64h170.667c5.888 0 10.667 4.779 10.667 10.667v170.667h64v-170.667c0-41.173-33.493-74.667-74.667-74.667zM928 618.667h-64v170.667c0 5.888-4.779 10.667-10.667 10.667h-170.667v64h170.667c41.173 0 74.667-33.493 74.667-74.667v-170.667zM341.333 480h341.333v-64h-341.333v64zM480 618.667h64v-341.333h-64v341.333z" />
<glyph unicode="&#xe90b;" glyph-name="add-item" d="M480 448h64v-128h-64v128zM928 32h-832v320h832v-320zM160 96h704v192h-704v-192zM96 714.667h64v-21.333h-64v21.333zM96 597.333h64v-21.333h-64v21.333zM96 832h64v-21.333h-64v21.333zM864 714.667h64v-21.333h-64v21.333zM864 597.333h64v-21.333h-64v21.333zM864 832h64v-21.333h-64v21.333zM874.667 608h21.333v-64h-21.333v64zM128 608h21.333v-64h-21.333v64zM128 864h21.333v-64h-21.333v64zM277.333 864h21.333v-64h-21.333v64zM426.667 864h21.333v-64h-21.333v64zM426.667 608h21.333v-64h-21.333v64zM576 864h21.333v-64h-21.333v64zM277.333 608h21.333v-64h-21.333v64zM576 608h21.333v-64h-21.333v64zM725.333 864h21.333v-64h-21.333v64zM725.333 608h21.333v-64h-21.333v64zM874.667 864h21.333v-64h-21.333v64z" />
<glyph unicode="&#xe90c;" glyph-name="add-mode" d="M512.085-23.936l-125.824 125.653h-220.501v220.501l-125.696 125.824 125.696 125.653v220.544h220.459l125.824 125.696 125.653-125.696h220.501v-220.459l125.653-125.653-125.653-125.824v-220.501h-220.501l-125.611-125.739zM229.76 165.76h182.997l99.328-99.157 99.157 99.157h182.997v182.997l99.157 99.285-99.157 99.2v182.997h-182.997l-99.157 99.2-99.328-99.2h-182.997v-182.997l-99.2-99.2 99.2-99.285v-182.997zM362.667 480.043h298.667v-64h-298.667v64zM480.085 597.333h64v-298.667h-64v298.667z" />
<glyph unicode="&#xe90d;" glyph-name="add-music" d="M512-10.667c-252.928 0-458.667 205.739-458.667 458.667s205.739 458.667 458.667 458.667 458.667-205.739 458.667-458.667h-64c0 217.643-177.024 394.667-394.667 394.667s-394.667-177.024-394.667-394.667 177.024-394.667 394.667-394.667v-64zM394.667 244.779v406.443l352-203.221-352-203.221zM458.667 540.373v-184.747l160 92.373-160 92.373zM758.4 277.333h64v-213.333h-64v213.333zM682.667 203.733h213.333v-64h-213.333v64z" />
<glyph unicode="&#xe90e;" glyph-name="add-one" d="M512-10.667c-252.928 0-458.667 205.739-458.667 458.667s205.739 458.667 458.667 458.667 458.667-205.739 458.667-458.667-205.739-458.667-458.667-458.667zM512 842.667c-217.643 0-394.667-177.024-394.667-394.667s177.024-394.667 394.667-394.667 394.667 177.024 394.667 394.667-177.024 394.667-394.667 394.667zM480 618.667h64v-341.333h-64v341.333zM341.333 480h341.333v-64h-341.333v64z" />
<glyph unicode="&#xe90f;" glyph-name="add-pic" d="M768 32h-597.333c-41.173 0-74.667 33.493-74.667 74.667v597.333c0 41.173 33.493 74.667 74.667 74.667h391.765v-64h-391.765c-5.888 0-10.667-4.779-10.667-10.667v-597.333c0-5.888 4.779-10.667 10.667-10.667h597.333c5.888 0 10.667 4.779 10.667 10.667v405.333h64v-405.333c0-41.173-33.493-74.667-74.667-74.667zM744.747 265.984h-552.576l188.331 252.117 61.952-61.952 78.72 123.776 223.573-313.941zM319.872 329.984h300.715l-96.427 135.381-70.571-110.891-66.048 66.091-67.669-90.581zM725.333 778.667h170.667v-64h-170.667v64zM778.539 836.395h64v-170.667h-64v170.667z" />
<glyph unicode="&#xe910;" glyph-name="add-picture" d="M938.667 448c0 23.552-19.115 42.667-42.667 42.667s-42.667-19.115-42.667-42.667h85.333zM512 789.333c23.552 0 42.667 19.115 42.667 42.667s-19.115 42.667-42.667 42.667v-85.333zM832 106.667h-640v-85.333h640v85.333zM170.667 128v640h-85.333v-640h85.333zM853.333 448v-320h85.333v320h-85.333zM192 789.333h320v85.333h-320v-85.333zM192 106.667c-11.776 0-21.333 9.557-21.333 21.333h-85.333c0-58.923 47.744-106.667 106.667-106.667v85.333zM832 21.333c58.923 0 106.667 47.744 106.667 106.667h-85.333c0-11.776-9.557-21.333-21.333-21.333v-85.333zM170.667 768c0 11.776 9.557 21.333 21.333 21.333v85.333c-58.923 0-106.667-47.744-106.667-106.667h85.333zM661.845 167.723l-269.952 231.381c-4.096 3.499-10.155 3.371-14.123-0.213l-228.139-209.109-43.264 47.147 228.139 209.109c27.861 25.515 70.4 26.155 99.029 1.621l269.952-231.381-41.643-48.555zM876.8 273.067l-141.056 105.771c-4.267 3.2-10.283 2.645-13.952-0.981l-101.845-101.803-45.227 45.227 101.845 101.845c26.112 26.069 68.139 29.099 97.621 6.912l141.013-105.771-38.4-51.2zM640 736h256v-64h-256v64zM736 832h64v-256h-64v256z" />
<glyph unicode="&#xe911;" glyph-name="add-print" d="M928 522.667h-160v64h96v213.333h-704v-213.333h96v-64h-160v341.333h832zM512-18.517l-128 94.848-108.971-80.725-51.029 25.728v714.667h576v-714.667l-51.029-25.728-108.971 80.725-128-94.848zM384 155.989l128-94.848 128 94.848 96-71.125v587.136h-448v-587.136l96 71.125zM426.667 437.333h170.667v-64h-170.667v64zM480 490.667h64v-170.667h-64v170.667z" />
<glyph unicode="&#xe912;" glyph-name="address-book" d="M885.333-10.667h-746.667v202.667h64v-138.667h618.667v789.333h-618.667v-138.667h-64v202.667h746.667zM128 352h85.333v-64h-85.333v64zM128 480h85.333v-64h-85.333v64zM128 608h85.333v-64h-85.333v64zM512 480c-64.725 0-117.333 52.608-117.333 117.333s52.608 117.333 117.333 117.333 117.333-52.608 117.333-117.333-52.608-117.333-117.333-117.333zM512 650.667c-29.397 0-53.333-23.936-53.333-53.333s23.936-53.333 53.333-53.333 53.333 23.936 53.333 53.333-23.936 53.333-53.333 53.333zM714.667 213.333h-64c0 76.459-62.208 138.667-138.667 138.667s-138.667-62.208-138.667-138.667h-64c0 111.744 90.923 202.667 202.667 202.667s202.667-90.923 202.667-202.667z" />
<glyph unicode="&#xe913;" glyph-name="add-subset" d="M384 181.333h-202.667v181.333h64v-117.333h138.667zM928 32h-576v362.667h576v-362.667zM416 96h448v234.667h-448v-234.667zM96 693.333h64v-21.333h-64v21.333zM96 554.667h64v-21.333h-64v21.333zM96 832h64v-21.333h-64v21.333zM650.667 693.333h64v-21.333h-64v21.333zM650.667 554.667h64v-21.333h-64v21.333zM650.667 832h64v-21.333h-64v21.333zM661.333 565.333h21.333v-64h-21.333v64zM128 565.333h21.333v-64h-21.333v64zM128 864h21.333v-64h-21.333v64zM256 864h21.333v-64h-21.333v64zM394.667 864h21.333v-64h-21.333v64zM394.667 565.333h21.333v-64h-21.333v64zM533.333 864h21.333v-64h-21.333v64zM256 565.333h21.333v-64h-21.333v64zM533.333 565.333h21.333v-64h-21.333v64zM661.333 864h21.333v-64h-21.333v64z" />
<glyph unicode="&#xe914;" glyph-name="add-subtract" d="M832 32h-640c-52.949 0-96 43.093-96 96v640c0 52.949 43.051 96 96 96h640c52.907 0 96-43.051 96-96v-640c0-52.907-43.093-96-96-96zM192 800c-17.664 0-32-14.336-32-32v-640c0-17.621 14.336-32 32-32h640c17.621 0 32 14.379 32 32v640c0 17.664-14.379 32-32 32h-640zM576 330.667h170.667v-64h-170.667v64zM330.667 682.667h64v-170.667h-64v170.667zM277.333 629.333h170.667v-64h-170.667v64zM276.035 257.298l426.658 426.658 45.254-45.254-426.658-426.658-45.254 45.254z" />
<glyph unicode="&#xe915;" glyph-name="add-text" d="M85.333 821.333h597.333v-64h-597.333v64zM597.333 544h341.333v-64h-341.333v64zM352 789.333h64v-725.333h-64v725.333zM736 512h64v-448h-64v448z" />
<glyph unicode="&#xe916;" glyph-name="add-text-two" d="M512-10.667c-252.928 0-458.667 205.739-458.667 458.667s205.739 458.667 458.667 458.667 458.667-205.739 458.667-458.667-205.739-458.667-458.667-458.667zM512 842.667c-217.643 0-394.667-177.024-394.667-394.667s177.024-394.667 394.667-394.667 394.667 177.024 394.667 394.667-177.024 394.667-394.667 394.667zM341.333 650.667h341.333v-64h-341.333v64zM480 618.667h64v-384h-64v384z" />
<glyph unicode="&#xe917;" glyph-name="add-three" d="M480 618.667h64v-341.333h-64v341.333zM864 512h64v-128h-64v128zM96 512h64v-128h-64v128zM160 661.333h-64v128c0 41.173 33.493 74.667 74.667 74.667h128v-64h-128c-5.888 0-10.667-4.779-10.667-10.667v-128zM928 661.333h-64v128c0 5.888-4.779 10.667-10.667 10.667h-128v64h128c41.173 0 74.667-33.493 74.667-74.667v-128zM853.333 32h-128v64h128c5.888 0 10.667 4.779 10.667 10.667v128h64v-128c0-41.173-33.493-74.667-74.667-74.667zM298.667 32h-128c-41.173 0-74.667 33.493-74.667 74.667v128h64v-128c0-5.888 4.779-10.667 10.667-10.667h128v-64zM448 864h128v-64h-128v64zM341.333 480h341.333v-64h-341.333v64zM448 96h128v-64h-128v64z" />
<glyph unicode="&#xe918;" glyph-name="add-two" d="M512 10.667c-241.152 0-437.333 196.181-437.333 437.333s196.181 437.333 437.333 437.333c72.235 0 143.915-18.005 207.147-52.096l-30.336-56.32c-53.973 29.056-115.115 44.416-176.811 44.416-205.867 0-373.333-167.467-373.333-373.333s167.467-373.333 373.333-373.333c54.912 0 107.776 11.605 157.184 34.603l27.008-57.984c-57.899-26.965-119.851-40.619-184.192-40.619zM661.333 352h256v-64h-256v64zM468.736 296.661l-171.349 171.392 45.227 45.227 127.317-127.275 382.72 362.539 44.032-46.421zM757.333 448h64v-256h-64v256z" />
<glyph unicode="&#xe919;" glyph-name="add-user" d="M512 501.333c-111.744 0-202.667 90.923-202.667 202.667s90.923 202.667 202.667 202.667 202.667-90.923 202.667-202.667-90.923-202.667-202.667-202.667zM512 842.667c-76.459 0-138.667-62.208-138.667-138.667s62.208-138.667 138.667-138.667 138.667 62.208 138.667 138.667-62.208 138.667-138.667 138.667zM928 21.333h-64c0 194.091-157.909 352-352 352s-352-157.909-352-352h-64c0 229.376 186.624 416 416 416s416-186.624 416-416zM405.333 160h213.333v-64h-213.333v64zM480 234.667h64v-213.333h-64v213.333z" />
<glyph unicode="&#xe91a;" glyph-name="add-web" d="M533.333 74.667h-384c-52.949 0-96 43.093-96 96v554.667c0 52.949 43.051 96 96 96h725.333c52.907 0 96-43.051 96-96v-297.429h-64v297.429c0 17.664-14.379 32-32 32h-725.333c-17.664 0-32-14.336-32-32v-554.667c0-17.621 14.336-32 32-32h384v-64zM970.667 501.333h-917.333v224c0 52.949 43.051 96 96 96h725.333c52.907 0 96-43.051 96-96v-224zM117.333 565.333h789.333v160c0 17.664-14.379 32-32 32h-725.333c-17.664 0-32-14.336-32-32v-160zM682.667 245.333h256v-64h-256v64zM778.667 341.333h64v-256h-64v256zM256 661.333c0-23.564-19.103-42.667-42.667-42.667s-42.667 19.103-42.667 42.667c0 23.564 19.103 42.667 42.667 42.667s42.667-19.103 42.667-42.667zM384 661.333c0-23.564-19.103-42.667-42.667-42.667s-42.667 19.103-42.667 42.667c0 23.564 19.103 42.667 42.667 42.667s42.667-19.103 42.667-42.667z" />
<glyph unicode="&#xe91b;" glyph-name="adjacent-item" d="M928 53.333h-661.333v128h-170.667v533.333h170.667v128h661.333v-320h-661.333v128h-106.667v-405.333h106.667v128h661.333v-320zM330.667 117.333h533.333v192h-533.333v-192zM330.667 586.667h533.333v192h-533.333v-192zM298.667 181.333h-202.667v533.333h202.667v-64h-138.667v-405.333h138.667zM928 53.333h-661.333v320h661.333v-320zM330.667 117.333h533.333v192h-533.333v-192zM928 522.667h-661.333v320h661.333v-320zM330.667 586.667h533.333v192h-533.333v-192z" />
<glyph unicode="&#xe91c;" glyph-name="adjustment" d="M853.333 10.667h-682.667c-52.949 0-96 43.093-96 96v682.667c0 52.949 43.051 96 96 96h682.667c52.907 0 96-43.051 96-96v-682.667c0-52.907-43.093-96-96-96zM170.667 821.333c-17.664 0-32-14.336-32-32v-682.667c0-17.621 14.336-32 32-32h682.667c17.621 0 32 14.379 32 32v682.667c0 17.664-14.379 32-32 32h-682.667zM233.375 214.638l512.008 512.008 45.254-45.254-512.008-512.008-45.254 45.254zM256 650.667h170.667v-64h-170.667v64zM576 288h170.667v-64h-170.667v64zM309.333 704h64v-170.667h-64v170.667z" />
<glyph unicode="&#xe91d;" glyph-name="adobe-illustrate" d="M832 32h-640c-52.949 0-96 43.093-96 96v640c0 52.949 43.051 96 96 96h640c52.907 0 96-43.051 96-96v-640c0-52.907-43.093-96-96-96zM192 800c-17.664 0-32-14.336-32-32v-640c0-17.621 14.336-32 32-32h640c17.621 0 32 14.379 32 32v640c0 17.664-14.379 32-32 32h-640zM268.265 266.163l128.072 383.973 60.71-20.25-128.072-383.973-60.71 20.25zM650.667 426.667h64v-170.667h-64v170.667zM650.667 554.667h64v-21.333h-64v21.333zM396.33 629.877l60.717 20.237 127.991-384.014-60.717-20.237-127.991 384.014zM341.333 416h170.667v-64h-170.667v64z" />
<glyph unicode="&#xe91e;" glyph-name="adobe-indesign" d="M832 32h-640c-52.949 0-96 43.093-96 96v640c0 52.949 43.051 96 96 96h640c52.907 0 96-43.051 96-96v-640c0-52.907-43.093-96-96-96zM192 800c-17.664 0-32-14.336-32-32v-640c0-17.621 14.336-32 32-32h640c17.621 0 32 14.379 32 32v640c0 17.664-14.379 32-32 32h-640zM309.333 640h64v-384h-64v384zM650.667 597.333h64v-341.333h-64v341.333zM714.667 224h-117.333c-70.187 0-117.333 47.147-117.333 117.333s47.147 117.333 117.333 117.333h117.333v-234.667zM597.333 394.667c-34.389 0-53.333-18.944-53.333-53.333s18.944-53.333 53.333-53.333h53.333v106.667h-53.333z" />
<glyph unicode="&#xe91f;" glyph-name="adobe-lightroom" d="M832 32h-640c-52.949 0-96 43.093-96 96v640c0 52.949 43.051 96 96 96h640c52.907 0 96-43.051 96-96v-640c0-52.907-43.093-96-96-96zM192 800c-17.664 0-32-14.336-32-32v-640c0-17.621 14.336-32 32-32h640c17.621 0 32 14.379 32 32v640c0 17.664-14.379 32-32 32h-640zM469.333 224h-202.667v416h64v-352h138.667zM565.333 512h64v-256h-64v256zM625.195 389.632l-55.765 31.403c57.173 101.632 123.819 101.632 155.861 101.632v-64c-25.813 0-61.269 0-100.096-69.035z" />
<glyph unicode="&#xe920;" glyph-name="adobe-photoshop" d="M832 32h-640c-52.949 0-96 43.093-96 96v640c0 52.949 43.051 96 96 96h640c52.907 0 96-43.051 96-96v-640c0-52.907-43.093-96-96-96zM192 800c-17.664 0-32-14.336-32-32v-640c0-17.621 14.336-32 32-32h640c17.621 0 32 14.379 32 32v640c0 17.664-14.379 32-32 32h-640zM266.667 640h64v-384h-64v384zM341.333 394.667h-74.667v277.333h74.667c115.243 0 181.333-50.56 181.333-138.667s-66.091-138.667-181.333-138.667zM330.667 458.667h10.667c117.333 0 117.333 56.192 117.333 74.667s0 74.667-117.333 74.667h-10.667v-149.333zM613.973 223.957c-9.899 0-16.896 0.512-19.285 0.725l5.248 63.744c20.693-1.408 69.205 0.427 87.339 17.109 4.352 4.011 6.101 8.235 6.101 14.72 0 12.885-8.277 19.243-44.245 34.219-33.365 13.824-83.755 34.731-83.755 93.312 0 25.173 8.875 47.061 25.643 63.275 36.736 35.584 100.821 33.536 127.915 32.64l6.4-0.213v-64l-8.491 0.213c-15.787 0.427-64.085 2.091-81.365-14.635-2.816-2.773-6.144-7.253-6.144-17.28 0-12.885 8.277-19.243 44.245-34.219 33.365-13.824 83.755-34.731 83.755-93.312 0-24.32-9.259-45.696-26.795-61.824-32.64-30.037-87.253-34.475-116.565-34.475z" />
<glyph unicode="&#xe921;" glyph-name="ad-product" d="M512-14.464l-458.667 229.333v466.219l458.667 229.333 458.667-229.333v-466.219l-458.667-229.333zM117.333 254.464l394.667-197.333 394.667 197.333v387.115l-394.667 197.333-394.667-197.333v-387.115zM71.019 632.706l28.621 57.242 426.641-213.32-28.621-57.242-426.641 213.32zM480 448h64v-426.667h-64v426.667zM497.712 476.698l426.774 213.244 28.608-57.254-426.774-213.244-28.608 57.254zM284.352 583.294l426.641 213.32 28.621-57.242-426.641-213.32-28.621 57.242z" />
<glyph unicode="&#xe922;" glyph-name="afferent" d="M832 32h-640c-52.949 0-96 43.093-96 96v640c0 52.949 43.051 96 96 96h640c52.907 0 96-43.051 96-96v-104.021h-64v104.021c0 17.664-14.379 32-32 32h-640c-17.664 0-32-14.336-32-32v-640c0-17.621 14.336-32 32-32h640c17.621 0 32 14.379 32 32v91.989h64v-91.989c0-52.907-43.093-96-96-96zM512 480h384v-64h-384v64zM617.387 297.387l-150.656 150.613 150.656 150.613 45.227-45.227-105.344-105.387 105.344-105.387z" />
<glyph unicode="&#xe923;" glyph-name="afferent-four" d="M810.667 10.667h-597.333c-41.173 0-74.667 33.493-74.667 74.667v725.333c0 41.173 33.493 74.667 74.667 74.667h234.667v-64h-234.667c-5.888 0-10.667-4.779-10.667-10.667v-725.333c0-5.888 4.779-10.667 10.667-10.667h597.333c5.888 0 10.667 4.779 10.667 10.667v346.667h64v-346.667c0-41.173-33.493-74.667-74.667-74.667zM704 416h-288v288h64v-224h224zM425.367 470.626l383.999 383.999 45.254-45.254-383.999-383.999-45.254 45.254z" />
<glyph unicode="&#xe924;" glyph-name="afferent-three" d="M832 32h-640c-52.949 0-96 43.093-96 96v640c0 52.949 43.051 96 96 96h213.333v-64h-213.333c-17.664 0-32-14.336-32-32v-640c0-17.621 14.336-32 32-32h640c17.621 0 32 14.379 32 32v213.333h64v-213.333c0-52.907-43.093-96-96-96zM449.109 300.885l-95.445 286.336 60.672 20.224 75.221-225.664 225.664 75.221 20.224-60.715zM499.669 331.221l-60.715 20.267c111.275 333.824 181.675 400.597 402.475 488.917l23.765-59.435c-198.4-79.403-260.224-133.931-365.525-449.749z" />
<glyph unicode="&#xe925;" glyph-name="afferent-two" d="M464 32h-272c-52.949 0-96 43.093-96 96v640c0 52.949 43.051 96 96 96h640c52.907 0 96-43.051 96-96v-368h-64v368c0 17.664-14.379 32-32 32h-640c-17.664 0-32-14.336-32-32v-640c0-17.621 14.336-32 32-32h272v-64zM512 266.667h384v-64h-384v64zM617.387 84.053l-150.656 150.613 150.656 150.613 45.227-45.227-105.344-105.387 105.344-105.387z" />
<glyph unicode="&#xe926;" glyph-name="afro-pick" d="M568.661-23.296l-527.957 528 384.683 384.64 45.227-45.227-339.413-339.413 437.461-437.504 339.413 339.413 45.269-45.227zM184.013 406.652l362.035 362.035 45.254-45.254-362.035-362.035-45.254 45.254zM304.699 285.939l362.035 362.035 45.254-45.254-362.035-362.035-45.254 45.254zM425.384 165.291l362.035 362.035 45.254-45.254-362.035-362.035-45.254 45.254zM342.4 21.973l-62.549 62.592-98.517 32.853-32.853 98.475-62.507 62.549 135.765 135.765 256.427-256.427-135.765-135.808zM231.936 167.979l82.517-27.52 27.989-27.989 45.269 45.312-165.931 165.931-45.269-45.269 27.989-27.947 27.435-82.517z" />
<glyph unicode="&#xe927;" glyph-name="agreement" d="M810.667-10.667h-597.333c-41.173 0-74.667 33.493-74.667 74.667v768c0 41.173 33.493 74.667 74.667 74.667h597.333c41.173 0 74.667-33.493 74.667-74.667v-768c0-41.173-33.493-74.667-74.667-74.667zM213.333 842.667c-5.888 0-10.667-4.779-10.667-10.667v-768c0-5.888 4.779-10.667 10.667-10.667h597.333c5.888 0 10.667 4.779 10.667 10.667v768c0 5.888-4.779 10.667-10.667 10.667h-597.333zM512.085 509.397l-74.752 66.475-74.752-66.432-53.248 23.893v373.333h256v-373.333l-53.248-23.936zM437.333 661.461l64-56.875v238.080h-128v-238.080l64 56.875zM341.333 394.667h213.333v-64h-213.333v64zM341.333 266.667h341.333v-64h-341.333v64z" />
<glyph unicode="&#xe928;" glyph-name="aiming" d="M512-10.667c-252.928 0-458.667 205.739-458.667 458.667s205.739 458.667 458.667 458.667 458.667-205.739 458.667-458.667-205.739-458.667-458.667-458.667zM512 842.667c-217.643 0-394.667-177.024-394.667-394.667s177.024-394.667 394.667-394.667 394.667 177.024 394.667 394.667-177.024 394.667-394.667 394.667zM480 170.667h64v-149.333h-64v149.333zM768 480h170.667v-64h-170.667v64zM85.333 480h149.333v-64h-149.333v64zM480 874.667h64v-149.333h-64v149.333z" />
<glyph unicode="&#xe929;" glyph-name="air-bike" d="M85.333 53.333h853.333v-64h-853.333v64zM906.667 21.333h-64v155.307c0 110.123-108.629 111.36-113.237 111.36h-132.096v64h132.096c71.253 0 177.237-46.72 177.237-175.36v-155.307zM775.808 306.731l-58.283 26.539 100.608 221.312-121.856 264.021 58.112 26.795 134.144-290.645zM606.787 819.085l213.355 85.287 23.757-59.43-213.355-85.287-23.757 59.43zM426.667 117.333c-111.744 0-202.667 90.923-202.667 202.667s90.923 202.667 202.667 202.667 202.667-90.923 202.667-202.667-90.923-202.667-202.667-202.667zM426.667 458.667c-76.459 0-138.667-62.208-138.667-138.667s62.208-138.667 138.667-138.667 138.667 62.208 138.667 138.667-62.208 138.667-138.667 138.667zM426.667 352h170.667v-64h-170.667v64zM273.425 662.982l50.522 39.29 149.327-192.016-50.522-39.29-149.327 192.016zM213.333 714.667h170.667v-64h-170.667v64zM426.667 117.333v64c76.459 0 138.667 62.208 138.667 138.667s-62.208 138.667-138.667 138.667v64c111.744 0 202.667-90.923 202.667-202.667s-90.923-202.667-202.667-202.667z" />
<glyph unicode="&#xe92a;" glyph-name="air-conditioning" d="M896 330.667h-768c-41.173 0-74.667 33.493-74.667 74.667v341.333c0 41.173 33.493 74.667 74.667 74.667h768c41.173 0 74.667-33.493 74.667-74.667v-341.333c0-41.173-33.493-74.667-74.667-74.667zM128 757.333c-5.888 0-10.667-4.779-10.667-10.667v-341.333c0-5.888 4.779-10.667 10.667-10.667h768c5.888 0 10.667 4.779 10.667 10.667v341.333c0 5.888-4.779 10.667-10.667 10.667h-768zM800 330.667h-576v234.667h576v-234.667zM288 394.667h448v106.667h-448v-106.667zM682.667 693.333h85.333v-64h-85.333v64zM480 234.667h64v-128h-64v128zM309.333 192h64v-42.667h-64v42.667zM650.667 192h64v-42.667h-64v42.667z" />
<glyph unicode="&#xe92b;" glyph-name="airplane" d="M671.403-8.619l-159.403 59.776-159.445-59.776-38.357 46.933 101.803 162.859v131.029l-341.333-170.667v152.107l330.667 275.627v145.92c0 101.333 59.093 153.771 93.995 168.875l12.672 5.461 12.672-5.461c34.901-15.061 93.995-67.584 93.995-168.875v-145.92l330.667-275.584v-152.107l-341.333 170.667v-131.029l101.803-162.859-38.4-46.976zM512 119.509l93.483-35.029-61.483 98.389v252.971l341.333-170.667v18.56l-330.667 275.584v175.872c0 55.552-24.619 87.637-42.667 102.101-18.048-14.421-42.667-46.549-42.667-102.101v-175.915l-330.667-275.627v-18.56l341.333 170.667v-252.971l-61.483-98.389 93.483 35.115z" />
<glyph unicode="&#xe92c;" glyph-name="airplane-window" d="M512-10.667c-182.315 0-330.667 148.352-330.667 330.667v256c0 182.315 148.352 330.667 330.667 330.667s330.667-148.352 330.667-330.667v-256c0-182.315-148.352-330.667-330.667-330.667zM512 842.667c-147.029 0-266.667-119.637-266.667-266.667v-256c0-147.029 119.637-266.667 266.667-266.667s266.667 119.637 266.667 266.667v256c0 147.029-119.637 266.667-266.667 266.667zM213.333 629.333h597.333v-64h-597.333v64zM469.333 757.333h85.333v-64h-85.333v64zM298.667 74.667v64c38.741 0 42.667 8.619 42.667 45.44l49.493 26.795c22.016-14.379 51.627-10.283 69.76-0.512 5.845 3.2 19.413 11.904 19.413 24.277 0 34.133-13.867 45.44-96 45.44h-44.629l14.293 42.24c0.384 1.408 5.035 20.352-13.653 38.997-13.653 13.611-75.904 17.237-123.179 12.16l-7.040 63.573c30.592 3.456 133.76 11.264 175.488-30.507 20.48-20.48 29.397-43.221 32.128-63.104 56.107-2.816 126.592-18.773 126.592-108.843 0-32.469-19.797-62.592-52.949-80.555-27.776-15.061-60.501-19.84-90.667-14.208-8.832-31.36-33.365-65.195-101.717-65.195zM769.621 232.576c-10.453 0-20.821 1.664-30.677 5.035-16.341 5.589-36.949 17.749-52.651 44.203-30.421-5.248-59.605-0.085-82.048 15.104-25.088 16.981-38.912 44.117-38.912 76.373 0 35.968 17.835 66.944 47.701 82.944 12.245 6.528 25.472 10.069 38.571 10.581 4.352 18.347 14.507 37.035 34.645 50.432 44.971 29.995 118.784-7.893 140.288-20.181l-31.701-55.595c-27.648 15.701-64.299 26.88-73.301 22.357-12.245-8.192-7.893-29.312-7.851-29.483l-48.811-34.389c-5.717 3.84-14.464 3.627-21.717-0.171-6.315-3.413-13.867-10.752-13.867-26.539 0-10.795 3.541-18.475 10.795-23.381 11.819-7.979 32.213-8.192 52.011-0.256l31.488 12.629 10.752-32.213c3.968-11.989 11.605-27.264 25.344-31.957 11.904-4.139 24.96 0.299 33.195 5.803l35.499-53.248c-17.835-11.819-38.485-18.048-58.752-18.048zM533.333-10.667v64c135.296 0 245.333 110.037 245.333 245.333v277.333c0 147.029-119.637 266.667-266.667 266.667v64c182.315 0 330.667-148.352 330.667-330.667v-277.333c0-170.581-138.752-309.333-309.333-309.333zM490.667-10.667c-170.581 0-309.333 138.752-309.333 309.333v277.333c0 182.315 148.352 330.667 330.667 330.667v-64c-147.029 0-266.667-119.637-266.667-266.667v-277.333c0-135.296 110.080-245.333 245.333-245.333v-64z" />
<glyph unicode="&#xe92d;" glyph-name="airplane-window-one" d="M810.88 269.056l-61.824 16.597 129.92 484.907c2.219 8.235 1.067 16.896-3.157 24.277-4.309 7.381-11.179 12.672-19.456 14.891-8.235 2.261-16.896 1.109-24.235-3.2-7.424-4.267-12.715-11.179-14.933-19.456l-138.795-518.016-61.824 16.597 138.795 518.016c6.656 24.789 22.528 45.44 44.757 58.283s48.256 16.213 72.832 9.557c24.747-6.613 45.44-22.485 58.283-44.715s16.213-48.085 9.6-72.875l-129.963-484.864zM800 117.333h-522.667c-52.949 0-96 43.093-96 96s43.051 96 96 96h522.667v-192zM277.333 245.333c-17.664 0-32-14.379-32-32s14.336-32 32-32h458.667v64h-458.667zM448 53.333h170.667v-64h-170.667v64zM234.667 416c-76.459 0-138.667 62.208-138.667 138.667v213.333c0 76.459 62.208 138.667 138.667 138.667s138.667-62.208 138.667-138.667v-213.333c0-76.459-62.208-138.667-138.667-138.667zM234.667 842.667c-41.173 0-74.667-33.493-74.667-74.667v-213.333c0-41.173 33.493-74.667 74.667-74.667s74.667 33.493 74.667 74.667v213.333c0 41.173-33.493 74.667-74.667 74.667zM128 693.333h213.333v-64h-213.333v64zM96 768h64v-213.333h-64v213.333zM309.333 768h64v-213.333h-64v213.333z" />
<glyph unicode="&#xe92e;" glyph-name="airplay" d="M970.667 181.035h-202.667v64h138.667v544.043c0 5.888-4.779 10.667-10.667 10.667h-768c-5.888 0-10.667-4.779-10.667-10.667v-544h138.667v-64h-202.667v608c0 41.173 33.493 74.667 74.667 74.667h768c41.173 0 74.667-33.493 74.667-74.667v-608.043zM725.333 32h-426.667l-22.613 54.613 235.947 235.947 235.947-235.947-22.613-54.613zM375.936 96h272.171l-136.107 136.064-136.064-136.064z" />
<glyph unicode="&#xe92f;" glyph-name="airpods" d="M736-10.667h-192v693.333c0 123.52 100.48 224 224 224 84.139 0 160.427-46.464 199.083-121.259l3.584-6.912v-191.616l-3.584-6.912c-38.656-74.837-114.944-121.301-199.083-121.301-10.752 0-21.461 0.768-32 2.261v-471.595zM608 53.333h64v493.483l42.667-15.061c17.067-6.016 34.987-9.088 53.333-9.088 57.643 0 110.080 30.507 138.667 80.085v159.829c-28.587 49.579-81.024 80.085-138.667 80.085-88.192 0-160-71.765-160-160v-629.333zM480-10.667h-192v471.595c-10.539-1.493-21.248-2.261-32-2.261-84.139 0-160.427 46.464-199.125 121.259l-3.541 6.912v191.659l3.541 6.912c38.699 74.795 114.987 121.259 199.125 121.259 123.52 0 224-100.48 224-224v-693.333zM352 53.333h64v629.333c0 88.235-71.765 160-160 160-57.643 0-110.080-30.507-138.667-80.085v-159.787c28.587-49.621 81.024-80.128 138.667-80.128 18.304 0 36.267 3.072 53.333 9.088l42.667 15.061v-493.483zM298.667 714.667h21.333v-64h-21.333v64zM704 714.667h21.333v-64h-21.333v64z" />
<glyph unicode="&#xe930;" glyph-name="alarm" d="M757.333 53.333h-490.667v373.333c0 135.253 110.080 245.333 245.333 245.333 135.296 0 245.333-110.080 245.333-245.333v-373.333zM330.667 117.333h362.667v309.333c0 99.968-81.323 181.333-181.333 181.333-99.968 0-181.333-81.365-181.333-181.333v-309.333zM480 853.333h64v-64h-64v64zM700.102 732.588l41.171 49.005 49.005-41.171-41.171-49.005-49.005 41.171zM832.085 547.652l63.034 11.085 11.085-63.034-63.034-11.085-11.085 63.034zM117.777 495.709l11.123 63.027 63.027-11.123-11.123-63.027-63.027 11.123zM233.842 740.426l49.011 41.158 41.158-49.011-49.011-41.158-41.158 49.011zM128 117.333h789.333v-64h-789.333v64z" />
<glyph unicode="&#xe931;" glyph-name="alarm-clock" d="M512-17.792c-233.301 0-423.125 189.824-423.125 423.125s189.824 423.125 423.125 423.125c233.301 0 423.125-189.824 423.125-423.125s-189.824-423.125-423.125-423.125zM512 764.459c-198.016 0-359.125-161.067-359.125-359.125s161.109-359.125 359.125-359.125c198.059 0 359.125 161.067 359.125 359.125 0 198.016-161.067 359.125-359.125 359.125zM650.027 209.152l-175.189 175.189 0.043 248.107h64l-0.043-221.611 156.459-156.416zM66.72 794.020l149.322 106.674 37.203-52.077-149.322-106.674-37.203 52.077zM770.686 848.611l37.197 52.077 149.322-106.656-37.197-52.077-149.322 106.656z" />
<glyph unicode="&#xe932;" glyph-name="align-bottom" d="M693.333 202.667h-362.667v661.333h362.667v-661.333zM394.667 266.667h234.667v533.333h-234.667v-533.333zM128 96h768v-64h-768v64z" />
<glyph unicode="&#xe933;" glyph-name="align-bottom-two" d="M309.333 74.667h-192v576h192v-576zM181.333 138.667h64v448h-64v-448zM608 74.667h-192v746.667h192v-746.667zM480 138.667h64v618.667h-64v-618.667zM906.667 74.667h-192v448h192v-448zM778.667 138.667h64v320h-64v-320z" />
<glyph unicode="&#xe934;" glyph-name="align-horizontal-center-two" d="M309.333 160h-192v576h192v-576zM181.333 224h64v448h-64v-448zM608 74.667h-192v746.667h192v-746.667zM480 138.667h64v618.667h-64v-618.667zM906.667 224h-192v448h192v-448zM778.667 288h64v320h-64v-320z" />
<glyph unicode="&#xe935;" glyph-name="align-horizontally" d="M906.667 266.667h-789.333v362.667h789.333v-362.667zM181.333 330.667h661.333v234.667h-661.333v-234.667zM480 832h64v-768h-64v768z" />
<glyph unicode="&#xe936;" glyph-name="align-left" d="M938.667 266.667h-661.333v362.667h661.333v-362.667zM341.333 330.667h533.333v234.667h-533.333v-234.667zM106.667 832h64v-768h-64v768z" />
<glyph unicode="&#xe937;" glyph-name="align-left-one" d="M714.667 672h-405.333v192h405.333v-192zM373.333 736h277.333v64h-277.333v-64zM96 832h64v-768h-64v768zM800 352h-490.667v192h490.667v-192zM373.333 416h362.667v64h-362.667v-64zM928 32h-618.667v192h618.667v-192zM373.333 96h490.667v64h-490.667v-64z" />
<glyph unicode="&#xe938;" glyph-name="align-left-two" d="M714.667 650.667h-576v192h576v-192zM202.667 714.667h448v64h-448v-64zM885.333 352h-746.667v192h746.667v-192zM202.667 416h618.667v64h-618.667v-64zM586.667 53.333h-448v192h448v-192zM202.667 117.333h320v64h-320v-64z" />
<glyph unicode="&#xe939;" glyph-name="alignment-bottom-center" d="M832 32h-640c-52.949 0-96 43.093-96 96v640c0 52.949 43.051 96 96 96h640c52.907 0 96-43.051 96-96v-640c0-52.907-43.093-96-96-96zM192 800c-17.664 0-32-14.336-32-32v-640c0-17.621 14.336-32 32-32h640c17.621 0 32 14.379 32 32v640c0 17.664-14.379 32-32 32h-640zM352 277.333h64v-85.333h-64v85.333zM480 448h64v-256h-64v256zM608 362.667h64v-170.667h-64v170.667z" />
<glyph unicode="&#xe93a;" glyph-name="alignment-bottom-left" d="M832 32h-640c-52.949 0-96 43.093-96 96v640c0 52.949 43.051 96 96 96h640c52.907 0 96-43.051 96-96v-640c0-52.907-43.093-96-96-96zM192 800c-17.664 0-32-14.336-32-32v-640c0-17.621 14.336-32 32-32h640c17.621 0 32 14.379 32 32v640c0 17.664-14.379 32-32 32h-640zM224 277.333h64v-85.333h-64v85.333zM352 448h64v-256h-64v256zM480 362.667h64v-170.667h-64v170.667z" />
<glyph unicode="&#xe93b;" glyph-name="alignment-bottom-right" d="M832 32h-640c-52.949 0-96 43.093-96 96v640c0 52.949 43.051 96 96 96h640c52.907 0 96-43.051 96-96v-640c0-52.907-43.093-96-96-96zM192 800c-17.664 0-32-14.336-32-32v-640c0-17.621 14.336-32 32-32h640c17.621 0 32 14.379 32 32v640c0 17.664-14.379 32-32 32h-640zM480 277.333h64v-85.333h-64v85.333zM608 448h64v-256h-64v256zM736 362.667h64v-170.667h-64v170.667z" />
<glyph unicode="&#xe93c;" glyph-name="alignment-horizontal-bottom" d="M832 32h-640c-52.949 0-96 43.093-96 96v640c0 52.949 43.051 96 96 96h640c52.907 0 96-43.051 96-96v-640c0-52.907-43.093-96-96-96zM192 800c-17.664 0-32-14.336-32-32v-640c0-17.621 14.336-32 32-32h640c17.621 0 32 14.379 32 32v640c0 17.664-14.379 32-32 32h-640zM469.333 224h85.333v-64h-85.333v64zM384 352h256v-64h-256v64zM426.667 480h170.667v-64h-170.667v64z" />
<glyph unicode="&#xe93d;" glyph-name="alignment-horizontal-center" d="M832 32h-640c-52.949 0-96 43.093-96 96v640c0 52.949 43.051 96 96 96h640c52.907 0 96-43.051 96-96v-640c0-52.907-43.093-96-96-96zM192 800c-17.664 0-32-14.336-32-32v-640c0-17.621 14.336-32 32-32h640c17.621 0 32 14.379 32 32v640c0 17.664-14.379 32-32 32h-640zM469.333 352h85.333v-64h-85.333v64zM384 480h256v-64h-256v64zM426.667 608h170.667v-64h-170.667v64z" />
<glyph unicode="&#xe93e;" glyph-name="alignment-horizontal-top" d="M832 32h-640c-52.949 0-96 43.093-96 96v640c0 52.949 43.051 96 96 96h640c52.907 0 96-43.051 96-96v-640c0-52.907-43.093-96-96-96zM192 800c-17.664 0-32-14.336-32-32v-640c0-17.621 14.336-32 32-32h640c17.621 0 32 14.379 32 32v640c0 17.664-14.379 32-32 32h-640zM469.333 480h85.333v-64h-85.333v64zM384 608h256v-64h-256v64zM426.667 736h170.667v-64h-170.667v64z" />
<glyph unicode="&#xe93f;" glyph-name="alignment-left-bottom" d="M832 32h-640c-52.949 0-96 43.093-96 96v640c0 52.949 43.051 96 96 96h640c52.907 0 96-43.051 96-96v-640c0-52.907-43.093-96-96-96zM192 800c-17.664 0-32-14.336-32-32v-640c0-17.621 14.336-32 32-32h640c17.621 0 32 14.379 32 32v640c0 17.664-14.379 32-32 32h-640zM256 224h85.333v-64h-85.333v64zM256 352h256v-64h-256v64zM256 480h170.667v-64h-170.667v64z" />
<glyph unicode="&#xe940;" glyph-name="alignment-left-center" d="M832 32h-640c-52.949 0-96 43.093-96 96v640c0 52.949 43.051 96 96 96h640c52.907 0 96-43.051 96-96v-640c0-52.907-43.093-96-96-96zM192 800c-17.664 0-32-14.336-32-32v-640c0-17.621 14.336-32 32-32h640c17.621 0 32 14.379 32 32v640c0 17.664-14.379 32-32 32h-640zM256 352h85.333v-64h-85.333v64zM256 480h256v-64h-256v64zM256 608h170.667v-64h-170.667v64z" />
<glyph unicode="&#xe941;" glyph-name="alignment-left-top" d="M832 32h-640c-52.949 0-96 43.093-96 96v640c0 52.949 43.051 96 96 96h640c52.907 0 96-43.051 96-96v-640c0-52.907-43.093-96-96-96zM192 800c-17.664 0-32-14.336-32-32v-640c0-17.621 14.336-32 32-32h640c17.621 0 32 14.379 32 32v640c0 17.664-14.379 32-32 32h-640zM256 480h85.333v-64h-85.333v64zM256 608h256v-64h-256v64zM256 736h170.667v-64h-170.667v64z" />
<glyph unicode="&#xe942;" glyph-name="alignment-right-bottom" d="M832 32h-640c-52.949 0-96 43.093-96 96v640c0 52.949 43.051 96 96 96h640c52.907 0 96-43.051 96-96v-640c0-52.907-43.093-96-96-96zM192 800c-17.664 0-32-14.336-32-32v-640c0-17.621 14.336-32 32-32h640c17.621 0 32 14.379 32 32v640c0 17.664-14.379 32-32 32h-640zM682.667 224h85.333v-64h-85.333v64zM512 352h256v-64h-256v64zM597.333 480h170.667v-64h-170.667v64z" />
<glyph unicode="&#xe943;" glyph-name="alignment-right-center" d="M832 32h-640c-52.949 0-96 43.093-96 96v640c0 52.949 43.051 96 96 96h640c52.907 0 96-43.051 96-96v-640c0-52.907-43.093-96-96-96zM192 800c-17.664 0-32-14.336-32-32v-640c0-17.621 14.336-32 32-32h640c17.621 0 32 14.379 32 32v640c0 17.664-14.379 32-32 32h-640zM682.667 352h85.333v-64h-85.333v64zM512 480h256v-64h-256v64zM597.333 608h170.667v-64h-170.667v64z" />
<glyph unicode="&#xe944;" glyph-name="alignment-right-top" d="M832 32h-640c-52.949 0-96 43.093-96 96v640c0 52.949 43.051 96 96 96h640c52.907 0 96-43.051 96-96v-640c0-52.907-43.093-96-96-96zM192 800c-17.664 0-32-14.336-32-32v-640c0-17.621 14.336-32 32-32h640c17.621 0 32 14.379 32 32v640c0 17.664-14.379 32-32 32h-640zM682.667 480h85.333v-64h-85.333v64zM512 608h256v-64h-256v64zM597.333 736h170.667v-64h-170.667v64z" />
<glyph unicode="&#xe945;" glyph-name="alignment-top-center" d="M832 32h-640c-52.949 0-96 43.093-96 96v640c0 52.949 43.051 96 96 96h640c52.907 0 96-43.051 96-96v-640c0-52.907-43.093-96-96-96zM192 800c-17.664 0-32-14.336-32-32v-640c0-17.621 14.336-32 32-32h640c17.621 0 32 14.379 32 32v640c0 17.664-14.379 32-32 32h-640zM352 704h64v-85.333h-64v85.333zM480 704h64v-256h-64v256zM608 704h64v-170.667h-64v170.667z" />
<glyph unicode="&#xe946;" glyph-name="alignment-top-left" d="M832 32h-640c-52.949 0-96 43.093-96 96v640c0 52.949 43.051 96 96 96h640c52.907 0 96-43.051 96-96v-640c0-52.907-43.093-96-96-96zM192 800c-17.664 0-32-14.336-32-32v-640c0-17.621 14.336-32 32-32h640c17.621 0 32 14.379 32 32v640c0 17.664-14.379 32-32 32h-640zM224 704h64v-85.333h-64v85.333zM352 704h64v-256h-64v256zM480 704h64v-170.667h-64v170.667z" />
<glyph unicode="&#xe947;" glyph-name="alignment-top-right" d="M832 32h-640c-52.949 0-96 43.093-96 96v640c0 52.949 43.051 96 96 96h640c52.907 0 96-43.051 96-96v-640c0-52.907-43.093-96-96-96zM192 800c-17.664 0-32-14.336-32-32v-640c0-17.621 14.336-32 32-32h640c17.621 0 32 14.379 32 32v640c0 17.664-14.379 32-32 32h-640zM480 704h64v-85.333h-64v85.333zM608 704h64v-256h-64v256zM736 704h64v-170.667h-64v170.667z" />
<glyph unicode="&#xe948;" glyph-name="alignment-vertical-center" d="M832 32h-640c-52.949 0-96 43.093-96 96v640c0 52.949 43.051 96 96 96h640c52.907 0 96-43.051 96-96v-640c0-52.907-43.093-96-96-96zM192 800c-17.664 0-32-14.336-32-32v-640c0-17.621 14.336-32 32-32h640c17.621 0 32 14.379 32 32v640c0 17.664-14.379 32-32 32h-640zM352 490.667h64v-85.333h-64v85.333zM480 576h64v-256h-64v256zM608 533.333h64v-170.667h-64v170.667z" />
<glyph unicode="&#xe949;" glyph-name="alignment-vertical-left" d="M832 32h-640c-52.949 0-96 43.093-96 96v640c0 52.949 43.051 96 96 96h640c52.907 0 96-43.051 96-96v-640c0-52.907-43.093-96-96-96zM192 800c-17.664 0-32-14.336-32-32v-640c0-17.621 14.336-32 32-32h640c17.621 0 32 14.379 32 32v640c0 17.664-14.379 32-32 32h-640zM224 490.667h64v-85.333h-64v85.333zM352 576h64v-256h-64v256zM480 533.333h64v-170.667h-64v170.667z" />
<glyph unicode="&#xe94a;" glyph-name="alignment-vertical-right" d="M832 32h-640c-52.949 0-96 43.093-96 96v640c0 52.949 43.051 96 96 96h640c52.907 0 96-43.051 96-96v-640c0-52.907-43.093-96-96-96zM192 800c-17.664 0-32-14.336-32-32v-640c0-17.621 14.336-32 32-32h640c17.621 0 32 14.379 32 32v640c0 17.664-14.379 32-32 32h-640zM480 490.667h64v-85.333h-64v85.333zM608 576h64v-256h-64v256zM736 533.333h64v-170.667h-64v170.667z" />
<glyph unicode="&#xe94b;" glyph-name="align-right" d="M757.333 266.667h-661.333v362.667h661.333v-362.667zM160 330.667h533.333v234.667h-533.333v-234.667zM864 832h64v-768h-64v768z" />
<glyph unicode="&#xe94c;" glyph-name="align-right-one" d="M864 832h64v-768h-64v768zM714.667 672h-405.333v192h405.333v-192zM373.333 736h277.333v64h-277.333v-64zM714.667 352h-490.667v192h490.667v-192zM288 416h362.667v64h-362.667v-64zM714.667 32h-618.667v192h618.667v-192zM160 96h490.667v64h-490.667v-64z" />
<glyph unicode="&#xe94d;" glyph-name="align-right-two" d="M885.333 650.667h-576v192h576v-192zM373.333 714.667h448v64h-448v-64zM885.333 352h-746.667v192h746.667v-192zM202.667 416h618.667v64h-618.667v-64zM885.333 53.333h-448v192h448v-192zM501.333 117.333h320v64h-320v-64z" />
<glyph unicode="&#xe94e;" glyph-name="align-text-both" d="M128 586.667h768v-64h-768v64zM128 800h768v-64h-768v64zM128 373.333h768v-64h-768v64zM128 160h768v-64h-768v64z" />
<glyph unicode="&#xe94f;" glyph-name="align-text-both-one" d="M832 32h-640c-52.949 0-96 43.093-96 96v640c0 52.949 43.051 96 96 96h640c52.907 0 96-43.051 96-96v-640c0-52.907-43.093-96-96-96zM192 800c-17.664 0-32-14.336-32-32v-640c0-17.621 14.336-32 32-32h640c17.621 0 32 14.379 32 32v640c0 17.664-14.379 32-32 32h-640zM298.667 480h426.667v-64h-426.667v64zM298.667 672h426.667v-64h-426.667v64zM298.667 288h426.667v-64h-426.667v64z" />
<glyph unicode="&#xe950;" glyph-name="align-text-bottom" d="M128 217.515h768v-64h-768v64zM128 96h768v-64h-768v64zM512 296.064l-150.613 150.656 45.227 45.227 105.387-105.344 105.387 105.344 45.227-45.227zM480 832h64v-490.667h-64v490.667z" />
<glyph unicode="&#xe951;" glyph-name="align-text-bottom-one" d="M832 32h-640c-52.949 0-96 43.093-96 96v640c0 52.949 43.051 96 96 96h640c52.907 0 96-43.051 96-96v-640c0-52.907-43.093-96-96-96zM192 800c-17.664 0-32-14.336-32-32v-640c0-17.621 14.336-32 32-32h640c17.621 0 32 14.379 32 32v640c0 17.664-14.379 32-32 32h-640zM298.667 416h426.667v-64h-426.667v64zM298.667 266.667h277.333v-64h-277.333v64z" />
<glyph unicode="&#xe952;" glyph-name="align-text-center" d="M256 586.667h512v-64h-512v64zM128 800h768v-64h-768v64zM128 373.333h768v-64h-768v64zM256 160h512v-64h-512v64z" />
<glyph unicode="&#xe953;" glyph-name="align-text-center-one" d="M832 32h-640c-52.949 0-96 43.093-96 96v640c0 52.949 43.051 96 96 96h640c52.907 0 96-43.051 96-96v-640c0-52.907-43.093-96-96-96zM192 800c-17.664 0-32-14.336-32-32v-640c0-17.621 14.336-32 32-32h640c17.621 0 32 14.379 32 32v640c0 17.664-14.379 32-32 32h-640zM384 480h256v-64h-256v64zM298.667 672h426.667v-64h-426.667v64zM298.667 288h426.667v-64h-426.667v64z" />
<glyph unicode="&#xe954;" glyph-name="align-text-left" d="M128 800h768v-64h-768v64zM128 586.667h597.333v-64h-597.333v64zM128 373.333h768v-64h-768v64zM128 160h597.333v-64h-597.333v64z" />
<glyph unicode="&#xe955;" glyph-name="align-text-left-one" d="M832 32h-640c-52.949 0-96 43.093-96 96v640c0 52.949 43.051 96 96 96h640c52.907 0 96-43.051 96-96v-640c0-52.907-43.093-96-96-96zM192 800c-17.664 0-32-14.336-32-32v-640c0-17.621 14.336-32 32-32h640c17.621 0 32 14.379 32 32v640c0 17.664-14.379 32-32 32h-640zM298.667 480h256v-64h-256v64zM298.667 672h426.667v-64h-426.667v64zM298.667 288h384v-64h-384v64z" />
<glyph unicode="&#xe956;" glyph-name="align-text-middle" d="M617.387 169.387l-105.387 105.344-105.387-105.344-45.227 45.227 150.613 150.656 150.613-150.656zM480 298.667h64v-277.333h-64v277.333zM512 530.731l-150.613 150.656 45.227 45.227 105.387-105.344 105.387 105.344 45.227-45.227zM480 874.667h64v-277.333h-64v277.333zM128 480h768v-64h-768v64z" />
<glyph unicode="&#xe957;" glyph-name="align-text-middle-one" d="M832 32h-640c-52.949 0-96 43.093-96 96v640c0 52.949 43.051 96 96 96h640c52.907 0 96-43.051 96-96v-640c0-52.907-43.093-96-96-96zM192 800c-17.664 0-32-14.336-32-32v-640c0-17.621 14.336-32 32-32h640c17.621 0 32 14.379 32 32v640c0 17.664-14.379 32-32 32h-640zM298.667 565.333h426.667v-64h-426.667v64zM298.667 416h256v-64h-256v64z" />
<glyph unicode="&#xe958;" glyph-name="align-text-right" d="M128 800h768v-64h-768v64zM298.667 586.667h597.333v-64h-597.333v64zM128 373.333h768v-64h-768v64zM298.667 160h597.333v-64h-597.333v64z" />
<glyph unicode="&#xe959;" glyph-name="align-text-right-one" d="M832 32h-640c-52.949 0-96 43.093-96 96v640c0 52.949 43.051 96 96 96h640c52.907 0 96-43.051 96-96v-640c0-52.907-43.093-96-96-96zM192 800c-17.664 0-32-14.336-32-32v-640c0-17.621 14.336-32 32-32h640c17.621 0 32 14.379 32 32v640c0 17.664-14.379 32-32 32h-640zM469.333 480h256v-64h-256v64zM298.667 672h426.667v-64h-426.667v64zM341.333 288h384v-64h-384v64z" />
<glyph unicode="&#xe95a;" glyph-name="align-text-top" d="M128 217.515h768v-64h-768v64zM128 96h768v-64h-768v64zM617.387 681.387l-105.387 105.344-105.387-105.344-45.227 45.227 150.613 150.656 150.613-150.656zM480 832h64v-490.667h-64v490.667z" />
<glyph unicode="&#xe95b;" glyph-name="align-text-top-one" d="M832 32h-640c-52.949 0-96 43.093-96 96v640c0 52.949 43.051 96 96 96h640c52.907 0 96-43.051 96-96v-640c0-52.907-43.093-96-96-96zM192 800c-17.664 0-32-14.336-32-32v-640c0-17.621 14.336-32 32-32h640c17.621 0 32 14.379 32 32v640c0 17.664-14.379 32-32 32h-640zM298.667 565.333h256v-64h-256v64zM298.667 714.667h426.667v-64h-426.667v64z" />
<glyph unicode="&#xe95c;" glyph-name="align-top" d="M693.333 21.333h-362.667v661.333h362.667v-661.333zM394.667 85.333h234.667v533.333h-234.667v-533.333zM128 853.333h768v-64h-768v64z" />
<glyph unicode="&#xe95d;" glyph-name="align-top-two" d="M309.333 245.333h-192v576h192v-576zM181.333 309.333h64v448h-64v-448zM608 74.667h-192v746.667h192v-746.667zM480 138.667h64v618.667h-64v-618.667zM906.667 373.333h-192v448h192v-448zM778.667 437.333h64v320h-64v-320z" />
<glyph unicode="&#xe95e;" glyph-name="align-vertical-center-two" d="M800 650.667h-576v192h576v-192zM288 714.667h448v64h-448v-64zM885.333 352h-746.667v192h746.667v-192zM202.667 416h618.667v64h-618.667v-64zM736 53.333h-448v192h448v-192zM352 117.333h320v64h-320v-64z" />
<glyph unicode="&#xe95f;" glyph-name="align-vertically" d="M693.333 53.333h-362.667v789.333h362.667v-789.333zM394.667 117.333h234.667v661.333h-234.667v-661.333zM128 480h768v-64h-768v64z" />
<glyph unicode="&#xe960;" glyph-name="alipay" d="M512 960c282.752 0 512-229.248 512-512s-229.248-512-512-512-512 229.248-512 512 229.248 512 512 512zM512 866.901c-231.339 0-418.901-187.563-418.901-418.901s187.563-418.901 418.901-418.901c143.744 0 270.592 72.405 346.027 182.699-30.592 9.045-79.445 24.747-142.549 51.243-26.368 11.093-65.792 28.544-118.229 52.437-62.72-63.189-154.197-123.477-252.203-123.477-68.011 0.341-182.144 34.731-182.144 141.952s105.728 132.779 174.336 132.779c41.515 0 114.987-22.912 220.416-68.736l1.621-0.64c28.288 34.603 47.701 74.837 58.283 120.619l2.133 9.899h-184.576c-27.947 0-57.984 0-90.027 0v49.493h124.971v61.867h-174.976v37.12h174.976l0.043 74.197h99.968v-74.197h199.979v-37.12h-199.979v-61.867h159.701c-2.347-15.445-4.992-29.483-7.936-42.069l-1.792-7.381c-7.339-26.581-23.893-65.28-49.579-116.096-6.827-13.483-16.683-29.099-29.141-45.653 39.339-14.592 79.189-28.715 119.467-42.453 52.181-17.749 97.323-32.128 135.339-43.136 22.4 51.285 34.816 107.904 34.816 167.424-0.043 231.339-187.605 418.901-418.944 418.901zM220.075 351.061c0-68.224 142.72-95.403 258.347-23.595 13.013 8.064 25.173 16.725 36.48 25.856l-0.384 0.171-9.088 5.589c-72.149 43.904-128.213 67.712-168.149 71.424-36.693 3.413-117.205-11.221-117.205-79.445zM619.648 527.872v0 0z" />
<glyph unicode="&#xe961;" glyph-name="all-application" d="M384 501.333h-213.333c-41.173 0-74.667 33.493-74.667 74.667v213.333c0 41.173 33.493 74.667 74.667 74.667h213.333c41.173 0 74.667-33.493 74.667-74.667v-213.333c0-41.173-33.493-74.667-74.667-74.667zM170.667 800c-5.888 0-10.667-4.779-10.667-10.667v-213.333c0-5.888 4.779-10.667 10.667-10.667h213.333c5.888 0 10.667 4.779 10.667 10.667v213.333c0 5.888-4.779 10.667-10.667 10.667h-213.333zM384 32h-213.333c-41.173 0-74.667 33.493-74.667 74.667v213.333c0 41.173 33.493 74.667 74.667 74.667h213.333c41.173 0 74.667-33.493 74.667-74.667v-213.333c0-41.173-33.493-74.667-74.667-74.667zM170.667 330.667c-5.888 0-10.667-4.779-10.667-10.667v-213.333c0-5.888 4.779-10.667 10.667-10.667h213.333c5.888 0 10.667 4.779 10.667 10.667v213.333c0 5.888-4.779 10.667-10.667 10.667h-213.333zM853.333 501.333h-213.333c-41.173 0-74.667 33.493-74.667 74.667v213.333c0 41.173 33.493 74.667 74.667 74.667h213.333c41.173 0 74.667-33.493 74.667-74.667v-213.333c0-41.173-33.493-74.667-74.667-74.667zM640 800c-5.888 0-10.667-4.779-10.667-10.667v-213.333c0-5.888 4.779-10.667 10.667-10.667h213.333c5.888 0 10.667 4.779 10.667 10.667v213.333c0 5.888-4.779 10.667-10.667 10.667h-213.333zM853.333 32h-213.333c-41.173 0-74.667 33.493-74.667 74.667v213.333c0 41.173 33.493 74.667 74.667 74.667h213.333c41.173 0 74.667-33.493 74.667-74.667v-213.333c0-41.173-33.493-74.667-74.667-74.667zM640 330.667c-5.888 0-10.667-4.779-10.667-10.667v-213.333c0-5.888 4.779-10.667 10.667-10.667h213.333c5.888 0 10.667 4.779 10.667 10.667v213.333c0 5.888-4.779 10.667-10.667 10.667h-213.333z" />
<glyph unicode="&#xe962;" glyph-name="alphabetical-sorting" d="M736 874.667h64v-842.667h-64v842.667zM490.667-10.667h-341.333l-22.613 54.613 286.677 286.72h-264.064v64h341.333l22.613-54.613-286.677-286.72h264.064zM177.749 518.613l-56.832 29.44 176.555 341.333 57.216-0.811 164.821-341.333-57.643-27.819-136.96 283.691zM768-23.936l-193.28 193.323 45.227 45.227 148.053-148.011 148.053 148.011 45.227-45.227z" />
<glyph unicode="&#xe963;" glyph-name="alphabetical-sorting-two" d="M736 874.667h64v-842.667h-64v842.667zM490.667 501.333h-341.333l-22.613 54.613 286.677 286.72h-264.064v64h341.333l22.613-54.613-286.677-286.72h264.064zM177.749 6.613l-56.832 29.44 176.555 341.333 57.216-0.811 164.821-341.333-57.643-27.819-136.96 283.691zM768-23.936l-193.28 193.323 45.227 45.227 148.053-148.011 148.053 148.011 45.227-45.227z" />
<glyph unicode="&#xe964;" glyph-name="ambulance" d="M896 181.333h-85.333v64h85.333c5.888 0 10.667 4.779 10.667 10.667v147.157c0 13.397-8.448 25.515-21.035 30.080l-150.443 54.699c-37.76 13.696-63.147 49.963-63.147 90.197v147.2c0 5.888-4.779 10.667-10.667 10.667h-533.376c-5.888 0-10.667-4.779-10.667-10.667v-469.333c0-5.888 4.779-10.667 10.667-10.667h85.333v-64h-85.333c-41.173 0-74.667 33.493-74.667 74.667v469.333c0 41.173 33.493 74.667 74.667 74.667h533.333c41.173 0 74.667-33.493 74.667-74.667v-147.157c0-13.397 8.448-25.515 21.035-30.080l150.443-54.741c37.76-13.696 63.147-49.963 63.147-90.197v-147.157c0.043-41.173-33.451-74.667-74.624-74.667zM384 245.333h256v-64h-256v64zM256 586.667h170.667v-64h-170.667v64zM309.333 640h64v-170.667h-64v170.667zM298.667 96c-64.725 0-117.333 52.608-117.333 117.333s52.608 117.333 117.333 117.333 117.333-52.608 117.333-117.333-52.608-117.333-117.333-117.333zM298.667 266.667c-29.397 0-53.333-23.936-53.333-53.333s23.936-53.333 53.333-53.333 53.333 23.936 53.333 53.333-23.936 53.333-53.333 53.333zM725.333 96c-64.725 0-117.333 52.608-117.333 117.333s52.608 117.333 117.333 117.333 117.333-52.608 117.333-117.333-52.608-117.333-117.333-117.333zM725.333 266.667c-29.397 0-53.333-23.936-53.333-53.333s23.936-53.333 53.333-53.333 53.333 23.936 53.333 53.333-23.936 53.333-53.333 53.333z" />
<glyph unicode="&#xe965;" glyph-name="analysis" d="M970.667 565.333h-917.333v320h917.333v-320zM117.333 629.333h789.333v192h-789.333v-192zM108.075 62.208l-45.483 45.013 281.899 284.8 140.501-134.571 171.819 171.52 118.144-115.2-44.672-45.867-73.003 71.125-171.392-171.051-140.203 134.272zM906.667 614.997h64v-554.667h-64v554.667zM53.333 614.997h64v-298.667h-64v298.667zM277.675 74.667h660.992v-64h-660.992v64zM362.667 757.333h448v-64h-448v64zM213.333 757.376h21.333v-64h-21.333v64z" />
<glyph unicode="&#xe966;" glyph-name="anchor" d="M298.667 821.333h426.667v-64h-426.667v64zM298.667 138.667h426.667v-64h-426.667v64zM896 672h-85.333c-41.173 0-74.667 33.493-74.667 74.667v85.333c0 41.173 33.493 74.667 74.667 74.667h85.333c41.173 0 74.667-33.493 74.667-74.667v-85.333c0-41.173-33.493-74.667-74.667-74.667zM810.667 842.667c-5.888 0-10.667-4.779-10.667-10.667v-85.333c0-5.888 4.779-10.667 10.667-10.667h85.333c5.888 0 10.667 4.779 10.667 10.667v85.333c0 5.888-4.779 10.667-10.667 10.667h-85.333zM213.333 672h-85.333c-41.173 0-74.667 33.493-74.667 74.667v85.333c0 41.173 33.493 74.667 74.667 74.667h85.333c41.173 0 74.667-33.493 74.667-74.667v-85.333c0-41.173-33.493-74.667-74.667-74.667zM128 842.667c-5.888 0-10.667-4.779-10.667-10.667v-85.333c0-5.888 4.779-10.667 10.667-10.667h85.333c5.888 0 10.667 4.779 10.667 10.667v85.333c0 5.888-4.779 10.667-10.667 10.667h-85.333zM896-10.667h-85.333c-41.173 0-74.667 33.493-74.667 74.667v85.333c0 41.173 33.493 74.667 74.667 74.667h85.333c41.173 0 74.667-33.493 74.667-74.667v-85.333c0-41.173-33.493-74.667-74.667-74.667zM810.667 160c-5.888 0-10.667-4.779-10.667-10.667v-85.333c0-5.888 4.779-10.667 10.667-10.667h85.333c5.888 0 10.667 4.779 10.667 10.667v85.333c0 5.888-4.779 10.667-10.667 10.667h-85.333zM213.333-10.667h-85.333c-41.173 0-74.667 33.493-74.667 74.667v85.333c0 41.173 33.493 74.667 74.667 74.667h85.333c41.173 0 74.667-33.493 74.667-74.667v-85.333c0-41.173-33.493-74.667-74.667-74.667zM128 160c-5.888 0-10.667-4.779-10.667-10.667v-85.333c0-5.888 4.779-10.667 10.667-10.667h85.333c5.888 0 10.667 4.779 10.667 10.667v85.333c0 5.888-4.779 10.667-10.667 10.667h-85.333zM821.333 661.333h64v-426.667h-64v426.667zM138.667 661.333h64v-426.667h-64v426.667z" />
<glyph unicode="&#xe967;" glyph-name="anchor-one" d="M885.333 213.333h-64c0 188.587-149.845 501.333-309.333 501.333s-309.333-312.747-309.333-501.333h-64c0 198.571 153.941 565.333 373.333 565.333s373.333-366.763 373.333-565.333zM288 10.667h-234.667v234.667h234.667v-234.667zM117.333 74.667h106.667v106.667h-106.667v-106.667zM288 629.333h-234.667v234.667h234.667v-234.667zM117.333 693.333h106.667v106.667h-106.667v-106.667zM970.667 10.667h-234.667v234.667h234.667v-234.667zM800 74.667h106.667v106.667h-106.667v-106.667zM970.667 629.333h-234.667v234.667h234.667v-234.667zM800 693.333h106.667v106.667h-106.667v-106.667zM256 778.667h512v-64h-512v64z" />
<glyph unicode="&#xe968;" glyph-name="anchor-round" d="M928 149.333h-64c0 186.283-150.528 394.667-352 394.667s-352-208.384-352-394.667h-64c0 216.491 177.877 458.667 416 458.667 238.080 0 416-242.176 416-458.667zM213.333 693.333h213.333v-64h-213.333v64zM597.333 693.333h213.333v-64h-213.333v64zM149.333 565.333c-52.949 0-96 43.051-96 96s43.051 96 96 96 96-43.051 96-96-43.051-96-96-96zM149.333 693.333c-17.664 0-32-14.336-32-32s14.336-32 32-32 32 14.336 32 32-14.336 32-32 32zM874.667 565.333c-52.907 0-96 43.051-96 96s43.093 96 96 96 96-43.051 96-96-43.093-96-96-96zM874.667 693.333c-17.621 0-32-14.336-32-32s14.379-32 32-32 32 14.336 32 32-14.379 32-32 32zM512 544c-64.725 0-117.333 52.608-117.333 117.333s52.608 117.333 117.333 117.333 117.333-52.608 117.333-117.333-52.608-117.333-117.333-117.333zM512 714.667c-29.397 0-53.333-23.936-53.333-53.333s23.936-53.333 53.333-53.333 53.333 23.936 53.333 53.333-23.936 53.333-53.333 53.333z" />
<glyph unicode="&#xe969;" glyph-name="anchor-squre" d="M928 149.333h-64c0 186.283-150.528 394.667-352 394.667s-352-208.384-352-394.667h-64c0 216.491 177.877 458.667 416 458.667 238.080 0 416-242.176 416-458.667zM213.333 693.333h213.333v-64h-213.333v64zM597.333 693.333h213.333v-64h-213.333v64zM512 544c-64.725 0-117.333 52.608-117.333 117.333s52.608 117.333 117.333 117.333 117.333-52.608 117.333-117.333-52.608-117.333-117.333-117.333zM512 714.667c-29.397 0-53.333-23.936-53.333-53.333s23.936-53.333 53.333-53.333 53.333 23.936 53.333 53.333-23.936 53.333-53.333 53.333zM629.333 544h-234.667v234.667h234.667v-234.667zM458.667 608h106.667v106.667h-106.667v-106.667zM970.667 565.333h-192v192h192v-192zM842.667 629.333h64v64h-64v-64zM245.333 565.333h-192v192h192v-192zM117.333 629.333h64v64h-64v-64z" />
<glyph unicode="&#xe96a;" glyph-name="anchor-two" d="M512-10.667c-252.928 0-458.667 205.739-458.667 458.667v32h160v-64h-94.72c16.341-202.709 186.539-362.667 393.387-362.667s377.045 159.957 393.387 362.667h-94.72v64h160v-32c0-252.928-205.739-458.667-458.667-458.667zM480 661.333h64v-640h-64v640zM512 629.333c-76.459 0-138.667 62.208-138.667 138.667s62.208 138.667 138.667 138.667 138.667-62.208 138.667-138.667-62.208-138.667-138.667-138.667zM512 842.667c-41.173 0-74.667-33.493-74.667-74.667s33.493-74.667 74.667-74.667 74.667 33.493 74.667 74.667-33.493 74.667-74.667 74.667z" />
<glyph unicode="&#xe96b;" glyph-name="android" d="M971.861 160h-919.765l3.499 35.157c23.381 235.349 219.605 412.843 456.405 412.843 236.843 0 433.024-177.493 456.363-412.843l3.499-35.157zM124.373 224h775.253c-34.944 184.704-195.797 320-387.627 320-191.787 0-352.64-135.253-387.627-320zM185.521 666.81l55.565 31.75 85.324-149.321-55.565-31.75-85.324 149.321zM676.212 549.165l85.307 149.338 55.571-31.744-85.307-149.338-55.571 31.744zM362.667 341.333c0-23.564-19.103-42.667-42.667-42.667s-42.667 19.103-42.667 42.667c0 23.564 19.103 42.667 42.667 42.667s42.667-19.103 42.667-42.667zM746.667 341.333c0-23.564-19.103-42.667-42.667-42.667s-42.667 19.103-42.667 42.667c0 23.564 19.103 42.667 42.667 42.667s42.667-19.103 42.667-42.667z" />
<glyph unicode="&#xe96c;" glyph-name="angry-face" d="M512-10.667c-252.928 0-458.667 205.739-458.667 458.667s205.739 458.667 458.667 458.667 458.667-205.739 458.667-458.667-205.739-458.667-458.667-458.667zM512 842.667c-217.643 0-394.667-177.024-394.667-394.667s177.024-394.667 394.667-394.667 394.667 177.024 394.667 394.667-177.024 394.667-394.667 394.667zM632.832 198.784c-1.451 2.816-36.224 67.883-120.832 67.883s-119.381-65.067-120.832-67.883l-57.131 28.843c2.091 4.224 52.949 103.040 177.963 103.040s175.829-98.816 177.963-103.040l-57.131-28.843zM604.371 540.653l85.357 42.616 28.589-57.261-85.357-42.616-28.589 57.261zM305.675 526.040l28.621 57.242 85.328-42.664-28.621-57.242-85.328 42.664z" />
<glyph unicode="&#xe96d;" glyph-name="anguished-face" d="M512-10.667c-252.928 0-458.667 205.739-458.667 458.667s205.739 458.667 458.667 458.667 458.667-205.739 458.667-458.667-205.739-458.667-458.667-458.667zM512 842.667c-217.643 0-394.667-177.024-394.667-394.667s177.024-394.667 394.667-394.667 394.667 177.024 394.667 394.667-177.024 394.667-394.667 394.667zM629.333 576h64v-21.333h-64v21.333zM330.667 576h64v-21.333h-64v21.333zM554.667 160h-85.333c-64.725 0-117.333 52.608-117.333 117.333s52.608 117.333 117.333 117.333h85.333c64.725 0 117.333-52.608 117.333-117.333s-52.608-117.333-117.333-117.333zM469.333 330.667c-29.397 0-53.333-23.936-53.333-53.333s23.936-53.333 53.333-53.333h85.333c29.397 0 53.333 23.936 53.333 53.333s-23.936 53.333-53.333 53.333h-85.333z" />
<glyph unicode="&#xe96e;" glyph-name="announcement" d="M896 53.333h-768c-41.173 0-74.667 33.493-74.667 74.667v469.333c0 41.173 33.493 74.667 74.667 74.667h768c41.173 0 74.667-33.493 74.667-74.667v-469.333c0-41.173-33.493-74.667-74.667-74.667zM128 608c-5.888 0-10.667-4.779-10.667-10.667v-469.333c0-5.888 4.779-10.667 10.667-10.667h768c5.888 0 10.667 4.779 10.667 10.667v469.333c0 5.888-4.779 10.667-10.667 10.667h-768zM682.667 608h-341.333l-22.613 54.613 193.28 193.323 193.28-193.28-22.613-54.656zM418.603 672h186.837l-93.44 93.397-93.397-93.397zM256 480h384v-64h-384v64zM256 309.333h170.667v-64h-170.667v64z" />
<glyph unicode="&#xe96f;" glyph-name="anti-corrosion" d="M548.139 31.957c-11.776 0-23.893 0.043-36.395 0.128h-0.085c-381.653 3.925-458.325 41.856-458.325 101.888 0 89.6 348.885 473.984 458.667 473.984s458.667-384.341 458.667-473.984c0-10.965-3.2-27.264-18.645-42.496-28.117-27.947-100.053-59.52-403.883-59.52zM512.256 96.085c346.837-2.261 390.229 34.091 395.349 41.515-6.869 61.952-320 406.357-395.563 406.357-69.12 0-371.2-329.856-393.643-406.229 14.037-10.325 81.067-38.443 393.856-41.643v0zM347.504 255.127l77.238 92.533 49.133-41.011-77.238-92.533-49.133 41.011zM522.667 725.333c29.44 0 53.333 23.893 53.333 53.333s-23.893 53.333-53.333 53.333-53.333-23.893-53.333-53.333c0-29.44 23.893-53.333 53.333-53.333zM725.333 618.667c23.552 0 42.667 19.115 42.667 42.667s-19.115 42.667-42.667 42.667-42.667-19.115-42.667-42.667c0-23.552 19.115-42.667 42.667-42.667zM256 512c23.552 0 42.667 19.115 42.667 42.667s-19.115 42.667-42.667 42.667-42.667-19.115-42.667-42.667c0-23.552 19.115-42.667 42.667-42.667zM373.333 640c17.664 0 32 14.336 32 32s-14.336 32-32 32-32-14.336-32-32c0-17.664 14.336-32 32-32z" />
<glyph unicode="&#xe970;" glyph-name="aperture-priority" d="M755.797 672h-487.552l96 192h295.552l96-192zM371.755 736h280.448l-32 64h-216.448l-32-64zM874.667 32h-725.333c-52.949 0-96 41.173-96 91.733v520.533c0 50.603 43.051 91.733 96 91.733h725.333c52.907 0 96-41.131 96-91.733v-520.533c0-50.56-43.093-91.733-96-91.733zM149.333 672c-17.664 0-32-12.459-32-27.733v-520.533c0-15.275 14.336-27.733 32-27.733h725.333c17.621 0 32 12.459 32 27.733v520.533c0 15.275-14.379 27.733-32 27.733h-725.333zM632.704 220.373l-120.704 241.408-120.704-241.408-57.259 28.587 177.963 355.925 177.963-355.925zM405.333 351.147h213.333v-64h-213.333v64z" />
<glyph unicode="&#xe971;" glyph-name="api" d="M725.333 381.397l-279.936 279.936 86.613 86.613c47.232 47.275 182.272 97.664 279.936 0 97.707-97.707 47.275-232.661 0-279.936l-86.613-86.613zM535.936 661.333l189.397-189.397 41.387 41.387c20.053 20.053 71.040 118.4 0 189.397-70.997 70.997-169.344 20.011-189.397 0l-41.387-41.387zM766.691 747.948l106.68 106.68 45.254-45.254-106.68-106.68-45.254 45.254zM345.515 92.117c-44.885 0-92.459 14.933-133.461 55.936-97.707 97.707-47.275 232.619 0 279.936l86.613 86.613 279.936-279.936-86.613-86.613c-27.477-27.435-84.395-55.936-146.475-55.936zM298.667 424.064l-41.387-41.387c-20.053-20.053-71.040-118.357 0-189.397s169.387-20.096 189.397 0l41.387 41.387-189.397 189.397zM468.040 299.97l85.32 85.32 45.254-45.254-85.32-85.32-45.254 45.254zM105.358 86.627l106.68 106.68 45.254-45.254-106.68-106.68-45.254 45.254zM318.707 449.303l85.32 85.32 45.254-45.254-85.32-85.32-45.254 45.254z" />
<glyph unicode="&#xe972;" glyph-name="api-app" d="M416 449.323h-64v297.344c0 88.235 71.765 160 160 160 88.192 0 160-71.765 160-160v-42.795h-64v42.795c0 52.949-43.093 96-96 96-52.949 0-96-43.051-96-96v-297.344zM512-10.667c-88.235 0-160 71.808-160 160v43.307h64v-43.307c0-52.907 43.051-96 96-96 52.907 0 96 43.093 96 96v298.581h64v-298.581c0-88.192-71.808-160-160-160zM512 288h-299.008c-88.021 0-159.659 71.808-159.659 160 0 88.235 71.637 160 159.659 160h42.752v-64h-42.752c-52.736 0-95.659-43.051-95.659-96 0-52.907 42.923-96 95.659-96h299.008v-64zM810.411 288h-41.003v64h41.003c53.077 0 96.256 43.093 96.256 96 0 52.949-43.179 96-96.256 96h-298.411v64h298.411c88.363 0 160.256-71.765 160.256-160 0-88.192-71.893-160-160.256-160z" />
<glyph unicode="&#xe973;" glyph-name="apple" d="M510.123 718.549c1.749 47.616 15.104 89.429 39.808 124.373 24.832 35.115 65.835 60.075 121.984 74.24 0.384-1.749 0.768-3.456 1.152-5.163v-9.045c0-20.523-4.992-44.032-14.805-69.888-10.283-25.045-26.368-48.64-47.744-69.888-19.968-18.731-38.443-31.147-54.784-36.779-5.376-1.621-12.8-3.2-21.717-4.608-7.936-1.28-15.915-2.347-23.893-3.243zM673.024 21.333c-24.747 0-51.413 9.003-79.701 18.603-26.027 8.789-52.949 17.877-73.856 17.877-19.669 0-41.643-8.149-64.853-16.811-25.984-9.685-52.864-19.669-81.067-19.669-57.984 0-94.592 43.307-110.251 61.781l21.035 24.661-24.192-20.907c-40.363 46.635-134.101 175.147-134.101 361.131 0 209.792 137.045 288 223.403 288 39.083 0 71.040-16.768 99.285-31.573 25.131-13.141 46.805-24.533 70.741-24.533 23.595 0 46.592 11.008 73.216 23.765 31.701 15.147 67.669 32.341 111.317 32.341 57.515 0 107.947-27.691 149.973-82.389l18.005-23.424-21.931-19.797c-48-43.435-71.339-96.555-71.339-162.389 0-95.019 69.803-136.533 96.043-152.149l22.485-13.397-8.661-24.704c-18.987-54.016-73.899-147.072-106.837-181.077-28.672-29.696-53.461-55.339-108.715-55.339zM519.467 121.771c31.403 0 64.896-11.307 94.379-21.248 22.144-7.509 45.013-15.189 59.221-15.189 26.923 0 35.84 8.021 62.72 35.797 20.693 21.376 60.971 85.845 82.901 134.443-40.576 27.904-103.979 85.589-103.979 192.427 0 72.917 23.595 135.936 70.187 187.605-24.661 24.448-51.328 36.395-80.896 36.395-29.184 0-55.68-12.672-83.712-26.069-30.848-14.763-62.763-29.995-100.821-29.995-39.68 0-71.979 16.896-100.437 31.829-24.832 13.013-46.293 24.235-69.589 24.235-41.344 0-159.403-41.131-159.403-224 0-164.48 82.859-278.101 118.485-319.232l3.627-4.309c11.563-13.653 33.067-39.125 61.355-39.125 16.683 0 37.12 7.595 58.752 15.659 26.283 9.771 55.979 20.779 87.211 20.779z" />
<glyph unicode="&#xe974;" glyph-name="apple-one" d="M651.051 13.696c-15.616 0-30.635 2.603-45.013 5.803-14.549 3.243-26.368 9.771-37.845 16.128-16.085 8.875-31.275 17.28-56.192 17.28-25.557 0-40.832-8.533-56.96-17.536-11.051-6.229-22.528-12.587-36.437-15.787-26.069-6.016-60.459-10.965-95.573 4.437-51.925 22.912-82.645 52.949-120.32 92.928-71.808 76.075-106.709 177.195-106.709 309.077 0 120.96 28.885 203.179 90.837 258.688 54.272 48.64 94.72 61.355 159.829 50.56 32.043-5.333 62.805-24.277 92.501-42.624 26.709-16.469 54.357-33.536 72.96-33.536 14.891 0 31.488 13.013 50.731 28.117 24.405 19.115 54.784 42.923 95.488 48.171 73.557 9.557 111.957-1.664 171.051-49.707 68.139-55.424 98.56-135.509 98.56-259.669 0-134.571-34.517-236.587-105.515-311.893-37.419-39.637-69.291-67.029-121.557-90.112-17.195-7.552-33.835-10.325-49.835-10.325zM307.285 674.987c-25.941 0-45.909-9.472-77.696-37.931-32.384-29.013-69.547-79.189-69.547-211.029 0-114.773 29.184-201.515 89.259-265.173 34.56-36.565 58.453-60.117 99.627-78.251 14.208-6.272 30.251-6.485 55.296-0.725 5.077 1.152 11.819 4.949 19.627 9.344 19.413 10.837 45.952 25.685 88.149 25.685 41.429 0 67.84-14.635 87.168-25.259 8.149-4.523 15.232-8.448 20.779-9.685 26.027-5.845 41.003-5.675 55.168 0.64 42.581 18.731 68.309 41.003 100.779 75.477 59.307 62.848 88.064 150.485 88.064 267.947 0 132.139-40.021 181.632-74.965 210.005-45.056 36.693-66.773 43.008-122.453 35.925-23.253-2.987-43.136-18.603-64.213-35.115-24.96-19.541-53.248-41.728-90.197-41.728-36.779 0-72.235 21.888-106.581 43.051-24.405 15.147-49.707 30.72-69.333 33.963-10.795 1.792-20.181 2.859-28.928 2.859zM544.043 623.915l-63.659 6.443c23.125 228.352 146.133 276.309 245.205 276.309h23.125l7.253-21.931c13.099-39.552 16.512-78.677 10.069-116.267-3.2-18.688-12.117-43.051-27.307-74.539l-57.685 27.691c15.36 32.043 20.437 49.024 21.888 57.643 3.413 20.011 2.859 40.875-1.536 62.293-64.512-6.272-139.776-43.861-157.355-217.643zM320.384 221.995c-24.704 21.248-40.96 51.029-48.256 88.533-6.656 34.475-6.656 68.48 0.043 101.248l62.72-12.885c-5.035-24.405-4.992-50.048 0.043-76.16 4.523-23.339 13.397-40.405 27.179-52.267l-41.728-48.469z" />
<glyph unicode="&#xe975;" glyph-name="applet-closed" d="M873.387 41.387l-192 192 45.269 45.269 192-192-45.269-45.269zM297.387 617.387l-192 192 45.227 45.227 192-192-45.227-45.227zM150.613 41.387l-45.227 45.227 192 192 45.227-45.227-192-192zM726.613 617.387l-45.227 45.227 192 192 45.227-45.227-192-192zM512 309.333c-76.459 0-138.667 62.208-138.667 138.667s62.208 138.667 138.667 138.667 138.667-62.208 138.667-138.667-62.208-138.667-138.667-138.667zM512 522.667c-41.173 0-74.667-33.493-74.667-74.667s33.493-74.667 74.667-74.667 74.667 33.493 74.667 74.667-33.493 74.667-74.667 74.667z" />
<glyph unicode="&#xe976;" glyph-name="application" d="M886.187 32h-746.667v458.667h64v-394.667h618.667v394.667h64zM780.075 458.667c-52.437 0-99.072 25.216-128.384 64.128-29.227-38.912-75.733-64.128-128.043-64.128h-21.76c-52.309 0-98.816 25.216-128.043 64.128-29.312-38.912-75.904-64.128-128.341-64.128-53.291 0-103.125 26.283-133.291 70.229-29.952 43.776-36.48 99.371-17.408 148.736l71.979 186.368h692.181l71.936-186.283c19.072-49.365 12.544-104.96-17.451-148.736-30.208-44.032-80.085-70.315-133.376-70.315zM619.648 618.667h64c0-52.949 43.264-96 96.427-96 32.683 0 62.037 15.488 80.555 42.496 18.389 26.752 22.229 59.392 10.581 89.472l-56.149 145.365h-604.416l-56.149-145.451c-11.648-30.123-7.808-62.72 10.539-89.429 18.517-26.965 47.829-42.453 80.469-42.453 53.163 0 96.427 43.051 96.427 96h64c0-52.949 43.051-96 96-96h21.76c52.907 0 95.957 43.051 95.957 96z" />
<glyph unicode="&#xe977;" glyph-name="application-effect" d="M682.667-8.277c-70.955 0-139.136 26.027-192 73.344l42.667 47.659c41.131-36.736 94.165-57.003 149.333-57.003 123.52 0 224 100.48 224 224 0 96.64-61.525 182.059-153.173 212.565l20.267 60.715c117.803-39.211 196.907-149.077 196.907-273.28 0-158.805-129.195-288-288-288zM341.333-8.277c-158.805 0-288 129.195-288 288 0 124.672 79.488 234.624 197.845 273.579l20.053-60.8c-92.032-30.293-153.856-115.84-153.856-212.779 0-123.52 100.48-224 224-224s224 100.48 224 224c0 28.203-5.205 55.808-15.445 81.963l59.563 23.339c13.184-33.621 19.883-69.035 19.883-105.301-0.043-158.805-129.237-288-288.043-288zM512 333.056c-158.805 0-288 129.195-288 288s129.195 288 288 288c158.805 0 288-129.195 288-288 0-158.848-129.195-288-288-288zM512 845.056c-123.52 0-224-100.48-224-224s100.48-224 224-224c123.52 0 224 100.48 224 224 0 123.477-100.48 224-224 224z" />
<glyph unicode="&#xe978;" glyph-name="application-menu" d="M213.333 661.333c47.147 0 85.333 38.187 85.333 85.333s-38.187 85.333-85.333 85.333c-47.147 0-85.333-38.187-85.333-85.333s38.187-85.333 85.333-85.333zM512 661.333c47.147 0 85.333 38.187 85.333 85.333s-38.187 85.333-85.333 85.333-85.333-38.187-85.333-85.333c0-47.147 38.187-85.333 85.333-85.333zM810.667 661.333c47.147 0 85.333 38.187 85.333 85.333s-38.187 85.333-85.333 85.333-85.333-38.187-85.333-85.333c0-47.147 38.187-85.333 85.333-85.333zM213.333 362.667c47.147 0 85.333 38.187 85.333 85.333s-38.187 85.333-85.333 85.333c-47.147 0-85.333-38.187-85.333-85.333s38.187-85.333 85.333-85.333zM512 362.667c47.147 0 85.333 38.187 85.333 85.333s-38.187 85.333-85.333 85.333-85.333-38.187-85.333-85.333 38.187-85.333 85.333-85.333zM810.667 362.667c47.147 0 85.333 38.187 85.333 85.333s-38.187 85.333-85.333 85.333-85.333-38.187-85.333-85.333 38.187-85.333 85.333-85.333zM213.333 64c47.147 0 85.333 38.187 85.333 85.333s-38.187 85.333-85.333 85.333c-47.147 0-85.333-38.187-85.333-85.333s38.187-85.333 85.333-85.333zM512 64c47.147 0 85.333 38.187 85.333 85.333s-38.187 85.333-85.333 85.333-85.333-38.187-85.333-85.333 38.187-85.333 85.333-85.333zM810.667 64c47.147 0 85.333 38.187 85.333 85.333s-38.187 85.333-85.333 85.333-85.333-38.187-85.333-85.333 38.187-85.333 85.333-85.333z" />
<glyph unicode="&#xe979;" glyph-name="application-one" d="M512-15.787l-394.667 232.149v463.275l394.667 232.149 394.667-232.149v-463.275l-394.667-232.149zM181.333 252.971l330.667-194.517 330.667 194.517v390.059l-330.667 194.517-330.667-194.517v-390.059zM511.872 410.24l-187.52 117.333 33.963 54.272 153.557-96.085 153.728 96.085 33.92-54.272zM480 448h64v-192h-64v192z" />
<glyph unicode="&#xe97a;" glyph-name="application-two" d="M736 501.333c-94.123 0-170.667 76.544-170.667 170.667s76.544 170.667 170.667 170.667 170.667-76.544 170.667-170.667-76.544-170.667-170.667-170.667zM736 778.667c-58.837 0-106.667-47.872-106.667-106.667s47.829-106.667 106.667-106.667 106.667 47.872 106.667 106.667-47.829 106.667-106.667 106.667zM736 53.333c-94.123 0-170.667 76.544-170.667 170.667s76.544 170.667 170.667 170.667 170.667-76.544 170.667-170.667-76.544-170.667-170.667-170.667zM736 330.667c-58.837 0-106.667-47.829-106.667-106.667s47.829-106.667 106.667-106.667 106.667 47.829 106.667 106.667-47.829 106.667-106.667 106.667zM288 501.333c-94.123 0-170.667 76.544-170.667 170.667s76.544 170.667 170.667 170.667 170.667-76.544 170.667-170.667-76.544-170.667-170.667-170.667zM288 778.667c-58.795 0-106.667-47.872-106.667-106.667s47.872-106.667 106.667-106.667 106.667 47.872 106.667 106.667-47.872 106.667-106.667 106.667zM288 53.333c-94.123 0-170.667 76.544-170.667 170.667s76.544 170.667 170.667 170.667 170.667-76.544 170.667-170.667-76.544-170.667-170.667-170.667zM288 330.667c-58.795 0-106.667-47.829-106.667-106.667s47.872-106.667 106.667-106.667 106.667 47.829 106.667 106.667-47.872 106.667-106.667 106.667z" />
<glyph unicode="&#xe97b;" glyph-name="appointment" d="M512 544c-99.968 0-181.333 81.365-181.333 181.333s81.365 181.333 181.333 181.333c100.011 0 181.333-81.365 181.333-181.333s-81.323-181.333-181.333-181.333zM512 842.667c-64.725 0-117.333-52.608-117.333-117.333s52.608-117.333 117.333-117.333 117.333 52.608 117.333 117.333-52.608 117.333-117.333 117.333zM117.333 85.333h-64c0 205.867 186.624 373.333 416 373.333v-64c-194.091 0-352-138.752-352-309.333zM725.333 10.667c-123.52 0-224 100.48-224 224s100.48 224 224 224 224-100.48 224-224-100.48-224-224-224zM725.333 394.667c-88.192 0-160-71.808-160-160s71.808-160 160-160 160 71.808 160 160-71.808 160-160 160zM789.333 181.333h-117.333v117.333h64v-53.333h53.333z" />
<glyph unicode="&#xe97c;" glyph-name="app-store" d="M832 32h-640c-52.949 0-96 43.093-96 96v640c0 52.949 43.051 96 96 96h640c52.907 0 96-43.051 96-96v-640c0-52.907-43.093-96-96-96zM192 800c-17.664 0-32-14.336-32-32v-640c0-17.621 14.336-32 32-32h640c17.621 0 32 14.379 32 32v640c0 17.664-14.379 32-32 32h-640zM379.048 376.37l190.803 322.577 55.085-32.582-190.803-322.577-55.085 32.582zM292.442 229.66l17.356 29.342 55.085-32.582-17.356-29.342-55.085 32.582zM256 373.333h234.667v-64h-234.667v64zM640 373.333h128v-64h-128v64zM378.358 665.512l53.997 34.362 93.349-146.691-53.997-34.362-93.349 146.691zM546.389 401.472l53.997 34.362 130.666-205.332-53.997-34.362-130.666 205.332z" />
<glyph unicode="&#xe97d;" glyph-name="app-switch" d="M757.333-10.667h-490.667v917.333h490.667v-917.333zM330.667 53.333h362.667v789.333h-362.667v-789.333zM970.667 74.667h-277.333v746.667h277.333v-746.667zM757.333 138.667h149.333v618.667h-149.333v-618.667zM330.667 74.667h-277.333v746.667h277.333v-746.667zM117.333 138.667h149.333v618.667h-149.333v-618.667z" />
<glyph unicode="&#xe97e;" glyph-name="aquarius" d="M742.229 502.059l-149.163 234.325-170.027-191.317-127.232 190.848-185.899-223.061-49.152 40.96 240.768 288.939 128.768-193.152 171.307 192.683 149.504-235.008 163.797 181.248 47.531-42.923zM742.229 75.392l-149.163 234.325-170.027-191.317-127.232 190.848-185.899-223.061-49.152 40.96 240.768 288.939 128.768-193.152 171.307 192.683 149.504-235.008 163.797 181.248 47.531-42.88z" />
<glyph unicode="&#xe97f;" glyph-name="arc-de-triomphe" d="M885.333-10.667h-277.333v352c0 52.907-43.093 96-96 96-52.949 0-96-43.093-96-96v-352h-277.333v661.333h746.667v-661.333zM672 53.333h149.333v533.333h-618.667v-533.333h149.333v288c0 88.192 71.765 160 160 160 88.192 0 160-71.808 160-160v-288zM853.333 586.667h-682.667c-52.949 0-96 43.051-96 96v96h874.667v-96c0-52.949-43.093-96-96-96zM138.667 714.667v-32c0-17.664 14.336-32 32-32h682.667c17.621 0 32 14.336 32 32v32h-746.667zM106.667 906.667h810.667v-64h-810.667v64zM138.667 874.667h64v-106.667h-64v106.667zM821.333 874.667h64v-106.667h-64v106.667zM170.667 394.667h213.333v-64h-213.333v64zM640 394.667h213.333v-64h-213.333v64z" />
<glyph unicode="&#xe980;" glyph-name="archers-bow" d="M865.195-8.32l-33.579 6.699c-28.245 5.675-52.608 23.893-68.608 51.328-19.925 34.176-24.704 78.464-12.544 115.541 39.595 120.704 8.619 280.32-6.485 343.339-2.347 9.771-10.368 17.493-20.992 20.181l-48.256 12.075c-34.475 8.619-61.227 35.371-69.888 69.803l-12.032 48.299c-2.645 10.624-10.368 18.688-20.181 20.992-63.061 15.104-222.72 45.995-343.339 6.485-37.205-12.075-81.408-7.339-115.584 12.587-27.435 16-45.653 40.363-51.328 68.565l-6.699 33.579 62.763 12.544 6.699-33.579c2.603-12.843 12.715-21.12 20.779-25.813 18.304-10.667 43.733-13.525 63.36-7.083 131.328 43.008 293.333 15.275 378.24-5.035 33.067-7.936 58.88-33.877 67.328-67.712l12.032-48.299c2.859-11.477 11.819-20.395 23.296-23.253l48.256-12.075c33.877-8.448 59.776-34.261 67.755-67.328 20.395-84.864 48.128-246.869 5.077-378.24-6.443-19.669-3.627-45.099 6.997-63.36 4.693-8.021 13.013-18.219 25.856-20.779l33.536-6.699-12.459-62.763zM105.361 702.714l45.254 45.254 682.648-682.648-45.254-45.254-682.648 682.648zM233.372 214.633l661.318 661.318 45.254-45.254-661.318-661.318-45.254 45.254z" />
<glyph unicode="&#xe981;" glyph-name="archery" d="M277.333 32v64c194.091 0 352 157.909 352 352s-157.909 352-352 352v64c229.376 0 416-186.624 416-416s-186.624-416-416-416zM192 352c-52.949 0-96 43.093-96 96 0 52.949 43.051 96 96 96s96-43.051 96-96c0-52.907-43.051-96-96-96zM192 480c-17.664 0-32-14.336-32-32 0-17.621 14.336-32 32-32s32 14.379 32 32c0 17.664-14.336 32-32 32zM256 480h640v-64h-640v64zM833.28 340.053l-45.227 45.227 62.677 62.72-62.677 62.72 45.227 45.227 107.989-107.947z" />
<glyph unicode="&#xe982;" glyph-name="area-map" d="M970.667 32h-917.333v374.699l192.512-108.288 125.099 187.648 130.987-43.648 155.904 178.176 128-106.667 128.768 147.157 56.064-21.077v-608zM117.333 96h789.333v458.837l-113.835-130.091-128 106.667-142.763-163.157-125.013 41.685-130.901-196.352-148.821 83.712v-201.301zM117.333 352h-64v245.333l52.821 24.277 122.283-104.832 112.939 164.309 131.669-65.835 185.515 196.395 117.931-96.555 139.563 139.52 54.613-22.613v-202.667h-64v125.397l-125.824-125.824-116.736 95.445-177.152-187.605-124.331 62.165-121.728-177.024-123.563 105.856z" />
<glyph unicode="&#xe983;" glyph-name="arena" d="M526.293 163.371h-28.587l-426.667 213.333v57.259l426.667 213.333h28.587l426.667-213.333v-57.259l-426.667-213.333zM156.885 405.333l355.115-177.536 355.115 177.536-355.115 177.579-355.115-177.579zM526.293 355.371h-28.587l-426.667 213.333v57.259l426.667 213.333h28.587l426.667-213.333v-57.259l-426.667-213.333zM156.885 597.333l355.115-177.536 355.115 177.536-355.115 177.579-355.115-177.579zM526.293-7.296h-28.587l-426.667 213.333-17.707 28.629v170.667l46.293 28.629 412.373-206.165 412.373 206.165 46.293-28.629v-170.667l-17.707-28.629-426.667-213.333zM117.333 254.464l394.667-197.333 394.667 197.333v99.072l-380.373-190.165h-28.587l-380.373 190.165v-99.072zM906.667 661.333h64v-256h-64v256zM53.333 661.333h64v-256h-64v256zM480 448h64v-256h-64v256zM480 874.667h64v-256h-64v256z" />
<glyph unicode="&#xe984;" glyph-name="aries" d="M544 62.933h-64c-17.451 524.075-146.56 675.883-185.728 709.931-22.613 19.669-45.397 28.8-65.792 26.837-47.829-6.443-81.195-28.501-98.304-65.493-24.533-52.949-10.965-123.477 14.336-162.901l-53.931-34.517c-35.285 55.168-52.992 149.888-18.517 224.299 18.517 39.979 59.392 90.112 148.779 102.101 39.424 4.181 79.061-10.368 115.456-42.027 51.797-45.056 130.901-154.539 175.701-416.213 44.8 261.632 123.904 371.157 175.701 416.213 36.437 31.659 75.947 46.293 114.56 42.155 90.24-12.075 131.115-62.208 149.632-102.187 34.517-74.411 16.853-169.173-18.475-224.341l-53.931 34.517c25.259 39.467 38.869 109.995 14.336 162.901-17.152 36.992-50.56 59.051-99.2 65.579-19.712 1.963-42.24-7.211-64.896-26.923-39.168-34.048-168.277-185.856-185.728-709.931z" />
<glyph unicode="&#xe985;" glyph-name="arithmetic" d="M597.333 298.667h298.667v-64h-298.667v64zM597.333 106.667h298.667v-64h-298.667v64zM128 714.667h341.333v-64h-341.333v64zM266.667 853.333h64v-341.333h-64v341.333zM105.368 107.96l767.997 767.997 45.254-45.254-767.997-767.997-45.254 45.254z" />
<glyph unicode="&#xe986;" glyph-name="arithmetic-buttons" d="M874.667-10.667h-725.333c-52.949 0-96 43.093-96 96v725.333c0 52.949 43.051 96 96 96h725.333c52.907 0 96-43.051 96-96v-725.333c0-52.907-43.093-96-96-96zM149.333 842.667c-17.664 0-32-14.336-32-32v-725.333c0-17.621 14.336-32 32-32h725.333c17.621 0 32 14.379 32 32v725.333c0 17.664-14.379 32-32 32h-725.333zM213.333 693.333h170.667v-64h-170.667v64zM212.041 193.308l128.010 128.010 45.254-45.254-128.010-128.010-45.254 45.254zM266.667 746.667h64v-170.667h-64v170.667zM212.041 276.033l45.254 45.254 128.010-128.010-45.254-45.254-128.010 128.010zM640 693.333h170.667v-64h-170.667v64zM640 330.667h170.667v-64h-170.667v64zM640 202.667h170.667v-64h-170.667v64zM480 874.667h64v-853.333h-64v853.333zM85.333 480h853.333v-64h-853.333v64zM384 906.667h256v-64h-256v64zM384 53.333h256v-64h-256v64zM53.333 533.333h64v-170.667h-64v170.667zM906.667 533.333h64v-170.667h-64v170.667z" />
<glyph unicode="&#xe987;" glyph-name="arithmetic-one" d="M597.333 320h298.667v-64h-298.667v64zM597.333 149.333h298.667v-64h-298.667v64zM134.019 115.291l241.327 241.327 45.254-45.254-241.327-241.327-45.254 45.254zM134.002 311.363l45.254 45.254 241.327-241.327-45.254-45.254-241.327 241.327zM597.333 725.333h298.667v-64h-298.667v64zM128 725.333h298.667v-64h-298.667v64zM245.333 842.667h64v-298.667h-64v298.667z" />
<glyph unicode="&#xe988;" glyph-name="arrow-circle-down" d="M512-10.667c-252.928 0-458.667 205.739-458.667 458.667s205.739 458.667 458.667 458.667 458.667-205.739 458.667-458.667-205.739-458.667-458.667-458.667zM512 842.667c-217.643 0-394.667-177.024-394.667-394.667s177.024-394.667 394.667-394.667 394.667 177.024 394.667 394.667-177.024 394.667-394.667 394.667zM480 640h64v-384h-64v384zM512 210.731l-214.613 214.656 45.227 45.227 169.387-169.344 169.387 169.344 45.227-45.227z" />
<glyph unicode="&#xe989;" glyph-name="arrow-circle-left" d="M512-10.667c-252.928 0-458.667 205.739-458.667 458.667s205.739 458.667 458.667 458.667 458.667-205.739 458.667-458.667-205.739-458.667-458.667-458.667zM512 842.667c-217.643 0-394.667-177.024-394.667-394.667s177.024-394.667 394.667-394.667 394.667 177.024 394.667 394.667-177.024 394.667-394.667 394.667zM309.163 469.333h384v-64h-384v64zM478.549 222.72l-214.613 214.613 214.613 214.613 45.227-45.227-169.344-169.387 169.344-169.387z" />
<glyph unicode="&#xe98a;" glyph-name="arrow-circle-right" d="M512-10.667c-252.928 0-458.667 205.739-458.667 458.667s205.739 458.667 458.667 458.667 458.667-205.739 458.667-458.667-205.739-458.667-458.667-458.667zM512 842.667c-217.643 0-394.667-177.024-394.667-394.667s177.024-394.667 394.667-394.667 394.667 177.024 394.667 394.667-177.024 394.667-394.667 394.667zM309.163 469.333h384v-64h-384v64zM523.776 222.72l-45.227 45.227 169.387 169.387-169.387 169.387 45.227 45.227 214.656-214.613z" />
<glyph unicode="&#xe98b;" glyph-name="arrow-circle-up" d="M512-10.667c-252.928 0-458.667 205.739-458.667 458.667s205.739 458.667 458.667 458.667 458.667-205.739 458.667-458.667-205.739-458.667-458.667-458.667zM512 842.667c-217.643 0-394.667-177.024-394.667-394.667s177.024-394.667 394.667-394.667 394.667 177.024 394.667 394.667-177.024 394.667-394.667 394.667zM480 629.333h64v-384h-64v384zM681.387 414.72l-169.387 169.344-169.387-169.344-45.227 45.227 214.613 214.656 214.613-214.656z" />
<glyph unicode="&#xe98c;" glyph-name="arrow-down" d="M480 832h64v-768h-64v768zM512 18.731l-278.613 278.656 45.227 45.227 233.387-233.344 233.387 233.344 45.227-45.227z" />
<glyph unicode="&#xe98d;" glyph-name="arrow-keys" d="M970.667-10.667h-917.333v490.667h213.333v426.667h490.667v-426.667h213.333v-490.667zM544 53.333h362.667v362.667h-362.667v-362.667zM117.333 53.333h362.667v362.667h-362.667v-362.667zM330.667 480h362.667v362.667h-362.667v-362.667zM480 746.667h64v-170.667h-64v170.667zM574.72 638.72l-62.72 62.677-62.72-62.677-45.227 45.227 107.947 107.989 107.947-107.989zM213.333 266.667h170.667v-64h-170.667v64zM276.053 126.72l-107.989 107.947 107.989 107.947 45.227-45.227-62.677-62.72 62.677-62.72zM640 266.667h170.667v-64h-170.667v64zM747.947 126.72l-45.227 45.227 62.677 62.72-62.677 62.72 45.227 45.227 107.989-107.947z" />
<glyph unicode="&#xe98e;" glyph-name="arrow-left" d="M123.691 480h768v-64h-768v64zM357.077 169.387l-278.613 278.613 278.613 278.613 45.269-45.227-233.387-233.387 233.387-233.387z" />
<glyph unicode="&#xe98f;" glyph-name="arrow-left-down" d="M618.667 138.667h-416v416h64v-352h352zM212.035 193.305l543.053 543.053 45.254-45.254-543.053-543.053-45.254 45.254z" />
<glyph unicode="&#xe990;" glyph-name="arrow-left-up" d="M212.042 702.71l45.254 45.254 543.023-543.023-45.254-45.254-543.023 543.023zM266.667 341.333h-64v416h416v-64h-352z" />
<glyph unicode="&#xe991;" glyph-name="arrow-right" d="M128 480h768v-64h-768v64zM662.613 169.387l-45.227 45.227 233.344 233.387-233.344 233.387 45.227 45.227 278.656-278.613z" />
<glyph unicode="&#xe992;" glyph-name="arrow-right-down" d="M821.333 138.667h-416v64h352v352h64zM223.642 691.097l45.254 45.254 543.053-543.053-45.254-45.254-543.053 543.053z" />
<glyph unicode="&#xe993;" glyph-name="arrow-right-up" d="M821.333 341.333h-64v352h-352v64h416zM223.649 204.905l543.053 543.053 45.254-45.254-543.053-543.053-45.254 45.254z" />
<glyph unicode="&#xe994;" glyph-name="arrow-up" d="M480 832h64v-768h-64v768zM745.387 553.387l-233.387 233.344-233.387-233.344-45.227 45.227 278.613 278.656 278.613-278.656z" />
<glyph unicode="&#xe995;" glyph-name="assembly-line" d="M341.333 629.333c-64.725 0-117.333 52.608-117.333 117.333s52.608 117.333 117.333 117.333 117.333-52.608 117.333-117.333-52.608-117.333-117.333-117.333zM341.333 800c-29.397 0-53.333-23.936-53.333-53.333s23.936-53.333 53.333-53.333 53.333 23.936 53.333 53.333-23.936 53.333-53.333 53.333zM597.333 117.333h-320c-103.381 0-181.333 77.952-181.333 181.333s77.952 181.333 181.333 181.333h149.333v-64h-149.333c-69.077 0-117.333-48.256-117.333-117.333s48.256-117.333 117.333-117.333h320v-64zM746.667 416h-320v64h320c69.077 0 117.333 48.256 117.333 117.333s-48.256 117.333-117.333 117.333h-320v64h320c103.381 0 181.333-77.952 181.333-181.333s-77.952-181.333-181.333-181.333zM128 778.667h128v-64h-128v64zM768 181.333h128v-64h-128v64zM682.667 32c-64.725 0-117.333 52.608-117.333 117.333s52.608 117.333 117.333 117.333 117.333-52.608 117.333-117.333-52.608-117.333-117.333-117.333zM682.667 202.667c-29.397 0-53.333-23.936-53.333-53.333s23.936-53.333 53.333-53.333 53.333 23.936 53.333 53.333-23.936 53.333-53.333 53.333z" />
<glyph unicode="&#xe996;" glyph-name="association" d="M85.333 266.667h853.333v-64h-853.333v64zM420.767 836.529l54.451 33.632 448.001-725.326-54.451-33.632-448.001 725.326zM100.635 144.92l448.256 725.156 54.438-33.651-448.256-725.156-54.438 33.651z" />
<glyph unicode="&#xe997;" glyph-name="asterisk" d="M512-10.667c-252.928 0-458.667 205.739-458.667 458.667s205.739 458.667 458.667 458.667 458.667-205.739 458.667-458.667-205.739-458.667-458.667-458.667zM512 842.667c-217.643 0-394.667-177.024-394.667-394.667s177.024-394.667 394.667-394.667 394.667 177.024 394.667 394.667-177.024 394.667-394.667 394.667zM320 480h384v-64h-384v64zM388.271 598.293l55.424 32 192-332.544-55.424-32-192 332.544zM388.286 297.71l192.038 332.544 55.424-32.006-192.038-332.544-55.424 32.006z" />
<glyph unicode="&#xe998;" glyph-name="asterisk-key" d="M832 32h-640c-52.949 0-96 43.093-96 96v640c0 52.949 43.051 96 96 96h640c52.907 0 96-43.051 96-96v-640c0-52.907-43.093-96-96-96zM192 800c-17.664 0-32-14.336-32-32v-640c0-17.621 14.336-32 32-32h640c17.621 0 32 14.379 32 32v640c0 17.664-14.379 32-32 32h-640zM480 618.667h64v-341.333h-64v341.333zM353.839 519.683l36.71 52.422 279.551-195.764-36.71-52.422-279.551 195.764zM353.835 376.304l279.551 195.764 36.71-52.422-279.551-195.764-36.71 52.422z" />
<glyph unicode="&#xe999;" glyph-name="astonished-face" d="M512-10.667c-252.928 0-458.667 205.739-458.667 458.667s205.739 458.667 458.667 458.667 458.667-205.739 458.667-458.667-205.739-458.667-458.667-458.667zM512 842.667c-217.643 0-394.667-177.024-394.667-394.667s177.024-394.667 394.667-394.667 394.667 177.024 394.667 394.667-177.024 394.667-394.667 394.667zM629.333 576h64v-21.333h-64v21.333zM330.667 576h64v-21.333h-64v21.333zM512 160c-64.725 0-117.333 52.608-117.333 117.333v85.333c0 64.725 52.608 117.333 117.333 117.333s117.333-52.608 117.333-117.333v-85.333c0-64.725-52.608-117.333-117.333-117.333zM512 416c-29.397 0-53.333-23.936-53.333-53.333v-85.333c0-29.397 23.936-53.333 53.333-53.333s53.333 23.936 53.333 53.333v85.333c0 29.397-23.936 53.333-53.333 53.333z" />
<glyph unicode="&#xe99a;" glyph-name="at-sign" d="M512-10.667c-252.928 0-458.667 205.739-458.667 458.667s205.739 458.667 458.667 458.667 458.667-205.739 458.667-458.667h-64c0 217.643-177.024 394.667-394.667 394.667s-394.667-177.024-394.667-394.667 177.024-394.667 394.667-394.667c94.592 0 186.069 33.963 257.579 95.659l41.813-48.512c-83.157-71.637-189.483-111.147-299.392-111.147zM512 245.333c-111.744 0-202.667 90.923-202.667 202.667s90.923 202.667 202.667 202.667 202.667-90.923 202.667-202.667-90.923-202.667-202.667-202.667zM512 586.667c-76.459 0-138.667-62.208-138.667-138.667s62.208-138.667 138.667-138.667 138.667 62.208 138.667 138.667-62.208 138.667-138.667 138.667zM810.667 288c-88.192 0-160 71.808-160 160h64c0-52.907 43.093-96 96-96s96 43.093 96 96h64c0-88.192-71.808-160-160-160zM650.667 618.667h64v-192h-64v192z" />
<glyph unicode="&#xe99b;" glyph-name="attention" d="M512-10.667c-122.496 0-237.696 47.701-324.352 134.315-86.613 86.656-134.315 201.813-134.315 324.352 0 122.496 47.701 237.696 134.315 324.352 86.656 86.613 201.856 134.315 324.352 134.315 122.539 0 237.696-47.701 324.352-134.315 86.613-86.656 134.315-201.813 134.315-324.352s-47.701-237.696-134.315-324.352-201.813-134.315-324.352-134.315zM512 842.667c-105.429 0-204.501-41.045-279.083-115.584-74.539-74.581-115.584-173.653-115.584-279.083s41.045-204.544 115.584-279.083c74.581-74.539 173.653-115.584 279.083-115.584s204.544 41.045 279.083 115.584 115.584 173.653 115.584 279.083-41.045 204.501-115.584 279.083c-74.539 74.539-173.653 115.584-279.083 115.584zM512 170.667c29.44 0 53.333 23.893 53.333 53.333s-23.893 53.333-53.333 53.333-53.333-23.893-53.333-53.333 23.893-53.333 53.333-53.333zM480 704h64v-341.333h-64v341.333z" />
<glyph unicode="&#xe99c;" glyph-name="audio-file" d="M885.333-10.667h-746.667v917.333h537.387l209.28-244.181v-673.152zM202.667 53.333h618.667v585.515l-174.72 203.819h-443.947v-789.333zM586.667 288h-64v329.856l145.792 72.149 28.416-57.344-110.208-54.528zM437.333 138.667c-82.347 0-149.333 66.987-149.333 149.333s66.987 149.333 149.333 149.333 149.333-66.987 149.333-149.333-66.987-149.333-149.333-149.333zM437.333 373.333c-47.061 0-85.333-38.272-85.333-85.333s38.272-85.333 85.333-85.333 85.333 38.272 85.333 85.333-38.272 85.333-85.333 85.333z" />
<glyph unicode="&#xe99d;" glyph-name="audit" d="M885.333 160h-746.667l0.128 201.771c0.043 29.397 23.979 53.333 53.333 53.333h200.619c0.341 7.381 0.341 17.195 0.341 26.283-1.28 3.925-12.459 16-20.608 24.832-31.445 33.835-84.011 90.539-84.011 198.272 0 162.816 118.997 220.843 230.357 220.843 137.771 0 220.075-82.56 220.075-220.843 0-103.595-47.829-154.837-79.488-188.715-12.629-13.483-24.533-26.283-24.533-33.707 0-9.813 0-19.371 0.171-26.965h196.949c29.397 0 53.333-23.936 53.333-53.333v-201.771zM202.667 224h618.667v127.104h-201.771c-48.683 0-48.683 38.187-48.683 90.965 0 32.683 21.248 55.424 41.771 77.397 29.227 31.232 62.293 66.645 62.293 145.024 0 129.664-84.864 156.843-156.075 156.843-50.005 0-166.357-15.275-166.357-156.843 0-82.645 37.077-122.667 66.859-154.795 19.371-20.907 37.675-40.661 37.675-67.627 0-23.381 0-39.851-3.456-53.205-6.144-23.637-24.107-37.76-48.085-37.76h-202.752l-0.085-127.104zM170.667 96h682.667v-64h-682.667v64z" />
<glyph unicode="&#xe99e;" glyph-name="auto-focus" d="M512 224c-123.52 0-224 100.48-224 224s100.48 224 224 224c123.52 0 224-100.48 224-224s-100.48-224-224-224zM512 608c-88.235 0-160-71.765-160-160 0-88.192 71.765-160 160-160 88.192 0 160 71.808 160 160 0 88.235-71.808 160-160 160zM576 448c0-35.346-28.654-64-64-64s-64 28.654-64 64c0 35.346 28.654 64 64 64s64-28.654 64-64zM927.957 436.096l-63.957 2.432c0.384 10.368 5.632 255.104-245.12 341.931-249.6 86.357-394.069-127.488-400.085-136.661l-53.589 35.029c1.749 2.645 177.365 265.088 474.624 162.091 296.277-102.571 288.256-401.792 288.128-404.821zM525.013 28.075c-35.968 0-74.923 4.693-117.035 15.616-308.437 79.957-311.979 401.067-311.979 404.309l64 0.043c0.043-11.179 4.181-275.072 264.021-342.443 259.541-67.029 375.125 135.765 379.947 144.469l56.107-30.763c-1.195-2.176-107.349-191.232-335.061-191.232zM864 789.333h64v-341.333h-64v341.333zM96 448h64v-341.333h-64v341.333z" />
<glyph unicode="&#xe99f;" glyph-name="auto-height-one" d="M117.333 832h64v-768h-64v768zM617.387 638.677l-105.472 105.429-105.301-105.216-45.227 45.312 150.528 150.357 150.699-150.571zM512.085 61.397l-150.699 150.656 45.227 45.227 105.472-105.344 105.301 105.131 45.227-45.227zM480 789.333h64v-682.667h-64v682.667zM842.667 832h64v-768h-64v768z" />
<glyph unicode="&#xe9a0;" glyph-name="auto-line-height" d="M128 842.667h768v-64h-768v64zM128 117.333h768v-64h-768v64zM269.44 226.596l213.486 469.246 58.253-26.502-213.486-469.246-58.253 26.502zM384 394.667h256v-64h-256v64zM482.881 669.435l58.266 26.483 213.331-469.349-58.266-26.483-213.331 469.349z" />
<glyph unicode="&#xe9a1;" glyph-name="auto-line-width" d="M74.667 789.333h64v-682.667h-64v682.667zM269.44 226.596l213.486 469.246 58.253-26.502-213.486-469.246-58.253 26.502zM384 394.667h256v-64h-256v64zM482.881 669.435l58.266 26.483 213.331-469.349-58.266-26.483-213.331 469.349zM885.333 789.333h64v-682.667h-64v682.667z" />
<glyph unicode="&#xe9a2;" glyph-name="auto-width" d="M233.088 254.72l-192.981 193.152 193.237 193.408 45.312-45.227-148.096-148.181 147.797-147.925zM790.613 254.72l-45.227 45.227 148.011 148.181-147.755 147.925 45.227 45.227 193.067-193.152zM85.333 480h853.333v-64h-853.333v64z" />
<glyph unicode="&#xe9a3;" glyph-name="auto-width-one" d="M128 842.667h768v-64h-768v64zM170.667 480h682.667v-64h-682.667v64zM275.797 297.387l-150.357 150.528 150.613 150.699 45.227-45.227-105.387-105.472 105.216-105.301zM747.947 297.387l-45.227 45.227 105.344 105.472-105.131 105.301 45.227 45.227 150.443-150.528zM128 117.333h768v-64h-768v64z" />
<glyph unicode="&#xe9a4;" glyph-name="avatar" d="M900.352 10.667h-776.747c-26.965 0-48.896 21.717-48.896 48.427v19.712c-0.512 8.533-0.427 45.141 23.509 85.077 14.976 25.003 36.267 46.336 63.232 63.445 31.232 19.712 70.101 33.536 115.499 41.216 2.389 0.341 32.384 4.395 62.293 12.075 21.205 5.419 32.896 10.155 38.912 13.141-0.085 4.181-0.341 10.24-1.152 18.816-4.523 49.963-30.72 78.763-55.979 106.624-9.173 10.069-17.707 19.669-24.363 28.971-29.653 41.643-33.707 87.253-34.261 96-0.043 21.504 7.040 35.584 14.635 45.141-5.888 39.296-5.888 89.259 0.171 123.989 2.261 51.456 45.397 91.435 54.016 98.901 0.341 0.256 0.683 0.555 0.981 0.853-1.152 6.485-1.493 14.165 0.213 22.613 4.352 22.101 21.248 38.955 45.184 45.099 9.728 2.56 19.371 3.029 25.088 3.285 21.675 1.109 44.928 2.048 68.565 0.299 167.168-12.459 229.035-74.624 235.563-81.664 16.768-19.413 28.416-42.027 35.541-68.139 2.304-8.32 3.712-15.36 4.523-22.059 5.845-32.768 4.864-67.243 3.627-90.155-0.555-9.984-1.536-20.309-3.115-31.957 4.267-5.461 8.107-11.947 10.837-20.309 2.347-7.339 3.413-14.891 3.413-23.211-0.299-6.955-3.499-55.381-34.304-98.645-6.571-9.173-14.976-18.56-23.979-28.459-25.771-28.459-51.925-57.259-56.448-107.179-0.811-8.533-1.067-14.677-1.109-18.816 6.016-2.987 17.749-7.765 39.083-13.227 28.885-7.381 57.216-11.349 60.331-11.733 47.701-8.533 86.955-22.741 118.059-42.496 27.051-17.024 48.299-38.357 63.189-63.317 23.637-39.68 23.339-76.117 22.656-86.315l0.085-17.536c0-26.752-21.931-48.469-48.853-48.469zM138.752 59.136v0c0 0 0 0 0 0zM138.709 74.667h746.496v4.011c0.213 4.437 1.152 26.539-13.739 51.541-9.685 16.213-23.979 30.379-42.411 42.027-24.107 15.275-55.637 26.496-93.696 33.323-2.219 0.299-33.963 4.651-66.304 12.971-50.347 12.843-76.885 28.117-83.541 48.043l-2.475 7.637c-1.749 9.088-1.707 23.936 0.128 44.117 6.443 71.296 44.501 113.195 72.277 143.829 7.68 8.448 14.507 15.872 19.755 23.211 20.437 28.757 22.443 62.763 22.443 63.104-0.597 2.773-2.176 4.395-3.584 5.888l-3.968 4.352c-6.4 6.229-9.557 17.195-7.509 30.592 2.133 13.867 3.371 25.515 4.011 36.565 1.067 19.755 1.963 49.237-2.944 77.099-0.768 5.547-1.664 9.728-3.029 14.72-4.651 17.109-11.691 30.976-21.547 42.411v0c-0.085 0-49.92 49.792-192.555 60.416-20.011 1.536-40.064 0.725-60.629-0.384-2.688-0.128-6.059-0.299-9.003-0.683l3.072-6.997-5.632-26.197c-6.059-9.387-14.080-16.555-21.845-22.955v0c0 0-30.336-26.667-31.829-57.003-5.717-34.475-5.077-83.584 1.024-115.669 0.811-4.053 3.029-15.36-2.645-27.051l-2.773-5.589-4.651-4.181c-1.707-1.536-4.523-4.053-4.949-4.907-0.299-2.304 1.877-35.157 22.101-63.573 5.333-7.424 12.288-15.019 19.627-23.083 27.861-30.72 65.877-72.661 72.405-143.915 1.835-20.224 1.835-35.029 0.085-44.16l-2.475-7.637c-6.571-20.096-32.64-34.987-83.285-47.957-32.896-8.448-65.067-12.885-68.608-13.312-35.925-6.101-66.859-16.896-90.837-32.085-18.432-11.648-32.768-25.856-42.539-42.155-15.573-26.027-14.507-49.579-14.464-50.56v-5.803zM737.152 601.899c0.341-0.299 0.64-0.64 0.981-0.981-0.299 0.341-0.64 0.683-0.981 0.981z" />
<glyph unicode="&#xe9a5;" glyph-name="average" d="M938.667-10.667h-885.333v885.333h64v-821.333h821.333zM907.051 144.384c-30.379 194.261-149.077 698.283-331.051 698.283s-300.672-504.021-331.051-698.283l-63.232 9.899c12.032 77.013 125.312 752.384 394.283 752.384s382.251-675.371 394.283-752.384l-63.232-9.899zM938.667 416h-42.667v64h42.667v-64zM768 416h-42.667v64h42.667v-64zM597.333 416h-42.667v64h42.667v-64zM426.667 416h-42.667v64h42.667v-64zM256 416h-42.667v64h42.667v-64z" />
<glyph unicode="&#xe9a6;" glyph-name="aviation" d="M781.269 288h-87.936v64h61.397l106.667 106.667h-626.731c-6.955 0-13.611-2.219-19.243-6.4l-69.717-52.309 87.936-44.501c4.48-2.261 9.515-3.456 14.464-3.456h29.227v-64h-29.184c-15.019 0-29.995 3.584-43.392 10.368l-179.797 91.008 152.107 114.091c16.555 12.373 36.992 19.2 57.6 19.2h704l22.613-54.613-180.011-180.053zM405.333 202.667h-32v192h32c97.621 0 202.667-30.037 202.667-96s-105.045-96-202.667-96zM437.333 329.515v-61.653c60.672 4.523 96.256 21.291 105.301 30.848-9.045 9.515-44.629 26.24-105.301 30.805zM813.141 458.667h-343.808l-13.013 61.269 186.581 82.901 133.163 133.163h120.235l-83.157-277.333zM620.117 522.667h145.408l44.8 149.333h-7.765l-128.256-125.269-54.187-24.064z" />
</font>
</defs>
</svg>
