<?xml version="1.0" standalone="no"?>
<!DOCTYPE svg PUBLIC "-//W3C//DTD SVG 1.1//EN" "http://www.w3.org/Graphics/SVG/1.1/DTD/svg11.dtd" >
<svg xmlns="http://www.w3.org/2000/svg">
<metadata>Generated by IcoMoon</metadata>
<defs>
<font id="icomoon" horiz-adv-x="1024">
<font-face units-per-em="1024" ascent="960" descent="-64" />
<missing-glyph horiz-adv-x="1024" />
<glyph unicode="&#x20;" horiz-adv-x="512" d="" />
<glyph unicode="&#xe900;" glyph-name="alert-16" d="M526.080 847.744c-2.76 5.040-8.028 8.4-14.080 8.4s-11.32-3.36-14.038-8.317l-0.042-0.083-389.248-728.192c-1.193-2.185-1.894-4.787-1.894-7.552 0-8.828 7.149-15.985 15.973-16h778.497c8.826 0.015 15.974 7.172 15.974 16 0 2.765-0.702 5.367-1.936 7.636l0.042-0.084-389.248 728.192zM413.248 892.992c42.176 78.976 155.328 78.976 197.504 0l389.248-728.192c8.329-15.281 13.227-33.469 13.227-52.8 0-61.848-50.132-111.988-111.978-112h-778.497c-61.847 0.012-111.979 50.152-111.979 112 0 19.331 4.898 37.519 13.52 53.389l-0.293-0.589 389.248 728.192zM576 256c0-35.346-28.654-64-64-64s-64 28.654-64 64v0c0 35.346 28.654 64 64 64s64-28.654 64-64v0zM560 592c0 26.51-21.49 48-48 48s-48-21.49-48-48v0-160c0-26.51 21.49-48 48-48s48 21.49 48 48v0 160z" />
<glyph unicode="&#xe901;" glyph-name="alert-24" d="M554.667 213.333c0-23.564-19.103-42.667-42.667-42.667s-42.667 19.103-42.667 42.667v0c0 23.564 19.103 42.667 42.667 42.667s42.667-19.103 42.667-42.667v0zM544 565.333c0 17.673-14.327 32-32 32s-32-14.327-32-32v0-192c0-17.673 14.327-32 32-32s32 14.327 32 32v0 192zM419.669 821.589c41.088 71.040 143.573 71.040 184.661 0l382.592-661.504c41.088-71.125-10.24-160.085-92.373-160.085h-765.099c-82.176 0-133.461 88.96-92.373 160.085l382.592 661.504zM548.949 789.547c-7.515 12.842-21.241 21.331-36.949 21.331s-29.435-8.489-36.84-21.13l-0.109-0.201-382.549-661.504c-3.609-6.13-5.741-13.504-5.741-21.376 0-23.564 19.103-42.667 42.667-42.667 0.008 0 0.017 0 0.025 0h765.097c23.564 0.001 42.666 19.103 42.666 42.667 0 7.855-2.123 15.214-5.825 21.535l0.109-0.201-382.549 661.589z" />
<glyph unicode="&#xe902;" glyph-name="archive-16" d="M112 800c-8.837 0-16-7.163-16-16v0-96c0-8.832 7.168-16 16-16h800c8.837 0 16 7.163 16 16v0 96c0 8.837-7.163 16-16 16v0h-800zM0 784c0 61.824 50.176 112 112 112h800c61.824 0 112-50.176 112-112v-96c0-61.856-50.144-112-112-112v0h-800c-61.856 0-112 50.144-112 112v0 96zM112 512c26.51 0 48-21.49 48-48v0-352c0-8.832 7.168-16 16-16h672c8.837 0 16 7.163 16 16v0 352c0 26.51 21.49 48 48 48s48-21.49 48-48v0-352c0-61.856-50.144-112-112-112v0h-672c-61.856 0-112 50.144-112 112v0 352c0 26.51 21.49 48 48 48v0zM400 448c-26.51 0-48-21.49-48-48s21.49-48 48-48v0h224c26.51 0 48 21.49 48 48s-21.49 48-48 48v0h-224z" />
<glyph unicode="&#xe903;" glyph-name="archive-24" d="M117.333 874.667h789.333c41.237 0 74.667-33.429 74.667-74.667v-149.333c0-41.237-33.429-74.667-74.667-74.667h-789.333c-41.216 0-74.667 33.451-74.667 74.667v149.333c0 41.237 33.429 74.667 74.667 74.667zM906.667 810.667h-789.333c-5.891 0-10.667-4.776-10.667-10.667v0-149.333c0-5.888 4.779-10.667 10.667-10.667h789.333c5.891 0 10.667 4.776 10.667 10.667v0 149.333c0 5.891-4.776 10.667-10.667 10.667v0zM117.333 533.333c17.673 0 32-14.327 32-32v0-405.333c0-5.888 4.779-10.667 10.667-10.667h704c5.891 0 10.667 4.776 10.667 10.667v0 405.333c0 17.673 14.327 32 32 32s32-14.327 32-32v0-405.333c0-41.237-33.429-74.667-74.667-74.667v0h-704c-41.237 0-74.667 33.429-74.667 74.667v0 405.333c0 17.673 14.327 32 32 32v0zM416 469.333c-17.673 0-32-14.327-32-32s14.327-32 32-32v0h192c17.673 0 32 14.327 32 32s-14.327 32-32 32v0h-192z" />
<glyph unicode="&#xe904;" glyph-name="arrow-both-16" d="M238.080 721.92c8.549 7.982 20.063 12.883 32.723 12.883 26.51 0 48-21.49 48-48 0-12.659-4.901-24.174-12.908-32.751l0.026 0.028-142.080-142.080h696.32l-142.080 142.080c-7.982 8.549-12.883 20.063-12.883 32.723 0 26.51 21.49 48 48 48 12.659 0 24.174-4.901 32.751-12.908l-0.028 0.026 224-224c8.674-8.684 14.038-20.676 14.038-33.92s-5.364-25.236-14.038-33.921l-223.999-223.999c-8.787-9.411-21.267-15.277-35.117-15.277-26.51 0-48 21.49-48 48 0 13.85 5.866 26.33 15.249 35.092l0.028 0.026 142.080 142.080h-696.32l142.080-142.080c9.411-8.787 15.277-21.267 15.277-35.117 0-26.51-21.49-48-48-48-13.85 0-26.33 5.866-35.092 15.249l-0.026 0.028-224 224c-8.674 8.684-14.038 20.676-14.038 33.92s5.364 25.236 14.038 33.921l223.999 223.999z" />
<glyph unicode="&#xe905;" glyph-name="arrow-both-24" d="M331.947 705.28c-5.789 5.782-13.784 9.359-22.613 9.359s-16.824-3.576-22.614-9.359v0l-224-224c-5.782-5.789-9.359-13.784-9.359-22.613s3.576-16.824 9.359-22.614v0l224-224c5.699-5.321 13.376-8.588 21.815-8.588 17.673 0 32 14.327 32 32 0 8.44-3.267 16.116-8.606 21.834l0.017-0.019-169.387 169.387h698.88l-169.387-169.387c-6.274-5.858-10.185-14.178-10.185-23.412 0-17.673 14.327-32 32-32 9.234 0 17.554 3.911 23.394 10.166l0.017 0.019 224 224c5.782 5.789 9.359 13.784 9.359 22.613s-3.576 16.824-9.359 22.614v0l-224 224c-5.858 6.274-14.178 10.185-23.412 10.185-17.673 0-32-14.327-32-32 0-9.234 3.911-17.554 10.166-23.394l0.019-0.017 169.387-169.387h-698.88l169.387 169.387c5.782 5.789 9.359 13.784 9.359 22.613s-3.576 16.824-9.359 22.614v0z" />
<glyph unicode="&#xe906;" glyph-name="arrow-down-16" d="M833.92 433.92c8.674-8.684 14.038-20.676 14.038-33.92s-5.364-25.236-14.038-33.921l-271.999-271.999c-8.684-8.674-20.676-14.038-33.92-14.038s-25.236 5.364-33.921 14.038l-271.999 271.999c-7.982 8.549-12.883 20.063-12.883 32.723 0 26.51 21.49 48 48 48 12.659 0 24.174-4.901 32.751-12.908l-0.028 0.026 190.080-190.080v476.16c0 26.51 21.49 48 48 48s48-21.49 48-48v0-476.16l190.080 190.080c8.684 8.674 20.676 14.038 33.92 14.038s25.236-5.364 33.921-14.038l-0.001 0.001z" />
<glyph unicode="&#xe907;" glyph-name="arrow-down-24" d="M212.053 395.947c-5.782-5.789-9.359-13.784-9.359-22.613s3.576-16.824 9.359-22.614v0l266.667-266.667c5.789-5.782 13.784-9.359 22.613-9.359s16.824 3.576 22.614 9.359v0l266.667 266.667c6.274 5.858 10.185 14.178 10.185 23.412 0 17.673-14.327 32-32 32-9.234 0-17.554-3.911-23.394-10.166l-0.017-0.019-212.053-212.053v616.107c0 17.673-14.327 32-32 32s-32-14.327-32-32v0-616.107l-212.053 212.053c-5.789 5.782-13.784 9.359-22.613 9.359s-16.824-3.576-22.614-9.359v0z" />
<glyph unicode="&#xe908;" glyph-name="arrow-down-left-24" d="M245.333 597.333c-17.673 0-32-14.327-32-32v0-384c0-17.664 14.336-32 32-32h384c17.673 0 32 14.327 32 32s-14.327 32-32 32v0h-306.773l436.053 436.053c5.321 5.699 8.588 13.376 8.588 21.815 0 17.673-14.327 32-32 32-8.44 0-16.116-3.267-21.834-8.606l0.019 0.017-436.053-436.053v306.773c0 17.673-14.327 32-32 32v0z" />
<glyph unicode="&#xe909;" glyph-name="arrow-down-right-24" d="M778.667 597.333c17.673 0 32-14.327 32-32v0-384c0-17.673-14.327-32-32-32v0h-384c-17.673 0-32 14.327-32 32s14.327 32 32 32v0h306.773l-436.053 436.053c-5.321 5.699-8.588 13.376-8.588 21.815 0 17.673 14.327 32 32 32 8.44 0 16.116-3.267 21.834-8.606l-0.019 0.017 436.053-436.053v306.773c0 17.673 14.327 32 32 32v0z" />
<glyph unicode="&#xe90a;" glyph-name="arrow-left-16" d="M497.92 158.080c-8.684-8.674-20.676-14.038-33.92-14.038s-25.236 5.364-33.921 14.038l-271.999 271.999c-8.674 8.684-14.038 20.676-14.038 33.92s5.364 25.236 14.038 33.921l271.999 271.999c8.549 7.982 20.063 12.883 32.723 12.883 26.51 0 48-21.49 48-48 0-12.659-4.901-24.174-12.908-32.751l0.026 0.028-190.080-190.080h476.16c26.51 0 48-21.49 48-48s-21.49-48-48-48v0h-476.16l190.080-190.080c8.674-8.684 14.038-20.676 14.038-33.92s-5.364-25.236-14.038-33.921l0.001 0.001z" />
<glyph unicode="&#xe90b;" glyph-name="arrow-left-24" d="M459.947 148.053c-5.789-5.782-13.784-9.359-22.613-9.359s-16.824 3.576-22.614 9.359v0l-266.667 266.667c-5.782 5.789-9.359 13.784-9.359 22.613s3.576 16.824 9.359 22.614v0l266.667 266.667c5.858 6.274 14.178 10.185 23.412 10.185 17.673 0 32-14.327 32-32 0-9.234-3.911-17.554-10.166-23.394l-0.019-0.017-212.053-212.053h616.107c17.673 0 32-14.327 32-32s-14.327-32-32-32v0h-616.107l212.053-212.053c5.782-5.789 9.359-13.784 9.359-22.613s-3.576-16.824-9.359-22.614v0z" />
<glyph unicode="&#xe90c;" glyph-name="arrow-right-16" d="M526.080 769.92c8.684 8.674 20.676 14.038 33.92 14.038s25.236-5.364 33.921-14.038l271.999-271.999c8.674-8.684 14.038-20.676 14.038-33.92s-5.364-25.236-14.038-33.921l-271.999-271.999c-8.549-7.982-20.063-12.883-32.723-12.883-26.51 0-48 21.49-48 48 0 12.659 4.901 24.174 12.908 32.751l-0.026-0.028 190.080 190.080h-476.16c-26.51 0-48 21.49-48 48s21.49 48 48 48v0h476.16l-190.080 190.080c-8.674 8.684-14.038 20.676-14.038 33.92s5.364 25.236 14.038 33.921l-0.001-0.001z" />
<glyph unicode="&#xe90d;" glyph-name="arrow-right-24" d="M564.053 148.053c5.789-5.782 13.784-9.359 22.613-9.359s16.824 3.576 22.614 9.359v0l266.667 266.667c5.782 5.789 9.359 13.784 9.359 22.613s-3.576 16.824-9.359 22.614v0l-266.667 266.667c-5.858 6.274-14.178 10.185-23.412 10.185-17.673 0-32-14.327-32-32 0-9.234 3.911-17.554 10.166-23.394l0.019-0.017 212.053-212.053h-616.107c-17.673 0-32-14.327-32-32s14.327-32 32-32v0h616.107l-212.053-212.053c-5.782-5.789-9.359-13.784-9.359-22.613s3.576-16.824 9.359-22.614v0z" />
<glyph unicode="&#xe90e;" glyph-name="arrow-switch-16" d="M334.080 14.080c8.549-7.982 20.063-12.883 32.723-12.883 26.51 0 48 21.49 48 48 0 12.659-4.901 24.174-12.908 32.751l0.026-0.028-110.080 110.080h556.16c26.51 0 48 21.49 48 48s-21.49 48-48 48v0h-556.16l110.080 110.080c7.982 8.549 12.883 20.063 12.883 32.723 0 26.51-21.49 48-48 48-12.659 0-24.174-4.901-32.751-12.908l0.028 0.026-192-192c-8.674-8.684-14.038-20.676-14.038-33.92s5.364-25.236 14.038-33.921l191.999-191.999zM689.92 430.080c-8.787-9.411-21.267-15.277-35.117-15.277-26.51 0-48 21.49-48 48 0 13.85 5.866 26.33 15.249 35.092l0.028 0.026 110.080 110.080h-556.16c-26.51 0-48 21.49-48 48s21.49 48 48 48v0h556.16l-110.080 110.080c-7.982 8.549-12.883 20.063-12.883 32.723 0 26.51 21.49 48 48 48 12.659 0 24.174-4.901 32.751-12.908l-0.028 0.026 192-192c8.674-8.684 14.038-20.676 14.038-33.92s-5.364-25.236-14.038-33.921l-191.999-191.999z" />
<glyph unicode="&#xe90f;" glyph-name="arrow-switch-24" d="M329.387 30.72c5.699-5.321 13.376-8.588 21.815-8.588 17.673 0 32 14.327 32 32 0 8.44-3.267 16.116-8.606 21.834l0.017-0.019-137.387 137.387h626.773c17.673 0 32 14.327 32 32s-14.327 32-32 32v0h-626.773l137.387 137.387c6.274 5.858 10.185 14.178 10.185 23.412 0 17.673-14.327 32-32 32-9.234 0-17.554-3.911-23.394-10.166l-0.017-0.019-192-192c-5.782-5.789-9.359-13.784-9.359-22.613s3.576-16.824 9.359-22.614v0l192-192zM694.613 436.053c-5.858-6.274-14.178-10.185-23.412-10.185-17.673 0-32 14.327-32 32 0 9.234 3.911 17.554 10.166 23.394l0.019 0.017 137.387 137.387h-626.773c-17.673 0-32 14.327-32 32s14.327 32 32 32v0h626.773l-137.387 137.387c-5.321 5.699-8.588 13.376-8.588 21.815 0 17.673 14.327 32 32 32 8.44 0 16.116-3.267 21.834-8.606l-0.019 0.017 192-192c5.782-5.789 9.359-13.784 9.359-22.613s-3.576-16.824-9.359-22.614v0l-192-192z" />
<glyph unicode="&#xe910;" glyph-name="arrow-up-16" d="M222.080 462.080c-8.674 8.684-14.038 20.676-14.038 33.92s5.364 25.236 14.038 33.921l271.999 271.999c8.684 8.674 20.676 14.038 33.92 14.038s25.236-5.364 33.921-14.038l271.999-271.999c7.982-8.549 12.883-20.063 12.883-32.723 0-26.51-21.49-48-48-48-12.659 0-24.174 4.901-32.751 12.908l0.028-0.026-190.080 190.080v-476.16c0-26.51-21.49-48-48-48s-48 21.49-48 48v0 476.16l-190.080-190.080c-8.684-8.674-20.676-14.038-33.92-14.038s-25.236 5.364-33.921 14.038l0.001-0.001z" />
<glyph unicode="&#xe911;" glyph-name="arrow-up-24" d="M276.053 500.053c-5.782 5.789-9.359 13.784-9.359 22.613s3.576 16.824 9.359 22.614v0l224 224c5.789 5.782 13.784 9.359 22.613 9.359s16.824-3.576 22.614-9.359v0l224-224c6.274-5.858 10.185-14.178 10.185-23.412 0-17.673-14.327-32-32-32-9.234 0-17.554 3.911-23.394 10.166l-0.017 0.019-169.387 169.387v-530.773c0-17.673-14.327-32-32-32s-32 14.327-32 32v0 530.773l-169.387-169.387c-5.789-5.782-13.784-9.359-22.613-9.359s-16.824 3.576-22.614 9.359v0z" />
<glyph unicode="&#xe912;" glyph-name="arrow-up-left-24" d="M245.333 298.667c-17.673 0-32 14.327-32 32v0 384c0 17.673 14.327 32 32 32v0h384c17.673 0 32-14.327 32-32s-14.327-32-32-32v0h-306.773l436.053-436.053c6.274-5.858 10.185-14.178 10.185-23.412 0-17.673-14.327-32-32-32-9.234 0-17.554 3.911-23.394 10.166l-0.017 0.019-436.053 436.053v-306.773c0-17.673-14.327-32-32-32v0z" />
<glyph unicode="&#xe913;" glyph-name="arrow-up-right-24" d="M778.667 298.667c17.673 0 32 14.327 32 32v0 384c0 17.673-14.327 32-32 32v0h-384c-17.673 0-32-14.327-32-32s14.327-32 32-32v0h306.773l-436.053-436.053c-6.274-5.858-10.185-14.178-10.185-23.412 0-17.673 14.327-32 32-32 9.234 0 17.554 3.911 23.394 10.166l0.017 0.019 436.053 436.053v-306.773c0-17.664 14.336-32 32-32z" />
<glyph unicode="&#xe914;" glyph-name="beaker-16" d="M320 589.952l-234.624-368.64c-60.992-95.872 7.872-221.312 121.536-221.312h610.176c113.664 0 182.528 125.44 121.536 221.312l-234.624 368.64v210.048h16c26.51 0 48 21.49 48 48s-21.49 48-48 48h-416c-26.51 0-48-21.49-48-48s21.49-48 48-48h16v-210.048zM608 800v-223.997c0-0.017 0-0.033 0-0.050 0-9.554 2.791-18.456 7.488-25.745l105.792-166.208h-418.56l105.677 166.018c4.811 7.479 7.603 16.381 7.603 25.935 0 0.017 0 0.033 0 0.047v224h192zM166.4 169.792l75.2 118.208h540.8l75.2-118.208c4.715-7.299 7.518-16.218 7.518-25.792 0-26.51-21.49-48-48-48-0.011 0-0.021 0-0.032 0h-610.174c-0.009 0-0.020 0-0.030 0-26.51 0-48 21.49-48 48 0 9.574 2.803 18.493 7.633 25.981l-0.114-0.189z" />
<glyph unicode="&#xe915;" glyph-name="beaker-24" d="M341.333 584.235l-218.709-396.843c-41.088-74.667 12.885-166.059 98.133-166.059h582.485c85.205 0 139.221 91.392 98.091 166.059l-218.667 396.843v226.432h23.979c17.673 0 32 14.327 32 32s-14.327 32-32 32h-389.333c-17.673 0-32-14.327-32-32s14.327-32 32-32h24.021v-226.432zM618.667 810.667v-234.666c0-0.004 0-0.008 0-0.012 0-5.663 1.471-10.982 3.968-15.434l97.28-176.555h-415.829l97.197 176.393c2.58 4.614 4.051 9.933 4.051 15.596 0 0.004 0 0.008 0 0.011v234.667h213.333zM178.731 156.501l90.069 163.499h486.4l90.069-163.499c3.752-6.683 5.961-14.667 5.961-23.168 0-26.505-21.484-47.993-47.987-48h-582.486c-26.505 0.007-47.988 21.495-47.988 48 0 8.501 2.21 16.485 6.086 23.411l-0.125-0.243z" />
<glyph unicode="&#xe916;" glyph-name="bell-16" d="M512-64c0.013 0 0.028 0 0.044 0 65.052 0 118.77 48.528 126.928 111.357l0.068 0.643c1.088 8.768-6.208 16-15.040 16h-224c-8.832 0-16.128-7.232-15.040-16 8.226-63.472 61.944-112 126.996-112 0.015 0 0.031 0 0.046 0h-0.002zM512 864c-123.712 0-224-100.288-224-224v0-188.608c0-22.144-6.528-43.712-18.816-62.080l-108.992-163.584c-0.12-0.179-0.192-0.4-0.192-0.637 0-0.001 0-0.002 0-0.003v0l0.064-0.384c0-0.128 0.128-0.256 0.256-0.384 0.106-0.109 0.234-0.196 0.377-0.253l0.007-0.003 0.448-0.064 702.144 0.064c0.151 0.058 0.279 0.145 0.384 0.255v0.001c0.111 0.105 0.198 0.233 0.254 0.377l0.002 0.007 0.064 0.448c0 0.007 0 0.015 0 0.022 0 0.231-0.072 0.445-0.195 0.621l0.002-0.004-108.992 163.456c-11.777 17.445-18.804 38.941-18.816 62.077v188.675c0 123.712-100.288 224-224 224v0zM192 640c0 176.731 143.269 320 320 320s320-143.269 320-320v0-188.608c0-3.2 0.96-6.272 2.688-8.896l108.992-163.52c10.195-15.129 16.273-33.767 16.273-53.824 0-53.639-43.469-97.125-97.102-97.152h-701.698c-53.654 0.003-97.147 43.498-97.147 97.152 0 20.084 6.094 38.745 16.535 54.234l-0.22-0.346 108.992 163.456c1.684 2.494 2.688 5.568 2.688 8.876 0 0.007 0 0.014 0 0.021v-0.001 188.608z" />
<glyph unicode="&#xe917;" glyph-name="bell-24" d="M512 917.333c-157.099 0-298.667-109.44-298.667-256v-193.664c0-28.672-8.702-55.311-23.609-77.421l0.313 0.493-93.867-140.757c-6.796-10.086-10.848-22.511-10.848-35.883 0-35.77 28.998-64.768 64.768-64.768 0.019 0 0.038 0 0.057 0h212.52c0-82.475 66.859-149.333 149.333-149.333s149.333 66.859 149.333 149.333v0h212.565c35.769 0.002 64.765 28.999 64.765 64.768 0 13.389-4.063 25.83-11.023 36.156l0.146-0.231-93.867 140.715c-14.568 21.603-23.253 48.22-23.253 76.865 0 0.022 0 0.044 0 0.067v-0.004 193.664c0 146.56-141.611 256-298.667 256zM277.333 661.333c0 100.864 101.675 192 234.667 192s234.667-91.136 234.667-192v-193.664c0-40.021 11.861-79.104 34.048-112.427l93.824-140.757c0.080-0.115 0.128-0.258 0.128-0.412 0-0.005 0-0.011 0-0.016v0.001l-0.043-0.256-0.171-0.256-0.256-0.171-0.299-0.043-724.566 0.768 0.128 0.427 93.867 140.715c21.303 31.58 34.005 70.492 34.005 112.371 0 0.020 0 0.040 0 0.059v-0.003 193.664zM597.333 149.333v0c0-47.128-38.205-85.333-85.333-85.333s-85.333 38.205-85.333 85.333h170.667z" />
<glyph unicode="&#xe918;" glyph-name="bell-fill-24" d="M256 618.667c0 141.385 114.615 256 256 256s256-114.615 256-256v0-124.459c0-29.995 9.728-59.179 27.733-83.2l87.467-116.608c7.991-10.563 12.8-23.92 12.8-38.4 0-35.346-28.654-64-64-64v0h-640c-35.346 0-64 28.654-64 64 0 14.48 4.809 27.837 12.917 38.561l-0.117-0.161 87.467 116.608c17.314 22.886 27.733 51.826 27.733 83.2v0 124.459zM512 42.667c-67.267 0.012-124.147 44.472-142.868 105.608l-0.279 1.058h286.293c-19-62.195-75.88-106.655-143.145-106.667h-0.001z" />
<glyph unicode="&#xe919;" glyph-name="bell-slash-16" d="M512 864v0c123.712 0 224-100.288 224-224v-151.872c0-26.51 21.49-48 48-48s48 21.49 48 48v151.868c0 0.023 0 0.045 0 0.068 0 176.731-143.269 320-320 320-91.087 0-173.285-38.057-231.68-99.264l0.017 0.018c-8.236-8.622-13.294-20.305-13.294-33.17 0-26.526 21.503-48.029 48.029-48.029 13.661 0 25.989 5.703 34.752 14.877 40.896 42.88 98.368 69.504 162.176 69.504zM267.648 684.16l0.166-0.106c0.337-0.227 0.67-0.459 0.858-0.598l646.841-468.36c0.272-0.208 0.543-0.418 0.647-0.504l88.161-63.849c12.552-8.658 20.779-23.139 20.779-39.541 0-26.51-21.49-48-48-48-11.063 0-21.253 3.743-29.26 9.95l-75.776 54.848h-710.912c-53.653 0.003-97.147 43.498-97.147 97.152 0 20.084 6.094 38.745 16.315 53.888l108.956 163.399c1.72 2.551 2.724 5.625 2.724 8.933 0 0.007 0 0.014 0 0.020v169.088l-172.321 124.777c-12.552 8.658-20.779 23.139-20.779 39.541 0 26.51 21.49 48 48 48 11.063 0 21.253-3.743 29.26-9.95l191.488-138.688zM739.52 224l-451.52 326.976v-99.584c0-22.144-6.528-43.712-18.816-62.080l-108.992-163.584c-0.12-0.179-0.192-0.4-0.192-0.637 0-0.001 0-0.002 0-0.003v0c-0.001-0.015-0.001-0.033-0.001-0.051 0-0.285 0.124-0.54 0.32-0.716l0.001-0.001c0.106-0.109 0.234-0.196 0.377-0.253l0.007-0.003 0.448-0.064h578.368zM512-64c0.013 0 0.028 0 0.044 0 65.052 0 118.77 48.528 126.928 111.357l0.068 0.643c1.088 8.768-6.208 16-15.040 16h-224c-8.832 0-16.128-7.232-15.040-16 8.226-63.472 61.944-112 126.996-112 0.015 0 0.031 0 0.046 0h-0.002z" />
<glyph unicode="&#xe91a;" glyph-name="bell-slash-24" d="M52.053 907.947v0c-5.783-5.79-9.359-13.784-9.359-22.614s3.576-16.824 9.359-22.613l164.395-164.437c-2.048-12.075-3.115-24.405-3.115-36.949v-193.66c0-0.022 0-0.044 0-0.067 0-28.645-8.686-55.262-23.253-76.865l-93.721-140.484c-6.96-10.326-11.023-22.766-11.023-36.156 0-35.769 28.996-64.766 64.765-64.768h212.565c0-82.475 66.859-149.333 149.333-149.333s149.333 66.859 149.333 149.333h104.107l161.297-161.299c5.841-6.256 14.161-10.166 23.394-10.166 17.673 0 32 14.327 32 32 0 9.234-3.911 17.554-10.185 23.412l-874.667 874.667c-5.79 5.783-13.784 9.359-22.614 9.359s-16.824-3.576-22.613-9.359zM426.667 149.333h170.667c0-47.128-38.205-85.333-85.333-85.333s-85.333 38.205-85.333 85.333zM277.333 637.44l424.107-424.107-552.15 0.768 0.128 0.427 93.867 140.715c21.303 31.58 34.005 70.492 34.005 112.371 0 0.020 0 0.040 0 0.059v-0.003 169.771zM512 853.333c-62.421 0-119.467-20.693-161.621-53.632l-1.707-1.365c-5.417-4.347-12.375-6.977-19.947-6.977-17.674 0-32.001 14.327-32.001 32.001 0 10.102 4.681 19.11 11.992 24.975l0.063 0.049 2.133 1.707c53.803 42.069 124.8 67.243 201.088 67.243 157.056 0 298.667-109.44 298.667-256v-193.664c0-27.392 8.107-54.144 23.296-76.928l56.661-84.992c3.488-5.050 5.571-11.303 5.571-18.042 0-17.673-14.327-32-32-32-11.181 0-21.023 5.735-26.745 14.423l-0.074 0.12-56.661 84.992c-21.328 31.592-34.046 70.524-34.048 112.426v193.665c0 100.864-101.675 192-234.667 192z" />
<glyph unicode="&#xe91b;" glyph-name="bold-16" d="M256 832h287.997c0.019 0 0.038 0 0.057 0 123.712 0 224-100.288 224-224 0-48.729-15.56-93.825-41.526-129.92l0.923-0.544c62.831-39.677 104.563-109.733 104.563-189.536 0-123.712-100.288-224-224-224-0.005 0-0.010 0-0.014 0h-352c-35.346 0-64 28.654-64 64v640c0 35.346 28.654 64 64 64zM544 512c53.019 0 96 42.981 96 96s-42.981 96-96 96v0h-224v-192h224zM320 384v-192h288c53.019 0 96 42.981 96 96s-42.981 96-96 96v0h-288z" />
<glyph unicode="&#xe91c;" glyph-name="bold-24" d="M256 757.333c0 29.44 23.893 53.333 53.333 53.333h213.333c0.002 0 0.005 0 0.008 0 111.93 0 202.667-90.737 202.667-202.667 0-43.611-13.775-84.005-37.211-117.067l0.424 0.63c72.832-34.989 122.217-108.175 122.217-192.896 0-117.821-95.513-213.333-213.333-213.333-0.037 0-0.074 0-0.11 0h-287.994c-29.44 0-53.333 23.893-53.333 53.333v618.667zM362.667 405.333v-213.333h234.667c58.91 0 106.667 47.756 106.667 106.667s-47.756 106.667-106.667 106.667v0h-234.667zM362.667 512h160.043c53.010 0.012 95.979 42.988 95.979 96 0 53.019-42.981 96-96 96-0.007 0-0.015 0-0.022 0h-159.999v-192z" />
<glyph unicode="&#xe91d;" glyph-name="book-16" d="M0 848c0 26.51 21.49 48 48 48v0h272.192c78.528 0 148.288-37.76 192-96.064 44.173 58.586 113.638 96.064 191.856 96.064 0.118 0 0.236 0 0.354 0h271.662c26.51 0 48-21.49 48-48v0-672c0-26.51-21.49-48-48-48v0h-288.448c0 0-0.001 0-0.001 0-39.764 0-75.764-16.117-101.823-42.176v0l-39.808-39.744c-8.684-8.674-20.676-14.038-33.92-14.038s-25.236 5.364-33.921 14.038l-39.807 39.743c-26.059 26.059-62.059 42.176-101.823 42.176 0 0-0.001 0-0.001 0h-288.512c-26.51 0-48 21.49-48 48v0 672zM560.32 656l-0.256-468.608c37.888 23.744 82.048 36.608 127.488 36.608h240.448v576h-223.68c-79.529 0-144-64.471-144-144zM464.064 187.264l0.256 324.672-0.128 144.192c-0.073 79.474-64.516 143.872-144 143.872h-224.192v-576h240.448c0.002 0 0.005 0 0.008 0 47.305 0 91.414-13.686 128.583-37.315l-0.975 0.579z" />
<glyph unicode="&#xe91e;" glyph-name="book-24" d="M0 800v-640c0-17.673 14.327-32 32-32h328.407c35.342-0.008 67.336-14.339 90.494-37.504l38.485-38.443c5.791-5.795 13.794-9.38 22.634-9.38s16.843 3.585 22.635 9.38l37.972 38.015c23.161 23.149 55.151 37.465 90.484 37.465 0.319 0 0.638-0.001 0.908-0.003l327.754-2.219c0.075-0.001 0.15-0.001 0.225-0.001 17.673 0 32 14.327 32 32 0 0 0 0.001 0 0.001v642.688c0 17.673-14.327 32-32 32h-319.992c-0.048 0-0.095 0-0.143 0-66.501 0-125.098-33.839-159.95-85.931-34.389 51.797-93.227 85.931-160.043 85.931h-319.872c-17.673 0-32-14.327-32-32zM479.872 640.128l0.128-489.941 0.378-0.293c-32.864 26.343-74.578 42.101-119.973 42.107h-296.405v576h287.872c70.647 0 127.927-57.235 128-127.872zM544 150.101v489.899c0 70.692 57.308 128 128 128v0h288v-578.475l-295.552 2.005c-0.389 0.003-0.849 0.004-1.31 0.004-45.188 0-86.73-15.611-119.527-41.734l0.39 0.3z" />
<glyph unicode="&#xe91f;" glyph-name="bookmark-16" d="M304 800c-8.837 0-16-7.163-16-16v0-634.24l193.472 159.296c8.228 6.821 18.895 10.959 30.528 10.959s22.3-4.138 30.608-11.023l-0.080 0.064 193.472-159.36v634.304c0 8.837-7.163 16-16 16v0h-416zM192 784c0 61.824 50.176 112 112 112h416c61.824 0 112-50.176 112-112v-736c0-0.004 0-0.010 0-0.015 0-26.51-21.49-48-48-48-11.633 0-22.3 4.138-30.608 11.023l0.080-0.064-241.472 198.848-241.472-198.848c-8.228-6.821-18.895-10.959-30.528-10.959-26.51 0-48 21.49-48 48 0 0.005 0 0.010 0 0.016v-0.001 736z" />
<glyph unicode="&#xe920;" glyph-name="bookmark-24" d="M213.333 800c0 41.216 33.451 74.667 74.667 74.667h448c41.216 0 74.667-33.451 74.667-74.667v-746.667c-0.002-17.672-14.328-31.997-32-31.997-7.582 0-14.547 2.637-20.030 7.043l0.062-0.048-246.699 197.376-246.656-197.333c-5.428-4.379-12.41-7.029-20.011-7.029-17.669 0-31.993 14.32-32 31.988v746.668zM288 810.667c-5.891 0-10.667-4.776-10.667-10.667v0-680.107l214.656 171.776c5.428 4.379 12.41 7.029 20.011 7.029s14.583-2.65 20.072-7.076l-0.061 0.048 214.656-171.776v680.107c0 5.891-4.776 10.667-10.667 10.667v0h-448z" />
<glyph unicode="&#xe921;" glyph-name="bookmark-fill-24" d="M285.44 874.667c0 0 0 0 0 0-41.237 0-74.667-33.429-74.667-74.667 0-0.090 0-0.18 0-0.27v0.014l2.56-746.539c0.055-17.632 14.361-31.903 32-31.903 7.601 0 14.583 2.65 20.072 7.076l-0.061-0.048 246.656 197.376 246.699-197.333c5.421-4.358 12.386-6.994 19.968-6.994 17.657 0 31.974 14.301 32 31.952v746.67c0 41.237-33.429 74.667-74.667 74.667v0h-450.56z" />
<glyph unicode="&#xe922;" glyph-name="bookmark-slash-16" d="M76.16 886.848l191.633-138.785c0.294-0.207 0.586-0.417 0.751-0.543l543.32-393.426c0.293-0.208 0.585-0.419 0.68-0.494l191.777-138.857c12.552-8.658 20.779-23.139 20.779-39.541 0-26.51-21.49-48-48-48-11.063 0-21.253 3.743-29.26 9.95l-115.84 83.84v-172.99c0-0.012 0-0.025 0-0.037 0-26.51-21.49-48-48-48-11.029 0-21.19 3.72-29.184 9.891l-242.816 185.728-242.704-185.645c-8.106-6.254-18.266-9.974-29.296-9.974-26.51 0-48 21.49-48 48 0 0.012 0 0.025 0 0.035v636.48l-172.321 124.777c-12.552 8.658-20.779 23.139-20.779 39.541 0 26.51 21.49 48 48 48 11.063 0 21.253-3.743 29.26-9.95zM288 615.040v-469.824l194.816 148.992c7.994 6.171 18.155 9.891 29.184 9.891s21.19-3.72 29.296-9.974l-0.112 0.083 194.816-148.992v145.344l-448 324.48zM375.36 896c-26.51 0-48-21.49-48-48s21.49-48 48-48v0h344.64c8.837 0 16-7.163 16-16v0-231.936c0-26.51 21.49-48 48-48s48 21.49 48 48v0 231.936c0 61.856-50.144 112-112 112v0h-344.64z" />
<glyph unicode="&#xe923;" glyph-name="bookmark-slash-24" d="M66.773 873.941l928.091-672.063c7.966-5.821 13.141-15.235 13.141-25.857 0-17.676-14.329-32.004-32.004-32.004-7.054 0-13.574 2.282-18.773 6.084l-146.56 106.112v-203.267c-0.031-17.647-14.346-31.943-32-31.943-7.601 0-14.583 2.65-20.011 7.029l-246.656 197.675-246.595-197.669c-5.489-4.426-12.471-7.076-20.072-7.076-17.669 0-31.993 14.32-32 31.989v635.819l-184.18 133.388c-7.556 5.853-12.42 15.015-12.42 25.312 0 17.673 14.327 32 32 32 6.738 0 12.99-2.083 18.040-5.57zM746.667 302.592l-469.333 339.84v-522.837l214.656 172.032c5.428 4.379 12.41 7.029 20.011 7.029s14.583-2.65 20.072-7.076l-0.061 0.048 214.656-172.032v182.955zM309.333 874.667c-17.673 0-32-14.327-32-32s14.327-32 32-32v0h426.667c5.891 0 10.667-4.776 10.667-10.667v0-277.333c0-17.673 14.327-32 32-32s32 14.327 32 32v0 277.333c0 41.237-33.429 74.667-74.667 74.667v0h-426.667z" />
<glyph unicode="&#xe924;" glyph-name="bookmark-slash-fill-24" d="M137.899 867.2c-5.521 4.652-12.713 7.479-20.565 7.479-17.68 0-32.013-14.333-32.013-32.013 0-9.828 4.429-18.621 11.399-24.494l0.048-0.040 114.304-95.744 2.261-669.184c0.055-17.632 14.361-31.903 32-31.903 7.601 0 14.583 2.65 20.072 7.076l-0.061-0.048 246.656 197.376 246.699-197.333c5.421-4.358 12.386-6.994 19.968-6.994 17.657 0 31.974 14.301 32 31.952v166.702l75.435-63.232c5.521-4.652 12.713-7.479 20.565-7.479 17.68 0 32.013 14.333 32.013 32.013 0 9.828-4.429 18.621-11.399 24.494l-0.048 0.040-789.333 661.333zM316.672 874.667c-0.006 0-0.013 0-0.020 0-17.673 0-32-14.327-32-32 0-9.829 4.432-18.624 11.406-24.494l0.049-0.040 461.995-387.115c5.52-4.655 12.712-7.483 20.565-7.483 17.673 0 32 14.327 32 32 0 0.006 0 0.012 0 0.018v-0.001 344.448c0 41.237-33.429 74.667-74.667 74.667v0h-419.328z" />
<glyph unicode="&#xe925;" glyph-name="briefcase-16" d="M432 960h160c61.856 0 112-50.144 112-112v-80h208c61.856 0 112-50.144 112-112v-544c0-61.856-50.144-112-112-112h-800c-61.824 0-112 50.176-112 112v544c0 61.856 50.144 112 112 112h208v80c0 61.856 50.144 112 112 112zM608 768v80c0 8.837-7.163 16-16 16v0h-160c-8.837 0-16-7.163-16-16v0-80h192zM320 672h-208c-8.837 0-16-7.163-16-16v0-80c0-70.692 57.308-128 128-128v0h576c70.692 0 128 57.308 128 128v0 80c0 8.837-7.163 16-16 16v0h-592zM224 352c-0.115 0-0.251 0-0.387 0-47.77 0-92.031 15.022-128.317 40.599l0.704-0.471v-280.128c0-8.832 7.168-16 16-16h800c8.837 0 16 7.163 16 16v0 280.128c-35.582-25.107-79.843-40.128-127.613-40.128-0.136 0-0.272 0-0.408 0h-575.979z" />
<glyph unicode="&#xe926;" glyph-name="briefcase-24" d="M320 885.333c0 41.216 33.451 74.667 74.667 74.667h234.667c41.216 0 74.667-33.451 74.667-74.667v-96h202.667c41.216 0 74.667-33.451 74.667-74.667v-618.667c0-41.237-33.429-74.667-74.667-74.667v0h-789.333c-41.237 0-74.667 33.429-74.667 74.667v0 618.667c0 41.216 33.451 74.667 74.667 74.667h202.667v96zM106.667 448.427v-352.427c0-5.888 4.779-10.667 10.667-10.667h789.333c5.891 0 10.667 4.776 10.667 10.667v0 352.427c-31.315-26.79-72.296-43.094-117.085-43.094-0.087 0-0.174 0-0.262 0h-575.986c-0.074 0-0.161 0-0.248 0-44.789 0-85.77 16.304-117.333 43.3l0.247-0.207zM917.333 586.667v128c0 5.891-4.776 10.667-10.667 10.667h-789.333c-5.891 0-10.667-4.776-10.667-10.667v-128c0-64.801 52.532-117.333 117.333-117.333h576c64.801 0 117.333 52.532 117.333 117.333zM640 885.333v0c0 5.891-4.776 10.667-10.667 10.667h-234.667c-5.891 0-10.667-4.776-10.667-10.667v-96h256v96z" />
<glyph unicode="&#xe927;" glyph-name="broadcast-16" d="M209.088 866.752c19.2-18.304 19.968-48.64 1.664-67.84-71.030-74.257-114.753-175.147-114.753-286.249 0-0.233 0-0.466 0.001-0.699v0.036c0-0.219-0.001-0.479-0.001-0.739 0-111.078 43.723-211.944 114.898-286.325l-0.145 0.153c7.697-8.481 12.408-19.793 12.408-32.206 0-26.51-21.49-48-48-48-13.241 0-25.229 5.361-33.913 14.031l0.001-0.001c-5.686 5.969-11.453 12.303-17.077 18.766l-0.587 0.69c-76.797 88.786-123.585 205.376-123.585 332.894 0 0.26 0 0.519 0.001 0.778v-0.041c0 136.896 53.76 261.312 141.248 353.088 8.759 9.181 21.089 14.89 34.753 14.89 12.836 0 24.494-5.038 33.107-13.245l-0.019 0.018zM814.912 866.752c8.593 8.188 20.252 13.226 33.087 13.226 13.663 0 25.993-5.709 34.735-14.871l0.018-0.019c87.433-91.448 141.248-215.675 141.248-352.47 0-0.217 0-0.434 0-0.651v0.033c0-136.896-53.76-261.312-141.248-353.088-8.817-9.717-21.495-15.794-35.592-15.794-26.51 0-48 21.49-48 48 0 13.269 5.384 25.281 14.087 33.969l0.001 0.001c71.030 74.257 114.753 175.147 114.753 286.249 0 0.233 0 0.466-0.001 0.699v-0.036c0 0.197 0.001 0.43 0.001 0.663 0 111.102-43.722 211.992-114.899 286.403l0.146-0.154c-8.188 8.593-13.226 20.252-13.226 33.087 0 13.663 5.709 25.993 14.871 34.735l0.019 0.018zM560 410.752c38.147 18.402 64 56.778 64 101.193 0 61.856-50.144 112-112 112s-112-50.144-112-112c0-44.415 25.853-82.791 63.331-100.901l0.669-0.291v-362.752c0-26.51 21.49-48 48-48s48 21.49 48 48v0 362.752zM341.184 656.896c7.11 8.321 11.437 19.207 11.437 31.104 0 26.517-21.496 48.013-48.013 48.013-14.62 0-27.714-6.535-36.521-16.843l-0.055-0.066c-47.268-55.284-76.032-127.62-76.032-206.674 0-0.151 0-0.302 0-0.453v0.023c0-78.528 28.352-150.528 75.328-206.208 8.831-9.886 21.616-16.079 35.848-16.079 26.51 0 48 21.49 48 48 0 11.379-3.96 21.833-10.576 30.060l0.072-0.093c-32.753 38.556-52.672 88.903-52.672 143.904 0 0.147 0 0.293 0 0.439v-0.023c0 55.296 19.968 105.856 53.184 144.896zM756.672 718.208c-8.831 9.886-21.616 16.079-35.848 16.079-26.51 0-48-21.49-48-48 0-11.379 3.96-21.833 10.576-30.060l-0.072 0.093c32.896-39.040 52.672-89.28 52.672-144.32s-19.84-105.344-52.672-144.32c-7.542-8.442-12.152-19.643-12.152-31.921 0-26.51 21.49-48 48-48 15.131 0 28.626 7.001 37.424 17.94l0.072 0.093c46.842 55.154 75.328 127.173 75.328 205.844 0 0.128 0 0.256 0 0.384v-0.020c0 0.108 0 0.236 0 0.364 0 78.672-28.487 150.69-75.708 206.302l0.379-0.458z" />
<glyph unicode="&#xe928;" glyph-name="broadcast-24" d="M874.027 852.693c-5.699 5.321-13.376 8.588-21.815 8.588-17.673 0-32-14.327-32-32 0-8.44 3.267-16.116 8.606-21.834l-0.017 0.019c81.053-80.843 131.2-192.64 131.2-316.149 0-0.229 0-0.458-0.001-0.686v0.035c0-123.733-50.091-235.648-131.2-316.757-5.564-5.75-8.993-13.595-8.993-22.242 0-17.673 14.327-32 32-32 8.636 0 16.473 3.421 22.229 8.981l-0.009-0.009c92.652 92.428 149.974 220.236 149.974 361.432 0 0.209 0 0.419 0 0.628v-0.033c0 141.397-57.344 269.44-149.973 362.027zM195.2 807.467c5.321 5.699 8.588 13.376 8.588 21.815 0 17.673-14.327 32-32 32-8.44 0-16.116-3.267-21.834-8.606l0.019 0.017c-92.652-92.428-149.974-220.236-149.974-361.432 0-0.209 0-0.419 0-0.628v0.033c0-141.355 57.344-269.397 149.973-362.027 5.699-5.321 13.376-8.588 21.815-8.588 17.673 0 32 14.327 32 32 0 8.44-3.267 16.116-8.606 21.834l0.017-0.019c-81.053 80.843-131.2 192.64-131.2 316.149 0 0.229 0 0.458 0.001 0.686v-0.035c0 123.733 50.091 235.691 131.2 316.8zM346.027 656.64c5.321 5.699 8.588 13.376 8.588 21.815 0 17.673-14.327 32-32 32-8.44 0-16.116-3.267-21.834-8.606l0.019 0.017c-54.036-53.917-87.467-128.467-87.467-210.825 0-0.132 0-0.264 0-0.396v0.021c0-0.111 0-0.243 0-0.375 0-82.358 33.43-156.908 87.462-210.82l0.005-0.005c5.747-5.552 13.584-8.972 22.22-8.972 17.673 0 32 14.327 32 32 0 8.646-3.429 16.492-9.002 22.251l0.008-0.009c-42.438 42.333-68.694 100.871-68.694 165.542 0 0.152 0 0.303 0 0.455v-0.024c0 0.103 0 0.224 0 0.346 0 64.671 26.256 123.209 68.689 165.537l0.005 0.005zM723.2 701.867c-5.858 6.274-14.178 10.185-23.412 10.185-17.673 0-32-14.327-32-32 0-9.234 3.911-17.554 10.166-23.394l0.019-0.017c42.438-42.333 68.694-100.871 68.694-165.542 0-0.152 0-0.303 0-0.455v0.024c0-0.115 0-0.252 0-0.389 0-64.671-26.256-123.209-68.689-165.537l-0.005-0.005c-6.274-5.858-10.185-14.178-10.185-23.412 0-17.673 14.327-32 32-32 9.234 0 17.554 3.911 23.394 10.166l0.017 0.019c54.036 53.917 87.467 128.467 87.467 210.825 0 0.117 0 0.234 0 0.35v-0.018c0 0.099 0 0.215 0 0.332 0 82.358-33.43 156.907-87.461 210.819l-0.006 0.006zM597.333 490.667c0-0.012 0-0.026 0-0.041 0-35.595-21.794-66.1-52.767-78.899l-0.567-0.207v-358.187c0-17.673-14.327-32-32-32s-32 14.327-32 32v0 358.187c-31.539 13.006-53.333 43.511-53.333 79.106 0 47.128 38.205 85.333 85.333 85.333 47.114 0 85.31-38.182 85.333-85.291v-0.002z" />
<glyph unicode="&#xe929;" glyph-name="browser-16" d="M384 768h64v-64h-64v64zM256 768h64v-64h-64v64zM128 768h64v-64h-64v64zM896 128h-768v512h768v-512zM896 704h-384v64h384v-64zM960 768c0 35.2-28.8 64-64 64h-768c-35.2 0-64-28.8-64-64v-640c0-35.2 28.8-64 64-64h768c35.2 0 64 28.8 64 64v640z" />
<glyph unicode="&#xe92a;" glyph-name="bug-16" d="M704 320h192v64h-192v64l202.88 65.92-21.76 60.16-181.12-62.080v64c0 35.2-28.8 64-64 64v64c0 30.72-23.040 56.32-53.12 62.080l65.92 65.92h115.2v64h-140.8l-128-128h-37.76l-128.64 128h-140.8v-64h115.2l65.92-65.92c-30.080-5.76-53.12-30.72-53.12-62.080v-64c-35.2 0-64-28.8-64-64v-64l-181.12 62.080-21.76-60.16 202.88-65.92v-64h-192v-64h192v-64l-202.88-65.92 21.76-60.16 181.12 62.080v-64c0-35.2 28.8-64 64-64h64l64 64v448h64v-448l64-64h64c35.2 0 64 28.8 64 64v64l181.12-62.080 21.76 60.16-202.88 65.92v64zM576 640h-192v64h192v-64z" />
<glyph unicode="&#xe92b;" glyph-name="calendar-16" d="M304 960c26.51 0 48-21.49 48-48v0-80h320v80c0 26.51 21.49 48 48 48s48-21.49 48-48v0-80h80c61.824 0 112-50.176 112-112v-672c0-61.856-50.144-112-112-112v0h-672c-61.856 0-112 50.144-112 112v0 672c0 61.824 50.176 112 112 112h80v80c0 26.51 21.49 48 48 48v0zM304 736h-128c-8.837 0-16-7.163-16-16v-144h704v144c0 8.837-7.163 16-16 16h-544zM160 480v-432c0-8.832 7.168-16 16-16h672c8.837 0 16 7.163 16 16v0 432h-704z" />
<glyph unicode="&#xe92c;" glyph-name="calendar-24" d="M288 960c17.673 0 32-14.327 32-32v0-96h384v96c0 17.673 14.327 32 32 32s32-14.327 32-32v0-96h117.333c41.216 0 74.667-33.451 74.667-74.667v-682.667c0-41.237-33.429-74.667-74.667-74.667v0h-746.667c-41.237 0-74.667 33.429-74.667 74.667v0 682.667c0 41.216 33.451 74.667 74.667 74.667h117.333v96c0 17.673 14.327 32 32 32v0zM138.667 768c-5.891 0-10.667-4.776-10.667-10.667v0-138.667h768v138.667c0 5.891-4.776 10.667-10.667 10.667v0h-746.667zM896 554.667h-768v-480c0-5.888 4.779-10.667 10.667-10.667h746.667c5.891 0 10.667 4.776 10.667 10.667v0 480z" />
<glyph unicode="&#xe92d;" glyph-name="check-16" d="M881.92 689.92c8.674-8.684 14.038-20.676 14.038-33.92s-5.364-25.236-14.038-33.921l-463.999-463.999c-8.684-8.674-20.676-14.038-33.92-14.038s-25.236 5.364-33.921 14.038l-207.999 207.999c-7.982 8.549-12.883 20.063-12.883 32.723 0 26.51 21.49 48 48 48 12.659 0 24.174-4.901 32.751-12.908l-0.028 0.026 174.080-174.080 430.080 430.080c8.684 8.674 20.676 14.038 33.92 14.038s25.236-5.364 33.921-14.038l-0.001 0.001z" />
<glyph unicode="&#xe92e;" glyph-name="check-24" d="M897.28 715.947c5.782-5.789 9.359-13.784 9.359-22.613s-3.576-16.824-9.359-22.614v0l-490.667-490.667c-5.79-5.786-13.787-9.364-22.619-9.364-9.084 0-17.284 3.785-23.109 9.865l-0.011 0.011-234.667 245.333c-5.851 5.801-9.473 13.841-9.473 22.727 0 17.673 14.327 32 32 32 9.396 0 17.846-4.049 23.7-10.498l0.024-0.027 212.053-221.653 467.541 467.499c5.789 5.782 13.784 9.359 22.613 9.359s16.824-3.576 22.614-9.359v0z" />
<glyph unicode="&#xe92f;" glyph-name="check-circle-16" d="M96 448v0c0-229.75 186.25-416 416-416s416 186.25 416 416v0c0 229.75-186.25 416-416 416s-416-186.25-416-416zM0 448c0 282.77 229.23 512 512 512s512-229.23 512-512v0c0-282.77-229.23-512-512-512s-512 229.23-512 512v0zM753.92 558.080c7.982 8.549 12.883 20.063 12.883 32.723 0 26.51-21.49 48-48 48-12.659 0-24.174-4.901-32.751-12.908l0.028 0.026-254.080-254.080-94.080 94.080c-8.549 7.982-20.063 12.883-32.723 12.883-26.51 0-48-21.49-48-48 0-12.659 4.901-24.174 12.908-32.751l-0.026 0.028 128-128c8.684-8.674 20.676-14.038 33.92-14.038s25.236 5.364 33.921 14.038l287.999 287.999z" />
<glyph unicode="&#xe930;" glyph-name="check-circle-24" d="M737.28 564.053c5.321 5.699 8.588 13.376 8.588 21.815 0 17.673-14.327 32-32 32-8.44 0-16.116-3.267-21.834-8.606l0.019 0.017-254.72-254.72-105.387 105.387c-5.699 5.321-13.376 8.588-21.815 8.588-17.673 0-32-14.327-32-32 0-8.44 3.267-16.116 8.606-21.834l-0.017 0.019 128-128c5.789-5.782 13.784-9.359 22.613-9.359s16.824 3.576 22.614 9.359v0l277.333 277.333zM512 917.333c-259.2 0-469.333-210.133-469.333-469.333s210.133-469.333 469.333-469.333 469.333 210.133 469.333 469.333-210.133 469.333-469.333 469.333zM106.667 448c0 223.859 181.474 405.333 405.333 405.333s405.333-181.474 405.333-405.333v0c0-223.859-181.474-405.333-405.333-405.333s-405.333 181.474-405.333 405.333v0z" />
<glyph unicode="&#xe931;" glyph-name="check-circle-fill-16" d="M512-64v0c-282.77 0-512 229.23-512 512s229.23 512 512 512v0c282.77 0 512-229.23 512-512s-229.23-512-512-512zM753.92 558.080c7.982 8.549 12.883 20.063 12.883 32.723 0 26.51-21.49 48-48 48-12.659 0-24.174-4.901-32.751-12.908l0.028 0.026-254.080-254.080-94.080 94.080c-8.549 7.982-20.063 12.883-32.723 12.883-26.51 0-48-21.49-48-48 0-12.659 4.901-24.174 12.908-32.751l-0.026 0.028 128-128c8.684-8.674 20.676-14.038 33.92-14.038s25.236 5.364 33.921 14.038l287.999 287.999z" />
<glyph unicode="&#xe932;" glyph-name="check-circle-fill-24" d="M42.667 448c0 259.2 210.133 469.333 469.333 469.333s469.333-210.133 469.333-469.333-210.133-469.333-469.333-469.333-469.333 210.133-469.333 469.333zM737.28 564.053c5.321 5.699 8.588 13.376 8.588 21.815 0 17.673-14.327 32-32 32-8.44 0-16.116-3.267-21.834-8.606l0.019 0.017-254.72-254.72-105.387 105.387c-5.699 5.321-13.376 8.588-21.815 8.588-17.673 0-32-14.327-32-32 0-8.44 3.267-16.116 8.606-21.834l-0.017 0.019 128-128c5.789-5.782 13.784-9.359 22.613-9.359s16.824 3.576 22.614 9.359v0l277.333 277.333z" />
<glyph unicode="&#xe933;" glyph-name="checklist-16" d="M160 848c0 8.837 7.163 16 16 16v0h544c8.837 0 16-7.163 16-16v0-495.104c0-26.51 21.49-48 48-48s48 21.49 48 48v0 495.104c0 61.856-50.144 112-112 112v0h-544c-61.856 0-112-50.144-112-112v0-736c0-61.824 50.176-112 112-112h202.88c26.51 0 48 21.49 48 48s-21.49 48-48 48v0h-202.88c-8.837 0-16 7.163-16 16v0 736zM304 704c-26.51 0-48-21.49-48-48s21.49-48 48-48v0h288c26.51 0 48 21.49 48 48s-21.49 48-48 48v0h-288zM256 464c0 26.51 21.49 48 48 48v0h128c26.51 0 48-21.49 48-48s-21.49-48-48-48v0h-128c-26.51 0-48 21.49-48 48v0zM1009.536 237.632c8.939 8.729 14.483 20.901 14.483 34.368 0 26.52-21.499 48.019-48.019 48.019-13.053 0-24.89-5.208-33.545-13.66l0.009 0.009-257.664-251.648-90.816 91.2c-8.557 8.020-20.099 12.946-32.791 12.946-26.51 0-48-21.49-48-48 0-12.628 4.877-24.118 12.85-32.687l-0.027 0.029 124.352-124.8c8.694-8.733 20.725-14.137 34.019-14.137 13.038 0 24.861 5.198 33.511 13.634l-0.010-0.010 291.648 284.8z" />
<glyph unicode="&#xe934;" glyph-name="checklist-24" d="M149.333 800c0 5.891 4.776 10.667 10.667 10.667v0h576c5.891 0 10.667-4.776 10.667-10.667v0-426.667c0-17.673 14.327-32 32-32s32 14.327 32 32v0 426.667c0 41.237-33.429 74.667-74.667 74.667v0h-576c-41.237 0-74.667-33.429-74.667-74.667v0-704c0-41.216 33.451-74.667 74.667-74.667h298.667c17.673 0 32 14.327 32 32s-14.327 32-32 32v0h-298.667c-5.891 0-10.667 4.776-10.667 10.667v0 704zM266.667 661.333c-17.673 0-32-14.327-32-32s14.327-32 32-32v0h362.667c17.673 0 32 14.327 32 32s-14.327 32-32 32v0h-362.667zM234.667 458.667c0 17.673 14.327 32 32 32v0h192c17.673 0 32-14.327 32-32s-14.327-32-32-32v0h-192c-17.673 0-32 14.327-32 32v0zM929.28 265.387c6.274 5.858 10.185 14.178 10.185 23.412 0 17.673-14.327 32-32 32-9.234 0-17.554-3.911-23.394-10.166l-0.017-0.019-212.053-212.053-84.053 84.053c-5.858 6.274-14.178 10.185-23.412 10.185-17.673 0-32-14.327-32-32 0-9.234 3.911-17.554 10.166-23.394l0.019-0.017 106.667-106.667c5.789-5.782 13.784-9.359 22.613-9.359s16.824 3.576 22.614 9.359v0l234.667 234.667z" />
<glyph unicode="&#xe935;" glyph-name="chevron-down-16" d="M817.92 561.92c8.674-8.684 14.038-20.676 14.038-33.92s-5.364-25.236-14.038-33.921l-271.999-271.999c-8.684-8.674-20.676-14.038-33.92-14.038s-25.236 5.364-33.921 14.038l-271.999 271.999c-7.982 8.549-12.883 20.063-12.883 32.723 0 26.51 21.49 48 48 48 12.659 0 24.174-4.901 32.751-12.908l-0.028 0.026 238.080-238.080 238.080 238.080c8.684 8.674 20.676 14.038 33.92 14.038s25.236-5.364 33.921-14.038l-0.001 0.001z" />
<glyph unicode="&#xe936;" glyph-name="chevron-down-24" d="M222.72 587.947c-5.782-5.789-9.359-13.784-9.359-22.613s3.576-16.824 9.359-22.614v0l266.667-266.667c5.789-5.782 13.784-9.359 22.613-9.359s16.824 3.576 22.614 9.359v0l266.667 266.667c5.321 5.699 8.588 13.376 8.588 21.815 0 17.673-14.327 32-32 32-8.44 0-16.116-3.267-21.834-8.606l0.019 0.017-244.053-244.053-244.053 244.053c-5.789 5.782-13.784 9.359-22.613 9.359s-16.824-3.576-22.614-9.359v0z" />
<glyph unicode="&#xe937;" glyph-name="chevron-left-16" d="M625.92 142.080c-8.684-8.674-20.676-14.038-33.92-14.038s-25.236 5.364-33.921 14.038l-271.999 271.999c-8.674 8.684-14.038 20.676-14.038 33.92s5.364 25.236 14.038 33.921l271.999 271.999c8.549 7.982 20.063 12.883 32.723 12.883 26.51 0 48-21.49 48-48 0-12.659-4.901-24.174-12.908-32.751l0.026 0.028-238.080-238.080 238.080-238.080c8.674-8.684 14.038-20.676 14.038-33.92s-5.364-25.236-14.038-33.921l0.001 0.001z" />
<glyph unicode="&#xe938;" glyph-name="chevron-left-24" d="M651.947 737.28c-5.789 5.782-13.784 9.359-22.613 9.359s-16.824-3.576-22.614-9.359v0l-266.667-266.667c-5.782-5.789-9.359-13.784-9.359-22.613s3.576-16.824 9.359-22.614v0l266.667-266.667c5.858-6.274 14.178-10.185 23.412-10.185 17.673 0 32 14.327 32 32 0 9.234-3.911 17.554-10.166 23.394l-0.019 0.017-244.053 244.053 244.053 244.053c5.782 5.789 9.359 13.784 9.359 22.613s-3.576 16.824-9.359 22.614v0z" />
<glyph unicode="&#xe939;" glyph-name="chevron-right-16" d="M398.080 753.92c8.684 8.674 20.676 14.038 33.92 14.038s25.236-5.364 33.921-14.038l271.999-271.999c8.674-8.684 14.038-20.676 14.038-33.92s-5.364-25.236-14.038-33.921l-271.999-271.999c-8.549-7.982-20.063-12.883-32.723-12.883-26.51 0-48 21.49-48 48 0 12.659 4.901 24.174 12.908 32.751l-0.026-0.028 238.080 238.080-238.080 238.080c-8.674 8.684-14.038 20.676-14.038 33.92s5.364 25.236 14.038 33.921l-0.001-0.001z" />
<glyph unicode="&#xe93a;" glyph-name="chevron-right-24" d="M372.053 158.72c5.789-5.782 13.784-9.359 22.613-9.359s16.824 3.576 22.614 9.359v0l266.667 266.667c5.782 5.789 9.359 13.784 9.359 22.613s-3.576 16.824-9.359 22.614v0l-266.667 266.667c-5.699 5.321-13.376 8.588-21.815 8.588-17.673 0-32-14.327-32-32 0-8.44 3.267-16.116 8.606-21.834l-0.017 0.019 244.053-244.053-244.053-244.053c-5.782-5.789-9.359-13.784-9.359-22.613s3.576-16.824 9.359-22.614v0z" />
<glyph unicode="&#xe93b;" glyph-name="chevron-up-16" d="M206.080 334.080c-8.674 8.684-14.038 20.676-14.038 33.92s5.364 25.236 14.038 33.921l271.999 271.999c8.684 8.674 20.676 14.038 33.92 14.038s25.236-5.364 33.921-14.038l271.999-271.999c7.982-8.549 12.883-20.063 12.883-32.723 0-26.51-21.49-48-48-48-12.659 0-24.174 4.901-32.751 12.908l0.028-0.026-238.080 238.080-238.080-238.080c-8.684-8.674-20.676-14.038-33.92-14.038s-25.236 5.364-33.921 14.038l0.001-0.001z" />
<glyph unicode="&#xe93c;" glyph-name="chevron-up-24" d="M801.28 308.053c5.782 5.789 9.359 13.784 9.359 22.613s-3.576 16.824-9.359 22.614v0l-266.667 266.667c-5.789 5.782-13.784 9.359-22.613 9.359s-16.824-3.576-22.614-9.359v0l-266.667-266.667c-6.274-5.858-10.185-14.178-10.185-23.412 0-17.673 14.327-32 32-32 9.234 0 17.554 3.911 23.394 10.166l0.017 0.019 244.053 244.053 244.053-244.053c5.789-5.782 13.784-9.359 22.613-9.359s16.824 3.576 22.614 9.359v0z" />
<glyph unicode="&#xe93d;" glyph-name="circle-16" d="M217.856 742.144c-76.901-75.54-124.559-180.628-124.559-296.847 0-229.75 186.25-416 416-416 116.22 0 221.308 47.659 296.787 124.498l0.060 0.061c73.674 75.001 119.153 177.91 119.153 291.441 0 229.75-186.25 416-416 416-113.531 0-216.44-45.479-291.502-119.213l0.061 0.060zM150.016 85.952c-95.102 93.040-154.068 222.684-154.068 366.099 0 282.77 229.23 512 512 512 143.383 0 273.001-58.939 365.947-153.912l0.089-0.092c91.355-92.43 147.786-219.55 147.786-359.85 0-282.77-229.23-512-512-512-140.284 0-267.391 56.419-359.868 147.803l0.050-0.049z" />
<glyph unicode="&#xe93e;" glyph-name="circle-24" d="M512 853.333c-223.859 0-405.333-181.474-405.333-405.333s181.474-405.333 405.333-405.333v0c223.859 0 405.333 181.474 405.333 405.333s-181.474 405.333-405.333 405.333v0zM42.667 448c0 259.2 210.133 469.333 469.333 469.333s469.333-210.133 469.333-469.333-210.133-469.333-469.333-469.333-469.333 210.133-469.333 469.333z" />
<glyph unicode="&#xe93f;" glyph-name="circle-slash-16" d="M96 448c0 0.001 0 0.002 0 0.003 0 229.75 186.25 416 416 416 97.956 0 188.005-33.857 259.082-90.507l-0.842 0.648-584.384-584.384c-55.995 70.018-89.856 159.861-89.856 257.613 0 0.22 0 0.441 0.001 0.661v-0.034zM253.76 121.856l584.384 584.384-0.648 0.841c56.656-71.079 90.517-161.133 90.517-259.095 0-229.75-186.25-416-416-416-97.962 0-188.016 33.861-258.253 89.869zM512 960c-282.77 0-512-229.23-512-512s229.23-512 512-512v0c282.77 0 512 229.23 512 512s-229.23 512-512 512v0z" />
<glyph unicode="&#xe940;" glyph-name="circle-slash-24" d="M512 917.333c259.2 0 469.333-210.133 469.333-469.333s-210.133-469.333-469.333-469.333c-259.2 0-469.333 210.133-469.333 469.333s210.133 469.333 469.333 469.333zM106.667 448v0.032c0-0.209 0-0.418 0-0.627 0-100.472 36.702-192.371 96.982-262.488l571.435 571.435c-70.784 60.459-162.688 96.981-263.083 96.981v0c-223.859 0-405.333-181.474-405.333-405.333zM248.917 139.648c70.117-60.28 162.016-96.982 262.488-96.982 0.209 0 0.418 0 0.627 0h-0.032c223.859 0 405.333 181.474 405.333 405.333v0c0 0.177 0 0.386 0 0.595 0 100.472-36.702 192.371-97.43 263.022l0.449-0.534-571.435-571.435z" />
<glyph unicode="&#xe941;" glyph-name="clippy-16" d="M368 896c-26.51 0-48-21.49-48-48v0-192c0-26.496 21.504-48 48-48h288c26.51 0 48 21.49 48 48v0 192c0 26.51-21.49 48-48 48v0h-288zM416 704v96h192v-96h-192zM232.064 733.888c14.415 8.463 23.939 23.887 23.939 41.536 0 26.511-21.492 48.003-48.003 48.003-8.862 0-17.164-2.402-24.289-6.59l0.225 0.122c-33.678-19.734-55.936-55.747-55.936-96.958 0-0.001 0-0.002 0-0.002v0-608c0-61.824 50.176-112 112-112h544c61.856 0 112 50.144 112 112v0 608c0 0.001 0 0.001 0 0.002 0 41.211-22.258 77.224-55.409 96.672l-0.527 0.286c-6.9 4.066-15.202 6.467-24.064 6.467-26.511 0-48.003-21.492-48.003-48.003 0-17.649 9.525-33.073 23.714-41.414l0.225-0.122c4.851-2.809 8.062-7.973 8.064-13.888v0-608c0-8.837-7.163-16-16-16v0h-544c-8.837 0-16 7.163-16 16v0 608c0.002 5.915 3.213 11.079 7.987 13.847l0.077 0.041z" />
<glyph unicode="&#xe942;" glyph-name="clippy-24" d="M254.379 852.779c1.042-3.021 1.643-6.502 1.643-10.123 0-14.064-9.073-26.009-21.685-30.301l-0.225-0.067-34.816-11.605c-4.273-1.454-7.292-5.43-7.296-10.112v0-737.237c0-5.888 4.779-10.667 10.667-10.667h618.667c5.891 0 10.667 4.776 10.667 10.667v0 737.28c-0.016 4.655-3.012 8.606-7.178 10.047l-0.075 0.023-34.859 11.605c-12.836 4.366-21.905 16.313-21.905 30.379 0 17.683 14.335 32.017 32.017 32.017 3.617 0 7.094-0.6 10.337-1.706l-0.225 0.067 34.816-11.648c29.909-10.18 51.046-38.010 51.072-70.781v-737.283c0-41.237-33.429-74.667-74.667-74.667v0h-618.667c-41.237 0-74.667 33.429-74.667 74.667v0 737.28c0.006 32.791 21.15 60.642 50.546 70.671l0.526 0.156 34.816 11.605c3.021 1.042 6.502 1.643 10.123 1.643 14.064 0 26.009-9.073 30.301-21.685l0.067-0.225zM298.667 885.333c0 41.216 33.451 74.667 74.667 74.667h277.333c41.216 0 74.667-33.451 74.667-74.667v-64c0-41.237-33.429-74.667-74.667-74.667v0h-277.333c-41.237 0-74.667 33.429-74.667 74.667v0 64zM373.333 896c-5.891 0-10.667-4.776-10.667-10.667v0-64c0-5.888 4.779-10.667 10.667-10.667h277.333c5.891 0 10.667 4.776 10.667 10.667v0 64c0 5.891-4.776 10.667-10.667 10.667v0h-277.333z" />
<glyph unicode="&#xe943;" glyph-name="clock-16" d="M96 448c0 229.75 186.25 416 416 416s416-186.25 416-416v0c0-229.75-186.25-416-416-416s-416 186.25-416 416v0zM512 960c-282.77 0-512-229.23-512-512s229.23-512 512-512v0c282.77 0 512 229.23 512 512s-229.23 512-512 512v0zM544 656c0 26.51-21.49 48-48 48s-48-21.49-48-48v0-224c0.005-20.072 12.33-37.265 29.824-44.428l0.32-0.116 160-64c4.897-1.845 10.557-2.913 16.467-2.913 26.51 0 48 21.49 48 48 0 19.572-11.714 36.408-28.513 43.88l-0.306 0.121-129.792 51.968v191.488z" />
<glyph unicode="&#xe944;" glyph-name="clock-24" d="M533.333 650.667c0 17.673-14.327 32-32 32s-32-14.327-32-32v0-234.667c0-11.52 6.144-22.101 16.128-27.776l149.333-85.333c4.398-2.423 9.64-3.848 15.215-3.848 17.673 0 32 14.327 32 32 0 11.566-6.136 21.699-15.33 27.321l-133.345 76.197v216.107zM512 917.333c-259.2 0-469.333-210.133-469.333-469.333s210.133-469.333 469.333-469.333 469.333 210.133 469.333 469.333-210.133 469.333-469.333 469.333zM106.667 448c0 223.859 181.474 405.333 405.333 405.333s405.333-181.474 405.333-405.333v0c0-223.859-181.474-405.333-405.333-405.333s-405.333 181.474-405.333 405.333v0z" />
<glyph unicode="&#xe945;" glyph-name="code-16" d="M302.080 753.92c8.549 7.982 20.063 12.883 32.723 12.883 26.51 0 48-21.49 48-48 0-12.659-4.901-24.174-12.908-32.751l0.026 0.028-238.080-238.080 238.080-238.080c9.411-8.787 15.277-21.267 15.277-35.117 0-26.51-21.49-48-48-48-13.85 0-26.33 5.866-35.092 15.249l-0.026 0.028-272 272c-8.674 8.684-14.038 20.676-14.038 33.92s5.364 25.236 14.038 33.921l271.999 271.999zM721.92 753.92c-8.787 9.411-21.267 15.277-35.117 15.277-26.51 0-48-21.49-48-48 0-13.85 5.866-26.33 15.249-35.092l0.028-0.026 238.080-238.080-238.080-238.080c-9.411-8.787-15.277-21.267-15.277-35.117 0-26.51 21.49-48 48-48 13.85 0 26.33 5.866 35.092 15.249l0.026 0.028 272 272c8.674 8.684 14.038 20.676 14.038 33.92s-5.364 25.236-14.038 33.921l-271.999 271.999z" />
<glyph unicode="&#xe946;" glyph-name="code-24" d="M374.613 747.947c5.782-5.789 9.359-13.784 9.359-22.613s-3.576-16.824-9.359-22.614v0l-254.72-254.72 254.72-254.72c6.274-5.858 10.185-14.178 10.185-23.412 0-17.673-14.327-32-32-32-9.234 0-17.554 3.911-23.394 10.166l-0.017 0.019-277.333 277.333c-5.782 5.789-9.359 13.784-9.359 22.613s3.576 16.824 9.359 22.614v0l277.333 277.333c5.789 5.782 13.784 9.359 22.613 9.359s16.824-3.576 22.614-9.359v0zM649.387 747.947c-5.782-5.789-9.359-13.784-9.359-22.613s3.576-16.824 9.359-22.614v0l254.72-254.72-254.72-254.72c-6.274-5.858-10.185-14.178-10.185-23.412 0-17.673 14.327-32 32-32 9.234 0 17.554 3.911 23.394 10.166l0.017 0.019 277.333 277.333c5.782 5.789 9.359 13.784 9.359 22.613s-3.576 16.824-9.359 22.614v0l-277.333 277.333c-5.789 5.782-13.784 9.359-22.613 9.359s-16.824-3.576-22.614-9.359v0z" />
<glyph unicode="&#xe947;" glyph-name="code-review-16" d="M96 784c0 8.837 7.163 16 16 16v0h800c8.837 0 16-7.163 16-16v0-544c0-8.837-7.163-16-16-16v0h-416c-13.25-0.012-25.241-5.391-33.919-14.079l-174.081-174.081v140.16c0 26.51-21.49 48-48 48v0h-128c-8.837 0-16 7.163-16 16v0 544zM112 896c-61.856 0-112-50.144-112-112v0-544c0-61.824 50.176-112 112-112h80v-98.752c0.019-51.485 41.76-93.215 93.248-93.215 25.742 0 49.047 10.431 65.92 27.296l164.736 164.672h396.096c61.856 0 112 50.144 112 112v0 544c0 61.856-50.144 112-112 112v0h-800zM433.92 673.92c8.674-8.684 14.038-20.676 14.038-33.92s-5.364-25.236-14.038-33.921l-94.079-94.079 94.080-94.080c7.982-8.549 12.883-20.063 12.883-32.723 0-26.51-21.49-48-48-48-12.659 0-24.174 4.901-32.751 12.908l0.028-0.026-128 128c-8.674 8.684-14.038 20.676-14.038 33.92s5.364 25.236 14.038 33.921l127.999 127.999c8.684 8.674 20.676 14.038 33.92 14.038s25.236-5.364 33.921-14.038l-0.001 0.001zM590.080 673.92c-8.674-8.684-14.038-20.676-14.038-33.92s5.364-25.236 14.038-33.921l94.079-94.079-94.080-94.080c-7.982-8.549-12.883-20.063-12.883-32.723 0-26.51 21.49-48 48-48 12.659 0 24.174 4.901 32.751 12.908l-0.028-0.026 128 128c8.674 8.684 14.038 20.676 14.038 33.92s-5.364 25.236-14.038 33.921l-127.999 127.999c-8.684 8.674-20.676 14.038-33.92 14.038s-25.236-5.364-33.921-14.038l0.001 0.001z" />
<glyph unicode="&#xe948;" glyph-name="code-review-24" d="M439.467 672.427c5.291-5.692 8.537-13.347 8.537-21.76 0-9.262-3.935-17.605-10.224-23.448l-0.020-0.018-124.075-115.2 124.075-115.2c6.308-5.862 10.243-14.205 10.243-23.467 0-17.675-14.328-32.003-32.003-32.003-8.413 0-16.068 3.246-21.78 8.554l0.020-0.018-149.333 138.667c-6.309 5.862-10.244 14.205-10.244 23.467s3.935 17.605 10.224 23.448l0.020 0.018 149.333 138.667c5.692 5.291 13.347 8.537 21.76 8.537 9.262 0 17.605-3.935 23.448-10.224l0.018-0.020zM586.24 627.2c-6.308 5.862-10.243 14.205-10.243 23.467 0 17.675 14.328 32.003 32.003 32.003 8.413 0 16.068-3.246 21.78-8.554l-0.020 0.018 149.333-138.667c6.309-5.862 10.244-14.205 10.244-23.467s-3.935-17.605-10.224-23.448l-0.020-0.018-149.333-138.667c-5.692-5.29-13.347-8.536-21.76-8.536-17.675 0-32.003 14.328-32.003 32.003 0 9.262 3.934 17.605 10.223 23.448l0.020 0.018 124.075 115.2-124.075 115.2zM64 778.667c0 41.216 33.451 74.667 74.667 74.667h746.667c41.216 0 74.667-33.451 74.667-74.667v-533.333c0-41.237-33.429-74.667-74.667-74.667v0h-413.44l-152.448-152.448c-11.249-11.243-26.786-18.197-43.947-18.197-34.325 0-62.153 27.82-62.165 62.142v108.502h-74.667c-41.237 0-74.667 33.429-74.667 74.667v0 533.333zM138.667 789.333c-5.891 0-10.667-4.776-10.667-10.667v0-533.333c0-5.888 4.779-10.667 10.667-10.667h106.667c17.673 0 32-14.327 32-32v0-136.107l158.72 158.72c5.786 5.793 13.78 9.379 22.612 9.387h426.668c5.891 0 10.667 4.776 10.667 10.667v0 533.333c0 5.891-4.776 10.667-10.667 10.667v0h-746.667z" />
<glyph unicode="&#xe949;" glyph-name="code-square-16" d="M112 864c-8.837 0-16-7.163-16-16v0-800c0-8.832 7.168-16 16-16h800c8.837 0 16 7.163 16 16v0 800c0 8.837-7.163 16-16 16v0h-800zM0 848c0 61.824 50.176 112 112 112h800c61.824 0 112-50.176 112-112v-800c0-61.856-50.144-112-112-112v0h-800c-61.856 0-112 50.144-112 112v0 800zM590.080 609.92c-8.674-8.684-14.038-20.676-14.038-33.92s5.364-25.236 14.038-33.921l94.079-94.079-94.080-94.080c-9.411-8.787-15.277-21.267-15.277-35.117 0-26.51 21.49-48 48-48 13.85 0 26.33 5.866 35.092 15.249l0.026 0.028 128 128c8.674 8.684 14.038 20.676 14.038 33.92s-5.364 25.236-14.038 33.921l-127.999 127.999c-8.684 8.674-20.676 14.038-33.92 14.038s-25.236-5.364-33.921-14.038l0.001 0.001zM433.92 542.080c7.982 8.549 12.883 20.063 12.883 32.723 0 26.51-21.49 48-48 48-12.659 0-24.174-4.901-32.751-12.908l0.028 0.026-128-128c-8.674-8.684-14.038-20.676-14.038-33.92s5.364-25.236 14.038-33.921l127.999-127.999c8.787-9.411 21.267-15.277 35.117-15.277 26.51 0 48 21.49 48 48 0 13.85-5.866 26.33-15.249 35.092l-0.028 0.026-94.080 94.080 94.080 94.080z" />
<glyph unicode="&#xe94a;" glyph-name="code-square-24" d="M439.467 608.427c5.291-5.692 8.537-13.347 8.537-21.76 0-9.262-3.935-17.605-10.224-23.448l-0.020-0.018-124.075-115.2 124.075-115.2c6.308-5.862 10.243-14.205 10.243-23.467 0-17.675-14.328-32.003-32.003-32.003-8.413 0-16.068 3.246-21.78 8.554l0.020-0.018-149.333 138.667c-6.309 5.862-10.244 14.205-10.244 23.467s3.935 17.605 10.224 23.448l0.020 0.018 149.333 138.667c5.692 5.291 13.347 8.537 21.76 8.537 9.262 0 17.605-3.935 23.448-10.224l0.018-0.020zM586.24 563.2c-6.308 5.862-10.243 14.205-10.243 23.467 0 17.675 14.328 32.003 32.003 32.003 8.413 0 16.068-3.246 21.78-8.554l-0.020 0.018 149.333-138.667c6.309-5.862 10.244-14.205 10.244-23.467s-3.935-17.605-10.224-23.448l-0.020-0.018-149.333-138.667c-5.692-5.29-13.347-8.536-21.76-8.536-17.675 0-32.003 14.328-32.003 32.003 0 9.262 3.934 17.605 10.223 23.448l0.020 0.018 124.075 115.2-124.075 115.2zM85.333 800c0 41.216 33.451 74.667 74.667 74.667h704c41.216 0 74.667-33.451 74.667-74.667v-704c0-41.237-33.429-74.667-74.667-74.667v0h-704c-41.237 0-74.667 33.429-74.667 74.667v0 704zM160 810.667c-5.891 0-10.667-4.776-10.667-10.667v0-704c0-5.888 4.779-10.667 10.667-10.667h704c5.891 0 10.667 4.776 10.667 10.667v0 704c0 5.891-4.776 10.667-10.667 10.667v0h-704z" />
<glyph unicode="&#xe94b;" glyph-name="comment-16" d="M176 800c-8.837 0-16-7.163-16-16v0-480c0-8.832 7.168-16 16-16h128c26.51 0 48-21.49 48-48v0-140.16l174.080 174.080c8.679 8.689 20.67 14.068 33.918 14.080h288.002c8.837 0 16 7.163 16 16v0 480c0 8.837-7.163 16-16 16v0h-672zM64 784c0 61.824 50.176 112 112 112h672c61.824 0 112-50.176 112-112v-480c0-61.856-50.144-112-112-112v0h-268.16l-164.672-164.672c-16.873-16.865-40.178-27.295-65.92-27.295-51.488 0-93.229 41.73-93.248 93.214v98.754h-80c-61.856 0-112 50.144-112 112v0 480z" />
<glyph unicode="&#xe94c;" glyph-name="comment-24" d="M138.667 789.333c-5.891 0-10.667-4.776-10.667-10.667v0-533.333c0-5.888 4.779-10.667 10.667-10.667h106.667c17.673 0 32-14.327 32-32v0-136.107l158.72 158.72c5.786 5.793 13.78 9.379 22.612 9.387h426.668c5.891 0 10.667 4.776 10.667 10.667v0 533.333c0 5.891-4.776 10.667-10.667 10.667v0h-746.667zM64 778.667c0 41.216 33.451 74.667 74.667 74.667h746.667c41.216 0 74.667-33.451 74.667-74.667v-533.333c0-41.237-33.429-74.667-74.667-74.667v0h-413.44l-152.448-152.448c-11.249-11.243-26.786-18.197-43.947-18.197-34.325 0-62.153 27.82-62.165 62.142v108.502h-74.667c-41.237 0-74.667 33.429-74.667 74.667v0 533.333z" />
<glyph unicode="&#xe94d;" glyph-name="comment-discussion-16" d="M96 784c0 8.837 7.163 16 16 16v0h544c8.837 0 16-7.163 16-16v0-352c0-8.837-7.163-16-16-16v0h-224c-13.25-0.012-25.241-5.391-33.919-14.079l-174.081-174.081v140.16c0 26.51-21.49 48-48 48v0h-64c-8.837 0-16 7.163-16 16v0 352zM112 896c-61.856 0-112-50.144-112-112v0-352c0-61.824 50.176-112 112-112h16v-98.752c0.019-51.485 41.76-93.215 93.248-93.215 25.742 0 49.047 10.431 65.92 27.296l164.736 164.672h204.096c61.856 0 112 50.144 112 112v0 352c0 61.856-50.144 112-112 112v0h-544zM928 656c0 8.837-7.163 16-16 16v0h-32c-26.51 0-48 21.49-48 48s21.49 48 48 48v0h32c61.824 0 112-50.176 112-112v-352c0-61.856-50.144-112-112-112v0h-16v-98.752c-0.019-51.485-41.76-93.215-93.248-93.215-25.742 0-49.047 10.431-65.92 27.296l-146.752 146.752c-9.411 8.787-15.277 21.267-15.277 35.117 0 26.51 21.49 48 48 48 13.85 0 26.33-5.866 35.092-15.249l0.026-0.028 142.080-142.080v140.16c0 26.51 21.49 48 48 48v0h64c8.837 0 16 7.163 16 16v0 352z" />
<glyph unicode="&#xe94e;" glyph-name="comment-discussion-24" d="M74.667 917.333c-41.237 0-74.667-33.429-74.667-74.667v0-405.333c0-41.216 33.451-74.667 74.667-74.667h53.333v-65.835c0.012-34.324 27.84-62.144 62.165-62.144 17.161 0 32.698 6.954 43.947 18.197l109.824 109.781h264.064c41.237 0 74.667 33.429 74.667 74.667v0 405.333c0 41.237-33.429 74.667-74.667 74.667v0h-533.333zM64 842.667c0 5.891 4.776 10.667 10.667 10.667v0h533.333c5.891 0 10.667-4.776 10.667-10.667v0-405.333c0-5.891-4.776-10.667-10.667-10.667v0h-277.333c-8.833-0.008-16.828-3.594-22.613-9.386v0l-116.053-116.053v93.44c0 17.673-14.327 32-32 32v0h-85.333c-5.891 0-10.667 4.776-10.667 10.667v0 405.333zM960 586.667c0 5.891-4.776 10.667-10.667 10.667v0h-149.333c-17.673 0-32 14.327-32 32s14.327 32 32 32v0h149.333c41.216 0 74.667-33.451 74.667-74.667v-405.333c0-41.237-33.429-74.667-74.667-74.667v0h-53.333v-65.835c-0.012-34.324-27.84-62.144-62.165-62.144-17.161 0-32.698 6.954-43.947 18.197l-109.824 109.781h-221.397c-41.237 0-74.667 33.429-74.667 74.667v0 62.507c0 17.673 14.327 32 32 32s32-14.327 32-32v0-62.507c0-5.888 4.779-10.667 10.667-10.667h234.667c8.833-0.008 16.828-3.594 22.613-9.386v0l116.053-116.053v93.44c0 17.673 14.327 32 32 32v0h85.333c5.891 0 10.667 4.776 10.667 10.667v0 405.333z" />
<glyph unicode="&#xe94f;" glyph-name="commit-24" d="M746.667 458.667c0 17.673 14.327 32 32 32v0h213.333c17.673 0 32-14.327 32-32s-14.327-32-32-32v0h-213.333c-17.673 0-32 14.327-32 32v0zM0 458.667c0 17.673 14.327 32 32 32v0h213.333c17.673 0 32-14.327 32-32s-14.327-32-32-32v0h-213.333c-17.673 0-32 14.327-32 32v0zM512 266.667v0c-106.039 0-192 85.961-192 192s85.961 192 192 192v0c106.039 0 192-85.961 192-192s-85.961-192-192-192zM512 202.667c141.385 0 256 114.615 256 256s-114.615 256-256 256v0c-141.385 0-256-114.615-256-256s114.615-256 256-256v0z" />
<glyph unicode="&#xe950;" glyph-name="copy-24" d="M202.667 832c-41.237 0-74.667-33.429-74.667-74.667v0-405.333c0-41.216 33.451-74.667 74.667-74.667h64c17.673 0 32 14.327 32 32s-14.327 32-32 32v0h-64c-5.891 0-10.667 4.776-10.667 10.667v0 405.333c0 5.891 4.776 10.667 10.667 10.667v0h405.333c5.891 0 10.667-4.776 10.667-10.667v0-64c0-17.673 14.327-32 32-32s32 14.327 32 32v0 64c0 41.237-33.429 74.667-74.667 74.667v0h-405.333zM416 618.667c-41.237 0-74.667-33.429-74.667-74.667v0-405.333c0-41.216 33.451-74.667 74.667-74.667h405.333c41.237 0 74.667 33.429 74.667 74.667v0 405.333c0 41.237-33.429 74.667-74.667 74.667v0h-405.333zM405.333 544c0 5.891 4.776 10.667 10.667 10.667v0h405.333c5.891 0 10.667-4.776 10.667-10.667v0-405.333c0-5.891-4.776-10.667-10.667-10.667v0h-405.333c-5.891 0-10.667 4.776-10.667 10.667v0 405.333z" />
<glyph unicode="&#xe951;" glyph-name="cpu-16" d="M416 912c0 26.51-21.49 48-48 48s-48-21.49-48-48v0-80h-80c-61.856 0-112-50.144-112-112v0-80h-80c-26.51 0-48-21.49-48-48s21.49-48 48-48v0h80v-192h-80c-26.51 0-48-21.49-48-48s21.49-48 48-48v0h80v-80c0-61.824 50.176-112 112-112h80v-80c0-26.51 21.49-48 48-48s48 21.49 48 48v0 80h192v-80c0-26.51 21.49-48 48-48s48 21.49 48 48v0 80h80c61.856 0 112 50.144 112 112v0 80h80c26.51 0 48 21.49 48 48s-21.49 48-48 48v0h-80v192h80c26.51 0 48 21.49 48 48s-21.49 48-48 48v0h-80v80c0 61.856-50.144 112-112 112v0h-80v80c0 26.51-21.49 48-48 48s-48-21.49-48-48v0-80h-192v80zM784 160h-544c-8.837 0-16 7.163-16 16v0 544c0 8.837 7.163 16 16 16v0h544c8.837 0 16-7.163 16-16v0-544c0-8.837-7.163-16-16-16v0zM368 640c-26.51 0-48-21.49-48-48v0-288c0-26.496 21.504-48 48-48h288c26.51 0 48 21.49 48 48v0 288c0 26.51-21.49 48-48 48v0h-288zM416 352v192h192v-192h-192z" />
<glyph unicode="&#xe952;" glyph-name="cpu-24" d="M373.333 618.667c-17.673 0-32-14.327-32-32v0-277.333c0-17.664 14.336-32 32-32h277.333c17.673 0 32 14.327 32 32v0 277.333c0 17.673-14.327 32-32 32v0h-277.333zM405.333 341.333v213.333h213.333v-213.333h-213.333zM650.667 917.333c17.673 0 32-14.327 32-32v0-96h96c41.216 0 74.667-33.451 74.667-74.667v-96h96c17.673 0 32-14.327 32-32s-14.327-32-32-32v0h-96v-213.333h96c17.673 0 32-14.327 32-32s-14.327-32-32-32v0h-96v-96c0-41.237-33.429-74.667-74.667-74.667v0h-96v-96c0-17.673-14.327-32-32-32s-32 14.327-32 32v0 96h-213.333v-96c0-17.673-14.327-32-32-32s-32 14.327-32 32v0 96h-96c-41.237 0-74.667 33.429-74.667 74.667v0 96h-96c-17.673 0-32 14.327-32 32s14.327 32 32 32v0h96v213.333h-96c-17.673 0-32 14.327-32 32s14.327 32 32 32v0h96v96c0 41.216 33.451 74.667 74.667 74.667h96v96c0 17.673 14.327 32 32 32s32-14.327 32-32v0-96h213.333v96c0 17.673 14.327 32 32 32v0zM778.667 170.667c5.891 0 10.667 4.776 10.667 10.667v0 533.333c0 5.891-4.776 10.667-10.667 10.667v0h-533.333c-5.891 0-10.667-4.776-10.667-10.667v0-533.333c0-5.888 4.779-10.667 10.667-10.667h533.333z" />
<glyph unicode="&#xe953;" glyph-name="credit-card-16" d="M688 384c-26.51 0-48-21.49-48-48s21.49-48 48-48v0h96c26.51 0 48 21.49 48 48s-21.49 48-48 48v0h-96zM0 720c0 61.824 50.176 112 112 112h800c61.824 0 112-50.176 112-112v-544c0-61.856-50.144-112-112-112v0h-800c-61.856 0-112 50.144-112 112v0 544zM928 720v0c0 8.837-7.163 16-16 16h-800c-8.837 0-16-7.163-16-16v-80h832v80zM928 544h-832v-368c0-8.832 7.168-16 16-16h800c8.837 0 16 7.163 16 16v0 368z" />
<glyph unicode="&#xe954;" glyph-name="credit-card-24" d="M650.667 362.667c-17.673 0-32-14.327-32-32s14.327-32 32-32v0h149.333c17.673 0 32 14.327 32 32s-14.327 32-32 32v0h-149.333zM74.667 832h874.667c41.237 0 74.667-33.429 74.667-74.667v-618.667c0-41.237-33.429-74.667-74.667-74.667h-874.667c-41.216 0-74.667 33.451-74.667 74.667v618.667c0 41.237 33.429 74.667 74.667 74.667zM64 757.333v-160h896v160c0 5.891-4.776 10.667-10.667 10.667h-874.667c-5.891 0-10.667-4.776-10.667-10.667zM64 533.333v-394.667c0-5.888 4.779-10.667 10.667-10.667h874.667c5.891 0 10.667 4.776 10.667 10.667v0 394.667h-896z" />
<glyph unicode="&#xe955;" glyph-name="cross-reference-16" d="M1024 880v-265.344c0-0.009 0-0.019 0-0.029 0-8.837-7.163-16-16-16-4.425 0-8.431 1.797-11.328 4.7v0l-98.752 98.752-240-240c-8.787-9.411-21.267-15.277-35.117-15.277-26.51 0-48 21.49-48 48 0 13.85 5.866 26.33 15.249 35.092l0.028 0.026 240 240-98.752 98.752c-2.904 2.897-4.701 6.903-4.701 11.328 0 8.837 7.163 16 16 16 0.010 0 0.020 0 0.030 0h265.342c8.837 0 16-7.163 16-16v0zM176 736c-8.837 0-16-7.163-16-16v0-480c0-8.832 7.168-16 16-16h128c26.51 0 48-21.49 48-48v0-140.16l174.080 174.080c8.679 8.689 20.67 14.068 33.918 14.080h288.002c8.837 0 16 7.163 16 16v0 160c0 26.51 21.49 48 48 48s48-21.49 48-48v0-160c0-61.856-50.144-112-112-112v0h-268.16l-164.672-164.672c-16.873-16.865-40.178-27.295-65.92-27.295-51.488 0-93.229 41.73-93.248 93.214v98.754h-80c-61.856 0-112 50.144-112 112v0 480c0 61.824 50.176 112 112 112h352c26.51 0 48-21.49 48-48s-21.49-48-48-48v0h-352z" />
<glyph unicode="&#xe956;" glyph-name="cross-reference-24" d="M704 864c0 17.673 14.327 32 32 32v0h234.667c17.673 0 32-14.327 32-32v0-234.667c0-17.673-14.327-32-32-32s-32 14.327-32 32v0 157.44l-265.387-265.387c-5.858-6.274-14.178-10.185-23.412-10.185-17.673 0-32 14.327-32 32 0 9.234 3.911 17.554 10.166 23.394l0.019 0.017 265.387 265.387h-157.44c-17.673 0-32 14.327-32 32v0zM138.667 789.333c-5.891 0-10.667-4.776-10.667-10.667v0-533.333c0-5.888 4.779-10.667 10.667-10.667h106.667c17.673 0 32-14.327 32-32v0-136.107l158.72 158.72c5.786 5.793 13.78 9.379 22.612 9.387h426.668c5.891 0 10.667 4.776 10.667 10.667v0 256c0 17.673 14.327 32 32 32s32-14.327 32-32v0-256c0-41.237-33.429-74.667-74.667-74.667v0h-413.44l-152.448-152.448c-11.249-11.243-26.786-18.197-43.947-18.197-34.325 0-62.153 27.82-62.165 62.142v108.502h-74.667c-41.237 0-74.667 33.429-74.667 74.667v0 533.333c0 41.216 33.451 74.667 74.667 74.667h469.333c17.673 0 32-14.327 32-32s-14.327-32-32-32v0h-469.333z" />
<glyph unicode="&#xe957;" glyph-name="dash-16" d="M128 448c0 26.51 21.49 48 48 48v0h672c26.51 0 48-21.49 48-48s-21.49-48-48-48v0h-672c-26.51 0-48 21.49-48 48v0z" />
<glyph unicode="&#xe958;" glyph-name="dash-24" d="M192 416c0 17.673 14.327 32 32 32v0h576c17.673 0 32-14.327 32-32s-14.327-32-32-32v0h-576c-17.673 0-32 14.327-32 32v0z" />
<glyph unicode="&#xe959;" glyph-name="database-16" d="M160 736c0-8.512 3.712-20.352 18.048-35.264 14.528-15.168 37.824-30.912 70.464-45.248 64.96-28.608 158.080-47.488 263.488-47.488 105.344 0 198.464 18.88 263.552 47.488 32.512 14.336 55.872 30.144 70.4 45.312 14.336 14.848 18.048 26.688 18.048 35.2s-3.712 20.352-18.048 35.264c-14.528 15.168-37.824 30.912-70.464 45.248-64.96 28.608-158.080 47.488-263.488 47.488-105.344 0-198.464-18.88-263.552-47.488-32.512-14.336-55.872-30.144-70.4-45.312-14.336-14.848-18.048-26.688-18.048-35.2zM64 736c0 40.064 18.688 74.56 44.8 101.76 25.984 27.008 61.184 49.088 101.056 66.624 79.744 35.136 186.624 55.616 302.144 55.616s222.4-20.48 302.208-55.616c39.808-17.536 75.008-39.68 100.992-66.56 26.112-27.264 44.8-61.76 44.8-101.824v-576c0-40.064-18.688-74.56-44.8-101.76-25.984-27.008-61.184-49.088-101.056-66.624-79.68-35.136-186.56-55.616-302.144-55.616-115.52 0-222.4 20.48-302.144 55.616-39.872 17.536-75.072 39.68-101.056 66.56-26.112 27.264-44.8 61.76-44.8 101.824v576zM160 448c0-8.512 3.712-20.352 18.048-35.264 14.528-15.168 37.824-30.912 70.464-45.248 64.96-28.608 158.080-47.488 263.488-47.488 105.344 0 198.464 18.88 263.552 47.488 32.512 14.336 55.872 30.144 70.4 45.312 14.336 14.848 18.048 26.688 18.048 35.2v145.664c-15.424-9.6-32.192-18.304-49.792-26.048-79.808-35.136-186.688-55.616-302.208-55.616s-222.4 20.48-302.144 55.616c-17.664 7.744-34.432 16.448-49.856 26.048v-145.664zM160 305.6v-145.6c0-8.512 3.712-20.352 18.048-35.2 14.528-15.168 37.888-30.976 70.4-45.312 65.024-28.608 158.144-47.488 263.552-47.488s198.528 18.88 263.488 47.488c32.64 14.336 55.936 30.080 70.464 45.248 14.336 14.912 18.048 26.752 18.048 35.264v145.6c-15.424-9.6-32.192-18.24-49.792-25.984-79.808-35.136-186.688-55.616-302.208-55.616s-222.4 20.48-302.144 55.616c-19.537 8.542-35.904 17.227-51.547 26.965l1.691-0.981z" />
<glyph unicode="&#xe95a;" glyph-name="database-24" d="M512 906.667c-106.112 0-203.691-17.152-275.883-46.037-36.011-14.379-67.285-32.341-90.112-53.931-22.869-21.632-39.339-49.109-39.339-81.365v-554.112l1.109-0.555h-1.109c0-32.256 16.469-59.733 39.339-81.365 22.827-21.589 54.101-39.552 90.112-53.931 72.192-28.885 169.771-46.037 275.883-46.037s203.648 17.152 275.883 46.037c36.011 14.379 67.285 32.341 90.112 53.931 22.869 21.632 39.339 49.109 39.339 81.365h-1.109l1.109 0.555v554.112c0 32.256-16.469 59.733-39.339 81.365-22.827 21.589-54.101 39.552-90.112 53.931-72.235 28.885-169.771 46.037-275.883 46.037zM170.667 725.333c0 8.96 4.437 20.779 19.328 34.859 14.933 14.165 38.357 28.416 69.888 41.045 62.933 25.173 152.064 41.429 252.117 41.429s189.184-16.299 252.117-41.429c31.573-12.629 54.912-26.88 69.888-41.045 14.933-14.080 19.328-25.856 19.328-34.859 0-8.96-4.437-20.779-19.328-34.859-14.933-14.165-38.357-28.416-69.888-41.045-62.933-25.173-152.064-41.429-252.117-41.429s-189.184 16.299-252.117 41.429c-31.573 12.629-54.912 26.88-69.888 41.045-14.933 14.080-19.328 25.856-19.328 34.859zM853.333 448c0-9.003-4.395-20.821-19.328-34.901-14.976-14.123-38.315-28.373-69.888-40.96-62.933-25.173-152.064-41.472-252.117-41.472s-189.184 16.299-252.117 41.472c-31.531 12.587-54.955 26.837-69.888 41.003-14.891 14.080-19.328 25.899-19.328 34.859v176.171l-1.17 0.749c20.011-13.581 41.57-25.051 66.621-34.883 72.192-28.885 169.771-46.037 275.883-46.037s203.648 17.152 275.883 46.037l2.263 0.792c22.788 9.039 44.348 20.51 63.188 33.342v-176.171zM170.667 346.837c18.901-13.013 41.088-24.405 65.451-34.133 72.192-28.885 169.771-46.037 275.883-46.037s203.648 17.152 275.883 46.037c25.051 9.831 46.611 21.301 66.621 34.883l-1.171-0.749v-175.616l0.555-0.555h-0.555c0-8.96-4.437-20.779-19.328-34.859-14.933-14.165-38.357-28.416-69.888-41.045-62.933-25.173-152.064-41.429-252.117-41.429s-189.184 16.299-252.117 41.429c-31.573 12.629-54.912 26.88-69.888 41.045-14.933 14.080-19.328 25.856-19.328 34.859h-0.555l0.555 0.555v175.659z" />
<glyph unicode="&#xe95b;" glyph-name="desktop-download-16" d="M560 640h137.342c0.010 0 0.020 0 0.030 0 8.837 0 16-7.163 16-16 0-4.425-1.797-8.431-4.701-11.328l-185.344-185.344c-2.897-2.904-6.902-4.7-11.328-4.7s-8.431 1.797-11.328 4.701l-185.344 185.344c-2.904 2.897-4.7 6.902-4.7 11.328 0 8.837 7.163 16 16 16 0.010 0 0.020 0 0.029 0h137.344v272c0 26.51 21.49 48 48 48s48-21.49 48-48v-272zM96 784v-480c0-8.837 7.163-16 16-16h800c8.837 0 16 7.163 16 16v480c0 8.837-7.163 16-16 16h-192c-26.51 0-48 21.49-48 48s21.49 48 48 48h192c61.856 0 112-50.144 112-112v-480c0-61.856-50.144-112-112-112h-238.528c6.336-66.624 33.28-119.808 82.688-176.448l-0.048 0.055c7.394-8.444 11.875-19.502 11.875-31.607 0-26.505-21.483-47.993-47.987-48h-416.001c-26.503 0.007-47.986 21.495-47.986 48 0 12.105 4.481 23.164 11.827 31.552 49.408 56.64 76.288 109.824 82.688 176.448h-238.528c-61.824 0-112 50.176-112 112v480c0 61.856 50.144 112 112 112h192c26.51 0 48-21.49 48-48s-21.49-48-48-48h-192c-8.837 0-16-7.163-16-16zM577.152 192h-130.304c-4.063-59.473-21.732-114.055-49.891-161.702l0.931 1.702h228.224c-27.228 45.944-44.897 100.526-48.898 158.865l-0.062 1.135z" />
<glyph unicode="&#xe95c;" glyph-name="desktop-download-24" d="M480 561.877v366.123c0 17.673 14.327 32 32 32s32-14.327 32-32v0-366.080l83.157 90.027c5.905 6.892 14.619 11.232 24.346 11.232 17.673 0 32-14.327 32-32 0-8.835-3.581-16.834-9.37-22.624v0l-138.667-150.187c-5.865-6.337-14.225-10.29-23.509-10.29s-17.645 3.954-23.49 10.269l-0.019 0.021-138.667 150.187c-5.576 5.752-9.014 13.606-9.014 22.263 0 17.673 14.327 32 32 32 9.559 0 18.139-4.191 24.002-10.836l0.030-0.035 83.157-90.069zM106.667 800v-490.667c0-5.891 4.776-10.667 10.667-10.667h789.333c5.891 0 10.667 4.776 10.667 10.667v490.667c0 5.891-4.776 10.667-10.667 10.667h-234.667c-17.673 0-32 14.327-32 32s14.327 32 32 32h234.667c41.237 0 74.667-33.429 74.667-74.667v-490.667c0-41.237-33.429-74.667-74.667-74.667h-264.704c7.296-58.667 34.347-113.152 75.477-160.299l-0.032 0.037c4.929-5.629 7.916-13.001 7.916-21.072 0-17.67-14.322-31.995-31.991-32h-362.665c-0.012 0-0.024 0-0.036 0-17.673 0-32 14.327-32 32 0 8.070 2.987 15.442 7.885 21.035 41.173 47.147 68.224 101.632 75.52 160.299h-264.704c-41.216 0-74.667 33.451-74.667 74.667v490.667c0 41.237 33.429 74.667 74.667 74.667h234.667c17.673 0 32-14.327 32-32s-14.327-32-32-32h-234.667c-5.891 0-10.667-4.776-10.667-10.667zM446.421 234.667c-5.376-54.016-24.064-104.32-52.181-149.333h235.52c-28.16 45.013-46.848 95.317-52.181 149.333h-131.157z" />
<glyph unicode="&#xe95d;" glyph-name="device-camera-16" d="M960 768h-512c0 35.2-28.8 64-64 64h-256c-35.2 0-64-28.8-64-64-35.2 0-64-28.8-64-64v-576c0-35.2 28.8-64 64-64h896c35.2 0 64 28.8 64 64v576c0 35.2-28.8 64-64 64zM384 640h-256v64h256v-64zM672 192c-124.16 0-224 99.84-224 224s99.84 224 224 224 224-99.84 224-224-99.84-224-224-224zM832 416c0-88.32-72.32-160-160-160s-160 72.32-160 160 72.32 160 160 160 160-72.32 160-160z" />
<glyph unicode="&#xe95e;" glyph-name="device-camera-video-16" d="M1024 720v-544c-0.002-26.508-21.491-47.997-48-47.997-9.124 0-17.653 2.546-24.704 6.845l-247.296 148.352v-43.2c0-61.856-50.144-112-112-112h-480c-61.824 0-112 50.176-112 112v416c0 61.856 50.144 112 112 112h480c61.856 0 112-50.144 112-112v-43.2l247.084 148.232c7.263 4.42 15.792 6.965 24.916 6.965 26.509 0 47.998-21.489 48-47.997zM704 395.2l224-134.4v374.4l-224-134.4v-105.6zM608 528v128c0 8.837-7.163 16-16 16v0h-480c-8.837 0-16-7.163-16-16v0-416c0-8.832 7.168-16 16-16h480c8.837 0 16 7.163 16 16v0 288z" />
<glyph unicode="&#xe95f;" glyph-name="device-camera-video-24" d="M1024 736v-554.667c-0.001-17.672-14.328-31.998-32-31.998-6.083 0-11.769 1.697-16.469 4.564l-271.531 162.901v-92.8c0-41.237-33.429-74.667-74.667-74.667h-554.667c-41.216 0-74.667 33.451-74.667 74.667v469.333c0 41.237 33.429 74.667 74.667 74.667h554.667c41.237 0 74.667-33.429 74.667-74.667v-92.8l271.389 162.821c4.842 2.946 10.528 4.644 16.611 4.644 17.672 0 31.999-14.326 32-31.998zM704 391.467l256-153.6v441.6l-256-153.6v-134.4zM640 544v149.333c0 5.891-4.776 10.667-10.667 10.667v0h-554.667c-5.891 0-10.667-4.776-10.667-10.667v0-469.333c0-5.888 4.779-10.667 10.667-10.667h554.667c5.891 0 10.667 4.776 10.667 10.667v0 320z" />
<glyph unicode="&#xe960;" glyph-name="device-desktop-16" d="M112 800h800c8.837 0 16-7.163 16-16v0-480c0-8.837-7.163-16-16-16v0h-800c-8.837 0-16 7.163-16 16v0 480c0 8.837 7.163 16 16 16v0zM912 896h-800c-61.856 0-112-50.144-112-112v0-480c0-61.824 50.176-112 112-112h238.528c-6.4-66.624-33.28-119.808-82.688-176.448-7.346-8.388-11.827-19.447-11.827-31.552 0-26.505 21.483-47.993 47.986-48h416.001c26.504 0.007 47.987 21.495 47.987 48 0 12.105-4.481 23.164-11.875 31.607l0.048-0.055c-49.408 56.64-76.352 109.824-82.688 176.448h238.528c61.856 0 112 50.144 112 112v0 480c0 61.856-50.144 112-112 112v0zM577.152 192l0.062-1.135c4.001-58.339 21.67-112.921 48.898-158.865h-228.224l-0.931-1.702c28.159 47.647 45.828 102.229 49.891 161.702h130.304z" />
<glyph unicode="&#xe961;" glyph-name="device-desktop-24" d="M382.037 234.667c-7.296-58.667-34.347-113.152-75.477-160.299l0.032 0.037c-4.929-5.629-7.916-13.001-7.916-21.072 0-17.67 14.322-31.995 31.991-32h362.667c17.669 0.005 31.991 14.33 31.991 32 0 8.070-2.987 15.442-7.885 21.035-41.131 47.147-68.181 101.632-75.477 160.299h264.704c41.237 0 74.667 33.429 74.667 74.667v490.667c0 41.216-33.451 74.667-74.667 74.667h-789.333c-41.216 0-74.667-33.451-74.667-74.667v-490.667c0-41.237 33.429-74.667 74.667-74.667h264.704zM917.333 800v-490.667c0-5.891-4.776-10.667-10.667-10.667v0h-789.333c-5.891 0-10.667 4.776-10.667 10.667v0 490.667c0 5.891 4.776 10.667 10.667 10.667v0h789.333c5.891 0 10.667-4.776 10.667-10.667v0zM577.579 234.667c5.333-54.016 24.064-104.32 52.181-149.333h-235.52c28.117 45.013 46.805 95.317 52.181 149.333h131.157z" />
<glyph unicode="&#xe962;" glyph-name="device-mobile-16" d="M240 960c-61.856 0-112-50.144-112-112v0-800c0-61.824 50.176-112 112-112h544c61.856 0 112 50.144 112 112v0 800c0 61.856-50.144 112-112 112v0h-544zM224 848c0 8.837 7.163 16 16 16v0h544c8.837 0 16-7.163 16-16v0-800c0-8.837-7.163-16-16-16v0h-544c-8.837 0-16 7.163-16 16v0 800zM512 128c35.346 0 64 28.654 64 64s-28.654 64-64 64v0c-35.346 0-64-28.654-64-64s28.654-64 64-64v0z" />
<glyph unicode="&#xe963;" glyph-name="device-mobile-24" d="M437.333 736c0 17.673 14.327 32 32 32v0h85.333c17.673 0 32-14.327 32-32s-14.327-32-32-32v0h-85.333c-17.673 0-32 14.327-32 32v0zM512 128c23.564 0 42.667 19.103 42.667 42.667s-19.103 42.667-42.667 42.667v0c-23.564 0-42.667-19.103-42.667-42.667s19.103-42.667 42.667-42.667v0zM170.667 842.667c0 41.216 33.451 74.667 74.667 74.667h533.333c41.216 0 74.667-33.451 74.667-74.667v-789.333c0-41.237-33.429-74.667-74.667-74.667v0h-533.333c-41.237 0-74.667 33.429-74.667 74.667v0 789.333zM245.333 853.333c-5.891 0-10.667-4.776-10.667-10.667v0-789.333c0-5.888 4.779-10.667 10.667-10.667h533.333c5.891 0 10.667 4.776 10.667 10.667v0 789.333c0 5.891-4.776 10.667-10.667 10.667v0h-533.333z" />
<glyph unicode="&#xe964;" glyph-name="diff-16" d="M560 848c0 26.51-21.49 48-48 48s-48-21.49-48-48v0-208h-208c-26.51 0-48-21.49-48-48s21.49-48 48-48v0h208v-208c0-26.51 21.49-48 48-48s48 21.49 48 48v0 208h208c26.51 0 48 21.49 48 48s-21.49 48-48 48v0h-208v208zM256 128c-26.51 0-48-21.49-48-48s21.49-48 48-48v0h512c26.51 0 48 21.49 48 48s-21.49 48-48 48v0h-512z" />
<glyph unicode="&#xe965;" glyph-name="diff-24" d="M522.667 810.667c17.673 0 32-14.327 32-32v0-181.333h181.333c17.673 0 32-14.327 32-32s-14.327-32-32-32v0h-181.333v-181.333c0-17.673-14.327-32-32-32s-32 14.327-32 32v0 181.333h-181.333c-17.673 0-32 14.327-32 32s14.327 32 32 32v0h181.333v181.333c0 17.673 14.327 32 32 32v0zM279.979 138.667c0 17.673 14.327 32 32 32v0h424.021c17.673 0 32-14.327 32-32s-14.327-32-32-32v0h-424.021c-17.673 0-32 14.327-32 32v0z" />
<glyph unicode="&#xe966;" glyph-name="diff-added-16" d="M848 800h-672c-8.837 0-16-7.163-16-16v0-672c0-8.832 7.168-16 16-16h672c8.837 0 16 7.163 16 16v0 672c0 8.837-7.163 16-16 16v0zM176 896h672c61.824 0 112-50.176 112-112v-672c0-61.856-50.144-112-112-112v0h-672c-61.856 0-112 50.144-112 112v0 672c0 61.824 50.176 112 112 112zM512 704c26.51 0 48-21.49 48-48v0-160h160c26.51 0 48-21.49 48-48s-21.49-48-48-48v0h-160v-160c0-26.51-21.49-48-48-48s-48 21.49-48 48v0 160h-160c-26.51 0-48 21.49-48 48s21.49 48 48 48v0h160v160c0 26.51 21.49 48 48 48v0z" />
<glyph unicode="&#xe967;" glyph-name="diff-ignored-16" d="M176 800h672c8.837 0 16-7.163 16-16v0-672c0-8.837-7.163-16-16-16v0h-672c-8.837 0-16 7.163-16 16v0 672c0 8.837 7.163 16 16 16v0zM848 896h-672c-61.856 0-112-50.144-112-112v0-672c0-61.824 50.176-112 112-112h672c61.856 0 112 50.144 112 112v0 672c0 61.856-50.144 112-112 112v0zM721.92 590.080c7.982 8.549 12.883 20.063 12.883 32.723 0 26.51-21.49 48-48 48-12.659 0-24.174-4.901-32.751-12.908l0.028 0.026-352-352c-9.411-8.787-15.277-21.267-15.277-35.117 0-26.51 21.49-48 48-48 13.85 0 26.33 5.866 35.092 15.249l0.026 0.028 352 352z" />
<glyph unicode="&#xe968;" glyph-name="diff-modified-16" d="M176 800h672c8.837 0 16-7.163 16-16v0-672c0-8.837-7.163-16-16-16v0h-672c-8.837 0-16 7.163-16 16v0 672c0 8.837 7.163 16 16 16v0zM848 896h-672c-61.856 0-112-50.144-112-112v0-672c0-61.824 50.176-112 112-112h672c61.856 0 112 50.144 112 112v0 672c0 61.856-50.144 112-112 112v0zM512 320c70.692 0 128 57.308 128 128s-57.308 128-128 128v0c-70.692 0-128-57.308-128-128s57.308-128 128-128v0z" />
<glyph unicode="&#xe969;" glyph-name="diff-removed-16" d="M176 800h672c8.837 0 16-7.163 16-16v0-672c0-8.837-7.163-16-16-16v0h-672c-8.837 0-16 7.163-16 16v0 672c0 8.837 7.163 16 16 16v0zM848 896h-672c-61.856 0-112-50.144-112-112v0-672c0-61.824 50.176-112 112-112h672c61.856 0 112 50.144 112 112v0 672c0 61.856-50.144 112-112 112v0zM720 400c26.51 0 48 21.49 48 48s-21.49 48-48 48v0h-416c-26.51 0-48-21.49-48-48s21.49-48 48-48v0h416z" />
<glyph unicode="&#xe96a;" glyph-name="diff-renamed-16" d="M176 800h672c8.837 0 16-7.163 16-16v0-672c0-8.837-7.163-16-16-16v0h-672c-8.837 0-16 7.163-16 16v0 672c0 8.837 7.163 16 16 16v0zM848 896h-672c-61.856 0-112-50.144-112-112v0-672c0-61.824 50.176-112 112-112h672c61.856 0 112 50.144 112 112v0 672c0 61.856-50.144 112-112 112v0zM753.92 414.080c8.674 8.684 14.038 20.676 14.038 33.92s-5.364 25.236-14.038 33.921l-207.999 207.999c-8.549 7.982-20.063 12.883-32.723 12.883-26.51 0-48-21.49-48-48 0-12.659 4.901-24.174 12.908-32.751l-0.026 0.028 126.080-126.080h-300.16c-26.51 0-48-21.49-48-48s21.49-48 48-48h300.16l-126.080-126.080c-9.411-8.787-15.277-21.267-15.277-35.117 0-26.51 21.49-48 48-48 13.85 0 26.33 5.866 35.092 15.249l0.026 0.028 208 208z" />
<glyph unicode="&#xe96b;" glyph-name="dot-16" d="M512 608c-88.366 0-160-71.634-160-160s71.634-160 160-160v0c88.366 0 160 71.634 160 160s-71.634 160-160 160v0zM256 448c0 141.385 114.615 256 256 256s256-114.615 256-256v0c0-141.385-114.615-256-256-256s-256 114.615-256 256v0z" />
<glyph unicode="&#xe96c;" glyph-name="dot-24" d="M512 256v0c-106.039 0-192 85.961-192 192s85.961 192 192 192v0c106.039 0 192-85.961 192-192s-85.961-192-192-192zM512 192c141.385 0 256 114.615 256 256s-114.615 256-256 256v0c-141.385 0-256-114.615-256-256s114.615-256 256-256v0z" />
<glyph unicode="&#xe96d;" glyph-name="dot-fill-16" d="M512 704c-141.385 0-256-114.615-256-256s114.615-256 256-256v0c141.385 0 256 114.615 256 256s-114.615 256-256 256v0z" />
<glyph unicode="&#xe96e;" glyph-name="dot-fill-24" d="M512 192c141.385 0 256 114.615 256 256s-114.615 256-256 256v0c-141.385 0-256-114.615-256-256s114.615-256 256-256v0z" />
<glyph unicode="&#xe96f;" glyph-name="download-16" d="M478.080 270.080c8.684-8.674 20.676-14.038 33.92-14.038s25.236 5.364 33.921 14.038l239.999 239.999c7.982 8.549 12.883 20.063 12.883 32.723 0 26.51-21.49 48-48 48-12.659 0-24.174-4.901-32.751-12.908l0.028 0.026-158.080-158.080v428.16c0 26.51-21.49 48-48 48s-48-21.49-48-48v0-428.16l-158.080 158.080c-8.549 7.982-20.063 12.883-32.723 12.883-26.51 0-48-21.49-48-48 0-12.659 4.901-24.174 12.908-32.751l-0.026 0.028 240-240zM240 128c-26.51 0-48-21.49-48-48s21.49-48 48-48v0h544c26.51 0 48 21.49 48 48s-21.49 48-48 48v0h-544z" />
<glyph unicode="&#xe970;" glyph-name="download-24" d="M212.053 489.387c-6.274 5.858-10.185 14.178-10.185 23.412 0 17.673 14.327 32 32 32 9.234 0 17.554-3.911 23.394-10.166l0.017-0.019 212.053-212.053v520.107c0 17.673 14.327 32 32 32s32-14.327 32-32v0-520.107l212.053 212.053c5.858 6.274 14.178 10.185 23.412 10.185 17.673 0 32-14.327 32-32 0-9.234-3.911-17.554-10.166-23.394l-0.019-0.017-266.667-266.667c-5.789-5.782-13.784-9.359-22.613-9.359s-16.824 3.576-22.614 9.359v0l-266.667 266.667zM202.667 85.333c-17.673 0-32-14.327-32-32s14.327-32 32-32v0h618.667c17.673 0 32 14.327 32 32s-14.327 32-32 32v0h-618.667z" />
<glyph unicode="&#xe971;" glyph-name="ellipsis-16" d="M0 592c0 61.824 50.176 112 112 112h800c61.824 0 112-50.176 112-112v-288c0-61.856-50.144-112-112-112v0h-800c-61.856 0-112 50.144-112 112v0 288zM256 512c-35.346 0-64-28.654-64-64s28.654-64 64-64v0c35.346 0 64 28.654 64 64s-28.654 64-64 64v0zM448 448v0c0-35.346 28.654-64 64-64s64 28.654 64 64v0c0 35.346-28.654 64-64 64s-64-28.654-64-64zM768 512c-35.346 0-64-28.654-64-64s28.654-64 64-64v0c35.346 0 64 28.654 64 64s-28.654 64-64 64v0z" />
<glyph unicode="&#xe972;" glyph-name="eye-16" d="M107.456 452.352c26.368 39.744 79.488 112 151.424 173.888 72.32 62.272 158.848 109.76 253.12 109.76s180.736-47.488 253.12-109.76c71.936-61.888 125.056-134.144 151.424-173.888 0.855-1.214 1.366-2.723 1.366-4.352s-0.511-3.138-1.382-4.376l0.016 0.024c-26.368-39.744-79.488-112-151.424-173.888-72.32-62.272-158.848-109.76-253.12-109.76s-180.736 47.488-253.12 109.76c-72 61.888-125.12 134.080-151.424 173.888-0.855 1.214-1.366 2.723-1.366 4.352s0.511 3.138 1.382 4.376l-0.016-0.024zM512 832c-126.784 0-234.88-63.488-315.712-132.992-81.28-69.824-139.968-150.080-168.768-193.408-10.926-16.164-17.442-36.089-17.442-57.536s6.516-41.372 17.676-57.903l-0.234 0.367c28.8-43.392 87.488-123.648 168.768-193.536 80.768-69.504 188.928-132.992 315.712-132.992s234.88 63.488 315.712 132.992c81.28 69.824 139.968 150.080 168.768 193.472 10.926 16.164 17.442 36.089 17.442 57.536s-6.516 41.372-17.676 57.903l0.234-0.367c-28.8 43.392-87.488 123.648-168.768 193.472-80.768 69.504-188.928 132.992-315.712 132.992zM512 320c70.692 0 128 57.308 128 128s-57.308 128-128 128v0c-70.692 0-128-57.308-128-128s57.308-128 128-128v0z" />
<glyph unicode="&#xe973;" glyph-name="eye-24" d="M661.333 448c0-82.475-66.859-149.333-149.333-149.333s-149.333 66.859-149.333 149.333v0c0 82.475 66.859 149.333 149.333 149.333s149.333-66.859 149.333-149.333v0zM512 810.667c-146.432 0-261.333-65.451-343.637-138.24-82.176-72.747-133.632-154.112-154.283-190.379-5.735-9.781-9.121-21.54-9.121-34.091s3.387-24.309 9.296-34.414l-0.175 0.323c20.651-36.267 72.107-117.675 154.283-190.293 82.347-72.789 197.205-138.24 343.637-138.24s261.333 65.451 343.637 138.24c82.176 72.704 133.632 154.069 154.283 190.336 5.735 9.781 9.121 21.54 9.121 34.091s-3.387 24.309-9.296 34.414l0.175-0.323c-20.651 36.267-72.107 117.632-154.283 190.293-82.347 72.832-197.205 138.283-343.637 138.283zM69.675 450.347c18.816 33.024 66.176 107.861 141.099 174.080 74.667 66.176 175.147 122.24 301.227 122.24s226.517-56.107 301.227-122.197c74.923-66.261 122.283-141.099 141.099-174.080 0.433-0.678 0.7-1.5 0.725-2.383v-0.007c-0.026-0.889-0.292-1.711-0.737-2.409l0.011 0.019c-18.816-33.024-66.176-107.819-141.099-174.080-74.667-66.091-175.147-122.197-301.227-122.197s-226.517 56.107-301.227 122.197c-74.923 66.261-122.283 141.056-141.099 174.080-0.435 0.678-0.702 1.5-0.725 2.383v0.006c0.032 0.874 0.298 1.681 0.737 2.365l-0.011-0.019z" />
<glyph unicode="&#xe974;" glyph-name="eye-closed-16" d="M9.152 812.16c8.827 12.065 22.935 19.813 38.852 19.813 10.579 0 20.358-3.422 28.292-9.22l-0.136 0.095 928-672c12.714-8.763 20.94-23.244 20.94-39.646 0-26.51-21.49-48-48-48-11.063 0-21.253 3.743-29.37 10.032l0.11-0.082-143.872 104.192c-77.824-61.504-177.28-113.344-291.968-113.344-126.784 0-234.88 63.488-315.712 132.992-81.28 69.76-139.968 150.080-168.768 193.408-10.921 16.155-17.434 36.069-17.434 57.504s6.513 41.349 17.668 57.871l-0.234-0.367c22.592 34.112 63.68 90.88 119.552 147.52l-127.232 92.224c-12.065 8.827-19.813 22.935-19.813 38.852 0 10.579 3.422 20.358 9.22 28.292l-0.095-0.136zM225.856 595.968c-43.331-42.781-82.309-89.768-116.338-140.362l-2.062-3.254c-0.866-1.212-1.39-2.719-1.408-4.348v-0.004c0-1.344 0.384-2.88 1.408-4.352 26.368-39.744 79.488-112 151.424-173.888 72.32-62.272 158.848-109.76 253.12-109.76 76.48 0 147.84 31.232 210.56 76.224l-142.528 103.296c-19.309-12.303-42.843-19.609-68.083-19.609-70.692 0-128 57.308-128 128 0 10.94 1.372 21.559 3.954 31.694l-0.191-0.886-161.92 117.248zM512 736c-33.024 0-65.088-5.76-95.936-16.064-4.835-1.795-10.42-2.834-16.248-2.834-26.51 0-48 21.49-48 48 0 21.506 14.144 39.709 33.636 45.814l0.34 0.092c37.619 13.148 80.989 20.82 126.128 20.992h0.080c126.784 0 234.88-63.488 315.712-132.992 81.28-69.824 139.968-150.080 168.768-193.472 10.926-16.164 17.442-36.089 17.442-57.536s-6.516-41.372-17.676-57.903l0.234 0.367c-7.040-10.624-15.872-23.36-26.24-37.568-8.837-11.957-22.883-19.625-38.72-19.625-26.515 0-48.009 21.494-48.009 48.009 0 10.678 3.486 20.541 9.382 28.515l-0.092-0.131c9.472 12.864 17.408 24.448 23.744 33.92 0.868 1.221 1.388 2.742 1.388 4.384s-0.52 3.163-1.404 4.407l0.016-0.023c-26.368 39.744-79.488 112-151.424 173.888-72.32 62.272-158.848 109.76-253.12 109.76z" />
<glyph unicode="&#xe975;" glyph-name="eye-closed-24" d="M343.552 710.955c49.509 22.562 107.377 35.712 168.316 35.712 0.046 0 0.093 0 0.139 0h-0.007c126.080 0 226.517-56.107 301.227-122.197 74.923-66.261 122.283-141.099 141.099-174.080 0.413-0.669 0.665-1.477 0.683-2.342v-0.005c-0.017-0.947-0.285-1.828-0.738-2.584l0.013 0.024c-20.898-35.946-42.469-66.871-66.279-95.889l0.999 1.254c-4.885-5.589-7.864-12.952-7.864-21.011 0-17.673 14.327-32 32-32 10.366 0 19.581 4.929 25.429 12.572l0.056 0.077c24.909 30.296 48.455 64.037 69.264 99.576l1.99 3.677c5.75 9.818 9.146 21.619 9.146 34.213 0 12.564-3.379 24.339-9.279 34.465l0.176-0.326c-20.693 36.267-72.107 117.632-154.283 190.293-82.347 72.832-197.205 138.283-343.637 138.283-72.32 0-137.173-15.957-194.219-41.088-11.272-5.116-18.97-16.272-18.97-29.227 0-17.673 14.327-32 32-32 4.607 0 8.987 0.974 12.945 2.726l-0.204-0.081zM817.749 192.555c-78.421-59.435-180.608-107.221-305.749-107.221-146.432 0-261.333 65.451-343.637 138.24-82.176 72.704-133.632 154.112-154.283 190.379-5.713 9.789-9.085 21.549-9.085 34.096 0 12.578 3.389 24.364 9.303 34.496l-0.175-0.325c39.899 68.422 86.856 127.211 141.129 178.318l0.397 0.37-99.456 70.315c-8.657 5.818-14.278 15.575-14.278 26.645 0 17.673 14.327 32 32 32 7.252 0 13.941-2.412 19.307-6.479l-0.080 0.058 874.667-618.667c8.657-5.818 14.278-15.575 14.278-26.645 0-17.673-14.327-32-32-32-7.252 0-13.941 2.412-19.307 6.479l0.080-0.058-113.109 80zM209.152 623.019c-73.813-65.749-120.661-139.648-139.435-172.544-0.441-0.718-0.709-1.585-0.725-2.513v-0.005c0-0.64 0.128-1.451 0.683-2.347 18.816-33.024 66.176-107.819 141.099-174.080 74.667-66.091 175.147-122.197 301.227-122.197 99.584 0 183.040 34.987 250.624 82.219l-150.016 106.112c-26.451-24.212-61.835-39.047-100.685-39.047-82.475 0-149.333 66.859-149.333 149.333 0 21.021 4.344 41.028 12.182 59.172l-0.372-0.968-165.248 116.821z" />
<glyph unicode="&#xe976;" glyph-name="file-16" d="M240 864c-8.837 0-16-7.163-16-16v0-736c0-8.832 7.168-16 16-16h544c8.837 0 16 7.163 16 16v0 464h-176c-61.856 0-112 50.144-112 112v0 176h-272zM608 828.16v-140.16c0-8.832 7.168-16 16-16h140.16l-156.16 156.16zM128 848c0 61.824 50.176 112 112 112h325.504c29.696 0 58.176-11.776 79.168-32.832l218.496-218.496c21.056-20.992 32.832-49.472 32.832-79.168v-517.504c0-61.856-50.144-112-112-112v0h-544c-61.856 0-112 50.144-112 112v0 736z" />
<glyph unicode="&#xe977;" glyph-name="file-24" d="M213.333 853.333c-11.782 0-21.333-9.551-21.333-21.333v0-768c0-11.782 9.551-21.333 21.333-21.333v0h597.333c11.782 0 21.333 9.551 21.333 21.333v0 533.333h-170.667c-47.128 0-85.333 38.205-85.333 85.333v0 170.667h-362.667zM640 853.333v-170.667c0-11.782 9.551-21.333 21.333-21.333v0h170.667c-0.202 5.615-2.544 10.647-6.229 14.336l-171.435 171.435c-3.689 3.686-8.721 6.028-14.298 6.228l-0.038 0.001zM128 832c0 47.128 38.205 85.333 85.333 85.333v0h425.899c23.562-0.005 44.892-9.559 60.33-25.002l171.435-171.435c15.443-15.439 24.997-36.769 25.003-60.33v-596.566c0-47.128-38.205-85.333-85.333-85.333v0h-597.333c-47.128 0-85.333 38.205-85.333 85.333v0 768z" />
<glyph unicode="&#xe978;" glyph-name="file-badge-16" d="M176 864c-8.837 0-16-7.163-16-16v0-736c0-8.832 7.168-16 16-16h224c26.51 0 48-21.49 48-48s-21.49-48-48-48v0h-224c-61.856 0-112 50.144-112 112v0 736c0 61.824 50.176 112 112 112h512c0.001 0 0.001 0 0.002 0 40.899 0 76.677-21.922 96.226-54.656l0.283-0.512c4.251-7.021 6.766-15.505 6.766-24.576 0-26.518-21.497-48.014-48.014-48.014-17.447 0-32.72 9.305-41.127 23.223l-0.121 0.215c-2.769 4.989-8.004 8.312-14.015 8.32h-512.001zM512 512c0 0.009 0 0.020 0 0.031 0 141.385 114.615 256 256 256s256-114.615 256-256c0-80.905-37.531-153.045-96.132-199.958l-0.508-0.393 63.68-318.272c0.591-2.826 0.929-6.073 0.929-9.4 0-26.51-21.49-48-48-48-5.867 0-11.489 1.053-16.686 2.98l0.332-0.108-154.176 56.064c-1.618 0.604-3.488 0.953-5.44 0.953s-3.822-0.349-5.551-0.989l0.111 0.036-154.176-56.064c-4.865-1.819-10.486-2.872-16.353-2.872-26.51 0-48 21.49-48 48 0 3.326 0.338 6.574 0.983 9.709l-0.053-0.31 63.616 318.272c-59.067 47.223-96.576 119.273-96.576 200.084 0 0.083 0 0.166 0 0.249v-0.013zM768 672c-88.366 0-160-71.634-160-160s71.634-160 160-160v0c88.366 0 160 71.634 160 160s-71.634 160-160 160v0zM768 256h0.017c-0.107 0-0.215 0-0.322 0-25.057 0-49.274 3.6-70.351 9.856l-41.536-207.552 73.92 26.88c24.704 8.96 51.84 8.96 76.544 0l73.92-26.88-41.536 207.552 1.81 0.455c-22.887-6.711-47.103-10.311-72.161-10.311-0.107 0-0.215 0-0.305 0z" />
<glyph unicode="&#xe979;" glyph-name="file-binary-16" d="M256 848c0 61.824 50.176 112 112 112h357.504c29.696 0 58.176-11.776 79.168-32.832l186.496-186.496c21.056-20.992 32.832-49.472 32.832-79.168v-549.504c0-61.856-50.144-112-112-112v0h-576c-26.51 0-48 21.49-48 48s21.49 48 48 48v0h576c8.837 0 16 7.163 16 16v0 464h-176c-61.856 0-112 50.144-112 112v0 176h-272c-8.837 0-16-7.163-16-16v0-128c0-26.51-21.49-48-48-48s-48 21.49-48 48v0 128zM736 860.032v-172.032c0-8.832 7.168-16 16-16h172.032c-0.247 0.311-0.477 0.582-0.716 0.845l0.012-0.013-186.496 186.496c-0.248 0.225-0.519 0.455-0.797 0.677l-0.035 0.027zM0 464c0 61.824 50.176 112 112 112h96c61.824 0 112-50.176 112-112v-160c0-61.856-50.144-112-112-112v0h-96c-61.856 0-112 50.144-112 112v0 160zM112 480c-8.837 0-16-7.163-16-16v0-160c0-8.832 7.168-16 16-16h96c8.837 0 16 7.163 16 16v0 160c0 8.837-7.163 16-16 16v0h-96zM432 576c-26.51 0-48-21.49-48-48s21.49-48 48-48v0h48v-192h-48c-26.51 0-48-21.49-48-48s21.49-48 48-48v0h192c26.51 0 48 21.49 48 48s-21.49 48-48 48v0h-48v240c0 26.51-21.49 48-48 48v0h-96z" />
<glyph unicode="&#xe97a;" glyph-name="file-binary-24" d="M128 832c0 47.128 38.205 85.333 85.333 85.333v0h425.899c23.562-0.005 44.892-9.559 60.33-25.002l171.435-171.435c15.443-15.439 24.997-36.769 25.003-60.33v-596.566c0-47.128-38.205-85.333-85.333-85.333v0h-608c-17.673 0-32 14.327-32 32s14.327 32 32 32v0h608c11.782 0 21.333 9.551 21.333 21.333v0 533.333h-170.667c-47.128 0-85.333 38.205-85.333 85.333v0 170.667h-362.667c-11.782 0-21.333-9.551-21.333-21.333v0-266.667c0-17.673-14.327-32-32-32s-32 14.327-32 32v0 266.667zM640 853.333v-170.667c0-11.782 9.551-21.333 21.333-21.333v0h170.667c-0.202 5.615-2.544 10.647-6.229 14.336l-171.435 171.435c-3.689 3.686-8.721 6.028-14.298 6.228l-0.038 0.001zM0 373.333c0 41.216 33.451 74.667 74.667 74.667h128c41.216 0 74.667-33.451 74.667-74.667v-170.667c0-41.237-33.429-74.667-74.667-74.667v0h-128c-41.237 0-74.667 33.429-74.667 74.667v0 170.667zM74.667 384c-5.891 0-10.667-4.776-10.667-10.667v0-170.667c0-5.888 4.779-10.667 10.667-10.667h128c5.891 0 10.667 4.776 10.667 10.667v0 170.667c0 5.891-4.776 10.667-10.667 10.667v0h-128zM384 448c-17.673 0-32-14.327-32-32s14.327-32 32-32v0h64v-192h-64c-17.673 0-32-14.327-32-32s14.327-32 32-32v0h192c17.673 0 32 14.327 32 32s-14.327 32-32 32v0h-64v224c0 17.673-14.327 32-32 32v0h-96z" />
<glyph unicode="&#xe97b;" glyph-name="file-code-16" d="M256 848c0 61.824 50.176 112 112 112h357.504c29.696 0 58.176-11.776 79.168-32.832l186.496-186.496c21.056-20.992 32.832-49.472 32.832-79.168v-549.504c0-61.856-50.144-112-112-112v0h-576c-26.51 0-48 21.49-48 48s21.49 48 48 48v0h576c8.837 0 16 7.163 16 16v0 464h-176c-61.856 0-112 50.144-112 112v0 176h-272c-8.837 0-16-7.163-16-16v0-160c0-26.51-21.49-48-48-48s-48 21.49-48 48v0 160zM736 860.032v-172.032c0-8.832 7.168-16 16-16h172.032c-0.247 0.311-0.477 0.582-0.716 0.845l0.012-0.013-186.496 186.496c-0.248 0.225-0.519 0.455-0.797 0.677l-0.035 0.027zM366.080 529.92c-8.674-8.684-14.038-20.676-14.038-33.92s5.364-25.236 14.038-33.921l94.079-94.079-94.080-94.080c-9.411-8.787-15.277-21.267-15.277-35.117 0-26.51 21.49-48 48-48 13.85 0 26.33 5.866 35.092 15.249l0.026 0.028 128 128c8.674 8.684 14.038 20.676 14.038 33.92s-5.364 25.236-14.038 33.921l-127.999 127.999c-8.684 8.674-20.676 14.038-33.92 14.038s-25.236-5.364-33.921-14.038l0.001 0.001zM209.92 462.080c7.982 8.549 12.883 20.063 12.883 32.723 0 26.51-21.49 48-48 48-12.659 0-24.174-4.901-32.751-12.908l0.028 0.026-128-128c-8.674-8.684-14.038-20.676-14.038-33.92s5.364-25.236 14.038-33.921l127.999-127.999c8.549-7.982 20.063-12.883 32.723-12.883 26.51 0 48 21.49 48 48 0 12.659-4.901 24.174-12.908 32.751l0.026-0.028-94.080 94.080 94.080 94.080z" />
<glyph unicode="&#xe97c;" glyph-name="file-code-24" d="M128 832c0 47.128 38.205 85.333 85.333 85.333v0h425.899c23.562-0.005 44.892-9.559 60.33-25.002l171.435-171.435c15.443-15.439 24.997-36.769 25.003-60.33v-596.566c0-47.128-38.205-85.333-85.333-85.333v0h-608c-17.673 0-32 14.327-32 32s14.327 32 32 32v0h608c11.782 0 21.333 9.551 21.333 21.333v0 533.333h-170.667c-47.128 0-85.333 38.205-85.333 85.333v0 170.667h-362.667c-11.782 0-21.333-9.551-21.333-21.333v0-266.667c0-17.673-14.327-32-32-32s-32 14.327-32 32v0 266.667zM640 853.333v-170.667c0-11.782 9.551-21.333 21.333-21.333v0h170.667c-0.202 5.615-2.544 10.647-6.229 14.336l-171.435 171.435c-3.689 3.686-8.721 6.028-14.298 6.228l-0.038 0.001zM193.28 437.76c5.302-5.695 8.557-13.358 8.557-21.781 0-9.251-3.926-17.585-10.202-23.427l-0.019-0.018-112.597-104.533 112.64-104.533c6.301-5.866 10.229-14.208 10.229-23.467 0-17.691-14.341-32.032-32.032-32.032-8.432 0-16.102 3.258-21.822 8.583l0.019-0.018-137.813 128c-6.309 5.862-10.244 14.205-10.244 23.467s3.935 17.605 10.224 23.448l0.020 0.018 137.813 128c5.692 5.291 13.347 8.537 21.76 8.537 9.262 0 17.605-3.935 23.448-10.224l0.018-0.020zM363.051 392.533c-6.308 5.862-10.243 14.205-10.243 23.467 0 17.675 14.328 32.003 32.003 32.003 8.413 0 16.068-3.246 21.78-8.554l-0.020 0.018 137.856-128c6.309-5.862 10.244-14.205 10.244-23.467s-3.935-17.605-10.224-23.448l-0.020-0.018-137.813-128c-5.696-5.299-13.359-8.551-21.781-8.551-17.683 0-32.017 14.335-32.017 32.017 0 9.26 3.931 17.603 10.216 23.449l0.020 0.018 112.597 104.533-112.64 104.533z" />
<glyph unicode="&#xe97d;" glyph-name="file-diff-16" d="M176 864c-8.837 0-16-7.163-16-16v0-800c0-8.832 7.168-16 16-16h672c8.837 0 16 7.163 16 16v0 613.504c0 0.008 0 0.019 0 0.029 0 4.411-1.785 8.405-4.672 11.3v0l-186.496 186.496c-2.894 2.887-6.888 4.672-11.299 4.672-0.010 0-0.020 0-0.030 0h-485.502zM64 848c0 61.824 50.176 112 112 112h485.504c29.696 0 58.176-11.776 79.168-32.832l186.496-186.496c21.056-20.992 32.832-49.472 32.832-79.168v-613.504c0-61.856-50.144-112-112-112v0h-672c-61.856 0-112 50.144-112 112v0 800zM512 752c26.51 0 48-21.49 48-48v0-96h96c26.51 0 48-21.49 48-48s-21.49-48-48-48v0h-96v-96c0-26.51-21.49-48-48-48s-48 21.49-48 48v0 96h-96c-26.51 0-48 21.49-48 48s21.49 48 48 48v0h96v96c0 26.51 21.49 48 48 48v0zM320 240c0 26.51 21.49 48 48 48v0h288c26.51 0 48-21.49 48-48s-21.49-48-48-48v0h-288c-26.51 0-48 21.49-48 48v0z" />
<glyph unicode="&#xe97e;" glyph-name="file-diff-24" d="M533.333 672c0 17.673-14.327 32-32 32s-32-14.327-32-32v0-96h-96c-17.673 0-32-14.327-32-32s14.327-32 32-32v0h96v-96c0-17.673 14.327-32 32-32s32 14.327 32 32v0 96h96c17.673 0 32 14.327 32 32s-14.327 32-32 32v0h-96v96zM373.333 277.333c-17.673 0-32-14.327-32-32s14.327-32 32-32v0h256c17.673 0 32 14.327 32 32s-14.327 32-32 32v0h-256zM213.333 917.333c-47.128 0-85.333-38.205-85.333-85.333v0-768c0-47.128 38.205-85.333 85.333-85.333v0h597.333c47.128 0 85.333 38.205 85.333 85.333v0 596.565c-0.005 23.562-9.559 44.892-25.002 60.33l-171.435 171.435c-15.439 15.443-36.769 24.997-60.33 25.003h-425.9zM192 832c0 11.782 9.551 21.333 21.333 21.333v0h425.899c0.011 0 0.025 0 0.038 0 5.882 0 11.207-2.38 15.066-6.23v0l171.435-171.435c3.849-3.859 6.229-9.184 6.229-15.066 0-0.013 0-0.027 0-0.040v0.002-596.565c0-11.782-9.551-21.333-21.333-21.333v0h-597.333c-11.782 0-21.333 9.551-21.333 21.333v0 768z" />
<glyph unicode="&#xe97f;" glyph-name="file-directory-16" d="M112 896c-61.856 0-112-50.144-112-112v0-672c0-61.824 50.176-112 112-112h800c61.856 0 112 50.144 112 112v0 544c0 61.856-50.144 112-112 112v0h-416c-5.217 0-9.85 2.496-12.771 6.36l-0.029 0.040-57.6 76.8c-21.12 28.16-54.4 44.8-89.6 44.8h-224z" />
</font>
</defs>
</svg>
