<?xml version="1.0" standalone="no"?><!DOCTYPE svg PUBLIC "-//W3C//DTD SVG 1.1//EN" "http://www.w3.org/Graphics/SVG/1.1/DTD/svg11.dtd" ><svg xmlns="http://www.w3.org/2000/svg"><metadata></metadata><defs><font id="1.000;UKWN;microns" horiz-adv-x="640"><font-face font-family="Microns" font-weight="400" font-stretch="normal" units-per-em="512" panose-1="0 0 5 0 0 0 0 0 0 0" ascent="448" descent="-64" x-height="0" bbox="-36 -64 576 448" underline-thickness="50" underline-position="153" unicode-range="U+0020-e76b" /><missing-glyph horiz-adv-x="256" d="M210 -64 l-162 0 l0 512 l162 0 l0 -512 ZM86 414 l0 -17 l33 0 l0 -19 l-33 0 l0 -17 l84 0 l0 17 l-33 0 l0 19 l33 0 l0 17 l-84 0 ZM86 348 l0 -54 l84 0 l0 18 l-33 0 l0 36 l-51 0 ZM119 312 l-17 0 l0 18 l17 0 l0 -18 ZM86 281 l0 -17 l33 0 l0 -19 l-33 0 l0 -17 l51 0 l0 36 l33 0 l0 17 l-84 0 ZM154 250 l0 -34 l-68 0 l0 -17 l84 0 l0 51 l-16 0 ZM119 187 l0 -28 l18 0 l0 11 l17 0 l0 -24 l-52 0 l0 41 l-16 0 l0 -57 l84 0 l0 57 l-51 0 ZM86 99 l0 -58 l84 0 l0 58 l-84 0 ZM154 58 l-52 0 l0 24 l52 0 l0 -24 ZM86 29 l0 -17 l35 0 l-35 -24 l0 -17 l84 0 l0 17 l-52 0 l36 24 l16 0 l0 17 l-84 0 Z" /><glyph glyph-name="space" unicode=" " d="" /><glyph glyph-name="arrow-left" unicode="&#xe700;" d="M64 192 l160 160 l32 -32 l-84 -84 l-28 -24 l64 4 l240 0 l0 -48 l-240 0 l-64 4 l28 -24 l84 -84 l-32 -32 l-160 160 Z" /><glyph glyph-name="arrow-right" unicode="&#xe701;" d="M256 64 l84 84 l28 24 l-64 -4 l-240 0 l0 48 l240 0 l64 -4 l-28 24 l-84 84 l32 32 l160 -160 l-160 -160 l-32 32 Z" /><glyph glyph-name="arrow-up" unicode="&#xe702;" d="M96 224 l160 160 l160 -160 l-32 -32 l-84 84 l-24 28 l4 -64 l0 -240 l-48 0 l0 240 l4 64 l-24 -28 l-84 -84 l-32 32 Z" /><glyph glyph-name="arrow-down" unicode="&#xe703;" d="M416 160 l-160 -160 l-160 160 l32 32 l84 -84 l24 -28 l-4 64 l0 240 l48 0 l0 -240 l-4 -64 l24 28 l84 84 l32 -32 Z" /><glyph glyph-name="left" unicode="&#xe704;" d="M257 384 l34 -34 l-163 -164 l163 -164 l-34 -34 l-196 198 l196 198 Z" /><glyph glyph-name="right" unicode="&#xe705;" d="M98 -12 l-34 34 l163 164 l-163 164 l34 34 l196 -198 l-196 -198 Z" /><glyph glyph-name="up" unicode="&#xe706;" d="M460 127 l-34 -34 l-164 163 l-164 -163 l-34 34 l198 196 l198 -196 Z" /><glyph glyph-name="down" unicode="&#xe707;" d="M64 257 l34 34 l164 -163 l164 163 l34 -34 l-198 -196 l-198 196 Z" /><glyph glyph-name="upload" unicode="&#xe708;" d="M64 384 l384 0 l0 -48 l-384 0 l0 48 ZM232 150 l3 56 l-23 -28 l-56 -53 l-32 32 l132 132 l132 -132 l-32 -32 l-56 53 l-23 28 l3 -56 l0 -150 l-48 0 l0 150 Z" /><glyph glyph-name="download" unicode="&#xe709;" d="M232 384 l48 0 l0 -150 l-3 -56 l23 28 l56 53 l32 -32 l-132 -132 l-132 132 l32 32 l56 -53 l23 -28 l-3 56 l0 150 ZM64 48 l384 0 l0 -48 l-384 0 l0 48 Z" /><glyph glyph-name="undo" unicode="&#xe70a;" d="M448 64 q-59 48 -113.5 72 q-54.5 24 -110.5 24 l0 -92 l-164 164 l164 164 l0 -92 q96 -22 150 -77.5 q54 -55.5 74 -162.5 Z" /><glyph glyph-name="redo" unicode="&#xe70b;" d="M64 64 q20 107 74 162.5 q54 55.5 150 77.5 l0 92 l164 -164 l-164 -164 l0 92 q-56 0 -110.5 -24 q-54.5 -24 -113.5 -72 Z" /><glyph glyph-name="replay" unicode="&#xe70c;" d="M232 0 q-46 0 -84 23 q-39 23 -61.5 62 q-22.5 39 -22.5 85 l0 22 l48 0 l0 -24 q0 -51 35 -85.5 q35 -34.5 86 -34.5 q32 0 59.5 16.5 q27.5 16.5 43.5 43.5 q16 27 16 59 q0 51 -34.5 86 q-34.5 35 -85.5 35 l0 -72 l-96 96 l96 96 l0 -72 q47 0 85 -22 q38 -23 60.5 -61.5 q22.5 -38.5 22.5 -84.5 q0 -47 -22 -84 q-22 -39 -61.5 -61.5 q-39.5 -22.5 -84.5 -22.5 Z" /><glyph glyph-name="plus" unicode="&#xe70d;" d="M232 168 l-168 0 l0 48 l168 0 l0 168 l48 0 l0 -168 l168 0 l0 -48 l-168 0 l0 -168 l-48 0 l0 168 Z" /><glyph glyph-name="minus" unicode="&#xe70e;" d="M64 216 l384 0 l0 -48 l-384 0 l0 48 Z" /><glyph glyph-name="caret" unicode="&#xe70f;" d="M160 352 l96 -112 l-192 0 l96 112 ZM64 144 l192 0 l-96 -112 l-96 112 Z" /><glyph glyph-name="caret-up" unicode="&#xe710;" d="M160 256 l96 -112 l-192 0 l96 112 Z" /><glyph glyph-name="caret-down" unicode="&#xe711;" d="M64 240 l192 0 l-96 -112 l-96 112 Z" /><glyph glyph-name="i-left" unicode="&#xe712;" d="M244 288 l-96 -96 l96 -96 l-32 -32 l-128 128 l128 128 l32 -32 Z" /><glyph glyph-name="i-right" unicode="&#xe713;" d="M64 96 l96 96 l-96 96 l32 32 l128 -128 l-128 -128 l-32 32 Z" /><glyph glyph-name="i-up" unicode="&#xe714;" d="M194 206 l-96 -96 l-32 32 l128 128 l128 -128 l-32 -32 l-96 96 Z" /><glyph glyph-name="i-down" unicode="&#xe715;" d="M194 178 l96 96 l32 -32 l-128 -128 l-128 128 l32 32 l96 -96 Z" /><glyph glyph-name="i-plus" unicode="&#xe716;" d="M152 168 l-88 0 l0 48 l88 0 l0 88 l48 0 l0 -88 l88 0 l0 -48 l-88 0 l0 -88 l-48 0 l0 88 Z" /><glyph glyph-name="i-minus" unicode="&#xe717;" d="M64 216 l224 0 l0 -48 l-224 0 l0 48 Z" /><glyph glyph-name="i-tick" unicode="&#xe718;" d="M64 187 l32 32 l53 -53 l101 122 l36 -32 l-133 -158 l-89 89 Z" /><glyph glyph-name="i-cross" unicode="&#xe719;" d="M64 128 l64 64 l-64 64 l32 32 l64 -64 l64 64 l32 -32 l-64 -64 l64 -64 l-32 -32 l-64 64 l-64 -64 l-32 32 Z" /><glyph glyph-name="i-bullet" unicode="&#xe71a;" d="M160 96 q-40 0 -68 28 q-28 28 -28 68 q0 40 28 68 q28 28 68 28 q40 0 68 -28 q28 -28 28 -68 q0 -40 -28 -68 q-28 -28 -68 -28 Z" /><glyph glyph-name="i-asterisk" unicode="&#xe71b;" d="M285 227 q-42 -25 -75 -35 q33 -10 75 -35 l-24 -42 q-46 28 -68 47 q7 -31 7 -82 l-48 0 q0 51 7 82 q-22 -19 -68 -47 l-24 42 q42 25 75 35 q-33 10 -75 35 l24 42 q46 -28 68 -47 q-7 31 -7 82 l48 0 q0 -51 -7 -82 q22 19 68 47 l24 -42 Z" /><glyph glyph-name="play" unicode="&#xe71c;" d="M64 352 l264 -160 l-264 -160 l0 320 Z" /><glyph glyph-name="pause" unicode="&#xe71d;" d="M64 352 l96 0 l0 -320 l-96 0 l0 320 ZM224 352 l96 0 l0 -320 l-96 0 l0 320 Z" /><glyph glyph-name="subtitles" unicode="&#xe71e;" d="M96 32 q-14 0 -23 9 q-9 9 -9 23 l0 256 q0 14 9 23 q9 9 23 9 l320 0 q14 0 23 -9 q9 -9 9 -23 l0 -256 q0 -14 -9 -23 q-9 -9 -23 -9 l-320 0 ZM176 152 l0 40 l-64 0 l0 -40 l64 0 ZM400 152 l0 40 l-192 0 l0 -40 l192 0 ZM304 80 l0 40 l-192 0 l0 -40 l192 0 ZM400 80 l0 40 l-64 0 l0 -40 l64 0 Z" /><glyph glyph-name="vol-low" unicode="&#xe71f;" d="M128 112 l-64 0 l0 160 l64 0 l112 112 l0 -384 l-112 112 Z" /><glyph glyph-name="vol-mid" unicode="&#xe720;" d="M64 112 l0 160 l64 0 l112 112 l0 -384 l-112 112 l-64 0 ZM284 284 q30 -9 49 -34 q19 -25 19 -58 q0 -30 -19 -56.5 q-19 -26.5 -49 -36.5 l0 185 Z" /><glyph glyph-name="vol-high" unicode="&#xe721;" d="M64 272 l64 0 l112 112 l0 -384 l-112 112 l-64 0 l0 160 ZM280 48 q50 7 85 49 q35 42 35 95 q0 53 -35 95 q-35 42 -85 49 l0 48 q46 -5 84.5 -32.5 q38.5 -27.5 61 -70 q22.5 -42.5 22.5 -89.5 q0 -47 -22.5 -89.5 q-22.5 -42.5 -61 -70 q-38.5 -27.5 -84.5 -32.5 l0 48 ZM284 284 q30 -9 49 -34 q19 -25 19 -58 q0 -30 -19 -56.5 q-19 -26.5 -49 -36.5 l0 185 Z" /><glyph glyph-name="vol-mute" unicode="&#xe722;" d="M420 -4 l-44 44 q-22 -15 -47.5 -26 q-25.5 -11 -48.5 -14 l0 48 q31 5 61 27 l-101 101 l0 -176 l-112 112 l-64 0 l0 160 l80 0 l-84 84 l32 32 l360 -360 l-32 -32 ZM240 384 l0 -80 l-39 42 l39 38 ZM400 192 q0 53 -35 94.5 q-35 41.5 -85 49.5 l0 48 q46 -5 84.5 -32.5 q38.5 -27.5 61 -70 q22.5 -42.5 22.5 -89.5 q0 -19 -5.5 -44 q-5.5 -25 -13.5 -41 l-37 37 q8 26 8 48 ZM284 284 q30 -9 49 -34 q19 -25 19 -58 l0 -4 l-68 68 l0 28 Z" /><glyph glyph-name="captions" unicode="&#xe723;" d="M96 0 q-14 0 -23 9 q-9 9 -9 23 l0 320 q0 14 9 23 q9 9 23 9 l320 0 q14 0 23 -9 q9 -9 9 -23 l0 -320 q0 -14 -9 -23 q-9 -9 -23 -9 l-320 0 ZM181 80 q21 0 36 15.5 q15 15.5 15 37.5 l0 35 l-40 0 l0 -36 q0 -12 -12 -12 q-12 0 -12 12 l0 120 q0 12 12 12 q12 0 12 -12 l0 -36 l40 0 l0 36 q0 21 -15 36.5 q-15 15.5 -38 15.5 q-21 -1 -36 -16 q-15 -15 -15 -37 l0 -119 q0 -21 15 -36.5 q15 -15.5 38 -15.5 ZM325 80 q21 0 36 15.5 q15 15.5 15 37.5 l0 35 l-40 0 l0 -36 q0 -12 -12 -12 q-10 0 -12 12 l0 120 q0 12 12 12 q12 0 12 -12 l0 -36 l40 0 l0 36 q0 21 -15 36.5 q-15 15.5 -38 15.5 q-21 -1 -36 -16 q-15 -15 -15 -37 l0 -119 q0 -21 15 -36.5 q15 -15.5 38 -15.5 Z" /><glyph glyph-name="hd" unicode="&#xe724;" d="M96 0 q-32 0 -32 32 l0 320 q0 32 32 32 l320 0 q32 0 32 -32 l0 -320 q0 -32 -32 -32 l-320 0 ZM168 80 l0 88 l32 0 l0 -88 l40 0 l0 224 l-40 0 l0 -96 l-32 0 l0 96 l-40 0 l0 -224 l40 0 ZM333 80 q51 0 51 53 l0 119 q0 52 -53 52 l-59 0 l0 -224 l61 0 ZM332 264 q12 0 12 -12 l0 -120 q0 -12 -12 -12 l-20 0 l0 144 l20 0 Z" /><glyph glyph-name="audio-description" unicode="&#xe725;" d="M64 333 q37 37 84 56 q47 19 97 19 q50 0 97 -19 q47 -19 84 -56 l-34 -34 q-30 30 -68 45.5 q-38 15.5 -79 15.5 q-41 0 -79 -15.5 q-38 -15.5 -68 -45.5 l-34 34 ZM132 265 q23 23 52.5 35 q29.5 12 60.5 12 q31 0 60.5 -12 q29.5 -12 52.5 -35 l-34 -34 q-33 33 -79 33 q-46 0 -79 -33 l-34 34 ZM245 0 q-53 0 -94.5 31.5 q-41.5 31.5 -65.5 76.5 q24 45 65.5 76.5 q41.5 31.5 94.5 31.5 q53 0 94.5 -31.5 q41.5 -31.5 65.5 -76.5 q-24 -45 -65.5 -76.5 q-41.5 -31.5 -94.5 -31.5 ZM245 40 q29 0 48.5 20 q19.5 20 19.5 48 q0 29 -19.5 48.5 q-19.5 19.5 -48.5 19.5 q-28 0 -48 -19.5 q-20 -19.5 -20 -48.5 q0 -28 20 -48 q20 -20 48 -20 ZM245 72 q-15 0 -25.5 10.5 q-10.5 10.5 -10.5 25.5 q0 15 10.5 25.5 q10.5 10.5 25.5 10.5 q15 0 25.5 -10.5 q10.5 -10.5 10.5 -25.5 q0 -15 -10.5 -25.5 q-10.5 -10.5 -25.5 -10.5 Z" /><glyph glyph-name="chart-line" unicode="&#xe726;" d="M64 176 l112 112 l64 -64 l112 112 l32 -32 l-144 -144 l-64 64 l-80 -80 l-32 32 ZM64 48 l320 0 l0 -48 l-320 0 l0 48 Z" /><glyph glyph-name="chart-bar" unicode="&#xe727;" d="M336 384 l48 0 l0 -288 l-48 0 l0 288 ZM155 320 l48 0 l0 -224 l-48 0 l0 224 ZM245 256 l48 0 l0 -160 l-48 0 l0 160 ZM64 192 l48 0 l0 -96 l-48 0 l0 96 ZM64 48 l320 0 l0 -48 l-320 0 l0 48 Z" /><glyph glyph-name="chart-scatter" unicode="&#xe728;" d="M336 384 l48 0 l0 -48 l-48 0 l0 48 ZM155 336 l48 0 l0 -48 l-48 0 l0 48 ZM245 272 l48 0 l0 -48 l-48 0 l0 48 ZM155 224 l48 0 l0 -48 l-48 0 l0 48 ZM64 192 l48 0 l0 -48 l-48 0 l0 48 ZM336 192 l48 0 l0 -48 l-48 0 l0 48 ZM64 48 l320 0 l0 -48 l-320 0 l0 48 Z" /><glyph glyph-name="chart-pie" unicode="&#xe729;" d="M272 360 q41 0 76 -20.5 q35 -20.5 55.5 -55.5 q20.5 -35 20.5 -76 l-152 0 l0 152 ZM224 0 q-43 0 -80 21.5 q-37 21.5 -58.5 58.5 q-21.5 37 -21.5 80 q0 43 21.5 80 q21.5 37 58.5 58.5 q37 21.5 80 21.5 l0 -160 l160 0 q0 -43 -21.5 -80 q-21.5 -37 -58.5 -58.5 q-37 -21.5 -80 -21.5 Z" /><glyph glyph-name="calendar" unicode="&#xe72a;" d="M96 32 q-14 0 -23 9 q-9 9 -9 23 l0 248 q0 14 9 23 q9 9 23 9 l16 0 l0 40 l48 0 l0 -40 l72 0 l0 40 l48 0 l0 -40 l72 0 l0 40 l48 0 l0 -40 l16 0 q14 0 23 -9 q9 -9 9 -23 l0 -248 q0 -14 -9 -23 q-9 -9 -23 -9 l-320 0 ZM400 80 l0 160 l-288 0 l0 -160 l288 0 Z" /><glyph glyph-name="clock" unicode="&#xe72b;" d="M240 16 q-48 0 -88.5 23.5 q-40.5 23.5 -64 64 q-23.5 40.5 -23.5 88.5 q0 48 23.5 88.5 q23.5 40.5 64 64 q40.5 23.5 88.5 23.5 q48 0 88.5 -23.5 q40.5 -23.5 64 -64 q23.5 -40.5 23.5 -88.5 q0 -48 -23.5 -88.5 q-23.5 -40.5 -64 -64 q-40.5 -23.5 -88.5 -23.5 ZM352 168 l0 48 l-88 0 l0 88 l-48 0 l0 -136 l136 0 Z" /><glyph glyph-name="star" unicode="&#xe72c;" d="M181 162 l-117 98 l154 12 l57 146 l58 -146 l153 -12 l-117 -98 l38 -150 l-132 82 l-131 -86 l37 154 Z" /><glyph glyph-name="heart" unicode="&#xe72d;" d="M256 30 q-69 49 -107.5 81 q-38.5 32 -61.5 68 q-23 36 -23 77 q0 39 28.5 67.5 q28.5 28.5 67.5 28.5 q39 0 67.5 -28.5 q28.5 -28.5 28.5 -67.5 q0 39 28.5 67.5 q28.5 28.5 67.5 28.5 q39 0 67.5 -28.5 q28.5 -28.5 28.5 -67.5 q0 -42 -23.5 -78.5 q-23.5 -36.5 -62 -68.5 q-38.5 -32 -106.5 -79 Z" /><glyph glyph-name="flag" unicode="&#xe72e;" d="M64 352 l48 0 l0 -352 l-48 0 l0 352 ZM144 352 l280 0 l-72 -120 l72 -120 l-280 0 l0 240 Z" /><glyph glyph-name="bookmark" unicode="&#xe72f;" d="M64 352 l192 0 l0 -360 l-96 88 l-96 -88 l0 360 Z" /><glyph glyph-name="chat" unicode="&#xe730;" d="M96 80 q-13 0 -22.5 9.5 q-9.5 9.5 -9.5 22.5 l0 208 q0 14 9.5 23 q9.5 9 22.5 9 l320 0 q14 0 23 -9 q9 -9 9 -23 l0 -208 q0 -13 -9 -22.5 q-9 -9.5 -23 -9.5 l-160 0 l-96 -96 l0 96 l-64 0 Z" /><glyph glyph-name="edit" unicode="&#xe731;" d="M320 336 l48 48 l80 -80 l-48 -48 l-80 80 ZM128 144 l160 160 l80 -80 l-160 -160 l-80 80 ZM96 112 l80 -80 l-112 -32 l32 112 Z" /><glyph glyph-name="delete" unicode="&#xe732;" d="M128 32 q-14 0 -23 9 q-9 9 -9 23 l0 208 l-32 0 l0 48 l80 0 l0 32 q0 14 9 23 q9 9 23 9 l96 0 q14 0 23 -9 q9 -9 9 -23 l0 -32 l80 0 l0 -48 l-32 0 l0 -208 q0 -14 -9 -23 q-9 -9 -23 -9 l-192 0 ZM256 304 l0 32 l-64 0 l0 -32 l64 0 ZM200 80 l0 176 l-56 0 l0 -176 l56 0 ZM304 80 l0 176 l-56 0 l0 -176 l56 0 Z" /><glyph glyph-name="show" unicode="&#xe733;" d="M272 48 q-67 0 -121.5 39 q-54.5 39 -86.5 105 q32 66 86.5 105 q54.5 39 121.5 39 q64 0 120 -40.5 q56 -40.5 88 -103.5 q-32 -63 -88 -103.5 q-56 -40.5 -120 -40.5 ZM272 96 q40 0 68 28 q28 28 28 68 q0 40 -28 68 q-28 28 -68 28 q-40 0 -68 -28 q-28 -28 -28 -68 q0 -40 28 -68 q28 -28 68 -28 ZM272 136 q-23 0 -39.5 16.5 q-16.5 16.5 -16.5 39.5 q0 23 16.5 39.5 q16.5 16.5 39.5 16.5 q23 0 39.5 -16.5 q16.5 -16.5 16.5 -39.5 q0 -23 -16.5 -39.5 q-16.5 -16.5 -39.5 -16.5 Z" /><glyph glyph-name="hide" unicode="&#xe734;" d="M108 388 l360 -360 l-32 -32 l-74 74 q-41 -22 -90 -22 q-64 0 -118.5 39 q-54.5 39 -89.5 105 q15 27 37.5 54.5 q22.5 27.5 42.5 41.5 l-68 68 l32 32 ZM368 192 q0 40 -28 68 q-28 28 -68 28 l-43 43 q25 5 43 5 q65 0 119.5 -40 q54.5 -40 88.5 -104 q-6 -13 -19 -32 q-13 -19 -27 -34 l-66 66 ZM272 96 q27 0 50 14 l-29 29 q-10 -3 -21 -3 q-23 0 -39.5 16.5 q-16.5 16.5 -16.5 39.5 q0 9 4 20 l-30 30 q-14 -23 -14 -50 q0 -40 28 -68 q28 -28 68 -28 Z" /><glyph glyph-name="lock" unicode="&#xe735;" d="M96 32 q-13 0 -22.5 9.5 q-9.5 9.5 -9.5 22.5 l0 160 q0 13 9.5 22.5 q9.5 9.5 22.5 9.5 l0 32 q0 62 48 84 q24 11 47 11 q40 0 68.5 -26.5 q28.5 -26.5 28.5 -69.5 l0 -31 q14 0 23 -9 q9 -9 9 -23 l0 -160 q0 -14 -9 -23 q-9 -9 -23 -9 l-192 0 ZM241 288 q0 20 -14 33 q-14 13 -35 13 q-20 0 -33.5 -13.5 q-13.5 -13.5 -13.5 -32.5 l-1 -64 l97 0 l0 64 Z" /><glyph glyph-name="cog" unicode="&#xe736;" d="M199 72 l-87 -26 l-48 84 l67 62 l-67 62 l48 84 l87 -26 l21 88 l96 0 l21 -88 l87 26 l48 -84 l-67 -62 l67 -62 l-48 -84 l-87 26 l-21 -88 l-96 0 l-21 88 ZM269 128 q27 0 44.5 19 q17.5 19 17.5 47 q0 27 -18 44.5 q-18 17.5 -44 17.5 q-28 0 -46.5 -18 q-18.5 -18 -18.5 -46 q0 -27 18.5 -45.5 q18.5 -18.5 46.5 -18.5 Z" /><glyph glyph-name="link" unicode="&#xe737;" d="M48 222 q0 35 23.5 58.5 q23.5 23.5 58.5 23.5 l35 0 q26 0 46 -13 q20 -13 29 -35 l-111 0 q-14 0 -23.5 -9.5 q-9.5 -9.5 -9.5 -23.5 l0 -62 q0 -14 9.5 -23.5 q9.5 -9.5 23.5 -9.5 l111 0 q-9 -22 -29 -35 q-20 -13 -46 -13 l-35 0 q-35 0 -58.5 23.5 q-23.5 23.5 -23.5 58.5 l0 60 ZM464 162 q0 -35 -23.5 -58.5 q-23.5 -23.5 -58.5 -23.5 l-35 0 q-26 0 -46 13 q-20 13 -29 35 l111 0 q14 0 23.5 9.5 q9.5 9.5 9.5 23.5 l0 62 q0 14 -9.5 23.5 q-9.5 9.5 -23.5 9.5 l-111 0 q9 22 29 35 q20 13 46 13 l35 0 q35 0 58.5 -23.5 q23.5 -23.5 23.5 -58.5 l0 -60 ZM144 216 l224 0 l0 -48 l-224 0 l0 48 Z" /><glyph glyph-name="user" unicode="&#xe738;" d="M256 160 q-40 0 -68 28 q-28 28 -28 68 q0 40 28 68 q28 28 68 28 q40 0 68 -28 q28 -28 28 -68 q0 -40 -28 -68 q-28 -28 -68 -28 ZM128 63 q0 28 18.5 46.5 q18.5 18.5 46.5 18.5 l126 0 q28 0 46.5 -18.5 q18.5 -18.5 18.5 -46.5 l0 -31 l-256 0 l0 31 Z" /><glyph glyph-name="group" unicode="&#xe739;" d="M144 160 q-40 0 -68 28 q-28 28 -28 68 q0 40 28 68 q28 28 68 28 q40 0 68 -28 q28 -28 28 -68 q0 -40 -28 -68 q-28 -28 -68 -28 ZM368 160 q-40 0 -68 28 q-28 28 -28 68 q0 40 28 68 q28 28 68 28 q40 0 68 -28 q28 -28 28 -68 q0 -40 -28 -68 q-28 -28 -68 -28 ZM48 63 q0 28 18.5 46.5 q18.5 18.5 46.5 18.5 l62 0 q28 0 46.5 -18.5 q18.5 -18.5 18.5 -46.5 l0 -31 l-192 0 l0 31 ZM272 63 q0 28 18.5 46.5 q18.5 18.5 46.5 18.5 l62 0 q28 0 46.5 -18.5 q18.5 -18.5 18.5 -46.5 l0 -31 l-192 0 l0 31 Z" /><glyph glyph-name="file" unicode="&#xe73a;" d="M96 0 q-15 0 -23.5 8.5 q-8.5 8.5 -8.5 23.5 l0 320 q0 15 8.5 23.5 q8.5 8.5 23.5 8.5 l121 0 q23 0 39 -16 l112 -112 q16 -16 16 -39 l0 -185 q0 -15 -8.5 -23.5 q-8.5 -8.5 -23.5 -8.5 l-256 0 ZM336 48 l0 160 l-128 0 l0 128 l-96 0 l0 -288 l224 0 Z" /><glyph glyph-name="image" unicode="&#xe73b;" d="M96 32 q-14 0 -23 9 q-9 9 -9 23 l0 256 q0 14 9 23 q9 9 23 9 l320 0 q14 0 23 -9 q9 -9 9 -23 l0 -256 q0 -14 -9 -23 q-9 -9 -23 -9 l-320 0 ZM184 208 q20 0 34 14 q14 14 14 34 q0 20 -14 34 q-14 14 -34 14 q-20 0 -34 -14 q-14 -14 -14 -34 q0 -20 14 -34 q14 -14 34 -14 ZM400 80 l0 64 l-64 64 l-96 -96 l-56 57 l-88 -89 l304 0 Z" /><glyph glyph-name="video" unicode="&#xe73c;" d="M264 -8 q-53 0 -100 27 q-46 27 -73 73 q-27 46 -27 100 q0 54 27 100 q27 46 73 73 q46 27 100 27 q54 0 100 -27 q46 -27 73 -73 q27 -46 27 -100 q0 -53 -27 -100 q-27 -46 -73 -73 q-46 -27 -100 -27 ZM345 192 l-129 96 l0 -192 l129 96 Z" /><glyph glyph-name="audio" unicode="&#xe73d;" d="M128 0 q-26 0 -45 19 q-19 19 -19 45 l0 128 q0 50 26 96 q26 45 70.5 70.5 q44.5 25.5 95.5 25.5 q52 0 96 -26 q45 -26 70.5 -70.5 q25.5 -44.5 25.5 -95.5 l0 -128 q0 -26 -19 -45 q-19 -19 -45 -19 l-64 0 l0 160 l80 0 l0 32 q0 38 -19 72 q-20 33 -53 52.5 q-33 19.5 -72 19.5 q-40 0 -72 -19 q-33 -20 -52.5 -53 q-19.5 -33 -19.5 -72 l0 -32 l80 0 l0 -160 l-64 0 Z" /><glyph glyph-name="print" unicode="&#xe73e;" d="M384 208 q14 0 23 -9.5 q9 -9.5 9 -23.5 l0 -78 q0 -14 -9 -23.5 q-9 -9.5 -23 -9.5 l0 -32 q0 -14 -9 -23 q-9 -9 -23 -9 l-256 0 q-14 0 -23 9 q-9 9 -9 23 l0 32 q-14 0 -23 9.5 q-9 9.5 -9 23.5 l0 78 q0 14 9 23.5 q9 9.5 23 9.5 l0 144 q0 15 8.5 23.5 q8.5 8.5 23.5 8.5 l137 0 q23 0 39 -16 l96 -96 q16 -16 16 -39 l0 -25 ZM112 336 l0 -128 l224 0 l0 48 l-96 0 l0 80 l-128 0 ZM360 120 q10 0 17 7 q7 7 7 17 q0 11 -6.5 17.5 q-6.5 6.5 -17.5 6.5 q-10 0 -17 -7 q-7 -7 -7 -17 q0 -10 7 -17 q7 -7 17 -7 ZM336 48 l0 48 l-224 0 l0 -48 l224 0 Z" /><glyph glyph-name="menu" unicode="&#xe73f;" d="M64 352 l384 0 l0 -48 l-384 0 l0 48 ZM64 216 l384 0 l0 -48 l-384 0 l0 48 ZM64 80 l384 0 l0 -48 l-384 0 l0 48 Z" /><glyph glyph-name="bars" unicode="&#xe740;" d="M64 368 l48 0 l0 -352 l-48 0 l0 352 ZM200 368 l48 0 l0 -352 l-48 0 l0 352 ZM336 368 l48 0 l0 -352 l-48 0 l0 352 Z" /><glyph glyph-name="cancel" unicode="&#xe741;" d="M64 60 l132 132 l-132 132 l32 32 l132 -132 l132 132 l32 -32 l-132 -132 l132 -132 l-32 -32 l-132 132 l-132 -132 l-32 32 Z" /><glyph glyph-name="opts-h" unicode="&#xe742;" d="M128 128 q-26 0 -45 19 q-19 19 -19 45 q0 26 19 45 q19 19 45 19 q26 0 45 -19 q19 -19 19 -45 q0 -26 -19 -45 q-19 -19 -45 -19 ZM320 128 q-26 0 -45 19 q-19 19 -19 45 q0 26 19 45 q19 19 45 19 q26 0 45 -19 q19 -19 19 -45 q0 -26 -19 -45 q-19 -19 -45 -19 ZM512 128 q-26 0 -45 19 q-19 19 -19 45 q0 26 19 45 q19 19 45 19 q26 0 45 -19 q19 -19 19 -45 q0 -26 -19 -45 q-19 -19 -45 -19 Z" /><glyph glyph-name="opts-v" unicode="&#xe743;" d="M208 384 q0 -26 -19 -45 q-19 -19 -45 -19 q-26 0 -45 19 q-19 19 -19 45 q0 26 19 45 q19 19 45 19 q26 0 45 -19 q19 -19 19 -45 ZM208 192 q0 -26 -19 -45 q-19 -19 -45 -19 q-26 0 -45 19 q-19 19 -19 45 q0 26 19 45 q19 19 45 19 q26 0 45 -19 q19 -19 19 -45 ZM208 0 q0 -26 -19 -45 q-19 -19 -45 -19 q-26 0 -45 19 q-19 19 -19 45 q0 26 19 45 q19 19 45 19 q26 0 45 -19 q19 -19 19 -45 Z" /><glyph glyph-name="search" unicode="&#xe744;" d="M416 0 l-97 97 q-42 -32 -95 -32 q-43 0 -80 21.5 q-37 21.5 -58.5 58.5 q-21.5 37 -21.5 80 q0 43 21.5 80 q21.5 37 58.5 58.5 q37 21.5 80 21.5 q43 0 80 -21.5 q37 -21.5 58.5 -58.5 q21.5 -37 21.5 -80 q0 -54 -33 -96 l97 -97 l-32 -32 ZM223 112 q47 0 79.5 33 q32.5 33 32.5 79 q0 47 -32.5 79.5 q-32.5 32.5 -79.5 32.5 q-46 0 -79 -32.5 q-33 -32.5 -33 -79.5 q0 -46 33 -79 q33 -33 79 -33 Z" /><glyph glyph-name="zoom-in" unicode="&#xe745;" d="M416 0 l-97 97 q-42 -32 -95 -32 q-43 0 -80 21.5 q-37 21.5 -58.5 58.5 q-21.5 37 -21.5 80 q0 43 21.5 80 q21.5 37 58.5 58.5 q37 21.5 80 21.5 q43 0 80 -21.5 q37 -21.5 58.5 -58.5 q21.5 -37 21.5 -80 q0 -54 -33 -96 l97 -97 l-32 -32 ZM248 144 l0 56 l56 0 l0 48 l-56 0 l0 56 l-48 0 l0 -56 l-56 0 l0 -48 l56 0 l0 -56 l48 0 Z" /><glyph glyph-name="zoom-out" unicode="&#xe746;" d="M416 0 l-97 97 q-42 -32 -95 -32 q-43 0 -80 21.5 q-37 21.5 -58.5 58.5 q-21.5 37 -21.5 80 q0 43 21.5 80 q21.5 37 58.5 58.5 q37 21.5 80 21.5 q43 0 80 -21.5 q37 -21.5 58.5 -58.5 q21.5 -37 21.5 -80 q0 -54 -33 -96 l97 -97 l-32 -32 ZM144 200 l160 0 l0 48 l-160 0 l0 -48 Z" /><glyph glyph-name="contract" unicode="&#xe747;" d="M64 272 l80 0 l0 64 l48 0 l0 -112 l-128 0 l0 48 ZM320 336 l48 0 l0 -64 l80 0 l0 -48 l-128 0 l0 112 ZM144 112 l-80 0 l0 48 l128 0 l0 -112 l-48 0 l0 64 ZM320 160 l128 0 l0 -48 l-80 0 l0 -64 l-48 0 l0 112 Z" /><glyph glyph-name="expand" unicode="&#xe748;" d="M64 336 l128 0 l0 -48 l-80 0 l0 -64 l-48 0 l0 112 ZM400 288 l-80 0 l0 48 l128 0 l0 -112 l-48 0 l0 64 ZM64 160 l48 0 l0 -64 l80 0 l0 -48 l-128 0 l0 112 ZM320 96 l80 0 l0 64 l48 0 l0 -112 l-128 0 l0 48 Z" /><glyph glyph-name="grid" unicode="&#xe749;" d="M64 352 l136 0 l0 -136 l-136 0 l0 136 ZM248 352 l136 0 l0 -136 l-136 0 l0 136 ZM64 168 l136 0 l0 -136 l-136 0 l0 136 ZM248 168 l136 0 l0 -136 l-136 0 l0 136 Z" /><glyph glyph-name="matrix" unicode="&#xe74a;" d="M64 352 l80 0 l0 -80 l-80 0 l0 80 ZM184 352 l80 0 l0 -80 l-80 0 l0 80 ZM304 352 l80 0 l0 -80 l-80 0 l0 80 ZM64 232 l80 0 l0 -80 l-80 0 l0 80 ZM184 232 l80 0 l0 -80 l-80 0 l0 80 ZM304 232 l80 0 l0 -80 l-80 0 l0 80 ZM64 112 l80 0 l0 -80 l-80 0 l0 80 ZM184 112 l80 0 l0 -80 l-80 0 l0 80 ZM304 112 l80 0 l0 -80 l-80 0 l0 80 Z" /><glyph glyph-name="chapters" unicode="&#xe74b;" d="M64 352 l48 0 l0 -48 l-48 0 l0 48 ZM160 352 l288 0 l0 -48 l-288 0 l0 48 ZM64 216 l48 0 l0 -48 l-48 0 l0 48 ZM160 216 l288 0 l0 -48 l-288 0 l0 48 ZM64 80 l48 0 l0 -48 l-48 0 l0 48 ZM160 80 l288 0 l0 -48 l-288 0 l0 48 Z" /><glyph glyph-name="rss" unicode="&#xe74c;" d="M368 0 q-2 84 -41 153 q-39 69 -107.5 109.5 q-68.5 40.5 -155.5 41.5 l0 80 q107 -2 194 -52 q87 -50 137.5 -136.5 q50.5 -86.5 52.5 -195.5 l-80 0 ZM232 0 q-3 75 -48.5 120.5 q-45.5 45.5 -119.5 47.5 l0 80 q69 -2 125 -33.5 q56 -31.5 88.5 -87 q32.5 -55.5 34.5 -127.5 l-80 0 ZM112 0 q-20 0 -34 14 q-14 14 -14 34 q0 20 14 34 q14 14 34 14 q20 0 34 -14 q14 -14 14 -34 q0 -20 -14 -34 q-14 -14 -34 -14 Z" /><glyph glyph-name="share" unicode="&#xe74d;" d="M385 -16 q-28 0 -46.5 19 q-18.5 19 -18.5 46 q0 9 1 11 l-150 85 q-17 -17 -42 -17 q-27 0 -46 19 q-19 19 -19 46 q0 26 19 44.5 q19 18.5 46 18.5 q25 0 42 -17 l150 84 q-1 3 -1 14 q0 26 18.5 44.5 q18.5 18.5 45.5 18.5 q26 0 44.5 -18.5 q18.5 -18.5 19.5 -44.5 q0 -27 -19 -46 q-19 -19 -45 -19 q-23 0 -43 17 l-150 -85 q1 -2 1 -11 q0 -10 -1 -13 l150 -85 q20 17 44 17 q30 0 46 -19 q16 -19 16 -45 q0 -26 -16 -45 q-16 -19 -46 -19 Z" /><glyph glyph-name="mail" unicode="&#xe74e;" d="M64 320 q0 15 8.5 23.5 q8.5 8.5 23.5 8.5 l320 0 q15 0 23.5 -8.5 q8.5 -8.5 8.5 -23.5 l0 -16 l-192 -128 l-192 128 l0 16 ZM256 120 l192 128 l0 -184 q0 -32 -32 -32 l-320 0 q-32 0 -32 32 l0 184 l192 -128 Z" /><glyph glyph-name="code" unicode="&#xe74f;" d="M48 192 l144 144 l32 -32 l-112 -112 l112 -112 l-32 -32 l-144 144 ZM288 80 l112 112 l-112 112 l32 32 l144 -144 l-144 -144 l-32 32 Z" /><glyph glyph-name="box" unicode="&#xe750;" d="M96 0 q-14 0 -23 9 q-9 9 -9 23 l0 320 q0 14 9 23 q9 9 23 9 l320 0 q14 0 23 -9 q9 -9 9 -23 l0 -320 q0 -14 -9 -23 q-9 -9 -23 -9 l-320 0 ZM400 48 l0 288 l-288 0 l0 -288 l288 0 Z" /><glyph glyph-name="box-full" unicode="&#xe751;" d="M96 0 q-14 0 -23 9 q-9 9 -9 23 l0 320 q0 14 9 23 q9 9 23 9 l320 0 q14 0 23 -9 q9 -9 9 -23 l0 -320 q0 -14 -9 -23 q-9 -9 -23 -9 l-320 0 Z" /><glyph glyph-name="box-plus" unicode="&#xe752;" d="M96 0 q-14 0 -23 9 q-9 9 -9 23 l0 320 q0 14 9 23 q9 9 23 9 l320 0 q14 0 23 -9 q9 -9 9 -23 l0 -320 q0 -14 -9 -23 q-9 -9 -23 -9 l-320 0 ZM280 80 l0 88 l88 0 l0 48 l-88 0 l0 88 l-48 0 l0 -88 l-88 0 l0 -48 l88 0 l0 -88 l48 0 Z" /><glyph glyph-name="box-minus" unicode="&#xe753;" d="M96 0 q-14 0 -23 9 q-9 9 -9 23 l0 320 q0 14 9 23 q9 9 23 9 l320 0 q14 0 23 -9 q9 -9 9 -23 l0 -320 q0 -14 -9 -23 q-9 -9 -23 -9 l-320 0 ZM368 168 l0 48 l-224 0 l0 -48 l224 0 Z" /><glyph glyph-name="box-tick" unicode="&#xe754;" d="M96 0 q-14 0 -23 9 q-9 9 -9 23 l0 320 q0 14 9 23 q9 9 23 9 l320 0 q14 0 23 -9 q9 -9 9 -23 l0 -320 q0 -14 -9 -23 q-9 -9 -23 -9 l-320 0 ZM367 256 l-36 32 l-101 -122 l-53 53 l-32 -32 l89 -89 l133 158 Z" /><glyph glyph-name="box-cross" unicode="&#xe755;" d="M96 0 q-14 0 -23 9 q-9 9 -9 23 l0 320 q0 14 9 23 q9 9 23 9 l320 0 q14 0 23 -9 q9 -9 9 -23 l0 -320 q0 -14 -9 -23 q-9 -9 -23 -9 l-320 0 ZM256 160 l64 -64 l32 32 l-64 64 l64 64 l-32 32 l-64 -64 l-64 64 l-32 -32 l64 -64 l-64 -64 l32 -32 l64 64 Z" /><glyph glyph-name="radio-off" unicode="&#xe756;" d="M288 -32 q-62 0 -113.5 30.5 q-51.5 30.5 -81 82 q-29.5 51.5 -29.5 111.5 q0 62 30.5 113.5 q30.5 51.5 82 81 q51.5 29.5 111.5 29.5 q62 0 113.5 -30.5 q51.5 -30.5 81 -82 q29.5 -51.5 29.5 -111.5 q0 -62 -30.5 -113.5 q-30.5 -51.5 -82 -81 q-51.5 -29.5 -111.5 -29.5 ZM288 16 q48 0 88.5 23.5 q40.5 23.5 64 64 q23.5 40.5 23.5 88.5 q0 50 -24 90 q-24 40 -64 63 q-40 23 -88 23 q-49 0 -89.5 -24 q-40.5 -24 -63.5 -64.5 q-23 -40.5 -23 -87.5 q0 -47 23.5 -87.5 q23.5 -40.5 64 -64.5 q40.5 -24 88.5 -24 Z" /><glyph glyph-name="radio-full" unicode="&#xe758;" d="M264 -8 q-54 0 -100 27 q-46 27 -73 73 q-27 46 -27 100 q0 54 27 100 q27 46 73 73 q46 27 100 27 q54 0 100 -27 q46 -27 73 -73 q27 -46 27 -100 q0 -54 -27 -100 q-27 -46 -73 -73 q-46 -27 -100 -27 Z" /><glyph glyph-name="info" unicode="&#xe759;" d="M264 -8 q-54 0 -100 27 q-46 27 -73 73 q-27 46 -27 100 q0 54 27 100 q27 46 73 73 q46 27 100 27 q54 0 100 -27 q46 -27 73 -73 q27 -46 27 -100 q0 -54 -27 -100 q-27 -46 -73 -73 q-46 -27 -100 -27 ZM296 240 l0 64 l-64 0 l0 -64 l64 0 ZM296 80 l0 128 l-64 0 l0 -128 l64 0 Z" /><glyph glyph-name="warn" unicode="&#xe75a;" d="M264 392 q54 0 100 -27 q46 -27 73 -73 q27 -46 27 -100 q0 -54 -27 -100 q-27 -46 -73 -73 q-46 -27 -100 -27 q-54 0 -100 27 q-46 27 -73 73 q-27 46 -27 100 q0 54 27 100 q27 46 73 73 q46 27 100 27 ZM232 304 l0 -128 l64 0 l0 128 l-64 0 ZM232 144 l0 -64 l64 0 l0 64 l-64 0 Z" /><glyph glyph-name="pass" unicode="&#xe75b;" d="M264 -8 q-54 0 -100 27 q-46 27 -73 73 q-27 46 -27 100 q0 54 27 100 q27 46 73 73 q46 27 100 27 q54 0 100 -27 q46 -27 73 -73 q27 -46 27 -100 q0 -54 -27 -100 q-27 -46 -73 -73 q-46 -27 -100 -27 ZM368 256 l-36 32 l-101 -122 l-53 53 l-32 -32 l89 -89 l133 158 Z" /><glyph glyph-name="fail" unicode="&#xe75c;" d="M264 -8 q-54 0 -100 27 q-46 27 -73 73 q-27 46 -27 100 q0 54 27 100 q27 46 73 73 q46 27 100 27 q54 0 100 -27 q46 -27 73 -73 q27 -46 27 -100 q0 -54 -27 -100 q-27 -46 -73 -73 q-46 -27 -100 -27 ZM264 160 l64 -64 l32 32 l-64 64 l64 64 l-32 32 l-64 -64 l-64 64 l-32 -32 l64 -64 l-64 -64 l32 -32 l64 64 Z" /><glyph glyph-name="text" unicode="&#xe75d;" d="M365 16 l-37 80 l-156 0 l-37 -80 l-71 0 l163 352 l45 0 l164 -352 l-71 0 ZM201 160 l98 0 l-49 105 l-49 -105 Z" /><glyph glyph-name="bold" unicode="&#xe75e;" d="M214 368 q52 0 84.5 -27 q32.5 -27 32.5 -69 q0 -25 -11.5 -46 q-11.5 -21 -28.5 -29 l0 -2 q28 -9 44.5 -31 q16.5 -22 16.5 -51 q0 -42 -31 -69.5 q-31 -27.5 -79 -27.5 l-178 0 l0 352 l150 0 ZM218 224 q21 0 35 13 q14 13 14 31 q0 16 -13.5 26 q-13.5 10 -35.5 10 l-90 0 l0 -80 l90 0 ZM236 80 q22 0 37 11.5 q15 11.5 15 28.5 q0 19 -14.5 29.5 q-14.5 10.5 -37.5 10.5 l-108 0 l0 -80 l108 0 Z" /><glyph glyph-name="italic" unicode="&#xe75f;" d="M368 304 l-94 0 l-50 -224 l96 0 l0 -64 l-256 0 l0 64 l94 0 l50 224 l-96 0 l0 64 l256 0 l0 -64 Z" /><glyph glyph-name="underline" unicode="&#xe760;" d="M192 96 q-53 0 -90.5 37.5 q-37.5 37.5 -37.5 90.5 l0 144 l64 0 l0 -144 q0 -27 18.5 -45.5 q18.5 -18.5 45.5 -18.5 q27 0 45.5 18.5 q18.5 18.5 18.5 45.5 l0 144 l64 0 l0 -144 q0 -53 -37.5 -90.5 q-37.5 -37.5 -90.5 -37.5 ZM64 64 l256 0 l0 -48 l-256 0 l0 48 Z" /><glyph glyph-name="strikeout" unicode="&#xe761;" d="M424 168 l-102 0 q18 -23 18 -54 q0 -43 -33 -70.5 q-33 -27.5 -77 -27.5 q-41 0 -74.5 23.5 q-33.5 23.5 -47.5 68.5 l64 17 q6 -24 21.5 -37.5 q15.5 -13.5 37.5 -13.5 q19 0 32 11 q13 11 13 27 q0 19 -15 31.5 q-15 12.5 -44 24.5 l-193 0 l0 48 l114 0 q-21 25 -21 58 q0 42 31.5 68 q31.5 26 72.5 26 q39 0 73 -22.5 q34 -22.5 39 -60.5 l-64 -13 q-7 18 -17.5 27 q-10.5 9 -28.5 9 q-17 0 -29.5 -9.5 q-12.5 -9.5 -12.5 -26.5 q0 -17 12 -26.5 q12 -9.5 29.5 -17.5 q17.5 -8 26.5 -12 l175 0 l0 -48 Z" /><glyph glyph-name="text-size" unicode="&#xe762;" d="M256 304 l-128 0 l0 64 l320 0 l0 -64 l-128 0 l0 -288 l-64 0 l0 288 ZM144 176 l-80 0 l0 48 l168 0 l0 -48 l-40 0 l0 -160 l-48 0 l0 160 Z" /><glyph glyph-name="text-unstyle" unicode="&#xe763;" d="M356 28 l-32 -32 l-113 113 l0 -93 l-66 0 l0 159 l-181 181 l32 32 l360 -360 ZM211 304 l0 -67 l-131 131 l259 0 l0 -64 l-128 0 Z" /><glyph glyph-name="align-left" unicode="&#xe764;" d="M64 352 l384 0 l0 -48 l-384 0 l0 48 ZM64 261 l256 0 l0 -48 l-256 0 l0 48 ZM64 171 l384 0 l0 -48 l-384 0 l0 48 ZM64 80 l256 0 l0 -48 l-256 0 l0 48 Z" /><glyph glyph-name="align-center" unicode="&#xe765;" d="M64 352 l384 0 l0 -48 l-384 0 l0 48 ZM128 261 l256 0 l0 -48 l-256 0 l0 48 ZM64 171 l384 0 l0 -48 l-384 0 l0 48 ZM128 80 l256 0 l0 -48 l-256 0 l0 48 Z" /><glyph glyph-name="align-right" unicode="&#xe766;" d="M448 304 l-384 0 l0 48 l384 0 l0 -48 ZM448 213 l-256 0 l0 48 l256 0 l0 -48 ZM448 123 l-384 0 l0 48 l384 0 l0 -48 ZM448 32 l-256 0 l0 48 l256 0 l0 -48 Z" /><glyph glyph-name="indent" unicode="&#xe767;" d="M64 352 l384 0 l0 -48 l-384 0 l0 48 ZM64 261 l80 -69 l-80 -69 l0 138 ZM192 261 l256 0 l0 -48 l-256 0 l0 48 ZM192 171 l256 0 l0 -48 l-256 0 l0 48 ZM64 80 l384 0 l0 -48 l-384 0 l0 48 Z" /><glyph glyph-name="outdent" unicode="&#xe768;" d="M64 352 l384 0 l0 -48 l-384 0 l0 48 ZM64 192 l80 69 l0 -138 l-80 69 ZM192 261 l256 0 l0 -48 l-256 0 l0 48 ZM192 171 l256 0 l0 -48 l-256 0 l0 48 ZM64 80 l384 0 l0 -48 l-384 0 l0 48 Z" /><glyph glyph-name="cloud" unicode="&#xe769;" d="M167 48 q-48 0 -75.5 31 q-27.5 31 -27.5 73 q0 42 27.5 73 q27.5 31 75.5 31 q13 0 16 -1 q2 35 23 63.5 q21 28.5 54 41.5 q22 8 44 8 q24 0 46 -9 q22 -9 38 -27 q35 -35 35 -85 q0 -21 -8 -43 q27 -8 41.5 -28.5 q14.5 -20.5 14.5 -45.5 q0 -33 -22 -57.5 q-22 -24.5 -58 -24.5 l-224 0 Z" /><glyph glyph-name="web" unicode="&#xe76a;" d="M288 416 q62 0 113.5 -30.5 q51.5 -30.5 81 -82 q29.5 -51.5 29.5 -111.5 q0 -62 -30.5 -113.5 q-30.5 -51.5 -82 -81 q-51.5 -29.5 -111.5 -29.5 q-62 0 -113.5 30.5 q-51.5 30.5 -81 82 q-29.5 51.5 -29.5 111.5 q0 62 30.5 113.5 q30.5 51.5 82 81 q51.5 29.5 111.5 29.5 ZM272 365 q-37 -12 -54 -68 q27 -7 54 -9 l0 77 ZM304 288 q27 2 54 9 q-17 56 -54 68 l0 -77 ZM367 350 q13 -20 20 -43 q16 8 24 13 q-19 17 -44 30 ZM189 307 q8 24 20 43 q-24 -12 -43 -31 l23 -12 ZM463 208 q-3 47 -31 87 q-20 -13 -36 -19 q7 -33 8 -68 l59 0 ZM180 276 q-15 6 -35 19 q-27 -38 -32 -87 l59 0 q1 35 8 68 ZM272 256 q-34 3 -62 10 q-5 -26 -6 -58 l68 0 l0 48 ZM372 208 q-1 32 -6 58 q-28 -7 -62 -10 l0 -48 l68 0 ZM113 176 q5 -49 32 -87 q14 10 35 19 q-7 33 -8 68 l-59 0 ZM204 176 q1 -32 6 -58 q28 7 62 10 l0 48 l-68 0 ZM304 128 q34 -3 62 -10 q5 26 6 58 l-68 0 l0 -48 ZM396 108 q15 -6 35 -19 q27 38 32 87 l-59 0 q-1 -35 -8 -68 ZM304 19 q37 12 54 68 q-27 7 -54 9 l0 -77 ZM272 96 q-27 -2 -54 -9 q17 -56 54 -68 l0 77 ZM189 77 q-13 -5 -23 -12 q19 -18 42 -30 q-13 22 -19 42 ZM387 77 q-7 -23 -20 -42 q23 10 43 30 l-23 12 Z" /><glyph glyph-name="wifi" unicode="&#xe76b;" d="M64 282 q51 51 115.5 77 q64.5 26 133.5 26 q69 0 133.5 -26 q64.5 -26 115.5 -77 l-34 -34 q-44 44 -99.5 66.5 q-55.5 22.5 -115.5 22.5 q-60 0 -116 -22.5 q-56 -22.5 -99 -66.5 l-34 34 ZM132 214 q37 37 84 56 q47 19 97 19 q50 0 97 -19 q47 -19 84 -56 l-34 -34 q-30 30 -68 45.5 q-38 15.5 -79 15.5 q-41 0 -79.5 -15.5 q-38.5 -15.5 -67.5 -45.5 l-34 34 ZM200 146 q23 23 52 35 q29 12 61 12 q32 0 61 -12 q29 -12 52 -35 l-34 -33 q-16 16 -37 24 q-21 8 -42 8 q-22 0 -42.5 -8 q-20.5 -8 -36.5 -24 l-34 33 ZM267 79 q20 18 46 18 q26 0 45 -18 l-45 -46 l-46 46 Z" /></font>
</defs>
</svg>
