<?xml version="1.0" standalone="no"?>
<!DOCTYPE svg PUBLIC "-//W3C//DTD SVG 1.1//EN" "http://www.w3.org/Graphics/SVG/1.1/DTD/svg11.dtd" >
<svg xmlns="http://www.w3.org/2000/svg">
<metadata>Generated by IcoMoon</metadata>
<defs>
<font id="FluentUI-Filled-Monochrome" horiz-adv-x="1024">
<font-face units-per-em="1024" ascent="960" descent="-64" />
<missing-glyph horiz-adv-x="1024" />
<glyph unicode="&#x20;" horiz-adv-x="512" d="" />
<glyph unicode="&#xe000;" glyph-name="accessibility" d="M512 874.667c46.933 0 85.333-38.4 85.333-85.333s-38.4-85.333-85.333-85.333c-46.933 0-85.333 38.4-85.333 85.333s38.4 85.333 85.333 85.333zM896 618.667c0-23.564-19.242-42.667-42.273-42.667h-213.727v-512.064c0-21.848-16.329-39.855-37.66-42.316l-5.006-0.287c-23.564 0-42.667 19.242-42.667 42.273v213.727h-85.333v-213.727c0-21.679-16.329-39.547-37.66-41.989l-5.006-0.284c-23.564 0-42.667 19.093-42.667 42.603v512.064h-213.727c-21.679 0-39.547 16.329-41.989 37.66l-0.284 5.006c0 23.564 18.984 42.667 42.385 42.667h683.23c21.737 0 39.651-16.329 42.1-37.66l0.285-5.006z" />
<glyph unicode="&#xe001;" glyph-name="access-time" d="M938.667 448c0 235.642-191.027 426.667-426.667 426.667-235.642 0-426.667-191.025-426.667-426.667 0-235.639 191.025-426.667 426.667-426.667 235.639 0 426.667 191.027 426.667 426.667zM319.981 586.911c14.828 16.318 39.069 31.758 74.684 31.758 49.167 0 80.821-33.795 91.927-70.88 10.82-36.122 4.258-80.863-26.432-111.694-10.547-10.598-22.963-20.186-33.83-28.574l-1.737-1.344c-11.912-9.207-22.551-17.553-31.937-26.91-10.922-10.897-19.825-22.805-25.016-37.931h91.027c17.673 0 32-14.327 32-32 0-17.677-14.327-32-32-32h-128.002c-8.487 0-16.627 3.371-22.628 9.37-6.001 6.003-9.373 14.144-9.372 22.63 0.001 53.201 22.358 88.875 48.797 115.243 12.646 12.612 26.375 23.258 37.994 32.235l0.128 0.102c12.203 9.429 21.671 16.747 29.216 24.329 11.619 11.669 15.652 30.933 10.484 48.183-4.878 16.288-15.786 25.24-30.618 25.24-15.052 0-22.81-5.838-27.316-10.797-2.533-2.787-4.265-5.621-5.322-7.687-0.515-1.006-0.826-1.745-0.962-2.085l-0.045-0.116c-5.503-16.51-23.246-25.632-39.922-20.406-16.865 5.282-26.253 23.238-20.969 40.103l1.48 4.103c0.792 1.988 1.918 4.573 3.445 7.556 3.026 5.914 7.794 13.718 14.928 21.57zM565.333 618.665c17.673 0 32-14.327 32-32v-117.302h64v117.302c0 17.673 14.327 32 32 32s32-14.327 32-32v-276.069c0-17.673-14.327-32-32-32s-32 14.327-32 32v94.767h-96c-17.673 0-32 14.327-32 32v149.302c0 17.673 14.327 32 32 32z" />
<glyph unicode="&#xe002;" glyph-name="activity" d="M361.428 651.225l130.37-554.326c9.965-42.37 69.529-44.373 82.317-2.768l125.641 408.758 16.427-65.174c4.778-18.955 21.825-32.239 41.373-32.239h138.444c23.564 0 42.667 19.103 42.667 42.667s-19.103 42.667-42.667 42.667h-105.198l-45.609 180.952c-10.551 41.859-69.473 43.371-82.156 2.108l-124.223-404.146-134.538 572.045c-10.24 43.538-72.049 43.987-82.92 0.603l-88.099-351.562h-105.257c-23.564 0-42.667-19.103-42.667-42.667s19.103-42.667 42.667-42.667h138.551c19.569 0 36.63 13.313 41.387 32.295l53.49 213.453z" />
<glyph unicode="&#xe003;" glyph-name="add" d="M507.024 831.713l4.976 0.287c21.881 0 39.915-16.471 42.38-37.691l0.287-4.976v-298.667h298.667c21.881 0 39.915-16.471 42.38-37.691l0.287-4.976c0-21.881-16.471-39.915-37.691-42.38l-4.976-0.287h-298.667v-298.667c0-21.881-16.471-39.915-37.691-42.38l-4.976-0.287c-21.881 0-39.915 16.471-42.38 37.691l-0.287 4.976v298.667h-298.667c-21.881 0-39.915 16.471-42.38 37.691l-0.287 4.976c0 21.881 16.471 39.915 37.691 42.38l4.976 0.287h298.667v298.667c0 21.881 16.471 39.915 37.691 42.38v0z" />
<glyph unicode="&#xe004;" glyph-name="add-circle" d="M512 874.667c235.641 0 426.667-191.025 426.667-426.667s-191.025-426.667-426.667-426.667c-235.641 0-426.667 191.025-426.667 426.667s191.025 426.667 426.667 426.667zM512 661.333c-16.2 0-29.589-12.039-31.708-27.658l-0.292-4.342v-149.333h-149.333c-17.673 0-32-14.327-32-32 0-16.2 12.039-29.589 27.658-31.708l4.342-0.292h149.333v-149.333c0-17.673 14.327-32 32-32 16.2 0 29.589 12.039 31.708 27.658l0.292 4.342v149.333h149.333c17.673 0 32 14.327 32 32 0 16.2-12.039 29.589-27.658 31.708l-4.342 0.292h-149.333v149.333c0 17.673-14.327 32-32 32z" />
<glyph unicode="&#xe005;" glyph-name="airplane" d="M938.196 450.302c0-46.923-38.038-84.961-84.961-84.961-0.828 0-1.656 0.012-2.484 0.036l-202.189 5.956-147.342-304.753c-11.852-24.515-36.682-40.091-63.912-40.091-21.821 0-39.51 17.689-39.51 39.51 0 1.572 0.094 3.143 0.281 4.704l36.787 306.886-160.663 4.692-20.908-57.202c-7.929-21.689-28.563-36.115-51.656-36.115-21.237 0-38.453 17.216-38.453 38.453l0.030 63.005-34.592 7.201c-24.945 5.207-42.818 27.197-42.818 52.68 0 25.478 17.881 47.459 42.826 52.646l34.585 7.2-0.030 63.041c0 19.603 14.669 35.781 33.63 38.154l4.823 0.3c23.093 0 43.727-14.426 51.656-36.115l20.954-57.191 160.065 4.692-36.235 302.272c-0.094 0.78-0.164 1.563-0.211 2.348l-0.070 2.356c0 21.821 17.689 39.51 39.51 39.51 24.961 0 47.905-13.088 60.685-34.152l3.227-5.939 145.18-300.185 204.351 5.981c46.897 1.377 86.031-35.524 87.409-82.421l0.037-2.494z" />
<glyph unicode="&#xe006;" glyph-name="airplane-take-off" d="M528.798 707.193l-79.838 64.632c-13.995 11.328-31.453 17.508-49.456 17.508-60.048 0-97.917-64.61-68.578-117.002l16.278-29.068 147.788 30.789c2.359 0.492 7.241 2.589 12.535 8.967 5.986 7.211 13.124 15.447 21.269 24.174zM128 106.667c0 23.565 19.103 42.667 42.667 42.667h682.667c23.565 0 42.667-19.102 42.667-42.667s-19.102-42.667-42.667-42.667h-682.667c-23.564 0-42.667 19.102-42.667 42.667zM919.339 668.615c-40.333 46.215-111.65 106.625-207.13 99.273-39.646-3.053-75.533-23.431-103.637-45.1-28.582-22.040-52.39-47.971-68.211-67.031-10.351-12.465-23.275-20.695-36.668-23.485l-198.971-41.452-41.213 75.557c-12.645 23.182-36.942 37.606-63.348 37.606-39.853 0-72.16-32.307-72.16-72.16v-157.433c0-61.461 55.993-107.712 116.349-96.102l140.83 27.089-21.679-52.655c-23.174-56.282 18.207-118.071 79.073-118.071 26.918 0 52.267 12.672 68.416 34.206l138.057 184.085 229.15 79.010c27.669 9.539 48.529 30.65 57.259 56.33 8.917 26.232 4.736 56.441-16.115 80.334z" />
<glyph unicode="&#xe007;" glyph-name="alert" d="M385.78 149.207h252.439c-10.182-60.507-62.818-106.604-126.22-106.604s-116.038 46.097-126.22 106.604zM512 874.501c176.731 0 320-143.269 320-320v-170.603l60.515-134.831c2.343-5.22 3.554-10.876 3.554-16.597 0-22.386-18.147-40.533-40.533-40.533h-686.909c-5.708 0-11.352 1.206-16.562 3.538-20.432 9.147-29.58 33.125-20.434 53.557l60.369 134.851 0.005 171.17 0.188 10.663c5.934 171.978 147.257 308.786 319.807 308.786z" />
<glyph unicode="&#xe008;" glyph-name="alert-off" d="M139.961 865.294c-12.497 12.497-32.758 12.497-45.255 0.001s-12.497-32.758-0.001-45.255l128.179-128.181c-18.281-38.412-29.136-81.071-30.691-126.144l-0.189-10.663-0.004-171.17-60.369-134.848c-9.147-20.433 0.002-44.412 20.433-53.559 5.21-2.334 10.854-3.537 16.562-3.537h554.172l161.229-161.237c12.497-12.497 32.759-12.497 45.257 0s12.497 32.759 0 45.257l-789.323 789.338zM896.068 232.469c0-9.22-3.076-17.719-8.26-24.529l-586.978 586.993c56.411 49.565 130.368 79.567 211.17 79.567 176.73 0 320-143.269 320-320v-170.602l60.514-134.831c2.342-5.222 3.554-10.876 3.554-16.597zM638.221 149.205c-10.185-60.506-62.818-106.603-126.221-106.603s-116.038 46.097-126.22 106.603h252.44z" />
<glyph unicode="&#xe009;" glyph-name="alert-on" d="M385.78 149.207h252.439c-10.182-60.507-62.818-106.604-126.22-106.604s-116.038 46.097-126.22 106.604zM512 874.501c176.731 0 320-143.269 320-320v-170.603l60.515-134.831c2.343-5.22 3.554-10.876 3.554-16.597 0-22.386-18.147-40.533-40.533-40.533h-686.909c-5.708 0-11.352 1.206-16.562 3.538-20.432 9.147-29.58 33.125-20.434 53.557l60.369 134.851 0.005 171.17 0.188 10.663c5.934 171.978 147.257 308.786 319.807 308.786zM981.333 608c17.673 0 32-14.327 32-32 0-16.2-12.039-29.589-27.658-31.708l-4.342-0.292h-85.333c-17.673 0-32 14.327-32 32 0 16.2 12.039 29.589 27.658 31.708l4.342 0.292h85.333zM128 608c17.673 0 32-14.327 32-32 0-16.2-12.039-29.589-27.658-31.708l-4.342-0.292h-85.333c-17.673 0-32 14.327-32 32 0 16.2 12.039 29.589 27.658 31.708l4.342 0.292h85.333zM964.267 851.2c9.64-12.853 8.148-30.598-2.825-41.685l-3.575-3.115-85.333-64c-14.138-10.604-34.196-7.738-44.8 6.4-9.64 12.853-8.148 30.598 2.825 41.685l3.575 3.115 85.333 64c14.138 10.604 34.196 7.738 44.8-6.4zM104.533 857.6l85.333-64c14.138-10.604 17.004-30.662 6.4-44.8s-30.662-17.004-44.8-6.4l-85.333 64c-14.138 10.604-17.004 30.662-6.4 44.8s30.662 17.004 44.8 6.4z" />
<glyph unicode="&#xe00a;" glyph-name="alert-snooze" d="M638.22 149.207c-10.182-60.507-62.818-106.604-126.22-106.604-60.76 0-111.633 42.336-124.728 99.118l-1.492 7.486h252.439zM512 874.501c176.731 0 320-143.269 320-320v-170.603l60.515-134.831c2.343-5.22 3.554-10.876 3.554-16.597 0-22.386-18.147-40.533-40.533-40.533h-686.909c-5.708 0-11.352 1.206-16.562 3.538-20.432 9.147-29.58 33.125-20.434 53.557l60.369 134.851 0.005 171.17 0.188 10.663c5.934 171.978 147.257 308.786 319.807 308.786zM448 554.667h-85.333l-4.342-0.292c-15.619-2.119-27.658-15.508-27.658-31.708s12.039-29.589 27.658-31.708l4.342-0.292h30.192l-57.975-101.457-1.967-4.053c-7.711-19.128 4.822-40.725 25.256-43.52l4.495-0.303h85.333l4.342 0.292c15.619 2.119 27.658 15.508 27.658 31.708s-12.039 29.589-27.658 31.708l-4.342 0.292h-30.192l57.975 101.457 1.967 4.053c7.711 19.128-4.822 40.725-25.256 43.52l-4.495 0.303zM640 682.667h-106.667l-4.342-0.292c-15.619-2.119-27.658-15.508-27.658-31.708s12.039-29.589 27.658-31.708l4.342-0.292h52.282l-80.255-144.459-1.907-4.049c-7.448-19.091 5.109-40.432 25.414-43.192l4.465-0.3h106.667l4.342 0.292c15.619 2.119 27.658 15.508 27.658 31.708s-12.039 29.589-27.658 31.708l-4.342 0.292h-52.282l80.255 144.459 1.907 4.049c7.448 19.091-5.109 40.432-25.414 43.192l-4.465 0.3z" />
<glyph unicode="&#xe00b;" glyph-name="alert-urgent" d="M444.952 109.908l152 64.52c5.689-37.557-14.418-75.636-50.997-91.163s-77.938-3.539-101.003 26.643zM676.748 870.676c88.991-48.621 155.797-111.047 199.754-187.182s64.617-165.204 62.228-266.583c-0.416-17.668-15.077-31.654-32.745-31.237s-31.654 15.077-31.237 32.745c2.123 90.084-15.85 167.567-53.671 233.076s-95.938 119.815-175.014 163.018c-15.509 8.474-21.213 27.915-12.739 43.425s27.915 21.213 43.425 12.739zM286.355 682.024c122.102 54.363 264.71 2.96 324.245-117.142l4.194-8.935 54.927-123.385 72.462-62.71c3.955-3.424 7.381-7.41 11.355-13.858l2.504-4.877c11.921-26.935-0.251-58.434-27.187-70.355l-440.603-194.994c-6.798-3.009-14.15-4.563-21.584-4.563-29.455 0-53.333 23.878-53.333 53.319l-0.046 99.965-53.008 119.097c-56.043 125.874 0.392 272.48 126.076 328.438zM666.612 717.049c41.258-22.497 74.325-55.238 98.827-97.677s36.324-87.446 35.177-134.425c-0.431-17.668-15.103-31.641-32.771-31.21s-31.641 15.103-31.21 32.771c0.855 35.054-7.924 68.478-26.622 100.864s-43.255 56.701-74.040 73.488c-15.516 8.461-21.236 27.898-12.775 43.414s27.898 21.236 43.414 12.775z" />
<glyph unicode="&#xe00c;" glyph-name="animal-dog" d="M464.021 590.46c16.546-9.216 36.19-14.451 58.475-14.451 36.147 0 66.359 13.090 87.322 35.991 20.548 22.451 30.012 51.904 30.012 81.333 0 17.673-14.327 32-32 32s-32-14.327-32-32c0-16.081-5.137-29.289-13.222-38.123-7.676-8.384-20.126-15.201-40.111-15.201-19.14 0-31.168 6.914-38.997 15.811-7.881 8.952-12.975 21.693-14.165 35.823v87.022c0 52.995 42.918 96 95.962 96l135.915 0.001c21.726 0 42.982-6.031 61.466-17.405l118.097-72.675c9.463-5.824 15.228-16.14 15.228-27.253v-64c0-53.019-42.982-96-96-96h-10.667v-406.737c39.228-3.78 69.047-15.633 87.343-41.156 10.953-15.283 15.377-32.427 17.395-48.137 1.933-15.023 1.929-31.415 1.929-46.528v-1.442c0-17.673-14.327-32-32-32h-138.739v33.041c0.013 24.384 0.055 94.199-64 135.185v119.659c0 17.673-14.327 32-32 32-17.677 0-32-14.327-32-32v-96.691c-6.933 0.755-14.059 1.105-21.333 1.105-3.136 0-6.208-0.085-8.418-0.171-1.122-0.038-2.069-0.081-2.748-0.111l-1.050-0.055-0.115-0.004c-17.647-0.96-31.177-16.043-30.217-33.69s16.055-31.177 33.702-30.217l0.119 0.009 0.559 0.026 2.103 0.090c1.792 0.064 4.015 0.124 6.063 0.124 18.419 0 30.511-3.11 38.43-7.279 0.461-0.243 0.926-0.474 1.395-0.691 44.339-20.642 45.508-61.397 45.508-88.324v-32.004h-412.372c-90.329 0-163.555 73.225-163.555 163.554 0 59.652 31.953 111.808 79.524 140.343 15.156 9.088 34.812 4.173 43.902-10.982s4.173-34.812-10.982-43.904c-29.091-17.446-48.444-49.207-48.444-85.457 0-54.98 44.573-99.554 99.555-99.554 13.591 0 22.043 3.55 27.66 7.501 5.939 4.181 10.582 10.163 14.159 17.382 3.605 7.27 5.686 14.921 6.828 21.013 0.557 2.974 0.856 5.385 1.010 6.933 0.067 0.674 0.105 1.173 0.126 1.472l0.019 1.485c0.024 1.446 0.070 3.503 0.161 6.11 0.18 5.205 0.537 12.621 1.242 21.743 1.407 18.197 4.218 43.409 9.863 71.552 11.054 55.125 33.957 126.643 83.263 176.619 36.18 36.668 55.846 90.398 66.017 143.529 1.946 10.158 3.516 20.139 4.783 29.788z" />
<glyph unicode="&#xe00d;" glyph-name="app-folder" d="M778.667 832c64.801 0 117.333-52.532 117.333-117.333v-533.333c0-64.801-52.532-117.333-117.333-117.333h-533.333c-64.801 0-117.333 52.532-117.333 117.333v533.333c0 64.801 52.532 117.333 117.333 117.333h533.333zM778.667 768h-533.333c-29.455 0-53.333-23.878-53.333-53.333v-533.333c0-29.455 23.878-53.333 53.333-53.333h533.333c29.455 0 53.333 23.878 53.333 53.333v533.333c0 29.455-23.878 53.333-53.333 53.333zM416.081 426.667c41.237 0 74.667-33.429 74.667-74.667v-85.333c0-41.237-33.429-74.667-74.667-74.667h-85.333c-41.237 0-74.667 33.429-74.667 74.667v85.333c0 41.237 33.429 74.667 74.667 74.667h85.333zM693.306 426.667c41.237 0 74.667-33.429 74.667-74.667v-85.333c0-41.237-33.429-74.667-74.667-74.667h-85.333c-41.237 0-74.667 33.429-74.667 74.667v85.333c0 41.237 33.429 74.667 74.667 74.667h85.333zM416.027 704c41.237 0 74.667-33.429 74.667-74.667v-85.333c0-41.237-33.429-74.667-74.667-74.667h-85.333c-41.237 0-74.667 33.429-74.667 74.667v85.333c0 41.237 33.429 74.667 74.667 74.667h85.333zM693.252 704c41.237 0 74.667-33.429 74.667-74.667v-85.333c0-41.237-33.429-74.667-74.667-74.667h-85.333c-41.237 0-74.667 33.429-74.667 74.667v85.333c0 41.237 33.429 74.667 74.667 74.667h85.333z" />
<glyph unicode="&#xe00e;" glyph-name="app-generic" d="M757.333 832l7.869-0.22c70.368-3.933 126.696-60.26 130.63-130.578l0.22-7.869v-490.667l-0.219-7.868c-3.934-70.317-60.261-126.646-130.579-130.579l-7.869-0.22h-490.718c-73.943 0-134.368 57.877-138.447 130.799l-0.219 7.868v490.667c0 73.943 57.875 134.368 130.798 138.447l7.869 0.219h490.667zM810.667 618.667h-597.282l-0.051-416c0-27.614 20.986-50.325 47.88-53.056l5.453-0.277 496.171 0.277c25.101 2.549 45.056 22.503 47.605 47.603l0.275 5.453-0.051 416zM437.333 554.667c16.2 0 29.589-12.039 31.708-27.658l0.292-4.342v-298.667c0-16.2-12.039-29.589-27.658-31.708l-4.342-0.292h-149.333c-16.2 0-29.589 12.039-31.708 27.658l-0.292 4.342v298.667c0 16.2 12.039 29.589 27.658 31.708l4.342 0.292h149.333zM405.333 490.667h-85.333v-234.667h85.333v234.667zM693.333 426.539c17.673 0 32-14.327 32-32 0-16.2-12.039-29.589-27.658-31.708l-4.342-0.292h-149.145c-17.673 0-32 14.327-32 32 0 16.2 12.039 29.589 27.658 31.708l4.342 0.292h149.145zM736 554.667c17.673 0 32-14.327 32-32 0-16.2-12.039-29.589-27.658-31.708l-4.342-0.292h-191.812c-17.673 0-32 14.327-32 32 0 16.2 12.039 29.589 27.658 31.708l4.342 0.292h191.812z" />
<glyph unicode="&#xe00f;" glyph-name="app-recent" d="M768 117.333c0-50.81-39.474-92.401-89.427-95.779l-6.573-0.221h-320c-50.81 0-92.401 39.474-95.779 89.427l-0.221 6.573v661.333c0 50.81 39.474 92.401 89.427 95.779l6.573 0.221h320c50.81 0 92.401-39.474 95.779-89.427l0.221-6.573v-661.333zM810.667 746.667h32c50.81 0 92.401-39.474 95.779-89.427l0.221-6.573v-405.333c0-50.81-39.474-92.401-89.427-95.779l-6.573-0.221h-32v597.333zM213.333 149.333h-32c-50.81 0-92.401 39.474-95.779 89.427l-0.221 6.573v405.333c0 50.81 39.474 92.401 89.427 95.779l6.573 0.221h32v-597.333z" />
<glyph unicode="&#xe010;" glyph-name="approvals-app" d="M449.83 883.503c16.661 16.662 43.678 16.662 60.339 0l106.662-106.662c8-8.001 12.497-18.854 12.497-30.17s-4.497-22.169-12.497-30.17l-106.662-106.662c-16.661-16.662-43.678-16.662-60.339 0s-16.661 43.677 0 60.34l32.35 32.349c-150.949-14.964-268.847-142.312-268.847-297.197 0-164.949 133.718-298.667 298.667-298.667 152.273 0 277.986 113.993 296.354 261.278 2.914 23.386 24.235 39.979 47.616 37.060 23.386-2.914 39.979-24.235 37.060-47.616-23.625-189.47-185.178-336.055-381.030-336.055-212.077 0-384 171.921-384 384 0 202.872 157.322 369 356.621 383.039l-34.79 34.791c-16.661 16.663-16.661 43.677 0 60.34zM691.503 542.17c16.661-16.662 16.661-43.678 0-60.34l-192-192c-16.661-16.661-43.678-16.661-60.339 0l-85.334 85.333c-16.662 16.661-16.662 43.678 0 60.339s43.677 16.661 60.34 0l55.163-55.164 161.83 161.831c16.661 16.662 43.678 16.662 60.339 0z" />
<glyph unicode="&#xe011;" glyph-name="apps" d="M789.003 860.573l135.628-135.628c37.49-37.49 37.49-98.274 0-135.765l-103.4-103.365c43.329-13.56 74.769-54.016 74.769-101.816v-213.333c0-58.91-47.756-106.667-106.667-106.667h-554.667c-58.91 0-106.667 47.756-106.667 106.667v554.667c0 58.91 47.756 106.667 106.667 106.667h213.333c47.831 0 88.308-31.482 101.842-74.854l103.396 103.427c37.49 37.49 98.274 37.49 135.765 0zM469.333 405.333h-256v-234.667c0-11.782 9.551-21.333 21.333-21.333h234.667v256zM789.333 405.333h-234.667v-256h234.667c11.782 0 21.333 9.551 21.333 21.333v213.333c0 11.782-9.551 21.333-21.333 21.333zM616.107 490.696l-61.44 61.44v-61.469l61.44 0.029zM448 746.667h-213.333c-11.782 0-21.333-9.551-21.333-21.333v-234.667h256v234.667c0 11.782-9.551 21.333-21.333 21.333z" />
<glyph unicode="&#xe012;" glyph-name="apps-add-in" d="M448 832c58.91 0 106.667-47.756 106.667-106.667v-234.667h234.667c58.91 0 106.667-47.756 106.667-106.667v-213.333c0-58.91-47.756-106.667-106.667-106.667h-554.667c-58.91 0-106.667 47.756-106.667 106.667v554.667c0 58.91 47.756 106.667 106.667 106.667h213.333zM469.333 405.333h-256v-234.667c0-11.782 9.551-21.333 21.333-21.333h234.667v256zM789.333 405.333h-234.667v-256h234.667c11.782 0 21.333 9.551 21.333 21.333v213.333c0 11.782-9.551 21.333-21.333 21.333zM448 746.667h-213.333c-11.782 0-21.333-9.551-21.333-21.333v-234.667h256v234.667c0 11.782-9.551 21.333-21.333 21.333zM763.024 874.38l4.976 0.287c21.881 0 39.915-16.471 42.38-37.691l0.287-4.976v-85.333h85.333c21.881 0 39.915-16.471 42.38-37.691l0.287-4.976c0-21.881-16.471-39.915-37.691-42.38l-4.976-0.287h-85.333v-85.333c0-21.881-16.471-39.915-37.691-42.38l-4.976-0.287c-21.881 0-39.915 16.471-42.38 37.691l-0.287 4.976v85.333h-85.333c-21.881 0-39.915 16.471-42.38 37.691l-0.287 4.976c0 21.881 16.471 39.915 37.691 42.38l4.976 0.287h85.333v85.333c0 21.881 16.471 39.915 37.691 42.38v0z" />
<glyph unicode="&#xe013;" glyph-name="apps-list" d="M266.576 277.243c41.237 0 74.667-33.429 74.667-74.667v-106.576c0-41.237-33.429-74.667-74.667-74.667h-106.576c-41.237 0-74.667 33.429-74.667 74.667v106.576c0 41.237 33.429 74.667 74.667 74.667h106.576zM415.919 192h490.872c17.673 0 32-14.327 32-32 0-16.2-12.039-29.589-27.658-31.708l-4.342-0.292h-490.872c-17.673 0-32 14.327-32 32 0 16.2 12.039 29.589 27.658 31.708l4.342 0.292zM266.576 575.955c41.237 0 74.667-33.429 74.667-74.667v-106.576c0-41.237-33.429-74.667-74.667-74.667h-106.576c-41.237 0-74.667 33.429-74.667 74.667v106.576c0 41.237 33.429 74.667 74.667 74.667h106.576zM415.919 490.667h490.872c17.673 0 32-14.327 32-32 0-16.2-12.039-29.589-27.658-31.708l-4.342-0.292h-490.872c-17.673 0-32 14.327-32 32 0 16.2 12.039 29.589 27.658 31.708l4.342 0.292zM266.576 874.667c41.237 0 74.667-33.429 74.667-74.667v-106.576c0-41.237-33.429-74.667-74.667-74.667h-106.576c-41.237 0-74.667 33.429-74.667 74.667v106.576c0 41.237 33.429 74.667 74.667 74.667h106.576zM415.919 789.333h490.872c17.673 0 32-14.327 32-32 0-16.2-12.039-29.589-27.658-31.708l-4.342-0.292h-490.872c-17.673 0-32 14.327-32 32 0 16.2 12.039 29.589 27.658 31.708l4.342 0.292z" />
<glyph unicode="&#xe014;" glyph-name="app-span" d="M672 874.667c50.81 0 92.401-39.474 95.779-89.427l0.221-6.573-0.010-150.063c-22.495 3.237-46.183-3.798-63.489-21.104-19.695-19.695-26.238-47.919-18.19-74.314l2.317-6.555 1.804-3.92-65.089-0.008c-36.139 0.005-64.188-27.695-69.693-62.226l-0.734-6.16-0.249-6.277c0-34.083 21.921-64.557 56.881-72.943l6.706-1.309 7.076-0.419 64.633 0.008-0.72-1.435c-8.883-19.99-8.488-43.435 1.994-64.519l3.868-6.933 4.171-6.111 5.225-5.878c17.023-17.023 40.417-24.221 63.499-20.664v-150.504c0-50.81-39.474-92.401-89.427-95.779l-6.573-0.221h-320c-50.81 0-92.401 39.474-95.779 89.427l-0.221 6.573-0.039 150.545c23.092-3.572 46.504 3.624 63.538 20.657l5.225 5.878 4.171 6.111c14.147 22.765 15.732 49.241 5.862 71.452l-0.72 1.442 64.633-0.015 7.076 0.419c38.84 5.899 63.587 38.038 63.587 74.252l-0.249 6.277c-2.967 37.337-32.163 68.391-70.428 68.386l-65.089 0.015 1.804 3.913c11.364 28.187 5.463 59.533-15.873 80.869-17.318 17.318-41.028 24.351-63.538 21.098l0.039 150.035c0 50.81 39.474 92.401 89.427 95.779l6.573 0.221h320zM289.329 577.364c11.361-11.361 12.393-29.138 3.098-41.666l-3.098-3.589-52.102-52.039h161.436c15.464 0.002 28.004-14.323 28.004-31.996 0-16.2-10.53-29.59-24.197-31.711l-3.799-0.293h-161.444l52.102-52.109c11.361-11.361 12.393-29.138 3.098-41.666l-3.098-3.589c-11.361-11.361-29.138-12.393-41.666-3.098l-3.589 3.098-101.11 101.001c-8.898 5.358-14.964 16.031-14.964 28.324 0 12.289 6.059 22.96 14.95 28.323l101.124 101.010c12.497 12.497 32.758 12.497 45.255 0zM734.671 577.489c11.361 11.361 29.138 12.393 41.666 3.098l3.589-3.098 101.124-101.010c8.891-5.363 14.95-16.034 14.95-28.323 0-10.756-4.645-20.272-11.767-26.073l-3.198-2.251-101.11-101.001-3.589-3.098c-11.135-8.262-26.419-8.364-37.657-0.306l-4.009 3.404-3.098 3.589c-8.262 11.135-8.364 26.419-0.306 37.657l3.404 4.009 52.102 52.109h-161.444l-3.799 0.293c-13.667 2.121-24.197 15.511-24.197 31.711s10.537 29.587 24.204 31.704l3.8 0.292h161.436l-52.102 52.039-3.098 3.589c-9.295 12.527-8.262 30.305 3.098 41.666z" />
<glyph unicode="&#xe015;" glyph-name="app-store" d="M757.333 832c76.583 0 138.667-62.083 138.667-138.667v-490.667c0-76.583-62.083-138.667-138.667-138.667h-490.667c-76.583 0-138.667 62.083-138.667 138.667v490.667c0 76.583 62.083 138.667 138.667 138.667h490.667zM399.73 309.158h-74.155l-2.836-4.931-1.938-3.897c-6.049-14.555-0.561-31.704 13.427-39.877 13.989-8.171 31.622-4.53 41.331 7.888l2.443 3.602 21.729 37.215zM567.15 532.306l-37.163-63.659 113.41-196.596 2.423-3.615c9.641-12.47 27.254-16.207 41.286-8.111s19.613 25.214 13.643 39.802l-1.917 3.907-21.432 37.125 37.347-0.037 4.342 0.292c14.199 1.926 25.439 13.166 27.366 27.366l0.292 4.342-0.292 4.342c-1.926 14.199-13.166 25.439-27.366 27.366l-4.342 0.292-74.254 0.037-73.344 127.147zM565.893 657.005c-13.988 8.172-31.621 4.53-41.33-7.887l-2.443-3.602-10.268-17.459-9.947 17.309-2.423 3.615c-8.677 11.223-23.811 15.372-36.981 10.188l-4.306-2.077-3.615-2.423c-11.223-8.677-15.372-23.811-10.188-36.981l2.077-4.306 28.263-48.942-93.055-159.317-72.277-0.001-4.342-0.292c-15.619-2.119-27.658-15.508-27.658-31.708s12.039-29.589 27.658-31.708l4.342-0.292 257.17 0.006-36.907 64-73.874 0.037 121.592 208.066 1.938 3.897c6.049 14.555 0.561 31.704-13.427 39.876z" />
<glyph unicode="&#xe016;" glyph-name="app-title" d="M202.667 85.333h618.667c17.673 0 32-14.327 32-32 0-16.2-12.039-29.589-27.658-31.708l-4.342-0.292h-618.667c-17.673 0-32 14.327-32 32 0 16.2 12.039 29.589 27.658 31.708l4.342 0.292zM693.333 832c88.366 0 160-71.634 160-160v-362.667c0-88.366-71.634-160-160-160h-362.667c-88.366 0-160 71.634-160 160v362.667c0 88.366 71.634 160 160 160h362.667z" />
<glyph unicode="&#xe017;" glyph-name="app-unspan" d="M672 874.667c50.81 0 92.401-39.474 95.779-89.427l0.221-6.573 0.043-156.484c-27.721 13.148-61.868 8.254-84.805-14.683l-92.992-94.645c-22.208-13.395-35.579-38.214-35.579-64.858l0.276-6.621c1.65-19.715 10.619-37.95 24.986-50.651l4.946-3.994 98.379-98.246 5.861-5.209c24.472-18.269 54.424-20.901 78.908-9.418l-0.024-156.524c0-50.81-39.474-92.401-89.427-95.779l-6.573-0.221h-320c-50.81 0-92.401 39.474-95.779 89.427l-0.221 6.573-0.004 157.066c25.102-12.037 54.133-9.601 76.431 6.944l6.046 5.066 100.609 100.364 4.988 3.986c15.964 14.112 25.262 35.056 25.262 57.272l-0.276 6.617c-1.648 19.705-10.605 37.933-24.957 50.635l-4.805 3.858-98.551 98.41c-22.916 22.916-57.046 27.812-84.761 14.679l0.016 156.436c0 50.81 39.474 92.401 89.427 95.779l6.573 0.221h320zM758.662 577.329c11.361-11.361 12.393-29.138 3.098-41.666l-3.098-3.589-52.102-52.039h161.436c15.464 0.002 28.004-14.323 28.004-31.996 0-16.2-10.53-29.59-24.197-31.711l-3.799-0.293h-161.444l52.102-52.109c11.361-11.361 12.393-29.138 3.098-41.666l-3.098-3.589c-11.361-11.361-29.138-12.393-41.666-3.098l-3.589 3.098-101.11 101.001c-8.898 5.358-14.964 16.031-14.964 28.324 0 12.289 6.059 22.96 14.95 28.323l101.124 101.010c12.497 12.497 32.758 12.497 45.255 0zM307.003 580.462l3.589-3.098 101.124-101.010c8.891-5.363 14.95-16.034 14.95-28.323 0-10.756-4.645-20.272-11.767-26.073l-3.198-2.251-101.11-101.001-3.589-3.098c-11.135-8.262-26.419-8.364-37.657-0.306l-4.009 3.404-3.098 3.589c-8.262 11.135-8.364 26.419-0.306 37.657l3.404 4.009 52.102 52.109h-161.444l-3.799 0.293c-13.667 2.121-24.197 15.511-24.197 31.711s10.537 29.587 24.204 31.704l3.8 0.292h161.436l-52.102 52.039-3.098 3.589c-9.295 12.527-8.262 30.305 3.098 41.666s29.138 12.393 41.666 3.098z" />
<glyph unicode="&#xe018;" glyph-name="archive" d="M853.333 618.667v-490.667c0-58.91-47.756-106.667-106.667-106.667h-469.333c-58.91 0-106.667 47.756-106.667 106.667v490.667h682.667zM597.333 469.333h-170.667c-17.673 0-32-14.327-32-32s14.327-32 32-32h170.667c17.673 0 32 14.327 32 32s-14.327 32-32 32zM853.333 832c23.564 0 42.667-19.103 42.667-42.667v-85.333c0-23.564-19.103-42.667-42.667-42.667h-682.667c-23.564 0-42.667 19.103-42.667 42.667v85.333c0 23.564 19.103 42.667 42.667 42.667h682.667z" />
<glyph unicode="&#xe019;" glyph-name="arrow-clockwise" d="M824.561 789.625v-146.942c0-22.954-18.608-41.561-41.561-41.561h-146.942c-22.954 0-41.561 18.608-41.561 41.561s18.608 41.561 41.561 41.561l34.16 0.043c-111.738 66.837-258.658 52.128-354.912-44.126-113.615-113.615-113.615-297.822 0-411.437s297.822-113.615 411.437 0c69.15 69.15 98.097 166.783 79.933 261.060-4.342 22.539 10.409 44.331 32.948 48.674s44.331-10.409 48.674-32.948c23.328-121.084-13.914-246.698-102.778-335.562-146.077-146.077-382.914-146.077-528.991 0s-146.077 382.914 0 528.991c132.154 132.154 338.593 144.75 484.907 37.787l0.001 52.899c0 22.954 18.608 41.561 41.561 41.561s41.561-18.608 41.561-41.561z" />
<glyph unicode="&#xe01a;" glyph-name="arrow-counterclockwise" d="M217.513 789.625v-146.942c0-22.954 18.608-41.561 41.561-41.561h146.942c22.954 0 41.561 18.608 41.561 41.561s-18.608 41.561-41.561 41.561l-34.16 0.043c111.738 66.837 258.658 52.128 354.912-44.126 113.615-113.615 113.615-297.822 0-411.437s-297.822-113.615-411.437 0c-69.15 69.15-98.097 166.783-79.933 261.060 4.342 22.539-10.409 44.331-32.948 48.674s-44.331-10.409-48.674-32.948c-23.328-121.084 13.914-246.698 102.778-335.562 146.077-146.077 382.914-146.077 528.991 0s146.077 382.914 0 528.991c-132.154 132.154-338.593 144.75-484.907 37.787l-0.001 52.899c0 22.954-18.608 41.561-41.561 41.561s-41.561-18.608-41.561-41.561z" />
<glyph unicode="&#xe01b;" glyph-name="arrow-curve-right" d="M448 704h234.667c23.565 0 42.667 19.103 42.667 42.667s-19.102 42.667-42.667 42.667h-234.667c-153.167 0-277.333-124.166-277.333-277.333 0-153.169 124.166-277.333 277.333-277.333h219.311l-82.47-82.47c-16.661-16.661-16.661-43.678 0-60.339s43.678-16.661 60.339 0l150.562 150.562c3.908 3.908 6.903 8.388 8.977 13.171 3.78 6.366 5.948 13.803 5.948 21.743 0 12.361-5.257 23.492-13.653 31.283-0.38 0.41-0.768 0.815-1.169 1.216l-150.66 150.66c-16.661 16.661-43.678 16.661-60.339 0s-16.661-43.678 0-60.339l80.154-80.154h-216.998c-106.039 0-192 85.961-192 192s85.961 192 192 192z" />
<glyph unicode="&#xe01c;" glyph-name="arrow-down" d="M841.216 375.275c16.538 16.785 16.337 43.797-0.448 60.339-16.785 16.538-43.797 16.337-60.339-0.448l-225.762-229.133v583.3c0 23.564-19.102 42.667-42.667 42.667s-42.667-19.103-42.667-42.667v-583.023l-225.491 228.855c-16.538 16.785-43.553 16.986-60.338 0.448-16.785-16.542-16.985-43.554-0.447-60.339l291.089-295.433c20.89-21.201 55.091-21.201 75.981 0l291.089 295.433z" />
<glyph unicode="&#xe01d;" glyph-name="arrow-down-left" d="M213.291 209.729l609.799 609.712c16.663 16.662 43.678 16.661 60.34-0.001 15.38-15.381 16.563-39.583 3.548-56.32l-3.549-4.019-609.807-609.744 217.068-0.023c21.881 0 39.915-16.471 42.38-37.691l0.287-4.976c0-21.881-16.471-39.915-37.691-42.38l-4.976-0.287-322.6 0.075-4.078 0.435-3.27 0.642-3.306 0.929-2.945 1.076-3.844 1.801-3.821 2.291-3.903 2.965 1.387-1.135c-2.637 2.069-5.025 4.442-7.11 7.067l-2.181 3.003-1.654 2.708-1.408 2.752-1.442 3.476-1.072 3.395-1.003 4.77-0.314 2.612-0.169 3.807v320.166c0 23.564 19.103 42.667 42.667 42.667 21.881 0 39.915-16.471 42.38-37.691l0.287-4.976v-217.103z" />
<glyph unicode="&#xe01e;" glyph-name="arrow-download" d="M224 85.333h575.901c17.673 0 32-14.327 32-32 0-16.2-12.039-29.589-27.658-31.708l-4.342-0.292h-575.901c-17.673 0-32 14.327-32 32 0 16.2 12.039 29.589 27.658 31.708l4.342 0.292zM507.024 874.567l4.976 0.287c21.881 0 39.915-16.471 42.38-37.691l0.287-4.976v-537.173l140.546 140.492c15.382 15.379 39.584 16.56 56.321 3.544l4.019-3.55c15.379-15.382 16.56-39.584 3.544-56.321l-3.55-4.019-213.233-213.189c-15.374-15.371-39.559-16.56-56.296-3.562l-4.020 3.545-213.48 213.189c-16.674 16.651-16.692 43.666-0.041 60.34 15.37 15.391 39.571 16.591 56.318 3.588l4.022-3.547 140.517-140.296v536.96c0 21.881 16.471 39.915 37.691 42.38v0z" />
<glyph unicode="&#xe01f;" glyph-name="arrow-down-right-circle" d="M512 874.667c235.639 0 426.667-191.025 426.667-426.667 0-235.639-191.027-426.667-426.667-426.667-235.642 0-426.667 191.027-426.667 426.667 0 235.642 191.025 426.667 426.667 426.667zM650.667 618.667c-17.673 0-32-14.327-32-32v-197.922l-222.816 220.66c-12.557 12.436-32.818 12.337-45.254-0.221s-12.337-32.818 0.221-45.254l224.774-222.596h-202.257c-17.673 0-32-14.328-32-32s14.327-32 32-32h277.333c17.673 0 32 14.327 32 32v277.333c0 17.673-14.327 32-32 32z" />
<glyph unicode="&#xe020;" glyph-name="arrow-down-square" d="M234.667 832c-58.91 0-106.667-47.756-106.667-106.667v-554.667c0-58.91 47.756-106.667 106.667-106.667h554.667c58.91 0 106.667 47.757 106.667 106.667v554.667c0 58.91-47.757 106.667-106.667 106.667h-554.667zM705.293 459.93c11.362-11.358 12.395-29.137 3.098-41.664l-3.098-3.588-170.701-170.705c-11.362-11.362-29.141-12.39-41.668-3.093l-3.593 3.098-170.665 170.735c-12.495 12.497-12.491 32.759 0.009 45.252 11.363 11.358 29.14 12.39 41.666 3.093l3.589-3.102 116.083-116.134-0.013 285.513c0 16.201 12.041 29.589 27.657 31.708l4.343 0.292c16.201 0 29.589-12.038 31.71-27.658l0.29-4.342 0.013-285.427 116.028 116.023c11.358 11.362 29.137 12.395 41.664 3.098l3.588-3.098z" />
<glyph unicode="&#xe021;" glyph-name="arrow-enter" d="M896 789.333c21.881 0 39.915-16.471 42.38-37.691l0.287-4.976v-277.333c0-79.725-62.476-144.859-141.14-149.112l-8.194-0.221h-558.293l140.463-140.497c15.381-15.381 16.564-39.583 3.549-56.32l-3.549-4.020c-15.381-15.381-39.583-16.564-56.32-3.549l-4.020 3.549-213.333 213.333c-1.51 1.51-2.883 3.105-4.12 4.77l-3.058 4.746-2.28 4.81-1.51 4.495-1.059 5.014-0.3 2.503-0.17 3.832 0.119 3.21 0.745 5.354 1.259 4.754 1.875 4.739 2.232 4.159 2.718 3.933 3.549 4.020 213.333 213.333c16.662 16.662 43.677 16.662 60.34 0 15.381-15.381 16.564-39.583 3.549-56.32l-3.549-4.020-140.463-140.497h558.293c33.267 0 60.606 25.382 63.707 57.836l0.293 6.164v277.333c0 23.564 19.103 42.667 42.667 42.667z" />
<glyph unicode="&#xe022;" glyph-name="arrow-expand" d="M327.199 323.29c16.662 16.662 43.677 16.662 60.34 0s16.662-43.677 0-60.34v0l-113.832-113.797h67.627c21.881 0 39.915-16.471 42.38-37.691l0.287-4.976c0-23.564-19.103-42.667-42.667-42.667v0h-170.667c-23.564 0-42.667 19.103-42.667 42.667v0 170.667c0 23.564 19.103 42.667 42.667 42.667s42.667-19.103 42.667-42.667v0-67.712l113.866 113.848zM682.88 63.82c-23.564 0-42.667 19.103-42.667 42.667s19.103 42.667 42.667 42.667v0h67.541l-113.724 113.808c-15.375 15.387-16.548 39.589-3.527 56.322l3.551 4.018c16.669 16.656 43.684 16.645 60.34-0.024v0l113.819-113.922v67.797c0 21.881 16.471 39.915 37.691 42.38l4.976 0.287c23.564 0 42.667-19.103 42.667-42.667v0-170.667c0-23.564-19.103-42.667-42.667-42.667v0h-170.667zM341.333 832c23.564 0 42.667-19.103 42.667-42.667s-19.103-42.667-42.667-42.667v0h-67.541l113.723-113.842c15.375-15.387 16.548-39.589 3.527-56.322l-3.551-4.018c-16.669-16.656-43.684-16.645-60.34 0.024v0l-113.818 113.913v-67.755c0-21.881-16.471-39.915-37.691-42.38l-4.976-0.287c-23.564 0-42.667 19.103-42.667 42.667v0 170.667c0 23.564 19.103 42.667 42.667 42.667v0h170.667zM853.547 832c23.564 0 42.667-19.103 42.667-42.667v0-170.667c0-23.564-19.103-42.667-42.667-42.667s-42.667 19.103-42.667 42.667v0 67.755l-113.824-113.918c-15.378-15.384-39.579-16.572-56.32-3.561l-4.020 3.549c-16.666 16.659-16.671 43.674-0.012 60.34v0l113.76 113.836h-67.584c-21.881 0-39.915 16.471-42.38 37.691l-0.287 4.976c0 23.564 19.103 42.667 42.667 42.667v0h170.667z" />
<glyph unicode="&#xe023;" glyph-name="arrow-export" d="M140.8 768c21.208 0 38.4-17.192 38.4-38.4v-563.2c0-21.207-17.192-38.4-38.4-38.4s-38.4 17.193-38.4 38.4v563.2c0 21.208 17.192 38.4 38.4 38.4zM731.151 679.953l206.433-206.538c2.58-2.913 4.639-6.125 6.18-9.514 2.207-4.845 3.436-10.23 3.436-15.901 0-5.745-1.265-11.197-3.523-16.092-1.5-3.251-3.476-6.333-5.934-9.144l-1.981-2.104-204.611-204.611c-14.996-14.996-39.306-14.996-54.303 0s-14.996 39.306 0 54.303l139.244 139.249h-521.692c-21.208 0-38.4 17.193-38.4 38.4s17.192 38.4 38.4 38.4h521.692l-139.244 139.247c-14.996 14.996-14.996 39.31 0 54.306s39.306 14.996 54.303 0z" />
<glyph unicode="&#xe024;" glyph-name="arrow-forward" d="M606.283 687.487l3.55 4.019c15.382 15.379 39.584 16.56 56.321 3.544l4.019-3.55 213.189-213.233c15.371-15.374 16.56-39.559 3.562-56.296l-3.545-4.020-213.189-213.48c-16.651-16.674-43.666-16.692-60.34-0.041-15.391 15.37-16.591 39.571-3.588 56.318l3.547 4.022 140.313 140.564h-579.456c-21.881 0-39.915 16.471-42.38 37.691l-0.287 4.976c0 21.881 16.471 39.915 37.691 42.38l4.976 0.287h579.584l-140.424 140.5c-15.379 15.382-16.56 39.584-3.544 56.321v0z" />
<glyph unicode="&#xe025;" glyph-name="arrow-import" d="M906.667 768c16.2 0 29.589-12.039 31.708-27.658l0.292-4.342v-576c0-17.673-14.327-32-32-32-16.2 0-29.589 12.039-31.708 27.658l-0.292 4.342v576c0 17.673 14.327 32 32 32zM520.95 687.487l3.55 4.019c15.382 15.379 39.584 16.56 56.321 3.544l4.019-3.55 213.189-213.233c15.371-15.374 16.56-39.559 3.562-56.296l-3.545-4.020-213.189-213.48c-16.651-16.674-43.666-16.692-60.34-0.041-15.391 15.37-16.591 39.571-3.588 56.318l3.547 4.022 140.313 140.564h-536.789c-21.881 0-39.915 16.471-42.38 37.691l-0.287 4.976c0 21.881 16.471 39.915 37.691 42.38l4.976 0.287h536.917l-140.424 140.5c-15.379 15.382-16.56 39.584-3.544 56.321v0z" />
<glyph unicode="&#xe026;" glyph-name="arrow-left" d="M439.275 118.784c16.785-16.542 43.797-16.341 60.335 0.444 16.542 16.785 16.341 43.802-0.444 60.339l-229.137 225.766h583.304c23.565 0 42.667 19.102 42.667 42.667s-19.102 42.667-42.667 42.667h-583.022l228.855 225.489c16.785 16.538 16.986 43.553 0.444 60.338-16.538 16.785-43.55 16.985-60.335 0.447l-295.434-291.087c-21.201-20.894-21.201-55.091 0-75.985l295.434-291.085z" />
<glyph unicode="&#xe027;" glyph-name="arrow-maximize" d="M533.194 831.937l322.379-0.062 5.159-0.593 3.741-0.834 4.433-1.471 3.804-1.721 2.72-1.52 2.67-1.772 2.73-2.129 2.692-2.489 4.028-4.678 3.058-4.747 2.28-4.81 1.509-4.495 0.669-2.781 0.39-2.234 0.47-6.334v-320.166c0-23.564-19.103-42.667-42.667-42.667-21.881 0-39.915 16.471-42.38 37.691l-0.287 4.976-0.011 217.169-536.96-536.917 217.068-0.023c21.881 0 39.915-16.471 42.38-37.691l0.287-4.976c0-21.881-16.471-39.915-37.691-42.38l-4.976-0.287-322.6 0.075-4.078 0.435-3.27 0.642-3.306 0.929-2.945 1.076-3.844 1.801-3.821 2.291-3.903 2.965 1.387-1.135c-2.637 2.069-5.025 4.442-7.11 7.067l-2.181 3.003-1.654 2.708-1.408 2.752-1.442 3.476-1.072 3.395-1.003 4.77-0.314 2.612-0.169 3.807v320.166c0 23.564 19.103 42.667 42.667 42.667 21.881 0 39.915-16.471 42.38-37.691l0.287-4.976v-217.103l536.917 536.875h-217.014c-21.881 0-39.915 16.471-42.38 37.691l-0.287 4.976c0 23.564 19.103 42.667 42.667 42.667z" />
<glyph unicode="&#xe028;" glyph-name="arrow-maximize-vertical" d="M588.497 695.163c16.661-16.662 43.678-16.662 60.339 0s16.661 43.677 0 60.34l-106.667 106.667c-16.661 16.662-43.678 16.662-60.339 0l-106.667-106.667c-16.662-16.663-16.662-43.677 0-60.34s43.677-16.662 60.34 0l33.83 33.83v-110.327c0-23.564 19.102-42.667 42.667-42.667s42.667 19.103 42.667 42.667v110.327l33.83-33.83zM588.497 200.836c16.661 16.661 43.678 16.661 60.339 0s16.661-43.678 0-60.339l-106.667-106.667c-16.661-16.661-43.678-16.661-60.339 0l-106.667 106.667c-16.662 16.661-16.662 43.678 0 60.339s43.677 16.661 60.34 0l33.83-33.83v110.327c0 23.565 19.102 42.667 42.667 42.667s42.667-19.102 42.667-42.667v-110.327l33.83 33.83zM256 490.667c-23.564 0-42.667-19.102-42.667-42.667s19.103-42.667 42.667-42.667h512c23.565 0 42.667 19.102 42.667 42.667s-19.102 42.667-42.667 42.667h-512z" />
<glyph unicode="&#xe029;" glyph-name="arrow-minimize" d="M447.919 426.469c21.881 0 39.915-16.471 42.38-37.691l0.287-4.976v-320.166c0-23.564-19.103-42.667-42.667-42.667-21.881 0-39.915 16.471-42.38 37.691l-0.287 4.976-0.022 217.306-247.060-247.112c-15.381-15.381-39.583-16.564-56.32-3.549l-4.020 3.549c-15.381 15.381-16.564 39.583-3.549 56.32l3.549 4.020 246.941 246.975-216.917-0.009c-23.564 0-42.667 19.103-42.667 42.667 0 21.881 16.471 39.915 37.691 42.38l4.976 0.287h320.065zM575.961 874.692c21.881 0 39.915-16.471 42.38-37.691l0.287-4.976-0.022-217.045 247.224 247.19c15.381 15.381 39.583 16.564 56.32 3.549l4.020-3.549c15.381-15.381 16.564-39.583 3.549-56.32l-3.549-4.020-247.319-247.266 217.175-0.038c23.564 0 42.667-19.103 42.667-42.667 0-21.881-16.471-39.915-37.691-42.38l-4.976-0.287h-320.065c-21.881 0-39.915 16.471-42.38 37.691l-0.287 4.976v320.166c0 23.564 19.103 42.667 42.667 42.667z" />
<glyph unicode="&#xe02a;" glyph-name="arrow-minimize-vertical" d="M588.497 755.503c16.661 16.662 43.678 16.662 60.339 0s16.661-43.677 0-60.34l-106.667-106.667c-16.661-16.662-43.678-16.662-60.339 0l-106.667 106.667c-16.662 16.663-16.662 43.677 0 60.34s43.677 16.662 60.34 0l33.83-33.83v110.327c0 23.564 19.102 42.667 42.667 42.667s42.667-19.103 42.667-42.667v-110.327l33.83 33.83zM588.497 140.497c16.661-16.661 43.678-16.661 60.339 0s16.661 43.678 0 60.339l-106.667 106.667c-16.661 16.661-43.678 16.661-60.339 0l-106.667-106.667c-16.662-16.661-16.662-43.678 0-60.339s43.677-16.661 60.34 0l33.83 33.83v-110.327c0-23.565 19.102-42.667 42.667-42.667s42.667 19.102 42.667 42.667v110.327l33.83-33.83zM256 490.667c-23.564 0-42.667-19.102-42.667-42.667s19.103-42.667 42.667-42.667h512c23.565 0 42.667 19.102 42.667 42.667s-19.102 42.667-42.667 42.667h-512z" />
<glyph unicode="&#xe02b;" glyph-name="arrow-move" d="M659.503 684.497c-16.661-16.662-43.678-16.662-60.339 0l-44.497 44.497v-120.994c0-23.564-19.102-42.667-42.667-42.667s-42.667 19.103-42.667 42.667v120.994l-44.497-44.497c-16.663-16.662-43.677-16.662-60.34 0s-16.662 43.677 0 60.34l117.334 117.333c8 8.001 18.854 12.497 30.17 12.497s22.17-4.495 30.17-12.497l117.333-117.333c16.661-16.663 16.661-43.677 0-60.34zM275.503 360.836c16.662-16.661 16.662-43.678 0-60.339s-43.677-16.661-60.34 0l-117.333 117.333c-8.001 8-12.497 18.854-12.497 30.17s4.495 22.17 12.497 30.17l117.333 117.334c16.663 16.662 43.677 16.662 60.34 0s16.662-43.677 0-60.34l-44.497-44.497h120.994c23.564 0 42.667-19.102 42.667-42.667s-19.103-42.667-42.667-42.667h-120.994l44.497-44.497zM808.836 300.497c-16.661-16.661-43.678-16.661-60.339 0s-16.661 43.678 0 60.339l44.497 44.497h-120.994c-23.565 0-42.667 19.102-42.667 42.667s19.102 42.667 42.667 42.667h120.994l-44.497 44.497c-16.661 16.663-16.661 43.677 0 60.34s43.678 16.662 60.339 0l117.333-117.334c8-8 12.497-18.854 12.497-30.17s-4.497-22.17-12.497-30.17l-117.333-117.333zM469.333 167.006v120.994c0 23.565 19.102 42.667 42.667 42.667s42.667-19.102 42.667-42.667v-120.994l44.497 44.497c16.661 16.661 43.678 16.661 60.339 0s16.661-43.678 0-60.339l-117.333-117.333c-8-8-18.854-12.497-30.17-12.497s-22.17 4.497-30.17 12.497l-117.334 117.333c-16.662 16.661-16.662 43.678 0 60.339s43.677 16.661 60.34 0l44.497-44.497z" />
<glyph unicode="&#xe02c;" glyph-name="arrow-next" d="M768 832c21.881 0 39.915-16.471 42.38-37.691l0.287-4.976v-682.667c0-23.564-19.103-42.667-42.667-42.667-21.881 0-39.915 16.471-42.38 37.691l-0.287 4.976v682.667c0 23.564 19.103 42.667 42.667 42.667zM225.83 819.503c15.381 15.381 39.583 16.564 56.32 3.549l4.020-3.549 341.333-341.333c15.381-15.381 16.564-39.583 3.549-56.32l-3.549-4.020-341.333-341.333c-16.662-16.662-43.677-16.662-60.34 0-15.381 15.381-16.564 39.583-3.549 56.32l3.549 4.020 311.163 311.163-311.163 311.163c-16.662 16.662-16.662 43.677 0 60.34z" />
<glyph unicode="&#xe02d;" glyph-name="arrow-previous" d="M256 832c-21.881 0-39.915-16.471-42.38-37.691l-0.287-4.976v-682.667c0-23.564 19.103-42.667 42.667-42.667 21.881 0 39.915 16.471 42.38 37.691l0.287 4.976v682.667c0 23.564-19.103 42.667-42.667 42.667zM798.17 819.503c-15.381 15.381-39.583 16.564-56.32 3.549l-4.020-3.549-341.333-341.333c-15.381-15.381-16.564-39.583-3.549-56.32l3.549-4.020 341.333-341.333c16.662-16.662 43.677-16.662 60.34 0 15.381 15.381 16.564 39.583 3.549 56.32l-3.549 4.020-311.163 311.163 311.163 311.163c16.662 16.662 16.662 43.677 0 60.34z" />
<glyph unicode="&#xe02e;" glyph-name="arrow-redo" d="M768 636.311l-155.353 155.097c-110.985 110.985-290.928 110.985-401.914 0s-110.985-290.928 0-401.914l355.775-355.711c16.665-16.66 43.677-16.652 60.34 0.010s16.655 43.68-0.010 60.34l-355.765 355.701c-77.661 77.661-77.661 203.573 0 281.234 75.234 75.234 195.751 77.585 273.833 7.035l7.421-7.055 155.299-155.025-195.627-0.023c-21.881 0-39.915-16.471-42.38-37.691l-0.287-4.976c0-21.881 16.471-39.915 37.691-42.38l4.976-0.287h298.667c21.881 0 39.915 16.471 42.38 37.691l0.287 4.976v298.547c0 23.564-19.103 42.667-42.667 42.667-21.881 0-39.915-16.471-42.38-37.691l-0.287-4.976v-195.569z" />
<glyph unicode="&#xe02f;" glyph-name="arrow-repeat-all" d="M853.333 632.389c13.617 0 25.743-6.374 33.555-16.299l0.015 0.148c32.664-47.847 51.763-105.681 51.763-167.971 0-161.381-128.19-292.843-288.367-298.251l-10.267-0.173-238.754 0.027 55.624-55.595 3.315-3.719c13.262-16.736 12.157-41.117-3.315-56.579-15.381-15.37-39.583-16.552-56.32-3.547l-4.020 3.547-128.222 128.132-3.315 3.719c-12.157 15.341-12.241 37.107-0.253 52.537l3.569 4.042 128.222 128.132 3.721 3.313c15.352 12.148 37.133 12.233 52.574 0.253l4.044-3.566 3.315-3.719c12.157-15.341 12.241-37.107 0.253-52.537l-3.569-4.042-55.197-55.098 238.327-0.027c117.802 0 213.3 95.431 213.3 213.15 0 43.445-13.007 83.853-35.341 117.55-4.608 6.806-7.326 15.054-7.326 23.936 0 23.548 19.103 42.637 42.667 42.637zM624.004 865.647l3.721-3.313 128.222-128.132c15.472-15.461 16.577-39.843 3.315-56.579l-3.315-3.719-128.222-128.132c-16.662-16.651-43.677-16.651-60.34 0-15.472 15.461-16.577 39.843-3.315 56.579l3.315 3.719 55.335 55.355-238.754-0.009c-117.802 0-213.3-95.431-213.3-213.15 0-39.166 10.571-75.864 29.017-107.402l5.767-9.304c4.952-6.932 7.883-15.471 7.883-24.693 0-23.548-19.103-42.637-42.667-42.637-14.251 0-26.87 6.982-34.618 17.709-32.013 47.409-50.715 104.686-50.715 166.327 0 161.381 128.19 292.843 288.367 298.251l10.267 0.173 238.839 0.009-55.42 55.338c-15.472 15.461-16.577 39.843-3.315 56.579l3.315 3.719c15.472 15.461 39.871 16.566 56.618 3.313z" />
<glyph unicode="&#xe030;" glyph-name="arrow-repeat-all-off" d="M154.15 865.719l4.020-3.549 768-768c16.662-16.662 16.662-43.677 0-60.34-15.381-15.381-39.583-16.564-56.32-3.549l-4.020 3.549-130.901 130.896c-25.554-8.558-52.648-13.754-80.758-15.064l-14.137-0.329-238.754 0.027 55.624-55.634 3.315-3.721c13.262-16.747 12.157-41.146-3.315-56.618-15.381-15.381-39.583-16.564-56.32-3.549l-4.020 3.549-128.222 128.222-3.315 3.721c-12.157 15.352-12.241 37.133-0.253 52.574l3.569 4.044 128.222 128.222 3.721 3.315c15.352 12.157 37.133 12.241 52.574 0.253l4.044-3.569 3.315-3.721c12.157-15.352 12.241-37.133 0.253-52.574l-3.569-4.044-55.197-55.137 238.327-0.027c7.984 0 15.866 0.439 23.622 1.293l-392.807 392.875c-60.172-37.712-100.182-104.617-100.182-180.868 0-39.193 10.571-75.917 29.017-107.477l5.767-9.31c4.952-6.937 7.883-15.482 7.883-24.711 0-23.564-19.103-42.667-42.667-42.667-14.251 0-26.87 6.986-34.618 17.721-32.013 47.443-50.715 104.759-50.715 166.443 0 99.758 48.914 188.091 124.066 242.324l-111.569 111.539c-16.662 16.662-16.662 43.677 0 60.34 15.381 15.381 39.583 16.564 56.32 3.549zM853.333 632.219c13.617 0 25.743-6.379 33.555-16.311l2.285-3.2 0.72-1.149c30.839-46.972 48.773-103.188 48.773-163.593 0-84.355-34.975-160.541-91.215-214.848l-60.379 60.328c40.819 38.855 66.261 93.716 66.261 154.52 0 39.506-10.74 76.503-29.46 108.232l-5.853 9.358c-4.625 6.819-7.354 15.089-7.354 23.996 0 23.564 19.103 42.667 42.667 42.667zM624.004 865.64l3.721-3.315 128.222-128.222c15.472-15.472 16.577-39.871 3.315-56.618l-3.315-3.721-128.222-128.222c-16.662-16.662-43.677-16.662-60.34 0-15.472 15.472-16.577 39.871-3.315 56.618l3.315 3.721 55.335 55.394h-203.477l-81.692 81.739c11.834 1.847 23.898 2.999 36.149 3.412l10.267 0.173 238.839 0.009-55.42 55.377c-15.472 15.472-16.577 39.871-3.315 56.618l3.315 3.721c15.472 15.472 39.871 16.577 56.618 3.315z" />
<glyph unicode="&#xe031;" glyph-name="arrow-reply" d="M414.046 264.769c16.651-16.674 16.633-43.689-0.041-60.34s-43.689-16.633-60.34 0.041l-213.189 213.48c-16.642 16.664-16.634 43.661 0.017 60.316l213.189 213.233c16.661 16.664 43.676 16.667 60.34 0.006s16.667-43.676 0.006-60.34l-140.492-140.5h281.131c184.956 0 335.554-147.108 341.171-330.702l0.162-10.632c0-23.564-19.103-42.667-42.667-42.667s-42.667 19.103-42.667 42.667c0 138.172-109.465 250.776-246.403 255.823l-9.597 0.177h-281.003l140.382-140.564z" />
<glyph unicode="&#xe032;" glyph-name="arrow-reply-all" d="M584.713 264.769c16.651-16.674 16.633-43.689-0.041-60.34s-43.689-16.633-60.34 0.041l-213.189 213.48c-16.642 16.664-16.634 43.661 0.017 60.316l213.189 213.233c16.661 16.664 43.676 16.667 60.34 0.006s16.667-43.676 0.006-60.34l-140.492-140.5h110.464c184.956 0 335.554-147.108 341.171-330.702l0.162-10.632c0-23.564-19.103-42.667-42.667-42.667s-42.667 19.103-42.667 42.667c0 138.172-109.465 250.776-246.403 255.823l-9.597 0.177h-110.336l140.382-140.564zM371.356 691.506c16.664-16.661 16.667-43.676 0.006-60.34l-183.046-183.084 183.063-183.314c16.651-16.674 16.633-43.689-0.041-60.34s-43.689-16.633-60.34 0.041l-213.189 213.48c-16.642 16.664-16.634 43.661 0.017 60.316l213.189 213.233c16.661 16.664 43.676 16.667 60.34 0.006z" />
<glyph unicode="&#xe033;" glyph-name="arrow-reply-down" d="M414.046 588.564c16.653 16.674 16.631 43.689-0.041 60.34-16.674 16.651-43.689 16.633-60.34-0.041l-213.189-213.479c-16.642-16.666-16.634-43.661 0.017-60.318l213.189-213.231c16.661-16.666 43.676-16.67 60.34-0.009s16.668 43.678 0.006 60.339l-140.492 140.501h281.131c184.956 0 335.552 147.106 341.171 330.702l0.162 10.632c0 23.564-19.102 42.667-42.667 42.667s-42.667-19.103-42.667-42.667c0-138.172-109.466-250.778-246.404-255.825l-9.596-0.175h-281.003l140.382 140.564z" />
<glyph unicode="&#xe034;" glyph-name="arrow-right" d="M584.725 777.218c-16.785 16.538-43.797 16.338-60.339-0.447-16.538-16.785-16.337-43.799 0.448-60.338l229.137-225.766h-583.305c-23.564 0-42.667-19.102-42.667-42.667s19.102-42.667 42.667-42.667h583.024l-228.855-225.489c-16.785-16.538-16.986-43.554-0.448-60.339 16.542-16.785 43.554-16.986 60.339-0.444l295.433 291.089c21.201 20.89 21.201 55.091 0 75.981l-295.433 291.087z" />
<glyph unicode="&#xe035;" glyph-name="arrow-right-circle" d="M512.030 874.637c235.641 0 426.667-191.025 426.667-426.667s-191.025-426.667-426.667-426.667c-235.641 0-426.667 191.025-426.667 426.667s191.025 426.667 426.667 426.667zM545.324 641.294l-3.589 3.098c-11.135 8.262-26.419 8.364-37.657 0.306l-4.009-3.404-3.098-3.589c-8.262-11.135-8.364-26.419-0.306-37.657l3.404-4.009 116.037-116.039h-285.44l-4.342-0.292c-14.199-1.926-25.439-13.166-27.366-27.366l-0.292-4.342 0.292-4.342c1.926-14.199 13.166-25.439 27.366-27.366l4.342-0.292h285.44l-116.063-116.070-3.099-3.588c-9.298-12.526-8.268-30.304 3.090-41.666s29.136-12.399 41.665-3.106l3.59 3.098 170.732 170.667 3.099 3.589c8.265 11.135 8.369 26.422 0.31 37.661l-3.405 4.009-170.702 170.702z" />
<glyph unicode="&#xe036;" glyph-name="arrow-rotate-clockwise" d="M512 832c212.079 0 384-171.923 384-384 0-146.598-82.854-276.843-207.927-341.376l79.927 0.043c23.565 0 42.667-19.102 42.667-42.667 0-21.879-16.469-39.915-37.692-42.381l-4.975-0.286h-170.667c-21.879 0-39.915 16.469-42.381 37.692l-0.286 4.975v170.667c0 23.565 19.102 42.667 42.667 42.667 21.879 0 39.915-16.469 42.381-37.692l0.286-4.975 0.060-56.606c102.195 48.486 170.607 152.478 170.607 269.939 0 164.949-133.717 298.667-298.667 298.667s-298.667-133.718-298.667-298.667c0-23.565-19.103-42.667-42.667-42.667s-42.667 19.102-42.667 42.667c0 212.077 171.923 384 384 384zM512 576c70.694 0 128-57.306 128-128s-57.306-128-128-128c-70.694 0-128 57.306-128 128s57.306 128 128 128zM512 490.667c-23.565 0-42.667-19.102-42.667-42.667s19.102-42.667 42.667-42.667c23.565 0 42.667 19.102 42.667 42.667s-19.102 42.667-42.667 42.667z" />
<glyph unicode="&#xe037;" glyph-name="arrow-rotate-counterclockwise" d="M512 832c-212.077 0-384-171.923-384-384 0-146.598 82.853-276.843 207.928-341.376l-79.928 0.043c-23.564 0-42.667-19.102-42.667-42.667 0-21.879 16.471-39.915 37.691-42.381l4.976-0.286h170.667c21.879 0 39.915 16.469 42.381 37.692l0.286 4.975v170.667c0 23.565-19.102 42.667-42.667 42.667-21.881 0-39.915-16.469-42.38-37.692l-0.287-4.975-0.058-56.606c-102.196 48.486-170.608 152.478-170.608 269.939 0 164.949 133.718 298.667 298.667 298.667s298.667-133.718 298.667-298.667c0-23.565 19.102-42.667 42.667-42.667s42.667 19.102 42.667 42.667c0 212.077-171.921 384-384 384zM512 576c-70.694 0-128-57.306-128-128s57.306-128 128-128c70.694 0 128 57.306 128 128s-57.306 128-128 128zM512 490.667c23.565 0 42.667-19.102 42.667-42.667s-19.102-42.667-42.667-42.667c-23.565 0-42.667 19.102-42.667 42.667s19.102 42.667 42.667 42.667z" />
<glyph unicode="&#xe038;" glyph-name="arrow-rotate-icon" d="M389.78 345.6c15.051 0 27.252 11.904 27.252 26.583 0 14.684-12.201 26.588-27.252 26.588h-18.168c-90.303 0-163.509 55.542-163.509 124.060 0 66.441 68.836 120.683 155.348 123.91l8.161 0.152h252.131l-62.474-60.956c-10.639-10.382-10.639-27.215 0-37.597 9.677-9.438 24.817-10.296 35.487-2.574l3.057 2.574 109.005 106.339c10.644 10.382 10.644 27.214 0 37.596l-109.005 106.338-3.057 2.574c-10.67 7.722-25.81 6.864-35.487-2.574-10.639-10.382-10.639-27.214 0-37.596l62.438-60.956h-252.095c-120.405 0-218.013-79.349-218.013-177.231s97.608-177.231 218.013-177.231h18.168zM850.079 499.2c11.223 0 20.321-8.623 20.321-19.261v-351.816c0-21.274-18.196-38.523-40.637-38.523h-655.84c-7.25 0-13.951 3.661-17.585 9.61-5.622 9.206-2.308 20.992 7.404 26.322l676.158 371.076c3.092 1.698 6.605 2.592 10.179 2.592z" />
<glyph unicode="&#xe039;" glyph-name="arrows-bidirectional" d="M640.043 576.043h-255.872l0.042 95.965c0 28.147-33.722 42.583-54.088 23.154l-234.826-224.015c-13.216-12.608-13.216-33.702 0.001-46.309l234.826-224 3.51-2.928c20.499-14.853 50.577-0.5 50.577 26.083l-0.042 96.007h255.872l0.025-96.007c0-28.156 33.74-42.588 54.101-23.142l234.546 224c13.198 12.605 13.198 33.678 0.001 46.283l-234.546 224.015c-20.361 19.447-54.102 5.015-54.102-23.141l-0.025-95.965z" />
<glyph unicode="&#xe03a;" glyph-name="arrow-sort" d="M97.771 584.821l170.486 170.667c15.371 15.387 39.57 16.585 56.315 3.582l4.021-3.546 170.89-170.667c16.673-16.651 16.691-43.666 0.039-60.34-15.371-15.391-39.572-16.59-56.318-3.586l-4.022 3.547-97.85 97.731v-451.57c0-21.881-16.471-39.915-37.691-42.38l-4.976-0.287c-21.881 0-39.915 16.471-42.38 37.691l-0.287 4.976v451.869l-97.857-97.994c-15.373-15.389-39.574-16.585-56.318-3.579l-4.021 3.547c-15.389 15.373-16.585 39.574-3.579 56.318l3.547 4.021zM720.357 767.576l4.976 0.287c21.881 0 39.915-16.471 42.38-37.691l0.287-4.976v-451.575l97.816 97.868c15.373 15.388 39.575 16.582 56.319 3.576l4.021-3.547c15.388-15.373 16.582-39.575 3.576-56.319l-3.547-4.021-170.506-170.667c-15.373-15.388-39.575-16.582-56.319-3.576l-4.021 3.547-170.827 170.667c-16.67 16.655-16.683 43.67-0.028 60.34 15.373 15.388 39.575 16.582 56.319 3.576l4.021-3.547 97.844-97.725v451.404c0 21.881 16.471 39.915 37.691 42.38v0z" />
<glyph unicode="&#xe03b;" glyph-name="arrow-swap" d="M648.835 862.229l170.667-170.486c15.387-15.371 16.585-39.57 3.582-56.315l-3.546-4.021-170.667-170.89c-16.651-16.673-43.666-16.691-60.34-0.039-15.391 15.371-16.59 39.572-3.586 56.318l3.547 4.022 97.731 97.85h-451.57c-21.881 0-39.915 16.471-42.38 37.691l-0.287 4.976c0 21.881 16.471 39.915 37.691 42.38l4.976 0.287h451.869l-97.994 97.857c-15.389 15.373-16.585 39.574-3.579 56.318l3.547 4.021c15.373 15.389 39.574 16.585 56.318 3.579l4.021-3.547zM831.59 239.643l0.287-4.976c0-21.881-16.471-39.915-37.691-42.38l-4.976-0.287h-451.575l97.868-97.816c15.388-15.373 16.582-39.575 3.576-56.319l-3.547-4.021c-15.373-15.388-39.575-16.582-56.319-3.576l-4.021 3.547-170.667 170.506c-15.388 15.373-16.582 39.575-3.576 56.319l3.547 4.021 170.667 170.827c16.655 16.67 43.67 16.683 60.34 0.028 15.388-15.373 16.582-39.575 3.576-56.319l-3.547-4.021-97.725-97.844h451.404c21.881 0 39.915-16.471 42.38-37.691v0z" />
<glyph unicode="&#xe03c;" glyph-name="arrow-sync" d="M339.124 745.45c14.29-18.737 10.685-45.51-8.052-59.8-73.684-56.195-117.739-143.23-117.739-237.65 0-149.218 109.429-272.878 252.416-295.107l-30.246 30.271c-16.662 16.662-16.662 43.677 0 60.34s43.677 16.662 60.34 0l106.667-106.667c16.662-16.662 16.662-43.677 0-60.34l-106.667-106.667c-16.662-16.662-43.677-16.662-60.34 0s-16.662 43.677 0 60.34l35.975 35.943c-193.030 20.244-343.479 183.496-343.479 381.887 0 121.325 56.696 233.335 151.324 305.503 18.737 14.29 45.51 10.685 59.8-8.052zM421.49 819.503l106.667 106.667c16.662 16.662 43.677 16.662 60.34 0 15.381-15.381 16.564-39.583 3.549-56.32l-3.549-4.020-35.975-35.943c193.030-20.244 343.479-183.496 343.479-381.887 0-116.046-51.846-223.708-139.588-296.186-18.168-15.007-45.061-12.445-60.068 5.723s-12.445 45.061 5.723 60.068c68.321 56.435 108.6 140.077 108.6 230.395 0 149.218-109.429 272.878-252.416 295.107l30.246-30.271c16.662-16.662 16.662-43.677 0-60.34-15.381-15.381-39.583-16.564-56.32-3.549l-4.020 3.549-106.667 106.667c-15.381 15.381-16.564 39.583-3.549 56.32l3.549 4.020z" />
<glyph unicode="&#xe03d;" glyph-name="arrow-sync-circle" d="M512 874.667c235.639 0 426.667-191.025 426.667-426.667 0-235.639-191.027-426.667-426.667-426.667-235.642 0-426.667 191.027-426.667 426.667 0 235.642 191.025 426.667 426.667 426.667zM714.667 448h-117.333c-17.673 0-32-14.327-32-32s14.327-32 32-32v0h49.634c-23.974-50.47-75.435-85.333-134.972-85.333-45.679 0-86.898 20.463-114.283 52.672-11.447 13.466-31.642 15.104-45.107 3.657s-15.101-31.642-3.654-45.107c39.138-46.037 97.972-75.221 163.043-75.221 69.815 0 131.763 33.523 170.671 85.333v0-32c0-17.673 14.327-32 32-32s32 14.327 32 32v0 128c0 17.673-14.327 32-32 32v0zM511.996 661.333c-69.798 0-131.746-33.507-170.662-85.314v31.981c0 17.673-14.327 32-32 32s-32-14.327-32-32v-138.667c0-17.673 14.327-32 32-32h117.333c17.673 0 32 14.327 32 32s-14.327 32-32 32h-54.209c21.466 56.131 75.866 96 139.538 96 46.639 0 86.908-19.781 114.061-52.454 11.294-13.59 31.471-15.455 45.065-4.157 13.589 11.296 15.45 31.472 4.156 45.064-39.369 47.371-97.707 75.546-163.281 75.546z" />
<glyph unicode="&#xe03e;" glyph-name="arrow-sync-off" d="M433.112 782.868c-19.994-19.995-19.994-52.413 0-72.408l106.667-106.667c19.995-19.994 52.413-19.994 72.408 0 18.964 18.964 19.942 49.101 2.935 69.217 85.177-39.106 144.329-125.152 144.329-225.015 0-20.452-2.474-40.31-7.14-59.299l80.484-80.484c18.685 42.827 29.055 90.118 29.055 139.783 0 168.101-118.552 308.512-276.61 342.185l26.947 26.947c19.995 19.995 19.995 52.413 0 72.408s-52.413 19.995-72.408 0l-106.667-106.667zM191.177 587.791c-18.685-42.823-29.060-90.113-29.060-139.796 0-168.104 118.558-308.518 276.62-342.191l-26.941-26.94c-19.994-19.994-19.994-52.412 0-72.405s52.413-19.994 72.408 0l106.667 106.668c19.995 19.995 19.995 52.413 0 72.408l-106.667 106.667c-19.994 19.994-52.413 19.994-72.408 0-18.969-18.97-19.942-49.12-2.918-69.237-85.195 39.099-144.361 125.156-144.361 225.031 0 20.452 2.474 40.316 7.143 59.313l-80.483 80.483zM859.785 27.793c20.002-19.994 52.42-19.994 72.414 0s19.994 52.412 0 72.414l-768.003 767.997c-19.995 19.995-52.413 19.995-72.408 0s-19.995-52.413 0-72.408l767.997-768.003z" />
<glyph unicode="&#xe03f;" glyph-name="arrow-trending" d="M597.473 725.333h298.527c21.881 0 39.915-16.471 42.38-37.691l0.287-4.976v-298.667c0-23.564-19.103-42.667-42.667-42.667-21.881 0-39.915 16.471-42.38 37.691l-0.287 4.976-0.035 195.669-311.129-311.173c-15.371-15.371-39.555-16.564-56.293-3.57l-4.020 3.544-97.963 97.793-225.625-225.697c-16.66-16.665-43.675-16.669-60.34-0.010-15.383 15.378-16.57 39.58-3.558 56.32l3.549 4.020 255.769 255.851c15.37 15.375 39.558 16.57 56.298 3.575l4.021-3.544 97.968-97.798 280.952 281.020h-195.453c-21.881 0-39.915 16.471-42.38 37.691l-0.287 4.976c0 21.881 16.471 39.915 37.691 42.38l4.976 0.287z" />
<glyph unicode="&#xe040;" glyph-name="arrow-undo" d="M294.714 674.984l116.639 116.424c110.985 110.985 290.928 110.985 401.914 0s110.985-290.928 0-401.914l-355.775-355.711c-16.665-16.66-43.677-16.652-60.34 0.010s-16.655 43.68 0.010 60.34l355.765 355.701c77.661 77.661 77.661 203.573 0 281.234-75.234 75.234-195.751 77.585-273.84 7.028l-7.422-7.056-155.334-155.017 195.669-0.023c21.881 0 39.915-16.471 42.38-37.691l0.287-4.976c0-21.881-16.471-39.915-37.691-42.38l-4.976-0.287-301.208 0.075-4.071 0.434-4.773 1.027-5.612 1.983-3.495 1.715-4.348 2.738c-1.867 1.335-3.656 2.85-5.339 4.534l-3.913 4.498-3.173 4.863-1.948 3.957-1.64 4.508-0.661 2.447-0.671 3.482-0.313 2.612-0.168 3.795v298.547c0 23.564 19.103 42.667 42.667 42.667 21.881 0 39.915-16.471 42.38-37.691l0.287-4.976v-195.569l38.714 38.673z" />
<glyph unicode="&#xe041;" glyph-name="arrow-up" d="M182.784 520.725c-16.538-16.785-16.338-43.797 0.447-60.339 16.785-16.538 43.799-16.337 60.338 0.448l225.764 229.133v-583.301c0-23.565 19.102-42.667 42.667-42.667s42.667 19.102 42.667 42.667v583.024l225.489-228.856c16.542-16.785 43.554-16.986 60.339-0.448 16.785 16.542 16.986 43.554 0.448 60.339l-291.089 295.433c-20.89 21.202-55.091 21.202-75.981 0l-291.089-295.433z" />
<glyph unicode="&#xe042;" glyph-name="arrow-up-circle" d="M938.697 447.97c0 235.64-191.023 426.665-426.667 426.665-235.64 0-426.665-191.025-426.665-426.665 0-235.644 191.025-426.667 426.665-426.667 235.644 0 426.667 191.023 426.667 426.667zM318.722 436.019c-11.361 11.358-12.394 29.137-3.098 41.664l3.098 3.588 170.703 170.703c11.362 11.362 29.141 12.393 41.668 3.095l3.588-3.1 170.667-170.732c12.497-12.497 12.493-32.759-0.009-45.257-11.362-11.358-29.141-12.386-41.664-3.089l-3.588 3.102-116.083 116.134 0.013-285.512c0-16.201-12.041-29.589-27.661-31.71l-4.339-0.29c-16.201 0-29.589 12.036-31.71 27.657l-0.29 4.343-0.013 285.426-116.028-116.023c-11.361-11.362-29.138-12.395-41.666-3.102l-3.589 3.102z" />
<glyph unicode="&#xe043;" glyph-name="arrow-up-left" d="M490.689 831.937l-322.379-0.062-5.159-0.593-3.741-0.834-4.433-1.471-3.804-1.721-2.72-1.52-2.67-1.772-2.73-2.129-2.692-2.489-4.028-4.678-3.058-4.747-2.28-4.81-1.509-4.495-0.669-2.781-0.39-2.234-0.47-6.334v-320.166c0-23.564 19.103-42.667 42.667-42.667 21.881 0 39.915 16.471 42.38 37.691l0.287 4.976 0.011 217.169 609.788-609.777c15.381-15.38 39.583-16.563 56.32-3.548l4.019 3.549c15.38 15.381 16.563 39.583 3.548 56.32l-3.549 4.019-609.753 609.767h217.014c21.881 0 39.915 16.471 42.38 37.691l0.287 4.976c0 23.564-19.103 42.667-42.667 42.667z" />
<glyph unicode="&#xe044;" glyph-name="arrow-up-left-circle" d="M512 21.333c235.639 0 426.667 191.027 426.667 426.667 0 235.642-191.027 426.667-426.667 426.667-235.642 0-426.667-191.025-426.667-426.667 0-235.639 191.025-426.667 426.667-426.667zM650.667 554.67h-202.261l224.777-222.599c12.557-12.437 12.655-32.695 0.218-45.252-12.433-12.561-32.695-12.659-45.252-0.222l-222.814 220.655v-197.914c0-17.673-14.327-32-32-32s-32 14.327-32 32v277.332c0 17.673 14.327 32 32 32h277.333c17.673 0 32-14.327 32-32s-14.327-32-32-32z" />
<glyph unicode="&#xe045;" glyph-name="arrow-upload" d="M224 810.854h575.902c17.673 0 32 14.327 32 32 0 16.201-12.041 29.589-27.661 31.708l-4.339 0.292h-575.902c-17.673 0-32-14.327-32-32 0-16.2 12.038-29.589 27.658-31.708l4.342-0.292zM507.025 21.619l4.975-0.286c21.879 0 39.915 16.469 42.381 37.692l0.286 4.975v537.173l140.548-140.492c15.381-15.377 39.582-16.559 56.32-3.541l4.019 3.55c15.377 15.381 16.559 39.582 3.541 56.32l-3.55 4.019-213.231 213.188c-15.373 15.37-39.561 16.559-56.299 3.562l-4.019-3.545-213.479-213.188c-16.674-16.653-16.692-43.665-0.041-60.339 15.37-15.394 39.571-16.593 56.318-3.588l4.022 3.546 140.518 140.296v-536.96c0-21.879 16.469-39.915 37.692-42.381z" />
<glyph unicode="&#xe046;" glyph-name="arrow-up-right" d="M533.194 831.937l322.379-0.062 5.159-0.593 3.741-0.834 4.433-1.471 3.804-1.721 2.72-1.52 2.67-1.772 2.73-2.129 2.692-2.489 4.028-4.678 3.058-4.747 2.28-4.81 1.509-4.495 0.669-2.781 0.39-2.234 0.47-6.334v-320.166c0-23.564-19.103-42.667-42.667-42.667-21.881 0-39.915 16.471-42.38 37.691l-0.287 4.976-0.011 217.169-609.788-609.777c-15.381-15.38-39.583-16.563-56.32-3.548l-4.019 3.549c-15.38 15.381-16.563 39.583-3.548 56.32l3.549 4.019 609.753 609.767h-217.014c-21.881 0-39.915 16.471-42.38 37.691l-0.287 4.976c0 23.564 19.103 42.667 42.667 42.667z" />
<glyph unicode="&#xe047;" glyph-name="assignments" d="M458.562 874.667h106.901c50.81 0 92.401-39.474 95.779-89.427l0.221-6.573-0.001-10.667h53.008c76.583 0 138.667-62.083 138.667-138.667v-512.196c0-53.019-42.981-96-96-96h-490.469c-53.019 0-96 42.981-96 96v512.196c0 76.583 62.083 138.667 138.667 138.667h53.205l0.023 10.667c0 50.81 39.474 92.401 89.427 95.779l6.573 0.221zM650.692 384h-277.261c-39.175 0-71.304-30.17-74.419-68.543l-0.248-6.124v-85.209c0-39.175 30.17-71.304 68.543-74.419l6.124-0.248h277.261c39.175 0 71.304 30.17 74.419 68.543l0.248 6.124v85.209c0 39.175-30.17 71.304-68.543 74.419l-6.124 0.248zM373.431 320h277.261c5.049 0 9.279-3.509 10.385-8.221l0.282-2.446v-85.209c0-5.049-3.509-9.279-8.221-10.385l-2.446-0.282h-277.261c-5.049 0-9.279 3.509-10.385 8.221l-0.282 2.446v85.209c0 5.049 3.509 9.279 8.221 10.385l2.446 0.282zM565.333 554.667h-106.667l-4.342-0.292c-15.619-2.119-27.658-15.508-27.658-31.708s12.039-29.589 27.658-31.708l4.342-0.292h106.667l4.342 0.292c15.619 2.119 27.658 15.508 27.658 31.708s-12.039 29.589-27.658 31.708l-4.342 0.292zM565.463 810.667h-106.901c-16.2 0-29.589-12.039-31.708-27.658l-0.292-4.342-0.023-10.667h170.924v10.667c0 16.2-12.039 29.589-27.658 31.708l-4.342 0.292z" />
<glyph unicode="&#xe048;" glyph-name="attach" d="M682.667 874.667c141.385 0 256-114.615 256-256 0-65.592-24.837-127.332-68.435-174.231l-8.101-8.315-374.623-374.458-2.377-1.915c-28.553-24.584-65.033-38.414-103.563-38.414-87.685 0-158.767 71.082-158.767 158.767 0 38.458 13.782 74.84 38.211 103.316l6.327 6.951 0.643 0.509 311.083 311.629c16.648 16.677 43.663 16.701 60.34 0.053s16.701-43.663 0.053-60.34l-311.55-311.985c-12.642-13.519-19.774-31.211-19.774-50.132 0-40.556 32.877-73.434 73.434-73.434 16.169 0 31.441 5.203 43.999 14.63l5.211 4.296 0.033-0.067 378.068 378.254c28.379 31.133 44.456 71.687 44.456 114.887 0 94.257-76.41 170.667-170.667 170.667-45.296 0-87.663-17.69-119.258-48.58l-6.603-6.82-0.788-0.553-397.879-398.032c-16.659-16.666-43.674-16.672-60.34-0.013s-16.672 43.674-0.013 60.34l399.171 399.196c47.953 50.536 114.53 79.796 185.711 79.796z" />
<glyph unicode="&#xe049;" glyph-name="attach-with-text" d="M298.667 832c114.72 0 208.291-90.552 213.136-204.079l0.197-9.254v-469.333c0-70.692-57.308-128-128-128-68.168 0-123.89 53.287-127.783 120.479l-0.217 7.521v426.667c0 23.564 19.103 42.667 42.667 42.667 21.881 0 39.915-16.471 42.38-37.691l0.287-4.976v-426.667c0-23.564 19.103-42.667 42.667-42.667 21.881 0 39.915 16.471 42.38 37.691l0.287 4.976v469.333c0 70.692-57.308 128-128 128-68.168 0-123.89-53.287-127.783-120.479l-0.217-7.521v-384c0-23.564-19.103-42.667-42.667-42.667-21.881 0-39.915 16.471-42.38 37.691l-0.287 4.976v384c0 117.821 95.513 213.333 213.333 213.333zM640 234.667h85.333c23.564 0 42.667-19.103 42.667-42.667 0-21.881-16.471-39.915-37.691-42.38l-4.976-0.287h-85.333c-23.564 0-42.667 19.103-42.667 42.667 0 21.881 16.471 39.915 37.691 42.38l4.976 0.287zM640 405.333h234.667c23.564 0 42.667-19.103 42.667-42.667 0-21.881-16.471-39.915-37.691-42.38l-4.976-0.287h-234.667c-23.564 0-42.667 19.103-42.667 42.667 0 21.881 16.471 39.915 37.691 42.38l4.976 0.287zM640 576h234.667c23.564 0 42.667-19.103 42.667-42.667 0-21.881-16.471-39.915-37.691-42.38l-4.976-0.287h-234.667c-23.564 0-42.667 19.103-42.667 42.667 0 21.881 16.471 39.915 37.691 42.38l4.976 0.287zM640 746.667h234.667c23.564 0 42.667-19.103 42.667-42.667 0-21.881-16.471-39.915-37.691-42.38l-4.976-0.287h-234.667c-23.564 0-42.667 19.103-42.667 42.667 0 21.881 16.471 39.915 37.691 42.38l4.976 0.287z" />
<glyph unicode="&#xe04a;" glyph-name="autocorrect" d="M580.005 758.491c16.355-10.257 30.179-24.080 40.435-40.435 47.565-75.847 88.418-140.991 122.56-195.433l174.333 0.044c23.564 0 42.667-19.103 42.667-42.667s-19.103-42.667-42.667-42.667v0l-117.356 0.051c26.805-35.664 42.689-80.002 42.689-128.051 0-117.821-95.513-213.333-213.333-213.333s-213.333 95.513-213.333 213.333c0 117.821 95.513 213.333 213.333 213.333l12.922 0.041-12.107 19.287c-25.139 40.051-52.478 83.645-82.002 130.725-3.419 5.452-8.027 10.060-13.478 13.478-18.537 11.625-42.566 7.252-55.928-9.415l-2.887-4.063-322.373-514.054c-12.519-19.963-38.852-25.998-58.815-13.478-18.537 11.625-25.065 35.161-15.879 54.447l2.4 4.368 322.373 514.054c37.558 59.89 116.555 77.994 176.445 40.435zM629.333 437.333c-70.692 0-128-57.308-128-128s57.308-128 128-128c70.692 0 128 57.308 128 128s-57.308 128-128 128z" />
<glyph unicode="&#xe04b;" glyph-name="autosum" d="M206.051 763.317c6.685 15.772 22.154 26.016 39.284 26.016h533.332c23.565 0 42.667-19.103 42.667-42.667s-19.102-42.667-42.667-42.667h-432.667l211.206-218.249c15.317-15.829 16.073-40.713 1.737-57.438l-220.841-257.647h440.565c23.565 0 42.667-19.102 42.667-42.667s-19.102-42.667-42.667-42.667h-533.332c-16.663 0-31.801 9.698-38.764 24.836s-4.475 32.947 6.368 45.598l255.92 298.573-254.186 262.655c-11.912 12.309-15.308 30.55-8.623 46.321z" />
<glyph unicode="&#xe04c;" glyph-name="backspace" d="M800 789.333c73.943 0 134.368-57.875 138.447-130.798l0.22-7.869v-405.333c0-73.943-57.875-134.368-130.798-138.447l-7.869-0.22h-362.717c-32.603 0-64.064 11.484-88.934 32.275l-6.615 5.899-213.149 202.667c-55.5 52.771-57.713 140.542-4.942 196.042l4.942 4.942 213.149 202.667c23.628 22.466 54.34 35.821 86.691 37.891l8.859 0.283h362.717zM488.372 601.726c-12.527 9.295-30.305 8.262-41.666-3.098s-12.393-29.138-3.098-41.666l3.098-3.589 105.363-105.373-105.363-105.373-3.098-3.589c-9.295-12.527-8.262-30.305 3.098-41.666s29.138-12.393 41.666-3.098l3.589 3.098 105.378 105.358 105.368-105.358 3.589-3.098c12.527-9.295 30.305-8.262 41.666 3.098s12.393 29.138 3.098 41.666l-3.098 3.589-105.353 105.373 105.353 105.373 3.098 3.589c9.295 12.527 8.262 30.305-3.098 41.666s-29.138 12.393-41.666 3.098l-3.589-3.098-105.368-105.358-105.378 105.358-3.589 3.098z" />
<glyph unicode="&#xe04d;" glyph-name="backward" d="M704 682.667h-245.333c-100.148 0-181.333-81.186-181.333-181.333v-245.333h-53.333c-76.583 0-138.667 62.084-138.667 138.667v341.333c0 76.584 62.083 138.667 138.667 138.667h341.333c76.582 0 138.667-62.083 138.667-138.667v-53.333zM938.667 160c0-76.582-62.084-138.667-138.667-138.667h-341.333c-76.583 0-138.667 62.084-138.667 138.667v341.333c0 76.584 62.083 138.667 138.667 138.667h341.333c76.582 0 138.667-62.083 138.667-138.667v-341.333zM800 85.333c41.237 0 74.667 33.429 74.667 74.667v341.333c0 41.237-33.429 74.667-74.667 74.667h-341.333c-41.237 0-74.667-33.429-74.667-74.667v-341.333c0-41.237 33.429-74.667 74.667-74.667h341.333z" />
<glyph unicode="&#xe04e;" glyph-name="badge" d="M682.667 767.928c0-82.475 66.859-149.333 149.333-149.333 22.921 0 44.636 5.164 64.044 14.392l-0.044-451.653c0-64.801-52.532-117.333-117.333-117.333h-533.333c-64.801 0-117.333 52.532-117.333 117.333v533.333c0 64.801 52.532 117.333 117.333 117.333l451.746 0.015c-9.241-19.42-14.412-41.149-14.412-64.087zM832 874.595c58.91 0 106.667-47.756 106.667-106.667s-47.756-106.667-106.667-106.667c-58.91 0-106.667 47.756-106.667 106.667s47.756 106.667 106.667 106.667z" />
<glyph unicode="&#xe04f;" glyph-name="balloon" d="M213.333 576c0 164.949 133.718 298.667 298.667 298.667s298.667-133.718 298.667-298.667c0-86.4-28.565-180.723-78.916-254.106-44.497-64.849-108.523-116.54-187.75-127.671v-12.89c0-17.673 14.327-32 32-32h138.667c53.018 0 96-42.982 96-96v-42.667c0-17.673-14.327-32-32-32s-32 14.327-32 32v42.667c0 17.673-14.327 32-32 32h-138.667c-53.018 0-96 42.982-96 96v12.89c-79.227 11.132-143.255 62.822-187.751 127.671-50.349 73.382-78.915 167.706-78.915 254.106zM551.236 742.128c-17.199 4.051-34.432-6.611-38.481-23.813s6.609-34.432 23.812-38.483c39.074-9.201 69.922-39.989 79.206-79.031 4.087-17.193 21.342-27.817 38.532-23.728 17.195 4.089 27.819 21.342 23.731 38.535-14.886 62.595-64.149 111.767-126.801 126.519z" />
<glyph unicode="&#xe050;" glyph-name="bank" d="M493.606 868.653c11.038 7.75 25.749 7.75 36.783 0l394.615-277.141c11.422-8.022 16.329-22.522 12.122-35.831s-16.555-22.356-30.515-22.356h-789.226c-13.958 0-26.305 9.048-30.512 22.356s0.699 27.809 12.121 35.831l394.612 277.141zM512 661.333c23.565 0 42.667 19.103 42.667 42.667s-19.102 42.667-42.667 42.667c-23.565 0-42.667-19.103-42.667-42.667s19.102-42.667 42.667-42.667zM725.333 490.667h128v-298.667h-128v298.667zM575.996 149.333v-0.055h298.765c12.134 0 23.228-6.869 28.642-17.732l31.855-63.945c4.941-9.92 4.399-21.687-1.434-31.113-5.837-9.421-16.128-15.155-27.209-15.155h-789.23c-11.088 0-21.386 5.739-27.217 15.172-5.831 9.429-6.365 21.205-1.411 31.125l31.937 63.945c5.418 10.846 16.502 17.702 28.628 17.702h21.344v0.055h405.329zM575.996 192v298.667h-128v-298.667h128zM298.667 192v298.667h-128v-298.667h128z" />
<glyph unicode="&#xe051;" glyph-name="battery-0" d="M85.32 576c0 70.692 57.308 128 128 128h512.014c70.694 0 128-57.308 128-128v-42.667h42.68c7.77 0 15.057-2.078 21.333-5.709 12.753-7.377 21.333-21.167 21.333-36.958v-85.333c0-15.791-8.58-29.581-21.333-36.958-6.276-3.631-13.564-5.709-21.333-5.709h-42.68v-42.667c0-70.694-57.306-128-128-128h-512.014c-70.692 0-128 57.306-128 128v256z" />
<glyph unicode="&#xe052;" glyph-name="battery-1" d="M725.333 704c70.694 0 128-57.308 128-128v-42.667h42.68c7.77 0 15.057-2.078 21.333-5.709 12.753-7.377 21.333-21.167 21.333-36.958v-85.333c0-15.791-8.58-29.581-21.333-36.958-6.276-3.631-13.564-5.709-21.333-5.709h-42.68v-42.667c0-70.694-57.306-128-128-128h-512.014c-70.692 0-128 57.306-128 128v256c0 70.692 57.308 128 128 128h512.014zM298.667 576h-42.749c-23.564 0-42.667-19.103-42.667-42.667v-170.667c0-23.565 19.102-42.667 42.667-42.667h42.749c23.564 0 42.667 19.102 42.667 42.667v170.667c0 23.564-19.102 42.667-42.667 42.667z" />
<glyph unicode="&#xe053;" glyph-name="battery-2" d="M725.333 704c70.694 0 128-57.308 128-128v-42.667h42.68c7.77 0 15.057-2.078 21.333-5.709 12.753-7.377 21.333-21.167 21.333-36.958v-85.333c0-15.791-8.58-29.581-21.333-36.958-6.276-3.631-13.564-5.709-21.333-5.709h-42.68v-42.667c0-70.694-57.306-128-128-128h-512.014c-70.692 0-128 57.306-128 128v256c0 70.692 57.308 128 128 128h512.014zM341.333 576h-85.42c-23.564 0-42.667-19.103-42.667-42.667v-170.667c0-23.565 19.102-42.667 42.667-42.667h85.42c23.564 0 42.667 19.102 42.667 42.667v170.667c0 23.564-19.102 42.667-42.667 42.667z" />
<glyph unicode="&#xe054;" glyph-name="battery-3" d="M725.333 704c70.694 0 128-57.308 128-128v-42.667h42.68c7.77 0 15.057-2.078 21.333-5.709 12.753-7.377 21.333-21.167 21.333-36.958v-85.333c0-15.791-8.58-29.581-21.333-36.958-6.276-3.631-13.564-5.709-21.333-5.709h-42.68v-42.667c0-70.694-57.306-128-128-128h-512.014c-70.692 0-128 57.306-128 128v256c0 70.692 57.308 128 128 128h512.014zM384 576h-127.289c-23.564 0-42.667-19.103-42.667-42.667v-170.667c0-23.565 19.103-42.667 42.667-42.667h127.289c23.564 0 42.667 19.102 42.667 42.667v170.667c0 23.564-19.103 42.667-42.667 42.667z" />
<glyph unicode="&#xe055;" glyph-name="battery-4" d="M725.333 704c70.694 0 128-57.308 128-128v-42.667h42.68c7.77 0 15.057-2.078 21.333-5.709 12.753-7.377 21.333-21.167 21.333-36.958v-85.333c0-15.791-8.58-29.581-21.333-36.958-6.276-3.631-13.564-5.709-21.333-5.709h-42.68v-42.667c0-70.694-57.306-128-128-128h-512.014c-70.692 0-128 57.306-128 128v256c0 70.692 57.308 128 128 128h512.014zM426.667 576h-170.68c-23.564 0-42.667-19.103-42.667-42.667v-170.667c0-23.565 19.102-42.667 42.667-42.667h170.68c23.564 0 42.667 19.102 42.667 42.667v170.667c0 23.564-19.102 42.667-42.667 42.667z" />
<glyph unicode="&#xe056;" glyph-name="battery-5" d="M725.333 704c70.694 0 128-57.308 128-128v-42.667h42.68c7.77 0 15.057-2.078 21.333-5.709 12.753-7.377 21.333-21.167 21.333-36.958v-85.333c0-15.791-8.58-29.581-21.333-36.958-6.276-3.631-13.564-5.709-21.333-5.709h-42.68v-42.667c0-70.694-57.306-128-128-128h-512.014c-70.692 0-128 57.306-128 128v256c0 70.692 57.308 128 128 128h512.014zM469.333 576h-213.347c-23.564 0-42.667-19.103-42.667-42.667v-170.667c0-23.565 19.103-42.667 42.667-42.667h213.347c23.565 0 42.667 19.102 42.667 42.667v170.667c0 23.564-19.102 42.667-42.667 42.667z" />
<glyph unicode="&#xe057;" glyph-name="battery-6" d="M725.333 704c70.694 0 128-57.308 128-128v-42.667h42.68c7.77 0 15.057-2.078 21.333-5.709 12.753-7.377 21.333-21.167 21.333-36.958v-85.333c0-15.791-8.58-29.581-21.333-36.958-6.276-3.631-13.564-5.709-21.333-5.709h-42.68v-42.667c0-70.694-57.306-128-128-128h-512.014c-70.692 0-128 57.306-128 128v256c0 70.692 57.308 128 128 128h512.014zM512 576h-256.014c-23.564 0-42.667-19.103-42.667-42.667v-170.667c0-23.565 19.103-42.667 42.667-42.667h256.014c23.565 0 42.667 19.102 42.667 42.667v170.667c0 23.564-19.102 42.667-42.667 42.667z" />
<glyph unicode="&#xe058;" glyph-name="battery-7" d="M725.333 704c70.694 0 128-57.308 128-128v-42.667h42.68c7.77 0 15.057-2.078 21.333-5.709 12.753-7.377 21.333-21.167 21.333-36.958v-85.333c0-15.791-8.58-29.581-21.333-36.958-6.276-3.631-13.564-5.709-21.333-5.709h-42.68v-42.667c0-70.694-57.306-128-128-128h-512.014c-70.692 0-128 57.306-128 128v256c0 70.692 57.308 128 128 128h512.014zM554.667 576h-298.68c-23.564 0-42.667-19.103-42.667-42.667v-170.667c0-23.565 19.103-42.667 42.667-42.667h298.68c23.565 0 42.667 19.102 42.667 42.667v170.667c0 23.564-19.102 42.667-42.667 42.667z" />
<glyph unicode="&#xe059;" glyph-name="battery-8" d="M725.333 704c70.694 0 128-57.308 128-128v-42.667h42.68c7.77 0 15.057-2.078 21.333-5.709 12.753-7.377 21.333-21.167 21.333-36.958v-85.333c0-15.791-8.58-29.581-21.333-36.958-6.276-3.631-13.564-5.709-21.333-5.709h-42.68v-42.667c0-70.694-57.306-128-128-128h-512.014c-70.692 0-128 57.306-128 128v256c0 70.692 57.308 128 128 128h512.014zM597.333 576h-341.347c-23.564 0-42.667-19.103-42.667-42.667v-170.667c0-23.565 19.102-42.667 42.667-42.667h341.347c23.565 0 42.667 19.102 42.667 42.667v170.667c0 23.564-19.102 42.667-42.667 42.667z" />
<glyph unicode="&#xe05a;" glyph-name="battery-9" d="M255.986 576c-23.564 0-42.667-19.103-42.667-42.667v-170.667c0-23.565 19.102-42.667 42.667-42.667h384.014c23.565 0 42.667 19.102 42.667 42.667v170.667c0 23.564-19.102 42.667-42.667 42.667h-384.014zM85.32 576c0 70.692 57.308 128 128 128h533.361c70.694 0 128-57.308 128-128v-42.667h21.333c7.77 0 15.057-2.078 21.333-5.709 12.753-7.377 21.333-21.167 21.333-36.958v-85.333c0-15.791-8.58-29.581-21.333-36.958-6.276-3.631-13.564-5.709-21.333-5.709h-21.333v-42.667c0-70.694-57.306-128-128-128h-533.361c-70.692 0-128 57.306-128 128v256z" />
<glyph unicode="&#xe05b;" glyph-name="battery-charge" d="M458.667 704h266.667c68.17 0 123.89-53.287 127.783-120.479l0.217-7.521v-42.667l42.694-0.761c7.77 0 15.057-2.078 21.333-5.709 11.336-6.557 19.375-18.182 21.022-31.774l0.312-5.183v-85.333c0-15.791-8.58-29.581-21.333-36.958-4.707-2.723-9.983-4.573-15.605-5.327l-5.729-0.381-42.694 0.761v-42.667c0-68.17-53.285-123.89-120.479-127.783l-7.521-0.217h-384.202c-16.2 0-29.589 12.039-31.708 27.658l-0.292 4.342v192c0 16.2 12.039 29.589 27.658 31.708l4.342 0.292h26.767c30.547 0 55.651 23.307 58.498 53.108l0.269 5.66v165.233c0 16.2 12.039 29.589 27.658 31.708l4.342 0.292zM283.526 789.041l4.342 0.292c16.2 0 29.589-12.039 31.708-27.658l0.292-4.342-0.038-53.333h32.322c17.673 0 32-14.327 32-32v-106.617c0-41.237-33.429-74.667-74.667-74.667l-42.776 0.036 0.033-266.461c0-16.2-12.039-29.589-27.658-31.708l-4.342-0.292c-16.2 0-29.589 12.039-31.708 27.658l-0.292 4.342v266.462l-42.743-0.037c-41.237 0-74.667 33.429-74.667 74.667v106.617c0 17.673 14.327 32 32 32h32.043l0.003 53.333c0 16.2 12.039 29.589 27.658 31.708l4.342 0.292c16.2 0 29.589-12.039 31.708-27.658l0.292-4.342-0.003-53.333h42.453l0.038 53.333c0 16.2 12.039 29.589 27.658 31.708v0z" />
<glyph unicode="&#xe05c;" glyph-name="battery-full" d="M725.333 704c70.694 0 128-57.308 128-128v-42.667h42.68c7.77 0 15.057-2.078 21.333-5.709 12.753-7.377 21.333-21.167 21.333-36.958v-85.333c0-15.791-8.58-29.581-21.333-36.958-6.276-3.631-13.564-5.709-21.333-5.709h-42.68v-42.667c0-70.694-57.306-128-128-128h-512.014c-70.692 0-128 57.306-128 128v256c0 70.692 57.308 128 128 128h512.014zM682.667 576h-426.642c-23.564 0-42.667-19.103-42.667-42.667v-170.667c0-23.565 19.103-42.667 42.667-42.667h426.642c23.565 0 42.667 19.102 42.667 42.667v170.667c0 23.564-19.102 42.667-42.667 42.667z" />
<glyph unicode="&#xe05d;" glyph-name="battery-saver" d="M368.855 773.932c66.747-121.675 100.641-219.486 100.641-286.696s-31.742-123.552-62.552-150.204c-2.467-2.134-5.249-4.073-8.345-5.815l-4.88-2.465c-9.742-4.417-21.221-0.1-25.638 9.642-1.641 3.619-2.116 7.623-1.414 11.472l1.094 3.777c26.094 64.631 38.746 128.18 37.758 190.476-0.28 17.671-14.832 31.769-32.503 31.489-17.007-0.27-30.704-13.759-31.46-30.525l0.159-0.986c0.239-15.779-0.551-31.719-2.367-47.816l-2.844-20.338-1.776-10.115-2.922-14.080-4.335-17.604-1.846-6.637c-7.26-25.698-17-51.78-29.176-78.225-32.565-70.725-88.7-122.653-166.913-155.019-16.33-6.758-35.046 1.002-41.804 17.332s1.002 35.046 17.332 41.804c41.175 17.039 74.085 40.039 99.133 69.205-70.96 22.394-112.238 71.283-117.877 139.521-6.381 77.218 22.699 129.471 96.429 188.232l20.93 16.099 15.145 11.481 15.764 12.341c35.535 28.722 62.192 56.957 80.063 84.487 12.849 19.793 42.745 20.055 54.204-0.834zM725.333 704c68.17 0 123.89-53.287 127.783-120.479l0.217-7.521v-42.667l42.694-0.761c7.77 0 15.057-2.078 21.333-5.709 11.336-6.557 19.375-18.182 21.022-31.774l0.312-5.183v-85.333c0-15.791-8.58-29.581-21.333-36.958-4.707-2.723-9.983-4.573-15.605-5.327l-5.729-0.381-42.694 0.761v-42.667c0-68.17-53.285-123.89-120.479-127.783l-7.521-0.217h-373.652c-23.564 0-42.667 19.103-42.667 42.667 0 21.881 16.471 39.915 37.691 42.38l4.976 0.287h26.887l3.225 0.242 4.464 0.796c31.696 6.939 125.743 51.319 125.743 211.534 0 51.916-12.878 109.578-38.635 172.988-1.45 3.57-2.196 7.386-2.196 11.239 0 15.12 11.236 27.615 25.813 29.594l4.053 0.273h224.298z" />
<glyph unicode="&#xe05e;" glyph-name="battery-warning" d="M351.743 482.13c9.874-5.657 18.061-13.844 23.718-23.718l171.065-298.598c17.571-30.67 6.951-69.776-23.718-87.347-9.685-5.548-20.653-8.468-31.814-8.468h-342.13c-35.346 0-64 28.654-64 64 0 11.162 2.919 22.129 8.468 31.814l171.065 298.598c17.571 30.67 56.677 41.289 87.347 23.718zM320 192c-11.782 0-21.333-9.551-21.333-21.333s9.551-21.333 21.333-21.333c11.782 0 21.333 9.551 21.333 21.333s-9.551 21.333-21.333 21.333zM725.333 704c70.694 0 128-57.308 128-128v-42.667h42.68c7.77 0 15.057-2.078 21.333-5.709 12.753-7.377 21.333-21.167 21.333-36.958v-85.333c0-15.791-8.58-29.581-21.333-36.958-6.276-3.631-13.564-5.709-21.333-5.709h-42.68v-42.667c0-70.694-57.306-128-128-128h-148.097l-164.754 287.621c-9.428 16.457-23.074 30.102-39.53 39.53-51.116 29.284-116.294 11.586-145.578-39.53l-126.496-220.835c-9.92 18.184-15.558 39.041-15.558 61.214v256c0 70.692 57.308 128 128 128h512.014zM319.928 405.333c-11.782 0-21.333-9.551-21.333-21.333v0-128l0.344-3.835c1.806-9.952 10.517-17.499 20.99-17.499 11.782 0 21.333 9.551 21.333 21.333v0 128l-0.344 3.835c-1.806 9.952-10.517 17.499-20.99 17.499z" />
<glyph unicode="&#xe05f;" glyph-name="beaker" d="M383.999 768v-266.163c0-16-3.998-31.744-11.631-45.803l-50.686-93.367h380.632l-50.684 93.367c-7.633 14.059-11.631 29.803-11.631 45.803v266.163h42.667c17.673 0 32 14.327 32 32s-14.327 32-32 32h-341.333c-17.673 0-32-14.327-32-32s14.327-32 32-32h42.666zM737.058 298.667h-450.118l-67.518-124.373c-27.008-49.754 9.011-110.289 65.621-110.289h453.914c56.61 0 92.629 60.535 65.621 110.289l-67.52 124.373z" />
<glyph unicode="&#xe060;" glyph-name="bed" d="M821.333 490.667c62.401 0 113.425-48.713 117.119-110.186l0.214-7.148v-277.333c0-17.673-14.327-32-32-32-16.2 0-29.589 12.039-31.708 27.658l-0.292 4.342v96h-725.333v-96c0-16.2-12.039-29.589-27.658-31.708l-4.342-0.292c-16.2 0-29.589 12.039-31.708 27.658l-0.292 4.342v277.333c0 62.401 48.713 113.425 110.186 117.119l7.148 0.214h618.667zM288 789.333h448c62.401 0 113.425-48.713 117.119-110.186l0.214-7.148v-138.667h-128l-0.287 4.976c-2.275 19.587-17.816 35.129-37.404 37.404l-4.976 0.287h-85.333c-21.881 0-39.915-16.471-42.38-37.691l-0.287-4.976h-85.333l-0.287 4.976c-2.275 19.587-17.816 35.129-37.404 37.404l-4.976 0.287h-85.333c-21.881 0-39.915-16.471-42.38-37.691l-0.287-4.976h-128v138.667c0 62.401 48.713 113.425 110.186 117.119l7.148 0.214z" />
<glyph unicode="&#xe061;" glyph-name="block" d="M512.030 874.637c235.641 0 426.667-191.025 426.667-426.667s-191.025-426.667-426.667-426.667c-235.641 0-426.667 191.025-426.667 426.667s191.025 426.667 426.667 426.667zM693.333 480h-362.667c-17.673 0-32-14.327-32-32s14.327-32 32-32h362.667c17.673 0 32 14.327 32 32s-14.327 32-32 32z" />
<glyph unicode="&#xe062;" glyph-name="bluetooth" d="M649.234 545.282c18.757 15.628 20.6 43.78 4.040 61.72l-195.020 211.272c-26.344 28.54-74.018 9.9-74.018-28.94v-217.499l-27.299 22.769c-18.096 15.093-45.001 12.658-60.094-5.438s-12.658-45.001 5.438-60.094l81.955-68.354v-25.156l-81.939-68.27c-18.104-15.084-20.552-41.988-5.468-60.091s41.988-20.552 60.091-5.468l27.316 22.759v-217.823c0-38.845 47.684-57.482 74.025-28.933l195.020 211.368c16.548 17.935 14.71 46.069-4.030 61.699l-116.658 97.298 116.641 97.183zM469.569 389.545l90.577-75.546-90.577-98.17v173.716zM469.569 506.659v173.548l90.554-98.1-90.554-75.448z" />
<glyph unicode="&#xe063;" glyph-name="bluetooth-connected" d="M384.236 571.835v217.499c0 37.222 43.784 55.891 70.619 32.264l3.399-3.324 195.020-211.272c15.377-16.659 14.887-42.122-0.28-58.188l-3.76-3.532-116.641-97.183 116.658-97.298c17.401-14.513 20.229-39.809 7.295-57.708l-3.265-3.991-195.020-211.368c-25.244-27.36-70.088-11.383-73.781 24.184l-0.243 4.748v217.823l-27.316-22.759c-18.104-15.084-45.008-12.635-60.091 5.468-13.923 16.711-12.908 40.921 1.569 56.41l3.899 3.681 81.939 68.27v25.156l-81.955 68.354c-18.096 15.093-20.531 41.998-5.438 60.094 13.932 16.704 37.929 20.063 55.771 8.61l4.323-3.173 27.299-22.769zM469.569 389.545v-173.716l90.577 98.17-90.577 75.546zM682.667 490.667c23.564 0 42.667-19.103 42.667-42.667s-19.103-42.667-42.667-42.667c-23.564 0-42.667 19.103-42.667 42.667s19.103 42.667 42.667 42.667zM213.333 490.667c23.564 0 42.667-19.103 42.667-42.667s-19.103-42.667-42.667-42.667c-23.564 0-42.667 19.103-42.667 42.667s19.103 42.667 42.667 42.667zM469.569 680.207v-173.548l90.554 75.448-90.554 98.1z" />
<glyph unicode="&#xe064;" glyph-name="bluetooth-disabled" d="M139.961 865.294c-12.497 12.497-32.758 12.497-45.255 0.001s-12.497-32.758-0.001-45.255l289.532-289.539v-94.942l-81.939-68.267c-18.104-15.083-20.552-41.988-5.468-60.092s41.987-20.553 60.091-5.47l27.316 22.758v-217.822c0-38.844 47.686-57.481 74.024-28.932l181.751 196.988 244.015-244.023c12.497-12.497 32.759-12.497 45.257 0s12.497 32.759 0 45.257l-789.323 789.338zM469.572 445.167l109.743-109.747-109.743-119.59v229.338zM649.237 545.281l-23.403-19.5-241.597 241.602v21.95c0 38.84 47.673 57.48 74.019 28.94l195.021-211.272c16.559-17.94 14.716-46.092-4.041-61.72z" />
<glyph unicode="&#xe065;" glyph-name="bluetooth-searching" d="M384.236 571.835v217.499c0 37.222 43.784 55.891 70.619 32.264l3.399-3.324 195.020-211.272c15.377-16.659 14.887-42.122-0.28-58.188l-3.76-3.532-116.641-97.183 116.658-97.298c17.401-14.513 20.229-39.809 7.295-57.708l-3.265-3.991-195.020-211.368c-25.244-27.36-70.088-11.383-73.781 24.184l-0.243 4.748v217.823l-27.316-22.759c-18.104-15.084-45.008-12.635-60.091 5.468-13.923 16.711-12.908 40.921 1.569 56.41l3.899 3.681 81.939 68.27v25.156l-81.955 68.354c-18.096 15.093-20.531 41.998-5.438 60.094 13.932 16.704 37.929 20.063 55.771 8.61l4.323-3.173 27.299-22.769zM469.569 389.545v-173.716l90.577 98.17-90.577 75.546zM805.624 651.146c17.938 15.281 44.867 13.127 60.148-4.811 46.751-54.88 72.895-124.538 72.895-198.119 0-73.81-26.308-143.67-73.324-198.621-15.319-17.905-42.253-20.001-60.158-4.682s-20.001 42.253-4.682 60.158c33.912 39.635 52.83 89.872 52.83 143.145 0 53.108-18.8 103.199-52.52 142.782-15.281 17.938-13.127 44.867 4.811 60.148zM708.978 565.813c17.938 15.281 44.867 13.127 60.148-4.811 26.633-31.264 41.541-70.985 41.541-112.894 0-42.039-15.001-81.875-41.785-113.18-15.319-17.905-42.253-20.001-60.158-4.682s-20.001 42.253-4.682 60.158c13.68 15.989 21.291 36.201 21.291 57.703 0 21.435-7.564 41.589-21.166 57.557-15.281 17.938-13.127 44.867 4.811 60.148zM469.569 680.207v-173.548l90.554 75.448-90.554 98.1z" />
<glyph unicode="&#xe066;" glyph-name="board" d="M490.624 554.702l0.043-490.752-223.998-0.028c-73.943 0-134.37 57.87-138.45 130.793l-0.22 7.869v352.118h362.624zM554.624 298.702h362.709l0.034-96.117c-0.009-76.579-62.089-138.663-138.671-138.663l-224.030 0.028-0.043 234.752zM778.724 853.411c73.943 0 134.37-57.871 138.45-130.795l0.22-7.869-0.060-352.046h-362.709l0.043 490.709h224.058zM490.667 853.411l-0.043-234.709h-362.624l0.026 96.045c0.009 76.579 62.089 138.664 138.669 138.664h223.972z" />
<glyph unicode="&#xe067;" glyph-name="book-formula-compatibility" d="M768 874.667c58.91 0 106.667-47.756 106.667-106.667v-608c0-17.673-14.327-32-32-32h-608c0-23.565 19.103-42.667 42.667-42.667h565.333c17.673 0 32-14.327 32-32s-14.327-32-32-32h-565.333c-58.91 0-106.667 47.757-106.667 106.667v640c0 58.91 47.756 106.667 106.667 106.667h490.667zM522.667 384c-23.565 0-42.667-19.102-42.667-42.667s19.102-42.667 42.667-42.667c23.565 0 42.667 19.102 42.667 42.667s-19.102 42.667-42.667 42.667zM522.667 704c-17.673 0-32-14.327-32-32v0-213.333c0-17.673 14.327-32 32-32s32 14.327 32 32v0 213.333c0 17.673-14.327 32-32 32z" />
<glyph unicode="&#xe068;" glyph-name="book-formula-database" d="M768 874.667c58.91 0 106.667-47.756 106.667-106.667v-608c0-17.673-14.327-32-32-32h-608c0-23.565 19.103-42.667 42.667-42.667h565.333c17.673 0 32-14.327 32-32s-14.327-32-32-32h-565.333c-58.91 0-106.667 47.757-106.667 106.667v640c0 58.91 47.756 106.667 106.667 106.667h490.667zM533.333 682.667c-42.526 0-82.615-9.213-113.223-25.694-29.305-15.779-57.443-42.941-57.443-80.972v-170.667c0-38.033 28.139-65.195 57.443-80.973 30.608-16.482 70.697-25.694 113.223-25.694s82.615 9.212 113.225 25.694c29.303 15.778 57.442 42.94 57.442 80.973v170.667c0 38.031-28.139 65.193-57.442 80.972-30.609 16.481-70.699 25.694-113.225 25.694zM640 491.678v-86.345c0-3.204-2.901-13.376-23.787-24.623-19.58-10.543-48.823-18.044-82.88-18.044s-63.3 7.501-82.88 18.044c-19.145 10.31-23.178 19.716-23.717 23.68l-0.069 87.287c29.67-14.374 67.115-22.345 106.667-22.345 35.157 0 68.649 6.297 96.496 17.792l10.17 4.552zM533.333 618.667c34.057 0 63.3-7.502 82.88-18.045 20.885-11.244 23.787-21.416 23.787-24.622s-2.901-13.378-23.787-24.622c-19.58-10.543-48.823-18.045-82.88-18.045s-63.3 7.502-82.88 18.045c-19.145 10.307-23.178 19.713-23.717 23.679l-0.069 0.943c0 3.206 2.901 13.378 23.787 24.622 19.58 10.543 48.823 18.045 82.88 18.045z" />
<glyph unicode="&#xe069;" glyph-name="book-formula-date" d="M768 874.667c58.91 0 106.667-47.756 106.667-106.667v-608c0-17.673-14.327-32-32-32h-608c0-23.565 19.103-42.667 42.667-42.667h565.333c17.673 0 32-14.327 32-32s-14.327-32-32-32h-565.333c-58.91 0-106.667 47.757-106.667 106.667v640c0 58.91 47.756 106.667 106.667 106.667h490.667zM528 703.792c-111.93 0-202.667-90.737-202.667-202.668 0-111.927 90.737-202.667 202.667-202.667 111.932 0 202.667 90.739 202.667 202.667 0 111.93-90.735 202.668-202.667 202.668zM528 597.333c13.39 0 24.473-9.867 26.378-22.726l0.289-3.941v-69.333h32c14.729 0 26.667-11.938 26.667-26.667 0-13.39-9.866-24.473-22.726-26.378l-3.941-0.289h-53.333c-0.9 0-1.788 0.043-2.667 0.132l-2.667-0.132c-13.39 0-24.473 9.866-26.378 22.726l-0.289 3.941v96c0 14.728 11.938 26.667 26.667 26.667z" />
<glyph unicode="&#xe06a;" glyph-name="book-formula-engineering" d="M768 874.667c58.91 0 106.667-47.756 106.667-106.667v-608c0-17.673-14.327-32-32-32h-608c0-23.565 19.103-42.667 42.667-42.667h565.333c17.673 0 32-14.327 32-32s-14.327-32-32-32h-565.333c-58.91 0-106.667 47.757-106.667 106.667v640c0 58.91 47.756 106.667 106.667 106.667h490.667zM522.667 746.667c-17.673 0-32-14.327-32-32v-68.417c-49.246-13.929-85.332-59.209-85.332-112.916 0-33.31 13.881-63.377 36.172-84.736l-55.217-138.048c-6.564-16.405 1.418-35.029 17.827-41.596 16.409-6.562 35.031 1.421 41.597 17.83l52.689 131.729c7.829-1.647 15.949-2.513 24.265-2.513 8.32 0 16.435 0.866 24.265 2.513l52.693-131.729c6.562-16.41 25.186-24.393 41.596-17.83 16.405 6.566 24.388 25.19 17.826 41.596l-55.219 138.048c22.293 21.359 36.173 51.426 36.173 84.736 0 53.708-36.083 98.988-85.333 112.916v68.417c0 17.673-14.327 32-32 32zM522.667 586.667c29.457 0 53.333-23.878 53.333-53.333 0-29.457-23.876-53.333-53.333-53.333-29.453 0-53.333 23.876-53.333 53.333 0 29.455 23.881 53.333 53.333 53.333z" />
<glyph unicode="&#xe06b;" glyph-name="book-formula-financial" d="M768 874.667c58.91 0 106.667-47.756 106.667-106.667v-608c0-17.673-14.327-32-32-32h-608c0-23.565 19.103-42.667 42.667-42.667h565.333c17.673 0 32-14.327 32-32s-14.327-32-32-32h-565.333c-58.91 0-106.667 47.757-106.667 106.667v640c0 58.91 47.756 106.667 106.667 106.667h490.667zM682.445 410.022c-35.204-28.894-88.922-47.36-149.111-47.36s-113.908 18.466-149.111 47.36c-0.147-1.553-0.222-3.119-0.222-4.693 0-47.13 66.859-85.333 149.333-85.333s149.333 38.204 149.333 85.333c0 1.574-0.073 3.14-0.222 4.693zM682.445 495.356c-35.204-28.894-88.922-47.36-149.111-47.36s-113.908 18.466-149.111 47.36c-0.148-1.557-0.223-3.123-0.223-4.702 0-47.125 66.859-85.333 149.333-85.333s149.333 38.208 149.333 85.333c0 1.579-0.077 3.145-0.222 4.702zM533.333 661.333c-36.958 0-71.723-7.108-98.244-19.793-24.57-11.751-51.089-33.172-51.089-65.541s26.519-53.79 51.089-65.54c26.522-12.685 61.286-19.793 98.244-19.793s71.723 7.108 98.244 19.793c24.572 11.75 51.089 33.172 51.089 65.54s-26.517 53.789-51.089 65.541c-26.522 12.684-61.286 19.793-98.244 19.793z" />
<glyph unicode="&#xe06c;" glyph-name="book-formula-information" d="M170.667 768c0 58.91 47.756 106.667 106.667 106.667h490.667c58.91 0 106.667-47.756 106.667-106.667v-608c0-17.673-14.327-32-32-32h-608c0-23.565 19.103-42.667 42.667-42.667h565.333c17.673 0 32-14.327 32-32s-14.327-32-32-32h-565.333c-58.91 0-106.667 47.757-106.667 106.667v640zM522.667 618.667c23.565 0 42.667 19.103 42.667 42.667s-19.102 42.667-42.667 42.667c-23.565 0-42.667-19.103-42.667-42.667s19.102-42.667 42.667-42.667zM490.667 544v-213.333c0-17.673 14.327-32 32-32s32 14.327 32 32v213.333c0 17.673-14.327 32-32 32s-32-14.327-32-32z" />
<glyph unicode="&#xe06d;" glyph-name="book-formula-logical" d="M768 874.667c58.91 0 106.667-47.756 106.667-106.667v-608c0-17.673-14.327-32-32-32h-608c0-23.565 19.103-42.667 42.667-42.667h565.333c17.673 0 32-14.327 32-32s-14.327-32-32-32h-565.333c-58.91 0-106.667 47.757-106.667 106.667v640c0 58.91 47.756 106.667 106.667 106.667h490.667zM522.667 384c-23.565 0-42.667-19.102-42.667-42.667s19.102-42.667 42.667-42.667c23.565 0 42.667 19.102 42.667 42.667s-19.102 42.667-42.667 42.667zM533.888 714.662c-56.098 0.974-90.901-18.164-110.273-44.329-9.081-12.265-13.6-24.57-15.865-33.826-1.139-4.653-1.738-8.657-2.056-11.692-0.159-1.523-0.249-2.819-0.3-3.852-0.031-0.625-0.048-1.251-0.059-1.877l0.005-0.732c0.117-3.521 1.992-31.687 31.992-31.687 17.425 0 31.595 13.925 31.991 31.252v0c0.081 0.787 0.23 1.9 0.593 3.377 0.734 3.004 2.214 7.012 5.133 10.955 4.629 6.252 17.826 19.114 57.728 18.421 23.471-0.407 40.828-10.076 50.3-21.83 9.088-11.282 12.049-25.525 5.875-40.957-4.983-12.459-15.974-18.77-39.087-28.972v0l-1.638-0.721c-9.451-4.157-22.857-10.054-33.527-18.605-13.282-10.643-24.034-26.601-24.034-48.919v0-32.004c0.004-17.673 14.332-31.996 32.004-31.996 17.673 0.004 32 14.362 31.996 32.034v0 30.895c3.469 2.782 9.161 5.521 21.043 10.765v0l2.176 0.96c20.083 8.815 55.040 24.166 70.494 62.796 15.159 37.902 7.45 76.437-15.462 104.877-22.532 27.968-58.509 44.966-99.029 45.669z" />
<glyph unicode="&#xe06e;" glyph-name="book-formula-lookup" d="M768 874.667c58.91 0 106.667-47.756 106.667-106.667v-608c0-17.673-14.327-32-32-32h-608c0-23.565 19.103-42.667 42.667-42.667h565.333c17.673 0 32-14.327 32-32s-14.327-32-32-32h-565.333c-58.91 0-106.667 47.757-106.667 106.667v640c0 58.91 47.756 106.667 106.667 106.667h490.667zM500.211 704c-87.746 0-158.878-71.132-158.878-158.877s71.132-158.879 158.878-158.879c32.695 0 63.108 9.89 88.375 26.833l105.647-105.643 3.174-2.705c12.096-8.973 29.248-7.987 40.213 2.982 12.062 12.058 12.062 31.607 0 43.665l-105.365 105.37c16.943 25.267 26.833 55.68 26.833 88.376 0 87.745-71.134 158.877-158.878 158.877zM500.211 642.246c53.641 0 97.122-43.483 97.122-97.123 0-53.641-43.482-97.123-97.122-97.123s-97.123 43.482-97.123 97.123c0 53.639 43.483 97.123 97.123 97.123z" />
<glyph unicode="&#xe06f;" glyph-name="book-formula-math" d="M768 874.667c58.91 0 106.667-47.756 106.667-106.667v-608c0-17.673-14.327-32-32-32h-608c0-23.565 19.103-42.667 42.667-42.667h565.333c17.673 0 32-14.327 32-32s-14.327-32-32-32h-565.333c-58.91 0-106.667 47.757-106.667 106.667v640c0 58.91 47.756 106.667 106.667 106.667h490.667zM533.333 725.333c-94.255 0-170.667-105.064-170.667-234.667s76.412-234.667 170.667-234.667 170.667 105.062 170.667 234.667c0 129.603-76.412 234.667-170.667 234.667zM636.471 448c-5.811-34.381-18.347-63.804-34.219-85.623-22.153-30.46-47.313-42.377-68.919-42.377s-46.767 11.917-68.919 42.377c-14.108 19.395-25.581 44.798-32.037 74.35l-2.181 11.273h206.276zM533.333 661.333c21.606 0 46.767-11.916 68.919-42.375 19.063-26.212 33.318-63.395 36.881-106.958h-211.601c3.563 43.563 17.818 80.746 36.881 106.958 22.153 30.459 47.313 42.375 68.919 42.375z" />
<glyph unicode="&#xe070;" glyph-name="book-formula-recent" d="M768 874.667c58.91 0 106.667-47.756 106.667-106.667v-608c0-17.673-14.327-32-32-32h-608c0-23.565 19.103-42.667 42.667-42.667h565.333c17.673 0 32-14.327 32-32s-14.327-32-32-32h-565.333c-58.91 0-106.667 47.757-106.667 106.667v640c0 58.91 47.756 106.667 106.667 106.667h490.667zM548.612 687.872c-9.904 20.070-37.276 21.408-49.509 4.014l-2.378-4.014-46.95-95.13-104.982-15.255c-22.247-3.233-31.966-29.066-18.945-46.073l2.91-3.274 75.965-74.048-17.933-104.559c-3.815-22.243 17.935-39.52 38.203-32.17l3.776 1.672 93.897 49.365 93.901-49.365c19.974-10.505 43.127 4.845 42.402 26.391l-0.422 4.108-17.937 104.559 75.968 74.048c16.096 15.69 8.777 42.302-11.755 48.409l-4.279 0.939-104.981 15.255-46.95 95.13zM522.667 609.694l27.738-56.2c3.613-7.319 10.114-12.713 17.832-14.967l3.953-0.86 62.020-9.010-44.881-43.746c-5.682-5.54-8.789-13.115-8.736-20.915l0.416-4.693 10.594-61.773-55.471 29.167c-7.026 3.691-15.189 4.306-22.592 1.845l-4.335-1.845-55.475-29.167 10.594 61.773c1.344 7.819-0.595 15.774-5.224 22.055l-3.096 3.554-44.877 43.746 62.020 9.010c8.079 1.174 15.217 5.69 19.746 12.334l2.039 3.494 27.733 56.2z" />
<glyph unicode="&#xe071;" glyph-name="book-formula-statistics" d="M170.667 768c0 58.91 47.756 106.667 106.667 106.667h490.667c58.91 0 106.667-47.756 106.667-106.667v-608c0-17.673-14.327-32-32-32h-608c0-23.565 19.103-42.667 42.667-42.667h565.333c17.673 0 32-14.327 32-32s-14.327-32-32-32h-565.333c-58.91 0-106.667 47.757-106.667 106.667v640zM498.803 641.802c-4.864 11.5-15.974 19.119-28.454 19.515s-24.051-6.505-29.636-17.673l-65.823-131.644h-44.223c-17.673 0-32-14.327-32-32s14.327-32 32-32h64c12.121 0 23.201 6.848 28.622 17.69l43.622 87.244 90.287-213.4c4.719-11.157 15.334-18.692 27.426-19.469 12.092-0.772 23.582 5.346 29.683 15.812l65.408 112.124h34.953c17.673 0 32 14.328 32 32s-14.327 32-32 32h-53.333c-11.383 0-21.905-6.046-27.639-15.876l-42.462-72.789-92.429 218.467z" />
<glyph unicode="&#xe072;" glyph-name="book-formula-text" d="M768 874.667c58.91 0 106.667-47.756 106.667-106.667v-608c0-17.673-14.327-32-32-32h-608c0-23.565 19.103-42.667 42.667-42.667h565.333c17.673 0 32-14.327 32-32s-14.327-32-32-32h-565.333c-58.91 0-106.667 47.757-106.667 106.667v640c0 58.91 47.756 106.667 106.667 106.667h490.667zM533.333 704c-11.394 0-21.795-6.042-27.499-15.635l-2.146-4.321-138.668-341.332c-6.652-16.375 1.229-35.038 17.603-41.69 15.009-6.097 31.944 0.016 39.786 13.688l1.905 3.912 35.227 86.711h147.588l35.226-86.711c6.652-16.371 25.314-24.252 41.69-17.6 15.011 6.097 22.884 22.287 18.968 37.556l-1.364 4.133-138.667 341.332c-4.902 12.065-16.627 19.956-29.649 19.956zM533.333 586.979l47.795-117.646h-95.586l47.791 117.646z" />
<glyph unicode="&#xe073;" glyph-name="book-globe" d="M170.667 768c0 58.91 47.756 106.667 106.667 106.667h490.667c58.91 0 106.667-47.756 106.667-106.667v-608c0-17.673-14.327-32-32-32h-608c0-23.565 19.103-42.667 42.667-42.667h565.333c17.673 0 32-14.327 32-32s-14.327-32-32-32h-565.333c-58.91 0-106.667 47.757-106.667 106.667v640zM450.185 688.314c-66.988-27.879-115.798-90.666-123.72-165.647h89.885c1.76 53.315 10.077 102.261 23.317 140.087 3.115 8.902 6.609 17.494 10.517 25.56zM592.67 693.255c4.924-9.463 9.237-19.755 12.996-30.501 13.239-37.827 21.555-86.773 23.317-140.087h100.553c-8.431 79.805-63.181 145.796-136.866 170.588zM564.945 522.667c-1.741 47.444-9.195 88.97-19.686 118.945-6.067 17.343-12.561 29.097-18.18 35.889-1.946 2.348-3.422 3.701-4.412 4.464-0.99-0.762-2.466-2.116-4.412-4.464-5.619-6.793-12.113-18.546-18.18-35.889-10.492-29.975-17.946-71.5-19.686-118.945h84.557zM481.579 458.667c2.901-38.545 9.609-72.222 18.496-97.613 6.067-17.34 12.561-29.094 18.18-35.887 1.946-2.351 3.422-3.703 4.412-4.467 0.99 0.764 2.466 2.116 4.412 4.467 5.619 6.793 12.113 18.547 18.18 35.887 8.887 25.391 15.595 59.068 18.496 97.613h-82.176zM417.417 458.667h-87.63c14.008-65.715 59.869-119.637 120.649-144.836-4.011 8.218-7.586 16.986-10.769 26.082-11.452 32.721-19.222 73.762-22.25 118.754zM592.405 308.907c67.268 22.528 118.805 79.381 133.807 149.76h-98.295c-3.029-44.992-10.799-86.033-22.251-118.754-3.827-10.935-8.226-21.406-13.261-31.006z" />
<glyph unicode="&#xe074;" glyph-name="bookmark" d="M264.13 27.566c-21.169-15.23-50.689-0.102-50.689 25.976v639.826c0 76.583 62.083 138.667 138.667 138.667h319.931c76.583 0 138.667-62.083 138.667-138.667v-639.826c0-26.078-29.52-41.206-50.689-25.976l-247.944 178.387-247.944-178.387z" />
<glyph unicode="&#xe075;" glyph-name="bookmark-off" d="M139.961 865.294c-12.497 12.497-32.758 12.497-45.255 0.001s-12.497-32.758-0.001-45.255l118.949-118.951c-0.14-2.556-0.212-5.13-0.212-7.721v-639.826c0-26.078 29.52-41.207 50.689-25.975l247.945 178.385 247.94-178.385c21.171-15.232 50.692-0.102 50.692 25.975v50.479l73.318-73.323c12.497-12.497 32.759-12.497 45.257 0s12.497 32.759 0 45.257l-789.323 789.338zM810.709 693.368v-408.321l-528.247 528.254c20.467 11.911 44.26 18.733 69.647 18.733h319.933c76.582 0 138.667-62.083 138.667-138.667z" />
</font>
</defs>
</svg>
