<?xml version="1.0" standalone="no"?>
<!DOCTYPE svg PUBLIC "-//W3C//DTD SVG 1.1//EN" "http://www.w3.org/Graphics/SVG/1.1/DTD/svg11.dtd" >
<svg xmlns="http://www.w3.org/2000/svg">
<metadata>
<json>
<![CDATA[
{
	"fontFamily": "Unicons-Line",
	"fontURL": "https://github.com/Iconscout/unicons",
	"designer": "",
	"designerURL": "",
	"license": "SIL OFL 1.1",
	"licenseURL": "http://scripts.sil.org/OFL",
	"description": "Font generated by IcoMoon.",
	"majorVersion": 1,
	"minorVersion": 0,
	"version": "Version 1.0",
	"fontId": "Unicons-Line",
	"psName": "Unicons-Line",
	"subFamily": "Regular",
	"fullName": "Unicons-Line"
}
]]>
</json>
</metadata>
<defs>
<font id="Unicons-Line" horiz-adv-x="1024">
<font-face units-per-em="1024" ascent="960" descent="-64" />
<missing-glyph horiz-adv-x="1024" />
<glyph unicode="&#x20;" horiz-adv-x="512" d="" />
<glyph unicode="&#xe900;" glyph-name="plus-0" data-tags="plus" d="M768 746.667h42.667v-42.667c0-23.564 19.103-42.667 42.667-42.667s42.667 19.103 42.667 42.667v0 42.667h42.667c23.564 0 42.667 19.103 42.667 42.667s-19.103 42.667-42.667 42.667v0h-42.667v42.667c0 23.564-19.103 42.667-42.667 42.667s-42.667-19.103-42.667-42.667v0-42.667h-42.667c-23.564 0-42.667-19.103-42.667-42.667s19.103-42.667 42.667-42.667v0zM533.333 704h-42.667c-70.692 0-128-57.308-128-128v0-256c0-70.692 57.308-128 128-128v0h42.667c70.692 0 128 57.308 128 128v0 256c0 70.692-57.308 128-128 128v0zM576 320c0-23.564-19.103-42.667-42.667-42.667v0h-42.667c-23.564 0-42.667 19.103-42.667 42.667v0 256c0 23.564 19.103 42.667 42.667 42.667v0h42.667c23.564 0 42.667-19.103 42.667-42.667v0zM921.6 576c-19.619-4.105-34.143-21.26-34.143-41.807 0-3.023 0.314-5.973 0.912-8.818l-0.049 0.278c5.017-23.281 7.89-50.026 7.89-77.443 0-212.077-171.923-384-384-384s-384 171.923-384 384c0 212.077 171.923 384 384 384 27.417 0 54.162-2.873 79.952-8.335l-2.509 0.445c2.565-0.537 5.513-0.845 8.533-0.845 24.031 0 43.512 19.481 43.512 43.512 0 21.011-14.892 38.544-34.697 42.618l-0.281 0.048c-25.377 4.959-54.558 7.796-84.401 7.796-3.629 0-7.247-0.042-10.856-0.125l0.537 0.010c-259.206 0-469.333-210.128-469.333-469.333s210.128-469.333 469.333-469.333c259.206 0 469.333 210.128 469.333 469.333v0c0.001 0.393 0.002 0.858 0.002 1.323 0 32.761-3.419 64.723-9.919 95.55l0.531-3.006c-3.773 20.022-21.125 34.965-41.966 34.965-2.966 0-5.861-0.303-8.657-0.879l0.276 0.047z" />
<glyph unicode="&#xe901;" glyph-name="plus-3" data-tags="plus" d="M768 746.667h42.667v-42.667c0-23.564 19.103-42.667 42.667-42.667s42.667 19.103 42.667 42.667v0 42.667h42.667c23.564 0 42.667 19.103 42.667 42.667s-19.103 42.667-42.667 42.667v0h-42.667v42.667c0 23.564-19.103 42.667-42.667 42.667s-42.667-19.103-42.667-42.667v0-42.667h-42.667c-23.564 0-42.667-19.103-42.667-42.667s19.103-42.667 42.667-42.667v0zM661.333 576c0 70.692-57.308 128-128 128v0h-42.667c-70.692 0-128-57.308-128-128v0c0-23.564 19.103-42.667 42.667-42.667s42.667 19.103 42.667 42.667v0c0 23.564 19.103 42.667 42.667 42.667v0h42.667c23.564 0 42.667-19.103 42.667-42.667v0-42.667c0-23.564-19.103-42.667-42.667-42.667v0h-21.333c-23.564 0-42.667-19.103-42.667-42.667s19.103-42.667 42.667-42.667v0h21.333c23.564 0 42.667-19.103 42.667-42.667v0-42.667c0-23.564-19.103-42.667-42.667-42.667v0h-42.667c-23.564 0-42.667 19.103-42.667 42.667v0c0 23.564-19.103 42.667-42.667 42.667s-42.667-19.103-42.667-42.667v0c0-70.692 57.308-128 128-128v0h42.667c70.692 0 128 57.308 128 128v0 42.667c-0.203 32.927-12.807 62.872-33.371 85.435l0.091-0.102c20.473 22.461 33.077 52.406 33.28 85.292v0.041zM921.6 576c-19.619-4.105-34.143-21.26-34.143-41.807 0-3.023 0.314-5.973 0.912-8.818l-0.049 0.278c5.017-23.281 7.89-50.026 7.89-77.443 0-212.077-171.923-384-384-384s-384 171.923-384 384c0 212.077 171.923 384 384 384 27.417 0 54.162-2.873 79.952-8.335l-2.509 0.445c2.565-0.537 5.513-0.845 8.533-0.845 24.031 0 43.512 19.481 43.512 43.512 0 21.011-14.892 38.544-34.697 42.618l-0.281 0.048c-25.377 4.959-54.558 7.796-84.401 7.796-3.629 0-7.247-0.042-10.856-0.125l0.537 0.010c-259.206 0-469.333-210.128-469.333-469.333s210.128-469.333 469.333-469.333c259.206 0 469.333 210.128 469.333 469.333v0c0.001 0.393 0.002 0.858 0.002 1.323 0 32.761-3.419 64.723-9.919 95.55l0.531-3.006c-3.773 20.022-21.125 34.965-41.966 34.965-2.966 0-5.861-0.303-8.657-0.879l0.276 0.047z" />
<glyph unicode="&#xe902;" glyph-name="plus-6" data-tags="plus" d="M768 746.667h42.667v-42.667c0-23.564 19.103-42.667 42.667-42.667s42.667 19.103 42.667 42.667v0 42.667h42.667c23.564 0 42.667 19.103 42.667 42.667s-19.103 42.667-42.667 42.667v0h-42.667v42.667c0 23.564-19.103 42.667-42.667 42.667s-42.667-19.103-42.667-42.667v0-42.667h-42.667c-23.564 0-42.667-19.103-42.667-42.667s19.103-42.667 42.667-42.667v0zM490.667 618.667h42.667c23.564 0 42.667-19.103 42.667-42.667v0c0-23.564 19.103-42.667 42.667-42.667s42.667 19.103 42.667 42.667v0c0 70.692-57.308 128-128 128v0h-42.667c-70.692 0-128-57.308-128-128v0-256c0-70.692 57.308-128 128-128v0h42.667c70.692 0 128 57.308 128 128v0 42.667c0 70.692-57.308 128-128 128v0h-85.333v85.333c0 23.564 19.103 42.667 42.667 42.667v0zM533.333 405.333c23.564 0 42.667-19.103 42.667-42.667v0-42.667c0-23.564-19.103-42.667-42.667-42.667v0h-42.667c-23.564 0-42.667 19.103-42.667 42.667v0 85.333zM921.6 576c-19.619-4.105-34.143-21.26-34.143-41.807 0-3.023 0.314-5.973 0.912-8.818l-0.049 0.278c5.017-23.281 7.89-50.026 7.89-77.443 0-212.077-171.923-384-384-384s-384 171.923-384 384c0 212.077 171.923 384 384 384 27.417 0 54.162-2.873 79.952-8.335l-2.509 0.445c2.565-0.537 5.513-0.845 8.533-0.845 24.031 0 43.512 19.481 43.512 43.512 0 21.011-14.892 38.544-34.697 42.618l-0.281 0.048c-25.377 4.959-54.558 7.796-84.401 7.796-3.629 0-7.247-0.042-10.856-0.125l0.537 0.010c-259.206 0-469.333-210.128-469.333-469.333s210.128-469.333 469.333-469.333c259.206 0 469.333 210.128 469.333 469.333v0c0.001 0.393 0.002 0.858 0.002 1.323 0 32.761-3.419 64.723-9.919 95.55l0.531-3.006c-3.773 20.022-21.125 34.965-41.966 34.965-2.966 0-5.861-0.303-8.657-0.879l0.276 0.047z" />
<glyph unicode="&#xe903;" glyph-name="plus3" data-tags="plus" d="M768 746.667h42.667v-42.667c0-23.564 19.103-42.667 42.667-42.667s42.667 19.103 42.667 42.667v0 42.667h42.667c23.564 0 42.667 19.103 42.667 42.667s-19.103 42.667-42.667 42.667v0h-42.667v42.667c0 23.564-19.103 42.667-42.667 42.667s-42.667-19.103-42.667-42.667v0-42.667h-42.667c-23.564 0-42.667-19.103-42.667-42.667s19.103-42.667 42.667-42.667v0zM469.333 576v-256c0-70.692 57.308-128 128-128v0h42.667c70.692 0 128 57.308 128 128v0 256c0 70.692-57.308 128-128 128v0h-42.667c-70.692 0-128-57.308-128-128v0zM682.667 576v-256c0-23.564-19.103-42.667-42.667-42.667v0h-42.667c-23.564 0-42.667 19.103-42.667 42.667v0 256c0 23.564 19.103 42.667 42.667 42.667v0h42.667c23.564 0 42.667-19.103 42.667-42.667v0zM921.6 576c-19.619-4.105-34.143-21.26-34.143-41.807 0-3.023 0.314-5.973 0.912-8.818l-0.049 0.278c5.017-23.281 7.89-50.026 7.89-77.443 0-212.077-171.923-384-384-384s-384 171.923-384 384c0 212.077 171.923 384 384 384 27.417 0 54.162-2.873 79.952-8.335l-2.509 0.445c2.565-0.537 5.513-0.845 8.533-0.845 24.031 0 43.512 19.481 43.512 43.512 0 21.011-14.892 38.544-34.697 42.618l-0.281 0.048c-25.377 4.959-54.558 7.796-84.401 7.796-3.629 0-7.247-0.042-10.856-0.125l0.537 0.010c-259.206 0-469.333-210.128-469.333-469.333s210.128-469.333 469.333-469.333c259.206 0 469.333 210.128 469.333 469.333v0c0.001 0.393 0.002 0.858 0.002 1.323 0 32.761-3.419 64.723-9.919 95.55l0.531-3.006c-3.773 20.022-21.125 34.965-41.966 34.965-2.966 0-5.861-0.303-8.657-0.879l0.276 0.047zM298.667 661.333v-426.667c0-23.564 19.103-42.667 42.667-42.667s42.667 19.103 42.667 42.667v0 426.667c0 23.564-19.103 42.667-42.667 42.667s-42.667-19.103-42.667-42.667v0z" />
<glyph unicode="&#xe904;" glyph-name="plus12" data-tags="plus" d="M469.333 576c0-23.564 19.103-42.667 42.667-42.667s42.667 19.103 42.667 42.667v0c0 23.564 19.103 42.667 42.667 42.667v0h42.667c23.564 0 42.667-19.103 42.667-42.667v0-42.667c0-23.564-19.103-42.667-42.667-42.667v0h-42.667c-70.692 0-128-57.308-128-128v0-128c0-23.564 19.103-42.667 42.667-42.667v0h213.333c23.564 0 42.667 19.103 42.667 42.667s-19.103 42.667-42.667 42.667v0h-170.667v85.333c0 23.564 19.103 42.667 42.667 42.667v0h42.667c70.692 0 128 57.308 128 128v0 42.667c0 70.692-57.308 128-128 128v0h-42.667c-70.692 0-128-57.308-128-128v0zM768 746.667h42.667v-42.667c0-23.564 19.103-42.667 42.667-42.667s42.667 19.103 42.667 42.667v0 42.667h42.667c23.564 0 42.667 19.103 42.667 42.667s-19.103 42.667-42.667 42.667v0h-42.667v42.667c0 23.564-19.103 42.667-42.667 42.667s-42.667-19.103-42.667-42.667v0-42.667h-42.667c-23.564 0-42.667-19.103-42.667-42.667s19.103-42.667 42.667-42.667v0zM298.667 661.333v-426.667c0-23.564 19.103-42.667 42.667-42.667s42.667 19.103 42.667 42.667v0 426.667c0 23.564-19.103 42.667-42.667 42.667s-42.667-19.103-42.667-42.667v0zM921.6 576c-19.619-4.105-34.143-21.26-34.143-41.807 0-3.023 0.314-5.973 0.912-8.818l-0.049 0.278c5.017-23.281 7.89-50.026 7.89-77.443 0-212.077-171.923-384-384-384s-384 171.923-384 384c0 212.077 171.923 384 384 384 27.417 0 54.162-2.873 79.952-8.335l-2.509 0.445c2.565-0.537 5.513-0.845 8.533-0.845 24.031 0 43.512 19.481 43.512 43.512 0 21.011-14.892 38.544-34.697 42.618l-0.281 0.048c-25.377 4.959-54.558 7.796-84.401 7.796-3.629 0-7.247-0.042-10.856-0.125l0.537 0.010c-259.206 0-469.333-210.128-469.333-469.333s210.128-469.333 469.333-469.333c259.206 0 469.333 210.128 469.333 469.333v0c0.001 0.393 0.002 0.858 0.002 1.323 0 32.761-3.419 64.723-9.919 95.55l0.531-3.006c-3.773 20.022-21.125 34.965-41.966 34.965-2.966 0-5.861-0.303-8.657-0.879l0.276 0.047z" />
<glyph unicode="&#xe905;" glyph-name="plus13" data-tags="plus" d="M768 746.667h42.667v-42.667c0-23.564 19.103-42.667 42.667-42.667s42.667 19.103 42.667 42.667v0 42.667h42.667c23.564 0 42.667 19.103 42.667 42.667s-19.103 42.667-42.667 42.667v0h-42.667v42.667c0 23.564-19.103 42.667-42.667 42.667s-42.667-19.103-42.667-42.667v0-42.667h-42.667c-23.564 0-42.667-19.103-42.667-42.667s19.103-42.667 42.667-42.667v0zM469.333 576c0-23.564 19.103-42.667 42.667-42.667s42.667 19.103 42.667 42.667v0c0 23.564 19.103 42.667 42.667 42.667v0h42.667c23.564 0 42.667-19.103 42.667-42.667v0-42.667c0-23.564-19.103-42.667-42.667-42.667v0h-21.333c-23.564 0-42.667-19.103-42.667-42.667s19.103-42.667 42.667-42.667v0h21.333c23.564 0 42.667-19.103 42.667-42.667v0-42.667c0-23.564-19.103-42.667-42.667-42.667v0h-42.667c-23.564 0-42.667 19.103-42.667 42.667v0c0 23.564-19.103 42.667-42.667 42.667s-42.667-19.103-42.667-42.667v0c0-70.692 57.308-128 128-128v0h42.667c70.692 0 128 57.308 128 128v0 42.667c-0.203 32.927-12.807 62.872-33.371 85.435l0.091-0.102c20.473 22.461 33.077 52.406 33.28 85.292v42.708c0 70.692-57.308 128-128 128v0h-42.667c-70.692 0-128-57.308-128-128v0zM298.667 661.333v-426.667c0-23.564 19.103-42.667 42.667-42.667s42.667 19.103 42.667 42.667v0 426.667c0 23.564-19.103 42.667-42.667 42.667s-42.667-19.103-42.667-42.667v0zM921.6 576c-19.619-4.105-34.143-21.26-34.143-41.807 0-3.023 0.314-5.973 0.912-8.818l-0.049 0.278c5.017-23.281 7.89-50.026 7.89-77.443 0-212.077-171.923-384-384-384s-384 171.923-384 384c0 212.077 171.923 384 384 384 27.417 0 54.162-2.873 79.952-8.335l-2.509 0.445c2.565-0.537 5.513-0.845 8.533-0.845 24.031 0 43.512 19.481 43.512 43.512 0 21.011-14.892 38.544-34.697 42.618l-0.281 0.048c-25.377 4.959-54.558 7.796-84.401 7.796-3.629 0-7.247-0.042-10.856-0.125l0.537 0.010c-259.206 0-469.333-210.128-469.333-469.333s210.128-469.333 469.333-469.333c259.206 0 469.333 210.128 469.333 469.333v0c0.001 0.393 0.002 0.858 0.002 1.323 0 32.761-3.419 64.723-9.919 95.55l0.531-3.006c-3.773 20.022-21.125 34.965-41.966 34.965-2.966 0-5.861-0.303-8.657-0.879l0.276 0.047z" />
<glyph unicode="&#xe906;" glyph-name="plus-16" data-tags="plus" d="M768 746.667h42.667v-42.667c0-23.564 19.103-42.667 42.667-42.667s42.667 19.103 42.667 42.667v0 42.667h42.667c23.564 0 42.667 19.103 42.667 42.667s-19.103 42.667-42.667 42.667v0h-42.667v42.667c0 23.564-19.103 42.667-42.667 42.667s-42.667-19.103-42.667-42.667v0-42.667h-42.667c-23.564 0-42.667-19.103-42.667-42.667s19.103-42.667 42.667-42.667v0zM921.6 576c-19.619-4.105-34.143-21.26-34.143-41.807 0-3.023 0.314-5.973 0.912-8.818l-0.049 0.278c5.017-23.281 7.89-50.026 7.89-77.443 0-212.077-171.923-384-384-384s-384 171.923-384 384c0 212.077 171.923 384 384 384 27.417 0 54.162-2.873 79.952-8.335l-2.509 0.445c2.565-0.537 5.513-0.845 8.533-0.845 24.031 0 43.512 19.481 43.512 43.512 0 21.011-14.892 38.544-34.697 42.618l-0.281 0.048c-25.377 4.959-54.558 7.796-84.401 7.796-3.629 0-7.247-0.042-10.856-0.125l0.537 0.010c-259.206 0-469.333-210.128-469.333-469.333s210.128-469.333 469.333-469.333c259.206 0 469.333 210.128 469.333 469.333v0c0.001 0.393 0.002 0.858 0.002 1.323 0 32.761-3.419 64.723-9.919 95.55l0.531-3.006c-3.773 20.022-21.125 34.965-41.966 34.965-2.966 0-5.861-0.303-8.657-0.879l0.276 0.047zM298.667 661.333v-426.667c0-23.564 19.103-42.667 42.667-42.667s42.667 19.103 42.667 42.667v0 426.667c0 23.564-19.103 42.667-42.667 42.667s-42.667-19.103-42.667-42.667v0zM469.333 576v-256c0-70.692 57.308-128 128-128v0h42.667c70.692 0 128 57.308 128 128v0 42.667c0 70.692-57.308 128-128 128v0h-85.333v85.333c0 23.564 19.103 42.667 42.667 42.667v0h42.667c23.564 0 42.667-19.103 42.667-42.667v0c0-23.564 19.103-42.667 42.667-42.667s42.667 19.103 42.667 42.667v0c0 70.692-57.308 128-128 128v0h-42.667c-70.692 0-128-57.308-128-128v0zM640 405.333c23.564 0 42.667-19.103 42.667-42.667v0-42.667c0-23.564-19.103-42.667-42.667-42.667v0h-42.667c-23.564 0-42.667 19.103-42.667 42.667v0 85.333z" />
<glyph unicode="&#xe907;" glyph-name="plus-17" data-tags="plus" d="M469.333 661.333v-85.333c0-23.564 19.103-42.667 42.667-42.667s42.667 19.103 42.667 42.667v0 42.667h118.613l-75.947-375.467c-0.638-2.766-1.004-5.942-1.004-9.203 0-20.903 15.032-38.295 34.875-41.957l0.263-0.040h8.533c0.256-0.006 0.558-0.009 0.86-0.009 20.547 0 37.701 14.523 41.758 33.864l0.049 0.278 85.333 426.667c0.512 2.48 0.805 5.33 0.805 8.249 0 10.354-3.688 19.846-9.822 27.235l0.057-0.070c-7.885 9.667-19.796 15.79-33.138 15.79-0.2 0-0.4-0.001-0.599-0.004h-213.303c-23.564 0-42.667-19.103-42.667-42.667v0zM768 746.667h42.667v-42.667c0-23.564 19.103-42.667 42.667-42.667s42.667 19.103 42.667 42.667v0 42.667h42.667c23.564 0 42.667 19.103 42.667 42.667s-19.103 42.667-42.667 42.667v0h-42.667v42.667c0 23.564-19.103 42.667-42.667 42.667s-42.667-19.103-42.667-42.667v0-42.667h-42.667c-23.564 0-42.667-19.103-42.667-42.667s19.103-42.667 42.667-42.667v0zM298.667 661.333v-426.667c0-23.564 19.103-42.667 42.667-42.667s42.667 19.103 42.667 42.667v0 426.667c0 23.564-19.103 42.667-42.667 42.667s-42.667-19.103-42.667-42.667v0zM921.6 576c-19.619-4.105-34.143-21.26-34.143-41.807 0-3.023 0.314-5.973 0.912-8.818l-0.049 0.278c5.017-23.281 7.89-50.026 7.89-77.443 0-212.077-171.923-384-384-384s-384 171.923-384 384c0 212.077 171.923 384 384 384 27.417 0 54.162-2.873 79.952-8.335l-2.509 0.445c2.565-0.537 5.513-0.845 8.533-0.845 24.031 0 43.512 19.481 43.512 43.512 0 21.011-14.892 38.544-34.697 42.618l-0.281 0.048c-25.377 4.959-54.558 7.796-84.401 7.796-3.629 0-7.247-0.042-10.856-0.125l0.537 0.010c-259.206 0-469.333-210.128-469.333-469.333s210.128-469.333 469.333-469.333c259.206 0 469.333 210.128 469.333 469.333v0c0.001 0.393 0.002 0.858 0.002 1.323 0 32.761-3.419 64.723-9.919 95.55l0.531-3.006c-3.773 20.022-21.125 34.965-41.966 34.965-2.966 0-5.861-0.303-8.657-0.879l0.276 0.047z" />
<glyph unicode="&#xe908;" glyph-name="plus-18" data-tags="plus" d="M768 746.667h42.667v-42.667c0-23.564 19.103-42.667 42.667-42.667s42.667 19.103 42.667 42.667v0 42.667h42.667c23.564 0 42.667 19.103 42.667 42.667s-19.103 42.667-42.667 42.667v0h-42.667v42.667c0 23.564-19.103 42.667-42.667 42.667s-42.667-19.103-42.667-42.667v0-42.667h-42.667c-23.564 0-42.667-19.103-42.667-42.667s19.103-42.667 42.667-42.667v0zM298.667 661.333v-426.667c0-23.564 19.103-42.667 42.667-42.667s42.667 19.103 42.667 42.667v0 426.667c0 23.564-19.103 42.667-42.667 42.667s-42.667-19.103-42.667-42.667v0zM921.6 576c-19.619-4.105-34.143-21.26-34.143-41.807 0-3.023 0.314-5.973 0.912-8.818l-0.049 0.278c5.017-23.281 7.89-50.026 7.89-77.443 0-212.077-171.923-384-384-384s-384 171.923-384 384c0 212.077 171.923 384 384 384 27.417 0 54.162-2.873 79.952-8.335l-2.509 0.445c2.565-0.537 5.513-0.845 8.533-0.845 24.031 0 43.512 19.481 43.512 43.512 0 21.011-14.892 38.544-34.697 42.618l-0.281 0.048c-25.377 4.959-54.558 7.796-84.401 7.796-3.629 0-7.247-0.042-10.856-0.125l0.537 0.010c-259.206 0-469.333-210.128-469.333-469.333s210.128-469.333 469.333-469.333c259.206 0 469.333 210.128 469.333 469.333v0c0.001 0.393 0.002 0.858 0.002 1.323 0 32.761-3.419 64.723-9.919 95.55l0.531-3.006c-3.773 20.022-21.125 34.965-41.966 34.965-2.966 0-5.861-0.303-8.657-0.879l0.276 0.047zM469.333 576v-42.667c0.203-32.927 12.807-62.872 33.371-85.435l-0.091 0.102c-20.473-22.461-33.077-52.406-33.28-85.292v-42.708c0-70.692 57.308-128 128-128v0h42.667c70.692 0 128 57.308 128 128v0 42.667c-0.203 32.927-12.807 62.872-33.371 85.435l0.091-0.102c20.473 22.461 33.077 52.406 33.28 85.292v42.708c0 70.692-57.308 128-128 128v0h-42.667c-70.692 0-128-57.308-128-128v0zM682.667 320c0-23.564-19.103-42.667-42.667-42.667v0h-42.667c-23.564 0-42.667 19.103-42.667 42.667v0 42.667c0 23.564 19.103 42.667 42.667 42.667v0h42.667c23.564 0 42.667-19.103 42.667-42.667v0zM682.667 576v-42.667c0-23.564-19.103-42.667-42.667-42.667v0h-42.667c-23.564 0-42.667 19.103-42.667 42.667v0 42.667c0 23.564 19.103 42.667 42.667 42.667v0h42.667c23.564 0 42.667-19.103 42.667-42.667v0z" />
<glyph unicode="&#xe909;" glyph-name="plus-21" data-tags="plus" d="M725.333 192c23.564 0 42.667 19.103 42.667 42.667v0 426.667c0 23.564-19.103 42.667-42.667 42.667s-42.667-19.103-42.667-42.667v0-426.667c0-23.564 19.103-42.667 42.667-42.667v0zM768 746.667h42.667v-42.667c0-23.564 19.103-42.667 42.667-42.667s42.667 19.103 42.667 42.667v0 42.667h42.667c23.564 0 42.667 19.103 42.667 42.667s-19.103 42.667-42.667 42.667v0h-42.667v42.667c0 23.564-19.103 42.667-42.667 42.667s-42.667-19.103-42.667-42.667v0-42.667h-42.667c-23.564 0-42.667-19.103-42.667-42.667s19.103-42.667 42.667-42.667v0zM921.6 576c-19.619-4.105-34.143-21.26-34.143-41.807 0-3.023 0.314-5.973 0.912-8.818l-0.049 0.278c5.017-23.281 7.89-50.026 7.89-77.443 0-212.077-171.923-384-384-384s-384 171.923-384 384c0 212.077 171.923 384 384 384 27.417 0 54.162-2.873 79.952-8.335l-2.509 0.445c2.565-0.537 5.513-0.845 8.533-0.845 24.031 0 43.512 19.481 43.512 43.512 0 21.011-14.892 38.544-34.697 42.618l-0.281 0.048c-25.377 4.959-54.558 7.796-84.401 7.796-3.629 0-7.247-0.042-10.856-0.125l0.537 0.010c-259.206 0-469.333-210.128-469.333-469.333s210.128-469.333 469.333-469.333c259.206 0 469.333 210.128 469.333 469.333v0c0.001 0.393 0.002 0.858 0.002 1.323 0 32.761-3.419 64.723-9.919 95.55l0.531-3.006c-3.773 20.022-21.125 34.965-41.966 34.965-2.966 0-5.861-0.303-8.657-0.879l0.276 0.047zM426.667 405.333h42.667c70.692 0 128 57.308 128 128v0 42.667c0 70.692-57.308 128-128 128v0h-42.667c-70.692 0-128-57.308-128-128v0c0-23.564 19.103-42.667 42.667-42.667s42.667 19.103 42.667 42.667v0c0 23.564 19.103 42.667 42.667 42.667v0h42.667c23.564 0 42.667-19.103 42.667-42.667v0-42.667c0-23.564-19.103-42.667-42.667-42.667v0h-42.667c-70.692 0-128-57.308-128-128v0-128c0-23.564 19.103-42.667 42.667-42.667v0h213.333c23.564 0 42.667 19.103 42.667 42.667s-19.103 42.667-42.667 42.667v0h-170.667v85.333c0 23.564 19.103 42.667 42.667 42.667v0z" />
<glyph unicode="&#xe90a;" glyph-name="u500px" data-tags="px" d="M298.667 314.027c1.469-7.085 3.981-13.37 7.405-19.043l-0.151 0.27c14.373-34.575 34.427-64.071 59.289-88.729l0.018-0.018c24.986-24.722 54.563-44.863 87.328-59.024l1.845-0.71c31.26-14.026 67.755-22.196 106.157-22.196 0.779 0 1.558 0.003 2.335 0.010l-0.119-0.001c0.575-0.004 1.256-0.007 1.936-0.007 38.644 0 75.38 8.168 108.577 22.871l-1.713-0.677c34.459 14.875 63.895 35.014 88.759 59.746l-0.012-0.012c25.1 24.701 45.415 54.179 59.483 86.972l0.677 1.775c12.474 30.538 19.714 65.975 19.714 103.102 0 2.454-0.032 4.9-0.094 7.339l0.007-0.361c-0.096 39.42-8.085 76.949-22.469 111.124l0.709-1.898c-14.748 34.418-35.061 63.756-60.112 88.273l-0.048 0.047c-49.994 50.591-119.381 81.924-196.085 81.924-0.514 0-1.028-0.001-1.541-0.004h0.079c-39.892-0.401-77.674-8.998-111.883-24.181l1.803 0.715c-19.624-8.803-36.435-18.493-52.135-29.644l0.935 0.631c-18.246-12.202-34.162-25.407-48.603-40.069l-0.037-0.038v229.973h386.133c9.387 0 14.507 8.96 14.507 26.453s-5.547 26.027-14.933 26.027h-417.707c-0.23 0.012-0.499 0.019-0.769 0.019-4.81 0-9.117-2.151-12.013-5.544l-0.018-0.022c-3.161-3.1-5.121-7.416-5.121-12.189 0-0.065 0-0.13 0.001-0.194v0.010-323.413c0.316-5.325 3.092-9.941 7.197-12.763l0.056-0.037c4.96-3.583 10.832-6.253 17.187-7.625l0.306-0.055c2.744-0.876 5.899-1.382 9.173-1.382s6.43 0.505 9.394 1.442l-0.221-0.060c3.897 1.163 7.295 2.761 10.39 4.785l-0.15-0.092c2.208 2.149 4.177 4.524 5.874 7.094l0.099 0.159c11.295 15.897 23.351 29.849 36.595 42.573l0.098 0.094c39.972 41.099 95.8 66.599 157.583 66.599 1.45 0 2.896-0.014 4.339-0.042l-0.216 0.003c0.877 0.013 1.912 0.020 2.949 0.020 62.814 0 119.472-26.357 159.518-68.614l0.093-0.099c41.592-40.174 67.417-96.44 67.417-158.737 0-0.444-0.001-0.888-0.004-1.331v0.068c-0.279-30.86-6.684-60.149-18.054-86.813l0.561 1.48c-22.804-57.928-66.826-103.338-122.256-127.428l-1.477-0.572c-25.738-10.796-55.65-17.068-87.027-17.068-0.305 0-0.609 0.001-0.913 0.002h0.047c-0.511-0.004-1.116-0.007-1.72-0.007-41.982 0-81.182 11.912-114.404 32.542l0.925-0.535v198.4c0.221 29.551 11.701 56.379 30.358 76.443l-0.064-0.070c19.923 23.325 49.363 38.018 82.234 38.018 1.090 0 2.176-0.016 3.258-0.048l-0.159 0.004c1.403 0.062 3.048 0.098 4.701 0.098 31.563 0 60.106-12.933 80.617-33.789l0.015-0.016c19.802-19.708 32.057-46.984 32.057-77.123 0-1.237-0.021-2.469-0.062-3.696l0.005 0.179c0.001-0.13 0.001-0.285 0.001-0.439 0-64.33-52.15-116.48-116.48-116.48-0.6 0-1.2 0.005-1.798 0.014l0.091-0.001h-14.507l-15.787 2.987h-6.4c-8.96 2.56-15.787-4.267-20.907-20.48s-2.987-25.6 5.973-29.013c15.799-4.874 33.961-7.681 52.779-7.681 0.195 0 0.39 0 0.585 0.001h-0.030c0.629-0.009 1.371-0.014 2.115-0.014 45.994 0 87.561 18.952 117.319 49.473l0.033 0.034c30.58 29.596 49.562 71.013 49.562 116.864 0 1.665-0.025 3.325-0.075 4.978l0.006-0.242c0.021 0.964 0.033 2.101 0.033 3.24 0 45.378-18.992 86.319-49.46 115.311l-0.066 0.063c-29.49 30.301-70.667 49.099-116.234 49.099-1.137 0-2.27-0.012-3.402-0.035l0.169 0.003c-0.897 0.018-1.954 0.028-3.014 0.028-45.903 0-87.42-18.78-117.287-49.075l-0.019-0.019c-29.703-27.653-48.319-66.875-48.64-110.448v-162.191c-19.616 22.353-35.284 48.74-45.56 77.68l-0.52 1.68c-3.413 8.96-12.8 10.667-28.587 5.547s-23.467-12.373-20.48-20.907zM565.333 783.36c-2.134 0.047-4.649 0.074-7.17 0.074-48.872 0-95.391-10.070-137.598-28.247l2.261 0.867c-5.113-0.386-9.198-4.324-9.808-9.335l-0.005-0.051c0.213-6.658 1.604-12.933 3.97-18.705l-0.13 0.358c5.973-14.933 12.8-20.48 21.333-17.493 37.067 14.842 80.033 23.455 125.009 23.467h0.005c0.789 0.007 1.721 0.011 2.654 0.011 46.576 0 90.841-9.898 130.805-27.705l-2.046 0.814c37.833-16.707 70.369-37.898 98.912-63.457l-0.352 0.31c1.922-2.069 4.645-3.372 7.672-3.413h0.008c3.84 0 10.24 4.267 18.347 12.373l8.107 8.107c1.607 2.432 2.564 5.416 2.564 8.624 0 0.118-0.001 0.236-0.004 0.354v-0.018c-0.287 3.411-1.873 6.404-4.254 8.522l-0.013 0.011c-31.542 29.718-68.582 54.032-109.367 71.203l-2.42 0.904c-44.309 19.979-96.002 31.859-150.406 32.425l-0.207 0.002zM496.64 360.533c0.681-5.885 3.875-10.909 8.465-14.036l0.068-0.044c3.684-4.288 8.931-7.142 14.848-7.674l0.085-0.006c0.14-0.007 0.303-0.011 0.468-0.011 2.608 0 4.988 0.975 6.796 2.58l-0.011-0.009 31.147 31.147 29.867-29.013c2.097-2.732 5.303-4.522 8.933-4.692l0.027-0.001c6.148 0.806 11.489 3.765 15.339 8.082l0.021 0.024c8.533 8.96 9.813 16.64 2.987 23.467l-29.867 29.867 31.573 31.573c5.12 5.12 3.413 12.373-5.547 20.907s-17.067 11.52-22.613 5.973l-31.147-30.72-30.72 31.573c-1.805 1.22-4 1.997-6.366 2.132l-0.034 0.002c-5.896-1.049-10.935-4.134-14.472-8.489l-0.035-0.044c-9.813-9.387-11.947-16.213-6.827-21.333l31.573-31.573-31.573-30.72c-2.647-2.235-4.497-5.341-5.107-8.871l-0.013-0.089zM834.987 165.547c-4.449 4.362-9.676 7.95-15.451 10.533l-0.336 0.134c-1.044 0.331-2.245 0.521-3.49 0.521-3.303 0-6.294-1.341-8.456-3.508v0l-2.987-2.987c-29.988-29.84-65.51-54.151-104.887-71.253l-2.206-0.853c-38.788-16.767-83.954-26.52-131.397-26.52-93.252 0-177.704 37.678-238.963 98.64l0.013-0.013c-31.305 29.562-56.535 65.183-73.868 105.033l-0.798 2.061c-8.877 21.481-16.411 46.807-21.371 73.043l-0.389 2.477c0 8.96-10.667 12.373-26.88 9.813s-23.893-8.533-22.613-17.067c5.113-33.667 14.051-63.963 26.513-92.361l-0.913 2.334c21-47.956 49.793-88.777 85.203-122.756l0.13-0.124c34.312-35.43 75.252-64.205 120.852-84.365l2.455-0.968c44.471-19.154 96.24-30.294 150.611-30.294 0.151 0 0.302 0 0.452 0h-0.024c54.528 0.121 106.426 11.247 153.634 31.271l-2.594-0.977c48.054 21.128 88.994 49.903 123.208 85.231l0.099 0.103 2.56 2.56c3.84 9.387 0.853 18.773-10.24 30.293z" />
<glyph unicode="&#xe90b;" glyph-name="abacus" data-tags="abacus" d="M896 874.667c-23.564 0-42.667-19.103-42.667-42.667v0-128h-170.667v42.667c0 23.564-19.103 42.667-42.667 42.667s-42.667-19.103-42.667-42.667v0-42.667h-85.333v42.667c0 23.564-19.103 42.667-42.667 42.667s-42.667-19.103-42.667-42.667v0-42.667h-85.333v42.667c0 23.564-19.103 42.667-42.667 42.667s-42.667-19.103-42.667-42.667v0-42.667h-85.333v128c0 23.564-19.103 42.667-42.667 42.667s-42.667-19.103-42.667-42.667v0-682.667c0-70.692 57.308-128 128-128v0h597.333c70.692 0 128 57.308 128 128v0 682.667c0 23.564-19.103 42.667-42.667 42.667v0zM853.333 149.333c0-23.564-19.103-42.667-42.667-42.667v0h-597.333c-23.564 0-42.667 19.103-42.667 42.667v0 128h85.333v-42.667c0-23.564 19.103-42.667 42.667-42.667s42.667 19.103 42.667 42.667v0 42.667h85.333v-42.667c0-23.564 19.103-42.667 42.667-42.667s42.667 19.103 42.667 42.667v0 42.667h170.667v-42.667c0-23.564 19.103-42.667 42.667-42.667s42.667 19.103 42.667 42.667v0 42.667h85.333zM853.333 362.667h-85.333v42.667c0 23.564-19.103 42.667-42.667 42.667s-42.667-19.103-42.667-42.667v0-42.667h-170.667v42.667c0 23.564-19.103 42.667-42.667 42.667s-42.667-19.103-42.667-42.667v0-42.667h-85.333v42.667c0 23.564-19.103 42.667-42.667 42.667s-42.667-19.103-42.667-42.667v0-42.667h-85.333v256h85.333v-42.667c0-23.564 19.103-42.667 42.667-42.667s42.667 19.103 42.667 42.667v0 42.667h85.333v-42.667c0-23.564 19.103-42.667 42.667-42.667s42.667 19.103 42.667 42.667v0 42.667h85.333v-42.667c0-23.564 19.103-42.667 42.667-42.667s42.667 19.103 42.667 42.667v0 42.667h170.667z" />
<glyph unicode="&#xe90c;" glyph-name="accessible-icon-alt" data-tags="accessible-icon-alt" d="M682.667 661.333c47.128 0 85.333 38.205 85.333 85.333s-38.205 85.333-85.333 85.333c-47.128 0-85.333-38.205-85.333-85.333v0c0-47.128 38.205-85.333 85.333-85.333v0zM541.867 174.933c-31.499-40.949-80.515-67.079-135.634-67.079-94.257 0-170.667 76.41-170.667 170.667 0 87.174 65.358 159.082 149.745 169.397l0.823 0.082c21.6 2.445 38.231 20.614 38.231 42.667 0 23.706-19.218 42.924-42.924 42.924-1.653 0-3.285-0.093-4.89-0.275l0.197 0.018c-135.319-7.787-242.105-119.423-242.105-256 0-141.605 114.794-256.399 256.399-256.399 5.028 0 10.022 0.145 14.979 0.43l-0.686-0.032c83.464 0 157.6 39.943 204.333 101.756l0.467 0.644c5.327 7.042 8.533 15.947 8.533 25.6 0 23.564-19.103 42.667-42.667 42.667-13.911 0-26.267-6.657-34.056-16.959l-0.078-0.107zM832 106.667h-42.667v213.333c0 23.564-19.103 42.667-42.667 42.667v0h-194.987l72.107 198.827s0 2.987 0 4.693v8.533c0.1 1.15 0.157 2.488 0.157 3.84s-0.057 2.69-0.169 4.013l0.012-0.173c0.116 1.215 0.182 2.626 0.182 4.053s-0.066 2.839-0.195 4.232l0.013-0.179c-1.272 2.845-2.554 5.225-3.986 7.501l0.146-0.248c-1.355 2.436-2.912 4.537-4.704 6.412l0.011-0.012c-1.826 2.154-3.935 3.992-6.288 5.48l-0.112 0.066s0 2.56-3.413 3.413l-191.147 110.080h-5.12c-2.291 1.003-5 1.884-7.806 2.504l-0.3 0.056h-17.067c-3.221-0.677-6.074-1.708-8.724-3.076l0.191 0.090h-4.693l-114.773-66.987c-13.013-7.473-21.636-21.292-21.636-37.124 0-23.371 18.79-42.352 42.087-42.663h0.029c0.335-0.009 0.729-0.015 1.124-0.015 7.745 0 15.008 2.064 21.27 5.671l-0.207-0.11 95.147 55.467 138.24-80.213-80.64-222.293c-0.099-1.023-0.155-2.212-0.155-3.413s0.056-2.39 0.167-3.563l-0.011 0.15c-0.191-1.154-0.3-2.484-0.3-3.84s0.109-2.686 0.319-3.982l-0.019 0.142c0.914-6.297 2.105-11.778 3.635-17.116l-0.221 0.903 4.693-6.4c1.228-2.635 2.802-4.891 4.698-6.831l-0.005 0.005c1.734-1.457 3.696-2.737 5.804-3.765l0.169-0.075c2.358-1.83 5.013-3.531 7.817-4.983l0.29-0.137c4.314-1.616 9.3-2.554 14.504-2.56h213.336v-213.333c0-23.564 19.103-42.667 42.667-42.667v0h85.333c23.564 0 42.667 19.103 42.667 42.667s-19.103 42.667-42.667 42.667v0z" />
<glyph unicode="&#xe90d;" glyph-name="adjust-alt" data-tags="adjust-alt" d="M888.747 647.68v0c0.11 0.513 0.172 1.103 0.172 1.707s-0.063 1.194-0.182 1.762l0.010-0.056c-35.031 63.954-83.784 116.393-142.572 154.729l-1.641 1.004c-64.776 42.538-144.17 67.851-229.475 67.851-1.075 0-2.149-0.004-3.223-0.012l0.165 0.001c-23.564 0-42.667-19.103-42.667-42.667v0-768c0-23.564 19.103-42.667 42.667-42.667v0h11.947c230.349 6.777 414.501 195.13 414.501 426.493 0 73.13-18.398 141.962-50.818 202.122l1.117-2.268zM554.667 786.773c39.517-5.109 75.372-16.22 108.236-32.465l-1.996 0.892-106.24-184.32zM554.667 400.213l177.92 308.053c26.136-22.321 48.47-48.047 66.597-76.699l0.816-1.381-245.333-424.96zM604.16 119.893l238.507 413.44c6.673-25.586 10.557-54.981 10.666-85.265v-0.068c0.002-0.415 0.003-0.905 0.003-1.396 0-155.218-104.388-286.055-246.791-326.137l-2.385-0.574z" />
<glyph unicode="&#xe90e;" glyph-name="adjust-circle" data-tags="adjust-circle" d="M725.333 661.333c-48.95 124.976-168.476 211.87-308.297 211.87-182.387 0-330.24-147.853-330.24-330.24 0-139.821 86.895-259.347 209.628-307.522l2.243-0.776c48.95-124.976 168.476-211.87 308.297-211.87 182.387 0 330.24 147.853 330.24 330.24 0 139.821-86.895 259.347-209.628 307.522l-2.243 0.776zM657.067 593.067c2.943-14.604 4.649-31.409 4.693-48.604v-0.036c-0.097-20.329-2.58-40.031-7.183-58.902l0.356 1.729-104.107 103.253c17.142 4.247 36.844 6.73 57.11 6.826h0.063c17.231-0.044 34.036-1.751 50.299-4.967l-1.659 0.274zM616.96 405.333c-17.273-24.386-37.907-45.020-61.499-61.759l-0.794-0.535-147.627 147.627c17.273 24.386 37.907 45.020 61.499 61.759l0.794 0.535zM275.627 343.040c-64.256 44.872-105.765 118.471-105.765 201.765 0 135.494 109.839 245.333 245.333 245.333 83.294 0 156.893-41.51 201.239-104.971l0.526-0.794h-10.667c-181.939-1.208-328.963-148.978-328.963-331.086 0-0.452 0.001-0.904 0.003-1.356v0.069c0-3.413 0.427-7.253 0.427-10.667zM365.227 305.067c-2.943 14.604-4.649 31.409-4.693 48.604v0.036c0.097 20.329 2.58 40.031 7.183 58.902l-0.356-1.729 103.68-103.68c-17.142-4.247-36.844-6.73-57.11-6.826h-0.063c-1.961-0.053-4.27-0.083-6.585-0.083-14.091 0-27.922 1.116-41.409 3.265l1.487-0.195zM608 106.667c-83.819 0.162-157.788 42.187-202.131 106.274l-0.536 0.819h10.667c182.375 0.242 330.182 147.899 330.667 330.193v0.047c0 3.413 0 7.253 0 10.667 65.008-44.785 107.078-118.813 107.078-202.667 0-135.494-109.839-245.333-245.333-245.333-0.145 0-0.289 0-0.434 0h0.023z" />
<glyph unicode="&#xe90f;" glyph-name="adjust-half" data-tags="adjust-half" d="M888.747 647.68v0c-35.469 65.418-85.126 119.034-145.111 158.131l-1.662 1.016c-65.234 42.538-145.083 67.839-230.84 67.839-235.641 0-426.667-191.025-426.667-426.667s191.025-426.667 426.667-426.667c0.305 0 0.609 0 0.914 0.001h12.326c230.164 7.005 414.081 195.265 414.081 426.481 0 73.134-18.401 141.971-50.825 202.133l1.117-2.268zM469.333 109.653c-168.131 23.026-296.278 165.721-296.278 338.347s128.147 315.321 294.502 338.147l1.776 0.2zM554.667 786.347c39.525-5.168 75.373-16.273 108.26-32.473l-2.020 0.9-106.24-183.893zM554.667 402.347l177.92 305.92c26.011-22.424 48.326-48.131 66.579-76.685l0.834-1.395-245.333-424.96zM603.733 121.6l238.507 411.733c6.888-25.561 10.925-54.938 11.093-85.232v-0.102c-0.114-155.76-104.54-287.099-247.192-327.943l-2.408-0.59z" />
<glyph unicode="&#xe910;" glyph-name="adjust" data-tags="adjust" d="M512 874.667c-235.641 0-426.667-191.025-426.667-426.667s191.025-426.667 426.667-426.667c235.641 0 426.667 191.025 426.667 426.667v0c0 235.641-191.025 426.667-426.667 426.667v0zM469.333 109.653c-168.131 23.026-296.278 165.721-296.278 338.347s128.147 315.321 294.502 338.147l1.776 0.2zM554.667 109.653v676.693c168.131-23.026 296.278-165.721 296.278-338.347s-128.147-315.321-294.502-338.147l-1.776-0.2z" />
<glyph unicode="&#xe911;" glyph-name="adobe-alt" data-tags="adobe-alt" d="M437.208 857.481c-7.757 11.474-20.72 18.917-35.421 18.917-0.006 0-0.012 0-0.017 0h-316.791c-0.003 0-0.007 0-0.011 0-23.558 0-42.656-19.098-42.656-42.656 0-0.004 0-0.008 0-0.012v0.001-771.499c0.003-23.565 19.107-42.667 42.673-42.667 17.72 0 32.917 10.8 39.368 26.178l0.105 0.281 316.792 771.499c2.017 4.786 3.189 10.351 3.189 16.189 0 8.864-2.702 17.097-7.327 23.92l0.096-0.15zM127.646 278.481v512.583h210.479zM938.313 876.398h-320.75c-23.557-0.010-42.65-19.108-42.65-42.667 0-5.973 1.227-11.659 3.443-16.82l-0.106 0.278 320.75-761.583c6.618-15.475 21.711-26.122 39.291-26.125v0c2.998 0.010 5.92 0.312 8.745 0.881l-0.287-0.048c19.656 4.087 34.217 21.258 34.229 41.832v761.584c0 0.003 0 0.007 0 0.011 0 23.558-19.098 42.656-42.656 42.656-0.004 0-0.008 0-0.012 0h0.001zM895.646 283.398l-213.812 507.667h213.812zM552.5 553.813c-6.219 16.132-21.521 27.405-39.478 27.583h-0.439c-0.001 0-0.003 0-0.004 0-17.844 0-33.129-10.955-39.497-26.507l-0.103-0.285-130.521-325.582c-1.938-4.7-3.063-10.156-3.063-15.875 0-23.564 19.103-42.667 42.667-42.667 0 0 0 0 0.001 0h96.188l64.959-127.584c7.195-13.955 21.507-23.333 38.009-23.333 0.004 0 0.008 0 0.013 0h111.478c23.566 0.002 42.669 19.107 42.669 42.673 0 5.418-1.010 10.6-2.851 15.368l0.099-0.292zM607.396 104.897l-64.958 127.583c-7.195 13.956-21.508 23.334-38.010 23.334-0.004 0-0.007 0-0.011 0h-59.291l66.292 165.333 119.542-316.25z" />
<glyph unicode="&#xe912;" glyph-name="adobe" data-tags="adobe" d="M386.987 222.72h118.613l74.667-146.773h108.373l-176.64 462.933zM85.333 832v-768l316.587 768zM617.813 832l320.853-759.893v759.893z" />
<glyph unicode="&#xe913;" glyph-name="airplay" data-tags="airplay" d="M547.413 386.133c-7.771 11.447-20.725 18.869-35.413 18.869s-27.643-7.422-35.318-18.72l-0.095-0.149-170.667-256c-3.594-6.12-5.716-13.479-5.716-21.333s2.123-15.214 5.825-21.535l-0.109 0.201c6.758-13.277 19.908-22.442 35.285-23.46l0.128-0.007h341.333c16.18 0.045 30.237 9.088 37.435 22.388l0.112 0.226c2.969 5.664 4.711 12.373 4.711 19.489 0 8.615-2.553 16.634-6.944 23.341l0.1-0.163zM421.12 149.333l90.88 136.533 90.88-136.533zM810.667 832h-597.333c-70.692 0-128-57.308-128-128v0-384c0-70.692 57.308-128 128-128v0h36.267c23.564 0 42.667 19.103 42.667 42.667s-19.103 42.667-42.667 42.667v0h-36.267c-23.564 0-42.667 19.103-42.667 42.667v0 384c0 23.564 19.103 42.667 42.667 42.667v0h597.333c23.564 0 42.667-19.103 42.667-42.667v0-384c0-23.564-19.103-42.667-42.667-42.667v0h-36.267c-23.564 0-42.667-19.103-42.667-42.667s19.103-42.667 42.667-42.667v0h36.267c70.692 0 128 57.308 128 128v0 384c0 70.692-57.308 128-128 128v0z" />
<glyph unicode="&#xe914;" glyph-name="align-alt" data-tags="align-alt" d="M426.667 490.667h-298.667c-23.564 0-42.667-19.103-42.667-42.667s19.103-42.667 42.667-42.667v0h298.667c23.564 0 42.667 19.103 42.667 42.667s-19.103 42.667-42.667 42.667v0zM426.667 149.333h-298.667c-23.564 0-42.667-19.103-42.667-42.667s19.103-42.667 42.667-42.667v0h298.667c23.564 0 42.667 19.103 42.667 42.667s-19.103 42.667-42.667 42.667v0zM597.333 746.667h298.667c23.564 0 42.667 19.103 42.667 42.667s-19.103 42.667-42.667 42.667v0h-298.667c-23.564 0-42.667-19.103-42.667-42.667s19.103-42.667 42.667-42.667v0zM426.667 661.333h-298.667c-23.564 0-42.667-19.103-42.667-42.667s19.103-42.667 42.667-42.667v0h298.667c23.564 0 42.667 19.103 42.667 42.667s-19.103 42.667-42.667 42.667v0zM426.667 320h-298.667c-23.564 0-42.667-19.103-42.667-42.667s19.103-42.667 42.667-42.667v0h298.667c23.564 0 42.667 19.103 42.667 42.667s-19.103 42.667-42.667 42.667v0zM426.667 832h-128c-23.564 0-42.667-19.103-42.667-42.667s19.103-42.667 42.667-42.667v0h128c23.564 0 42.667 19.103 42.667 42.667s-19.103 42.667-42.667 42.667v0zM896 661.333h-298.667c-23.564 0-42.667-19.103-42.667-42.667s19.103-42.667 42.667-42.667v0h298.667c23.564 0 42.667 19.103 42.667 42.667s-19.103 42.667-42.667 42.667v0zM896 490.667h-298.667c-23.564 0-42.667-19.103-42.667-42.667s19.103-42.667 42.667-42.667v0h298.667c23.564 0 42.667 19.103 42.667 42.667s-19.103 42.667-42.667 42.667v0zM725.333 149.333h-128c-23.564 0-42.667-19.103-42.667-42.667s19.103-42.667 42.667-42.667v0h128c23.564 0 42.667 19.103 42.667 42.667s-19.103 42.667-42.667 42.667v0zM896 320h-298.667c-23.564 0-42.667-19.103-42.667-42.667s19.103-42.667 42.667-42.667v0h298.667c23.564 0 42.667 19.103 42.667 42.667s-19.103 42.667-42.667 42.667v0z" />
<glyph unicode="&#xe915;" glyph-name="align-center-alt" data-tags="align-center-alt" d="M213.333 618.667h597.333c23.564 0 42.667 19.103 42.667 42.667s-19.103 42.667-42.667 42.667v0h-597.333c-23.564 0-42.667-19.103-42.667-42.667s19.103-42.667 42.667-42.667v0zM896 490.667h-768c-23.564 0-42.667-19.103-42.667-42.667s19.103-42.667 42.667-42.667v0h768c23.564 0 42.667 19.103 42.667 42.667s-19.103 42.667-42.667 42.667v0zM810.667 277.333h-597.333c-23.564 0-42.667-19.103-42.667-42.667s19.103-42.667 42.667-42.667v0h597.333c23.564 0 42.667 19.103 42.667 42.667s-19.103 42.667-42.667 42.667v0z" />
<glyph unicode="&#xe916;" glyph-name="align-center-h" data-tags="align-center-h" d="M935.253 464.213c-2.152 5.464-5.187 10.143-8.974 14.095l0.014-0.015-106.667 106.667c-7.753 7.753-18.463 12.548-30.293 12.548-23.661 0-42.841-19.181-42.841-42.841 0-11.83 4.795-22.541 12.548-30.293v0l34.133-33.707h-110.507c-23.564 0-42.667-19.103-42.667-42.667s19.103-42.667 42.667-42.667v0h110.507l-34.133-33.707c-7.795-7.733-12.621-18.45-12.621-30.293s4.826-22.56 12.618-30.291l0.003-0.003c7.733-7.795 18.45-12.621 30.293-12.621s22.56 4.826 30.291 12.618l106.67 106.67c3.773 3.937 6.808 8.616 8.859 13.791l0.101 0.289c2.024 4.793 3.201 10.366 3.201 16.213s-1.176 11.42-3.305 16.495l0.105-0.281zM341.333 490.667h-110.507l34.133 33.707c7.753 7.753 12.548 18.463 12.548 30.293 0 23.661-19.181 42.841-42.841 42.841-11.83 0-22.541-4.795-30.293-12.548l-106.667-106.667c-3.773-3.937-6.808-8.616-8.859-13.791l-0.101-0.289c-2.024-4.793-3.201-10.366-3.201-16.213s1.176-11.42 3.305-16.495l-0.105 0.281c2.152-5.464 5.187-10.143 8.974-14.095l-0.014 0.015 106.667-106.667c7.733-7.795 18.45-12.621 30.293-12.621s22.56 4.826 30.291 12.618l0.003 0.003c7.795 7.733 12.621 18.45 12.621 30.293s-4.826 22.56-12.618 30.291l-0.003 0.003-34.133 33.707h110.507c23.564 0 42.667 19.103 42.667 42.667s-19.103 42.667-42.667 42.667v0zM512 661.333c-23.564 0-42.667-19.103-42.667-42.667v0-341.333c0-23.564 19.103-42.667 42.667-42.667s42.667 19.103 42.667 42.667v0 341.333c0 23.564-19.103 42.667-42.667 42.667v0z" />
<glyph unicode="&#xe917;" glyph-name="align-center-justify" data-tags="align-center-justify" d="M896 320h-768c-23.564 0-42.667-19.103-42.667-42.667s19.103-42.667 42.667-42.667v0h768c23.564 0 42.667 19.103 42.667 42.667s-19.103 42.667-42.667 42.667v0zM128 746.667h768c23.564 0 42.667 19.103 42.667 42.667s-19.103 42.667-42.667 42.667v0h-768c-23.564 0-42.667-19.103-42.667-42.667s19.103-42.667 42.667-42.667v0zM725.333 149.333h-426.667c-23.564 0-42.667-19.103-42.667-42.667s19.103-42.667 42.667-42.667v0h426.667c23.564 0 42.667 19.103 42.667 42.667s-19.103 42.667-42.667 42.667v0zM896 661.333h-768c-23.564 0-42.667-19.103-42.667-42.667s19.103-42.667 42.667-42.667v0h768c23.564 0 42.667 19.103 42.667 42.667s-19.103 42.667-42.667 42.667v0zM896 490.667h-768c-23.564 0-42.667-19.103-42.667-42.667s19.103-42.667 42.667-42.667v0h768c23.564 0 42.667 19.103 42.667 42.667s-19.103 42.667-42.667 42.667v0z" />
<glyph unicode="&#xe918;" glyph-name="align-center-v" data-tags="align-center-v" d="M435.627 695.040l33.707 34.133v-110.507c0-23.564 19.103-42.667 42.667-42.667s42.667 19.103 42.667 42.667v0 110.507l33.707-34.133c7.733-7.795 18.45-12.621 30.293-12.621s22.56 4.826 30.291 12.618l0.003 0.003c7.795 7.733 12.621 18.45 12.621 30.293s-4.826 22.56-12.618 30.291l-106.67 106.67c-3.937 3.773-8.616 6.808-13.791 8.859l-0.289 0.101c-4.793 2.024-10.366 3.201-16.213 3.201s-11.42-1.176-16.495-3.305l0.281 0.105c-5.464-2.152-10.143-5.187-14.095-8.974l0.015 0.014-106.667-106.667c-7.753-7.753-12.548-18.463-12.548-30.293 0-23.661 19.181-42.841 42.841-42.841 11.83 0 22.541 4.795 30.293 12.548v0zM682.667 490.667h-341.333c-23.564 0-42.667-19.103-42.667-42.667s19.103-42.667 42.667-42.667v0h341.333c23.564 0 42.667 19.103 42.667 42.667s-19.103 42.667-42.667 42.667v0zM588.373 200.96l-33.707-34.133v110.507c0 23.564-19.103 42.667-42.667 42.667s-42.667-19.103-42.667-42.667v0-110.507l-33.707 34.133c-7.753 7.753-18.463 12.548-30.293 12.548-23.661 0-42.841-19.181-42.841-42.841 0-11.83 4.795-22.541 12.548-30.293l106.667-106.667c3.937-3.773 8.616-6.808 13.791-8.859l0.289-0.101c4.771-2.163 10.345-3.423 16.213-3.423s11.443 1.26 16.466 3.525l-0.253-0.102c5.464 2.152 10.143 5.187 14.095 8.974l-0.015-0.014 106.667 106.667c7.753 7.753 12.548 18.463 12.548 30.293 0 23.661-19.181 42.841-42.841 42.841-11.83 0-22.541-4.795-30.293-12.548v0z" />
<glyph unicode="&#xe919;" glyph-name="align-center" data-tags="align-center" d="M128 661.333h768c23.564 0 42.667 19.103 42.667 42.667s-19.103 42.667-42.667 42.667v0h-768c-23.564 0-42.667-19.103-42.667-42.667s19.103-42.667 42.667-42.667v0zM298.667 576c-23.564 0-42.667-19.103-42.667-42.667s19.103-42.667 42.667-42.667v0h426.667c23.564 0 42.667 19.103 42.667 42.667s-19.103 42.667-42.667 42.667v0zM896 405.333h-768c-23.564 0-42.667-19.103-42.667-42.667s19.103-42.667 42.667-42.667v0h768c23.564 0 42.667 19.103 42.667 42.667s-19.103 42.667-42.667 42.667v0zM725.333 234.667h-426.667c-23.564 0-42.667-19.103-42.667-42.667s19.103-42.667 42.667-42.667v0h426.667c23.564 0 42.667 19.103 42.667 42.667s-19.103 42.667-42.667 42.667v0z" />
<glyph unicode="&#xe91a;" glyph-name="align-justify" data-tags="align-justify" d="M128 661.333h768c23.564 0 42.667 19.103 42.667 42.667s-19.103 42.667-42.667 42.667v0h-768c-23.564 0-42.667-19.103-42.667-42.667s19.103-42.667 42.667-42.667v0zM896 234.667h-768c-23.564 0-42.667-19.103-42.667-42.667s19.103-42.667 42.667-42.667v0h768c23.564 0 42.667 19.103 42.667 42.667s-19.103 42.667-42.667 42.667v0zM896 405.333h-768c-23.564 0-42.667-19.103-42.667-42.667s19.103-42.667 42.667-42.667v0h768c23.564 0 42.667 19.103 42.667 42.667s-19.103 42.667-42.667 42.667v0zM896 576h-768c-23.564 0-42.667-19.103-42.667-42.667s19.103-42.667 42.667-42.667v0h768c23.564 0 42.667 19.103 42.667 42.667s-19.103 42.667-42.667 42.667v0z" />
<glyph unicode="&#xe91b;" glyph-name="align-left-justify" data-tags="align-left-justify" d="M128 746.667h768c23.564 0 42.667 19.103 42.667 42.667s-19.103 42.667-42.667 42.667v0h-768c-23.564 0-42.667-19.103-42.667-42.667s19.103-42.667 42.667-42.667v0zM640 149.333h-512c-23.564 0-42.667-19.103-42.667-42.667s19.103-42.667 42.667-42.667v0h512c23.564 0 42.667 19.103 42.667 42.667s-19.103 42.667-42.667 42.667v0zM896 490.667h-768c-23.564 0-42.667-19.103-42.667-42.667s19.103-42.667 42.667-42.667v0h768c23.564 0 42.667 19.103 42.667 42.667s-19.103 42.667-42.667 42.667v0zM896 661.333h-768c-23.564 0-42.667-19.103-42.667-42.667s19.103-42.667 42.667-42.667v0h768c23.564 0 42.667 19.103 42.667 42.667s-19.103 42.667-42.667 42.667v0zM896 320h-768c-23.564 0-42.667-19.103-42.667-42.667s19.103-42.667 42.667-42.667v0h768c23.564 0 42.667 19.103 42.667 42.667s-19.103 42.667-42.667 42.667v0z" />
<glyph unicode="&#xe91c;" glyph-name="align-left" data-tags="align-left" d="M128 661.333h768c23.564 0 42.667 19.103 42.667 42.667s-19.103 42.667-42.667 42.667v0h-768c-23.564 0-42.667-19.103-42.667-42.667s19.103-42.667 42.667-42.667v0zM128 490.667h597.333c23.564 0 42.667 19.103 42.667 42.667s-19.103 42.667-42.667 42.667v0h-597.333c-23.564 0-42.667-19.103-42.667-42.667s19.103-42.667 42.667-42.667v0zM896 405.333h-768c-23.564 0-42.667-19.103-42.667-42.667s19.103-42.667 42.667-42.667v0h768c23.564 0 42.667 19.103 42.667 42.667s-19.103 42.667-42.667 42.667v0zM725.333 234.667h-597.333c-23.564 0-42.667-19.103-42.667-42.667s19.103-42.667 42.667-42.667v0h597.333c23.564 0 42.667 19.103 42.667 42.667s-19.103 42.667-42.667 42.667v0z" />
<glyph unicode="&#xe91d;" glyph-name="align-letter-right" data-tags="align-letter-right" d="M426.667 789.333h469.333c23.564 0 42.667 19.103 42.667 42.667s-19.103 42.667-42.667 42.667v0h-469.333c-23.564 0-42.667-19.103-42.667-42.667s19.103-42.667 42.667-42.667v0zM896 106.667h-768c-23.564 0-42.667-19.103-42.667-42.667s19.103-42.667 42.667-42.667v0h768c23.564 0 42.667 19.103 42.667 42.667s-19.103 42.667-42.667 42.667v0zM896 704h-768c-23.564 0-42.667-19.103-42.667-42.667s19.103-42.667 42.667-42.667v0h768c23.564 0 42.667 19.103 42.667 42.667s-19.103 42.667-42.667 42.667v0zM896 277.333h-426.667c-23.564 0-42.667-19.103-42.667-42.667s19.103-42.667 42.667-42.667v0h426.667c23.564 0 42.667 19.103 42.667 42.667s-19.103 42.667-42.667 42.667v0zM896 533.333h-768c-23.564 0-42.667-19.103-42.667-42.667s19.103-42.667 42.667-42.667v0h768c23.564 0 42.667 19.103 42.667 42.667s-19.103 42.667-42.667 42.667v0z" />
<glyph unicode="&#xe91e;" glyph-name="align-right-justify" data-tags="align-right-justify" d="M128 746.667h768c23.564 0 42.667 19.103 42.667 42.667s-19.103 42.667-42.667 42.667v0h-768c-23.564 0-42.667-19.103-42.667-42.667s19.103-42.667 42.667-42.667v0zM896 149.333h-426.667c-23.564 0-42.667-19.103-42.667-42.667s19.103-42.667 42.667-42.667v0h426.667c23.564 0 42.667 19.103 42.667 42.667s-19.103 42.667-42.667 42.667v0zM896 490.667h-768c-23.564 0-42.667-19.103-42.667-42.667s19.103-42.667 42.667-42.667v0h768c23.564 0 42.667 19.103 42.667 42.667s-19.103 42.667-42.667 42.667v0zM896 320h-768c-23.564 0-42.667-19.103-42.667-42.667s19.103-42.667 42.667-42.667v0h768c23.564 0 42.667 19.103 42.667 42.667s-19.103 42.667-42.667 42.667v0zM896 661.333h-768c-23.564 0-42.667-19.103-42.667-42.667s19.103-42.667 42.667-42.667v0h768c23.564 0 42.667 19.103 42.667 42.667s-19.103 42.667-42.667 42.667v0z" />
<glyph unicode="&#xe91f;" glyph-name="align-right" data-tags="align-right" d="M128 661.333h768c23.564 0 42.667 19.103 42.667 42.667s-19.103 42.667-42.667 42.667v0h-768c-23.564 0-42.667-19.103-42.667-42.667s19.103-42.667 42.667-42.667v0zM896 234.667h-597.333c-23.564 0-42.667-19.103-42.667-42.667s19.103-42.667 42.667-42.667v0h597.333c23.564 0 42.667 19.103 42.667 42.667s-19.103 42.667-42.667 42.667v0zM896 576h-597.333c-23.564 0-42.667-19.103-42.667-42.667s19.103-42.667 42.667-42.667v0h597.333c23.564 0 42.667 19.103 42.667 42.667s-19.103 42.667-42.667 42.667v0zM896 405.333h-768c-23.564 0-42.667-19.103-42.667-42.667s19.103-42.667 42.667-42.667v0h768c23.564 0 42.667 19.103 42.667 42.667s-19.103 42.667-42.667 42.667v0z" />
<glyph unicode="&#xe920;" glyph-name="align" data-tags="align" d="M128 320h426.667c23.564 0 42.667 19.103 42.667 42.667s-19.103 42.667-42.667 42.667v0h-426.667c-23.564 0-42.667-19.103-42.667-42.667s19.103-42.667 42.667-42.667v0zM128 490.667h426.667c23.564 0 42.667 19.103 42.667 42.667s-19.103 42.667-42.667 42.667v0h-426.667c-23.564 0-42.667-19.103-42.667-42.667s19.103-42.667 42.667-42.667v0zM128 661.333h768c23.564 0 42.667 19.103 42.667 42.667s-19.103 42.667-42.667 42.667v0h-768c-23.564 0-42.667-19.103-42.667-42.667s19.103-42.667 42.667-42.667v0zM896 234.667h-768c-23.564 0-42.667-19.103-42.667-42.667s19.103-42.667 42.667-42.667v0h768c23.564 0 42.667 19.103 42.667 42.667s-19.103 42.667-42.667 42.667v0zM837.973 551.68c-7.667 7.422-18.13 11.996-29.661 11.996-23.564 0-42.667-19.103-42.667-42.667 0-14.193 6.93-26.768 17.592-34.525l0.122-0.085 46.080-38.4-46.080-38.4c-9.459-7.882-15.435-19.666-15.435-32.846 0-10.422 3.736-19.971 9.943-27.38l-0.054 0.067c7.881-9.415 19.638-15.36 32.784-15.36 0.024 0 0.049 0 0.073 0h-0.004c10.462 0.108 20.003 3.964 27.363 10.288l-0.057-0.048 85.333 70.827c9.464 7.882 15.443 19.669 15.443 32.853s-5.98 24.971-15.375 32.798l-0.069 0.056z" />
<glyph unicode="&#xe921;" glyph-name="amazon" data-tags="amazon" d="M44.373 212.48q4.267 6.827 13.653 0.853c131.2-77.786 289.199-123.755 457.935-123.755 2.208 0 4.413 0.008 6.617 0.024l-0.339-0.002c118.88 0.299 232.34 23.139 336.45 64.468l-6.21-2.174q4.267 1.707 12.373 5.12t11.52 5.12c2.101 1.167 4.607 1.855 7.274 1.855 5.338 0 10.033-2.753 12.743-6.916l0.036-0.059q7.253-10.24-4.693-18.773-15.36-11.093-39.253-25.6c-47.154-28.109-101.671-51.193-159.381-66.414l-4.459-1c-52.894-14.871-113.684-23.572-176.455-23.893l-0.185-0.001c-1.161-0.007-2.535-0.011-3.91-0.011-89.166 0-174.344 17.077-252.441 48.138l4.618-1.62c-81.959 32.407-152.396 76.67-213.081 131.522l0.601-0.535c-2.827 1.908-4.755 4.964-5.116 8.484l-0.004 0.050c0.046 1.926 0.679 3.696 1.725 5.147l-0.019-0.027zM301.227 455.68c-0.045 1.467-0.070 3.194-0.070 4.926 0 35.705 10.866 68.872 29.471 96.375l-0.388-0.608c19.791 27.976 46.724 49.694 78.172 62.711l1.188 0.436c33.098 13.635 71.501 23.567 111.565 27.987l1.928 0.173q23.040 2.56 75.093 6.827v14.507c0.356 3.9 0.559 8.436 0.559 13.019 0 21.827-4.602 42.579-12.888 61.339l0.383-0.972c-11.787 15.727-30.382 25.795-51.328 25.795-1.757 0-3.497-0.071-5.219-0.21l0.226 0.015h-6.827c-18.433-1.362-35.118-7.879-48.891-18.098l0.251 0.178c-13.486-10.3-23.040-25.15-26.381-42.224l-0.072-0.442c-0.72-9.697-7.724-17.572-16.923-19.6l-0.144-0.027-98.133 11.947q-14.507 3.413-14.507 15.36c0.047 2.143 0.355 4.194 0.895 6.149l-0.041-0.176c7.050 47.232 33.423 87.209 70.669 112.269l0.585 0.371c37.691 24.081 83.262 39.088 132.2 40.945l0.494 0.015h21.333c3.868 0.247 8.386 0.388 12.938 0.388 53.088 0 101.696-19.183 139.27-50.995l-0.315 0.26c5.579-5.583 10.755-11.571 15.479-17.915l0.307-0.432c3.84-5.040 7.648-10.752 11.096-16.7l0.424-0.793c3.286-6.394 5.938-13.812 7.577-21.603l0.103-0.584q3.413-14.507 5.12-20.053c1.561-7.153 2.49-15.395 2.56-23.841v-0.052q0.853-18.347 0.853-21.76v-206.507c-0.005-0.431-0.009-0.94-0.009-1.449 0-13.987 2.346-27.426 6.667-39.944l-0.258 0.86c3.149-10.075 7.354-18.843 12.62-26.852l-0.246 0.399q5.973-8.107 19.627-26.027c2.883-3.774 4.75-8.465 5.115-13.571l0.005-0.082c-0.178-5.015-2.831-9.374-6.768-11.911l-0.058-0.035q-70.827-61.44-76.8-66.56c-3.826-2.748-8.605-4.394-13.768-4.394-4.012 0-7.793 0.994-11.108 2.75l0.129-0.062q-11.947 10.24-20.907 19.627t-12.8 13.653c-4.095 4.889-8.163 10.314-11.939 15.951l-0.434 0.689q-8.533 12.373-11.947 16.64c-24.354-29.331-56.097-51.722-92.397-64.406l-1.47-0.447c-19.796-5.459-42.528-8.596-65.992-8.596-2 0-3.995 0.023-5.984 0.068l0.296-0.005c-1.632-0.064-3.549-0.1-5.474-0.1-39.694 0-75.776 15.467-102.547 40.703l0.074-0.070c-26.319 27.231-42.537 64.37-42.537 105.296 0 3.334 0.108 6.644 0.32 9.924l-0.023-0.447zM448 472.747c-0.065-1.215-0.102-2.637-0.102-4.068 0-18.626 6.298-35.781 16.881-49.451l-0.138 0.186c10.199-12.312 25.491-20.097 42.601-20.097 0.773 0 1.543 0.016 2.309 0.047l-0.11-0.004c2.623 0.090 5.117 0.396 7.537 0.903l-0.284-0.050c1.848 0.408 4.040 0.712 6.279 0.847l0.121 0.006c24.63 6.822 44.454 23.577 55.24 45.569l0.226 0.511c5.975 10.199 10.811 22.002 13.889 34.497l0.191 0.917c2.533 9.090 4.354 19.722 5.093 30.65l0.027 0.497q0.427 11.947 0.427 39.253v21.333c-2.863 0.095-6.228 0.148-9.606 0.148-23.199 0-45.804-2.541-67.553-7.359l2.066 0.384c-43.049-7.989-75.214-45.25-75.214-90.024 0-1.652 0.044-3.294 0.13-4.924l-0.010 0.228zM806.4 197.973c1.396 2.629 3.102 4.88 5.112 6.819l0.008 0.008c11.716 8.409 25.345 15.12 40.013 19.391l0.947 0.236c18.727 5.246 40.374 8.624 62.687 9.374l0.46 0.012c1.639 0.187 3.538 0.294 5.462 0.294 3.809 0 7.52-0.418 11.090-1.21l-0.339 0.063q38.4-3.413 46.080-12.8c2.187-3.892 3.476-8.543 3.476-13.495 0-0.656-0.023-1.307-0.067-1.953l0.005 0.087v-5.973c-1.047-25.679-6.91-49.728-16.706-71.634l0.493 1.234c-9.966-25.941-25.422-47.843-45.046-65.124l-0.181-0.156c-2.031-1.898-4.689-3.148-7.631-3.41l-0.049-0.004c-1.25 0.013-2.423 0.327-3.454 0.873l0.041-0.020q-5.12 2.56-2.56 9.387c15.323 29.966 26.426 64.797 31.388 101.576l0.185 1.677c0.047 0.54 0.074 1.168 0.074 1.803 0 4.403-1.301 8.503-3.539 11.935l0.051-0.084q-8.533 10.24-47.787 10.24-14.507 0-34.133-1.707-21.333-2.56-39.253-5.12c-0.352-0.044-0.76-0.070-1.173-0.070-2.116 0-4.077 0.665-5.685 1.797l0.031-0.021c-0.681 0.514-1.117 1.321-1.117 2.231 0 0.429 0.097 0.836 0.271 1.199l-0.007-0.017c0.112 0.957 0.415 1.824 0.87 2.59l-0.017-0.030z" />
<glyph unicode="&#xe922;" glyph-name="ambulance" data-tags="ambulance" d="M448 554.667h-42.667v42.667c0 23.564-19.103 42.667-42.667 42.667s-42.667-19.103-42.667-42.667v0-42.667h-42.667c-23.564 0-42.667-19.103-42.667-42.667s19.103-42.667 42.667-42.667v0h42.667v-42.667c0-23.564 19.103-42.667 42.667-42.667s42.667 19.103 42.667 42.667v0 42.667h42.667c23.564 0 42.667 19.103 42.667 42.667s-19.103 42.667-42.667 42.667v0zM978.347 462.933l-2.56 4.693c-0.804 2.28-1.813 4.253-3.045 6.064l0.058-0.091-102.4 136.533c-23.6 31.229-60.668 51.2-102.4 51.2v0h-85.333v42.667c0 70.692-57.308 128-128 128v0h-384c-70.692 0-128-57.308-128-128v0-469.333c0-23.564 19.103-42.667 42.667-42.667v0h42.667c0-70.692 57.308-128 128-128s128 57.308 128 128v0h256c0-70.692 57.308-128 128-128s128 57.308 128 128v0h42.667c23.564 0 42.667 19.103 42.667 42.667v0 213.333c-0.1 5.4-1.188 10.518-3.089 15.22l0.102-0.286zM256 149.333c-23.564 0-42.667 19.103-42.667 42.667s19.103 42.667 42.667 42.667c23.564 0 42.667-19.103 42.667-42.667v0c0-23.564-19.103-42.667-42.667-42.667v0zM597.333 277.333h-246.613c-23.501 25.787-57.228 41.906-94.72 41.906s-71.219-16.119-94.629-41.805l-0.091-0.102h-33.28v426.667c0 23.564 19.103 42.667 42.667 42.667v0h384c23.564 0 42.667-19.103 42.667-42.667v0zM682.667 576h85.333c13.911 0 26.267-6.657 34.056-16.959l0.078-0.107 51.2-68.267h-170.667zM768 149.333c-23.564 0-42.667 19.103-42.667 42.667s19.103 42.667 42.667 42.667c23.564 0 42.667-19.103 42.667-42.667v0c0-23.564-19.103-42.667-42.667-42.667v0zM896 277.333h-33.28c-23.504 25.812-57.246 41.948-94.757 41.948-32.823 0-62.761-12.355-85.416-32.667l0.12 0.106v118.613h213.333z" />
<glyph unicode="&#xe923;" glyph-name="analysis" data-tags="analysis" d="M926.293 648.96c-7.733 7.795-18.45 12.621-30.293 12.621s-22.56-4.826-30.291-12.618l-0.003-0.003-268.373-268.8-183.040 183.467c-7.733 7.795-18.45 12.621-30.293 12.621s-22.56-4.826-30.291-12.618l-256.003-256.003c-7.795-7.733-12.621-18.45-12.621-30.293s4.826-22.56 12.618-30.291l0.003-0.003c7.733-7.795 18.45-12.621 30.293-12.621s22.56 4.826 30.291 12.618l0.003 0.003 225.707 226.133 183.040-183.467c7.733-7.795 18.45-12.621 30.293-12.621s22.56 4.826 30.291 12.618l298.67 298.67c7.795 7.733 12.621 18.45 12.621 30.293s-4.826 22.56-12.618 30.291l-0.003 0.003z" />
<glyph unicode="&#xe924;" glyph-name="analytics" data-tags="analytics" d="M213.333 448c-23.564 0-42.667-19.103-42.667-42.667v0-341.333c0-23.564 19.103-42.667 42.667-42.667s42.667 19.103 42.667 42.667v0 341.333c0 23.564-19.103 42.667-42.667 42.667v0zM426.667 874.667c-23.564 0-42.667-19.103-42.667-42.667v0-768c0-23.564 19.103-42.667 42.667-42.667s42.667 19.103 42.667 42.667v0 768c0 23.564-19.103 42.667-42.667 42.667v0zM853.333 277.333c-23.564 0-42.667-19.103-42.667-42.667v0-170.667c0-23.564 19.103-42.667 42.667-42.667s42.667 19.103 42.667 42.667v0 170.667c0 23.564-19.103 42.667-42.667 42.667v0zM640 618.667c-23.564 0-42.667-19.103-42.667-42.667v0-512c0-23.564 19.103-42.667 42.667-42.667s42.667 19.103 42.667 42.667v0 512c0 23.564-19.103 42.667-42.667 42.667v0z" />
<glyph unicode="&#xe925;" glyph-name="anchor" data-tags="anchor" d="M810.667 405.333h-85.333c-23.564 0-42.667-19.103-42.667-42.667s19.103-42.667 42.667-42.667v0h38.827c-18.729-107.317-102.177-190.764-207.96-209.271l-1.534-0.222v380.16h42.667c23.564 0 42.667 19.103 42.667 42.667s-19.103 42.667-42.667 42.667v0h-42.667v50.347c50.14 18.103 85.333 65.281 85.333 120.68 0 70.692-57.308 128-128 128s-128-57.308-128-128c0-55.398 35.193-102.577 84.442-120.398l0.891-0.282v-50.347h-42.667c-23.564 0-42.667-19.103-42.667-42.667s19.103-42.667 42.667-42.667v0h42.667v-380.16c-107.317 18.729-190.764 102.177-209.271 207.96l-0.222 1.534h38.827c23.564 0 42.667 19.103 42.667 42.667s-19.103 42.667-42.667 42.667v0h-85.333c-23.564 0-42.667-19.103-42.667-42.667v0c0-188.513 152.82-341.333 341.333-341.333s341.333 152.82 341.333 341.333v0c0 23.564-19.103 42.667-42.667 42.667v0zM512 704c-23.564 0-42.667 19.103-42.667 42.667s19.103 42.667 42.667 42.667c23.564 0 42.667-19.103 42.667-42.667v0c0-23.564-19.103-42.667-42.667-42.667v0z" />
<glyph unicode="&#xe926;" glyph-name="android-alt" data-tags="android-alt" d="M127.646 575.981c-0.003 0-0.007 0-0.012 0-23.558 0-42.655-19.097-42.655-42.655 0-0.004 0-0.008 0-0.012v0.001-170.667c0-23.564 19.103-42.667 42.667-42.667s42.667 19.103 42.667 42.667v0 170.667c0 0.003 0 0.007 0 0.012 0 23.558-19.097 42.655-42.655 42.655-0.004 0-0.008 0-0.012 0h0.001zM895.646 575.981c-0.003 0-0.007 0-0.012 0-23.558 0-42.655-19.097-42.655-42.655 0-0.004 0-0.008 0-0.012v0.001-170.667c0-23.564 19.103-42.667 42.667-42.667s42.667 19.103 42.667 42.667v0 170.667c0 0.003 0 0.007 0 0.012 0 23.558-19.097 42.655-42.655 42.655-0.004 0-0.008 0-0.012 0h0.001zM719.25 810.648c3.635 6.146 5.782 13.544 5.782 21.444 0 23.558-19.098 42.656-42.656 42.656-15.748 0-29.503-8.534-36.892-21.229l-0.109-0.203-26.203-45.328c-31.496 15.146-68.477 23.995-107.526 23.995s-76.030-8.849-109.049-24.651l1.523 0.657-26.203 45.328c-7.499 12.899-21.253 21.433-37.001 21.433-23.558 0-42.656-19.098-42.656-42.656 0-7.9 2.148-15.298 5.891-21.643l-0.109 0.199 29.547-51.112c-48.086-46.457-77.943-111.518-77.943-183.552 0-0.001 0-0.002 0-0.003v0-341.333c0-0.003 0-0.007 0-0.011 0-23.558 19.098-42.656 42.656-42.656 0.004 0 0.008 0 0.012 0h85.333v-128c0-23.564 19.103-42.667 42.667-42.667s42.667 19.103 42.667 42.667v0 128h85.333v-128c0-23.564 19.103-42.667 42.667-42.667s42.667 19.103 42.667 42.667v0 128h85.333c0.003 0 0.007 0 0.011 0 23.558 0 42.656 19.098 42.656 42.656 0 0.004 0 0.008 0 0.012v-0.001 341.333c0 0.001 0 0.002 0 0.003 0 72.034-29.856 137.094-77.869 183.481l-0.073 0.071zM682.313 277.315h-341.333v213.333h341.333zM340.979 575.981c0 94.257 76.41 170.667 170.667 170.667s170.667-76.41 170.667-170.667v0z" />
<glyph unicode="&#xe927;" glyph-name="android-phone-slash" data-tags="android-phone-slash" d="M481.707 204.373c7.733-7.795 18.45-12.621 30.293-12.621s22.56 4.826 30.291 12.618l0.003 0.003c3.646 4.001 6.662 8.658 8.838 13.76l0.122 0.32c2.163 4.771 3.423 10.345 3.423 16.213s-1.26 11.443-3.525 16.466l0.102-0.253c-2.298 5.422-5.314 10.079-8.995 14.119l0.035-0.039c-7.733 7.795-18.45 12.621-30.293 12.621s-22.56-4.826-30.291-12.618l-0.003-0.003c-3.646-4.001-6.662-8.658-8.838-13.76l-0.122-0.32c-2.163-4.771-3.423-10.345-3.423-16.213s1.26-11.443 3.525-16.466l-0.102 0.253c2.298-5.422 5.314-10.079 8.995-14.119l-0.035 0.039zM369.493 789.333h313.173c23.564 0 42.667-19.103 42.667-42.667v0-313.173c0-23.564 19.103-42.667 42.667-42.667s42.667 19.103 42.667 42.667v0 313.173c0 70.692-57.308 128-128 128v0h-313.173c-23.564 0-42.667-19.103-42.667-42.667s19.103-42.667 42.667-42.667v0zM926.293 94.293l-768 768c-7.753 7.753-18.463 12.548-30.293 12.548-23.661 0-42.841-19.181-42.841-42.841 0-11.83 4.795-22.541 12.548-30.293v0l115.627-115.2v-537.173c0-70.692 57.308-128 128-128v0h341.333c52.621 0.044 97.806 31.834 117.441 77.25l0.319 0.83 65.28-65.707c7.733-7.795 18.45-12.621 30.293-12.621s22.56 4.826 30.291 12.618l0.003 0.003c7.795 7.733 12.621 18.45 12.621 30.293s-4.826 22.56-12.618 30.291l-0.003 0.003zM725.333 149.333c0-23.564-19.103-42.667-42.667-42.667v0h-341.333c-23.564 0-42.667 19.103-42.667 42.667v0 451.84l426.667-426.667z" />
<glyph unicode="&#xe928;" glyph-name="android" data-tags="android" d="M638.948 831.195l40.952 73.881c0.651 1.153 1.035 2.533 1.035 4.001 0 4.558-3.695 8.253-8.253 8.253-3.089 0-5.782-1.697-7.196-4.21l-0.021-0.041-41.406-74.7c-32.992 14.839-71.516 23.484-112.059 23.484s-79.067-8.645-113.829-24.191l1.77 0.707-41.407 74.7c-1.436 2.554-4.129 4.251-7.218 4.251-4.558 0-8.253-3.695-8.253-8.253 0-1.469 0.384-2.848 1.056-4.043l-0.021 0.041 40.954-73.882c-77.605-38.877-130.313-117.121-131.972-207.837l-0.003-0.22h517.845c-1.662 90.937-54.37 169.181-130.612 207.438l-1.364 0.62zM392.495 717.89c-11.942 0-21.623 9.681-21.623 21.623s9.681 21.623 21.623 21.623c11.942 0 21.623-9.681 21.623-21.623v0c-0.014-11.937-9.687-21.61-21.622-21.623h-0.001zM631.505 717.89c-11.942 0-21.623 9.681-21.623 21.623s9.681 21.623 21.623 21.623c11.942 0 21.623-9.681 21.623-21.623v0c-0.014-11.937-9.687-21.61-21.622-21.623h-0.001zM253.074 227.351c0-34.572 28.026-62.598 62.598-62.598v0h41.54v-128.041c0-0.047 0-0.102 0-0.157 0-32.058 25.988-58.046 58.046-58.046s58.046 25.988 58.046 58.046c0 0.055 0 0.111 0 0.166v-0.009 128.041h77.391v-128.041c0-0.047 0-0.102 0-0.157 0-32.058 25.988-58.046 58.046-58.046s58.046 25.988 58.046 58.046c0 0.055 0 0.111 0 0.166v-0.009 128.041h41.542c34.572 0 62.598 28.026 62.598 62.598v0 375.302h-517.853zM173.404 612.612c-32.043-0.038-58.009-26.003-58.046-58.043v-241.858c0-0.047 0-0.102 0-0.157 0-32.058 25.988-58.046 58.046-58.046s58.046 25.988 58.046 58.046c0 0.055 0 0.111 0 0.166v-0.009 241.854c-0.037 32.043-26.003 58.009-58.043 58.046h-0.004zM850.596 612.612c-32.043-0.037-58.009-26.003-58.046-58.043v-241.858c0-0.047 0-0.102 0-0.157 0-32.058 25.988-58.046 58.046-58.046s58.046 25.988 58.046 58.046c0 0.055 0 0.111 0 0.166v-0.009 241.854c-0.037 32.043-26.003 58.009-58.042 58.046h-0.004z" />
<glyph unicode="&#xe929;" glyph-name="angle-double-down" data-tags="angle-double-down" d="M481.707 471.040c7.733-7.795 18.45-12.621 30.293-12.621s22.56 4.826 30.291 12.618l128.003 128.003c8.119 7.903 13.155 18.936 13.155 31.147 0 23.996-19.453 43.449-43.449 43.449-11.786 0-22.476-4.693-30.303-12.312l0.010 0.009-97.707-99.84-97.707 99.84c-7.818 7.609-18.507 12.302-30.293 12.302-23.996 0-43.449-19.453-43.449-43.449 0-12.21 5.037-23.244 13.146-31.137l0.010-0.009zM609.707 424.96l-97.707-98.133-97.707 98.133c-7.818 7.609-18.507 12.302-30.293 12.302-23.996 0-43.449-19.453-43.449-43.449 0-12.21 5.037-23.244 13.146-31.137l0.010-0.009 128-128c7.733-7.795 18.45-12.621 30.293-12.621s22.56 4.826 30.291 12.618l128.003 128.003c7.753 7.753 12.548 18.463 12.548 30.293 0 23.661-19.181 42.841-42.841 42.841-11.83 0-22.541-4.795-30.293-12.548v0z" />
<glyph unicode="&#xe92a;" glyph-name="angle-double-left" data-tags="angle-double-left" d="M488.96 606.293c-7.733 7.795-18.45 12.621-30.293 12.621s-22.56-4.826-30.291-12.618l-128.003-128.003c-7.795-7.733-12.621-18.45-12.621-30.293s4.826-22.56 12.618-30.291l128.003-128.003c7.733-7.795 18.45-12.621 30.293-12.621s22.56 4.826 30.291 12.618l0.003 0.003c7.795 7.733 12.621 18.45 12.621 30.293s-4.826 22.56-12.618 30.291l-0.003 0.003-98.133 97.707 98.133 97.707c7.795 7.733 12.621 18.45 12.621 30.293s-4.826 22.56-12.618 30.291l-0.003 0.003zM625.493 448l99.84 97.707c7.753 7.753 12.548 18.463 12.548 30.293 0 23.661-19.181 42.841-42.841 42.841-11.83 0-22.541-4.795-30.293-12.548l-128-128c-7.795-7.733-12.621-18.45-12.621-30.293s4.826-22.56 12.618-30.291l128.003-128.003c7.733-7.795 18.45-12.621 30.293-12.621s22.56 4.826 30.291 12.618l0.003 0.003c7.795 7.733 12.621 18.45 12.621 30.293s-4.826 22.56-12.618 30.291l-0.003 0.003z" />
<glyph unicode="&#xe92b;" glyph-name="angle-double-right" data-tags="angle-double-right" d="M360.96 606.293c-7.903 8.119-18.936 13.155-31.147 13.155-23.996 0-43.449-19.453-43.449-43.449 0-11.786 4.693-22.476 12.312-30.303l-0.009 0.010 99.84-97.707-99.84-97.707c-7.795-7.733-12.621-18.45-12.621-30.293s4.826-22.56 12.618-30.291l0.003-0.003c7.733-7.795 18.45-12.621 30.293-12.621s22.56 4.826 30.291 12.618l128.003 128.003c7.795 7.733 12.621 18.45 12.621 30.293s-4.826 22.56-12.618 30.291l-0.003 0.003zM723.627 478.293l-128 128c-7.753 7.753-18.463 12.548-30.293 12.548-23.661 0-42.841-19.181-42.841-42.841 0-11.83 4.795-22.541 12.548-30.293v0l98.133-97.707-98.133-97.707c-7.795-7.733-12.621-18.45-12.621-30.293s4.826-22.56 12.618-30.291l0.003-0.003c7.733-7.795 18.45-12.621 30.293-12.621s22.56 4.826 30.291 12.618l128.003 128.003c8.317 7.805 13.498 18.867 13.498 31.139 0 11.427-4.492 21.805-11.807 29.464l0.016-0.016z" />
<glyph unicode="&#xe92c;" glyph-name="angle-double-up" data-tags="angle-double-up" d="M542.293 424.96c-7.733 7.795-18.45 12.621-30.293 12.621s-22.56-4.826-30.291-12.618l-128.003-128.003c-8.119-7.903-13.155-18.936-13.155-31.147 0-23.996 19.453-43.449 43.449-43.449 11.786 0 22.476 4.693 30.303 12.312l-0.010-0.009 97.707 99.84 97.707-99.84c7.733-7.795 18.45-12.621 30.293-12.621s22.56 4.826 30.291 12.618l0.003 0.003c7.795 7.733 12.621 18.45 12.621 30.293s-4.826 22.56-12.618 30.291l-0.003 0.003zM414.293 471.040l97.707 98.133 97.707-98.133c7.733-7.795 18.45-12.621 30.293-12.621s22.56 4.826 30.291 12.618l0.003 0.003c7.795 7.733 12.621 18.45 12.621 30.293s-4.826 22.56-12.618 30.291l-128.003 128.003c-7.733 7.795-18.45 12.621-30.293 12.621s-22.56-4.826-30.291-12.618l-128.003-128.003c-7.753-7.753-12.548-18.463-12.548-30.293 0-23.661 19.181-42.841 42.841-42.841 11.83 0 22.541 4.795 30.293 12.548v0z" />
<glyph unicode="&#xe92d;" glyph-name="angle-down" data-tags="angle-down" d="M725.333 568.747c-7.712 7.668-18.343 12.407-30.080 12.407s-22.368-4.74-30.082-12.409l0.002 0.002-153.173-151.040-151.040 151.040c-7.712 7.668-18.343 12.407-30.080 12.407s-22.368-4.74-30.082-12.409l0.002 0.002c-7.795-7.733-12.621-18.45-12.621-30.293s4.826-22.56 12.618-30.291l180.91-180.91c7.733-7.795 18.45-12.621 30.293-12.621s22.56 4.826 30.291 12.618l0.003 0.003 183.040 180.907c7.795 7.733 12.621 18.45 12.621 30.293s-4.826 22.56-12.618 30.291l-0.003 0.003z" />
<glyph unicode="&#xe92e;" glyph-name="angle-left-b" data-tags="angle-left-b" d="M362.667 413.867l243.2-238.933c17.067-17.067 42.667-17.067 59.733 0 0 0 0 0 0 0 17.067 17.067 17.067 42.667 0 59.733l-209.067 213.333 209.067 213.333c17.067 17.067 17.067 42.667 0 59.733-8.533 8.533-17.067 12.8-29.867 12.8s-21.333-4.267-29.867-12.8l-243.2-238.933c-17.067-21.333-17.067-46.933 0-68.267 0 4.267 0 4.267 0 0z" />
<glyph unicode="&#xe92f;" glyph-name="angle-left" data-tags="angle-left" d="M481.707 448l151.040 151.040c7.668 7.712 12.407 18.343 12.407 30.080s-4.74 22.368-12.409 30.082l0.002-0.002c-7.733 7.795-18.45 12.621-30.293 12.621s-22.56-4.826-30.291-12.618l-180.91-180.91c-7.795-7.733-12.621-18.45-12.621-30.293s4.826-22.56 12.618-30.291l0.003-0.003 180.907-183.040c7.709-7.648 18.326-12.374 30.047-12.374 0.087 0 0.173 0 0.26 0.001h-0.013c0.073 0 0.16-0.001 0.247-0.001 11.721 0 22.338 4.726 30.049 12.377l-0.003-0.003c7.668 7.712 12.407 18.343 12.407 30.080s-4.74 22.368-12.409 30.082l0.002-0.002z" />
<glyph unicode="&#xe930;" glyph-name="angle-right-b" data-tags="angle-right-b" d="M663.040 478.293l-241.493 241.067c-7.733 7.795-18.45 12.621-30.293 12.621s-22.56-4.826-30.291-12.618l-0.003-0.003c-7.668-7.712-12.407-18.343-12.407-30.080s4.74-22.368 12.409-30.082l-0.002 0.002 211.2-213.333-211.2-211.2c-7.668-7.712-12.407-18.343-12.407-30.080s4.74-22.368 12.409-30.082l-0.002 0.002c7.709-7.861 18.426-12.749 30.284-12.8h0.010c11.868 0.051 22.584 4.939 30.287 12.793l0.007 0.007 241.493 241.067c8.458 7.82 13.736 18.974 13.736 31.36s-5.278 23.54-13.707 31.334l-0.028 0.026z" />
<glyph unicode="&#xe931;" glyph-name="angle-right" data-tags="angle-right" d="M632.747 478.293l-180.907 180.907c-7.733 7.795-18.45 12.621-30.293 12.621s-22.56-4.826-30.291-12.618l-0.003-0.003c-7.668-7.712-12.407-18.343-12.407-30.080s4.74-22.368 12.409-30.082l151.038-151.038-151.040-151.040c-7.668-7.712-12.407-18.343-12.407-30.080s4.74-22.368 12.409-30.082l-0.002 0.002c7.709-7.648 18.326-12.374 30.047-12.374 0.087 0 0.173 0 0.26 0.001h-0.013c0.073 0 0.16-0.001 0.247-0.001 11.721 0 22.338 4.726 30.049 12.377l180.904 180.904c7.795 7.733 12.621 18.45 12.621 30.293s-4.826 22.56-12.618 30.291l-0.003 0.003z" />
<glyph unicode="&#xe932;" glyph-name="angle-up" data-tags="angle-up" d="M725.333 387.84l-183.040 180.907c-7.733 7.795-18.45 12.621-30.293 12.621s-22.56-4.826-30.291-12.618l-180.91-180.91c-7.795-7.733-12.621-18.45-12.621-30.293s4.826-22.56 12.618-30.291l0.003-0.003c7.712-7.668 18.343-12.407 30.080-12.407s22.368 4.74 30.082 12.409l151.038 151.038 151.040-151.040c7.667-7.606 18.211-12.323 29.857-12.373h0.010c0.073 0 0.16-0.001 0.247-0.001 11.721 0 22.338 4.726 30.049 12.377l-0.003-0.003c8.451 7.82 13.725 18.969 13.725 31.35 0 11.325-4.412 21.619-11.611 29.258l0.020-0.021z" />
<glyph unicode="&#xe933;" glyph-name="angry" data-tags="angry" d="M426.667 490.667c16.512 0.052 30.81 9.474 37.861 23.226l0.112 0.24c2.861 5.577 4.539 12.167 4.539 19.149 0 16.501-9.367 30.814-23.074 37.912l-0.238 0.112-85.333 42.667c-6.277 3.836-13.872 6.108-21.998 6.108-23.564 0-42.667-19.103-42.667-42.667 0-17.645 10.711-32.788 25.986-39.283l0.279-0.105 85.333-42.667c5.419-2.957 11.869-4.696 18.725-4.696 0.167 0 0.334 0.001 0.5 0.003h-0.025zM512 874.667c-235.641 0-426.667-191.025-426.667-426.667s191.025-426.667 426.667-426.667c235.641 0 426.667 191.025 426.667 426.667v0c0 235.641-191.025 426.667-426.667 426.667v0zM512 106.667c-188.513 0-341.333 152.82-341.333 341.333s152.82 341.333 341.333 341.333c188.513 0 341.333-152.82 341.333-341.333v0c0-188.513-152.82-341.333-341.333-341.333v0zM356.693 305.92c-9.337-7.879-15.226-19.588-15.226-32.672 0-10.306 3.654-19.759 9.738-27.134l-0.058 0.073c7.882-9.459 19.666-15.435 32.846-15.435 10.422 0 19.971 3.736 27.38 9.943l-0.067-0.054c27.277 22.134 62.42 35.536 100.693 35.536s73.416-13.403 100.992-35.771l-0.298 0.234c7.328-6.107 16.843-9.813 27.223-9.813 0.029 0 0.059 0 0.088 0h-0.005c23.382 0.238 42.246 19.248 42.246 42.665 0 12.952-5.771 24.556-14.882 32.381l-0.057 0.048c-42.1 34.061-96.295 54.681-155.307 54.681s-113.207-20.62-155.775-55.047l0.468 0.366zM663.467 613.973l-85.333-42.667c-13.945-7.21-23.312-21.523-23.312-38.024 0-6.982 1.677-13.573 4.65-19.39l-0.112 0.241c7.163-13.992 21.462-23.415 37.966-23.467h0.007c0.141-0.002 0.308-0.003 0.475-0.003 6.856 0 13.307 1.739 18.934 4.8l85.125 42.563c12.469 7.597 20.669 21.12 20.669 36.559 0 23.564-19.103 42.667-42.667 42.667-5.919 0-11.557-1.205-16.681-3.384l0.279 0.105z" />
<glyph unicode="&#xe934;" glyph-name="ankh" data-tags="ankh" d="M768 448h-131.84c54.3 54.864 88.162 130.048 89.171 213.14l0.002 0.194c0 117.821-95.513 213.333-213.333 213.333s-213.333-95.513-213.333-213.333v0c1.012-83.285 34.873-158.469 89.199-213.36l-0.026 0.026h-131.84c-23.564 0-42.667-19.103-42.667-42.667s19.103-42.667 42.667-42.667v0h213.333v-298.667c0-23.564 19.103-42.667 42.667-42.667s42.667 19.103 42.667 42.667v0 298.667h213.333c23.564 0 42.667 19.103 42.667 42.667s-19.103 42.667-42.667 42.667v0zM512 454.827c-39.68 26.453-128 96.427-128 206.507 0 70.692 57.308 128 128 128s128-57.308 128-128v0c0-110.080-88.32-180.48-128-206.507z" />
<glyph unicode="&#xe935;" glyph-name="annoyed-alt" data-tags="annoyed-alt" d="M625.493 381.44l-178.773-64c-16.541-6.125-28.117-21.765-28.117-40.109 0-23.399 18.836-42.399 42.172-42.664h0.025c5.207 0.006 10.192 0.944 14.802 2.656l-0.295-0.096 179.2 64c17.159 5.787 29.295 21.735 29.295 40.517 0 23.564-19.103 42.667-42.667 42.667-5.631 0-11.007-1.091-15.928-3.072l0.287 0.102zM454.827 594.773c-7.712 7.668-18.343 12.407-30.080 12.407s-22.368-4.74-30.082-12.409l0.002 0.002c-7.733-7.795-18.45-12.621-30.293-12.621s-22.56 4.826-30.291 12.618l-0.003 0.003c-7.712 7.668-18.343 12.407-30.080 12.407s-22.368-4.74-30.082-12.409l0.002 0.002c-7.795-7.733-12.621-18.45-12.621-30.293s4.826-22.56 12.618-30.291l0.003-0.003c23.158-23.13 55.135-37.434 90.453-37.434s67.296 14.304 90.455 37.435l-0.001-0.001c7.56 7.693 12.227 18.251 12.227 29.898 0 12.481-5.359 23.71-13.901 31.512l-0.033 0.030zM753.493 594.773c-7.712 7.668-18.343 12.407-30.080 12.407s-22.368-4.74-30.082-12.409l0.002 0.002c-7.733-7.795-18.45-12.621-30.293-12.621s-22.56 4.826-30.291 12.618l-0.003 0.003c-7.712 7.668-18.343 12.407-30.080 12.407s-22.368-4.74-30.082-12.409l0.002 0.002c-7.795-7.733-12.621-18.45-12.621-30.293s4.826-22.56 12.618-30.291l0.003-0.003c23.158-23.13 55.135-37.434 90.453-37.434s67.296 14.304 90.455 37.435l-0.001-0.001c7.56 7.693 12.227 18.251 12.227 29.898 0 12.481-5.359 23.71-13.901 31.512l-0.033 0.030zM512 874.667c-235.641 0-426.667-191.025-426.667-426.667s191.025-426.667 426.667-426.667c235.641 0 426.667 191.025 426.667 426.667v0c0 235.641-191.025 426.667-426.667 426.667v0zM512 106.667c-188.513 0-341.333 152.82-341.333 341.333s152.82 341.333 341.333 341.333c188.513 0 341.333-152.82 341.333-341.333v0c0-188.513-152.82-341.333-341.333-341.333v0z" />
<glyph unicode="&#xe936;" glyph-name="annoyed" data-tags="annoyed" d="M384 576c-23.564 0-42.667-19.103-42.667-42.667s19.103-42.667 42.667-42.667c23.564 0 42.667 19.103 42.667 42.667v0c0 23.564-19.103 42.667-42.667 42.667v0zM640 405.333c-0.003 0-0.006 0-0.009 0-79.754 0-149.286-43.765-185.891-108.588l-0.553-1.065c-3.499-6.055-5.563-13.32-5.563-21.067 0-15.716 8.497-29.448 21.148-36.851l0.202-0.109c6.011-3.467 13.216-5.522 20.9-5.547h0.007c15.854 0.028 29.676 8.699 37.010 21.55l0.11 0.21c22.245 39.725 64.066 66.135 112.057 66.135 0.205 0 0.41 0 0.615-0.001h-0.032c23.564 0 42.667 19.103 42.667 42.667s-19.103 42.667-42.667 42.667v0zM640 576c-23.564 0-42.667-19.103-42.667-42.667s19.103-42.667 42.667-42.667c23.564 0 42.667 19.103 42.667 42.667v0c0 23.564-19.103 42.667-42.667 42.667v0zM512 874.667c-235.641 0-426.667-191.025-426.667-426.667s191.025-426.667 426.667-426.667c235.641 0 426.667 191.025 426.667 426.667v0c0 235.641-191.025 426.667-426.667 426.667v0zM512 106.667c-188.513 0-341.333 152.82-341.333 341.333s152.82 341.333 341.333 341.333c188.513 0 341.333-152.82 341.333-341.333v0c0-188.513-152.82-341.333-341.333-341.333v0z" />
<glyph unicode="&#xe937;" glyph-name="apple-alt" data-tags="apple-alt" d="M874.854 288.273c-51.985 22.648-87.667 73.58-87.667 132.846 0 0.201 0 0.403 0.001 0.604v-0.031c0.73 53.115 29.099 99.445 71.348 125.337l0.652 0.371c12.225 7.645 20.236 21.034 20.236 36.294 0 8.996-2.784 17.342-7.538 24.222l0.093-0.142c-38.866 55.982-100.002 94.16-170.308 101.7l-1.046 0.091c26.465 41.409 42.184 91.906 42.184 146.075 0 8.305-0.37 16.524-1.093 24.641l0.075-1.049c-2.053 21.457-19.987 38.103-41.809 38.103-0.8 0-1.595-0.022-2.384-0.067l0.11 0.005c-75.961-6.962-142.439-42.729-189.305-96.134l-0.279-0.324c-29.63-34.182-51.593-75.829-62.716-121.713l-0.409-1.996c-20.57 7.2-44.291 11.506-68.973 11.832l-0.152 0.002c-91.11-2.663-169.857-53.134-212.286-127.1l-0.652-1.233c-80.542-139.833-31.271-349.375 55.979-475.5 35-50.542 87.521-126.417 166.75-126.417 1.562 0 3.146 0 4.729 0.085 28.099 1.638 54.168 8.765 77.668 20.32l-1.188-0.528c17.941 9.289 39.128 14.836 61.587 15.082l0.080 0.001c21.195-0.266 41.092-5.567 58.631-14.758l-0.714 0.341c24.492-11.864 53.212-18.991 83.549-19.456l0.16-0.002c81.625 1.542 129.835 71.958 165.042 123.417 26.263 38.138 48.173 82.079 63.514 128.992l1.028 3.633c1.23 3.809 1.94 8.192 1.94 12.74 0 17.887-10.971 33.211-26.55 39.611l-0.285 0.104zM572.729 765.106c22.022 24.558 49.456 43.805 80.462 55.923l1.434 0.493c-7.362-35.426-22.862-66.429-44.486-92.104l0.257 0.313c-14.951-17.854-32.824-32.678-52.982-43.889l-0.955-0.488-0.125-0.043c-1.208-0.5-2.417-0.958-3.627-1.458-7.958-3.125-17.792-7-25.375-9.5 7.833 35.137 23.701 65.765 45.613 91.006l-0.216-0.254zM764.791 151.356c-34.292-50.083-61.269-85.625-96.187-86.25-17.715 0.058-34.341 4.668-48.784 12.721l0.513-0.263c-26.801 13.355-58.355 21.243-91.733 21.418h-0.059c-34.604-0.18-67.284-8.233-96.399-22.455l1.315 0.58c-13.459-7.022-29.207-11.703-45.896-13.055l-0.437-0.028h-1.271c-34.688 0-72 53.875-96.771 89.667-61.979 89.583-119.146 268.083-52.187 384.333 28.247 49.908 80.175 83.523 140.115 85.573l0.281 0.008 1.437 0.043c25.84-2.252 49.605-9.007 71.23-19.487l-1.209 0.529c5.604-2.208 11.125-4.416 16.604-6.458 1.396-0.584 2.833-1.125 4.291-1.583 14.056-5.82 30.346-9.48 47.409-10.118l0.258-0.008c24.607 2.006 47.274 8.418 67.852 18.452l-1.121-0.493c26.973 13.389 58.739 21.223 92.336 21.223 0.878 0 1.755-0.005 2.631-0.016l-0.133 0.001c36.699-1.479 69.984-14.979 96.3-36.639l-0.279 0.223c-44.977-41.535-73.048-100.804-73.048-166.628 0-0.6 0.002-1.198 0.007-1.797l-0.001 0.092v-0.043c-0.003-0.424-0.005-0.925-0.005-1.427 0-79.775 41.306-149.902 103.697-190.16l0.89-0.538c-12.41-29.689-26.364-55.146-42.612-78.911l0.965 1.494z" />
<glyph unicode="&#xe938;" glyph-name="apple" data-tags="apple" d="M637.44 738.56c28.406 32.603 45.725 75.515 45.725 122.472 0 4.798-0.181 9.554-0.536 14.261l0.038-0.626c-51.341-4.263-96.334-28.41-127.803-64.622l-0.197-0.232c-26.928-31.007-43.34-71.776-43.34-116.377 0-5.443 0.244-10.83 0.723-16.149l-0.050 0.686c0.39-0.003 0.851-0.005 1.312-0.005 50.275 0 95.047 23.565 123.871 60.252l0.257 0.34zM744.96 421.12c0.619 68.547 36.984 128.466 91.335 162.085l0.825 0.475c-35.034 50.008-91.515 82.925-155.799 85.323l-0.361 0.011c-66.56 6.827-128-38.827-163.413-38.827s-85.333 37.973-140.8 37.12c-75.838-2.576-141.214-44.999-176.096-106.896l-0.544-1.051c-75.093-130.56-19.2-324.693 55.893-430.080 34.133-51.627 76.8-110.080 133.12-107.947s74.667 34.987 139.947 34.987 85.333-34.987 140.8-33.707 94.72 52.907 130.56 104.533c24 34.965 43.996 75.261 57.949 118.279l0.931 3.321c-67.582 29.359-114.049 95.403-114.347 172.335v0.038z" />
<glyph unicode="&#xe939;" glyph-name="apps" data-tags="apps" d="M426.667 405.333h-298.667c-23.564 0-42.667-19.103-42.667-42.667v0-298.667c0-23.564 19.103-42.667 42.667-42.667v0h298.667c23.564 0 42.667 19.103 42.667 42.667v0 298.667c0 23.564-19.103 42.667-42.667 42.667v0zM384 106.667h-213.333v213.333h213.333zM896 874.667h-298.667c-23.564 0-42.667-19.103-42.667-42.667v0-298.667c0-23.564 19.103-42.667 42.667-42.667v0h298.667c23.564 0 42.667 19.103 42.667 42.667v0 298.667c0 23.564-19.103 42.667-42.667 42.667v0zM853.333 576h-213.333v213.333h213.333zM896 405.333h-298.667c-23.564 0-42.667-19.103-42.667-42.667v0-298.667c0-23.564 19.103-42.667 42.667-42.667v0h298.667c23.564 0 42.667 19.103 42.667 42.667v0 298.667c0 23.564-19.103 42.667-42.667 42.667v0zM853.333 106.667h-213.333v213.333h213.333zM426.667 874.667h-298.667c-23.564 0-42.667-19.103-42.667-42.667v0-298.667c0-23.564 19.103-42.667 42.667-42.667v0h298.667c23.564 0 42.667 19.103 42.667 42.667v0 298.667c0 23.564-19.103 42.667-42.667 42.667v0zM384 576h-213.333v213.333h213.333z" />
<glyph unicode="&#xe93a;" glyph-name="archive-alt" data-tags="archive-alt" d="M426.667 405.333h170.667c23.564 0 42.667 19.103 42.667 42.667s-19.103 42.667-42.667 42.667v0h-170.667c-23.564 0-42.667-19.103-42.667-42.667s19.103-42.667 42.667-42.667v0zM810.667 832h-597.333c-70.264-0.563-127.007-57.653-127.007-127.996 0-55.027 34.724-101.945 83.455-120.036l0.886-0.288v-391.68c0-70.692 57.308-128 128-128v0h426.667c70.692 0 128 57.308 128 128v0 391.68c49.617 18.379 84.34 65.296 84.34 120.324 0 70.343-56.743 127.434-126.954 127.996h-0.053zM768 192c0-23.564-19.103-42.667-42.667-42.667v0h-426.667c-23.564 0-42.667 19.103-42.667 42.667v0 384h512zM810.667 661.333h-597.333c-23.564 0-42.667 19.103-42.667 42.667s19.103 42.667 42.667 42.667v0h597.333c23.564 0 42.667-19.103 42.667-42.667s-19.103-42.667-42.667-42.667v0z" />
<glyph unicode="&#xe93b;" glyph-name="archive" data-tags="archive" d="M426.667 362.667h170.667c23.564 0 42.667 19.103 42.667 42.667s-19.103 42.667-42.667 42.667v0h-170.667c-23.564 0-42.667-19.103-42.667-42.667s19.103-42.667 42.667-42.667v0zM810.667 832h-597.333c-70.692 0-128-57.308-128-128v0-128c0-23.564 19.103-42.667 42.667-42.667v0h42.667v-341.333c0-70.692 57.308-128 128-128v0h426.667c70.692 0 128 57.308 128 128v0 341.333h42.667c23.564 0 42.667 19.103 42.667 42.667v0 128c0 70.692-57.308 128-128 128v0zM768 192c0-23.564-19.103-42.667-42.667-42.667v0h-426.667c-23.564 0-42.667 19.103-42.667 42.667v0 341.333h512zM853.333 618.667h-682.667v85.333c0 23.564 19.103 42.667 42.667 42.667v0h597.333c23.564 0 42.667-19.103 42.667-42.667v0z" />
<glyph unicode="&#xe93c;" glyph-name="archway" data-tags="archway" d="M938.667 106.667h-42.667v512h42.667c23.564 0 42.667 19.103 42.667 42.667s-19.103 42.667-42.667 42.667v0h-42.667v128c0 23.564-19.103 42.667-42.667 42.667v0h-682.667c-23.564 0-42.667-19.103-42.667-42.667v0-128h-42.667c-23.564 0-42.667-19.103-42.667-42.667s19.103-42.667 42.667-42.667v0h42.667v-512h-42.667c-23.564 0-42.667-19.103-42.667-42.667s19.103-42.667 42.667-42.667v0h853.333c23.564 0 42.667 19.103 42.667 42.667s-19.103 42.667-42.667 42.667v0zM640 106.667h-256v150.613c0 0.177-0.001 0.387-0.001 0.596 0 95.726 50.764 179.596 126.841 226.157l1.16 0.66c77.236-47.221 128.001-131.090 128.001-226.817 0-0.21 0-0.419-0.001-0.629v0.032zM810.667 106.667h-85.333v150.613c0.002 0.453 0.003 0.988 0.003 1.524 0 136.26-78.181 254.26-192.134 311.589l-2.003 0.913c-5.59 2.877-12.198 4.564-19.2 4.564s-13.61-1.687-19.44-4.676l0.24 0.112c-115.955-58.242-194.137-176.242-194.137-312.503 0-0.536 0.001-1.071 0.004-1.607v0.083-150.613h-85.333v512h597.333zM810.667 704h-597.333v85.333h597.333z" />
<glyph unicode="&#xe93d;" glyph-name="arrow-break" data-tags="arrow-break" d="M298.667 490.667h426.667c23.564 0 42.667 19.103 42.667 42.667s-19.103 42.667-42.667 42.667v0h-170.667v153.173l33.707-34.133c7.733-7.795 18.45-12.621 30.293-12.621s22.56 4.826 30.291 12.618l0.003 0.003c7.795 7.733 12.621 18.45 12.621 30.293s-4.826 22.56-12.618 30.291l-106.67 106.67c-3.937 3.773-8.616 6.808-13.791 8.859l-0.289 0.101c-4.793 2.024-10.366 3.201-16.213 3.201s-11.42-1.176-16.495-3.305l0.281 0.105c-5.464-2.152-10.143-5.187-14.095-8.974l0.015 0.014-106.667-106.667c-7.753-7.753-12.548-18.463-12.548-30.293 0-23.661 19.181-42.841 42.841-42.841 11.83 0 22.541 4.795 30.293 12.548v0l33.707 34.133v-153.173h-170.667c-23.564 0-42.667-19.103-42.667-42.667s19.103-42.667 42.667-42.667v0zM725.333 405.333h-426.667c-23.564 0-42.667-19.103-42.667-42.667s19.103-42.667 42.667-42.667v0h170.667v-153.173l-33.707 34.133c-7.753 7.753-18.463 12.548-30.293 12.548-23.661 0-42.841-19.181-42.841-42.841 0-11.83 4.795-22.541 12.548-30.293l106.667-106.667c3.937-3.773 8.616-6.808 13.791-8.859l0.289-0.101c4.771-2.163 10.345-3.423 16.213-3.423s11.443 1.26 16.466 3.525l-0.253-0.102c5.464 2.152 10.143 5.187 14.095 8.974l-0.015-0.014 106.667 106.667c7.753 7.753 12.548 18.463 12.548 30.293 0 23.661-19.181 42.841-42.841 42.841-11.83 0-22.541-4.795-30.293-12.548v0l-33.707-34.133v153.173h170.667c23.564 0 42.667 19.103 42.667 42.667s-19.103 42.667-42.667 42.667v0z" />
<glyph unicode="&#xe93e;" glyph-name="arrow-circle-down" data-tags="arrow-circle-down" d="M481.707 289.707c3.937-3.773 8.616-6.808 13.791-8.859l0.289-0.101c4.793-2.024 10.366-3.201 16.213-3.201s11.42 1.176 16.495 3.305l-0.281-0.105c5.464 2.152 10.143 5.187 14.095 8.974l-0.015-0.014 128 128c7.753 7.753 12.548 18.463 12.548 30.293 0 23.661-19.181 42.841-42.841 42.841-11.83 0-22.541-4.795-30.293-12.548v0l-55.040-55.467v153.173c0 23.564-19.103 42.667-42.667 42.667s-42.667-19.103-42.667-42.667v0-153.173l-55.040 55.467c-7.733 7.795-18.45 12.621-30.293 12.621s-22.56-4.826-30.291-12.618l-0.003-0.003c-7.795-7.733-12.621-18.45-12.621-30.293s4.826-22.56 12.618-30.291l0.003-0.003zM512 21.333c235.641 0 426.667 191.025 426.667 426.667s-191.025 426.667-426.667 426.667c-235.641 0-426.667-191.025-426.667-426.667v0c0-235.641 191.025-426.667 426.667-426.667v0zM512 789.333c188.513 0 341.333-152.82 341.333-341.333s-152.82-341.333-341.333-341.333c-188.513 0-341.333 152.82-341.333 341.333v0c0 188.513 152.82 341.333 341.333 341.333v0z" />
<glyph unicode="&#xe93f;" glyph-name="arrow-circle-left" data-tags="arrow-circle-left" d="M353.707 478.293c-3.773-3.937-6.808-8.616-8.859-13.791l-0.101-0.289c-2.024-4.793-3.201-10.366-3.201-16.213s1.176-11.42 3.305-16.495l-0.105 0.281c2.152-5.464 5.187-10.143 8.974-14.095l-0.014 0.015 128-128c7.753-7.753 18.463-12.548 30.293-12.548 23.661 0 42.841 19.181 42.841 42.841 0 11.83-4.795 22.541-12.548 30.293v0l-55.467 55.040h153.173c23.564 0 42.667 19.103 42.667 42.667s-19.103 42.667-42.667 42.667v0h-153.173l55.467 55.040c7.795 7.733 12.621 18.45 12.621 30.293s-4.826 22.56-12.618 30.291l-0.003 0.003c-7.733 7.795-18.45 12.621-30.293 12.621s-22.56-4.826-30.291-12.618l-0.003-0.003zM85.333 448c0-235.641 191.025-426.667 426.667-426.667s426.667 191.025 426.667 426.667c0 235.641-191.025 426.667-426.667 426.667v0c-235.641 0-426.667-191.025-426.667-426.667v0zM853.333 448c0-188.513-152.82-341.333-341.333-341.333s-341.333 152.82-341.333 341.333c0 188.513 152.82 341.333 341.333 341.333v0c188.513 0 341.333-152.82 341.333-341.333v0z" />
<glyph unicode="&#xe940;" glyph-name="arrow-circle-right" data-tags="arrow-circle-right" d="M670.293 417.707c3.773 3.937 6.808 8.616 8.859 13.791l0.101 0.289c2.024 4.793 3.201 10.366 3.201 16.213s-1.176 11.42-3.305 16.495l0.105-0.281c-2.152 5.464-5.187 10.143-8.974 14.095l0.014-0.015-128 128c-7.753 7.753-18.463 12.548-30.293 12.548-23.661 0-42.841-19.181-42.841-42.841 0-11.83 4.795-22.541 12.548-30.293v0l55.467-55.040h-153.173c-23.564 0-42.667-19.103-42.667-42.667s19.103-42.667 42.667-42.667v0h153.173l-55.467-55.040c-7.795-7.733-12.621-18.45-12.621-30.293s4.826-22.56 12.618-30.291l0.003-0.003c7.733-7.795 18.45-12.621 30.293-12.621s22.56 4.826 30.291 12.618l0.003 0.003zM938.667 448c0 235.641-191.025 426.667-426.667 426.667s-426.667-191.025-426.667-426.667c0-235.641 191.025-426.667 426.667-426.667v0c235.641 0 426.667 191.025 426.667 426.667v0zM170.667 448c0 188.513 152.82 341.333 341.333 341.333s341.333-152.82 341.333-341.333c0-188.513-152.82-341.333-341.333-341.333v0c-188.513 0-341.333 152.82-341.333 341.333v0z" />
<glyph unicode="&#xe941;" glyph-name="arrow-circle-up" data-tags="arrow-circle-up" d="M542.293 606.293c-3.937 3.773-8.616 6.808-13.791 8.859l-0.289 0.101c-4.793 2.024-10.366 3.201-16.213 3.201s-11.42-1.176-16.495-3.305l0.281 0.105c-5.464-2.152-10.143-5.187-14.095-8.974l0.015 0.014-128-128c-7.753-7.753-12.548-18.463-12.548-30.293 0-23.661 19.181-42.841 42.841-42.841 11.83 0 22.541 4.795 30.293 12.548v0l55.040 55.467v-153.173c0-23.564 19.103-42.667 42.667-42.667s42.667 19.103 42.667 42.667v0 153.173l55.040-55.467c7.733-7.795 18.45-12.621 30.293-12.621s22.56 4.826 30.291 12.618l0.003 0.003c7.795 7.733 12.621 18.45 12.621 30.293s-4.826 22.56-12.618 30.291l-0.003 0.003zM512 874.667c-235.641 0-426.667-191.025-426.667-426.667s191.025-426.667 426.667-426.667c235.641 0 426.667 191.025 426.667 426.667v0c0 235.641-191.025 426.667-426.667 426.667v0zM512 106.667c-188.513 0-341.333 152.82-341.333 341.333s152.82 341.333 341.333 341.333c188.513 0 341.333-152.82 341.333-341.333v0c0-188.513-152.82-341.333-341.333-341.333v0z" />
<glyph unicode="&#xe942;" glyph-name="arrow-compress-h" data-tags="arrow-compress-h" d="M512 746.667c-23.564 0-42.667-19.103-42.667-42.667v0-512c0-23.564 19.103-42.667 42.667-42.667s42.667 19.103 42.667 42.667v0 512c0 23.564-19.103 42.667-42.667 42.667v0zM456.96 478.293l-106.667 106.667c-7.753 7.753-18.463 12.548-30.293 12.548-23.661 0-42.841-19.181-42.841-42.841 0-11.83 4.795-22.541 12.548-30.293v0l34.133-33.707h-195.84c-23.564 0-42.667-19.103-42.667-42.667s19.103-42.667 42.667-42.667v0h195.84l-34.133-33.707c-7.795-7.733-12.621-18.45-12.621-30.293s4.826-22.56 12.618-30.291l0.003-0.003c7.733-7.795 18.45-12.621 30.293-12.621s22.56 4.826 30.291 12.618l106.67 106.67c3.773 3.937 6.808 8.616 8.859 13.791l0.101 0.289c2.163 4.771 3.423 10.345 3.423 16.213s-1.26 11.443-3.525 16.466l0.102-0.253c-2.152 5.464-5.187 10.143-8.974 14.095l0.014-0.015zM896 490.667h-195.84l34.133 33.707c7.753 7.753 12.548 18.463 12.548 30.293 0 23.661-19.181 42.841-42.841 42.841-11.83 0-22.541-4.795-30.293-12.548l-106.667-106.667c-7.795-7.733-12.621-18.45-12.621-30.293s4.826-22.56 12.618-30.291l106.67-106.67c7.733-7.795 18.45-12.621 30.293-12.621s22.56 4.826 30.291 12.618l0.003 0.003c7.795 7.733 12.621 18.45 12.621 30.293s-4.826 22.56-12.618 30.291l-0.003 0.003-34.133 33.707h195.84c23.564 0 42.667 19.103 42.667 42.667s-19.103 42.667-42.667 42.667v0z" />
<glyph unicode="&#xe943;" glyph-name="arrow-down-left" data-tags="arrow-down-left" d="M725.333 277.333h-323.84l354.133 353.707c7.753 7.753 12.548 18.463 12.548 30.293 0 23.661-19.181 42.841-42.841 42.841-11.83 0-22.541-4.795-30.293-12.548v0l-353.707-354.133v323.84c0 23.564-19.103 42.667-42.667 42.667s-42.667-19.103-42.667-42.667v0-426.667c0.073-5.873 1.322-11.435 3.52-16.489l-0.107 0.275c4.422-10.46 12.58-18.618 22.76-22.935l0.28-0.105c4.778-2.092 10.34-3.34 16.186-3.413h426.694c23.564 0 42.667 19.103 42.667 42.667s-19.103 42.667-42.667 42.667v0z" />
<glyph unicode="&#xe944;" glyph-name="arrow-down-right" data-tags="arrow-down-right" d="M725.333 704c-23.564 0-42.667-19.103-42.667-42.667v0-323.84l-353.707 354.133c-7.753 7.753-18.463 12.548-30.293 12.548-23.661 0-42.841-19.181-42.841-42.841 0-11.83 4.795-22.541 12.548-30.293v0l354.133-353.707h-323.84c-23.564 0-42.667-19.103-42.667-42.667s19.103-42.667 42.667-42.667v0h426.667c5.873 0.073 11.435 1.322 16.489 3.52l-0.275-0.107c10.46 4.422 18.618 12.58 22.935 22.76l0.105 0.28c2.092 4.778 3.34 10.34 3.413 16.186v426.694c0 23.564-19.103 42.667-42.667 42.667v0z" />
<glyph unicode="&#xe945;" glyph-name="arrow-down" data-tags="arrow-down" d="M755.627 478.293c-7.733 7.795-18.45 12.621-30.293 12.621s-22.56-4.826-30.291-12.618l-0.003-0.003-140.373-140.8v323.84c0 23.564-19.103 42.667-42.667 42.667s-42.667-19.103-42.667-42.667v0-323.84l-140.373 140.8c-7.753 7.753-18.463 12.548-30.293 12.548-23.661 0-42.841-19.181-42.841-42.841 0-11.83 4.795-22.541 12.548-30.293l213.333-213.333c3.937-3.773 8.616-6.808 13.791-8.859l0.289-0.101c4.771-2.163 10.345-3.423 16.213-3.423s11.443 1.26 16.466 3.525l-0.253-0.102c5.464 2.152 10.143 5.187 14.095 8.974l-0.015-0.014 213.333 213.333c7.795 7.733 12.621 18.45 12.621 30.293s-4.826 22.56-12.618 30.291l-0.003 0.003z" />
<glyph unicode="&#xe946;" glyph-name="arrow-from-right" data-tags="arrow-from-right" d="M128 789.333c-23.564 0-42.667-19.103-42.667-42.667v0-597.333c0-23.564 19.103-42.667 42.667-42.667s42.667 19.103 42.667 42.667v0 597.333c0 23.564-19.103 42.667-42.667 42.667v0zM935.253 464.213c-2.152 5.464-5.187 10.143-8.974 14.095l0.014-0.015-170.667 170.667c-7.753 7.753-18.463 12.548-30.293 12.548-23.661 0-42.841-19.181-42.841-42.841 0-11.83 4.795-22.541 12.548-30.293v0l98.133-97.707h-494.507c-23.564 0-42.667-19.103-42.667-42.667s19.103-42.667 42.667-42.667v0h494.507l-98.133-97.707c-7.795-7.733-12.621-18.45-12.621-30.293s4.826-22.56 12.618-30.291l0.003-0.003c7.733-7.795 18.45-12.621 30.293-12.621s22.56 4.826 30.291 12.618l170.67 170.67c3.773 3.937 6.808 8.616 8.859 13.791l0.101 0.289c2.024 4.793 3.201 10.366 3.201 16.213s-1.176 11.42-3.305 16.495l0.105-0.281z" />
<glyph unicode="&#xe947;" glyph-name="arrow-from-top" data-tags="arrow-from-top" d="M652.373 264.96l-97.707-98.133v494.507c0 23.564-19.103 42.667-42.667 42.667s-42.667-19.103-42.667-42.667v0-494.507l-97.707 98.133c-7.753 7.753-18.463 12.548-30.293 12.548-23.661 0-42.841-19.181-42.841-42.841 0-11.83 4.795-22.541 12.548-30.293l170.667-170.667c3.937-3.773 8.616-6.808 13.791-8.859l0.289-0.101c4.771-2.163 10.345-3.423 16.213-3.423s11.443 1.26 16.466 3.525l-0.253-0.102c5.464 2.152 10.143 5.187 14.095 8.974l-0.015-0.014 170.667 170.667c7.753 7.753 12.548 18.463 12.548 30.293 0 23.661-19.181 42.841-42.841 42.841-11.83 0-22.541-4.795-30.293-12.548v0zM810.667 874.667h-597.333c-23.564 0-42.667-19.103-42.667-42.667s19.103-42.667 42.667-42.667v0h597.333c23.564 0 42.667 19.103 42.667 42.667s-19.103 42.667-42.667 42.667v0z" />
<glyph unicode="&#xe948;" glyph-name="arrow-growth" data-tags="arrow-growth" d="M935.253 677.547c-4.422 10.46-12.58 18.618-22.76 22.935l-0.28 0.105c-4.778 2.092-10.34 3.34-16.186 3.413h-213.36c-23.564 0-42.667-19.103-42.667-42.667s19.103-42.667 42.667-42.667v0h110.507l-238.507-238.507-140.373 140.8c-7.733 7.795-18.45 12.621-30.293 12.621s-22.56-4.826-30.291-12.618l-256.003-256.003c-7.795-7.733-12.621-18.45-12.621-30.293s4.826-22.56 12.618-30.291l0.003-0.003c7.733-7.795 18.45-12.621 30.293-12.621s22.56 4.826 30.291 12.618l0.003 0.003 225.707 226.133 140.373-140.8c7.733-7.795 18.45-12.621 30.293-12.621s22.56 4.826 30.291 12.618l0.003 0.003 268.373 268.8v-110.507c0-23.564 19.103-42.667 42.667-42.667s42.667 19.103 42.667 42.667v0 213.333c-0.073 5.873-1.322 11.435-3.52 16.489l0.107-0.275z" />
<glyph unicode="&#xe949;" glyph-name="arrow-left" data-tags="arrow-left" d="M725.333 490.667h-323.84l140.8 140.373c7.753 7.753 12.548 18.463 12.548 30.293 0 23.661-19.181 42.841-42.841 42.841-11.83 0-22.541-4.795-30.293-12.548l-213.333-213.333c-3.773-3.937-6.808-8.616-8.859-13.791l-0.101-0.289c-2.024-4.793-3.201-10.366-3.201-16.213s1.176-11.42 3.305-16.495l-0.105 0.281c2.152-5.464 5.187-10.143 8.974-14.095l-0.014 0.015 213.333-213.333c7.733-7.795 18.45-12.621 30.293-12.621s22.56 4.826 30.291 12.618l0.003 0.003c7.795 7.733 12.621 18.45 12.621 30.293s-4.826 22.56-12.618 30.291l-0.003 0.003-140.8 140.373h323.84c23.564 0 42.667 19.103 42.667 42.667s-19.103 42.667-42.667 42.667v0z" />
<glyph unicode="&#xe94a;" glyph-name="arrow-random" data-tags="arrow-random" d="M371.2 533.333c7.712-7.668 18.343-12.407 30.080-12.407s22.368 4.74 30.082 12.409l-0.002-0.002c7.668 7.712 12.407 18.343 12.407 30.080s-4.74 22.368-12.409 30.082l0.002-0.002-267.52 268.8c-7.753 7.753-18.463 12.548-30.293 12.548-23.661 0-42.841-19.181-42.841-42.841 0-11.83 4.795-22.541 12.548-30.293v0zM896 362.667c-23.564 0-42.667-19.103-42.667-42.667v0-153.173l-194.56 195.84c-7.862 7.862-18.723 12.725-30.72 12.725-23.994 0-43.445-19.451-43.445-43.445 0-11.997 4.863-22.858 12.725-30.72v0l195.84-194.56h-153.173c-23.564 0-42.667-19.103-42.667-42.667s19.103-42.667 42.667-42.667v0h256c5.873 0.073 11.435 1.322 16.489 3.52l-0.275-0.107c10.46 4.422 18.618 12.58 22.935 22.76l0.105 0.28c2.092 4.778 3.34 10.34 3.413 16.186v256.027c0 23.564-19.103 42.667-42.667 42.667v0zM935.253 848.213c-4.422 10.46-12.58 18.618-22.76 22.935l-0.28 0.105c-4.778 2.092-10.34 3.34-16.186 3.413h-256.027c-23.564 0-42.667-19.103-42.667-42.667s19.103-42.667 42.667-42.667v0h153.173l-695.467-695.040c-7.795-7.733-12.621-18.45-12.621-30.293s4.826-22.56 12.618-30.291l0.003-0.003c7.733-7.795 18.45-12.621 30.293-12.621s22.56 4.826 30.291 12.618l695.043 695.47v-153.173c0-23.564 19.103-42.667 42.667-42.667s42.667 19.103 42.667 42.667v0 256c-0.073 5.873-1.322 11.435-3.52 16.489l0.107-0.275z" />
<glyph unicode="&#xe94b;" glyph-name="arrow-resize-diagonal" data-tags="arrow-resize-diagonal" d="M935.253 848.213c-4.422 10.46-12.58 18.618-22.76 22.935l-0.28 0.105c-4.778 2.092-10.34 3.34-16.186 3.413h-256.027c-23.564 0-42.667-19.103-42.667-42.667s19.103-42.667 42.667-42.667v0h153.173l-622.507-622.507v153.173c0 23.564-19.103 42.667-42.667 42.667s-42.667-19.103-42.667-42.667v0-256c0.073-5.873 1.322-11.435 3.52-16.489l-0.107 0.275c4.422-10.46 12.58-18.618 22.76-22.935l0.28-0.105c4.778-2.092 10.34-3.34 16.186-3.413h256.027c23.564 0 42.667 19.103 42.667 42.667s-19.103 42.667-42.667 42.667v0h-153.173l622.507 622.507v-153.173c0-23.564 19.103-42.667 42.667-42.667s42.667 19.103 42.667 42.667v0 256c-0.073 5.873-1.322 11.435-3.52 16.489l0.107-0.275z" />
<glyph unicode="&#xe94c;" glyph-name="arrow-right" data-tags="arrow-right" d="M764.587 464.213c-2.152 5.464-5.187 10.143-8.974 14.095l0.014-0.015-213.333 213.333c-7.753 7.753-18.463 12.548-30.293 12.548-23.661 0-42.841-19.181-42.841-42.841 0-11.83 4.795-22.541 12.548-30.293v0l140.8-140.373h-323.84c-23.564 0-42.667-19.103-42.667-42.667s19.103-42.667 42.667-42.667v0h323.84l-140.8-140.373c-7.795-7.733-12.621-18.45-12.621-30.293s4.826-22.56 12.618-30.291l0.003-0.003c7.733-7.795 18.45-12.621 30.293-12.621s22.56 4.826 30.291 12.618l213.336 213.336c3.773 3.937 6.808 8.616 8.859 13.791l0.101 0.289c2.024 4.793 3.201 10.366 3.201 16.213s-1.176 11.42-3.305 16.495l0.105-0.281z" />
<glyph unicode="&#xe94d;" glyph-name="arrow-to-bottom" data-tags="arrow-to-bottom" d="M810.667 106.667h-597.333c-23.564 0-42.667-19.103-42.667-42.667s19.103-42.667 42.667-42.667v0h597.333c23.564 0 42.667 19.103 42.667 42.667s-19.103 42.667-42.667 42.667v0zM481.707 204.373c3.937-3.773 8.616-6.808 13.791-8.859l0.289-0.101c4.771-2.163 10.345-3.423 16.213-3.423s11.443 1.26 16.466 3.525l-0.253-0.102c5.464 2.152 10.143 5.187 14.095 8.974l-0.015-0.014 170.667 170.667c7.753 7.753 12.548 18.463 12.548 30.293 0 23.661-19.181 42.841-42.841 42.841-11.83 0-22.541-4.795-30.293-12.548v0l-97.707-98.133v494.507c0 23.564-19.103 42.667-42.667 42.667s-42.667-19.103-42.667-42.667v0-494.507l-97.707 98.133c-7.753 7.753-18.463 12.548-30.293 12.548-23.661 0-42.841-19.181-42.841-42.841 0-11.83 4.795-22.541 12.548-30.293v0z" />
<glyph unicode="&#xe94e;" glyph-name="arrow-to-right" data-tags="arrow-to-right" d="M755.627 478.293l-170.667 170.667c-7.753 7.753-18.463 12.548-30.293 12.548-23.661 0-42.841-19.181-42.841-42.841 0-11.83 4.795-22.541 12.548-30.293v0l98.133-97.707h-494.507c-23.564 0-42.667-19.103-42.667-42.667s19.103-42.667 42.667-42.667v0h494.507l-98.133-97.707c-7.795-7.733-12.621-18.45-12.621-30.293s4.826-22.56 12.618-30.291l0.003-0.003c7.733-7.795 18.45-12.621 30.293-12.621s22.56 4.826 30.291 12.618l170.67 170.67c3.773 3.937 6.808 8.616 8.859 13.791l0.101 0.289c2.024 4.793 3.201 10.366 3.201 16.213s-1.176 11.42-3.305 16.495l0.105-0.281c-2.152 5.464-5.187 10.143-8.974 14.095l0.014-0.015zM896 789.333c-23.564 0-42.667-19.103-42.667-42.667v0-597.333c0-23.564 19.103-42.667 42.667-42.667s42.667 19.103 42.667 42.667v0 597.333c0 23.564-19.103 42.667-42.667 42.667v0z" />
<glyph unicode="&#xe94f;" glyph-name="arrow-up-left" data-tags="arrow-up-left" d="M401.493 618.667h323.84c23.564 0 42.667 19.103 42.667 42.667s-19.103 42.667-42.667 42.667v0h-426.667c-5.873-0.073-11.435-1.322-16.489-3.52l0.275 0.107c-10.46-4.422-18.618-12.58-22.935-22.76l-0.105-0.28c-2.092-4.778-3.34-10.34-3.413-16.186v-426.694c0-23.564 19.103-42.667 42.667-42.667s42.667 19.103 42.667 42.667v0 323.84l353.707-354.133c7.733-7.795 18.45-12.621 30.293-12.621s22.56 4.826 30.291 12.618l0.003 0.003c7.795 7.733 12.621 18.45 12.621 30.293s-4.826 22.56-12.618 30.291l-0.003 0.003z" />
<glyph unicode="&#xe950;" glyph-name="arrow-up-right" data-tags="arrow-up-right" d="M764.587 677.547c-4.422 10.46-12.58 18.618-22.76 22.935l-0.28 0.105c-4.778 2.092-10.34 3.34-16.186 3.413h-426.694c-23.564 0-42.667-19.103-42.667-42.667s19.103-42.667 42.667-42.667v0h323.84l-354.133-353.707c-7.795-7.733-12.621-18.45-12.621-30.293s4.826-22.56 12.618-30.291l0.003-0.003c7.733-7.795 18.45-12.621 30.293-12.621s22.56 4.826 30.291 12.618l0.003 0.003 353.707 354.133v-323.84c0-23.564 19.103-42.667 42.667-42.667s42.667 19.103 42.667 42.667v0 426.667c-0.073 5.873-1.322 11.435-3.52 16.489l0.107-0.275z" />
<glyph unicode="&#xe951;" glyph-name="arrow-up" data-tags="arrow-up" d="M755.627 478.293l-213.333 213.333c-3.937 3.773-8.616 6.808-13.791 8.859l-0.289 0.101c-4.793 2.024-10.366 3.201-16.213 3.201s-11.42-1.176-16.495-3.305l0.281 0.105c-5.464-2.152-10.143-5.187-14.095-8.974l0.015 0.014-213.333-213.333c-7.753-7.753-12.548-18.463-12.548-30.293 0-23.661 19.181-42.841 42.841-42.841 11.83 0 22.541 4.795 30.293 12.548v0l140.373 140.8v-323.84c0-23.564 19.103-42.667 42.667-42.667s42.667 19.103 42.667 42.667v0 323.84l140.373-140.8c7.733-7.795 18.45-12.621 30.293-12.621s22.56 4.826 30.291 12.618l0.003 0.003c7.795 7.733 12.621 18.45 12.621 30.293s-4.826 22.56-12.618 30.291l-0.003 0.003z" />
<glyph unicode="&#xe952;" glyph-name="arrow" data-tags="arrow" d="M414.293 691.627c-7.733 7.795-18.45 12.621-30.293 12.621s-22.56-4.826-30.291-12.618l-213.336-213.336c-7.795-7.733-12.621-18.45-12.621-30.293s4.826-22.56 12.618-30.291l213.336-213.336c7.733-7.795 18.45-12.621 30.293-12.621s22.56 4.826 30.291 12.618l0.003 0.003c7.795 7.733 12.621 18.45 12.621 30.293s-4.826 22.56-12.618 30.291l-0.003 0.003-183.467 183.040 183.467 183.040c7.795 7.733 12.621 18.45 12.621 30.293s-4.826 22.56-12.618 30.291l-0.003 0.003zM883.627 478.293l-213.333 213.333c-7.753 7.753-18.463 12.548-30.293 12.548-23.661 0-42.841-19.181-42.841-42.841 0-11.83 4.795-22.541 12.548-30.293v0l183.467-183.040-183.467-183.040c-7.795-7.733-12.621-18.45-12.621-30.293s4.826-22.56 12.618-30.291l0.003-0.003c7.733-7.795 18.45-12.621 30.293-12.621s22.56 4.826 30.291 12.618l213.336 213.336c7.795 7.733 12.621 18.45 12.621 30.293s-4.826 22.56-12.618 30.291l-0.003 0.003z" />
</font>
</defs>
</svg>
