<?xml version="1.0" standalone="no"?>
<!DOCTYPE svg PUBLIC "-//W3C//DTD SVG 1.1//EN" "http://www.w3.org/Graphics/SVG/1.1/DTD/svg11.dtd" >
<svg xmlns="http://www.w3.org/2000/svg">
<metadata>
<json>
<![CDATA[
{
	"fontFamily": "Unicons-Solid",
	"fontURL": "https://github.com/Iconscout/unicons",
	"designer": "",
	"designerURL": "",
	"license": "SIL OFL 1.1",
	"licenseURL": "http://scripts.sil.org/OFL",
	"description": "Font generated by IcoMoon.",
	"majorVersion": 1,
	"minorVersion": 0,
	"version": "Version 1.0",
	"fontId": "Unicons-Solid",
	"psName": "Unicons-Solid",
	"subFamily": "Regular",
	"fullName": "Unicons-Solid"
}
]]>
</json>
</metadata>
<defs>
<font id="Unicons-Solid" horiz-adv-x="1024">
<font-face units-per-em="1024" ascent="960" descent="-64" />
<missing-glyph horiz-adv-x="1024" />
<glyph unicode="&#x20;" horiz-adv-x="512" d="" />
<glyph unicode="&#xe900;" glyph-name="airplay" data-tags="airplay" d="M546.133 388.267c-4.267 4.267-4.267 8.533-8.533 8.533-21.333 12.8-46.933 8.533-64-8.533l-170.667-256c0-8.533-4.267-17.067-4.267-25.6 0-25.6 17.067-42.667 42.667-42.667h341.333c8.533 0 17.067 4.267 25.6 8.533 21.333 12.8 25.6 38.4 12.8 59.733l-174.933 256zM810.667 832h-597.333c-72.533 0-128-55.467-128-128v-384c0-72.533 55.467-128 128-128h34.133c25.6 0 42.667 17.067 42.667 42.667s-17.067 42.667-42.667 42.667h-34.133c-25.6 0-42.667 17.067-42.667 42.667v384c0 25.6 17.067 42.667 42.667 42.667h597.333c25.6 0 42.667-17.067 42.667-42.667v-384c0-25.6-17.067-42.667-42.667-42.667h-34.133c-25.6 0-42.667-17.067-42.667-42.667s17.067-42.667 42.667-42.667h34.133c72.533 0 128 55.467 128 128v384c0 72.533-55.467 128-128 128z" />
<glyph unicode="&#xe901;" glyph-name="align-alt" data-tags="align-alt" d="M426.667 320h-298.667c-25.6 0-42.667-17.067-42.667-42.667s17.067-42.667 42.667-42.667h298.667c25.6 0 42.667 17.067 42.667 42.667s-17.067 42.667-42.667 42.667zM426.667 490.667h-298.667c-25.6 0-42.667-17.067-42.667-42.667s17.067-42.667 42.667-42.667h298.667c25.6 0 42.667 17.067 42.667 42.667s-17.067 42.667-42.667 42.667zM426.667 661.333h-298.667c-25.6 0-42.667-17.067-42.667-42.667s17.067-42.667 42.667-42.667h298.667c25.6 0 42.667 17.067 42.667 42.667s-17.067 42.667-42.667 42.667zM597.333 746.667h298.667c25.6 0 42.667 17.067 42.667 42.667s-17.067 42.667-42.667 42.667h-298.667c-25.6 0-42.667-17.067-42.667-42.667s17.067-42.667 42.667-42.667zM426.667 149.333h-298.667c-25.6 0-42.667-17.067-42.667-42.667s17.067-42.667 42.667-42.667h298.667c25.6 0 42.667 17.067 42.667 42.667s-17.067 42.667-42.667 42.667zM896 320h-298.667c-25.6 0-42.667-17.067-42.667-42.667s17.067-42.667 42.667-42.667h298.667c25.6 0 42.667 17.067 42.667 42.667s-17.067 42.667-42.667 42.667zM896 661.333h-298.667c-25.6 0-42.667-17.067-42.667-42.667s17.067-42.667 42.667-42.667h298.667c25.6 0 42.667 17.067 42.667 42.667s-17.067 42.667-42.667 42.667zM426.667 832h-128c-25.6 0-42.667-17.067-42.667-42.667s17.067-42.667 42.667-42.667h128c25.6 0 42.667 17.067 42.667 42.667s-17.067 42.667-42.667 42.667zM896 490.667h-298.667c-25.6 0-42.667-17.067-42.667-42.667s17.067-42.667 42.667-42.667h298.667c25.6 0 42.667 17.067 42.667 42.667s-17.067 42.667-42.667 42.667zM725.333 149.333h-128c-25.6 0-42.667-17.067-42.667-42.667s17.067-42.667 42.667-42.667h128c25.6 0 42.667 17.067 42.667 42.667s-17.067 42.667-42.667 42.667z" />
<glyph unicode="&#xe902;" glyph-name="align-center-justify" data-tags="align-center-justify" d="M725.333 149.333h-426.667c-25.6 0-42.667-17.067-42.667-42.667s17.067-42.667 42.667-42.667h426.667c25.6 0 42.667 17.067 42.667 42.667s-17.067 42.667-42.667 42.667zM128 746.667h768c25.6 0 42.667 17.067 42.667 42.667s-17.067 42.667-42.667 42.667h-768c-25.6 0-42.667-17.067-42.667-42.667s17.067-42.667 42.667-42.667zM896 320h-768c-25.6 0-42.667-17.067-42.667-42.667s17.067-42.667 42.667-42.667h768c25.6 0 42.667 17.067 42.667 42.667s-17.067 42.667-42.667 42.667zM896 490.667h-768c-25.6 0-42.667-17.067-42.667-42.667s17.067-42.667 42.667-42.667h768c25.6 0 42.667 17.067 42.667 42.667s-17.067 42.667-42.667 42.667zM896 661.333h-768c-25.6 0-42.667-17.067-42.667-42.667s17.067-42.667 42.667-42.667h768c25.6 0 42.667 17.067 42.667 42.667s-17.067 42.667-42.667 42.667z" />
<glyph unicode="&#xe903;" glyph-name="align-center" data-tags="align-center" d="M298.667 576c-25.6 0-42.667-17.067-42.667-42.667s17.067-42.667 42.667-42.667h426.667c25.6 0 42.667 17.067 42.667 42.667s-17.067 42.667-42.667 42.667h-426.667zM128 661.333h768c25.6 0 42.667 17.067 42.667 42.667s-17.067 42.667-42.667 42.667h-768c-25.6 0-42.667-17.067-42.667-42.667s17.067-42.667 42.667-42.667zM725.333 234.667h-426.667c-25.6 0-42.667-17.067-42.667-42.667s17.067-42.667 42.667-42.667h426.667c25.6 0 42.667 17.067 42.667 42.667s-17.067 42.667-42.667 42.667zM896 405.333h-768c-25.6 0-42.667-17.067-42.667-42.667s17.067-42.667 42.667-42.667h768c25.6 0 42.667 17.067 42.667 42.667s-17.067 42.667-42.667 42.667z" />
<glyph unicode="&#xe904;" glyph-name="align-justify" data-tags="align-justify" d="M128 661.333h768c25.6 0 42.667 17.067 42.667 42.667s-17.067 42.667-42.667 42.667h-768c-25.6 0-42.667-17.067-42.667-42.667s17.067-42.667 42.667-42.667zM896 576h-768c-25.6 0-42.667-17.067-42.667-42.667s17.067-42.667 42.667-42.667h768c25.6 0 42.667 17.067 42.667 42.667s-17.067 42.667-42.667 42.667zM896 405.333h-768c-25.6 0-42.667-17.067-42.667-42.667s17.067-42.667 42.667-42.667h768c25.6 0 42.667 17.067 42.667 42.667s-17.067 42.667-42.667 42.667zM896 234.667h-768c-25.6 0-42.667-17.067-42.667-42.667s17.067-42.667 42.667-42.667h768c25.6 0 42.667 17.067 42.667 42.667s-17.067 42.667-42.667 42.667z" />
<glyph unicode="&#xe905;" glyph-name="align-left-justify" data-tags="align-left-justify" d="M896 320h-768c-25.6 0-42.667-17.067-42.667-42.667s17.067-42.667 42.667-42.667h768c25.6 0 42.667 17.067 42.667 42.667s-17.067 42.667-42.667 42.667zM640 149.333h-512c-25.6 0-42.667-17.067-42.667-42.667s17.067-42.667 42.667-42.667h512c25.6 0 42.667 17.067 42.667 42.667s-17.067 42.667-42.667 42.667zM128 746.667h768c25.6 0 42.667 17.067 42.667 42.667s-17.067 42.667-42.667 42.667h-768c-25.6 0-42.667-17.067-42.667-42.667s17.067-42.667 42.667-42.667zM896 661.333h-768c-25.6 0-42.667-17.067-42.667-42.667s17.067-42.667 42.667-42.667h768c25.6 0 42.667 17.067 42.667 42.667s-17.067 42.667-42.667 42.667zM896 490.667h-768c-25.6 0-42.667-17.067-42.667-42.667s17.067-42.667 42.667-42.667h768c25.6 0 42.667 17.067 42.667 42.667s-17.067 42.667-42.667 42.667z" />
<glyph unicode="&#xe906;" glyph-name="align-left" data-tags="align-left" d="M128 661.333h768c25.6 0 42.667 17.067 42.667 42.667s-17.067 42.667-42.667 42.667h-768c-25.6 0-42.667-17.067-42.667-42.667s17.067-42.667 42.667-42.667zM128 490.667h597.333c25.6 0 42.667 17.067 42.667 42.667s-17.067 42.667-42.667 42.667h-597.333c-25.6 0-42.667-17.067-42.667-42.667s17.067-42.667 42.667-42.667zM896 405.333h-768c-25.6 0-42.667-17.067-42.667-42.667s17.067-42.667 42.667-42.667h768c25.6 0 42.667 17.067 42.667 42.667s-17.067 42.667-42.667 42.667zM725.333 234.667h-597.333c-25.6 0-42.667-17.067-42.667-42.667s17.067-42.667 42.667-42.667h597.333c25.6 0 42.667 17.067 42.667 42.667s-17.067 42.667-42.667 42.667z" />
<glyph unicode="&#xe907;" glyph-name="align-letter-right" data-tags="align-letter-right" d="M896 106.667h-768c-25.6 0-42.667-17.067-42.667-42.667s17.067-42.667 42.667-42.667h768c25.6 0 42.667 17.067 42.667 42.667s-17.067 42.667-42.667 42.667zM426.667 789.333h469.333c25.6 0 42.667 17.067 42.667 42.667s-17.067 42.667-42.667 42.667h-469.333c-25.6 0-42.667-17.067-42.667-42.667s17.067-42.667 42.667-42.667zM896 277.333h-426.667c-25.6 0-42.667-17.067-42.667-42.667s17.067-42.667 42.667-42.667h426.667c25.6 0 42.667 17.067 42.667 42.667s-17.067 42.667-42.667 42.667zM896 533.333h-768c-25.6 0-42.667-17.067-42.667-42.667s17.067-42.667 42.667-42.667h768c25.6 0 42.667 17.067 42.667 42.667s-17.067 42.667-42.667 42.667zM896 704h-768c-25.6 0-42.667-17.067-42.667-42.667s17.067-42.667 42.667-42.667h768c25.6 0 42.667 17.067 42.667 42.667s-17.067 42.667-42.667 42.667z" />
<glyph unicode="&#xe908;" glyph-name="align-right-justify" data-tags="align-right-justify" d="M128 746.667h768c25.6 0 42.667 17.067 42.667 42.667s-17.067 42.667-42.667 42.667h-768c-25.6 0-42.667-17.067-42.667-42.667s17.067-42.667 42.667-42.667zM896 149.333h-426.667c-25.6 0-42.667-17.067-42.667-42.667s17.067-42.667 42.667-42.667h426.667c25.6 0 42.667 17.067 42.667 42.667s-17.067 42.667-42.667 42.667zM896 490.667h-768c-25.6 0-42.667-17.067-42.667-42.667s17.067-42.667 42.667-42.667h768c25.6 0 42.667 17.067 42.667 42.667s-17.067 42.667-42.667 42.667zM896 320h-768c-25.6 0-42.667-17.067-42.667-42.667s17.067-42.667 42.667-42.667h768c25.6 0 42.667 17.067 42.667 42.667s-17.067 42.667-42.667 42.667zM896 661.333h-768c-25.6 0-42.667-17.067-42.667-42.667s17.067-42.667 42.667-42.667h768c25.6 0 42.667 17.067 42.667 42.667s-17.067 42.667-42.667 42.667z" />
<glyph unicode="&#xe909;" glyph-name="align-right" data-tags="align-right" d="M128 661.333h768c25.6 0 42.667 17.067 42.667 42.667s-17.067 42.667-42.667 42.667h-768c-25.6 0-42.667-17.067-42.667-42.667s17.067-42.667 42.667-42.667zM896 576h-597.333c-25.6 0-42.667-17.067-42.667-42.667s17.067-42.667 42.667-42.667h597.333c25.6 0 42.667 17.067 42.667 42.667s-17.067 42.667-42.667 42.667zM896 405.333h-768c-25.6 0-42.667-17.067-42.667-42.667s17.067-42.667 42.667-42.667h768c25.6 0 42.667 17.067 42.667 42.667s-17.067 42.667-42.667 42.667zM896 234.667h-597.333c-25.6 0-42.667-17.067-42.667-42.667s17.067-42.667 42.667-42.667h597.333c25.6 0 42.667 17.067 42.667 42.667s-17.067 42.667-42.667 42.667z" />
<glyph unicode="&#xe90a;" glyph-name="analysis" data-tags="analysis" d="M925.867 648.533c-17.067 17.067-42.667 17.067-59.733 0l-268.8-268.8-183.467 183.467c-8.533 8.533-17.067 12.8-29.867 12.8s-21.333-4.267-29.867-12.8l-256-256c-8.533-8.533-12.8-17.067-12.8-29.867 0-25.6 17.067-42.667 42.667-42.667 12.8 0 21.333 4.267 29.867 12.8l226.133 226.133 183.467-183.467c4.267-4.267 8.533-8.533 12.8-8.533 4.267-4.267 12.8-4.267 17.067-4.267 8.533 0 21.333 4.267 25.6 12.8 0 0 0 0 4.267 0 0 0 0 0 0 0s0 0 0 0l298.667 298.667c17.067 17.067 17.067 42.667 0 59.733z" />
<glyph unicode="&#xe90b;" glyph-name="analytics" data-tags="analytics" d="M426.667 874.667c-25.6 0-42.667-17.067-42.667-42.667 0 0 0 0 0 0v-768c0-25.6 17.067-42.667 42.667-42.667s42.667 17.067 42.667 42.667v768c0 25.6-17.067 42.667-42.667 42.667 0 0 0 0 0 0zM213.333 448c-25.6 0-42.667-17.067-42.667-42.667 0 0 0 0 0 0v-341.333c0-25.6 17.067-42.667 42.667-42.667s42.667 17.067 42.667 42.667v341.333c0 25.6-17.067 42.667-42.667 42.667 0 0 0 0 0 0zM640 618.667c-25.6 0-42.667-17.067-42.667-42.667 0 0 0 0 0 0v-512c0-25.6 17.067-42.667 42.667-42.667s42.667 17.067 42.667 42.667v512c0 25.6-17.067 42.667-42.667 42.667 0 0 0 0 0 0zM853.333 277.333c-25.6 0-42.667-17.067-42.667-42.667 0 0 0 0 0 0v-170.667c0-25.6 17.067-42.667 42.667-42.667s42.667 17.067 42.667 42.667v170.667c0 25.6-17.067 42.667-42.667 42.667 0 0 0 0 0 0z" />
<glyph unicode="&#xe90c;" glyph-name="anchor" data-tags="anchor" d="M810.667 405.333h-85.333c-25.6 0-42.667-17.067-42.667-42.667s17.067-42.667 42.667-42.667h38.4c-17.067-106.667-102.4-192-209.067-209.067v379.733h42.667c25.6 0 42.667 17.067 42.667 42.667s-17.067 42.667-42.667 42.667h-42.667v51.2c51.2 17.067 85.333 64 85.333 119.467 0 72.533-55.467 128-128 128s-128-55.467-128-128c0-55.467 34.133-102.4 85.333-119.467v-51.2h-42.667c-25.6 0-42.667-17.067-42.667-42.667s17.067-42.667 42.667-42.667h42.667v-379.733c-106.667 17.067-192 102.4-209.067 209.067h38.4c25.6 0 42.667 17.067 42.667 42.667s-17.067 42.667-42.667 42.667h-85.333c-25.6 0-42.667-17.067-42.667-42.667 0-187.733 153.6-341.333 341.333-341.333s341.333 153.6 341.333 341.333c0 25.6-17.067 42.667-42.667 42.667zM512 789.333c25.6 0 42.667-17.067 42.667-42.667s-17.067-42.667-42.667-42.667-42.667 17.067-42.667 42.667 17.067 42.667 42.667 42.667z" />
<glyph unicode="&#xe90d;" glyph-name="angle-double-down" data-tags="angle-double-down" d="M482.133 469.333c8.533-8.533 17.067-12.8 29.867-12.8s21.333 4.267 29.867 12.8l128 128c17.067 17.067 17.067 42.667 0 59.733s-42.667 17.067-59.733 0l-98.133-93.867-98.133 98.133c-17.067 17.067-42.667 17.067-59.733 0s-17.067-42.667 0-59.733l128-132.267zM610.133 426.667l-98.133-98.133-98.133 98.133c-17.067 17.067-42.667 17.067-59.733 0s-17.067-42.667 0-59.733l128-128c8.533-8.533 17.067-12.8 29.867-12.8s21.333 4.267 29.867 12.8l128 128c17.067 17.067 17.067 42.667 0 59.733-17.067 12.8-42.667 12.8-59.733 0z" />
<glyph unicode="&#xe90e;" glyph-name="angle-double-left" data-tags="angle-double-left" d="M725.333 349.867l-98.133 98.133 98.133 98.133c17.067 17.067 17.067 42.667 0 59.733s-42.667 17.067-59.733 0l-128-128c0 0 0 0 0 0-17.067-17.067-17.067-42.667 0-59.733l128-128c8.533-8.533 17.067-12.8 29.867-12.8s21.333 4.267 29.867 12.8c12.8 17.067 12.8 42.667 0 59.733zM392.533 448l98.133 98.133c17.067 17.067 17.067 42.667 0 59.733s-42.667 17.067-59.733 0l-128-128c0 0 0 0 0 0-17.067-17.067-17.067-42.667 0-59.733l128-128c8.533-8.533 17.067-12.8 29.867-12.8s21.333 4.267 29.867 12.8c17.067 17.067 17.067 42.667 0 59.733l-98.133 98.133z" />
<glyph unicode="&#xe90f;" glyph-name="angle-double-right" data-tags="angle-double-right" d="M362.667 605.867c-17.067 17.067-42.667 17.067-59.733 0s-17.067-42.667 0-59.733l93.867-98.133-98.133-98.133c-8.533-8.533-12.8-17.067-12.8-29.867 0-25.6 17.067-42.667 42.667-42.667 12.8 0 21.333 4.267 29.867 12.8l128 128c0 0 0 0 0 0 17.067 17.067 17.067 42.667 0 59.733l-123.733 128zM725.333 477.867l-128 128c-17.067 17.067-42.667 17.067-59.733 0s-17.067-42.667 0-59.733l98.133-98.133-98.133-98.133c-8.533-8.533-12.8-17.067-12.8-29.867 0-25.6 17.067-42.667 42.667-42.667 12.8 0 21.333 4.267 29.867 12.8l128 128c12.8 17.067 12.8 42.667 0 59.733z" />
<glyph unicode="&#xe910;" glyph-name="angle-double-up" data-tags="angle-double-up" d="M541.867 426.667c0 0 0 0 0 0-17.067 17.067-42.667 17.067-59.733 0l-128-128c-17.067-17.067-17.067-42.667 0-59.733s42.667-17.067 59.733 0l98.133 98.133 98.133-98.133c8.533-8.533 17.067-12.8 29.867-12.8s21.333 4.267 29.867 12.8c17.067 17.067 17.067 42.667 0 59.733l-128 128zM413.867 469.333l98.133 98.133 98.133-98.133c8.533-8.533 17.067-12.8 29.867-12.8s21.333 4.267 29.867 12.8c17.067 17.067 17.067 42.667 0 59.733l-128 128c0 0 0 0 0 0-17.067 17.067-42.667 17.067-59.733 0l-128-128c-17.067-17.067-17.067-42.667 0-59.733 17.067-12.8 42.667-12.8 59.733 0z" />
<glyph unicode="&#xe911;" glyph-name="angle-down" data-tags="angle-down" d="M721.067 567.467c-17.067 17.067-42.667 17.067-59.733 0l-149.333-149.333-149.333 149.333c-17.067 17.067-42.667 17.067-59.733 0s-17.067-42.667 0-59.733l179.2-179.2c8.533-8.533 17.067-12.8 29.867-12.8s21.333 4.267 29.867 12.8l179.2 179.2c17.067 17.067 17.067 42.667 0 59.733z" />
<glyph unicode="&#xe912;" glyph-name="angle-left" data-tags="angle-left" d="M482.133 448l149.333 149.333c17.067 17.067 17.067 42.667 0 59.733s-42.667 17.067-59.733 0l-179.2-179.2c-17.067-17.067-17.067-42.667 0-59.733l179.2-179.2c8.533-8.533 17.067-12.8 29.867-12.8v0c12.8 0 21.333 4.267 29.867 12.8 17.067 17.067 17.067 42.667 0 59.733l-149.333 149.333z" />
<glyph unicode="&#xe913;" glyph-name="angle-right-b" data-tags="angle-right-b" d="M661.333 477.867l-238.933 243.2c-17.067 17.067-42.667 17.067-59.733 0s-17.067-42.667 0-59.733l209.067-209.067-209.067-209.067c-8.533-8.533-12.8-17.067-12.8-29.867 0-25.6 17.067-42.667 42.667-42.667 12.8 0 21.333 4.267 29.867 12.8l243.2 243.2c0 0 0 0 0 0 12.8 8.533 12.8 34.133-4.267 51.2z" />
<glyph unicode="&#xe914;" glyph-name="angle-right" data-tags="angle-right" d="M422.4 226.133c-25.6 0-42.667 17.067-42.667 42.667 0 12.8 4.267 21.333 12.8 29.867l149.333 149.333-149.333 149.333c-17.067 17.067-17.067 42.667 0 59.733s42.667 17.067 59.733 0l179.2-179.2c17.067-17.067 17.067-42.667 0-59.733 0 0 0 0 0 0l-179.2-179.2c-8.533-8.533-21.333-12.8-29.867-12.8z" />
<glyph unicode="&#xe915;" glyph-name="angle-up" data-tags="angle-up" d="M721.067 388.267l-179.2 179.2c-17.067 17.067-42.667 17.067-59.733 0l-179.2-179.2c-17.067-17.067-17.067-42.667 0-59.733s42.667-17.067 59.733 0l149.333 149.333 149.333-149.333c8.533-8.533 17.067-12.8 29.867-12.8v0c12.8 0 21.333 4.267 29.867 12.8 17.067 17.067 17.067 42.667 0 59.733z" />
<glyph unicode="&#xe916;" glyph-name="apps" data-tags="apps" d="M426.667 874.667h-298.667c-25.6 0-42.667-17.067-42.667-42.667v-298.667c0-25.6 17.067-42.667 42.667-42.667h298.667c25.6 0 42.667 17.067 42.667 42.667v298.667c0 25.6-17.067 42.667-42.667 42.667zM426.667 405.333h-298.667c-25.6 0-42.667-17.067-42.667-42.667v-298.667c0-25.6 17.067-42.667 42.667-42.667h298.667c25.6 0 42.667 17.067 42.667 42.667v298.667c0 25.6-17.067 42.667-42.667 42.667zM896 874.667h-298.667c-25.6 0-42.667-17.067-42.667-42.667v-298.667c0-25.6 17.067-42.667 42.667-42.667h298.667c25.6 0 42.667 17.067 42.667 42.667v298.667c0 25.6-17.067 42.667-42.667 42.667zM896 405.333h-298.667c-25.6 0-42.667-17.067-42.667-42.667v-298.667c0-25.6 17.067-42.667 42.667-42.667h298.667c25.6 0 42.667 17.067 42.667 42.667v298.667c0 25.6-17.067 42.667-42.667 42.667z" />
<glyph unicode="&#xe917;" glyph-name="arrow-circle-down" data-tags="arrow-circle-down" d="M512 874.667c-234.667 0-426.667-192-426.667-426.667s192-426.667 426.667-426.667 426.667 192 426.667 426.667-192 426.667-426.667 426.667zM669.867 418.133l-128-128c-4.267-4.267-8.533-8.533-12.8-8.533-8.533-4.267-21.333-4.267-34.133 0-4.267 0-8.533 4.267-12.8 8.533l-128 128c0 0 0 0 0 0-17.067 17.067-17.067 42.667 0 59.733 0 0 0 0 0 0 17.067 17.067 42.667 17.067 59.733 0l55.467-55.467v153.6c0 25.6 17.067 42.667 42.667 42.667s42.667-17.067 42.667-42.667v-153.6l55.467 55.467c17.067 17.067 42.667 17.067 59.733 0s17.067-42.667 0-59.733z" />
<glyph unicode="&#xe918;" glyph-name="arrow-circle-left" data-tags="arrow-circle-left" d="M512 874.667c-234.667 0-426.667-192-426.667-426.667s192-426.667 426.667-426.667 426.667 192 426.667 426.667-192 426.667-426.667 426.667zM640 405.333h-153.6l55.467-55.467c17.067-17.067 17.067-42.667 0-59.733s-42.667-17.067-59.733 0l-128 128c-17.067 17.067-17.067 42.667 0 59.733 0 0 0 0 0 0l128 128c17.067 17.067 42.667 17.067 59.733 0 0 0 0 0 0 0 17.067-17.067 17.067-42.667 0-59.733 0 0 0 0 0 0l-55.467-55.467h153.6c25.6 0 42.667-17.067 42.667-42.667s-17.067-42.667-42.667-42.667z" />
<glyph unicode="&#xe919;" glyph-name="arrow-circle-right" data-tags="arrow-circle-right" d="M512 874.667c-234.667 0-426.667-192-426.667-426.667s192-426.667 426.667-426.667c234.667 0 426.667 192 426.667 426.667s-192 426.667-426.667 426.667zM669.867 418.133c0 0 0 0 0 0l-128-128c-17.067-17.067-42.667-17.067-59.733 0 0 0 0 0 0 0-17.067 17.067-17.067 42.667 0 59.733 0 0 0 0 0 0l55.467 55.467h-153.6c-25.6 0-42.667 17.067-42.667 42.667s17.067 42.667 42.667 42.667h153.6l-55.467 55.467c-17.067 17.067-17.067 42.667 0 59.733s42.667 17.067 59.733 0l128-128c17.067-17.067 17.067-42.667 0-59.733z" />
<glyph unicode="&#xe91a;" glyph-name="arrow-circle-up" data-tags="arrow-circle-up" d="M512 874.667c-234.667 0-426.667-192-426.667-426.667s192-426.667 426.667-426.667 426.667 192 426.667 426.667c0 234.667-192 426.667-426.667 426.667zM669.867 418.133c0 0 0 0 0 0-17.067-17.067-42.667-17.067-59.733 0 0 0 0 0 0 0l-55.467 55.467v-153.6c0-25.6-17.067-42.667-42.667-42.667s-42.667 17.067-42.667 42.667v153.6l-55.467-55.467c-17.067-17.067-42.667-17.067-59.733 0s-17.067 42.667 0 59.733l128 128c17.067 17.067 42.667 17.067 59.733 0 0 0 0 0 0 0l128-128c17.067-17.067 17.067-42.667 0-59.733z" />
<glyph unicode="&#xe91b;" glyph-name="arrow-down-left" data-tags="arrow-down-left" d="M725.333 277.333h-324.267l354.133 354.133c17.067 17.067 17.067 42.667 0 59.733s-42.667 17.067-59.733 0l-354.133-354.133v324.267c0 25.6-17.067 42.667-42.667 42.667s-42.667-17.067-42.667-42.667v-426.667c0-4.267 0-12.8 4.267-17.067 4.267-8.533 12.8-17.067 21.333-21.333 4.267-4.267 12.8-4.267 17.067-4.267h426.667c25.6 0 42.667 17.067 42.667 42.667s-17.067 42.667-42.667 42.667z" />
<glyph unicode="&#xe91c;" glyph-name="arrow-down-right" data-tags="arrow-down-right" d="M725.333 704c-25.6 0-42.667-17.067-42.667-42.667v-324.267l-354.133 354.133c-17.067 17.067-42.667 17.067-59.733 0s-17.067-42.667 0-59.733l354.133-354.133h-324.267c-25.6 0-42.667-17.067-42.667-42.667s17.067-42.667 42.667-42.667h426.667c25.6 0 42.667 17.067 42.667 42.667v426.667c0 25.6-17.067 42.667-42.667 42.667z" />
<glyph unicode="&#xe91d;" glyph-name="arrow-up-left" data-tags="arrow-up-left" d="M401.067 618.667h324.267c25.6 0 42.667 17.067 42.667 42.667s-17.067 42.667-42.667 42.667h-426.667c-25.6 0-42.667-17.067-42.667-42.667v-426.667c0-25.6 17.067-42.667 42.667-42.667s42.667 17.067 42.667 42.667v324.267l354.133-354.133c17.067-17.067 42.667-17.067 59.733 0s17.067 42.667 0 59.733l-354.133 354.133z" />
<glyph unicode="&#xe91e;" glyph-name="arrow-up-right" data-tags="arrow-up-right" d="M725.333 704h-426.667c-25.6 0-42.667-17.067-42.667-42.667s17.067-42.667 42.667-42.667h324.267l-354.133-354.133c-17.067-17.067-17.067-42.667 0-59.733s42.667-17.067 59.733 0l354.133 354.133v-324.267c0-25.6 17.067-42.667 42.667-42.667s42.667 17.067 42.667 42.667v426.667c0 25.6-17.067 42.667-42.667 42.667z" />
<glyph unicode="&#xe91f;" glyph-name="at" data-tags="at" d="M512 874.667c-234.667 0-426.667-192-426.667-426.667s192-426.667 426.667-426.667c76.8 0 149.333 21.333 213.333 55.467 21.333 12.8 25.6 38.4 17.067 59.733-12.8 21.333-38.4 25.6-59.733 17.067 0 0 0 0 0 0-162.133-93.867-371.2-38.4-465.067 123.733s-38.4 371.2 123.733 465.067c162.133 93.867 371.2 38.4 465.067-123.733 29.867-51.2 46.933-110.933 46.933-170.667v-34.133c0-42.667-34.133-76.8-76.8-76.8s-76.8 34.133-76.8 76.8v183.467c0 25.6-17.067 42.667-42.667 42.667-21.333 0-38.4-12.8-42.667-34.133-85.333 59.733-209.067 38.4-268.8-46.933s-38.4-209.067 46.933-268.8c81.067-55.467 187.733-42.667 251.733 29.867 55.467-68.267 153.6-81.067 221.867-29.867 38.4 29.867 64 76.8 64 128v29.867c8.533 234.667-183.467 426.667-418.133 426.667zM512 341.333c-59.733 0-106.667 46.933-106.667 106.667s46.933 106.667 106.667 106.667 106.667-46.933 106.667-106.667c0-59.733-46.933-106.667-106.667-106.667z" />
<glyph unicode="&#xe920;" glyph-name="bag" data-tags="bag" d="M810.667 704h-128v42.667c0 46.933-38.4 85.333-85.333 85.333h-170.667c-46.933 0-85.333-38.4-85.333-85.333v-42.667h-128c-72.533 0-128-55.467-128-128v-384c0-72.533 55.467-128 128-128h597.333c72.533 0 128 55.467 128 128v384c0 72.533-55.467 128-128 128zM426.667 746.667h170.667v-42.667h-170.667v42.667zM853.333 192c0-25.6-17.067-42.667-42.667-42.667h-597.333c-25.6 0-42.667 17.067-42.667 42.667v238.933l200.533-68.267c4.267 0 8.533 0 12.8 0h256c4.267 0 8.533 0 12.8 4.267l200.533 68.267v-243.2z" />
<glyph unicode="&#xe921;" glyph-name="bars" data-tags="bars" d="M853.333 490.667h-682.667c-25.6 0-42.667-17.067-42.667-42.667s17.067-42.667 42.667-42.667h682.667c25.6 0 42.667 17.067 42.667 42.667s-17.067 42.667-42.667 42.667zM170.667 618.667h682.667c25.6 0 42.667 17.067 42.667 42.667s-17.067 42.667-42.667 42.667h-682.667c-25.6 0-42.667-17.067-42.667-42.667s17.067-42.667 42.667-42.667zM853.333 277.333h-682.667c-25.6 0-42.667-17.067-42.667-42.667s17.067-42.667 42.667-42.667h682.667c25.6 0 42.667 17.067 42.667 42.667s-17.067 42.667-42.667 42.667z" />
<glyph unicode="&#xe922;" glyph-name="battery-bolt" data-tags="battery-bolt" d="M725.333 661.333h-554.667c-46.933 0-85.333-38.4-85.333-85.333v-256c0-46.933 38.4-85.333 85.333-85.333h285.867c-25.6 0-42.667 17.067-42.667 42.667 0 8.533 0 12.8 4.267 21.333l59.733 106.667h-136.533c-4.267 0-8.533 0-12.8 4.267 0 0-4.267 0-4.267 0s-4.267 0-4.267 0c0 0-4.267 4.267-4.267 4.267-4.267 0-4.267 4.267-8.533 4.267-4.267 4.267-4.267 8.533-8.533 12.8 0 4.267 0 4.267 0 8.533 0 0 0 4.267 0 4.267s0 0 0 4.267 4.267 12.8 4.267 17.067c0 0 0 0 0 4.267l98.133 170.667c12.8 21.333 38.4 25.6 59.733 17.067 21.333-12.8 25.6-38.4 17.067-59.733 0 0 0 0 0 0l-64-106.667h140.8c0 0 0 0 4.267 0s12.8-4.267 17.067-4.267c0 0 0 0 4.267 0 0 0 4.267-4.267 4.267-4.267 4.267 0 4.267-4.267 8.533-4.267 4.267-4.267 4.267-8.533 8.533-12.8 0-4.267 0-4.267 0-8.533 0 0 0-4.267 0-4.267s0 0 0-4.267-4.267-12.8-4.267-17.067c0 0 0 0 0-4.267l-98.133-170.667c-12.8-12.8-29.867-21.333-42.667-21.333h268.8c46.933 0 85.333 38.4 85.333 85.333v256c0 46.933-38.4 85.333-85.333 85.333zM896 533.333c-25.6 0-42.667-17.067-42.667-42.667v-85.333c0-25.6 17.067-42.667 42.667-42.667s42.667 17.067 42.667 42.667v85.333c0 25.6-17.067 42.667-42.667 42.667z" />
<glyph unicode="&#xe923;" glyph-name="battery-empty" data-tags="battery-empty" d="M896 533.333c-25.6 0-42.667-17.067-42.667-42.667v-85.333c0-25.6 17.067-42.667 42.667-42.667v0c25.6 0 42.667 17.067 42.667 42.667v85.333c0 25.6-17.067 42.667-42.667 42.667zM725.333 661.333h-554.667c-46.933 0-85.333-38.4-85.333-85.333v-256c0-46.933 38.4-85.333 85.333-85.333h554.667c46.933 0 85.333 38.4 85.333 85.333v256c0 46.933-38.4 85.333-85.333 85.333z" />
<glyph unicode="&#xe924;" glyph-name="bookmark" data-tags="bookmark" d="M682.667 874.667h-341.333c-72.533 0-128-55.467-128-128v-682.667c0-8.533 0-12.8 4.267-21.333 12.8-21.333 38.4-25.6 59.733-17.067l234.667 136.533 234.667-136.533c8.533-4.267 12.8-4.267 21.333-4.267 25.6 0 42.667 17.067 42.667 42.667v682.667c0 72.533-55.467 128-128 128z" />
<glyph unicode="&#xe925;" glyph-name="border-alt" data-tags="border-alt" d="M874.667 810.667c0 25.6-17.067 42.667-42.667 42.667h-682.667c-25.6 0-42.667-17.067-42.667-42.667v-682.667c0-25.6 17.067-42.667 42.667-42.667v0c25.6 0 42.667 17.067 42.667 42.667v640h640c25.6 0 42.667 17.067 42.667 42.667zM832 512c-25.6 0-42.667-17.067-42.667-42.667s17.067-42.667 42.667-42.667 42.667 17.067 42.667 42.667-17.067 42.667-42.667 42.667zM832 682.667c-25.6 0-42.667-17.067-42.667-42.667s17.067-42.667 42.667-42.667 42.667 17.067 42.667 42.667-17.067 42.667-42.667 42.667zM832 341.333c-25.6 0-42.667-17.067-42.667-42.667s17.067-42.667 42.667-42.667 42.667 17.067 42.667 42.667-17.067 42.667-42.667 42.667zM320 170.667c-25.6 0-42.667-17.067-42.667-42.667s17.067-42.667 42.667-42.667 42.667 17.067 42.667 42.667-17.067 42.667-42.667 42.667zM490.667 170.667c-25.6 0-42.667-17.067-42.667-42.667s17.067-42.667 42.667-42.667 42.667 17.067 42.667 42.667-17.067 42.667-42.667 42.667zM661.333 170.667c-25.6 0-42.667-17.067-42.667-42.667s17.067-42.667 42.667-42.667 42.667 17.067 42.667 42.667-17.067 42.667-42.667 42.667zM832 170.667c-25.6 0-42.667-17.067-42.667-42.667s17.067-42.667 42.667-42.667 42.667 17.067 42.667 42.667-17.067 42.667-42.667 42.667z" />
<glyph unicode="&#xe926;" glyph-name="border-bottom" data-tags="border-bottom" d="M512 554.667c25.6 0 42.667 17.067 42.667 42.667s-17.067 42.667-42.667 42.667-42.667-17.067-42.667-42.667 17.067-42.667 42.667-42.667zM512 384c25.6 0 42.667 17.067 42.667 42.667s-17.067 42.667-42.667 42.667-42.667-17.067-42.667-42.667 17.067-42.667 42.667-42.667zM512 213.333c25.6 0 42.667 17.067 42.667 42.667s-17.067 42.667-42.667 42.667-42.667-17.067-42.667-42.667 17.067-42.667 42.667-42.667zM512 725.333c25.6 0 42.667 17.067 42.667 42.667s-17.067 42.667-42.667 42.667-42.667-17.067-42.667-42.667 17.067-42.667 42.667-42.667zM853.333 725.333c25.6 0 42.667 17.067 42.667 42.667s-17.067 42.667-42.667 42.667-42.667-17.067-42.667-42.667 17.067-42.667 42.667-42.667zM341.333 725.333c25.6 0 42.667 17.067 42.667 42.667s-17.067 42.667-42.667 42.667-42.667-17.067-42.667-42.667 17.067-42.667 42.667-42.667zM682.667 725.333c25.6 0 42.667 17.067 42.667 42.667s-17.067 42.667-42.667 42.667-42.667-17.067-42.667-42.667 17.067-42.667 42.667-42.667zM682.667 384c25.6 0 42.667 17.067 42.667 42.667s-17.067 42.667-42.667 42.667-42.667-17.067-42.667-42.667 17.067-42.667 42.667-42.667zM170.667 554.667c25.6 0 42.667 17.067 42.667 42.667s-17.067 42.667-42.667 42.667-42.667-17.067-42.667-42.667 17.067-42.667 42.667-42.667zM853.333 298.667c-25.6 0-42.667-17.067-42.667-42.667s17.067-42.667 42.667-42.667 42.667 17.067 42.667 42.667-17.067 42.667-42.667 42.667zM853.333 469.333c-25.6 0-42.667-17.067-42.667-42.667s17.067-42.667 42.667-42.667 42.667 17.067 42.667 42.667-17.067 42.667-42.667 42.667zM853.333 640c-25.6 0-42.667-17.067-42.667-42.667s17.067-42.667 42.667-42.667 42.667 17.067 42.667 42.667-17.067 42.667-42.667 42.667zM853.333 128h-682.667c-25.6 0-42.667-17.067-42.667-42.667s17.067-42.667 42.667-42.667h682.667c25.6 0 42.667 17.067 42.667 42.667s-17.067 42.667-42.667 42.667zM170.667 384c25.6 0 42.667 17.067 42.667 42.667s-17.067 42.667-42.667 42.667-42.667-17.067-42.667-42.667 17.067-42.667 42.667-42.667zM170.667 725.333c25.6 0 42.667 17.067 42.667 42.667s-17.067 42.667-42.667 42.667-42.667-17.067-42.667-42.667 17.067-42.667 42.667-42.667zM341.333 384c25.6 0 42.667 17.067 42.667 42.667s-17.067 42.667-42.667 42.667-42.667-17.067-42.667-42.667 17.067-42.667 42.667-42.667zM170.667 213.333c25.6 0 42.667 17.067 42.667 42.667s-17.067 42.667-42.667 42.667-42.667-17.067-42.667-42.667 17.067-42.667 42.667-42.667z" />
<glyph unicode="&#xe927;" glyph-name="border-clear" data-tags="border-clear" d="M512 320c-25.6 0-42.667-17.067-42.667-42.667s17.067-42.667 42.667-42.667 42.667 17.067 42.667 42.667-17.067 42.667-42.667 42.667zM512 149.333c-25.6 0-42.667-17.067-42.667-42.667s17.067-42.667 42.667-42.667 42.667 17.067 42.667 42.667-17.067 42.667-42.667 42.667zM512 661.333c-25.6 0-42.667-17.067-42.667-42.667s17.067-42.667 42.667-42.667 42.667 17.067 42.667 42.667-17.067 42.667-42.667 42.667zM512 832c-25.6 0-42.667-17.067-42.667-42.667s17.067-42.667 42.667-42.667 42.667 17.067 42.667 42.667-17.067 42.667-42.667 42.667zM170.667 320c-25.6 0-42.667-17.067-42.667-42.667s17.067-42.667 42.667-42.667 42.667 17.067 42.667 42.667-17.067 42.667-42.667 42.667zM170.667 149.333c-25.6 0-42.667-17.067-42.667-42.667s17.067-42.667 42.667-42.667 42.667 17.067 42.667 42.667-17.067 42.667-42.667 42.667zM170.667 661.333c-25.6 0-42.667-17.067-42.667-42.667s17.067-42.667 42.667-42.667 42.667 17.067 42.667 42.667-17.067 42.667-42.667 42.667zM170.667 832c-25.6 0-42.667-17.067-42.667-42.667s17.067-42.667 42.667-42.667 42.667 17.067 42.667 42.667-17.067 42.667-42.667 42.667zM341.333 832c-25.6 0-42.667-17.067-42.667-42.667s17.067-42.667 42.667-42.667 42.667 17.067 42.667 42.667-17.067 42.667-42.667 42.667zM682.667 832c-25.6 0-42.667-17.067-42.667-42.667s17.067-42.667 42.667-42.667 42.667 17.067 42.667 42.667-17.067 42.667-42.667 42.667zM341.333 149.333c-25.6 0-42.667-17.067-42.667-42.667s17.067-42.667 42.667-42.667 42.667 17.067 42.667 42.667-17.067 42.667-42.667 42.667zM682.667 149.333c-25.6 0-42.667-17.067-42.667-42.667s17.067-42.667 42.667-42.667 42.667 17.067 42.667 42.667-17.067 42.667-42.667 42.667zM341.333 490.667c-25.6 0-42.667-17.067-42.667-42.667s17.067-42.667 42.667-42.667 42.667 17.067 42.667 42.667-17.067 42.667-42.667 42.667zM682.667 490.667c-25.6 0-42.667-17.067-42.667-42.667s17.067-42.667 42.667-42.667 42.667 17.067 42.667 42.667-17.067 42.667-42.667 42.667zM853.333 320c-25.6 0-42.667-17.067-42.667-42.667s17.067-42.667 42.667-42.667 42.667 17.067 42.667 42.667-17.067 42.667-42.667 42.667zM853.333 149.333c-25.6 0-42.667-17.067-42.667-42.667s17.067-42.667 42.667-42.667 42.667 17.067 42.667 42.667-17.067 42.667-42.667 42.667zM853.333 661.333c-25.6 0-42.667-17.067-42.667-42.667s17.067-42.667 42.667-42.667 42.667 17.067 42.667 42.667-17.067 42.667-42.667 42.667zM512 490.667c-25.6 0-42.667-17.067-42.667-42.667s17.067-42.667 42.667-42.667 42.667 17.067 42.667 42.667-17.067 42.667-42.667 42.667zM170.667 490.667c-25.6 0-42.667-17.067-42.667-42.667s17.067-42.667 42.667-42.667 42.667 17.067 42.667 42.667-17.067 42.667-42.667 42.667zM853.333 490.667c-25.6 0-42.667-17.067-42.667-42.667s17.067-42.667 42.667-42.667 42.667 17.067 42.667 42.667-17.067 42.667-42.667 42.667zM853.333 746.667c25.6 0 42.667 17.067 42.667 42.667s-17.067 42.667-42.667 42.667-42.667-17.067-42.667-42.667 17.067-42.667 42.667-42.667z" />
<glyph unicode="&#xe928;" glyph-name="border-horizontal" data-tags="border-horizontal" d="M853.333 490.667h-682.667c-25.6 0-42.667-17.067-42.667-42.667s17.067-42.667 42.667-42.667h682.667c25.6 0 42.667 17.067 42.667 42.667s-17.067 42.667-42.667 42.667zM512 320c-25.6 0-42.667-17.067-42.667-42.667s17.067-42.667 42.667-42.667 42.667 17.067 42.667 42.667-17.067 42.667-42.667 42.667zM512 149.333c-25.6 0-42.667-17.067-42.667-42.667s17.067-42.667 42.667-42.667 42.667 17.067 42.667 42.667-17.067 42.667-42.667 42.667zM512 576c25.6 0 42.667 17.067 42.667 42.667s-17.067 42.667-42.667 42.667-42.667-17.067-42.667-42.667 17.067-42.667 42.667-42.667zM512 746.667c25.6 0 42.667 17.067 42.667 42.667s-17.067 42.667-42.667 42.667-42.667-17.067-42.667-42.667 17.067-42.667 42.667-42.667zM170.667 320c-25.6 0-42.667-17.067-42.667-42.667s17.067-42.667 42.667-42.667 42.667 17.067 42.667 42.667-17.067 42.667-42.667 42.667zM170.667 149.333c-25.6 0-42.667-17.067-42.667-42.667s17.067-42.667 42.667-42.667 42.667 17.067 42.667 42.667-17.067 42.667-42.667 42.667zM170.667 576c25.6 0 42.667 17.067 42.667 42.667s-17.067 42.667-42.667 42.667-42.667-17.067-42.667-42.667 17.067-42.667 42.667-42.667zM170.667 746.667c25.6 0 42.667 17.067 42.667 42.667s-17.067 42.667-42.667 42.667-42.667-17.067-42.667-42.667 17.067-42.667 42.667-42.667zM341.333 746.667c25.6 0 42.667 17.067 42.667 42.667s-17.067 42.667-42.667 42.667-42.667-17.067-42.667-42.667 17.067-42.667 42.667-42.667zM682.667 746.667c25.6 0 42.667 17.067 42.667 42.667s-17.067 42.667-42.667 42.667-42.667-17.067-42.667-42.667 17.067-42.667 42.667-42.667zM341.333 149.333c-25.6 0-42.667-17.067-42.667-42.667s17.067-42.667 42.667-42.667 42.667 17.067 42.667 42.667-17.067 42.667-42.667 42.667zM682.667 149.333c-25.6 0-42.667-17.067-42.667-42.667s17.067-42.667 42.667-42.667 42.667 17.067 42.667 42.667-17.067 42.667-42.667 42.667zM853.333 320c-25.6 0-42.667-17.067-42.667-42.667s17.067-42.667 42.667-42.667 42.667 17.067 42.667 42.667-17.067 42.667-42.667 42.667zM853.333 149.333c-25.6 0-42.667-17.067-42.667-42.667s17.067-42.667 42.667-42.667 42.667 17.067 42.667 42.667-17.067 42.667-42.667 42.667zM853.333 661.333c-25.6 0-42.667-17.067-42.667-42.667s17.067-42.667 42.667-42.667 42.667 17.067 42.667 42.667-17.067 42.667-42.667 42.667zM853.333 746.667c25.6 0 42.667 17.067 42.667 42.667s-17.067 42.667-42.667 42.667-42.667-17.067-42.667-42.667 17.067-42.667 42.667-42.667z" />
<glyph unicode="&#xe929;" glyph-name="border-inner" data-tags="border-inner" d="M896 448c0 25.6-17.067 42.667-42.667 42.667h-298.667v298.667c0 25.6-17.067 42.667-42.667 42.667s-42.667-17.067-42.667-42.667v-298.667h-298.667c-25.6 0-42.667-17.067-42.667-42.667s17.067-42.667 42.667-42.667h298.667v-298.667c0-25.6 17.067-42.667 42.667-42.667v0c25.6 0 42.667 17.067 42.667 42.667v298.667h298.667c21.333 0 42.667 17.067 42.667 42.667zM170.667 320c-25.6 0-42.667-17.067-42.667-42.667s17.067-42.667 42.667-42.667 42.667 17.067 42.667 42.667-21.333 42.667-42.667 42.667zM170.667 149.333c-25.6 0-42.667-17.067-42.667-42.667s17.067-42.667 42.667-42.667 42.667 17.067 42.667 42.667-21.333 42.667-42.667 42.667zM170.667 576c25.6 0 42.667 17.067 42.667 42.667s-21.333 42.667-42.667 42.667-42.667-17.067-42.667-42.667 17.067-42.667 42.667-42.667zM170.667 746.667c25.6 0 42.667 17.067 42.667 42.667s-21.333 42.667-42.667 42.667-42.667-17.067-42.667-42.667 17.067-42.667 42.667-42.667zM341.333 746.667c25.6 0 42.667 17.067 42.667 42.667s-21.333 42.667-42.667 42.667-42.667-17.067-42.667-42.667 17.067-42.667 42.667-42.667zM682.667 746.667c25.6 0 42.667 17.067 42.667 42.667s-17.067 42.667-42.667 42.667-42.667-17.067-42.667-42.667 17.067-42.667 42.667-42.667zM341.333 149.333c-25.6 0-42.667-17.067-42.667-42.667s17.067-42.667 42.667-42.667 42.667 17.067 42.667 42.667-21.333 42.667-42.667 42.667zM682.667 149.333c-25.6 0-42.667-17.067-42.667-42.667s17.067-42.667 42.667-42.667 42.667 17.067 42.667 42.667-21.333 42.667-42.667 42.667zM853.333 320c-25.6 0-42.667-17.067-42.667-42.667s17.067-42.667 42.667-42.667 42.667 17.067 42.667 42.667-21.333 42.667-42.667 42.667zM853.333 149.333c-25.6 0-42.667-17.067-42.667-42.667s17.067-42.667 42.667-42.667 42.667 17.067 42.667 42.667-21.333 42.667-42.667 42.667zM853.333 576c25.6 0 42.667 17.067 42.667 42.667s-17.067 42.667-42.667 42.667-42.667-17.067-42.667-42.667 17.067-42.667 42.667-42.667zM853.333 746.667c25.6 0 42.667 17.067 42.667 42.667s-17.067 42.667-42.667 42.667-42.667-17.067-42.667-42.667 17.067-42.667 42.667-42.667z" />
<glyph unicode="&#xe92a;" glyph-name="border-left" data-tags="border-left" d="M149.333 832c-25.6 0-42.667-17.067-42.667-42.667v-682.667c0-25.6 17.067-42.667 42.667-42.667v0c25.6 0 42.667 17.067 42.667 42.667v682.667c0 25.6-17.067 42.667-42.667 42.667zM320 490.667c-25.6 0-42.667-17.067-42.667-42.667s17.067-42.667 42.667-42.667 42.667 17.067 42.667 42.667-17.067 42.667-42.667 42.667zM490.667 490.667c-25.6 0-42.667-17.067-42.667-42.667s17.067-42.667 42.667-42.667 42.667 17.067 42.667 42.667-17.067 42.667-42.667 42.667zM661.333 490.667c-25.6 0-42.667-17.067-42.667-42.667s17.067-42.667 42.667-42.667 42.667 17.067 42.667 42.667-17.067 42.667-42.667 42.667zM832 490.667c-25.6 0-42.667-17.067-42.667-42.667s17.067-42.667 42.667-42.667 42.667 17.067 42.667 42.667-17.067 42.667-42.667 42.667zM320 832c-25.6 0-42.667-17.067-42.667-42.667s17.067-42.667 42.667-42.667 42.667 17.067 42.667 42.667-17.067 42.667-42.667 42.667zM490.667 832c-25.6 0-42.667-17.067-42.667-42.667s17.067-42.667 42.667-42.667 42.667 17.067 42.667 42.667-17.067 42.667-42.667 42.667zM661.333 832c-25.6 0-42.667-17.067-42.667-42.667s17.067-42.667 42.667-42.667 42.667 17.067 42.667 42.667-17.067 42.667-42.667 42.667zM832 746.667c25.6 0 42.667 17.067 42.667 42.667s-17.067 42.667-42.667 42.667-42.667-17.067-42.667-42.667 17.067-42.667 42.667-42.667zM832 661.333c-25.6 0-42.667-17.067-42.667-42.667s17.067-42.667 42.667-42.667 42.667 17.067 42.667 42.667-17.067 42.667-42.667 42.667zM832 320c-25.6 0-42.667-17.067-42.667-42.667s17.067-42.667 42.667-42.667 42.667 17.067 42.667 42.667-17.067 42.667-42.667 42.667zM490.667 661.333c-25.6 0-42.667-17.067-42.667-42.667s17.067-42.667 42.667-42.667 42.667 17.067 42.667 42.667-17.067 42.667-42.667 42.667zM490.667 320c-25.6 0-42.667-17.067-42.667-42.667s17.067-42.667 42.667-42.667 42.667 17.067 42.667 42.667-17.067 42.667-42.667 42.667zM320 149.333c-25.6 0-42.667-17.067-42.667-42.667s17.067-42.667 42.667-42.667 42.667 17.067 42.667 42.667-17.067 42.667-42.667 42.667zM490.667 149.333c-25.6 0-42.667-17.067-42.667-42.667s17.067-42.667 42.667-42.667 42.667 17.067 42.667 42.667-17.067 42.667-42.667 42.667zM661.333 149.333c-25.6 0-42.667-17.067-42.667-42.667s17.067-42.667 42.667-42.667 42.667 17.067 42.667 42.667-17.067 42.667-42.667 42.667zM832 149.333c-25.6 0-42.667-17.067-42.667-42.667s17.067-42.667 42.667-42.667 42.667 17.067 42.667 42.667-17.067 42.667-42.667 42.667z" />
<glyph unicode="&#xe92b;" glyph-name="border-out" data-tags="border-out" d="M853.333 832h-682.667c-25.6 0-42.667-17.067-42.667-42.667v-682.667c0-25.6 17.067-42.667 42.667-42.667h682.667c25.6 0 42.667 17.067 42.667 42.667v682.667c0 25.6-17.067 42.667-42.667 42.667zM810.667 149.333h-597.333v597.333h597.333v-597.333zM512 405.333c25.6 0 42.667 17.067 42.667 42.667s-17.067 42.667-42.667 42.667-42.667-17.067-42.667-42.667 17.067-42.667 42.667-42.667zM512 234.667c25.6 0 42.667 17.067 42.667 42.667s-17.067 42.667-42.667 42.667-42.667-17.067-42.667-42.667 17.067-42.667 42.667-42.667zM512 576c25.6 0 42.667 17.067 42.667 42.667s-17.067 42.667-42.667 42.667-42.667-17.067-42.667-42.667 17.067-42.667 42.667-42.667zM341.333 405.333c25.6 0 42.667 17.067 42.667 42.667s-17.067 42.667-42.667 42.667-42.667-17.067-42.667-42.667 17.067-42.667 42.667-42.667zM682.667 405.333c25.6 0 42.667 17.067 42.667 42.667s-17.067 42.667-42.667 42.667-42.667-17.067-42.667-42.667 17.067-42.667 42.667-42.667z" />
<glyph unicode="&#xe92c;" glyph-name="border-right" data-tags="border-right" d="M874.667 832c-25.6 0-42.667-17.067-42.667-42.667v-682.667c0-25.6 17.067-42.667 42.667-42.667v0c25.6 0 42.667 17.067 42.667 42.667v682.667c0 25.6-17.067 42.667-42.667 42.667zM704 490.667c-25.6 0-42.667-17.067-42.667-42.667s17.067-42.667 42.667-42.667 42.667 17.067 42.667 42.667-17.067 42.667-42.667 42.667zM533.333 490.667c-25.6 0-42.667-17.067-42.667-42.667s17.067-42.667 42.667-42.667 42.667 17.067 42.667 42.667-17.067 42.667-42.667 42.667zM362.667 490.667c-25.6 0-42.667-17.067-42.667-42.667s17.067-42.667 42.667-42.667 42.667 17.067 42.667 42.667-17.067 42.667-42.667 42.667zM192 490.667c-25.6 0-42.667-17.067-42.667-42.667s17.067-42.667 42.667-42.667 42.667 17.067 42.667 42.667-17.067 42.667-42.667 42.667zM704 149.333c-25.6 0-42.667-17.067-42.667-42.667s17.067-42.667 42.667-42.667 42.667 17.067 42.667 42.667-17.067 42.667-42.667 42.667zM533.333 149.333c-25.6 0-42.667-17.067-42.667-42.667s17.067-42.667 42.667-42.667 42.667 17.067 42.667 42.667-17.067 42.667-42.667 42.667zM362.667 149.333c-25.6 0-42.667-17.067-42.667-42.667s17.067-42.667 42.667-42.667 42.667 17.067 42.667 42.667-17.067 42.667-42.667 42.667zM192 149.333c-25.6 0-42.667-17.067-42.667-42.667s17.067-42.667 42.667-42.667 42.667 17.067 42.667 42.667-17.067 42.667-42.667 42.667zM192 320c-25.6 0-42.667-17.067-42.667-42.667s17.067-42.667 42.667-42.667 42.667 17.067 42.667 42.667-17.067 42.667-42.667 42.667zM192 661.333c-25.6 0-42.667-17.067-42.667-42.667s17.067-42.667 42.667-42.667 42.667 17.067 42.667 42.667-17.067 42.667-42.667 42.667zM533.333 320c-25.6 0-42.667-17.067-42.667-42.667s17.067-42.667 42.667-42.667 42.667 17.067 42.667 42.667-17.067 42.667-42.667 42.667zM533.333 661.333c-25.6 0-42.667-17.067-42.667-42.667s17.067-42.667 42.667-42.667 42.667 17.067 42.667 42.667-17.067 42.667-42.667 42.667zM704 832c-25.6 0-42.667-17.067-42.667-42.667s17.067-42.667 42.667-42.667 42.667 17.067 42.667 42.667-17.067 42.667-42.667 42.667zM533.333 832c-25.6 0-42.667-17.067-42.667-42.667s17.067-42.667 42.667-42.667 42.667 17.067 42.667 42.667-17.067 42.667-42.667 42.667zM362.667 832c-25.6 0-42.667-17.067-42.667-42.667s17.067-42.667 42.667-42.667 42.667 17.067 42.667 42.667-17.067 42.667-42.667 42.667zM192 832c-25.6 0-42.667-17.067-42.667-42.667s17.067-42.667 42.667-42.667 42.667 17.067 42.667 42.667-17.067 42.667-42.667 42.667z" />
<glyph unicode="&#xe92d;" glyph-name="border-top" data-tags="border-top" d="M170.667 768h682.667c25.6 0 42.667 17.067 42.667 42.667s-17.067 42.667-42.667 42.667h-682.667c-25.6 0-42.667-17.067-42.667-42.667s17.067-42.667 42.667-42.667zM512 682.667c-25.6 0-42.667-17.067-42.667-42.667s17.067-42.667 42.667-42.667 42.667 17.067 42.667 42.667-17.067 42.667-42.667 42.667zM512 512c-25.6 0-42.667-17.067-42.667-42.667s17.067-42.667 42.667-42.667 42.667 17.067 42.667 42.667-17.067 42.667-42.667 42.667zM512 341.333c-25.6 0-42.667-17.067-42.667-42.667s17.067-42.667 42.667-42.667 42.667 17.067 42.667 42.667-17.067 42.667-42.667 42.667zM512 170.667c-25.6 0-42.667-17.067-42.667-42.667s17.067-42.667 42.667-42.667 42.667 17.067 42.667 42.667-17.067 42.667-42.667 42.667zM853.333 682.667c-25.6 0-42.667-17.067-42.667-42.667s17.067-42.667 42.667-42.667 42.667 17.067 42.667 42.667-17.067 42.667-42.667 42.667zM853.333 512c-25.6 0-42.667-17.067-42.667-42.667s17.067-42.667 42.667-42.667 42.667 17.067 42.667 42.667-17.067 42.667-42.667 42.667zM853.333 341.333c-25.6 0-42.667-17.067-42.667-42.667s17.067-42.667 42.667-42.667 42.667 17.067 42.667 42.667-17.067 42.667-42.667 42.667zM853.333 170.667c-25.6 0-42.667-17.067-42.667-42.667s17.067-42.667 42.667-42.667 42.667 17.067 42.667 42.667-17.067 42.667-42.667 42.667zM682.667 170.667c-25.6 0-42.667-17.067-42.667-42.667s17.067-42.667 42.667-42.667 42.667 17.067 42.667 42.667-17.067 42.667-42.667 42.667zM341.333 170.667c-25.6 0-42.667-17.067-42.667-42.667s17.067-42.667 42.667-42.667 42.667 17.067 42.667 42.667-17.067 42.667-42.667 42.667zM682.667 512c-25.6 0-42.667-17.067-42.667-42.667s17.067-42.667 42.667-42.667 42.667 17.067 42.667 42.667-17.067 42.667-42.667 42.667zM341.333 512c-25.6 0-42.667-17.067-42.667-42.667s17.067-42.667 42.667-42.667 42.667 17.067 42.667 42.667-17.067 42.667-42.667 42.667zM170.667 682.667c-25.6 0-42.667-17.067-42.667-42.667s17.067-42.667 42.667-42.667 42.667 17.067 42.667 42.667-17.067 42.667-42.667 42.667zM170.667 512c-25.6 0-42.667-17.067-42.667-42.667s17.067-42.667 42.667-42.667 42.667 17.067 42.667 42.667-17.067 42.667-42.667 42.667zM170.667 341.333c-25.6 0-42.667-17.067-42.667-42.667s17.067-42.667 42.667-42.667 42.667 17.067 42.667 42.667-17.067 42.667-42.667 42.667zM170.667 170.667c-25.6 0-42.667-17.067-42.667-42.667s17.067-42.667 42.667-42.667 42.667 17.067 42.667 42.667-17.067 42.667-42.667 42.667z" />
<glyph unicode="&#xe92e;" glyph-name="border-vertical" data-tags="border-vertical" d="M469.333 832c-25.6 0-42.667-17.067-42.667-42.667v-682.667c0-25.6 17.067-42.667 42.667-42.667v0c25.6 0 42.667 17.067 42.667 42.667v682.667c0 25.6-17.067 42.667-42.667 42.667zM298.667 490.667c-25.6 0-42.667-17.067-42.667-42.667s17.067-42.667 42.667-42.667 42.667 17.067 42.667 42.667-17.067 42.667-42.667 42.667zM128 490.667c-25.6 0-42.667-17.067-42.667-42.667s17.067-42.667 42.667-42.667 42.667 17.067 42.667 42.667-17.067 42.667-42.667 42.667zM640 490.667c-25.6 0-42.667-17.067-42.667-42.667s17.067-42.667 42.667-42.667 42.667 17.067 42.667 42.667-17.067 42.667-42.667 42.667zM810.667 490.667c-25.6 0-42.667-17.067-42.667-42.667s17.067-42.667 42.667-42.667 42.667 17.067 42.667 42.667-17.067 42.667-42.667 42.667zM298.667 832c-25.6 0-42.667-17.067-42.667-42.667s17.067-42.667 42.667-42.667 42.667 17.067 42.667 42.667-17.067 42.667-42.667 42.667zM128 832c-25.6 0-42.667-17.067-42.667-42.667s17.067-42.667 42.667-42.667 42.667 17.067 42.667 42.667-17.067 42.667-42.667 42.667zM640 832c-25.6 0-42.667-17.067-42.667-42.667s17.067-42.667 42.667-42.667 42.667 17.067 42.667 42.667-17.067 42.667-42.667 42.667zM810.667 746.667c25.6 0 42.667 17.067 42.667 42.667s-17.067 42.667-42.667 42.667-42.667-17.067-42.667-42.667 17.067-42.667 42.667-42.667zM810.667 661.333c-25.6 0-42.667-17.067-42.667-42.667s17.067-42.667 42.667-42.667 42.667 17.067 42.667 42.667-17.067 42.667-42.667 42.667zM810.667 320c-25.6 0-42.667-17.067-42.667-42.667s17.067-42.667 42.667-42.667 42.667 17.067 42.667 42.667-17.067 42.667-42.667 42.667zM128 661.333c-25.6 0-42.667-17.067-42.667-42.667s17.067-42.667 42.667-42.667 42.667 17.067 42.667 42.667-17.067 42.667-42.667 42.667zM128 320c-25.6 0-42.667-17.067-42.667-42.667s17.067-42.667 42.667-42.667 42.667 17.067 42.667 42.667-17.067 42.667-42.667 42.667zM298.667 149.333c-25.6 0-42.667-17.067-42.667-42.667s17.067-42.667 42.667-42.667 42.667 17.067 42.667 42.667-17.067 42.667-42.667 42.667zM128 149.333c-25.6 0-42.667-17.067-42.667-42.667s17.067-42.667 42.667-42.667 42.667 17.067 42.667 42.667-17.067 42.667-42.667 42.667zM640 149.333c-25.6 0-42.667-17.067-42.667-42.667s17.067-42.667 42.667-42.667 42.667 17.067 42.667 42.667-17.067 42.667-42.667 42.667zM810.667 149.333c-25.6 0-42.667-17.067-42.667-42.667s17.067-42.667 42.667-42.667 42.667 17.067 42.667 42.667-17.067 42.667-42.667 42.667z" />
<glyph unicode="&#xe92f;" glyph-name="briefcase" data-tags="briefcase" d="M725.333 298.667v-64c0-25.6-17.067-42.667-42.667-42.667s-42.667 17.067-42.667 42.667v64h-256v-64c0-25.6-17.067-42.667-42.667-42.667s-42.667 17.067-42.667 42.667v64h-85.333c-29.867 0-59.733 8.533-85.333 21.333v-170.667c0-72.533 55.467-128 128-128h512c72.533 0 128 55.467 128 128v170.667c-25.6-12.8-55.467-21.333-85.333-21.333h-85.333zM896 704h-170.667v42.667c0 72.533-55.467 128-128 128h-170.667c-72.533 0-128-55.467-128-128v-42.667h-170.667c-25.6 0-42.667-17.067-42.667-42.667v-170.667c0-72.533 55.467-128 128-128h597.333c72.533 0 128 55.467 128 128v170.667c0 25.6-17.067 42.667-42.667 42.667zM640 704h-256v42.667c0 25.6 17.067 42.667 42.667 42.667h170.667c25.6 0 42.667-17.067 42.667-42.667v-42.667z" />
<glyph unicode="&#xe930;" glyph-name="calender" data-tags="calender" d="M85.333 149.333c0-72.533 55.467-128 128-128h597.333c72.533 0 128 55.467 128 128v341.333h-853.333v-341.333zM810.667 789.333h-85.333v42.667c0 25.6-17.067 42.667-42.667 42.667s-42.667-17.067-42.667-42.667v-42.667h-256v42.667c0 25.6-17.067 42.667-42.667 42.667s-42.667-17.067-42.667-42.667v-42.667h-85.333c-72.533 0-128-55.467-128-128v-85.333h853.333v85.333c0 72.533-55.467 128-128 128z" />
<glyph unicode="&#xe931;" glyph-name="chart-pie" data-tags="chart-pie" d="M512 874.667c-234.667 0-426.667-192-426.667-426.667s192-426.667 426.667-426.667 426.667 192 426.667 426.667c0 234.667-192 426.667-426.667 426.667zM512 789.333c170.667 0 315.733-128 337.067-298.667h-337.067v298.667zM682.667 153.6l-145.067 251.733h315.733c-17.067-106.667-76.8-200.533-170.667-251.733z" />
<glyph unicode="&#xe932;" glyph-name="chart" data-tags="chart" d="M810.667 874.667h-597.333c-72.533 0-128-55.467-128-128v-597.333c0-72.533 55.467-128 128-128h597.333c72.533 0 128 55.467 128 128v597.333c0 72.533-55.467 128-128 128zM341.333 234.667c0-25.6-17.067-42.667-42.667-42.667s-42.667 17.067-42.667 42.667v170.667c0 25.6 17.067 42.667 42.667 42.667s42.667-17.067 42.667-42.667v-170.667zM554.667 234.667c0-25.6-17.067-42.667-42.667-42.667s-42.667 17.067-42.667 42.667v426.667c0 25.6 17.067 42.667 42.667 42.667s42.667-17.067 42.667-42.667v-426.667zM768 234.667c0-25.6-17.067-42.667-42.667-42.667s-42.667 17.067-42.667 42.667v256c0 25.6 17.067 42.667 42.667 42.667s42.667-17.067 42.667-42.667v-256z" />
<glyph unicode="&#xe933;" glyph-name="check-circle" data-tags="check-circle" d="M512 874.667c-234.667 0-426.667-192-426.667-426.667s192-426.667 426.667-426.667 426.667 192 426.667 426.667c0 234.667-192 426.667-426.667 426.667zM691.2 520.533l-204.8-204.8c-17.067-17.067-42.667-17.067-59.733 0v0l-93.867 93.867c-17.067 17.067-17.067 42.667 0 59.733s42.667 17.067 59.733 0c0 0 0 0 0 0l64-64 174.933 174.933c17.067 17.067 42.667 17.067 59.733 0s17.067-42.667 0-59.733z" />
<glyph unicode="&#xe934;" glyph-name="check-square" data-tags="check-square" d="M896 874.667h-768c-25.6 0-42.667-17.067-42.667-42.667v-768c0-25.6 17.067-42.667 42.667-42.667h768c25.6 0 42.667 17.067 42.667 42.667v768c0 25.6-17.067 42.667-42.667 42.667zM755.2 563.2l-290.133-290.133c-17.067-17.067-42.667-17.067-59.733 0l-136.533 136.533c-17.067 17.067-17.067 42.667 0 59.733s42.667 17.067 59.733 0l106.667-106.667 260.267 260.267c17.067 17.067 42.667 17.067 59.733 0s17.067-42.667 0-59.733z" />
<glyph unicode="&#xe935;" glyph-name="check" data-tags="check" d="M797.867 652.8c-17.067 17.067-42.667 17.067-59.733 0l-320-320-132.267 132.267c0 0 0 0 0 0-17.067 17.067-42.667 17.067-59.733 0s-17.067-42.667 0-59.733l162.133-162.133c8.533-8.533 17.067-12.8 29.867-12.8s21.333 4.267 29.867 12.8l349.867 349.867c17.067 17.067 17.067 42.667 0 59.733z" />
<glyph unicode="&#xe936;" glyph-name="circle-layer" data-tags="circle-layer" d="M298.667 448c-119.467 0-213.333-93.867-213.333-213.333s93.867-213.333 213.333-213.333 213.333 93.867 213.333 213.333-93.867 213.333-213.333 213.333zM469.333 661.333c-102.4 0-196.267-64-234.667-157.867 149.333 38.4 298.667-55.467 332.8-200.533 12.8-42.667 12.8-89.6 0-132.267 132.267 55.467 192 204.8 136.533 332.8-38.4 93.867-132.267 157.867-234.667 157.867zM904.533 712.533c-46.933 98.133-153.6 162.133-264.533 162.133s-217.6-64-264.533-162.133c170.667 51.2 349.867-42.667 401.067-209.067 21.333-64 21.333-128 0-192 145.067 72.533 204.8 251.733 128 401.067z" />
<glyph unicode="&#xe937;" glyph-name="clinic-medical" data-tags="clinic-medical" d="M925.867 520.533l-384 341.333c-17.067 12.8-38.4 12.8-55.467 0l-384-341.333c-17.067-17.067-21.333-42.667-4.267-59.733s42.667-21.333 59.733-4.267l12.8 17.067v-409.6c0-25.6 17.067-42.667 42.667-42.667h597.333c25.6 0 42.667 17.067 42.667 42.667v409.6l12.8-12.8c17.067-17.067 42.667-12.8 59.733 4.267 17.067 12.8 17.067 42.667 0 55.467zM597.333 320h-42.667v-42.667c0-25.6-17.067-42.667-42.667-42.667s-42.667 17.067-42.667 42.667v42.667h-42.667c-25.6 0-42.667 17.067-42.667 42.667s17.067 42.667 42.667 42.667h42.667v42.667c0 25.6 17.067 42.667 42.667 42.667s42.667-17.067 42.667-42.667v-42.667h42.667c25.6 0 42.667-17.067 42.667-42.667s-17.067-42.667-42.667-42.667z" />
<glyph unicode="&#xe938;" glyph-name="clock-eight" data-tags="clock-eight" d="M512 874.667c-234.667 0-426.667-192-426.667-426.667s192-426.667 426.667-426.667 426.667 192 426.667 426.667-192 426.667-426.667 426.667zM554.667 448c0-17.067-8.533-29.867-21.333-38.4l-110.933-64c-21.333-12.8-46.933-4.267-59.733 17.067s-4.267 46.933 17.067 59.733l89.6 51.2v187.733c0 25.6 17.067 42.667 42.667 42.667s42.667-17.067 42.667-42.667v-213.333z" />
<glyph unicode="&#xe939;" glyph-name="clock-five" data-tags="clock-five" d="M512 874.667c-234.667 0-426.667-192-426.667-426.667s192-426.667 426.667-426.667 426.667 192 426.667 426.667-192 426.667-426.667 426.667zM597.333 290.133c-21.333-12.8-46.933-4.267-59.733 17.067l-64 119.467c-4.267 8.533-4.267 12.8-4.267 21.333v213.333c0 25.6 17.067 42.667 42.667 42.667s42.667-17.067 42.667-42.667v-200.533l59.733-110.933c8.533-21.333 4.267-46.933-17.067-59.733z" />
<glyph unicode="&#xe93a;" glyph-name="clock-nine" data-tags="clock-nine" d="M512 874.667c-234.667 0-426.667-192-426.667-426.667s192-426.667 426.667-426.667 426.667 192 426.667 426.667-192 426.667-426.667 426.667zM554.667 448c0-25.6-17.067-42.667-42.667-42.667h-128c-25.6 0-42.667 17.067-42.667 42.667s17.067 42.667 42.667 42.667h85.333v170.667c0 25.6 17.067 42.667 42.667 42.667s42.667-17.067 42.667-42.667v-213.333z" />
<glyph unicode="&#xe93b;" glyph-name="clock-seven" data-tags="clock-seven" d="M512 874.667c-234.667 0-426.667-192-426.667-426.667s192-426.667 426.667-426.667 426.667 192 426.667 426.667-192 426.667-426.667 426.667zM554.667 448c0-8.533-4.267-12.8-4.267-17.067l-64-119.467c-12.8-21.333-38.4-29.867-59.733-17.067s-29.867 38.4-17.067 59.733l59.733 110.933v196.267c0 25.6 17.067 42.667 42.667 42.667s42.667-17.067 42.667-42.667v-213.333z" />
<glyph unicode="&#xe93c;" glyph-name="clock-ten" data-tags="clock-ten" d="M512 874.667c-234.667 0-426.667-192-426.667-426.667s192-426.667 426.667-426.667 426.667 192 426.667 426.667-192 426.667-426.667 426.667zM554.667 448c0-25.6-17.067-42.667-42.667-42.667-8.533 0-12.8 0-21.333 4.267l-110.933 64c-21.333 12.8-25.6 38.4-17.067 59.733 12.8 21.333 38.4 25.6 59.733 17.067l46.933-25.6v136.533c0 25.6 17.067 42.667 42.667 42.667s42.667-17.067 42.667-42.667v-213.333z" />
<glyph unicode="&#xe93d;" glyph-name="clock-three" data-tags="clock-three" d="M512 874.667c-234.667 0-426.667-192-426.667-426.667s192-426.667 426.667-426.667 426.667 192 426.667 426.667-192 426.667-426.667 426.667zM640 405.333h-128c-25.6 0-42.667 17.067-42.667 42.667v213.333c0 25.6 17.067 42.667 42.667 42.667s42.667-17.067 42.667-42.667v-170.667h85.333c25.6 0 42.667-17.067 42.667-42.667s-17.067-42.667-42.667-42.667z" />
<glyph unicode="&#xe93e;" glyph-name="clock-two" data-tags="clock-two" d="M512 874.667c-234.667 0-426.667-192-426.667-426.667s192-426.667 426.667-426.667 426.667 192 426.667 426.667-192 426.667-426.667 426.667zM644.267 473.6l-110.933-64c-21.333-12.8-46.933-4.267-59.733 17.067-4.267 8.533-4.267 12.8-4.267 21.333v213.333c0 25.6 17.067 42.667 42.667 42.667s42.667-17.067 42.667-42.667v-140.8l46.933 25.6c21.333 12.8 46.933 4.267 59.733-17.067s4.267-42.667-17.067-55.467z" />
<glyph unicode="&#xe93f;" glyph-name="clock" data-tags="clock" d="M512 874.667c-234.667 0-426.667-192-426.667-426.667s192-426.667 426.667-426.667 426.667 192 426.667 426.667-192 426.667-426.667 426.667zM661.333 362.667c-12.8-21.333-38.4-25.6-59.733-17.067l-110.933 64c-12.8 8.533-21.333 21.333-21.333 38.4v213.333c0 25.6 17.067 42.667 42.667 42.667s42.667-17.067 42.667-42.667v-187.733l89.6-51.2c21.333-12.8 25.6-38.4 17.067-59.733z" />
<glyph unicode="&#xe940;" glyph-name="columns" data-tags="columns" d="M85.333 832v-768c0-25.6 17.067-42.667 42.667-42.667h341.333v853.333h-341.333c-25.6 0-42.667-17.067-42.667-42.667zM896 874.667h-341.333v-853.333h341.333c25.6 0 42.667 17.067 42.667 42.667v768c0 25.6-17.067 42.667-42.667 42.667z" />
<glyph unicode="&#xe941;" glyph-name="comment-dots" data-tags="comment-dots" d="M512 874.667c-234.667 0-426.667-192-426.667-426.667 0-98.133 34.133-192 98.133-268.8l-85.333-85.333c-17.067-17.067-17.067-42.667 0-59.733 8.533-8.533 17.067-12.8 29.867-12.8h384c234.667 0 426.667 192 426.667 426.667s-192 426.667-426.667 426.667zM341.333 405.333c-25.6 0-42.667 17.067-42.667 42.667s17.067 42.667 42.667 42.667 42.667-17.067 42.667-42.667-17.067-42.667-42.667-42.667zM512 405.333c-25.6 0-42.667 17.067-42.667 42.667s17.067 42.667 42.667 42.667 42.667-17.067 42.667-42.667-17.067-42.667-42.667-42.667zM682.667 405.333c-25.6 0-42.667 17.067-42.667 42.667s17.067 42.667 42.667 42.667 42.667-17.067 42.667-42.667-17.067-42.667-42.667-42.667z" />
<glyph unicode="&#xe942;" glyph-name="compress" data-tags="compress" d="M341.333 320h-213.333c-25.6 0-42.667-17.067-42.667-42.667s17.067-42.667 42.667-42.667h170.667v-170.667c0-25.6 17.067-42.667 42.667-42.667v0c25.6 0 42.667 17.067 42.667 42.667v213.333c0 25.6-17.067 42.667-42.667 42.667zM341.333 874.667c-25.6 0-42.667-17.067-42.667-42.667v-170.667h-170.667c-25.6 0-42.667-17.067-42.667-42.667s17.067-42.667 42.667-42.667h213.333c25.6 0 42.667 17.067 42.667 42.667v213.333c0 25.6-17.067 42.667-42.667 42.667zM682.667 576h213.333c25.6 0 42.667 17.067 42.667 42.667s-17.067 42.667-42.667 42.667h-170.667v170.667c0 25.6-17.067 42.667-42.667 42.667s-42.667-17.067-42.667-42.667v-213.333c0-25.6 17.067-42.667 42.667-42.667zM896 320h-213.333c-25.6 0-42.667-17.067-42.667-42.667v-213.333c0-25.6 17.067-42.667 42.667-42.667v0c25.6 0 42.667 17.067 42.667 42.667v170.667h170.667c25.6 0 42.667 17.067 42.667 42.667s-17.067 42.667-42.667 42.667z" />
<glyph unicode="&#xe943;" glyph-name="corner-down-left" data-tags="corner-down-left" d="M797.867 874.667c-25.6 0-42.667-17.067-42.667-42.667v-443.733c0-46.933-38.4-85.333-85.333-85.333h-341.333l123.733 123.733c17.067 17.067 17.067 42.667 0 59.733s-42.667 17.067-59.733 0l-196.267-196.267c-17.067-17.067-17.067-42.667 0-59.733l196.267-196.267c8.533-8.533 21.333-12.8 29.867-12.8 12.8 0 21.333 4.267 29.867 12.8 17.067 17.067 17.067 42.667 0 59.733l-123.733 123.733h341.333c93.867 0 170.667 76.8 170.667 170.667v443.733c0 25.6-21.333 42.667-42.667 42.667z" />
<glyph unicode="&#xe944;" glyph-name="corner-down-right" data-tags="corner-down-right" d="M827.733 290.133l-196.267 200.533c-17.067 17.067-42.667 17.067-59.733 0s-17.067-42.667 0-59.733l123.733-123.733h-298.667c-72.533 0-128 55.467-128 128v396.8c0 25.6-17.067 42.667-42.667 42.667s-42.667-17.067-42.667-42.667v-401.067c0-119.467 93.867-213.333 213.333-213.333h298.667l-123.733-123.733c-8.533-8.533-12.8-17.067-12.8-29.867 0-25.6 17.067-42.667 42.667-42.667 12.8 0 21.333 4.267 29.867 12.8l196.267 196.267c0 0 0 0 0 0 17.067 17.067 17.067 42.667 0 59.733z" />
<glyph unicode="&#xe945;" glyph-name="corner-left-down" data-tags="corner-left-down" d="M896 776.533h-401.067c-119.467 0-213.333-93.867-213.333-213.333v-298.667l-123.733 123.733c-17.067 17.067-42.667 17.067-59.733 0s-17.067-42.667 0-59.733l196.267-196.267c8.533-8.533 17.067-12.8 29.867-12.8s21.333 4.267 29.867 12.8l196.267 196.267c17.067 17.067 17.067 42.667 0 59.733s-42.667 17.067-59.733 0l-123.733-123.733v298.667c0 72.533 55.467 128 128 128h401.067c25.6 0 42.667 17.067 42.667 42.667s-17.067 42.667-42.667 42.667z" />
<glyph unicode="&#xe946;" glyph-name="corner-right-down" data-tags="corner-right-down" d="M925.867 388.267c-17.067 17.067-42.667 17.067-59.733 0l-123.733-123.733v341.333c0 93.867-76.8 170.667-170.667 170.667h-443.733c-25.6 0-42.667-17.067-42.667-42.667s17.067-42.667 42.667-42.667h443.733c46.933 0 85.333-38.4 85.333-85.333v-341.333l-123.733 123.733c-17.067 17.067-42.667 17.067-59.733 0s-17.067-42.667 0-59.733l196.267-196.267c8.533-8.533 17.067-12.8 29.867-12.8s21.333 4.267 29.867 12.8l196.267 196.267c17.067 17.067 17.067 46.933 0 59.733z" />
<glyph unicode="&#xe947;" glyph-name="corner-up-left" data-tags="corner-up-left" d="M627.2 678.4h-298.667l123.733 123.733c17.067 17.067 17.067 42.667 0 59.733s-42.667 17.067-59.733 0l-196.267-196.267c-17.067-17.067-17.067-42.667 0-59.733l196.267-200.533c8.533-8.533 17.067-12.8 29.867-12.8v0c12.8 0 21.333 4.267 29.867 12.8 17.067 17.067 17.067 42.667 0 59.733l-123.733 128h298.667c72.533 0 128-55.467 128-128v-401.067c0-25.6 17.067-42.667 42.667-42.667s42.667 17.067 42.667 42.667v401.067c0 115.2-98.133 213.333-213.333 213.333z" />
<glyph unicode="&#xe948;" glyph-name="corner-up-right" data-tags="corner-up-right" d="M827.733 665.6l-196.267 196.267c-17.067 17.067-42.667 17.067-59.733 0s-17.067-42.667 0-59.733l123.733-123.733h-341.333c-93.867 0-170.667-76.8-170.667-170.667v-443.733c0-25.6 17.067-42.667 42.667-42.667s42.667 17.067 42.667 42.667v443.733c0 46.933 38.4 85.333 85.333 85.333h341.333l-123.733-123.733c-8.533-8.533-12.8-17.067-12.8-29.867 0-25.6 17.067-42.667 42.667-42.667 12.8 0 21.333 4.267 29.867 12.8l196.267 196.267c0 0 0 0 0 0 17.067 17.067 17.067 42.667 0 59.733z" />
<glyph unicode="&#xe949;" glyph-name="coronavirus" data-tags="coronavirus" d="M938.667 490.667h-46.933c-8.533 72.533-38.4 140.8-81.067 196.267l34.133 34.133c17.067 17.067 17.067 42.667 0 59.733s-42.667 17.067-59.733 0l-34.133-34.133c-55.467 46.933-123.733 72.533-196.267 81.067v46.933c0 25.6-17.067 42.667-42.667 42.667s-42.667-17.067-42.667-42.667v-46.933c-72.533-4.267-140.8-34.133-196.267-81.067l-34.133 34.133c-17.067 17.067-42.667 17.067-59.733 0s-17.067-42.667 0-59.733l34.133-34.133c-46.933-55.467-76.8-123.733-81.067-196.267h-46.933c-25.6 0-42.667-17.067-42.667-42.667s17.067-42.667 42.667-42.667h46.933c8.533-72.533 38.4-140.8 81.067-196.267l-34.133-34.133c-17.067-17.067-17.067-42.667 0-59.733s42.667-17.067 59.733 0l34.133 34.133c55.467-46.933 123.733-72.533 196.267-81.067v-46.933c0-25.6 17.067-42.667 42.667-42.667s42.667 17.067 42.667 42.667v46.933c72.533 8.533 140.8 38.4 196.267 81.067l34.133-34.133c17.067-17.067 42.667-17.067 59.733 0s17.067 42.667 0 59.733l-34.133 34.133c46.933 55.467 72.533 123.733 81.067 196.267h46.933c25.6 0 42.667 17.067 42.667 42.667s-17.067 42.667-42.667 42.667zM384 277.333c-25.6 0-42.667 17.067-42.667 42.667s17.067 42.667 42.667 42.667 42.667-17.067 42.667-42.667-17.067-42.667-42.667-42.667zM405.333 448c-34.133 0-64 29.867-64 64s29.867 64 64 64 64-29.867 64-64-29.867-64-64-64zM618.667 320c-34.133 0-64 29.867-64 64s29.867 64 64 64 64-29.867 64-64-29.867-64-64-64zM640 533.333c-25.6 0-42.667 17.067-42.667 42.667s17.067 42.667 42.667 42.667 42.667-17.067 42.667-42.667-17.067-42.667-42.667-42.667z" />
<glyph unicode="&#xe94a;" glyph-name="dialpad" data-tags="dialpad" d="M597.333 567.467h-170.667c-17.067 0-34.133-12.8-34.133-34.133v-170.667c0-17.067 12.8-34.133 34.133-34.133h170.667c17.067 0 34.133 12.8 34.133 34.133v170.667c0 17.067-17.067 34.133-34.133 34.133zM597.333 268.8h-170.667c-17.067 0-34.133-12.8-34.133-34.133v-170.667c0-17.067 12.8-34.133 34.133-34.133h170.667c17.067 0 34.133 12.8 34.133 34.133v170.667c0 17.067-17.067 34.133-34.133 34.133zM298.667 866.133h-170.667c-17.067 0-34.133-17.067-34.133-34.133v-170.667c0-17.067 12.8-34.133 34.133-34.133h170.667c17.067 0 34.133 12.8 34.133 34.133v170.667c0 17.067-17.067 34.133-34.133 34.133zM298.667 567.467h-170.667c-17.067 0-34.133-12.8-34.133-34.133v-170.667c0-17.067 12.8-34.133 34.133-34.133h170.667c17.067 0 34.133 12.8 34.133 34.133v170.667c0 17.067-17.067 34.133-34.133 34.133zM896 866.133h-170.667c-17.067 0-34.133-12.8-34.133-34.133v-170.667c0-17.067 12.8-34.133 34.133-34.133h170.667c17.067 0 34.133 12.8 34.133 34.133v170.667c0 17.067-17.067 34.133-34.133 34.133zM597.333 866.133h-170.667c-17.067 0-34.133-17.067-34.133-34.133v-170.667c0-17.067 12.8-34.133 34.133-34.133h170.667c17.067 0 34.133 12.8 34.133 34.133v170.667c0 17.067-17.067 34.133-34.133 34.133zM896 567.467h-170.667c-17.067 0-34.133-12.8-34.133-34.133v-170.667c0-17.067 12.8-34.133 34.133-34.133h170.667c17.067 0 34.133 12.8 34.133 34.133v170.667c0 17.067-17.067 34.133-34.133 34.133z" />
<glyph unicode="&#xe94b;" glyph-name="direction" data-tags="direction" d="M610.133 328.533l-98.133-98.133-98.133 98.133c-17.067 17.067-42.667 17.067-59.733 0s-17.067-42.667 0-59.733l128-128c8.533-8.533 17.067-12.8 29.867-12.8s21.333 4.267 29.867 12.8l128 128c17.067 17.067 17.067 42.667 0 59.733s-42.667 17.067-59.733 0zM413.867 524.8l98.133 98.133 98.133-98.133c8.533-8.533 17.067-12.8 29.867-12.8s21.333 4.267 29.867 12.8c17.067 17.067 17.067 42.667 0 59.733l-128 128c0 0 0 0 0 0-17.067 17.067-42.667 17.067-59.733 0l-128-128c-17.067-17.067-17.067-42.667 0-59.733s42.667-17.067 59.733 0z" />
<glyph unicode="&#xe94c;" glyph-name="document-layout-center" data-tags="document-layout-center" d="M810.667 618.667h85.333c25.6 0 42.667 17.067 42.667 42.667s-17.067 42.667-42.667 42.667h-85.333c-25.6 0-42.667-17.067-42.667-42.667s17.067-42.667 42.667-42.667zM896 533.333h-85.333c-25.6 0-42.667-17.067-42.667-42.667s17.067-42.667 42.667-42.667h85.333c25.6 0 42.667 17.067 42.667 42.667s-17.067 42.667-42.667 42.667zM128 618.667h85.333c25.6 0 42.667 17.067 42.667 42.667s-17.067 42.667-42.667 42.667h-85.333c-25.6 0-42.667-17.067-42.667-42.667s17.067-42.667 42.667-42.667zM128 448h85.333c25.6 0 42.667 17.067 42.667 42.667s-17.067 42.667-42.667 42.667h-85.333c-25.6 0-42.667-17.067-42.667-42.667s17.067-42.667 42.667-42.667zM384 448h256c25.6 0 42.667 17.067 42.667 42.667v256c0 25.6-17.067 42.667-42.667 42.667h-256c-25.6 0-42.667-17.067-42.667-42.667v-256c0-25.6 17.067-42.667 42.667-42.667zM896 362.667h-768c-25.6 0-42.667-17.067-42.667-42.667s17.067-42.667 42.667-42.667h768c25.6 0 42.667 17.067 42.667 42.667s-17.067 42.667-42.667 42.667zM554.667 192h-426.667c-25.6 0-42.667-17.067-42.667-42.667s17.067-42.667 42.667-42.667h426.667c25.6 0 42.667 17.067 42.667 42.667s-17.067 42.667-42.667 42.667z" />
<glyph unicode="&#xe94d;" glyph-name="document-layout-left" data-tags="document-layout-left" d="M554.667 618.667h341.333c25.6 0 42.667 17.067 42.667 42.667s-17.067 42.667-42.667 42.667h-341.333c-25.6 0-42.667-17.067-42.667-42.667s17.067-42.667 42.667-42.667zM896 533.333h-341.333c-25.6 0-42.667-17.067-42.667-42.667s17.067-42.667 42.667-42.667h341.333c25.6 0 42.667 17.067 42.667 42.667s-17.067 42.667-42.667 42.667zM128 448h256c25.6 0 42.667 17.067 42.667 42.667v256c0 25.6-17.067 42.667-42.667 42.667h-256c-25.6 0-42.667-17.067-42.667-42.667v-256c0-25.6 17.067-42.667 42.667-42.667zM896 362.667h-768c-25.6 0-42.667-17.067-42.667-42.667s17.067-42.667 42.667-42.667h768c25.6 0 42.667 17.067 42.667 42.667s-17.067 42.667-42.667 42.667zM554.667 192h-426.667c-25.6 0-42.667-17.067-42.667-42.667s17.067-42.667 42.667-42.667h426.667c25.6 0 42.667 17.067 42.667 42.667s-17.067 42.667-42.667 42.667z" />
<glyph unicode="&#xe94e;" glyph-name="document-layout-right" data-tags="document-layout-right" d="M554.667 192h-426.667c-25.6 0-42.667-17.067-42.667-42.667s17.067-42.667 42.667-42.667h426.667c25.6 0 42.667 17.067 42.667 42.667s-17.067 42.667-42.667 42.667zM128 618.667h341.333c25.6 0 42.667 17.067 42.667 42.667s-17.067 42.667-42.667 42.667h-341.333c-25.6 0-42.667-17.067-42.667-42.667s17.067-42.667 42.667-42.667zM128 448h341.333c25.6 0 42.667 17.067 42.667 42.667s-17.067 42.667-42.667 42.667h-341.333c-25.6 0-42.667-17.067-42.667-42.667s17.067-42.667 42.667-42.667zM896 789.333h-256c-25.6 0-42.667-17.067-42.667-42.667v-256c0-25.6 17.067-42.667 42.667-42.667h256c25.6 0 42.667 17.067 42.667 42.667v256c0 25.6-17.067 42.667-42.667 42.667zM896 362.667h-768c-25.6 0-42.667-17.067-42.667-42.667s17.067-42.667 42.667-42.667h768c25.6 0 42.667 17.067 42.667 42.667s-17.067 42.667-42.667 42.667z" />
<glyph unicode="&#xe94f;" glyph-name="download-alt" data-tags="download-alt" d="M768 576h-85.333c-25.6 0-42.667-17.067-42.667-42.667s17.067-42.667 42.667-42.667h85.333c25.6 0 42.667-17.067 42.667-42.667v-298.667c0-25.6-17.067-42.667-42.667-42.667h-512c-25.6 0-42.667 17.067-42.667 42.667v298.667c0 25.6 17.067 42.667 42.667 42.667h85.333c25.6 0 42.667 17.067 42.667 42.667s-17.067 42.667-42.667 42.667h-85.333c-72.533 0-128-55.467-128-128v-298.667c0-72.533 55.467-128 128-128h512c72.533 0 128 55.467 128 128v298.667c0 72.533-55.467 128-128 128zM354.133 332.8l128-128c8.533-8.533 17.067-12.8 29.867-12.8s21.333 4.267 29.867 12.8l128 128c17.067 17.067 17.067 42.667 0 59.733s-42.667 17.067-59.733 0l-55.467-55.467v494.933c0 25.6-17.067 42.667-42.667 42.667s-42.667-17.067-42.667-42.667v-494.933l-55.467 55.467c-17.067 17.067-42.667 17.067-59.733 0s-17.067-42.667 0-59.733z" />
<glyph unicode="&#xe950;" glyph-name="ellipsis-h" data-tags="ellipsis-h" d="M512 533.333c-46.933 0-85.333-38.4-85.333-85.333s38.4-85.333 85.333-85.333 85.333 38.4 85.333 85.333-38.4 85.333-85.333 85.333zM213.333 533.333c-46.933 0-85.333-38.4-85.333-85.333s38.4-85.333 85.333-85.333 85.333 38.4 85.333 85.333-38.4 85.333-85.333 85.333zM810.667 533.333c-46.933 0-85.333-38.4-85.333-85.333s38.4-85.333 85.333-85.333 85.333 38.4 85.333 85.333-38.4 85.333-85.333 85.333z" />
<glyph unicode="&#xe951;" glyph-name="ellipsis-v" data-tags="ellipsis-v" d="M512 533.333c-46.933 0-85.333-38.4-85.333-85.333s38.4-85.333 85.333-85.333 85.333 38.4 85.333 85.333-38.4 85.333-85.333 85.333zM512 661.333c46.933 0 85.333 38.4 85.333 85.333s-38.4 85.333-85.333 85.333-85.333-38.4-85.333-85.333 38.4-85.333 85.333-85.333zM512 234.667c-46.933 0-85.333-38.4-85.333-85.333s38.4-85.333 85.333-85.333 85.333 38.4 85.333 85.333-38.4 85.333-85.333 85.333z" />
<glyph unicode="&#xe952;" glyph-name="exclamation-circle" data-tags="exclamation-circle" d="M512 874.667c0 0 0 0 0 0-234.667 0-426.667-192-426.667-426.667s192-426.667 426.667-426.667 426.667 192 426.667 426.667-192 426.667-426.667 426.667zM512 234.667c-25.6 0-42.667 17.067-42.667 42.667s17.067 42.667 42.667 42.667 42.667-17.067 42.667-42.667-17.067-42.667-42.667-42.667zM554.667 448c0-25.6-17.067-42.667-42.667-42.667s-42.667 17.067-42.667 42.667v170.667c0 25.6 17.067 42.667 42.667 42.667s42.667-17.067 42.667-42.667v-170.667z" />
<glyph unicode="&#xe953;" glyph-name="exclamation-octagon" data-tags="exclamation-octagon" d="M925.867 635.733l-226.133 226.133c-8.533 8.533-17.067 12.8-29.867 12.8h-315.733c-12.8 0-21.333-4.267-29.867-12.8l-226.133-226.133c-8.533-8.533-12.8-17.067-12.8-29.867v-320c0-12.8 4.267-21.333 12.8-29.867l226.133-226.133c8.533-4.267 17.067-8.533 29.867-8.533h320c12.8 0 21.333 4.267 29.867 12.8l226.133 226.133c8.533 8.533 12.8 17.067 12.8 29.867v315.733c-4.267 12.8-8.533 21.333-17.067 29.867zM512 234.667c-25.6 0-42.667 17.067-42.667 42.667s17.067 42.667 42.667 42.667 42.667-17.067 42.667-42.667-17.067-42.667-42.667-42.667zM554.667 448c0-25.6-17.067-42.667-42.667-42.667s-42.667 17.067-42.667 42.667v170.667c0 25.6 17.067 42.667 42.667 42.667s42.667-17.067 42.667-42.667v-170.667z" />
<glyph unicode="&#xe954;" glyph-name="exclamation-triangle" data-tags="exclamation-triangle" d="M968.533 213.333l-345.6 597.333c-34.133 59.733-115.2 81.067-174.933 46.933-21.333-12.8-38.4-29.867-46.933-46.933l-345.6-597.333c-34.133-59.733-12.8-140.8 46.933-174.933 21.333-12.8 42.667-17.067 64-17.067h686.933c72.533 0 128 59.733 128 128 4.267 25.6-4.267 46.933-12.8 64zM512 192c-25.6 0-42.667 17.067-42.667 42.667s17.067 42.667 42.667 42.667 42.667-17.067 42.667-42.667-17.067-42.667-42.667-42.667zM554.667 405.333c0-25.6-17.067-42.667-42.667-42.667s-42.667 17.067-42.667 42.667v170.667c0 25.6 17.067 42.667 42.667 42.667s42.667-17.067 42.667-42.667v-170.667z" />
<glyph unicode="&#xe955;" glyph-name="favorite" data-tags="favorite" d="M938.667 529.067c4.267 21.333-12.8 46.933-34.133 46.933l-243.2 34.133-110.933 221.867c-4.267 8.533-8.533 12.8-17.067 17.067-21.333 12.8-46.933 4.267-59.733-17.067l-106.667-221.867-243.2-34.133c-12.8 0-21.333-4.267-25.6-12.8-17.067-17.067-17.067-42.667 0-59.733l174.933-170.667-42.667-243.2c0-8.533 0-17.067 4.267-25.6 12.8-21.333 38.4-29.867 59.733-17.067l217.6 115.2 217.6-115.2c4.267-4.267 12.8-4.267 21.333-4.267v0c4.267 0 4.267 0 8.533 0 21.333 4.267 38.4 25.6 34.133 51.2l-42.667 243.2 174.933 170.667c8.533 4.267 12.8 12.8 12.8 21.333z" />
<glyph unicode="&#xe956;" glyph-name="flip-h-alt" data-tags="flip-h-alt" d="M315.733 652.8c4.267 0 8.533 0 8.533 0l81.067 21.333c21.333 4.267 38.4 29.867 29.867 51.2-4.267 21.333-29.867 38.4-51.2 29.867l-81.067-17.067c-17.067-4.267-34.133-21.333-34.133-42.667 4.267-21.333 21.333-42.667 46.933-42.667zM405.333 576h-85.333c-25.6 0-42.667-17.067-42.667-42.667s17.067-42.667 42.667-42.667h85.333c25.6 0 42.667 17.067 42.667 42.667s-17.067 42.667-42.667 42.667zM563.2 716.8c4.267 0 8.533 0 8.533 0l81.067 21.333c0 0 0 0 0 0 25.6 8.533 42.667 29.867 34.133 51.2-4.267 21.333-29.867 38.4-51.2 29.867l-81.067-17.067c-17.067-4.267-34.133-21.333-34.133-42.667s21.333-42.667 42.667-42.667zM576 576c-25.6 0-42.667-17.067-42.667-42.667s17.067-42.667 42.667-42.667h85.333c25.6 0 42.667 17.067 42.667 42.667s-17.067 42.667-42.667 42.667h-85.333zM896 840.533c-4.267 21.333-29.867 38.4-51.2 29.867l-42.667-8.533c-17.067-4.267-34.133-21.333-34.133-42.667 0-25.6 17.067-42.667 42.667-42.667 4.267-17.067 21.333-29.867 42.667-29.867v0c25.6 0 42.667 17.067 42.667 42.667v42.667c0 4.267 0 8.533 0 8.533zM170.667 512v0c25.6 0 42.667 17.067 42.667 42.667v85.333c0 25.6-17.067 42.667-42.667 42.667s-42.667-21.333-42.667-42.667v-85.333c0-25.6 17.067-42.667 42.667-42.667zM853.333 661.333c-25.6 0-42.667-17.067-42.667-42.667v-46.933c-12.8-8.533-21.333-21.333-21.333-38.4 0-25.6 17.067-42.667 42.667-42.667h21.333c25.6 0 42.667 17.067 42.667 42.667v85.333c0 25.6-17.067 42.667-42.667 42.667zM853.333 405.333h-682.667c-25.6 0-42.667-17.067-42.667-42.667v-128c0-21.333 12.8-38.4 34.133-42.667l682.667-170.667c4.267 0 8.533 0 8.533 0 25.6 0 42.667 17.067 42.667 42.667v298.667c0 25.6-17.067 42.667-42.667 42.667z" />
<glyph unicode="&#xe957;" glyph-name="flip-h" data-tags="flip-h" d="M896 490.667h-768c-25.6 0-42.667-17.067-42.667-42.667s17.067-42.667 42.667-42.667h768c25.6 0 42.667 17.067 42.667 42.667s-17.067 42.667-42.667 42.667zM725.333 320h-426.667c-12.8 0-21.333-4.267-29.867-12.8-17.067-17.067-17.067-42.667 0-59.733l213.333-213.333c8.533-8.533 17.067-12.8 29.867-12.8s21.333 4.267 29.867 12.8l213.333 213.333c8.533 8.533 12.8 17.067 12.8 29.867 0 25.6-17.067 42.667-42.667 42.667zM657.067 618.667c0-25.6 17.067-42.667 42.667-42.667h25.6c12.8 0 21.333 4.267 29.867 12.8 17.067 17.067 17.067 42.667 0 59.733l-29.867 29.867c-12.8 12.8-34.133 17.067-51.2 8.533-21.333-8.533-29.867-34.133-17.067-55.467 0-8.533 0-8.533 0-12.8zM494.933 755.2l17.067 17.067 34.133-34.133c8.533-8.533 17.067-12.8 29.867-12.8v0c12.8 0 21.333 4.267 29.867 12.8 17.067 17.067 17.067 42.667 0 59.733l-46.933 46.933c-4.267 4.267-8.533 4.267-12.8 8.533 0 4.267-4.267 8.533-8.533 12.8-17.067 17.067-42.667 17.067-59.733 0l-46.933-46.933c-17.067-17.067-17.067-42.667 0-59.733s51.2-21.333 64-4.267zM302.933 576c12.8 0 21.333 4.267 29.867 12.8l46.933 46.933c17.067 17.067 17.067 42.667 0 59.733s-42.667 17.067-59.733 0l-51.2-42.667c-4.267-8.533-8.533-21.333-8.533-29.867 0-25.6 17.067-42.667 42.667-46.933zM465.067 576h64c25.6 0 42.667 17.067 42.667 42.667s-17.067 42.667-42.667 42.667h-64c-25.6 0-42.667-17.067-42.667-42.667s21.333-42.667 42.667-42.667z" />
<glyph unicode="&#xe958;" glyph-name="flip-v-alt" data-tags="flip-v-alt" d="M209.067 439.467c-21.333 4.267-46.933-8.533-51.2-29.867l-21.333-81.067c-4.267-25.6 8.533-51.2 34.133-55.467 4.267 0 8.533 0 8.533 0 21.333 0 38.4 12.8 42.667 34.133l21.333 81.067c4.267 21.333-8.533 42.667-34.133 51.2zM320 746.667h85.333c25.6 0 42.667 17.067 42.667 42.667s-17.067 42.667-42.667 42.667h-85.333c-25.6 0-42.667-17.067-42.667-42.667s21.333-42.667 42.667-42.667zM179.2 149.333c0 21.333-12.8 38.4-34.133 42.667s-46.933-8.533-51.2-29.867l-8.533-42.667c0-4.267 0-8.533 0-8.533 0-25.6 17.067-42.667 42.667-42.667h42.667c21.333 0 38.4 12.8 42.667 34.133 4.267 17.067-8.533 38.4-34.133 46.933zM273.067 686.933c-21.333 4.267-46.933-8.533-51.2-29.867l-21.333-85.333c0-4.267 0-8.533 0-8.533 0-25.6 17.067-42.667 42.667-42.667 21.333 0 38.4 12.8 42.667 34.133l21.333 81.067c4.267 21.333-12.8 42.667-34.133 51.2zM426.667 426.667c-25.6 0-42.667-17.067-42.667-42.667v-85.333c0-25.6 17.067-42.667 42.667-42.667v0c25.6 0 42.667 17.067 42.667 42.667v85.333c0 21.333-17.067 42.667-42.667 42.667zM426.667 682.667c-25.6 0-42.667-17.067-42.667-42.667v-85.333c0-25.6 17.067-42.667 42.667-42.667v0c25.6 0 42.667 17.067 42.667 42.667v85.333c0 21.333-17.067 42.667-42.667 42.667zM448 166.4c-21.333 8.533-46.933 4.267-59.733-17.067h-46.933c-25.6 0-42.667-17.067-42.667-42.667s17.067-42.667 42.667-42.667h85.333c25.6 0 42.667 17.067 42.667 42.667v21.333c0 12.8-8.533 29.867-21.333 38.4zM938.667 115.2l-170.667 682.667c-4.267 21.333-21.333 34.133-42.667 34.133h-128c-25.6 0-42.667-17.067-42.667-42.667v-682.667c0-25.6 17.067-42.667 42.667-42.667h298.667c4.267 0 8.533 0 8.533 0 25.6 8.533 38.4 29.867 34.133 51.2z" />
<glyph unicode="&#xe959;" glyph-name="flip-v" data-tags="flip-v" d="M512 874.667c-25.6 0-42.667-17.067-42.667-42.667v-768c0-25.6 17.067-42.667 42.667-42.667v0c25.6 0 42.667 17.067 42.667 42.667v768c0 25.6-17.067 42.667-42.667 42.667zM925.867 477.867l-213.333 213.333c-8.533 8.533-17.067 12.8-29.867 12.8-25.6 0-42.667-17.067-42.667-42.667v-426.667c0-25.6 17.067-42.667 42.667-42.667 12.8 0 21.333 4.267 29.867 12.8l213.333 213.333c17.067 17.067 17.067 42.667 0 59.733zM162.133 541.867l-46.933-46.933c-4.267-4.267-4.267-8.533-8.533-12.8-4.267 0-8.533-4.267-12.8-8.533-17.067-17.067-17.067-42.667 0-59.733l46.933-46.933c8.533-8.533 17.067-12.8 29.867-12.8v0c12.8 0 21.333 4.267 29.867 12.8 17.067 17.067 17.067 42.667 0 59.733l-12.8 21.333 34.133 34.133c17.067 17.067 17.067 42.667 0 59.733s-42.667 17.067-59.733 0zM324.267 311.467c-17.067 17.067-42.667 17.067-59.733 0s-17.067-42.667 0-59.733l46.933-46.933c4.267-4.267 17.067-12.8 25.6-12.8v0c12.8 0 21.333 4.267 29.867 12.8 17.067 17.067 17.067 42.667 0 59.733l-42.667 46.933zM311.467 691.2l-29.867-29.867c-8.533-4.267-12.8-17.067-12.8-29.867 0-25.6 17.067-42.667 42.667-42.667 8.533 0 12.8 0 21.333 4.267 4.267 0 4.267 0 8.533 0 25.6 0 42.667 17.067 42.667 42.667v25.6c0 12.8-4.267 21.333-12.8 29.867-17.067 17.067-42.667 17.067-59.733 0zM341.333 507.733c-25.6 0-42.667-17.067-42.667-42.667v-64c0-25.6 17.067-42.667 42.667-42.667v0c25.6 0 42.667 17.067 42.667 42.667v64c0 25.6-17.067 42.667-42.667 42.667z" />
<glyph unicode="&#xe95a;" glyph-name="graph-bar" data-tags="graph-bar" d="M256 405.333h-170.667c-25.6 0-42.667-17.067-42.667-42.667 0 0 0 0 0 0v-341.333c0-25.6 17.067-42.667 42.667-42.667 0 0 0 0 0 0h170.667c25.6 0 42.667 17.067 42.667 42.667 0 0 0 0 0 0v341.333c0 25.6-17.067 42.667-42.667 42.667 0 0 0 0 0 0zM938.667 576h-170.667c-25.6 0-42.667-17.067-42.667-42.667 0 0 0 0 0 0v-512c0-25.6 17.067-42.667 42.667-42.667 0 0 0 0 0 0h170.667c25.6 0 42.667 17.067 42.667 42.667 0 0 0 0 0 0v512c0 25.6-17.067 42.667-42.667 42.667 0 0 0 0 0 0zM597.333 917.333h-170.667c-25.6 0-42.667-17.067-42.667-42.667 0 0 0 0 0 0v-853.333c0-25.6 17.067-42.667 42.667-42.667 0 0 0 0 0 0h170.667c25.6 0 42.667 17.067 42.667 42.667 0 0 0 0 0 0v853.333c0 25.6-17.067 42.667-42.667 42.667 0 0 0 0 0 0z" />
<glyph unicode="&#xe95b;" glyph-name="grid" data-tags="grid" d="M896 874.667h-768c-25.6 0-42.667-17.067-42.667-42.667v-170.667h853.333v170.667c0 25.6-17.067 42.667-42.667 42.667zM85.333 320h384v256h-384v-256zM85.333 64c0-25.6 17.067-42.667 42.667-42.667h341.333v213.333h-384v-170.667zM554.667 320h384v256h-384v-256zM554.667 21.333h341.333c25.6 0 42.667 17.067 42.667 42.667v170.667h-384v-213.333z" />
<glyph unicode="&#xe95c;" glyph-name="grids" data-tags="grids" d="M85.333 793.6v-691.2c0-42.667 38.4-81.067 81.067-81.067h174.933v853.333h-174.933c-42.667 0-81.067-38.4-81.067-81.067zM857.6 874.667h-174.933v-853.333h174.933c42.667 0 81.067 38.4 81.067 81.067v691.2c0 42.667-38.4 81.067-81.067 81.067zM426.667 21.333h170.667v853.333h-170.667v-853.333z" />
<glyph unicode="&#xe95d;" glyph-name="grip-horizontal-line" data-tags="grip-horizontal-line" d="M128 490.667h768c25.6 0 42.667 17.067 42.667 42.667s-17.067 42.667-42.667 42.667h-768c-25.6 0-42.667-17.067-42.667-42.667s17.067-42.667 42.667-42.667zM896 405.333h-768c-25.6 0-42.667-17.067-42.667-42.667s17.067-42.667 42.667-42.667h768c25.6 0 42.667 17.067 42.667 42.667s-17.067 42.667-42.667 42.667z" />
<glyph unicode="&#xe95e;" glyph-name="head-side-cough" data-tags="head-side-cough" d="M256 277.333c-25.6 0-42.667-17.067-42.667-42.667s17.067-42.667 42.667-42.667 42.667 17.067 42.667 42.667-17.067 42.667-42.667 42.667zM85.333 234.667c-25.6 0-42.667-17.067-42.667-42.667s17.067-42.667 42.667-42.667 42.667 17.067 42.667 42.667-17.067 42.667-42.667 42.667zM213.333 106.667c-25.6 0-42.667-17.067-42.667-42.667s17.067-42.667 42.667-42.667 42.667 17.067 42.667 42.667-17.067 42.667-42.667 42.667zM691.2 874.667c-170.667 4.267-307.2-123.733-311.467-294.4 0-4.267 0-4.267 0-8.533v0l-76.8-162.133c-8.533-21.333 0-46.933 21.333-55.467 4.267-4.267 12.8-4.267 17.067-4.267h38.4v-76.8c0-46.933 38.4-81.067 81.067-81.067h38.4v-76.8c0-25.6 17.067-42.667 42.667-42.667v0c25.6 0 341.333 0 358.4 0 4.267 0 8.533 0 12.8 0 21.333 8.533 34.133 29.867 29.867 51.2l-38.4 128 76.8 290.133c0 4.267 0 8.533 0 12.8v8.533c0 166.4-128 302.933-290.133 311.467z" />
<glyph unicode="&#xe95f;" glyph-name="head-side-mask" data-tags="head-side-mask" d="M563.2 874.667c-85.333 4.267-170.667-29.867-234.667-89.6-59.733-59.733-93.867-140.8-93.867-230.4l-76.8-128c-4.267-8.533-8.533-12.8-8.533-21.333v0c0-4.267 0-8.533 4.267-12.8l59.733-166.4c0 0 0-4.267 0-4.267 21.333-42.667 64-72.533 115.2-72.533h34.133v-85.333c0-25.6 17.067-42.667 42.667-42.667s42.667 17.067 42.667 42.667v85.333h85.333c4.267 0 8.533 0 12.8 4.267l157.867 55.467c0 0 0-4.267 0-4.267l42.667-149.333c4.267-17.067 21.333-29.867 42.667-29.867 4.267 0 8.533 0 12.8 0 21.333 8.533 34.133 29.867 29.867 51.2l-38.4 136.533 81.067 311.467c0 4.267 0 8.533 0 12.8v4.267c0 174.933-136.533 324.267-311.467 332.8zM725.333 302.933l-149.333-51.2v123.733l183.467 59.733-34.133-132.267zM785.067 533.333c-4.267 0-8.533 0-12.8 0l-247.467-85.333h-256l46.933 72.533c4.267 8.533 8.533 17.067 4.267 25.6 0 0 0 8.533 0 8.533 0 128 106.667 234.667 234.667 234.667 4.267 0 4.267 0 8.533 0 128-8.533 230.4-115.2 226.133-247.467l-4.267-8.533z" />
<glyph unicode="&#xe960;" glyph-name="head-side" data-tags="head-side" d="M563.2 874.667c-85.333 4.267-170.667-29.867-234.667-89.6-59.733-59.733-93.867-145.067-93.867-230.4v0l-81.067-170.667c-8.533-21.333 0-46.933 21.333-55.467 4.267-8.533 12.8-8.533 17.067-8.533h42.667v-85.333c0-46.933 38.4-85.333 85.333-85.333h42.667v-85.333c0-25.6 17.067-42.667 42.667-42.667v0c25.6 0 366.933 0 384 0 4.267 0 8.533 0 12.8 0 21.333 8.533 34.133 29.867 29.867 51.2l-38.4 136.533 81.067 311.467c0 4.267 0 8.533 0 12.8v8.533c0 174.933-136.533 324.267-311.467 332.8z" />
<glyph unicode="&#xe961;" glyph-name="history-alt" data-tags="history-alt" d="M699.733 819.2c-166.4 93.867-371.2 64-503.467-64v76.8c0 25.6-17.067 42.667-42.667 42.667s-42.667-17.067-42.667-42.667v-192c0-25.6 17.067-42.667 42.667-42.667h192c25.6 0 42.667 17.067 42.667 42.667s-17.067 42.667-42.667 42.667h-102.4c59.733 68.267 149.333 106.667 247.467 106.667 187.733 0 341.333-153.6 341.333-341.333s-153.6-341.333-341.333-341.333c-25.6 0-42.667-17.067-42.667-42.667s17.067-42.667 42.667-42.667c153.6 0 294.4 81.067 371.2 213.333 115.2 204.8 42.667 465.067-162.133 584.533zM486.4 618.667c-25.6 0-42.667-17.067-42.667-42.667v-128c0-25.6 17.067-42.667 42.667-42.667h85.333c25.6 0 42.667 17.067 42.667 42.667s-17.067 42.667-42.667 42.667h-42.667v85.333c0 25.6-17.067 42.667-42.667 42.667z" />
<glyph unicode="&#xe962;" glyph-name="history" data-tags="history" d="M725.333 819.2c-166.4 93.867-371.2 64-507.733-64v76.8c0 25.6-17.067 42.667-42.667 42.667s-42.667-17.067-42.667-42.667v-192c0-25.6 17.067-42.667 42.667-42.667h192c25.6 0 42.667 17.067 42.667 42.667s-17.067 42.667-42.667 42.667h-102.4c64 68.267 153.6 106.667 247.467 106.667 187.733 0 341.333-153.6 341.333-341.333s-153.6-341.333-341.333-341.333-341.333 153.6-341.333 341.333c0 25.6-17.067 42.667-42.667 42.667s-42.667-17.067-42.667-42.667c0-234.667 192-426.667 426.667-426.667 153.6 0 294.4 81.067 371.2 213.333 115.2 204.8 46.933 465.067-157.867 584.533zM512 618.667c-25.6 0-42.667-17.067-42.667-42.667v-128c0-25.6 17.067-42.667 42.667-42.667h85.333c25.6 0 42.667 17.067 42.667 42.667s-17.067 42.667-42.667 42.667h-42.667v85.333c0 25.6-17.067 42.667-42.667 42.667z" />
<glyph unicode="&#xe963;" glyph-name="horizontal-align-left" data-tags="horizontal-align-left" d="M896 533.333h-213.333v128c0 25.6-17.067 42.667-42.667 42.667h-469.333v128c0 25.6-17.067 42.667-42.667 42.667-21.333 0-42.667-17.067-42.667-42.667v-768c0-25.6 17.067-42.667 42.667-42.667s42.667 17.067 42.667 42.667v128h725.333c25.6 0 42.667 17.067 42.667 42.667v256c0 25.6-17.067 42.667-42.667 42.667zM597.333 533.333h-426.667v85.333h426.667v-85.333z" />
<glyph unicode="&#xe964;" glyph-name="hospital-square-sign" data-tags="hospital-square-sign" d="M810.667 874.667h-597.333c-72.533 0-128-55.467-128-128v-597.333c0-72.533 55.467-128 128-128h597.333c72.533 0 128 55.467 128 128v597.333c0 72.533-55.467 128-128 128zM682.667 234.667c0-25.6-17.067-42.667-42.667-42.667s-42.667 17.067-42.667 42.667v170.667h-170.667v-170.667c0-25.6-17.067-42.667-42.667-42.667s-42.667 17.067-42.667 42.667v426.667c0 25.6 17.067 42.667 42.667 42.667s42.667-17.067 42.667-42.667v-170.667h170.667v170.667c0 25.6 17.067 42.667 42.667 42.667s42.667-17.067 42.667-42.667v-426.667z" />
<glyph unicode="&#xe965;" glyph-name="hospital-symbol" data-tags="hospital-symbol" d="M512 874.667c-234.667 0-426.667-192-426.667-426.667s192-426.667 426.667-426.667 426.667 192 426.667 426.667c0 234.667-192 426.667-426.667 426.667zM682.667 277.333c0-25.6-17.067-42.667-42.667-42.667s-42.667 17.067-42.667 42.667v128h-170.667v-128c0-25.6-17.067-42.667-42.667-42.667s-42.667 17.067-42.667 42.667v341.333c0 25.6 17.067 42.667 42.667 42.667s42.667-17.067 42.667-42.667v-128h170.667v128c0 25.6 17.067 42.667 42.667 42.667s42.667-17.067 42.667-42.667v-341.333z" />
<glyph unicode="&#xe966;" glyph-name="hospital" data-tags="hospital" d="M917.333 682.667h-128v170.667c0 25.6-17.067 42.667-42.667 42.667h-469.333c-25.6 0-42.667-17.067-42.667-42.667v-170.667h-128c-25.6 0-42.667-17.067-42.667-42.667v-597.333c0-25.6 17.067-42.667 42.667-42.667h810.667c25.6 0 42.667 17.067 42.667 42.667v597.333c0 25.6-17.067 42.667-42.667 42.667zM320 170.667h-42.667c-25.6 0-42.667 17.067-42.667 42.667s17.067 42.667 42.667 42.667h42.667c25.6 0 42.667-17.067 42.667-42.667s-17.067-42.667-42.667-42.667zM320 341.333h-42.667c-25.6 0-42.667 17.067-42.667 42.667s17.067 42.667 42.667 42.667h42.667c25.6 0 42.667-17.067 42.667-42.667s-17.067-42.667-42.667-42.667zM533.333 170.667h-42.667c-25.6 0-42.667 17.067-42.667 42.667s17.067 42.667 42.667 42.667h42.667c25.6 0 42.667-17.067 42.667-42.667s-17.067-42.667-42.667-42.667zM533.333 341.333h-42.667c-25.6 0-42.667 17.067-42.667 42.667s17.067 42.667 42.667 42.667h42.667c25.6 0 42.667-17.067 42.667-42.667s-17.067-42.667-42.667-42.667zM576 576h-21.333v-21.333c0-25.6-17.067-42.667-42.667-42.667s-42.667 17.067-42.667 42.667v21.333h-21.333c-25.6 0-42.667 17.067-42.667 42.667s17.067 42.667 42.667 42.667h21.333v21.333c0 25.6 17.067 42.667 42.667 42.667s42.667-17.067 42.667-42.667v-21.333h21.333c25.6 0 42.667-17.067 42.667-42.667s-17.067-42.667-42.667-42.667zM746.667 170.667h-42.667c-25.6 0-42.667 17.067-42.667 42.667s17.067 42.667 42.667 42.667h42.667c25.6 0 42.667-17.067 42.667-42.667s-17.067-42.667-42.667-42.667zM746.667 341.333h-42.667c-25.6 0-42.667 17.067-42.667 42.667s17.067 42.667 42.667 42.667h42.667c25.6 0 42.667-17.067 42.667-42.667s-17.067-42.667-42.667-42.667z" />
<glyph unicode="&#xe967;" glyph-name="house-user" data-tags="house-user" d="M925.867 520.533l-384 341.333c-17.067 12.8-38.4 12.8-55.467 0l-384-341.333c-17.067-17.067-21.333-42.667-4.267-59.733s42.667-21.333 59.733-4.267l12.8 17.067v-409.6c0-25.6 17.067-42.667 42.667-42.667h597.333c25.6 0 42.667 17.067 42.667 42.667v409.6l12.8-12.8c17.067-17.067 42.667-12.8 59.733 4.267 17.067 12.8 17.067 42.667 0 55.467zM512 490.667c64 0 115.2-51.2 115.2-115.2s-51.2-115.2-115.2-115.2c-64 0-115.2 51.2-115.2 115.2s51.2 115.2 115.2 115.2zM298.667 106.667c0 4.267 0 4.267 4.267 8.533 93.867 115.2 264.533 136.533 379.733 42.667 17.067-12.8 29.867-25.6 42.667-42.667 0 0 0-4.267 4.267-8.533h-430.933z" />
<glyph unicode="&#xe968;" glyph-name="image-v" data-tags="image-v" d="M810.667 874.667h-597.333c-72.533 0-128-55.467-128-128v-597.333c0-72.533 55.467-128 128-128h597.333c72.533 0 128 55.467 128 128v597.333c0 72.533-55.467 128-128 128zM853.333 366.933l-81.067 81.067c-51.2 46.933-132.267 46.933-179.2 0l-38.4-38.4-123.733 123.733c-51.2 46.933-132.267 46.933-179.2 0l-81.067-81.067v294.4c0 25.6 17.067 42.667 42.667 42.667h597.333c25.6 0 42.667-17.067 42.667-42.667v-379.733z" />
<glyph unicode="&#xe969;" glyph-name="key-skeleton-alt" data-tags="key-skeleton-alt" d="M866.133 742.4l59.733 59.733c0 0 0 0 0 0 17.067 17.067 17.067 42.667 0 59.733s-42.667 17.067-59.733 0l-448-448c-34.133 21.333-76.8 34.133-119.467 34.133-119.467 0-213.333-93.867-213.333-213.333s93.867-213.333 213.333-213.333c119.467 0 213.333 93.867 213.333 213.333 0 42.667-12.8 85.333-34.133 119.467l209.067 209.067 59.733-59.733c17.067-17.067 42.667-17.067 59.733 0s17.067 42.667 0 59.733l-59.733 59.733 59.733 59.733 59.733-59.733c17.067-17.067 42.667-17.067 59.733 0s17.067 42.667 0 59.733l-59.733 59.733zM298.667 106.667c-72.533 0-128 55.467-128 128s55.467 128 128 128c72.533 0 128-55.467 128-128s-55.467-128-128-128z" />
<glyph unicode="&#xe96a;" glyph-name="key-skeleton" data-tags="key-skeleton" d="M896 772.267l29.867 29.867c0 0 0 0 0 0 17.067 17.067 17.067 42.667 0 59.733s-42.667 17.067-59.733 0l-448-448c-34.133 21.333-76.8 34.133-119.467 34.133-119.467 0-213.333-93.867-213.333-213.333s93.867-213.333 213.333-213.333c119.467 0 213.333 93.867 213.333 213.333 0 42.667-12.8 85.333-34.133 119.467l238.933 238.933 89.6-89.6c17.067-17.067 42.667-17.067 59.733 0s17.067 42.667 0 59.733l-89.6 89.6 59.733 59.733 29.867-29.867c17.067-17.067 42.667-17.067 59.733 0s17.067 42.667 0 59.733l-29.867 29.867zM298.667 106.667c-72.533 0-128 55.467-128 128s55.467 128 128 128c72.533 0 128-55.467 128-128s-55.467-128-128-128z" />
<glyph unicode="&#xe96b;" glyph-name="keyhole-circle" data-tags="keyhole-circle" d="M512 874.667c-234.667 0-426.667-192-426.667-426.667s192-426.667 426.667-426.667 426.667 192 426.667 426.667-192 426.667-426.667 426.667zM584.533 490.667c-8.533-12.8-17.067-25.6-29.867-29.867v-140.8c0-25.6-17.067-42.667-42.667-42.667s-42.667 17.067-42.667 42.667v140.8c-42.667 25.6-55.467 76.8-29.867 115.2s72.533 55.467 115.2 29.867c42.667-21.333 55.467-72.533 29.867-115.2z" />
<glyph unicode="&#xe96c;" glyph-name="keyhole-square-full" data-tags="keyhole-square-full" d="M896 874.667h-768c-25.6 0-42.667-17.067-42.667-42.667v-768c0-25.6 17.067-42.667 42.667-42.667h768c25.6 0 42.667 17.067 42.667 42.667v768c0 25.6-17.067 42.667-42.667 42.667zM584.533 490.667c-8.533-12.8-17.067-25.6-29.867-29.867v-140.8c0-25.6-17.067-42.667-42.667-42.667s-42.667 17.067-42.667 42.667v140.8c-42.667 25.6-55.467 76.8-29.867 115.2s72.533 55.467 115.2 29.867c42.667-21.333 55.467-72.533 29.867-115.2z" />
<glyph unicode="&#xe96d;" glyph-name="keyhole-square" data-tags="keyhole-square" d="M810.667 874.667h-597.333c-72.533 0-128-55.467-128-128v-597.333c0-72.533 55.467-128 128-128h597.333c72.533 0 128 55.467 128 128v597.333c0 72.533-55.467 128-128 128zM584.533 490.667c-8.533-12.8-17.067-25.6-29.867-29.867v-140.8c0-25.6-17.067-42.667-42.667-42.667s-42.667 17.067-42.667 42.667v140.8c-42.667 25.6-55.467 76.8-29.867 115.2s72.533 55.467 115.2 29.867c42.667-21.333 55.467-72.533 29.867-115.2z" />
<glyph unicode="&#xe96e;" glyph-name="layer-group" data-tags="layer-group" d="M106.667 580.267l384-221.867c8.533-4.267 12.8-4.267 21.333-4.267s12.8 0 21.333 4.267l384 221.867c8.533 4.267 12.8 8.533 17.067 17.067 8.533 21.333 4.267 46.933-17.067 59.733l-384 221.867c-12.8 8.533-29.867 8.533-42.667 0l-384-221.867c-8.533-4.267-12.8-8.533-17.067-17.067-8.533-21.333-4.267-46.933 17.067-59.733zM917.333 486.4l-8.533 4.267-375.467-217.6c-12.8-8.533-29.867-8.533-42.667 0l-375.467 217.6-8.533-4.267c-21.333-12.8-25.6-38.4-17.067-59.733 4.267-8.533 8.533-12.8 17.067-17.067l384-221.867c12.8-8.533 29.867-8.533 42.667 0l384 221.867c21.333 12.8 25.6 38.4 17.067 59.733-4.267 8.533-8.533 12.8-17.067 17.067zM917.333 315.733l-8.533 4.267-375.467-217.6c-12.8-8.533-29.867-8.533-42.667 0l-375.467 217.6-8.533-4.267c-21.333-12.8-25.6-38.4-17.067-59.733 4.267-8.533 8.533-12.8 17.067-17.067l384-221.867c12.8-8.533 29.867-8.533 42.667 0l384 221.867c21.333 12.8 25.6 38.4 17.067 59.733-4.267 8.533-8.533 12.8-17.067 17.067z" />
<glyph unicode="&#xe96f;" glyph-name="layers-alt" data-tags="layers-alt" d="M682.667 661.333h-426.667c-25.6 0-42.667-17.067-42.667-42.667v-106.667h320c25.6 0 42.667-17.067 42.667-42.667v-320h106.667c25.6 0 42.667 17.067 42.667 42.667v426.667c0 25.6-17.067 42.667-42.667 42.667zM469.333 448h-341.333c-25.6 0-42.667-17.067-42.667-42.667v-341.333c0-25.6 17.067-42.667 42.667-42.667h341.333c25.6 0 42.667 17.067 42.667 42.667v341.333c0 25.6-17.067 42.667-42.667 42.667zM896 874.667h-512c-25.6 0-42.667-17.067-42.667-42.667v-106.667h405.333c25.6 0 42.667-17.067 42.667-42.667v-405.333h106.667c25.6 0 42.667 17.067 42.667 42.667v512c0 25.6-17.067 42.667-42.667 42.667z" />
<glyph unicode="&#xe970;" glyph-name="left-indent-alt" data-tags="left-indent-alt" d="M896 234.667h-341.333c-25.6 0-42.667-17.067-42.667-42.667s17.067-42.667 42.667-42.667h341.333c25.6 0 42.667 17.067 42.667 42.667s-17.067 42.667-42.667 42.667zM896 405.333h-341.333c-25.6 0-42.667-17.067-42.667-42.667s17.067-42.667 42.667-42.667h341.333c25.6 0 42.667 17.067 42.667 42.667s-17.067 42.667-42.667 42.667zM554.667 661.333h341.333c25.6 0 42.667 17.067 42.667 42.667s-17.067 42.667-42.667 42.667h-341.333c-25.6 0-42.667-17.067-42.667-42.667s17.067-42.667 42.667-42.667zM896 576h-341.333c-25.6 0-42.667-17.067-42.667-42.667s17.067-42.667 42.667-42.667h341.333c25.6 0 42.667 17.067 42.667 42.667s-17.067 42.667-42.667 42.667zM384 746.667c-25.6 0-42.667-17.067-42.667-42.667v-512c0-25.6 17.067-42.667 42.667-42.667v0c25.6 0 42.667 17.067 42.667 42.667v512c0 25.6-17.067 42.667-42.667 42.667zM196.267 448l46.933 38.4c17.067 17.067 21.333 42.667 4.267 59.733s-42.667 21.333-59.733 4.267l-85.333-72.533c0 0-4.267-4.267-4.267-4.267-17.067-17.067-12.8-46.933 4.267-59.733l85.333-72.533c8.533-4.267 17.067-8.533 25.6-8.533 12.8 0 25.6 4.267 34.133 17.067 17.067 17.067 12.8 46.933-4.267 59.733l-46.933 38.4z" />
<glyph unicode="&#xe971;" glyph-name="left-indent" data-tags="left-indent" d="M128 661.333h768c25.6 0 42.667 17.067 42.667 42.667s-17.067 42.667-42.667 42.667h-768c-25.6 0-42.667-17.067-42.667-42.667s17.067-42.667 42.667-42.667zM128 490.667h426.667c25.6 0 42.667 17.067 42.667 42.667s-17.067 42.667-42.667 42.667h-426.667c-25.6 0-42.667-17.067-42.667-42.667s17.067-42.667 42.667-42.667zM896 234.667h-768c-25.6 0-42.667-17.067-42.667-42.667s17.067-42.667 42.667-42.667h768c25.6 0 42.667 17.067 42.667 42.667s-17.067 42.667-42.667 42.667zM128 320h426.667c25.6 0 42.667 17.067 42.667 42.667s-17.067 42.667-42.667 42.667h-426.667c-25.6 0-42.667-17.067-42.667-42.667s17.067-42.667 42.667-42.667zM930.133 546.133c-17.067 17.067-42.667 21.333-59.733 4.267l-85.333-72.533c0 0-4.267-4.267-4.267-4.267-17.067-17.067-12.8-46.933 4.267-59.733l85.333-72.533c8.533-4.267 17.067-8.533 25.6-8.533 12.8 0 25.6 4.267 34.133 17.067 17.067 17.067 12.8 46.933-4.267 59.733l-46.933 38.4 46.933 38.4c17.067 17.067 17.067 42.667 4.267 59.733z" />
<glyph unicode="&#xe972;" glyph-name="line-spacing" data-tags="line-spacing" d="M426.667 618.667h469.333c25.6 0 42.667 17.067 42.667 42.667s-17.067 42.667-42.667 42.667h-469.333c-25.6 0-42.667-17.067-42.667-42.667s17.067-42.667 42.667-42.667zM243.2 307.2v281.6c8.533-8.533 17.067-12.8 25.6-12.8 12.8 0 21.333 4.267 29.867 8.533 17.067 17.067 21.333 42.667 4.267 59.733l-72.533 85.333c-8.533 12.8-17.067 17.067-29.867 17.067s-25.6-4.267-34.133-17.067l-72.533-85.333c-12.8-17.067-12.8-42.667 8.533-59.733 17.067-12.8 38.4-12.8 55.467 0v-281.6c-17.067 12.8-38.4 17.067-55.467 0s-21.333-42.667-4.267-59.733l72.533-85.333c4.267-4.267 17.067-8.533 29.867-8.533s25.6 4.267 34.133 17.067l72.533 85.333c17.067 17.067 12.8 46.933-4.267 59.733-21.333 12.8-46.933 12.8-59.733-4.267zM896 490.667h-469.333c-25.6 0-42.667-17.067-42.667-42.667s17.067-42.667 42.667-42.667h469.333c25.6 0 42.667 17.067 42.667 42.667s-17.067 42.667-42.667 42.667zM896 277.333h-469.333c-25.6 0-42.667-17.067-42.667-42.667s17.067-42.667 42.667-42.667h469.333c25.6 0 42.667 17.067 42.667 42.667s-17.067 42.667-42.667 42.667z" />
<glyph unicode="&#xe973;" glyph-name="link-h" data-tags="link-h" d="M426.667 320h-128c-72.533 0-128 55.467-128 128s55.467 128 128 128h128c25.6 0 42.667 17.067 42.667 42.667s-17.067 42.667-42.667 42.667h-128c-119.467 0-213.333-93.867-213.333-213.333s93.867-213.333 213.333-213.333h128c25.6 0 42.667 17.067 42.667 42.667s-17.067 42.667-42.667 42.667zM725.333 661.333h-128c-25.6 0-42.667-17.067-42.667-42.667s17.067-42.667 42.667-42.667h128c72.533 0 128-55.467 128-128s-55.467-128-128-128h-128c-25.6 0-42.667-17.067-42.667-42.667s17.067-42.667 42.667-42.667h128c119.467 0 213.333 93.867 213.333 213.333s-93.867 213.333-213.333 213.333zM341.333 448c0-25.6 17.067-42.667 42.667-42.667h256c25.6 0 42.667 17.067 42.667 42.667s-17.067 42.667-42.667 42.667h-256c-25.6 0-42.667-17.067-42.667-42.667z" />
<glyph unicode="&#xe974;" glyph-name="list-ui-alt" data-tags="list-ui-alt" d="M320 618.667h597.333c25.6 0 42.667 17.067 42.667 42.667s-17.067 42.667-42.667 42.667h-597.333c-25.6 0-42.667-17.067-42.667-42.667s17.067-42.667 42.667-42.667zM917.333 490.667h-426.667c-25.6 0-42.667-17.067-42.667-42.667s17.067-42.667 42.667-42.667h426.667c25.6 0 42.667 17.067 42.667 42.667s-17.067 42.667-42.667 42.667zM917.333 277.333h-256c-25.6 0-42.667-17.067-42.667-42.667s17.067-42.667 42.667-42.667h256c25.6 0 42.667 17.067 42.667 42.667s-17.067 42.667-42.667 42.667zM149.333 704c-25.6 0-42.667-17.067-42.667-42.667s17.067-42.667 42.667-42.667 42.667 17.067 42.667 42.667-17.067 42.667-42.667 42.667zM320 490.667c-25.6 0-42.667-17.067-42.667-42.667s17.067-42.667 42.667-42.667 42.667 17.067 42.667 42.667-17.067 42.667-42.667 42.667zM490.667 277.333c-25.6 0-42.667-17.067-42.667-42.667s17.067-42.667 42.667-42.667 42.667 17.067 42.667 42.667-17.067 42.667-42.667 42.667z" />
<glyph unicode="&#xe975;" glyph-name="list-ul" data-tags="list-ul" d="M298.667 618.667h597.333c25.6 0 42.667 17.067 42.667 42.667s-17.067 42.667-42.667 42.667h-597.333c-25.6 0-42.667-17.067-42.667-42.667s17.067-42.667 42.667-42.667zM896 490.667h-597.333c-25.6 0-42.667-17.067-42.667-42.667s17.067-42.667 42.667-42.667h597.333c25.6 0 42.667 17.067 42.667 42.667s-17.067 42.667-42.667 42.667zM896 277.333h-597.333c-25.6 0-42.667-17.067-42.667-42.667s17.067-42.667 42.667-42.667h597.333c25.6 0 42.667 17.067 42.667 42.667s-17.067 42.667-42.667 42.667zM157.867 691.2c-4.267 4.267-8.533 8.533-12.8 8.533-17.067 8.533-34.133 4.267-46.933-8.533-4.267-4.267-8.533-8.533-8.533-12.8-4.267-12.8-4.267-21.333 0-34.133 4.267-4.267 4.267-8.533 8.533-12.8s8.533-8.533 12.8-8.533c4.267-4.267 12.8-4.267 17.067-4.267 12.8 0 21.333 4.267 29.867 12.8 4.267 4.267 8.533 8.533 8.533 12.8 4.267 12.8 4.267 21.333 0 34.133 0 4.267-4.267 8.533-8.533 12.8zM157.867 477.867c-12.8 12.8-29.867 17.067-46.933 8.533-4.267-4.267-8.533-4.267-12.8-8.533s-8.533-8.533-8.533-12.8-4.267-21.333 0-34.133c4.267-4.267 4.267-8.533 8.533-12.8s8.533-8.533 12.8-8.533c4.267-4.267 12.8-4.267 17.067-4.267s12.8 0 17.067 4.267c4.267 4.267 8.533 4.267 12.8 8.533s8.533 8.533 8.533 12.8 4.267 21.333 0 34.133c0 4.267-4.267 8.533-8.533 12.8zM157.867 264.533c-4.267 4.267-8.533 8.533-12.8 8.533-8.533 4.267-21.333 4.267-34.133 0-4.267 0-8.533-4.267-12.8-8.533s-8.533-8.533-8.533-12.8c-8.533-17.067-4.267-34.133 8.533-46.933 4.267-4.267 8.533-8.533 12.8-8.533 4.267-4.267 12.8-4.267 17.067-4.267s12.8 0 17.067 4.267c4.267 4.267 8.533 4.267 12.8 8.533 12.8 12.8 17.067 29.867 8.533 46.933 0 4.267-4.267 8.533-8.533 12.8z" />
</font>
</defs>
</svg>
